<?xml version="1.0" encoding="utf-8"?>
<!-- Generator: Adobe Illustrator 22.0.0, SVG Export Plug-In . SVG Version: 6.00 Build 0)  -->
<svg version="1.1" id="Layer_1" xmlns="http://www.w3.org/2000/svg" xmlns:xlink="http://www.w3.org/1999/xlink" x="0px" y="0px"
	 viewBox="0 0 2880 1800" enable-background="new 0 0 2880 1800" xml:space="preserve">
<path d="M1970.1,595.7c0.1,1.3,0.2,1.6,0.2,1.9c0.1,7.6,0.1,7.6-4.9,13.2c-3.5,3.9-7.6,6.9-12.4,8.9c-4.7,2.1-9.5,3.8-14.3,5.6
	c-1.9,0.7-4,1.3-5.9,2c-3.7,1.2-7.1,2.8-10.3,5.1c-3.8,2.8-8.3,4.3-13,4.5c-4.3,0.2-8.6,0-12.9-0.3c-6.2-0.4-12.4-1-18.6-1.6
	c-2.9-0.2-5.7-0.5-8.6-0.8c-1.4-0.1-2.9-0.3-4.3-0.3c-3.7-0.1-4.5,0.4-5.5,3.9c-1.6,5.9-2.8,11.8-3.5,17.9
	c-0.8,7.3-1.8,14.6-2.7,21.9c-0.2,1.7-0.6,3.5-1.1,5.2c-3.6,12.5-8.5,24.4-15.5,35.5c-5,7.8-11,14.5-19.1,19.3
	c-1.4,0.8-2.7,1.8-3.9,2.7c-2.9,2.2-4.8,5.2-5.4,8.8c-2,12.4-5.8,24.2-9.9,36c-1.7,5-3,10.1-3.8,15.3c-0.5,3.3-1.1,6.6-4,9
	c-1.1,0.9-1.4,2.2-1,3.5c1.7,5.8,0.3,11.4-0.3,17.1c-1.4,14.6-3,29.3-4.3,43.9c-0.9,10-1.6,20.1-2.2,30.1c-0.8,11.5-0.9,23-0.1,34.5
	c1.3,20.3-0.7,40.2-6.7,59.7c-3.2,10.5-6.4,21.1-9.4,31.7c-4.1,14.5-6.3,29.4-7.5,44.4c-1.1,14.5-2.4,29-3.5,43.5
	c-0.8,10.8-1.5,21.7-2.2,32.6c-0.4,6.7-0.9,13.4-1.1,20.1c-0.4,10.9-0.2,21.8,2.8,32.4c0.1,0.3,0.1,0.6,0.1,0.9
	c0.1,1.1-0.8,1.9-1.8,1.5c-1-0.5-1.9-1.1-2.9-1.6c-1-0.5-1.9-1.2-2.9-1.6c-1.3-0.5-2.6,0-3.3,1.3c-1,1.8-1.6,3.8-1.5,6
	c0.5,8.7,2.4,17.1,6.5,24.9c2.3,4.3,5.4,8,9.3,10.8c4.4,3.2,8.9,6.2,13.3,9.4c3.6,2.6,7.2,5.3,10.8,7.9c5,3.7,6.2,8.8,4.8,14.5
	c-1.6,6.7-5.4,12.3-10.9,16.5c-3.1,2.4-6.8,3.4-10.7,3.9c-6.9,1-13.7,0.4-20.6-0.6c-7.8-1.1-15.5-2.4-23.2-3.9c-7-1.3-13.7-0.4-20,3
	c-2.3,1.2-4.4,2.5-6.6,3.8c-3.3,2-6.6,4-9.9,5.9c-4.7,2.7-9.7,4-15.1,4.2c-11.1,0.5-22.1,0.2-33-1.4c-8.9-1.3-17.7-2.7-26.5-4.6
	c-14.3-3.1-27.1-9.6-38.7-18.3c-0.4-0.3-0.7-0.6-1.1-0.9c-1.4-1.1-1.9-2.5-1.5-4.2c0.9-3.6,1.7-7.1,2.6-10.7c1-4.4,1.9-8.7,3.1-13.1
	c1.1-4.3,0-7.9-3.2-10.9c-1.7-1.6-3.5-3.3-5.1-5.1c-5.8-6.3-8.7-13.6-8.7-22.2c0-11.4-0.3-22.7,0.4-34.1c0.2-3.2-0.1-6.4-0.4-9.6
	c-0.4-4.5-2.2-8.2-5.6-11.3c-8.8-8-19-13-30.6-15.1c-8.3-1.5-16.7-2.6-25.1-3.9c-10.3-1.6-20.5-3.2-30.8-5.1
	c-10.9-2-21.2-6.1-30.8-11.7c-11.9-6.9-23.2-14.7-33.8-23.6c-6.4-5.4-12-11.5-17-18.2c-1.8-2.4-3.8-4.8-5.9-7
	c-4.1-4.2-8.9-7.3-14.5-9.1c-6.8-2.2-13.7-4.3-20.6-6.4c-3.3-1-4.1-0.7-6,2.2c-2.6,3.9-4.2,8.3-4.9,12.9c-0.8,4.6-1.5,9.2-1.7,13.8
	c-1.3,20.7-7.1,40.2-15.2,59.2c-11.4,26.8-27.3,50.6-48.3,70.9c-12.2,11.8-24.5,23.5-37.4,34.5c-3.3,2.8-6.5,5.7-9.5,8.8
	c-2.3,2.4-4.5,5-6.2,7.9c-5.2,8.4-5.4,17.2-0.9,26c0.6,1.1,1.2,2.2,1.8,3.4c0.4,0.9-0.2,2.1-1.2,2.3c-0.9,0.2-1.9,0.3-2.8,0.4
	c-8.2,0.3-16.3,0.5-24.5,1c-6.5,0.4-12.8-0.6-18.9-2.7c-5.1-1.8-10.2-3.8-15.3-5.7c-2.1-0.8-4-1.9-6.7-1.8c-0.1,0.8-0.3,1.6-0.1,2.2
	c0.6,3,1.3,5.9,2,8.9c0.4,1.7,0.7,3.4,1,5.3c-0.8,0.2-1.4,0.4-1.9,0.5c-10.5,0.5-21.1,1-31.6,1.5c-1.9,0.1-3.8,0.2-5.8,0.2
	c-3.5-0.1-7.1-0.4-10.2-2.2c-8.4-4.8-17.3-5-26.5-3.7c-9.8,1.5-19.5,3.7-29,6.5c-18.1,5.4-35.1,2.9-51.4-6.2c-1.7-0.9-3.3-1.9-5-2.9
	c-3-2-6.3-3-9.8-3.7c-12.6-2.5-25.2-4.2-37.9-5.8c-4.9-0.6-9.7-1.8-14.6-2.7c-0.8-0.2-1.5-0.4-2.3-0.7c-1.2-0.5-1.7-2.4-0.7-3.2
	c2.8-1.9,4.1-4.8,6.1-7.3c9.6-12,19.1-24,28.7-36.1c2-2.5,3.9-5.1,5.7-7.7c3.2-4.6,5.6-9.7,7.1-15.1c1.6-5.5,3.2-11.1,4.9-16.5
	c5.2-16.9,13.7-32,24.6-45.8c3.4-4.3,7.3-8.1,11.6-11.4c15.1-11.6,30.2-23.2,45.3-34.8c2.9-2.2,5.8-4.5,8.6-6.9
	c3.5-3,6.6-6.5,9.3-10.3c2.8-4,4.5-8.5,5.1-13.3c0.7-6.2,1.3-12.4,1.8-18.6c1.4-14.7,2.7-29.3,4.1-44c0.7-7,2.6-13.8,4-20.7
	c4.1-19.9,10.1-39.3,15.8-58.8c5.1-17.8,9.3-35.9,12.7-54.1c2.5-13.3,6.4-26.1,13.4-37.7c3.1-5.2,6.7-10.1,10.2-15.1
	c1.7-2.4,3.4-4.6,4.3-7.4c0.7-2.2,2-4,3.6-5.6c4.6-4.6,9.2-9.3,13.9-14c0.9-0.9,1.7-1.8,2.8-3c-0.7-1-1.2-1.9-2-2.6
	c-4.6-4.2-9.3-8.3-13.9-12.5c-9.6-8.9-19.4-17.7-28.6-27c-19-19.2-34.7-41-47.5-64.8c-4.6-8.5-8.1-17.4-9.6-27
	c-1.6-10.3-1.9-20.7-1-31.1c0.6-6.1,1.5-12.1,3.3-17.9c0.8-2.7,1.8-5.5,2.9-8.1c7.3-16.5,20.2-25.5,37.7-28.5c6.4-1.1,12.8-0.7,19,1
	c9.9,2.6,16.5,8.8,19.4,18.7c4.9,16.8,0,30.9-12.1,42.8c-1.8,1.8-4.1,3.1-6.4,4.1c-4.5,1.9-7.5-0.3-7.6-5.2c0-2.2,0.6-4.1,1.8-5.9
	c1-1.5,2.2-2.8,3.2-4.2c1.3-1.8,2.8-3.5,3.9-5.4c2-3.4,2.8-7.1,2.1-11.1c-0.3-1.7-0.8-3.4-1.2-5.1c-1.5-6.7-5.8-10.4-12.4-11.8
	c-8.1-1.7-15.2-0.2-20.9,6.3c-6.8,7.9-10.3,17.2-11.1,27.6c-0.9,11.7,1,22.9,5.4,33.8c8,19.9,20.1,37,35.5,51.8
	c17.2,16.6,36.1,31.1,55.9,44.5c7,4.8,14.6,8.6,21.9,12.9c2,1.1,3.9,1.2,5.9,0.2c1-0.5,2-0.9,3-1.4c17.8-8.1,36.4-13,55.8-15
	c17.8-1.8,35.7-2.8,53.6-3.8c18-1,36.1-1.8,54.1-3c11.8-0.8,23.6-2.1,35.4-3.2c7.8-0.7,15.6-1.5,23.4-2.2
	c12.4-1.1,24.8-2.3,37.3-3.4c5.7-0.5,11.5-1,17.2-1.4c14.9-1,29-4.7,42.4-11.2c8.9-4.3,17.8-8.8,26.6-13.3
	c14.5-7.4,29.3-14.4,44.4-20.5c4.2-1.7,7.8-4.2,10.7-7.8c12.5-15.6,25.1-31.1,37.8-46.6c10.9-13.3,21-27,30.1-41.5
	c13.3-21.3,26.6-42.6,40.1-63.8c4.6-7.3,9.6-14.4,14.6-21.4c9.1-12.7,21.3-21,36.1-25.7c3.5-1.1,7-2.1,10.6-3.1
	c4-1.1,8.1-1.7,12.3-1.6c8.6,0.1,16.9-1.5,24.5-5.5c5.4-2.8,11.1-3.1,16.8-1.5c3.2,0.9,6.3,2.2,9.3,3.7c5.5,2.7,10.6,6.1,15.1,10.1
	c5.1,4.6,10.1,9.3,15,14.2c5,4.9,6.9,10.9,6.3,17.9c-0.7,8.6-0.2,9.7,6.6,15.1c6.7,5.3,14,9.6,21.6,13.4c6.3,3.1,12.7,6.1,19.1,9.1
	c10.2,4.7,20,10.1,28.9,16.9c3.4,2.6,6.9,5.2,9.3,8.9C1968.7,594.8,1969.7,595.3,1970.1,595.7z"/>
</svg>
