<?xml version="1.0" encoding="utf-8"?>
<!-- Generator: Adobe Illustrator 22.0.0, SVG Export Plug-In . SVG Version: 6.00 Build 0)  -->
<svg version="1.1" id="Layer_1" xmlns="http://www.w3.org/2000/svg" xmlns:xlink="http://www.w3.org/1999/xlink" x="0px" y="0px"
	 viewBox="0 0 2880 1800" enable-background="new 0 0 2880 1800" xml:space="preserve">
<path d="M1668.2,404.8c4.9,1.9,9.3,3.7,13.9,5.5c0.5-0.9,0.8-1.6,1.2-2.3c0.5-1.2,1-2.4,1.6-3.5c1.9-3.4,4.2-3.9,7.5-1.7
	c1.6,1.1,3.1,2.3,4.4,3.7c3.5,3.5,6.9,7.1,10.3,10.7c4.8,5.2,9.5,10.4,14.2,15.6c1.2,1.3,2.4,2.6,3.9,3.6c2.7,1.9,5.5,2.8,9,2.1
	c4.4-0.9,8.9-1.2,13.3-1.4c12.6-0.6,24.4,2.5,35.4,8.7c3.5,2,6.8,4.2,10.1,6.4c9.5,6.4,19.7,11.1,31.1,13.2
	c10.1,1.9,20.1,1.5,30-0.7c15.6-3.4,31.4-6,47.2-8.4c6.8-1,13.6-2.2,20.4-3.2c1.9-0.3,3.8-0.5,5.7-0.4c5.1,0.2,9.1,2.6,10.9,7.3
	c3.4,8.5,6.9,16.9,8.5,25.9c0.9,5.3,0.4,10.5-1,15.7c-2.1,7.5-5.7,14.2-10.7,20.2c-3.6,4.3-7.7,8.1-12.1,11.6
	c-2,1.6-3.7,3.5-5.5,5.3c-0.9,0.9-1.5,2-2.2,2.9c0.6,1.5,1.9,1.5,2.8,1.8c3.2,1.1,6.4,2,9.6,3.2c2.7,1,5.4,2.1,7.8,3.6
	c4.7,2.9,6.6,7.4,5.5,12.7c-0.9,4.8-3,9.1-6.1,12.9c-2.7,3.4-6,6.2-9.6,8.7c-8,5.4-16.3,10-25.6,13c-9.3,3-18.4,6.6-27.3,10.6
	c-3.8,1.7-7.4,3.7-11.1,5.6c-8.8,4.7-12.7,12.4-13,22c-0.1,4.9,0.3,9.9,1.1,14.8c2.8,16.9,5.7,33.7,8.8,50.5
	c4.4,23.9,5.8,47.9,4.6,72.1c-0.6,12.8-1.7,25.5-3.5,38.2c-2.7,18.7-6.6,37.1-12,55.2c-5.8,19.5-12.1,38.8-20.2,57.4
	c-6.7,15.3-15,29.6-25.3,42.9c-8.5,11-17.4,21.8-27.3,31.6c-6.7,6.6-13.8,12.9-21.5,18.3c-21.4,15-36,35.1-45.1,59.4
	c-4.9,13.1-8.3,26.5-11.4,40.1c-2.2,9.7-4.2,19.4-5.3,29.2c-1.6,13.6-2.1,27.1-1.1,40.7c2.3,32.3,8.3,64,16.8,95.3
	c4.8,17.7,16,29.5,32.5,36.7c1.8,0.8,3.6,1.3,5.3,2.1c2.5,1.3,5.1,2.6,7.4,4.4c4.8,3.7,7.3,8.8,7.8,14.8c1,13.8-8.1,25.4-21.9,27.6
	c-17.8,2.8-35.4,2.1-52.6-3.5c-1.2-0.4-2.4-0.6-3.7-0.9c-0.4,2,0.4,3.4,0.8,4.9c0.7,2.3,1.6,4.5,2.1,6.9c1.6,7.9-1.3,14.3-8.3,18.2
	c-1.7,0.9-3.4,1.8-5.2,2.3c-13.7,4.3-27.6,6.9-42,5.9c-23.6-1.7-42.1-12.1-54.5-32.6c-1.4-2.3-2.7-4.7-3.9-7.2
	c-16.4-32.8-28.7-67-36-102.9c-3-14.6-5.1-29.3-6.3-44.1c-1.5-18.1-1.8-36.1-0.6-54.2c0.5-8,1.5-15.9,2.3-23.9
	c0.7-6.5,1.5-13,2.1-19.6c0.2-2.5,0.3-5.1,0.1-7.7c-0.4-5.7-2.8-8.4-8.5-9.3c-3.5-0.5-7-0.9-10.5-0.9c-11.7-0.2-23.3-0.9-34.9-2.2
	c-26.2-3-51.7-8.9-75.9-19.7c-17-7.5-33.8-15.3-50.7-22.9c-7.9-3.6-15.7-7.1-24-9.6c-12.5-3.7-25.2-5.7-38.2-6.2
	c-13.9-0.5-27.8,0.3-41.7,1.4c-3.2,0.2-6.4,0.5-9.6,0.6c-7.5,0.2-13.1,3.6-17.3,9.7c-0.5,0.7-0.9,1.3-1.3,2
	c-9.5,15.9-19.5,31.6-28.2,47.9c-8.2,15.3-18,29.5-28.5,43.2c-11.8,15.5-23.9,30.8-36.6,45.7c-3.3,3.9-6.6,7.9-9.6,12
	c-8.8,11.6-14,24.8-15.9,39.1c-1.5,10.7-0.5,21.4,3,31.7c2.1,6.2,4.3,12.4,6.2,18.7c2.4,7.9,6.4,14.5,12.6,20.1
	c3.6,3.2,7,6.5,11,9.2c1.3,0.9,2.6,1.9,3.8,2.9c7.6,6.6,10.1,16.7,6.6,26.2c-2,5.3-5.3,9.5-9.7,12.8c-5.8,4.3-12.4,6.5-19.6,7
	c-6.8,0.4-13.4-0.7-19.9-2.5c-8.3-2.3-16.3-5.5-24.4-8.7c-1.6-0.6-3.1-1.7-5.1-1.4c-0.5,2.1,0,4.1,0.5,6.1c0.6,2.5,1.3,5,1.5,7.5
	c0.6,6.6-1.5,12.3-6.3,16.9c-2.4,2.4-5.2,4.2-8.3,5.7c-15.8,7.4-32.1,9.3-49.1,5.2c-11.6-2.8-20.4-9.5-26.3-20
	c-4-7.2-6.9-14.8-9.2-22.6c-5.1-17.5-9.4-35.2-13.4-53c-2.5-10.9-4.9-21.8-7.1-32.8c-4.6-23.1-2.4-45.5,7.4-67
	c5.4-11.8,11.1-23.4,17.9-34.4c6.5-10.5,10.3-21.9,12.4-34c1.8-10.4,2.2-21,2.3-31.5c0-10.6-2.5-20.6-6.6-30.2
	c-2.2-5.1-4.7-10.2-7.2-15.2c-2.2-4.3-4.4-8.5-6.8-12.7c-8.9-15.6-14.9-32.1-18-49.8c-2.4-13.5-5.1-27-7.3-40.6
	c-2.7-17.1-4.5-34.3-4.9-51.6c-0.3-18.5,1.8-36.7,7.3-54.4c3.5-11.3,6.3-22.8,9.7-34.1c1.8-6.1,4.2-12.1,6.6-18
	c2.3-5.7,5.4-10.9,8.9-15.9c1.7-2.5,3.4-5,4.9-7.7c2.7-4.9,2.6-9.6-0.7-14.4c-10.4-15-16.7-31.6-19.3-49.6
	c-1.4-10.2-1.7-20.4-0.8-30.6c1.1-12.5,3.1-24.7,6.7-36.7c5.6-18.6,14.8-35.3,26-51.1c27.9-39.2,72-62,106.3-69.1
	c10.2-2.1,20.5-3.3,30.9-3.5c30.5-0.6,59.4,6.1,86.9,18.9c17.9,8.3,34.9,18.2,49.8,31.3c30.7,27.1,49.5,61,56.9,101.3
	c1.9,10.4,2.4,21,2.1,31.5c-0.4,10.9-0.8,21.7-1.2,32.6c-0.1,1.9-0.1,3.8,0,5.8c0.1,1.9,1.2,3.3,3.2,3.7c1.4,0.3,2.8,0.5,4.3,0.5
	c8.5,0.2,16.9-0.4,25.4-1.3c18.5-1.9,36.6-5.8,54.7-9.8c15-3.3,30.1-6,45.2-8.9c16.6-3.2,33.4-6,49.7-10.6c8-2.2,15.8-5,23.4-8.6
	c16.2-7.6,29.1-19,38.8-34c7.5-11.7,12.8-24.3,16.4-37.7c3.3-12,6.3-24.1,9.7-36.1c3.1-10.9,6.9-21.6,11.4-32.1
	c3.8-8.8,8.2-17.4,13.3-25.5c5.2-8.4,10.3-16.9,15.7-25.2c3.5-5.4,7.3-10.5,11.2-15.6c4.3-5.6,9.4-10.5,15-14.8
	c1.4-1.1,2.7-2.2,4-3.4c7.3-6.7,11.2-15.1,12-24.9c0.6-8,0.2-16-0.5-24c-0.6-7.3-1.5-14.6-2.2-22
	C1668.2,407.2,1668.2,406.4,1668.2,404.8z M1117.2,704.6c1.4-0.4,2.5-0.7,3.5-1c3.6-1.3,7.2-2.8,10.8-3.9c5.3-1.7,10.6-3.6,16-4.9
	c8.3-2,16.8-2,25.2-1.6c3.5,0.2,7,0.3,10.5,0.4c0.7,0,1.6,0.2,2-1c-0.2-0.4-0.4-1-0.8-1.6c-5.3-7.9-12.6-13-21.7-15.5
	c-5.9-1.6-12-1.6-18.1-1c-4.2,0.4-8.1,1.8-11.6,4.2c-6.9,4.8-11.9,11.1-14.8,18.9C1117.6,699.5,1116.7,701.7,1117.2,704.6z
	 M1055.7,1349.7c-0.6-1.8-0.8-2.5-1.1-3.2c-10-23.4-15.2-48.1-18.3-73.2c-1-7.9-1.7-15.9-2.7-23.8c-0.1-0.9-0.5-1.8-0.7-2.7
	c-1.2,0-2.1,0-3.1,0c-1.7,2.5-3.1,5.2-4.1,8.1c-0.4,1.2-0.7,2.5-0.7,3.7c-0.1,8.3,0.2,16.6,1.2,24.9c2.1,16.2,6.1,32,10.8,47.6
	C1039.7,1340.3,1046.2,1345.7,1055.7,1349.7z M1665.6,1354.3c-0.9-1.9-1.4-2.9-1.9-3.9c-10.9-20.5-21.7-40.9-32.7-61.4
	c-2.3-4.4-5-8.5-7.6-12.8c-0.4-0.6-0.7-1.5-1.9-1.4c-0.2,0.3-0.4,0.7-0.5,1.1c-1.5,5.9-0.9,11.8,0.4,17.6
	c4.1,18.3,12.5,34.5,24.9,48.5c2.4,2.7,5.2,5.2,8.1,7.4c2.3,1.7,5,2.9,7.5,4.1C1662.8,1354.1,1663.8,1354,1665.6,1354.3z"/>
</svg>
