<?xml version="1.0" encoding="utf-8"?>
<!-- Generator: Adobe Illustrator 22.0.0, SVG Export Plug-In . SVG Version: 6.00 Build 0)  -->
<svg version="1.1" id="Layer_1" xmlns="http://www.w3.org/2000/svg" xmlns:xlink="http://www.w3.org/1999/xlink" x="0px" y="0px"
	 viewBox="0 0 2880 1800" enable-background="new 0 0 2880 1800" xml:space="preserve">
<path d="M1219.8,1126.4c-0.1-2.4-0.3-4.8-0.4-6.9c-1.1-0.6-1.7,0-2.3,0.5c-2.2,1.9-4.4,3.7-6.5,5.7c-4.5,4.1-9.1,8.1-14.1,11.5
	c-6.3,4.3-11.1,10.1-14.8,16.8c-3,5.3-5.1,11-7.1,16.8c-7.3,21-12.8,42.5-17.2,64.3c-2.9,14.3-5.4,28.6-7.3,43
	c-1,7.5-1.6,15-2.3,22.4c-0.1,1.3-0.1,2.6-0.3,3.8c-1.4,9.9,0.3,19.5,3.9,28.7c1.5,3.9,3.4,7.6,5.2,11.3c1.7,3.6,4.6,5.6,8.4,6.6
	c2.3,0.7,4.6,1.2,6.9,2.1c9.6,3.7,15.8,10.5,18.7,20.4c1.2,4.3,1.9,8.8,1.6,13.3c-0.4,6.4-3.3,9.9-9.5,11.6
	c-1.5,0.4-3.1,0.7-4.7,0.8c-2.6,0.2-5.1,0.8-7.3,2.1c-11.9,7.1-24.8,8-38.1,6.2c-1.8-0.2-3.5-0.2-5.2,0.2
	c-16.4,3.1-31.4-0.7-45.2-9.8c-2.4-1.6-4.6-3.4-7-5.1c-6.5-4.6-9.4-11.2-9.7-18.9c-0.2-3.5,0-7,0.2-10.5c0.8-12.3,1.8-24.6,2.6-36.9
	c0.8-12.1,1.7-24.3,2.4-36.4c0.8-13.9,1.6-27.8,0.8-41.7c-0.8-14.1,1.3-28.1,4.9-41.8c2.1-7.9,4.8-15.6,7.7-23.2
	c6.4-16.9,12.3-34,17-51.5c2.2-8.2,3.4-16.6,3.6-25.1c0.3-10.6-0.5-21.1-1.5-31.6c-1.2-12.3-2.9-24.5-5-36.6
	c-3.4-19.9-8-39.5-13.1-59c-1.5-5.6-3-11.1-4.5-16.7c-3.6-12.5-3.8-25.3-2.3-38.1c1.5-12.9,4.7-25.5,8.3-37.9c0.4-1.5,0.8-3,1.3-5.3
	c-3.4,1.9-5.3,4.5-8.2,6.3c-0.6-2.1-0.1-3.8,0.2-5.5c1.7-9.8,4.1-19.4,8.1-28.5c3.5-7.9,7.3-15.6,11.2-23.4
	c3.1-6.1,6.4-12.2,9.7-18.2c0.7-1.3,1.3-2.6,1.8-3.7c-0.9-1.3-1.8-0.6-2.7-0.4c-13.3,2.9-26.8,4.5-40.5,4.1
	c-10.9-0.3-21.7-1.6-32.3-4.4c-0.7-0.2-1.4-0.4-2.5-0.7c1.4-2.3,3.5-3.2,5.1-4.7c1.6-1.5,3.7-2.5,5-4.3c-0.5-1.4-1.6-1-2.5-1.1
	c-6.1-0.4-12.1-1.3-17.9-3c-13.7-4.1-25.1-11.8-33.8-23.2c-1.2-1.5-2.2-3.1-3.4-5c1.2-0.7,2.2-1.3,3.5-2.1c-1.6-0.9-3.1-1.8-4.6-2.7
	c-10-5.7-17.9-13.4-23-23.8c-0.7-1.4-1.2-2.9-1.8-4.3c1.5-1.7,3.3,0.2,4.9-1c-0.4-0.6-0.8-1.2-1.4-1.7c-15.9-14.1-25.1-32-30.1-52.4
	c-3.8-15.6-5.5-31.5-4.7-47.6c0.5-10.9,1.4-21.7,2.4-32.5c1.5-15.9,2.6-31.9,1.9-47.9c-0.7-16-2.4-31.9-4.8-47.7
	c-0.3-2.1-0.5-4.1-0.8-6.2c-0.6-5-2.8-9.1-6.8-12.3c-0.6-0.5-1.1-1.1-2-1.9c0.9-0.3,1.5-0.6,2-0.6c15.2-0.3,30,1.4,44.3,6.7
	c0.9,0.3,1.9,1.4,3.2-0.2c-1.3-1.9-3.4-3.2-5.1-4.8c-1.6-1.5-3.4-3-5-4.5c-1.8-1.6-3.6-3.2-5.4-4.7c-1.8-1.6-3.6-3.2-5.4-4.7
	c-1.7-1.5-3.4-2.9-5-4.4c-1.7-1.6-3.7-2.9-5.2-4.9c5.3-1.4,22.4,0.5,37,3.9c12.4,2.9,24.2,7.2,35.4,13.3c11,6,20.8,13.4,30,22.4
	c0.9-3.2-1.8-5.4-0.3-8.2c0.7,0.4,1.3,0.6,1.7,1c5.2,5.2,10.6,10.2,15.5,15.7c13,14.7,23.6,31.1,31,49.3c5.7,13.8,7.8,28.3,7.1,43.2
	c-0.4,9.9-1.9,19.7-3.8,29.5c-2,10.5-4,21.1-4.9,31.8c-0.9,11-1,22.1,1.5,32.9c2.8,11.9,8.7,21.9,18.1,29.8
	c15.3,12.8,32.4,22.8,51,30.1c4.2,1.6,7.6,1,11.2-1.5c33.5-23.9,70.8-38.8,111.1-46.3c14.8-2.8,29.7-4.6,44.7-5.6
	c21.7-1.4,43.4-2.6,65.1-4c20.4-1.3,40.8-3,61.2-5.6c28.6-3.7,56.8-9.2,84.3-18.2c11.7-3.8,23.1-8.4,33.8-14.8
	c3.7-2.2,7.3-4.6,10.8-7.2c8.9-6.3,15-14.6,18.7-24.9c5.9-16.8,13.4-32.9,22.9-48c1-1.6,1.9-3.3,3.1-4.8c2.8-3.5,4-7.7,4.2-12
	c0.2-3.4,0.9-6.6,1.6-9.9c0.4-1.9,0.7-3.8,1.1-5.6c0.8-3.9,0-7.6-1.9-11.1c-0.9-1.5-1.8-3-2.7-4.5c-4.2-6.6-5.3-14-4.9-21.6
	c0.4-6.3,2.1-12.3,4.6-18c1.1-2.4,1.6-4.8,1.5-7.4c-0.6-19.5,3.5-38.1,11-56.1c7.3-17.4,17-33.3,28.7-48c6.5-8.2,14-15.3,22.7-21.2
	c4.8-3.3,9.9-6,15.4-7.6c4.6-1.4,9.4-1.5,14,0.7c9.3,4.6,17.3,10.9,24.2,18.6c3.5,3.9,6.8,8.1,10.1,12.2c4,5,5.2,5.5,11.5,3.8
	c14.2-3.9,28.6-5.5,43.2-4.4c8.3,0.6,16.5,2.2,24.5,4.6c1.4,0.4,2.7,0.9,4.1,1.2c2.5,0.7,4.7,0.4,6.8-1.3c1.1-0.9,2.3-1.8,3.4-2.7
	c14.7-11.3,30.9-19.3,49-23.3c6.2-1.4,12.3-1.6,18.6-0.6c6.1,1.1,10.2,4.3,12.5,9.9c1.6,4,2.4,8.3,2.8,12.6c0.7,8.8,0,17.6-1.4,26.3
	c-2.2,13.3-5.6,26.3-8.6,39.3c-0.2,0.9-0.4,1.9-0.7,2.8c-0.5,1.8-0.3,3.4,0.6,5.1c2.9,5.5,3.9,11.5,4.2,17.6
	c0.7,15.8,1.5,31.6,2,47.5c0.1,4.2,1.9,7.2,5.3,9.6c9,6.4,17.9,13,26.8,19.4c4,2.8,7.1,6.4,9.6,10.5c0.9,1.4,1.4,2.8,1.3,4.5
	c0,3,0.1,6.1-1,9c-0.9,2.4-1,5-1,7.6c0,9.8,0.1,19.5,0,29.3c0,5-0.5,9.9-1.6,14.8c-2.2,9.1-7.3,15.9-15.7,20.1
	c-1.9,1-3.4,2.2-4.5,4.1c-8.9,15.4-22.4,24.1-39.8,27.2c-2.3,0.4-4.9,0.1-7.2,1.9c-0.9,17,0.3,33.9,4.4,50.5c-0.7,1.3-1.7,1-2.6,1
	c-2.4,0-4.8,0-7.3,0c-0.8,2-1,3.9-1.2,5.8c-1,7.5-1.8,14.9-2.9,22.4c-1.1,7.1-2.4,14.2-3.6,21.3c-1.1,6.3-1.7,12.7-1.6,19.1
	c0.1,6.8,1.5,13.3,2.6,20c0.4,2.5,0.8,5,1.3,7.5c-1.1,0.7-1.5-0.1-2-0.6c-2-2.1-3.9-4.3-5.8-6.4c-0.6-0.7-1.3-1.3-1.9-1.8
	c-1.3,0.8-0.9,1.8-0.8,2.7c0.5,10.1,1.2,20.1,1.6,30.2c0.9,20.5,0,41-4.3,61.1c-1.3,5.8-3.1,11.4-4.6,17.1c-0.2,0.7-0.6,1.3-1.2,2.5
	c-1.6-2.7-2.8-4.8-4.4-7.5c-0.6,1.5-1,2.5-1.2,3.5c-3.1,14.6-7,28.9-12.5,42.8c-2.5,6.4-5.3,12.7-8,19c-0.5,1.2-1.2,2.3-1.9,3.3
	c-6.4,8.9-10.1,18.9-12.3,29.5c-2,9.9-3.8,19.8-5.7,29.7c-3.1,16.2-6.2,32.4-9.1,48.6c-2.5,13.8-4.9,27.7-7.3,41.6
	c-2.5,14.5-4.9,29-7.2,43.5c-2.8,17.2-5.5,34.4-8.2,51.6c-1.9,12-3.5,24.1-5.4,36.1c-2.7,17-0.6,33.5,4.7,49.7
	c3.2,9.6,7.4,18.7,12.1,27.7c2.9,5.4,7.3,8.5,13.2,9.2c7.3,0.8,14.7,1.3,22,1.9c4.1,0.3,8.3,0.5,12.4,0.9
	c7.1,0.7,12.8,3.9,16.2,10.4c5.3,10.1,10.6,20.1,15.8,30.2c0.8,1.5,1.4,3.2,1.8,4.9c0.7,3.3-0.4,6.1-3.4,7.8
	c-5.8,3.4-11.6,6.8-17.5,10c-4.6,2.4-9.5,3.7-14.7,4c-6.2,0.3-12.5,0.6-18.7,0.9c-3.5,0.2-7,0.3-10.5,0.7c-9.9,1.3-19.8,0.8-29.6-1
	c-5.2-0.9-10.4-2-15.5-3.4c-18.3-5.1-31.5-16.4-39.9-33.4c-2.8-5.6-4.9-11.5-6.4-17.5c-1-4.3-2.8-8.1-5.6-11.6
	c-1.2-1.5-2.2-3.1-3.3-4.7c-4-6.2-6.2-13-6.1-20.4c0.1-3.3-1.1-5.7-3.6-7.9c-11.5-9.7-16.5-22.5-16.7-37.3
	c-0.1-6.1,0.1-12.2,0.1-18.2c-0.2-29-0.5-57.9-0.8-86.9c-0.1-10.7-0.8-21.4-2.4-32c-1.9-13-4.7-25.8-9.5-38.1
	c-0.6-1.5-1.2-3-1.9-4.4c-1.2-2.6-3.3-3.9-6.2-3.6c-3,0.3-6,0.8-9,1.1c-6,0.6-12.1,1.1-18.2,1.7c-0.5,0-1,0-1.4,0.1
	c-4.2,0.3-5,0.9-5.7,4.9c-0.9,5.2-1.8,10.4-2.6,15.6c-3.4,20.8-6.9,41.6-10.3,62.5c-3.1,18.8-6.1,37.6-9.1,56.4
	c-2.5,15.6-4.8,31.3-7.2,46.9c-1.5,9.5-2.6,19-2.8,28.6c-0.3,10.9,0.7,21.7,3.3,32.4c1.6,6.5,4.9,11.7,10.4,15.6
	c7.7,5.5,14.7,11.8,20.7,19.2c7.4,9,13,19,16.6,30.1c0.7,2.3,1.1,4.6,1.4,7c0.3,2.6-0.8,4.7-2.7,6.4c-0.6,0.5-1.2,1.1-1.9,1.4
	c-3.8,2.1-7.4,4.4-10.8,7.2c-1.2,1-2.8,1.5-4.3,1.9c-8.2,2.2-16.6,3.5-25,4.5c-1.6,0.2-3.2,0-4.8-0.2c-1.8-0.1-3.5-0.3-5.3-0.5
	c-1.7-0.2-3.2,0.1-4.5,1.3c-1.4,1.3-3,1.5-4.9,1.5c-6.4,0-12.8,0-19.2,0c-1.1,0-2.2-0.1-3.3-0.3c-5.5-1.1-11-2.3-16.4-3.4
	c-5.8-1.2-11.4-3.1-16.7-5.7c-3.1-1.6-6.3-3.3-9.1-5.3c-10.2-7.4-15.1-17.5-14.7-30.1c0.1-3,0.7-6,1-9c0.2-1.3,0.4-2.5,0.7-3.8
	c0.8-4-0.1-7.6-2.2-11c-0.8-1.4-1.8-2.6-2.7-3.9c-2.7-3.8-4.7-8-5.9-12.5c-2-7.8-0.7-15.3,3.2-22.2c1.7-3,3.8-5.9,6.1-8.6
	c2.6-3,3.6-6.2,3.4-10.1c-1.1-19.8-2-39.6-2.9-59.4c-0.8-16.3-1.5-32.6-2.3-48.9c-0.8-15.5-1.6-31-2.5-46.5
	c-0.7-13.3-1.4-26.5-2.3-39.8c-0.6-8.9-1.3-17.9-1.9-26.8c-0.2-2.6-1.2-4.6-3.2-6.2c-5.4-4.3-10.7-8.6-16.2-12.9
	c-5,1.5-9.7,3.4-14.2,5.8c-1.5,0.8-2.7,2.2-4,3.4c-6.4,6.5-12.7,13.1-19.2,19.5c-5.3,5.3-10.8,10.5-16.3,15.6
	c-23.9,21.9-46.1,45.3-65.3,71.5c-2.9,4-5.8,8.1-8.6,12.2c-3.4,5.1-6,10.6-7.5,16.5c-1.9,7.6-1.8,15.3,0,22.8
	c3.8,15.8,9.6,30.8,18.5,44.5c6.5,10,14.4,18.7,23.7,26.3c5.8,4.7,12.1,8.3,19.2,10.6c2.6,0.9,5.1,1.8,7.6,2.8
	c10.2,4.3,16.4,11.9,18.1,23c0.2,1.6,0.7,3.1,0.8,4.7c0.2,2.4,0.5,4.8,0.3,7.2c-0.4,4.6-2.9,7.7-7.3,9.2c-1.5,0.5-3.1,0.9-4.7,1
	c-4.6,0.3-8.8,1.5-12.8,3.6c-9.8,5.2-20.3,6.6-31.2,5.5c-1-0.1-1.9-0.2-2.9-0.3c-1.6-0.2-3.1,0-4.5,1c-2.3,1.7-5,2.1-7.8,1.8
	c-14.7-1.4-28.7-4.8-41.2-13c-8.1-5.2-13.2-12.6-14.5-22.2c-1.3-9-4.5-17.3-8.7-25.3c-10-19.3-20.1-38.6-29.8-58.1
	c-4.4-8.9-8.4-18-12-27.2c-7.4-18.7-6.3-37.2,2.3-55.4c8.2-17.4,16.7-34.6,25.8-51.4c6.3-11.7,11.4-24,14.5-37
	c3.8-15.7,4.5-31.6,2.7-47.7c-1.1-10.1-3.4-19.8-6.3-29.5c-2.3-7.7-4.7-15.3-7-22.9c-0.3-0.9-0.5-1.8-0.9-2.7c-0.8-2-2.4-3-4.5-3
	c-2.2,0-4.5,0.2-6.7,0.4c-1.5,0.1-2.2,1.3-2.4,2.6c-0.5,2.3-0.8,4.7-1.2,7.1c-3.7,20-8.8,39.6-16.3,58.6c-4.2,10.6-9,20.8-15,30.5
	c-5.5,8.9-12.2,16.8-20.8,22.9C1222.9,1125.1,1221.8,1126.4,1219.8,1126.4z"/>
</svg>
