<?xml version="1.0" encoding="utf-8"?>
<!-- Generator: Adobe Illustrator 22.0.0, SVG Export Plug-In . SVG Version: 6.00 Build 0)  -->
<svg version="1.1" id="Layer_1" xmlns="http://www.w3.org/2000/svg" xmlns:xlink="http://www.w3.org/1999/xlink" x="0px" y="0px"
	 viewBox="0 0 2880 1800" enable-background="new 0 0 2880 1800" xml:space="preserve">
<path d="M1640.3,1344.8c-8.4,3.1-16.1,6.2-24,8.9c-3.6,1.2-7.4,2.1-11.2,2.7c-2.3,0.4-4.8,0.4-7.2,0.1c-6.2-0.8-12.4-0.6-18.7,0
	c-5.7,0.6-11.5,1.2-17.2,1.5c-3,0.2-6.1,0.1-9.1-0.1c-6.9-0.4-13.2-2.5-18.7-6.6c-3-2.2-5.8-4.5-8.4-7.1c-4.2-4.3-8.2-9-12.3-13.5
	c-1.4-1.6-1.9-3.2-1.4-5.3c0.4-1.7,0.5-3.5,0.9-5.5c-1.1,0-2-0.2-2.9-0.1c-1.6,0.2-3.1,0.8-5,0.2c-3.3-7.8-6.7-15.7-8.7-24.1
	c-0.5-2.3-0.6-4.8-0.6-7.1c0.1-3.8,1.8-6.7,5-8.8c0.9-0.6,1.8-1.2,2.9-1.9c-0.4-0.7-0.6-1.3-1-1.7c-6.7-9.2-11.1-19.4-14.2-30.2
	c-2.4-8.1-4.5-16.3-6.8-24.5c-1.1-3.8-2.2-7.6-3.4-11.7c4.1-2.2,8.7-2.4,13.1-4.2c-0.4-0.6-0.7-1.3-1.2-1.8
	c-1.4-1.3-2.9-2.5-4.2-3.9c-6.5-6.4-8.6-14-6.8-22.8c0.2-0.8,0.3-1.6,0.5-2.3c0-0.1-0.1-0.3-0.2-0.8c-0.7,0.2-1.4,0.3-2,0.7
	c-1.8,1-3.5,2.2-5.4,3.2c-1.5,0.8-3.1,1.6-4.8,2.2c-2.3,0.8-4.5,0.4-6.3-1.2c-3.1-2.6-4.9-5.9-4.3-10.1c0.2-1.5,0.8-2.8,2.1-3.6
	c6.9-4.3,10.2-10.8,10.9-18.8c0.3-3.2,1.7-6.1,3.2-9c1.7-3.1,3.3-6.2,4.9-9.2c-1.2-3.1-2.4-5.9-3.3-8.8c-0.9-3-1.9-6.1-2.3-9.3
	c-1-6.6,0.5-12.7,4.3-18.2c1.2-1.7,2.4-3.4,3.4-5.2c1.2-2.3,2.3-4.6,3.1-7c1.7-5.1,0.6-9.9-3.1-13.8c-1.9-1.9-4.1-3.6-6.3-5.2
	c-1.4-1-3-1.8-4.7-2.9c0.1-1.4,0.3-2.7,0.4-4.1c0.1-2.1,0.3-4.1,0.3-6.2c-0.1-3-1.6-5.2-4.1-6.6c-1.5-0.9-3.1-1.7-4.8-2.2
	c-13.4-3.9-26.3-9.2-39.2-14.2c-0.6-0.2-1.2-0.4-2.1-0.6c-2.2,2.2-4.5,4.4-6.9,6.7c-1.4-1.2-2.7-2.1-3.9-3.1
	c-10.9-9.1-21.8-18.3-32.7-27.5c-2-1.7-4.1-3-6.7-3.7c-1.6-0.4-3.2-0.4-4.4,1.1c-0.3,0.4-0.7,0.7-1,1c-4.1,3.3-7,3.4-11.2,0.1
	c-3.5-2.8-6.8-5.8-10.2-8.7c-1.3-1.1-2.7-2.2-4.2-3.2c-3.1-2-6.3-2.3-9.5-0.5c-0.7,0.4-1.4,0.8-2.1,1.2c-1.2,0.8-2.5,0.8-3.7,0.2
	c-2.4-1.3-4.7-2.7-6.9-4.3c-1.7-1.2-3.2-2.7-4.8-4c-1.1-0.9-2.3-1.7-3.6-2.4c-1.8-1.1-3.7-1.1-5.5,0.1c-1.7,1.1-3.3,2.5-5,3.7
	c-0.9,0.7-1.7,1.4-2.6,2.1c-1.4-0.8-1.5-2.2-2.1-3.3c-2.3-4.3-5.8-6.3-10.6-5.6c-1.9,0.3-3.8,0.8-5.6,1.3c-1.4,0.4-2.7,1-4.1,1.4
	c-4,1.1-6.4,0.1-8.2-3.7c-0.9-1.9-1.5-3.9-2.3-5.8c-0.7-1.6-1.1-3.3-2.8-4.6c-3.8,4-7.2,8.2-9.3,13.2c-3.9,9.4-7.9,18.9-11.7,28.4
	c-5.1,12.6-10.3,25.1-16.6,37.2c-3.4,6.5-7.9,12-13.8,16.3c-3.9,2.8-7.9,5.4-12,8c-5.4,3.4-10.6,7.2-15.7,11.1
	c-17.4,13.3-34.9,26.5-52.4,39.7c-3.6,2.7-7.1,5.4-10.7,8.1c-3.4,2.5-6.3,5.4-8.9,8.7c-4.2,5.2-8.3,10.6-11.5,16.5
	c-2.4,4.5-4.3,9.3-5.3,14.4c-1.4,7.4-0.4,14.6,2.4,21.6c2,5.1,4.8,9.8,7.9,14.2c3,4.2,6,8.3,8.8,12.6c4.1,6.2,9.5,10.8,16.1,13.9
	c7.8,3.7,15.7,7.2,23.5,10.9c5.8,2.8,11.4,5.8,17.2,8.5c3.8,1.8,5.4,4.8,5.7,8.7c0.2,2.1,0.3,4.1,0.3,6.2c0.1,1.6-0.7,2.8-2.2,3.4
	c-2.5,0.9-5.1,2-7.7,2.6c-8.1,1.6-16.3,3.1-24.5,4.5c-9.8,1.7-19.7,2.1-29.6,0.9c-5.7-0.7-11.4-1.3-17.2-2c-1.7-0.2-3.5-0.3-5.3-0.4
	c-1.7-0.1-2.6,0.8-3,2.8c2.1,2.8,4.3,5.7,6.5,8.6c1.6,2.1,3.7,3.4,6.4,3.9c7.6,1.4,13.6,5.4,18.4,11.3c4,5,7.7,10.2,11.5,15.4
	c1,1.4,0.6,3.2-0.8,4.2c-0.5,0.4-1.1,0.6-1.7,0.9c-11.1,4.1-22.1,8.6-33.7,11.1c-9,2-18,2.8-27.1,1.7c-15.7-1.9-26-11.7-28.4-27.3
	c-0.7-4.7-1.7-9.5-2.9-14.1c-6.9-25.5-13.4-51-21-76.3c-3.7-12.2-7.6-24.4-12.6-36.2c-1.8-4.1-2.9-8.4-3-13
	c-0.1-5.6,1.4-10.8,4.6-15.3c1.7-2.5,3.8-4.7,5.8-7c2-2.3,4.1-4.5,6-6.9c3.4-4.4,4.9-9.4,4.1-14.9c-0.6-4.5,0.6-8.2,3.1-11.7
	c1.8-2.6,3.7-5.2,5.6-7.8c1.9-2.8,3.7-5.6,4.5-9.2c-0.6-0.8-1.2-1.7-1.9-2.5c-4.4-5.1-5.3-10.9-3.2-17c1.1-3.3,2.7-6.5,4.2-9.7
	c1.7-3.6,3.4-7.2,4.2-11.2c0.9-4.8,0.3-9.6-0.5-14.3c-0.9-5.5-1.7-11-2-16.7c-0.2-3.3-1.1-6.6-1.8-9.9c-1.5-6.1-3.1-12.1-4.6-18.1
	c-1.2-4.8-2.8-9.5-5-14c-2.8-5.8-6.6-10.9-11.7-15c-1.4-1.1-2.8-2.2-5.1-1.5c-2,2.7-4.2,5.6-6.3,8.6c-3.1,4.4-7,7.8-11.4,10.8
	c-10.5,7-22,10.7-34.7,11.2c-5.9,0.2-11.8,1-17.7,1.5c-0.3,0-0.6-0.1-1.2-0.2c-0.3-0.7-0.8-1.5-1.1-2.4c-3-8.1-6-16.2-8.9-24.3
	c-2-5.7-3.5-11.6-4.6-17.6c-1.1-6.3-0.7-12.4,0.5-18.6c1.9-9.3,5-18.2,8.1-27.1c2.5-7.1,7.9-8.3,13.2-2.8c2.4,2.5,4.4,5.5,6.4,8.3
	c2,2.9,3.9,5.9,5.9,9.1c0.8-0.9,1.6-1.4,2.1-2.2c11.2-15.4,18.4-32.5,21.4-51.3c1.9-12,3.3-24.1,4.9-36.1c0.9-6.5,1.7-13,2.9-19.5
	c0.6-3.6,1.7-7.2,3-10.6c3-7.8,8.4-13.7,16.2-16.8c6.3-2.5,8.4-7.3,8.5-13.6c0-1.3-0.1-2.6,0-3.8c0.1-5.2,2.2-9.3,6.4-12.3
	c1.8-1.3,3.7-2.5,5.8-3.4c18.3-8.4,36-18.1,53.8-27.5c12.7-6.8,25.6-13.1,39-18.5c5.2-2.1,10.3-4.5,15.3-6.9
	c12.1-5.7,24.9-9.1,38.1-10.8c3.8-0.5,7.7-0.6,11.4-1.2c2.8-0.4,5.8-0.8,8.4-1.8c14.2-5.8,12.6-4.2,25.2-5.3
	c17.5-1.5,35.1-2.3,52.7-3.5c3.4-0.2,6.7,0.1,10,1c13.2,3.5,26.5,3.7,40,2.7c6.4-0.5,12.8-0.8,19.2-1.2c7.9-0.4,15.7,0.3,23.5,1.2
	c15.9,1.9,31.8,3.3,47.9,2.4c4.3-0.2,8.6-0.8,12.9-1.2c4.9-0.4,9.9-0.7,14.8-0.9c7.2-0.3,14.4-0.4,21.6-0.8
	c10.3-0.5,20.3-2.5,29.8-6.6c8-3.4,16.5-5,25.1-6c8.6-1,17.2-1.9,25.8-2.8c2.6-0.3,5-1.1,7.1-2.5c6.9-4.7,13.2-10.1,18.8-16.3
	c1.3-1.4,2.3-3.1,3.2-4.8c5.6-10.3,12.2-19.9,20.7-28.1c5.1-4.9,9.3-10.6,12.6-16.8c1.9-3.5,3.5-7.2,5.5-10.6
	c1.5-2.6,1.6-5.1,0.8-7.8c-0.4-1.2-0.6-2.5-0.9-3.8c2.6-2.2,6-3.1,8.8-5.3c-0.1-1.7-0.2-3.4-0.4-5.2c-0.5-5.2,1.7-8.9,6.1-11.6
	c0.5-0.3,1.1-0.7,1.7-0.9c3.7-1.7,6.7-4.4,9.1-7.6c4.1-5.7,8.4-11.3,12.1-17.3c5.7-9.5,13-17.4,21.6-24.3
	c9.9-7.9,20.1-15.3,30.3-22.8c7.5-5.5,15.4-10.4,23.7-14.6c11.3-5.7,23.1-9.4,35.6-10.7c3-0.3,6.1-0.4,9.1-0.4
	c10.1,0.1,20.1-0.7,30.2-1.6c7-0.6,14-1,21.1-1.5c3.5-0.3,6.4,0.6,9.2,3.1c4.6,4.1,10.4,6.2,16.4,7.6c4.5,1.1,9,2,13.6,2.9
	c8.3,1.5,15.9,4.7,22.6,9.9c2.5,2,5.2,3.7,7.6,5.3c2.1-0.3,3.8-0.7,5.6-0.9c2.3-0.2,4.1,0.9,4.9,3.1c0.6,1.9,1.2,4.1,1.1,6.1
	c-0.2,4.4,1.6,7.7,4.4,10.8c2.2,2.6,4.8,4.7,8,6c4.9,2,9.8,3.9,14.7,5.7c3.3,1.2,6.7,2.2,9.7,3.2c0.3,0.5,0.6,0.8,0.7,1.1
	c1.3,8.5,5.2,16.1,8.3,23.9c2,5,4.6,9.8,7.2,14.6c1.9,3.5,3.4,7.2,4.7,11c1,2.7,1.9,5.4,3.1,8c1.8,4,4.5,7.5,8.4,9.6
	c3.4,1.8,5.4,4.8,7.4,8.4c-1.1,0.3-2,0.6-2.8,0.7c-2.5,0.3-5.1,0.5-7.6,0.8c-3.1,5.2-3.4,10.5-2.2,15.9c0.8,3.8,2.3,7.3,4.2,10.7
	c3.5,6.2,4.9,12.8,4.9,19.8c0.1,11.2,0.2,22.4-0.7,33.6c-0.3,3.3-0.2,6.7-0.4,10.1c-0.1,1.7-0.3,3.5-0.6,5.2
	c-0.9,4.7-3.8,7.6-8.4,8.8c-1.4,0.4-2.7,0.7-4.5,1.2c1.9,4.3,3.8,8.3,5.7,12.5c-3.2,5.4-6.3,10.8-9.9,15.9c-1.9,2.7-4.7,4.3-7.5,5.8
	c-1.8,1-3.7,1.8-5.6,2.7c-2.4,1.1-4.3,2.7-5.5,5.1c-2.2,4.4-5.8,6.8-10.7,7c-7.7,0.3-15.2,1.7-22.6,4c-1.9,0.6-4.1,0.8-6.2,0.6
	c-7.5-0.5-14.5-2.6-20.7-6.9c-6.8-4.7-10.7-11.3-12.8-19.1c-0.3-1.2-0.6-2.5-1-3.7c0-0.1-0.2-0.3-0.4-0.5c-0.3-0.1-0.7-0.4-1.2-0.4
	c-8,0-16,0-24,0.1c-1.7,0-3.6,0.4-5.1,1.1c-2.2,1.1-3.6,3.1-4.1,5.6c-0.9,3.9-1.8,7.8-2.9,11.6c-0.8,2.9-1.7,5.8-2.7,8.7
	c-1.5,4.4-3.8,8.5-7.1,11.8c-2,2-2.6,4.3-2.4,7c0.7,9.6,1.4,19.1,2.1,28.7c0.3,4,0.4,8,0.6,12c0.2,3.4-1.1,6.2-3.5,8.6
	c-0.3,0.3-0.7,0.7-1,1c-4.5,4.1-6.6,9.3-7,15.3c0,0.6-0.1,1.3-0.1,1.9c0.4,9.7-1.4,19.1-3.2,28.5c-0.7,3.8-1.6,7.5-2.2,11.3
	c-0.2,1.1-0.2,2.2,0.1,3.3c1.2,5.5,0.5,10.9-1.7,16c-1.4,3.4-3.3,6.6-4.9,9.9c-1.5,3-3.2,5.9-4.6,8.9c-1.7,3.5-2.7,7.2-3,11
	c-0.3,4.9-1.7,9.4-3.7,13.8c-2.3,4.9-4.6,9.9-6.8,14.8c-0.6,1.3-1.4,2.1-2.6,2.6c-6.1,3-9.2,8.2-10.6,14.6c-0.7,3.3-1.1,6.6-1.9,9.9
	c-1.2,5-2.6,9.9-4.1,14.8c-1,3.2-2.6,6.3-4.8,8.8c-4.4,4.9-6.8,10.7-8.1,17.1c-1.8,9.1-3.6,18.2-5.3,27.3c-2.6,13.9-3.3,27.9-3.1,42
	c0.3,19.7,2.8,39.2,5.8,58.7c2.2,13.9,3.8,27.9,3.1,42c-0.8,17,2.1,33.5,7.5,49.5c1.6,4.7,3.3,9.3,5,14c0.3,0.8,0.6,1.5,0.9,2.2
	c3.3,8.3,9.5,12.5,18.3,13.3c2.2,0.2,4.5,0.5,6.7,0.8c6.8,1.1,12.8,4,18.1,8.3c8.2,6.6,13.5,15.2,18,24.8c-1,0.6-1.7,1.2-2.5,1.6
	c-2.7,1-5.4,2.1-8.2,2.8c-10.8,3-21.7,5.7-32.8,7.2c-10.9,1.5-21.7,1.3-32.5-0.4c-5.8-0.9-11.6-2.4-17.3-4
	c-8.3-2.3-15-7.2-19.6-14.5c-1.8-2.8-3.4-5.8-4.7-8.9c-3.3-7.8-5.4-16-6.9-24.4c-0.8-4.6-0.8-9.2,0.2-13.8c0.5-2.1,0.7-4.1-0.3-6
	c-1.3-2.4-2.9-4.6-5.5-5.8c-0.7-0.3-1.5-0.6-2.2-1c-6.5-3.4-9.2-9.2-7.9-16.4c0.2-1.3,0.5-2.5,0.9-3.7c2.1-8.1,0.5-15.2-5.3-21.3
	c-0.8-0.8-1.5-1.6-2.5-2.7c0.9-0.4,1.5-0.8,2.2-1.1c0.9-0.4,1.8-0.6,2.7-0.9c4.5-1.8,5.6-4.1,4.1-8.6c-0.2-0.6-0.4-1.2-0.7-1.8
	c-2.6-4.2-3.2-9-3.5-13.8c-0.1-0.8-0.1-1.6-0.2-2.4c-0.5-3.7-2.4-6.2-5.9-7.5c-1.6-0.6-3.3-1.1-5.4-1.8c0.9-0.7,1.6-1.3,2.3-1.6
	c2.9-1.4,5.7-2.7,8.9-4.2c-1.1-1.4-2-2.5-3-3.7c-1.2,0.4-2.2,0.6-3.2,1c-5.4,2.3-10.8,4.7-16.3,7.1c-1.7,0.7-1.8,0.7-3.3-1.8
	c5.3-4.7,10.6-9.5,15.8-14.1c-0.2-1.4-1.1-1.3-1.8-1.5c-4.6-0.7-9.1-1.5-14-2.3c0.2-1.1,0.3-2.1,0.5-2.9c2.7-7.5,5.4-15.1,8-22.6
	c0.5-1.5,1-3,1.5-4.7c-4.8-0.5-9.1,1.4-13.7,1.2c-0.3-0.4-0.8-0.9-0.9-1.4c-3.1-11.2-6.1-22.5-9.3-33.7c-0.8-2.8-0.6-5.4,0.9-7.8
	c3.1-4.9,3.1-10.4,2.3-15.8c-0.8-5.5-4.4-9.1-9.4-11.2c-2-0.8-4.1-0.7-6,0.3c-0.8,0.4-1.7,0.9-2.4,1.5c-6.1,5.2-12.2,10.4-17.5,16.4
	c-3,3.4-5.5,7-7.6,11c-6.5,12.4-10.9,25.6-13.6,39.3c-2.2,11-3.4,22.1-4,33.3c-0.9,16-0.9,32-0.1,48c0.5,11.5,1.2,23,0.4,34.5
	c-0.3,4.8-0.9,9.5-1.7,14.3c-1,6.6-2.2,13.2-2.2,20c-0.1,22.6,8.3,41.4,25.2,56.4c5,4.5,10.5,8.4,16.5,11.5c3,1.6,5.9,3.2,8.8,4.8
	c5.1,2.8,9.4,6.6,13,11.2C1632.8,1333.8,1636.3,1339.2,1640.3,1344.8z"/>
</svg>
