<?xml version="1.0" encoding="utf-8"?>
<!-- Generator: Adobe Illustrator 22.0.0, SVG Export Plug-In . SVG Version: 6.00 Build 0)  -->
<svg version="1.1" id="Layer_1" xmlns="http://www.w3.org/2000/svg" xmlns:xlink="http://www.w3.org/1999/xlink" x="0px" y="0px"
	 viewBox="0 0 2880 1800" enable-background="new 0 0 2880 1800" xml:space="preserve">
<path d="M1200.6,1019.1c-3,5.4-5.5,10-6.7,15.2c-4.5,19.8-12.3,38.3-23,55.6c-14.8,23.9-27,49-36.4,75.4
	c-2.8,7.9-6.9,15.1-11.3,22.2c-3.7,6.1-7.5,12.3-10.9,18.6c-6.5,12.2-11.5,25-14,38.6c-0.5,2.5-1,5-1.2,7.6c-0.4,4-1.5,7.8-2.9,11.6
	c-1,2.5-1.7,5.2-2.9,7.6c-2.3,4.8-3.1,10-3.8,15.3c-2.5,18.4-5.1,36.7-7.6,55.1c-1,7.6-2.1,15.2-2.9,22.8
	c-0.7,6.2-0.8,12.4,0.5,18.6c1,5.1,3.7,8.7,8.9,10.3c2.1,0.7,4.2,1.6,6.3,2.4c2.4,1,3.8,2.9,4.3,5.4c0.4,2,0.8,4.1,1.1,6.1
	c3.2,3,7.2,4.9,10.2,7.6c0.2,1.5-0.5,2.1-1.4,2.5c-1.4,0.6-2.9,1.2-4,1.6c-0.6,3.4-1.1,6.4-1.6,9.3c-0.4,2.3-1.7,3.6-4.1,4.1
	c-9.4,2.2-18.7,4.2-28.4,4c-4.3-0.1-8.6,0-12.9,0.9c-6.9,1.4-12.6-0.7-17.4-5.8c-1.6-1.7-3.4-3.4-5.3-4.9c-2.9-2.4-4.4-5.5-4.2-9.2
	c0.3-5.4,0.5-10.9,1.4-16.2c2-11.8,4.4-23.6,6.6-35.3c2-10.4,3.4-20.8,4.4-31.3c1.3-15,2.5-30,3.5-45c0.8-10.5,0.2-21.1-0.1-31.7
	c-0.1-5,0-9.9,0.2-14.9c0.2-5.2,1.8-10,4.5-14.5c14.9-25.2,24.3-52.4,30.2-81c3.2-15.2,5.4-30.5,6.9-46c1.8-18.6,3.8-37.2,5.2-55.9
	c1.7-21.1,2.7-42.2,2-63.3c-0.5-12.5-1.5-24.9-2.3-37.4c-0.8-12-1.9-23.9-2.6-35.9c-0.5-9.1,0.2-18.2,2.1-27.2
	c1.6-7.9,4.3-15.4,7.9-22.5c0.7-1.3,1.2-2.6,1.7-3.9c0.1-0.2-0.1-0.6-0.3-1.2c-0.7,0.3-1.4,0.5-2,0.8c-13.6,7.5-28.3,9.8-43.6,8.5
	c-14.5-1.2-28.9-3.6-43-7.1c-31.3-7.9-54.8-26-70.6-54.1c-7.1-12.6-12.2-26.1-15.6-40.1c-2.2-9.2-4-18.4-6-27.6
	c-0.9-4,0.2-7.6,2.2-11.2c3.9,1.9,7.1,4.3,9,8.2c2.4,5.1,4.6,10.2,5.7,15.8c4.2,21.4,14,40,27.9,56.6c3.6,4.3,7.5,8.3,11.3,12.4
	c6.2,6.7,13.8,11.3,22.4,14.5c9.3,3.5,19,5.7,28.7,7.5c3.1,0.6,6.3,0.8,9.5,0.9c9.6,0.4,18.8-1.7,27.7-5c17.9-6.7,33.9-16.4,47.5-30
	c6.1-6.1,12.8-11.6,19.3-17.3c11.4-10,22.9-20,34.4-29.9c11.7-10.1,24.7-18.3,38.4-25.3c6.3-3.2,12.6-6.3,19-9.2
	c16.9-7.6,33.7-15.5,51.1-22c26-9.7,52.7-16.7,80.1-20.9c28.7-4.5,57.6-5.5,86.6-4.2c12.2,0.6,24.3-0.1,36.4-1
	c17.6-1.3,34.9-4.1,52.3-6.6c4.9-0.7,9.9-1.1,14.8-1.4c12.8-0.9,25.5-2.5,37.9-5.9c2.2-0.6,4.3-1.2,6.4-2c4.3-1.6,7.5-4.3,8.7-8.9
	c0.6-2.1,1.8-3.7,3.5-4.9c6.7-4.9,11.7-11.3,15.9-18.4c1.7-2.9,3.3-5.8,4.7-8.9c7.4-16.6,14.8-33.3,22.1-50
	c3.4-7.8,6.4-15.7,9.5-23.6c2.6-6.7,5.9-13.1,9.8-19.2c0.9-1.4,2.2-2.8,2.3-4.9c-1.3-0.1-2.3-0.2-3.4-0.2c-4.2,0-8.3,0.1-12.5,0.1
	c-11.5,0-19.8-5.3-25.3-15.3c-0.7-1.3-1.3-2.6-1.9-3.9c-4.4-8.7-10.6-16-18.4-21.8c-0.6-0.5-1.3-1-1.9-1.4
	c-13.2-8.7-21.9-20.9-27.1-35.6c-3.1-8.9-5.7-18-8.5-27c-1.2-3.8-2.4-7.6-3.3-11.5c-0.6-2.5-0.7-5.1-0.6-7.6
	c0.1-3.5,1.8-6.5,4.3-8.8c3-2.8,6.6-3.9,10.6-2.7c1.8,0.6,3.6,1.3,5.3,2.2c10.2,5,20.4,10,30.6,14.9c3.2,1.5,6.5,2.7,9.9,3.7
	c7.1,2.1,13.7,5.3,20.1,8.9c2.2,1.2,4.3,2.8,6.1,4.6c6.3,5.8,13.3,10.5,21.1,14.1c4.8,2.2,9.7,4.2,14.5,6.2c1.8,0.7,3.7,1.1,5.5,1.6
	c6.1,1.6,11.8,0.7,17-2.8c4.7-3.1,9.8-5.4,14.9-7.6c7-3,7.1-3.1,9.6-10.2c4.2-12.2,8.4-24.5,12.6-36.7c4.7-13.9,6.1-28.1,3.3-42.6
	c-1.4-7.4-1.7-14.9-2-22.4c0-0.8,0.2-1.6,0.3-2.6c1,0.2,2.1,0,2.8,0.5c1.6,1.1,2.5,2.8,2.8,4.8c0.8,4.9,1.8,9.7,2.5,14.6
	c0.9,6.3,2.2,12.6,2.2,19c0,1.9,0.6,3.8,1.1,5.6c4.9,15.4,9.9,30.7,14.8,46.1c0.5,1.5,1.1,3,1.8,4.5c1,2.2,2.8,3.5,5.2,3.6
	c1,0,1.9,0.1,2.9,0.1c8,0.3,16,0.4,24,0.9c12.2,0.8,24.1,3.3,35.5,7.8c3.5,1.4,6.6,3.3,9,6.2c3.7,4.7,8,8.7,12.5,12.5
	c2.3,2,4.4,4.2,5.3,7.2c1.1,3.4,3.8,5,7.3,5.4c1.3,0.1,2.6,0.1,3.8,0.1c17.9,0.3,35.8,0.6,53.7,1.1c7.2,0.2,14.4,0.7,21.6,1.2
	c1.6,0.1,3.2,0.3,4.8,0.7c6,1.2,9.2,4.7,9.7,10.8c0.1,1.4,0.1,2.9,0.1,4.3c-0.3,9.1-0.5,18.2-1,27.3c-0.4,8.6-3.8,15.8-11,20.9
	c-2.6,1.9-4.8,4.1-6.5,6.9c-3.8,6.1-8.9,10.9-15.2,14.3c-3.5,1.9-7.1,3.7-10.9,5c-25.4,8.8-50.8,17.5-76.2,26.3
	c-4.2,1.5-8.6,2.7-12.7,4.3c-14.3,5.7-25.6,15.1-33.4,28.4c-9.1,15.3-16.6,31.4-20.7,48.8c-1.4,5.7-2.5,11.6-3.1,17.5
	c-0.9,9.2-3.4,17.9-6.7,26.4c-1.1,2.8-2.2,5.6-3.4,8.4c-4.7,11.3-6.5,23-6,35.2c0.3,7.1,1.6,14,2.5,21c1.6,12.9,3.3,25.7,4.8,38.6
	c2.9,25.3,3.6,50.7,2.6,76.2c-0.8,18.6-2.5,37-6.6,55.2c-1.6,7-4,13.8-6.3,20.6c-4.7,13.8-9.6,27.5-13.3,41.5
	c-3.7,14.1-6.1,28.4-6.1,43.1c0,2.1,0.1,4.2,0.2,6.2c1.2,12.9,1.2,25.9,0.3,38.8c-0.9,12.4-2.6,24.8-5.1,37.1
	c-2.4,12.1-5,24.1-7.5,36.2c-2.4,11.4-4.1,23-5.5,34.6c-1.8,14.9-3.7,29.8-5.4,44.8c-1.5,13-3,26.1-3.4,39.2
	c-0.3,11.4,0.7,22.7,2.6,33.9c1.9,11.7,3.5,23.4,5.4,35.1c0.4,2.5,1,5,1.8,7.4c2,5.7,6.1,9.3,11.9,10.8c2.3,0.6,4.7,0.8,7.1,1.2
	c2.7,0.4,5.4,0.7,8,1.4c5.9,1.6,10.2,5.2,13,10.6c0.4,0.7,0.7,1.4,1,2.2c2.1,5,6,7.8,11.1,9c3.5,0.8,6.8,1.9,9.8,3.8
	c0.7,0.4,1.4,0.8,1.9,1.4c1.5,1.5,1.7,3.6,0.3,5.1c-2.2,2.5-4.5,5.1-8.3,5.1c-1.1,0-2.2,0.4-3.1,1.1c-5.3,3.8-11.5,4.7-17.7,5.3
	c-9.4,0.9-18.8,1.9-28.2,2.7c-8.7,0.8-17.3-0.1-25.8-1.9c-10.1-2.1-15.4-10.9-15.1-20.1c0.1-3.2,0.7-6.4,1.6-9.4
	c1.9-6.6,1.7-13-0.7-19.3c-1.4-3.7-3-7.4-5-10.9c-4.2-7.6-6.2-15.7-6.8-24.3c-0.4-5.4-0.8-10.8-1.2-16.3c-0.1-1.6-0.4-3.1-0.6-5
	c-1.6-0.1-3-0.2-4.4-0.2c-1.9,0-3.9,0.2-5.8,0c-3.6-0.3-5.1-2.1-5-5.7c0.1-1.9,0.4-3.8,0.8-5.7c1-4.7,2.1-9.4,3-14.1
	c2.1-10.8,4.2-21.6,4.7-32.7c0.4-9.1-0.1-18.2-0.9-27.3c-1.4-16.1-3.5-32.1-3.7-48.3c-0.2-16.7,0.2-33.3,2-49.8
	c1.1-10.5,2.4-21,3.5-31.5c1.7-16.4,2-32.9-0.1-49.3c-1.3-9.6-1.6-19.1,0-28.7c1-6.5,0.2-12.8-1.5-19c-1.3-4.4-2.9-8.8-4.6-13.1
	c-1.4-3.6-3.4-4.6-7.1-3.7c-3.3,0.8-6.5,1.7-9.7,2.7c-11.5,3.4-22.9,7-34.4,10.3c-4,1.1-6.5,3.6-8.7,7
	c-16.1,25.1-26.1,52.6-32.9,81.4c-5.7,24.6-11,49.3-15.2,74.2c-4.1,24.3-6.4,48.8-5.9,73.6c0.2,7.9-1.1,15.6-2.5,23.3
	c-1,5.2-1.8,10.4-2.7,15.6c-1.2,7.2-0.9,14.3,0.7,21.4c1.9,8.3,3.7,16.5,5.7,24.8c1,4.1,1.8,8.1,1.4,12.3c-0.1,0.8,0.1,1.5,0.2,2.5
	c1.4,0.2,2.7,0.3,3.9,0.5c3.7,0.6,6.5,2.7,8.2,6c0.7,1.4,1.4,2.9,1.9,4.4c1,3.6,3,6.3,6.2,8.2c0.5,0.3,1.1,0.7,1.6,1.1
	c1.6,1.3,2.5,2.9,2.4,5c-0.1,1.3-0.1,2.6-0.5,3.8c-1.1,3.5-2.4,6.9-3.7,10.4c-0.7,2-2,3.1-4.2,3.4c-10.9,1.5-21.8,3.7-32.8,4
	c-10.1,0.3-19.7-1.4-28.7-6.2c-6.1-3.3-10.4-6.4-8.5-16.7c1.6-8.4,1.5-16.9,2.2-25.3c0.5-6.5,1.1-13.1,1.6-19.6
	c0.4-4.9,0.8-9.9,1.1-14.8c0.2-3-0.7-5.8-3.1-7.7c-3.1-2.5-3.8-5.7-3.4-9.4c0.7-5.9,1.5-11.7,2.3-17.6c2.8-19.5,5.5-39,7-58.6
	c0.9-11.3,1.5-22.7,2.1-34c1-20.8,2.7-41.5,5.7-62.1c2.2-15.4,4.4-30.7,6.6-46.1c1.9-13,1.4-25.9-2-38.6c-1.5-5.8-2.6-11.5-2.8-17.5
	c-0.1-2.2-0.4-4.4-0.6-6.9c-1.2-0.6-2.2-1.2-3.4-1.7c-5.9-2.4-11.8-4.9-17.8-7.3c-9.2-3.7-17.9-8.5-26.1-14.1
	c-11.7-8.1-22.9-17-33.7-26.2c-3.8-3.2-7.5-6.5-11.4-9.6c-4.9-3.9-10-7.4-15.6-10.2c-6.3-3.2-13-5.2-20.1-6.1
	c-2.7-0.4-5.4-0.2-8.1,0.4c-3.8,0.9-6.8,2.8-8.9,6c-6.2,9.5-12.1,19.2-15.8,30.1c-4.5,13.1-8,26.3-9.8,40
	c-1.8,14.1-1.5,28.1,0.9,42.1c1.8,10.2,1.5,20.4,0.2,30.6c-1.4,11.6-4.3,22.9-7.4,34.2c-4.6,17-9.4,33.9-13.9,50.9
	c-5,19-12.8,36.8-23,53.6c-5.3,8.6-11.1,16.8-16.7,25.2c-3.9,5.9-8,11.6-11.8,17.5c-4.8,7.4-8.5,15.4-11.4,23.7
	c-6.4,18.4-12.4,37-16.6,56.1c-4.5,20.4-5.9,41.1-4.8,62c0.7,14.4,2.9,28.6,4.4,42.9c0.1,1.1,0.4,2.2,0.7,3.3
	c1.1,3.6,3.4,5.2,7.2,4.8c1.9-0.2,3.8-0.5,5.7-0.6c8.3-0.6,14.9,2.7,20.1,9.1c0.8,1,1.6,2,2.3,3.1c1.9,3.1,4.5,5.4,7.5,7.3
	c1.9,1.2,3.8,2.3,5.7,3.6c4.5,2.9,5.6,4.2,8.2,9.6c-0.1,1.2-1,1.6-2,1.7c-0.9,0-1.9-0.1-3.1-0.2c-0.2,1-0.5,1.8-0.6,2.7
	c-0.4,3.4-2.5,5.4-5.7,6.4c-1.1,0.3-2.2,0.6-3.3,0.8c-5.8,0.6-11.2,2.4-16.8,3.9c-3.7,1-7.5,1.7-11.3,2.1c-5.1,0.6-10.2-0.2-15.1-2
	c-3.7-1.4-7.4-1.7-11.3-1.1c-4.1,0.6-8.2,1.1-12.4,0.5c-6.5-1-10.8-4.4-12.9-10.7c-1.1-3.4-1.5-6.8-1.1-10.4
	c0.5-4.1,0.7-8.3,0.9-12.4c0.2-4.7-0.6-9.2-2.8-13.5c-0.8-1.6-1.1-3.3-1.2-5.1c-0.7-15.2-1.5-30.4-2.1-45.5
	c-0.7-17.1-1.3-34.2-2-51.3c-0.3-6.6-0.6-13.1-1.1-19.6c-0.6-7.7-2.7-15.1-4.7-22.5c-0.7-2.6-1.3-5.3-1.6-8c-0.6-6.3,1.1-12,4-17.5
	c3-5.7,6.1-11.3,9.1-16.9c7-13.3,13.7-26.7,19-40.8c5-13.2,8.7-26.8,9.7-40.9c0.6-8.4,0.4-16.9,0.1-25.4c-0.3-11.7-1.2-23.3-1.5-35
	c-0.7-21.9-5.8-42.7-15.9-62.2c-3.8-7.4-7.9-14.7-11.9-21.9C1203.5,1023.2,1202.2,1021.5,1200.6,1019.1z"/>
</svg>
