<?xml version="1.0" encoding="utf-8"?>
<!-- Generator: Adobe Illustrator 22.0.0, SVG Export Plug-In . SVG Version: 6.00 Build 0)  -->
<svg version="1.1" id="Layer_1" xmlns="http://www.w3.org/2000/svg" xmlns:xlink="http://www.w3.org/1999/xlink" x="0px" y="0px"
	 viewBox="0 0 2880 1800" enable-background="new 0 0 2880 1800" xml:space="preserve">
<path d="M1098.9,1138.2c-0.9,0.8-1.9,1.5-2.4,2.4c-3,4.5-6.1,9-8.8,13.7c-3.4,6-4.7,12.5-4.6,19.4c0.1,10.4-0.3,20.8-0.5,31.2
	c0,1.4-0.2,2.9-0.4,4.3c-1,7,0.9,13.3,5,19c1.5,2.1,3.2,3.9,4.9,5.9c4.3,5,8,10.4,9.7,16.9c0.5,2,0.8,4.1,0.7,6.1
	c0,1.5-0.6,3.2-1.3,4.5c-1.3,2.6-3.5,4.1-6.5,4.3c-11.5,0.7-23,0.6-34.4-1.4c-3.9-0.7-7.9-1.2-11.9-1.7c-5.4-0.6-7.7-2.6-8.8-7.9
	c-0.6-3.3-0.9-6.7-1.4-10c-0.3-1.9-0.5-3.8-1.1-5.6c-2.4-6.7-2.2-13.5-1.7-20.4c0.9-12.3,1.8-24.6,2.8-36.8
	c1.4-17.7,2.9-35.4,4.4-53.1c0.9-10.4,2.1-20.7,3.2-31c0.7-6.8,2.8-13.1,6.7-18.7c5.8-8.3,11.4-16.6,17.1-25
	c5.3-7.8,9.9-16.1,13.1-25c1.6-4.5,2.9-9.1,4.3-13.7c1-3.2,1.7-6.5,2.7-9.7c3.2-10.9,3.7-22,2.1-33.3c-0.3-1.8-0.6-3.5-2.3-4.5
	c-2,0.2-3.2,1.4-4.3,2.9c-1.9,2.6-3.8,5.2-5.6,7.8c-3.4,4.7-7,9.1-11.2,13.1c-5.7,5.5-12.2,9.9-19.7,12.4
	c-6.7,2.3-13.3,4.7-20.1,6.5c-10.2,2.8-20.6,2.8-30.9,1.1c-20-3.2-37.8-11.7-54.2-23.2c-8.2-5.7-14-13.6-17.8-22.8
	c-3.2-7.8-5.8-15.9-7.7-24.2c-2.9-12.6-1.6-24.9,3.6-36.6c11.1-25.2,30.2-40.7,57.2-46.4c13-2.7,25.8-1.7,38.3,2.3
	c3.5,1.1,6.9,2.5,10.3,3.8c1.2,0.5,2.3,1,3.5,1.6c8.8,4.7,12.4,13.1,9.7,22.7c-2,7.4-6.3,12.9-13.4,15.9c-3.4,1.4-6.9,2.4-10.4,3.6
	c-4.1,1.3-8.3,2.4-12.3,3.9c-5.2,1.9-9.7,4.9-13.3,9.2c-4.7,5.6-6.5,10.6,0.3,18.3c3.6,4.2,8.2,6.4,14,6.1
	c8.2-0.4,15.7-2.8,22.4-7.6c6-4.2,10.7-9.6,14.4-15.9c4.8-8.2,8.2-17,10.4-26.2c0.5-2,0.8-4.1,0.8-6.2c0.5-18.4,1.7-36.8,4-55
	c1.5-11.6,3-23.2,6.5-34.4c0.8-2.6,1.6-5.2,2.7-7.7c9.2-21.9,21.5-41.8,38.5-58.6c8.1-8,17.2-14.8,27.2-20.4
	c14.7-8.1,29.9-15.3,45.8-20.8c6-2.1,12-4.4,18-6.6c14.2-5,28.8-7.3,43.8-7.6c19-0.3,38.1-0.4,57.1,0.8c10.9,0.7,21.6,2.2,32.3,4.2
	c13.4,2.5,26.7,5.3,40,7.7c12.3,2.3,24.6,4.2,37.1,4.9c10.3,0.6,20.5,0.2,30.6-1.2c13.3-1.8,26.6-3.7,39.9-5.5
	c16.3-2.3,32.4-5.8,48.3-10.3c18-5.1,36.1-9.9,54-15.4c17.9-5.5,35.3-12.4,52.7-19.3c10.6-4.2,20.4-9.9,29.5-16.8
	c28.9-22.1,54.4-47.6,75.6-77.2c1.2-1.7,2.4-3.4,3.6-5.1c3-4,6.3-7.6,10.1-10.9c10-8.9,21.7-13.4,35-13.6c2.7-0.1,5.4,0,8.2,0.1
	c3.4,0.1,6.6,0.7,9.9,1.8c12,3.9,24.1,7.7,36.2,11.3c14.1,4.2,26.2,11.7,36.9,21.6c2.8,2.6,5.4,5.5,7.7,8.6
	c3.4,4.5,5.6,9.7,6.2,15.4c0.4,4.3,2.3,7.9,5,11.2c2.9,3.5,6.4,6.3,10.4,8.3c3,1.5,6.1,2.8,9.1,4.3c4.6,2.2,9.3,4.3,13.8,6.7
	c4.3,2.2,8.2,5,11.8,8.2c6.6,5.8,13.3,11.6,19.9,17.4c1.4,1.3,2.9,2.6,4.1,4c2.2,2.6,3,5.5,2,8.9c-1.1,3.7-2.3,7.3-4.7,10.4
	c-3.9,5.2-7.9,10.5-11.9,15.6c-4.3,5.4-9.9,7.9-16.9,7.3c-1-0.1-1.9-0.2-2.9-0.2c-2.7,0-3.7,1.4-3.1,4.1c0.2,1.1,0.6,2.2,0.9,3.2
	c1.6,4.9-0.1,8.8-3.9,11.9c-4,3.2-8.6,5-13.7,5c-6.4,0.1-12.8-0.3-19.2-0.4c-4.5-0.1-9-0.4-13.4-0.2c-12.8,0.7-25.2-0.9-37.4-4.8
	c-2.4-0.8-4.9-1.5-7.5-1.5c-3.7,0-6.4,1.7-8.1,5c-0.7,1.4-1.2,3-1.6,4.5c-1.3,4.3-2.4,8.6-3.7,12.9c-2,6.9-5.5,12.9-10.5,18
	c-7.9,8.1-14.1,17.4-19.2,27.4c-3,5.8-5.7,11.8-8.3,17.8c-6.5,14.8-12.7,29.7-19.4,44.4c-6.1,13.3-11.1,26.9-15.7,40.7
	c-3,8.9-6.2,17.8-9.2,26.8c-3.1,9.2-7.6,17.7-13.5,25.3c-9.1,11.7-18.4,23.4-27.9,34.8c-6.4,7.8-13.9,14.6-22.5,20.1
	c-8.2,5.2-12.3,12.7-13.2,22.2c-0.6,6.5-1.3,13-2.1,19.6c-0.6,5.4-1.5,10.8-2.2,16.2c-1.5,11.4-2.4,22.9-2.4,34.4
	c-0.1,14.2-0.8,28.5-1.8,42.7c-0.9,11.8-1.5,23.6-2.3,35.4c-0.8,11.6-1.7,23.3-2.4,34.9c-0.2,3-0.2,6.1,0.2,9.1
	c1,6.4,4.6,11.1,10.4,14.1c2.1,1.1,4.4,2,6.7,2.6c4.3,1.2,7.9,3.5,10.8,6.9c3.8,4.5,8.1,8.7,12.6,12.5c5,4.2,7.8,9.6,7.8,16.3
	c0,4.8,2,8.6,5.9,11.5c1.7,1.2,3.2,2.7,4.6,4.2c1.8,1.9,2.4,4.2,1.8,6.7c-1.7,7-5.3,12.1-14.1,12.9c-3.3,0.3-6.7,0.1-10.1,0.2
	c-1.6,0.1-3.1,0.4-4.7,0.6c-1.1,0.1-2.2,0.3-3.3,0.2c-8.1-0.8-16.3-0.9-24.3-2.4c-3.7-0.7-7.7-0.6-11.5-0.3c-5.1,0.3-9-1.6-12-5.7
	c-1-1.4-2.2-2.8-3-4.4c-3-5.7-5.8-11.4-8.7-17.1c-1-2-2.1-4-3.4-5.8c-4-5.3-6-11.2-5.6-17.9c0.2-3.7,0.1-7.4-0.1-11
	c-0.1-1.7-0.4-3.5-0.8-5.2c-0.6-2.6-2.2-4.6-4.4-6.1c-0.8-0.5-1.6-1.1-2.5-1.4c-5.7-2.1-7.6-6.3-6.9-12.1c0.5-4.3,0.5-8.6,0.8-12.9
	c0.3-3.7-0.7-6.7-3.9-8.7c-3.8-2.3-5.1-5.8-5.5-10.1c-0.8-8.5,0-16.9,1.6-25.3c1.5-8.2,2.6-16.4,3.1-24.7c0.2-3.2,0.3-6.4,0.1-9.6
	c-0.8-12.6-1.5-25.2-2.6-37.8c-0.7-7.8-2.2-15.5-3.1-23.3c-1-8.1-1.8-16.2-2.5-24.3c-0.6-6.4-0.8-12.8-1.3-19.2
	c-0.1-1.4-0.3-2.9-0.5-4.3c-0.5-4.3-2.8-7.1-7.1-7.9c-4.7-0.9-9.4-2-14.1-2.6c-7.9-1.1-15.9-1.7-23.8-2.8
	c-10.1-1.3-20.3-2.6-30.4-4.3c-13.4-2.3-26.8-4.7-40.1-7.5c-21.9-4.7-43.3-11.1-64.5-18.6c-6.7-2.3-13-5.4-19.1-9
	c-9-5.3-17.9-10.7-26.8-15.9c-2.5-1.5-5-2.9-7.6-4c-6-2.7-12.1-3.1-18.1-0.1c-2.1,1.1-4.2,1.1-6.5,0.6c-5.8-1.4-11.4-3.3-16.6-6.2
	c-2.9-1.6-5.9-3.3-8.9-4.6c-3.2-1.3-6.6-2.5-10-3.2c-3.5-0.8-5.5,0.5-6.5,4c-0.7,2.8-1.1,5.6-1.4,8.5c-4.3,33.3-18,62.5-39.4,88.1
	c-6.1,7.4-12.8,14.3-19.6,21.1c-11.2,11.4-22.4,22.9-33.9,33.9c-12,11.5-21.8,24.7-30.5,38.7c-5.1,8.3-8.3,17.2-9.2,27
	c-1.4,13.7-2.6,27.4-2.1,41.2c0.2,4.8,0.4,9.6,1,14.4c0.9,7.2,4,13.5,9.5,18.4c2,1.8,4.3,3.3,6.4,5c2.1,1.7,4.4,3.3,6.3,5.2
	c8.3,8.2,10.7,18.3,8.9,29.5c-1,6.4-4.4,9.2-10.9,9.2c-7.5,0-15-0.5-22.5-0.6c-5.2-0.1-10.2-1.1-15.1-2.4c-2.6-0.7-5.1-1.8-7.6-2.8
	c-1.8-0.8-3.1-2.1-3.9-4c-2.7-6.5-5.4-13-6.1-20.1c-0.3-3-0.1-6,0-9.1c0.1-2.9,0.5-5.7,0.5-8.6c0.2-16.1-2.1-31.9-5.3-47.6
	c-0.8-3.9-1.5-7.8-2.3-11.8C1101.5,1140.9,1101,1139.4,1098.9,1138.2z"/>
</svg>
