<?xml version="1.0" encoding="utf-8"?>
<!-- Generator: Adobe Illustrator 22.0.0, SVG Export Plug-In . SVG Version: 6.00 Build 0)  -->
<svg version="1.1" id="Layer_1" xmlns="http://www.w3.org/2000/svg" xmlns:xlink="http://www.w3.org/1999/xlink" x="0px" y="0px"
	 viewBox="0 0 2880 1800" enable-background="new 0 0 2880 1800" xml:space="preserve">
<path d="M987.2,866.9c-1.5-1.1-2.7-0.6-3.7,0.7c-3.5,4.4-7,8.8-10.5,13.1c-0.7,0.9-1.3,1.9-2.2,2.5c-0.5,0.4-1.4,0.3-2.1,0.3
	c-1-1.7-0.7-3.3-0.7-4.9c0-5.1,0-10.2,0-15.4c0-0.9,0.1-2-0.9-2.5c-0.8-0.4-1.7,0.2-2.5,1.6c-1.9,3.5-3.8,7-5.7,10.6
	c-0.5,0.8-0.8,1.8-1.5,2.5c-0.3,0.4-1.2,0.6-1.7,0.5c-0.5-0.1-1.3-0.6-1.4-1.1c-0.3-1.2-0.3-2.5-0.3-3.8c0-9.9,0-19.8,0-29.8
	c0-1.4,0-2.9-0.2-4.3c-0.1-0.5-0.7-0.9-1.2-1.4c-1.8,1-1.9,2.8-2.6,4.1c-0.7,1.4-1.3,2.9-2,4.3c-1.4,0-1.6-1.1-2-1.8
	c-4.2-8.4-6.7-17.3-7.3-26.6c-0.3-4.7,0.3-9.3,1.1-13.8c0.2-1.2,0.4-2.5,0.7-4.4c-1.2,0.7-2,1.1-2.6,1.6c-2.1,2-4.1,4.1-7,5.3
	c-2.4-2.3-3.9-4.9-4.1-8.3c-0.1-1.4,0-2.9,0-4.3c0-12.3,0-24.6,0.1-37c0-2.3-0.1-4.5-1.1-6.6c-0.9-1.8-2-3-4.1-3.6
	c-3.8-1-4.7-2.4-4.2-6.2c0.5-3.6,1.4-7.2,2.2-10.8c3-13.4,6.1-26.8,9.2-40.2c0.2-1.1,0.5-2.2,0.7-3.3c0.4-2.1-0.3-3.8-2.1-5
	c-0.5-0.4-1.1-0.6-1.7-0.9c-2.5-1.7-3.3-4.2-2.9-7.1c0.2-1.1,0.6-2.2,1-3.2c3.5-9.6,7-19.2,10.5-28.9c1.8-5,4.1-9.7,7-14.1
	c0.7-1,1.2-2.2,1.9-3.4c-1.1-1-2.2-0.6-3.2-0.5c-1.1,0.1-2.2,0.3-3.3,0.4c-1.1,0.1-2.2,0.2-3.3,0.3c-1.1,0-2.2,0-3.3,0
	c0-0.8-0.1-1.3,0-1.7c1.8-6,4.1-11.8,7.5-17.1c3.9-6.1,9-10.8,15.4-14.1c0.9-0.4,1.7-0.9,2.6-1.3c5.4-2.8,9.1-7,10.6-13
	c2-8.2,7-14.7,12.4-20.8c3.1-3.6,5.7-3.8,9.8-1.7c0.4,0.2,0.8,0.5,1.2,0.7c0.4,0.2,0.9,0.4,1.3,0.6c2.7-0.8,4.8-2.5,6.6-4.6
	c2.3-2.7,4.5-5.5,6.7-8.1c1.9-2.2,3.7-4.5,5.8-6.4c1.7-1.6,3.8-2.9,5.8-4.1c1.4-0.9,3-0.9,4.6-0.3c0.6,0.2,1.2,0.5,1.8,0.6
	c2.5,0.6,4.8,0.1,6.7-1.7c0.8-0.8,1.6-1.5,2.3-2.4c7.9-9.6,17.8-16.4,28.9-21.7c2.3-1.1,4.7-2.1,7-3.1c4.1-1.6,8.3-2,12.9-1.8
	c0.2,4-2,7.5-1.4,11.6c0.9,0.1,1.7,0.4,2.3,0.2c1.4-0.4,2.7-1,4-1.6c18.4-8.8,37.8-11.6,57.9-9.5c2.7,0.3,5.4,0.6,8.1,1
	c4.3,0.7,4.8,1.1,8.3,5c0,1.2-1,1.5-1.8,2c-3.2,2-6.5,4-9.8,6c-0.8,0.5-1.4,1.1-2.2,1.6c0.5,0.4,0.7,0.7,0.9,0.7
	c1.3,0.1,2.6,0.1,3.8,0.1c13.5,0,26.8,1.9,39.7,5.8c15,4.5,28.8,11.5,41.5,20.5c1.2,0.9,3.1,1.5,2.4,3.6c-0.5,1.7-2.3,1.5-3.6,1.7
	c-5.4,0.8-10.8,1.5-16.2,2.2c-1.6,0.2-3.1,0.6-4.6,0.9c-0.3,2.4-0.2,2.9,1.1,3.2c3.1,0.9,6.2,1.5,9.3,2.4c5.5,1.6,11.2,2.9,16.5,4.9
	c12.8,4.7,23.3,12.4,31.8,23.1c3.1,3.9,4.7,8.3,6,12.9c0.5,1.7-0.7,2.9-2.4,2.4c-2.4-0.7-4.8-1.6-7.3-2.5c-2.2-0.8-4.5-1.6-7.1-2.5
	c0.1,1.6,0.8,2.4,1.4,3.2c3.7,5.1,7.4,10.1,11,15.1c4,5.6,7.7,11.4,10.7,17.6c2.9,5.9,4,12.1,3.2,18.6c-0.1,0.6-0.2,1.3-0.4,1.9
	c-0.1,0.3-0.4,0.5-0.8,1c-1.9-1.3-3.8-2.8-5.8-3.8c-2.1-1.1-4.5-1.7-7-2.6c-0.4,1.3-0.9,2.2-1,3.3c-0.2,2.1-0.2,4.1-0.3,6.2
	c-0.3,7.2-0.7,14.4-0.9,21.6c-0.1,2.8-0.9,5.3-3.1,7.3c-1.6,1.4-3,1.7-4.8,0.5c-1.6-1-3.1-2.3-4.4-3.6c-3.4-3.6-6.8-7.2-10.1-10.9
	c-2.6-3-5.8-5-9.3-6.6c-0.4-0.2-0.9-0.1-1.6-0.2c1.1,4.9,1.4,9.6-0.5,14.2c-3.4,0-5.1-0.5-7.7-2.7c-2.2-1.9-4.3-3.8-6.4-5.8
	c-3.4-3.2-6.7-6.5-10.2-9.5c-2.6-2.3-5.6-4.3-8.4-6.3c-0.5-0.3-1.1-0.5-1.9-0.8c-1.5,5.4-1.2,10.9-2.4,16.4
	c-2.7-0.7-4.5-2.2-6.2-3.8c-1.7-1.7-3.3-3.5-4.9-5.2c-2.1-2.2-4.1-4.5-6.3-6.6c-9.7-9.4-21.2-14.9-34.7-15.6
	c-13.9-0.7-25.7,4.2-34.8,15c-6.9,8.2-10.5,17.8-12,28.4c-0.3,1.9-0.2,3.8-0.1,5.7c0.6,10.5,7.4,17.7,17.9,18.5
	c5.4,0.4,10.9,0.1,16.3-0.4c19.4-2,38.8-4.2,58.2-6.4c11.9-1.3,23.8-2.9,35.7-4.2c13.7-1.4,27.4-1.8,41.2-0.9
	c19.8,1.3,39.4,4.5,59,7.7c11,1.8,22,3.9,33.2,4.8c10.2,0.8,20.5,0.7,30.7,0c18.9-1.4,37.2-6.2,55.3-11.5
	c21.2-6.2,42.4-12.3,63.6-18.3c14.9-4.2,30.2-7,45.6-9.3c10.3-1.5,20.6-3.1,30.8-4.9c3.1-0.5,6.2-1.7,9.2-2.6c1.6-0.5,2.8-1.6,3-3.4
	c0.5-4.2,3.2-6.9,6.7-8.8c3.7-2,6.9-4.6,9.9-7.5c5.4-5,10.8-10,16.1-15.1c0.6-0.5,1.1-1.1,1.7-1.7c1.5-1.5,2.1-3.1,1.2-5.2
	c-1.9-4.4-0.5-8,2.7-11.3c7.4-7.5,14.7-15.1,22.1-22.7c5.6-5.7,11.4-11.3,17.7-16.2c6.6-5.2,13.6-9.6,21.4-12.8
	c3.4-1.4,5.6-3.6,7.1-6.8c0.7-1.4,1.3-2.9,1.8-4.4c1.4-4.2,3.7-7.8,7-10.8c8.8-8.1,19.2-12.6,31.2-13c5.9-0.2,11.3,1.2,16,5.2
	c5.6,4.7,12.4,5.5,19.5,5.3c1,0,1.9-0.2,2.9-0.4c5.1-0.6,9.4-2.7,13-6.5c6.7-7.1,14.9-11.4,24.5-13.2c8-1.5,15.9-1.2,23.8,0.7
	c6.3,1.5,12.2,3.9,17.7,7.2c1.1,0.7,2.2,1.3,3.2,2.1c6.5,4.5,6.9,7.2,1.8,13.1c-0.9,1.1-2,2.1-2.9,3.2c-1,1.2-2,2.5-2.9,3.8
	c-2.5,3.7-2.8,7.5-0.3,11.2c1.6,2.4,3.3,4.7,5.2,6.9c3.1,3.7,6.3,7.3,9.3,11c5,6,8.6,12.5,10.7,20.2c4.4,16.1,14.5,27.4,29.8,34.3
	c13.3,6,26.4,12.2,39.6,18.4c2.3,1.1,4.6,2.2,6.7,3.6c5.2,3.4,6.4,6.8,4.6,12.7c-2.4,7.7-5.5,15-9.9,21.8
	c-9.2,14.3-22.1,22.8-39,25.2c-14.4,2.1-28.8,3.9-43.3,5.8c-4.3,0.6-8.6,1.2-12.8,1.8c-3,0.4-5.9,1.4-8.6,2.8
	c-5.1,2.7-7.7,7-7.8,12.8c-0.1,3.9,1,7.6,2.3,11.2c2.2,6.2,4.6,12.3,6.8,18.4c3.6,10.3,7.2,20.5,10.6,30.8c1.6,4.7,2.6,9.6,2.4,14.6
	c-0.1,5.2-1.6,10.1-4.4,14.5c-0.3,0.5-0.8,0.9-1.4,1.6c-2-1.1-2.9-3-4.2-4.5c-1.2-1.4-2.2-3.1-3.8-4.3c-1.2,3.4-1.3,4.5-1,8.5
	c0.6,10.4,1.2,20.8,1.7,31.1c0.1,1.9,0.1,3.9-0.1,5.7c-0.4,3.7-2.4,5.3-6.2,5.1c-1.1,0-2.2-0.2-3.6-0.3c0,2-0.1,3.7-0.1,5.4
	c0,10.1-0.1,20.2,0,30.2c0,5.8-1,11.4-3.4,16.8c-8.1,18.2-13.1,37.4-19.5,56.2c-1.2,3.5-2.3,7-3.7,10.4c-0.7,1.7-1.7,3.4-3,4.9
	c-1.6,1.8-3.6,1.9-5.6,0.6c-1.2-0.8-2.3-1.7-3.4-2.7c-1.4,0.7-1.7,2.2-2.3,3.4c-4,7.8-7.9,15.7-11.9,23.6c-1.1,2.1-2.4,4.2-3.7,6.1
	c-2.8,4.1-6.6,7-11.6,7.7c-2.3,0.4-3.8,1.5-5.2,3.1c-3.9,4.2-7.8,8.5-11.8,12.6c-1.3,1.4-2.8,2.6-4.4,3.7c-1.5,1.1-3.2,1.7-5,1
	c-5.1-1.9-8.5,0.4-11.7,4.1c-5.4,6.3-11,12.5-16.5,18.7c-0.8,0.9-1.8,1.7-2.7,2.7c-2.9-1.8-4.8-4.5-7.7-6.6
	c-0.8,0.7-1.6,1.3-2.3,2.2c-5.5,6.9-10.9,13.8-16.3,20.7c-1,1.2-2,2.4-3.3,4c-0.5-0.9-1-1.5-1.2-2.2c-0.9-2.9-1.7-5.8-2.4-8.5
	c-1.4-0.4-1.7,0.5-2.1,1.1c-3.4,4.9-5.9,10.1-7.6,15.9c-7.9,27.2-16,54.3-23.9,81.4c-5.2,17.8-7.9,35.9-8,54.4c0,4.5,0.3,9,0.7,13.4
	c0.7,7.8,4.5,13.5,11.9,16.6c3.7,1.6,7.3,3.4,10.7,5.4c2.8,1.6,5.4,3.4,7.9,5.4c1.9,1.6,3.7,3.6,5.1,5.7c3.2,5,2.7,10.1-1.4,14.5
	c-0.8,0.8-1.6,1.6-2.5,2.3c-7,4.8-14.4,8-23.3,7.4c-10.4-0.8-20.7-1.4-31.1-2.4c-12.5-1.2-21.2-7.5-26.3-18.8
	c-2.8-6.1-5.2-12.4-7.8-18.6c-3.1-7.4-6.3-14.7-9.5-22c-0.8-1.8-1.7-3.5-2.7-5.1c-1.4-2.3-3.6-3.1-6.2-2.5c-1.6,0.4-3.1,0.9-4.6,1.4
	c-1.4,0.4-2.7,0.8-4.2,1.3c-1.1-1.9-1.1-3.8-1.4-5.7c-0.8-4.9-1.4-9.8-2.2-14.7c-0.2-1.4-0.5-2.8-0.9-4.2c-1-3-2.7-3.8-5.5-2.7
	c-1.3,0.5-2.6,1.2-3.9,1.8c-2.6,1.2-5.2,2.4-8.2,2.9c-0.8-2.4-0.6-4.6-0.2-6.8c0.5-2.7,1.3-5.3,2-7.9c0.7-2.6,1.4-5.3,2-7.9
	c1-5,0.6-9.9-2.1-14.4c-1.3-2.1-1.3-4-0.5-6.3c5.2-14.6,7.2-29.8,7.5-45.2c0.2-8.3-0.3-16.6-0.6-24.9c-0.1-2.2-0.5-4.5-1.2-6.6
	c-3.2-10-9.3-17.8-18.2-23.3c-5.2-3.2-10.8-4.5-17-3.5c-7.6,1.3-14.9,0-21.8-3.7c-4.5-2.4-6.2-2.3-9.8,1.3c-3,2.9-6,3.3-9.6,1.5
	c-4.2-2.1-8.3-4.2-12.5-6.2c-2.9-1.4-5.8-2.7-8.7-3.9c-1.8-0.8-3.6-1.3-5.6-0.9c-1.4,0.3-2.6,0.8-3.7,2c-3,3.3-4,3.5-7.7,1.1
	c-2.7-1.8-5.2-3.7-7.8-5.5c-2.5-1.7-5.1-3.3-7.7-4.9c-1.8-1.1-3.9-1.5-6-1.1c-1.8,0.3-3.4,0.8-4.3,2.6c-0.2,0.4-0.5,0.8-0.8,1.2
	c-1.7,1.9-3.7,2.5-6,1.3c-1.5-0.8-3-1.8-4.3-3c-2.3-2-4.4-4.2-6.7-6.2c-2.2-2.1-4.6-3.9-7.9-4.6c-0.5,0.2-1.1,0.4-1.7,0.7
	c-3.6,2-6.7,1.3-9.7-1.2c-3.2-2.7-6.4-5.4-9.6-7.9c-2.4-1.9-4.8-3.7-7.4-5.3c-2.6-1.5-5.1-1.9-8,0.2c-3.6,2.6-6.1,2.3-9.5-0.6
	c-2.1-1.7-3.9-3.8-5.8-5.7c-1.8-1.8-3.5-3.7-5.5-5.4c-4-3.4-8.6-4.9-13.9-3.6c-5.7,1.4-10-0.6-13.7-4.7c-1.6-1.8-3.2-3.6-4.9-5.3
	c-3.3-3.3-7.3-4.5-11.9-3.1c-3.5,1.1-6.9,2.4-10.4,3.7c-1.5,0.6-2.9,1.4-4.4,2c-2.1,0.9-4.2,1.4-6.5,0.9c-4.1-0.8-7.2,0.8-9.3,4.4
	c-0.9,1.5-1.8,3-2.7,4.6c-6.2,10.7-13,20.9-21.1,30.3c-10.1,11.8-21.7,21.7-35.1,29.5c-21.4,12.6-42.6,25.3-63.9,38
	c-13.8,8.2-26.5,17.9-37.7,29.5c-22.5,23.1-36.5,50.7-42.9,82.2c-1.1,5.2-1.5,10.4-0.7,15.7c1.1,7.6,4.3,14,9.8,19.3
	c1.5,1.5,3.1,2.8,4.6,4.2c2.5,2.3,4.4,5.1,5.4,8.4c1.1,3.5,0.7,6.7-1.3,9.6c-4.9,7-11.2,11.7-19.9,12.9c-6.7,0.9-13.4,1-20.1,0.4
	c-2.4-0.2-4.8-0.3-7.2-0.5c-6.4-0.5-12.2-2.6-17.1-6.8c-5.2-4.4-8.5-10-9.4-16.8c-0.6-4.4-0.9-8.9-1.1-13.4
	c-0.3-7.4,0.3-14.7,1.8-21.9c2.7-12.9,3.9-26,3.8-39.1c-0.1-16-0.7-32-1-48c-0.1-4.5-0.1-9,0.1-13.4c0.1-5.2,1.3-10.1,3.3-14.9
	c4.2-10,6.4-20.4,6.6-31.3c0.1-4.8,0-9.6-0.1-14.4c0-3.1-1-6-2.3-8.8c-1-2.2-2.5-4-4.9-5c-4.7-1.9-6.7-5.7-7.2-10.5
	c-0.4-3.8-0.8-7.7-0.8-11.5c0-6.2-1.3-12-4.2-17.6c-1.2-2.3-2.2-4.6-3.4-6.9c-1.7-3.2-2.7-6.5-2.8-10.1c0-0.6-0.1-1.3-0.1-1.9
	c-0.3-11.7-0.5-23.4,0.7-35c0.1-1.3,0.3-2.5,0.5-3.8c0.8-6.1,0.9-12.1-0.1-18.1c-1.2-7.5-0.4-15,1.1-22.4c1.8-8.6,3.9-17.2,6.7-25.5
	c3-8.6,3.7-17.5,3.5-26.5C987.5,867.8,987.3,867.3,987.2,866.9z"/>
</svg>
