<?xml version="1.0" encoding="utf-8"?>
<!-- Generator: Adobe Illustrator 22.0.0, SVG Export Plug-In . SVG Version: 6.00 Build 0)  -->
<svg version="1.1" id="Layer_1" xmlns="http://www.w3.org/2000/svg" xmlns:xlink="http://www.w3.org/1999/xlink" x="0px" y="0px"
	 viewBox="0 0 2880 1800" enable-background="new 0 0 2880 1800" xml:space="preserve">
<path d="M1124.1,1036.5c-1.1,1-1.6,1.4-2,1.8c-10.8,11.4-21.4,22.9-32.4,34.1c-23.3,23.9-43.8,50.1-63,77.3
	c-9.6,13.6-19.1,27.2-28.8,40.8c-4,5.6-8,11.2-12.3,16.5c-7.8,9.4-11.9,20.3-13.6,32.3c-1.8,11.9-2,23.9-2.5,35.9
	c-0.3,7.4-0.4,14.7-0.6,22.1c0,1.1,0,2.2,0.1,3.4c0.3,4,2.3,6.9,5.9,8.7c1.1,0.6,2.3,1.1,3.5,1.5c5,1.8,8.9,5,11.9,9.4
	c2.3,3.3,4.1,6.9,5.2,10.8c0.4,1.4,0.6,2.8,0.7,4.2c0.1,3-1.3,5.3-4,6.5c-1.7,0.8-3.6,1.4-5.5,1.7c-3.6,0.5-7.3,0.9-11,1
	c-8.8,0.3-17.6,0.5-26.4,0.6c-1.4,0-2.9-0.2-4.3-0.5c-2.4-0.6-2.8-1.3-2.8-4.1c0-2.1-0.5-2.9-2.5-3.6c-1.2-0.4-2.5-0.7-3.7-1.1
	c-2.8-0.9-5.3-2.3-7.1-4.7c-1.4-1.8-2.3-3.8-2.3-6.2c0.1-7-0.1-14.1,0.1-21.1c0.1-3.5,0.9-7,1.3-10.5c1.8-14.8,3.6-29.5,5.4-44.3
	c1.4-11.9,2.7-23.8,4.2-35.7c1.8-14.4,3.7-28.9,5.6-43.3c1.2-8.4,4.3-16,9.8-22.6c2.6-3.1,5.1-6.2,7.8-9.1
	c6.2-6.7,12.6-13.2,18.8-19.9c2.2-2.3,4.1-4.9,5.8-7.6c15.1-23.1,25-48.5,32.7-74.9c5.9-20.3,10.4-40.9,14.4-61.6
	c3.3-17.1,6.3-34.3,9.3-51.4c2.7-15.3,4.5-30.7,4.3-46.3c-0.1-6.4,0.3-12.8,1.8-19.1c2.1-9.1,6.4-17.1,13.1-23.6
	c10.3-10,20.8-20,31.2-29.9c6.6-6.3,13.3-12.5,19.8-18.8c7.2-7.1,13.7-14.8,19.6-22.9c0.8-1.2,1.7-2.3,2.4-3.6
	c2.5-4.3,2.4-8.5-0.2-12.7c-0.8-1.2-1.7-2.4-2.5-3.5c-1.1-1.4-2.3-2.7-3.3-4.1c-7.3-9.8-10.3-20.7-8.4-33c3-19.6,12.1-35.6,27.4-48
	c12.9-10.4,27.9-15.5,44.4-15.5c10.4,0,20.3,2.4,29.6,7c3.1,1.6,6.1,3.5,8.8,5.7c6.4,5.2,9.8,12.1,10.9,20.2
	c1.1,8.3,1.3,16.6,1.2,24.9c0,1.1-0.1,2.2-0.2,3.4c-0.4,4.3-2,8-5.3,11c-0.7,0.6-1.4,1.2-2,1.8c0.3,1.3,1.2,1.2,1.9,1.2
	c2.1,0.2,4.2,0.3,6.2,0.3c62.2-0.6,124.5-1.2,186.7-1.7c17.6-0.1,34.6-3.4,51.5-8.2c16.3-4.7,32.2-10.4,48.1-16.3
	c8.3-3,16.6-6,24.6-9.5c34.9-15.4,63.1-39.2,85.3-70.2c3.8-5.3,7.5-10.8,10.8-16.4c9.9-16.9,21.9-32.3,35.5-46.4
	c6.7-6.9,13.5-13.7,20.6-20.1c21-19.3,45.7-31.5,73.5-37.5c5-1.1,10-1.9,15.1-2.9c4.8-0.9,9.3-2.3,13.6-4.5
	c17.5-8.9,35.1-17.7,52.6-26.7c2.5-1.3,5-2.1,8.1-1.3c0.9,1.8,1.2,3.7,0.5,5.8c-0.9,2.6-1.7,5.2-2.7,7.7c-2.3,5.8-4.6,11.6-6.9,17.4
	c-0.4,1.1-0.8,2.3-1.2,3.8c3.6,0,6.7-0.7,9.6-2c11.4-5,22.8-10,34.3-15c2.2-1,4.3-2.1,6.5-3.1c1-0.5,2.1-0.9,3.1-1.2
	c3.6-1,6.1,1.2,5.5,4.9c-0.3,2.1-1.1,4-2.4,5.7c-6.8,8.7-13.4,17.6-21,25.6c-5.3,5.6-11.1,10.6-17.6,14.8c-1.7,1.1-3.6,2.1-4.9,4.2
	c1.4,1.2,2.7,2.3,4,3.5c6.5,5.7,12.6,11.8,17.7,18.8c6,8.3,10.2,17.4,11.8,27.5c0.8,5.2,0.6,10.5,0.4,15.8c-0.2,5.1-0.3,10.2,0,15.3
	c0.4,8.7,3.2,16.6,8.3,23.7c10.5,14.6,21.5,28.7,33.9,41.7c3.3,3.5,6.2,7.4,9.1,11.1c1.8,2.4,1.8,6.6,0.1,9c-2.1,3-4.5,5.7-7.6,7.9
	c-8.2,5.8-16.8,10.5-26.8,12.3c-2.7,0.5-4.6,1.6-5.8,4.3c-1.5,3.4-4.5,5.4-8.1,6.1c-2,0.4-4.1,0.7-6.2,0.9
	c-12.9,0.9-25.1-1.8-36.8-7.2c-3.6-1.7-7.2-3.5-10.6-5.6c-12-7.3-24-14.8-35.9-22.3c-9.1-5.7-18-11.6-27-17.4
	c-1.3-0.9-2.7-1.7-4.1-2.4c-6.4-3.5-12.4-0.3-15.1,4.6c-11,20.6-20.6,41.9-27.6,64.2c-6.4,20.7-10.9,41.7-13.7,63.2
	c-1.7,13-2.5,26.1-3.5,39.2c-0.9,12-2.5,23.9-4.5,35.7c-1.4,8.2-2.8,16.4-4.6,24.5c-2.5,11.1-6.8,21.6-11.7,31.9
	c-3.8,8.1-7.6,16.2-11.8,24.2c-5.9,11.2-9.2,23.1-10.7,35.6c-1.2,9.2-2.4,18.4-3.5,27.6c-0.6,5.2-0.8,10.5-1.1,15.8
	c-0.5,11.2-2.9,22.2-5.7,33c-4.5,17.4-10.9,34.1-18.2,50.5c-4.5,10-8,20.2-9.4,31.1c-0.7,5.1-1.2,10.2-1.3,15.3
	c-1,36.3-0.4,72.6,0,108.9c0,2.1,0.2,4.2,0.6,6.2c0.7,4.4,3.3,7.6,7.2,9.6c2.3,1.1,4.7,2,7.1,2.7c7.7,2.3,15,5.6,21.9,9.7
	c8,4.7,11.6,13.7,9.4,22.7c-0.9,3.7-3,5.9-6.8,6.5c-6.7,1-13.4,0.9-20.1,0.3c-1.6-0.1-3.2-0.4-4.8-0.5c-2.8,0-4.1,0.9-5.1,3.5
	c-0.4,1.2-0.7,2.5-1.1,3.7c-1,3.1-2.7,5.8-5.4,7.8c-2,1.5-4.1,2.3-6.6,2.3c-4.2-0.1-8.3,0-12.5,0c-1,0-1.9,0-2.9-0.2
	c-11.3-2.3-22.8-3.1-34.2-4.4c-1.6-0.2-3.2-0.4-4.7-0.7c-7.2-1.7-12.2-6.1-15.1-12.8c-1.6-3.5-2.3-7.3-2.9-11.1
	c-1.4-8.6-1.5-17.2-1.4-25.8c0.2-11.5,0.5-23,0.8-34.5c0-1.1,0.1-2.2,0.1-3.4c0-2.5-0.9-4.3-3.5-5c-0.9-0.2-1.8-0.6-2.7-1
	c-3.2-1.4-5-3.9-5.5-7.3c-0.2-1.3-0.2-2.6-0.2-3.8c-0.3-11.1,0.6-22.1,1.4-33.1c0.7-10.1,1.6-20.1,2.5-30.1
	c0.8-9.1,1.7-18.2,2.5-27.2c0.8-9.2,1.6-18.5,2.2-27.7c0.6-8.6,1.2-17.2,1.5-25.9c0.3-8.5,0.3-17,0-25.4
	c-0.4-12.6-1.6-25.2-3.4-37.7c-2-14.1-4.6-28.1-7.6-42c-0.8-3.5-1.5-4.3-5.1-4.7c-6.7-0.7-13.4-1.2-20.1-1.5
	c-9.3-0.5-18.5-0.8-27.8-1.1c-26.9-0.9-52-8.3-75.1-22.3c-8.8-5.3-17.3-11-25.2-17.4c-10.7-8.7-23.1-13.5-36.5-15.9
	c-7.3-1.3-14.6-2.1-22-2c-9.1,0.1-18.2,0.4-27.3,0.6c-4.6,0.1-9.3,0.5-13.9,0.3c-3.5-0.1-5.5,2.2-6.1,4.9c-0.5,2.2-0.9,4.4-1.7,6.5
	c-1.8,5.3-5.4,8.6-11.2,9.1c-2.4,0.2-4.8,0.3-7.2,0.1c-7.8-0.8-15.6-1.8-23.3-2.7c-0.8-0.1-1.6-0.3-2.4-0.3c-2.4,0-4.3,1-5.3,3.3
	c-3.2,7.3-6.6,14.6-8.5,22.4c-4.1,16.1-10.6,31.2-19.1,45.4c-4.2,7-8.4,14-12.3,21.2c-3.5,6.5-6.9,13-9.8,19.8
	c-5.6,13.1-12.5,25.6-20.6,37.3c-7.5,10.7-15.5,21.2-23.2,31.8c-4,5.4-8,10.8-11.8,16.3c-13.8,20.1-22.3,42.4-27.1,66.1
	c-3.3,16.2-4.1,32.7-3,49.2c0.3,4.4,1.9,8,5.4,10.7c3.1,2.3,6.2,4.5,9.2,6.9c3.9,3.1,7.7,6.3,11.3,9.7c1.9,1.8,3.6,4.1,5,6.4
	c1,1.6,1.7,3.5,2,5.3c0.8,4-0.8,7.3-4.5,9.1c-1.7,0.8-3.6,1.4-5.5,1.6c-2.4,0.3-4.8,0.5-7.2,0.2c-9.9-0.9-19.7-1.9-29.6-2.8
	c-6.1-0.6-9.8-4-11.8-9.7c-2-5.6-4.1-11.1-6.4-16.5c-1.4-3.3-1.9-6.7-1.8-10.3c0.5-12,2.2-23.9,4.5-35.7c2.2-11.3,3.6-22.8,4.1-34.3
	c0.6-13.3-0.4-26.5-3.4-39.6c-0.4-1.7-0.8-3.4-1-5.2c-0.9-7,0.5-13.4,4.6-19.1c2.1-2.8,4.4-5.5,6.8-8c11.8-12.5,20.8-26.7,26.4-43
	c4.5-13.3,6.8-27,6-41C1124.4,1038.5,1124.3,1037.9,1124.1,1036.5z"/>
</svg>
