<?xml version="1.0" encoding="utf-8"?>
<!-- Generator: Adobe Illustrator 22.0.0, SVG Export Plug-In . SVG Version: 6.00 Build 0)  -->
<svg version="1.1" id="Layer_1" xmlns="http://www.w3.org/2000/svg" xmlns:xlink="http://www.w3.org/1999/xlink" x="0px" y="0px"
	 viewBox="0 0 2880 1800" enable-background="new 0 0 2880 1800" xml:space="preserve">
<path d="M1010.7,1101.6c-2.1,0.7-4.1,1.3-6,2.1c-3.9,1.6-6.2,4.6-6.7,8.7c-0.5,3.3-0.7,6.7-0.8,10c-0.1,3.7-0.7,7.2-2.4,10.6
	c-3.2,6.5-4.8,13.6-5.4,20.8c-0.9,9.9-0.8,19.8-0.7,29.7c0,0.5,0.2,0.9,0.4,1.6c3.4,0.7,6.9,1.1,10.2,2.1c3.4,1,6.7,2.1,9.8,3.7
	c3.1,1.6,6.1,3.6,8.8,5.8c2.6,2.1,4.9,4.6,7,7.2c2.2,2.8,4,5.8,5.8,8.8c1.7,3,3.3,6.2,4.2,9.6c-1.7,2.6-4,3.9-6.3,5.3
	c-6.9,4-14.4,6.1-22.4,6.5c-5.7,0.3-11.5,0.5-17.3,0.8c-2.9,0.2-5.7,0.4-8.6,0.7c-8.2,0.7-16.3,0.2-24.2-2.5
	c-2.7-0.9-5.4-2.1-7.9-3.5c-9.7-5.6-15-14.1-16.4-25.1c-0.4-2.8-0.5-5.8-0.3-8.6c0.7-15.9-0.1-31.7-1.3-47.5
	c-0.5-6.9-0.9-13.7-1.3-20.6c-0.2-2.6-0.4-5.1-0.5-7.7c-0.1-1.8-0.7-3.3-2-4.7c-4-4.1-5.9-9-6.3-14.7c-0.2-2.4-0.3-4.8-0.3-7.2
	c0.1-4.3,0.3-8.6,0.5-12.9c0.5-10,5-17.7,13.4-23.1c1.7-1.1,3.6-2.1,5.5-3c3.9-1.9,7.8-3.7,11.7-5.6c3.1-1.6,6.2-3.3,9.3-5
	c7.4-4.2,12.4-10.4,15.2-18.5c1.9-5.6,3.8-11.2,5.4-16.9c3.9-14.2,8-28.3,12.9-42.2c3.5-10.2,5.9-20.6,7.5-31.2
	c1.8-11.9,4.7-23.5,9.5-34.6c2.9-6.6,6.4-12.9,10.6-18.7c6.2-8.5,13.7-15.6,22.8-20.9c4.6-2.6,9.1-5.3,13.6-8.1
	c1.9-1.2,3.5-2.8,5.1-4.3c1.2-1.2,1.6-2.7,1.4-4.4c-1.5-16.6-2.4-33.2-5.7-49.5c-1.3-6.7-3.4-13.3-5.2-20
	c-1.8-6.8-3.8-13.6-4.7-20.6c-0.4-2.9-0.5-5.7-0.8-8.6c-1.1-13.9-1.2-27.8,0.2-41.7c2.6-24.8,11-47.2,27.5-66.3
	c6-6.9,11.8-13.9,17.8-20.8c2.3-2.7,4.8-5.2,7.2-7.7c16.1-17.1,35.8-28.2,58.4-34.4c13.3-3.7,26.9-5.9,40.6-6.8
	c7.3-0.5,14.7-0.8,22-1c7.7-0.2,15.3,1.2,22.8,3c2,0.5,4,1.2,5.9,2c4.9,1.9,6.7,5.7,4.4,11.8c-0.7,1.9-2.1,3.7-3.6,5
	c-5.1,4.6-10.6,8.6-17.5,10.4c-13.1,3.4-26.2,7.3-39.4,10.6c-8.4,2.1-16.8,3.8-25,6.6c-12.8,4.4-24.8,10.3-36.3,17.3
	c-20.3,12.4-33,30.3-38.7,53.3c-2.1,8.4-3.4,16.9-3.9,25.6c-0.6,10.7,1.6,21,4.2,31.2c1.9,7.1,3.7,14.2,5.6,21.3
	c1.1,4.3,2.7,8.6,4.8,12.5c2.4,4.3,5,8.6,7.6,12.8c4.7,7.3,11.3,12.2,19.6,14.6c4.4,1.3,9,2.2,13.6,2.8c7.6,0.9,15.3,1.6,22.9,2.1
	c18.7,1.3,37.3,2.5,56,3.8c2.2,0.2,4.4,0.8,6.6,1.1c11.6,1.5,23.1,3.1,34.9,2.9c21-0.4,41.9-0.6,62.9-0.7
	c10.1-0.1,20.2,0.1,30.2,0.3c11.7,0.2,23.3,0.7,35,1c12.6,0.3,25.3-0.3,37.8-1.8c5.2-0.6,10.4-1.7,15.6-2.6
	c10.9-1.9,21.7-3.9,32.6-5.8c9.3-1.7,18.4-4.1,27.2-7.4c21.5-8.2,43.7-14.4,66.2-19.5c1.4-0.3,2.8-0.6,4.2-0.9
	c9.9-2.1,18.2-7.1,24.4-15c3.3-4.1,6.2-8.5,8.9-13.1c6-10,11.3-20.4,16.4-30.9c1.8-3.8,3.6-7.5,5.4-11.3
	c11.8-25.5,26.2-49.4,42.2-72.4c4.7-6.7,9.4-13.4,14.3-19.9c3-3.9,6.3-7.7,9.7-11.3c3.6-3.9,8.1-6.7,13-8.8
	c11.1-4.7,22.5-8.2,34.1-11.3c10.2-2.7,20.4-5.3,30.6-8.1c2.6-0.7,5-0.7,7.5,0c8.6,2.4,17.3,4.6,25.9,7c9.4,2.6,17.8,7.2,25.4,13.1
	c8.8,6.8,16.9,14.3,23.2,23.4c0.7,1.1,1.5,2,2.3,3c2.1,2.7,4.8,4.6,8,5.9c6,2.3,12.1,4,18.4,5.5c19.9,4.8,39.5,10.5,59.2,16.2
	c5.9,1.7,10.6,5.2,14.1,10.2c1.1,1.6,1.9,3.3,2.7,5.1c1.1,2.6,1.1,5.3,0,7.9c-4.4,10.6-8.5,21.4-13.6,31.7
	c-10.1,20.2-25.6,35.4-44.9,46.8c-3.6,2.2-7.7,3.3-11.8,3.9c-8,1.1-15.6,3.1-23.3,5.6c-9.2,2.9-18.5,5-28.2,5.6
	c-5,0.3-9.9-0.1-14.8-0.7c-1.8-0.2-3.5-0.1-5.2,0.5c-3.2,1.2-5.3,3.1-5.4,7c-0.2,5.1-0.9,10.2,0.1,15.3c0.3,1.4,0.5,2.8,0.9,4.2
	c3.7,11.1,7.2,22.2,11.2,33.2c2.4,6.6,5.5,13,8.5,19.3c2.9,6.3,5.5,12.6,6.7,19.4c1.4,8.2,1.2,16.2-1.1,24.2
	c-1.9,6.5-4.7,12.6-8.6,18.1c-3.6,5.3-8.2,9.5-14.7,10.9c-8.8,2-16.4-0.8-22.9-6.8c-1.6-1.5-2.3-3.5-2.8-5.5
	c-1.4-5.4-2.7-10.9-4-16.3c-0.3-1.1-0.5-2.2-1-3.1c-0.3-0.5-1.3-0.8-2-0.8c-0.4,0-1.1,0.7-1.2,1.2c-0.5,2.5-0.8,5.1-1.2,7.6
	c-1.4,8.3-1.2,16.6,0.2,24.8c0.6,3.1,1,6.3,1.3,9.5c0.8,6.7,0.2,13.4-1.1,20c-1,4.8-1.9,9.8-2.3,14.7c-0.8,8.8-3.5,16.9-7.7,24.5
	c-3.5,6.3-7.9,12-12.6,17.5c-9.8,11.6-20.6,22.4-31.9,32.5c-6.9,6.2-13.9,12.3-20.7,18.6c-2.9,2.7-5.6,5.7-8.3,8.7
	c-2.1,2.4-4.4,4.6-7,6.6c-15.6,11.5-31,23.2-46.7,34.4c-7.7,5.5-11.3,12.8-12.2,21.8c-0.3,3.3-0.6,6.7-0.7,10.1
	c-0.1,1.9,0.1,3.8,0.5,5.7c1.2,6.1,5,9.9,11.1,11.1c0.6,0.1,1.3,0.2,1.9,0.3c8.7,0.8,16.9,3.6,24.7,7.5c3.2,1.6,6.2,3.3,9.4,4.9
	c2.9,1.5,5.2,3.7,6.9,6.5c2,3.1,3.5,6.5,4.5,10c1.2,4.4,0.2,7.4-3.5,10.1c-1.7,1.2-3.6,2.2-5.4,3c-15.1,6.9-30.3,13.6-45.5,20.5
	c-6.9,3.1-14,5.7-21.6,5.9c-4.8,0.1-9.6-0.3-14.4-0.7c-10.4-0.8-20.7-1.7-31.1-2.5c-4.3-0.4-8.6-0.8-12.9-1.2
	c-2.8-0.3-5.3-1.2-7.5-3c-1.4-1.1-2.4-2.5-3-4.2c-2.3-7-4.7-13.9-6.9-20.9c-2.3-7.1-3.3-14.3-2.5-21.8c0.3-3.2,0.1-6.4-0.8-9.5
	c-2.4-9.1-4.6-18.3-6.9-27.4c-0.6-2.3-1.5-4.6-2.3-6.8c-0.8-2.3-2.5-3.5-4.9-4c-8.7-1.6-17.2-3.4-25.9-4.9
	c-16.7-2.7-33.5-5.1-50.2-7.8c-7.9-1.3-15.7-3.1-23.5-4.7c-18.8-3.8-37.6-7.7-56.4-11.3c-15.6-3-30.8-7.1-46.1-11.4
	c-37.1-10.5-74.3-20.4-111.7-29.7c-11.6-2.9-23.4-5.3-35.1-7.7c-6-1.2-12-1.7-18.1-0.8c-3.8,0.6-7.6,1.4-11,3.1
	c-15.3,7.4-31.1,13.5-46.7,20c-4.9,2-9.5,4.6-13.5,8.2c-5.9,5.3-10,11.6-11.6,19.4c-1,4.6-1,9.2,0.1,13.8c2.3,9.8,5.7,19.3,9.3,28.7
	c1,2.7,2.2,5.3,3.2,8c1.1,3,3,5.3,5.7,6.9c2,1.2,4.2,2.4,6.3,3.5c3.8,2,7.8,3.7,11.6,5.8c3.6,2,7.1,4.3,10.5,6.7
	c4.2,3.1,7.4,7,9.8,11.6c0.7,1.3,1.2,2.6,1.6,4c0.8,3.1-0.1,5.7-2.7,7.6c-1.3,0.9-2.7,1.8-4.1,2.5c-8.9,4.2-18.1,7.2-27.9,8.4
	c-5.5,0.7-10.9-0.1-16.2-1c-7.1-1.1-14.2-2.3-21.4-2.5c-5.9-0.2-10.2-3-13-8.4c-2.3-4.4-4.9-8.6-7.5-12.8c-2-3.3-4.2-6.5-6-9.8
	c-3.6-6.5-5.4-13.3-4-20.8c0.3-1.8,0.1-3.4-0.6-5.1c-5.6-13.1-11.1-26.2-16.6-39.3C1011.9,1103.4,1011.3,1102.7,1010.7,1101.6z"/>
</svg>
