<?xml version="1.0" encoding="utf-8"?>
<!-- Generator: Adobe Illustrator 22.0.0, SVG Export Plug-In . SVG Version: 6.00 Build 0)  -->
<svg version="1.1" id="Layer_1" xmlns="http://www.w3.org/2000/svg" xmlns:xlink="http://www.w3.org/1999/xlink" x="0px" y="0px"
	 viewBox="0 0 2880 1800" enable-background="new 0 0 2880 1800" xml:space="preserve">
<path d="M1094.8,485.1c1.8,3.3,2.5,6.8,2.9,10.2c0.3,2.2,0.3,4.5,0.3,6.7c-0.1,9.3-0.2,18.6-0.3,27.8c-0.1,15.7,0.7,31.4,2.2,47
	c1,11,3,21.9,6.6,32.4c1.5,4.2,3,8.4,5,12.5c12.7,25.7,26.7,50.6,43.2,74.1c14.4,20.5,30.6,39.4,49.2,56.3c2.4,2.1,4.8,4.2,7.4,6.1
	c8.9,6.3,18.8,8.5,29.6,7.1c18.7-2.4,37.4-5,56.1-7.4c16.5-2.1,33-4.4,49.5-6.3c11.3-1.3,22.6-2.2,33.9-3.2
	c17.8-1.6,35.7-3.1,53.3-6.7c14.7-3.1,29.2-7.2,43.4-12c20.3-6.9,40.5-14.1,60.7-21.1c4.1-1.4,8.2-2.8,12.2-4.2
	c17.2-6,30.9-16.5,41.3-31.4c4.2-6,8.3-12.2,12.4-18.3c29-43.2,57.9-86.3,86.9-129.5c4.4-6.5,9.1-12.8,14.6-18.4
	c12.5-12.7,27.5-20.3,45.3-21.5c12.9-0.9,25.9-1.6,38.8-2c13.4-0.5,25.6,3.5,36.6,11c6.1,4.1,12.1,8.4,18.1,12.6
	c8.5,6,16.9,12.1,25.3,18.2c0.9,0.7,1.8,1.3,2.7,2c5,4.1,7.1,9.3,5.8,15.8c-0.2,0.9-0.4,1.9-0.5,2.8c-0.3,3.7,1.1,6.6,4.3,8.4
	c1.8,1,3.8,1.8,5.8,2.3c7.7,2,15.5,3.9,23.3,5.8c12.1,2.9,24.3,5.7,36.4,8.7c2.9,0.7,5.8,1.7,8.6,2.9c4.8,2,7.5,5.7,8.2,10.9
	c0.7,4.7,0,9.2-0.7,13.8c0,0.3-0.2,0.6-0.3,0.9c-1.8,6.8-3.2,13.7-4.2,20.7c-0.7,4.8-2.1,9.3-4,13.8c-4.2,9.8-10.9,17.6-19.8,23.5
	c-6.6,4.3-13.8,7.4-21.4,9.4c-9.4,2.5-18,6.4-26,11.9c-2.9,2-6,3.7-9.2,5.2c-6.9,3.2-14,3.2-20.9,0.1c-2.9-1.3-5.6-3-8.5-4.5
	c-2.1-1.1-4.2-2.3-6.5-3c-3.9-1.3-6.8-0.2-9.2,3.1c-0.7,1-1.3,2.2-1.9,3.3c-0.4,0.9-0.8,1.8-1.1,2.7c-2.2,7.1-7,10.8-14.4,11.3
	c-1.8,0.1-3.5,0.4-5.2,0.7c-4.8,0.9-9,3-12.5,6.6c-12.7,13-21.2,28.4-25.4,46c-3.1,13-4,26.2-3.4,39.5c0.6,14.1,3.2,27.9,5.7,41.8
	c1.7,9,3.1,17.9,3.7,27.1c0.9,13.3-0.3,26.5-2.7,39.6c-3.4,18.3-9.3,35.9-16.3,53.1c-5,12.3-10.4,24.4-15.5,36.7
	c-5.4,13-10.3,26.2-13.1,40c-1.4,6.7-2.6,13.5-3.3,20.3c-0.9,8-2,15.9-3.5,23.7c-2.6,14-4.5,28.1-5.6,42.3
	c-1.1,14.2-1.2,28.5-0.7,42.7c0.9,23.6,4.2,46.8,9.7,69.7c0.8,3.5,2.2,7,3.8,10.3c3.2,6.4,8.6,10.1,15.6,11.5
	c0.5,0.1,0.9,0.1,1.4,0.2c12.2,1.6,17.1,10.4,19.1,18.3c1,3.8,1.1,7.6,0.2,11.4c-1.1,4.6-3.8,7.7-8.2,9.2c-1.7,0.6-3.4,0.9-5.1,1.1
	c-2.9,0.3-5.7,0.7-8.6,0.6c-9.9-0.2-19.8-0.2-29.7-1.5c-2.5-0.3-5-0.8-7.5-1.5c-12.3-3.3-20.8-10.8-25.6-22.6
	c-3.2-7.8-4.6-15.9-5.5-24.2c-0.4-4.1-1-8.2-1.8-12.3c-0.9-5-3-9.5-6.3-13.3c-1.7-1.9-2.5-4-2.7-6.5c-0.4-5.1-1-10.2-1.5-15.3
	c-1.4-16.4-2.8-32.8-4.2-49.2c-1.4-16.1-2.9-32.2-4.4-48.3c-1-10.8-2-21.7-3.2-32.5c-0.9-8.6-2.2-17.1-3.3-25.7
	c-0.4-3.2-0.9-6.3-1.3-9.9c-1,0.4-1.8,0.5-2.3,0.9c-4.7,3.7-10,6.3-15.4,8.7c-4.5,2-9,4.2-13.5,6.2c-6,2.7-12.2,4.7-18.8,5.4
	c-0.9,0.1-1.9,0.4-2.8,0.6c-7.4,1.5-11.8,6.1-13.4,13.4c-1.1,5-1.9,10.1-2.9,15.1c-1.8,8.9-3.8,17.8-5.7,26.7
	c-1.3,6.3-3.3,12.3-5.6,18.3c-5.9,15.6-10.2,31.6-12.5,48.2c-1.6,11.4-2.4,22.9-2,34.5c0.1,2.4,0.3,4.8,0.7,7.2
	c1,6.5,4.4,11.6,10.2,14.9c2.1,1.2,4.2,2.3,6.1,3.7c3.5,2.5,5.7,6,6.2,10.4c1,9.4-5.6,17.9-15,19c-1.3,0.2-2.6,0.2-3.8,0.1
	c-9.6-0.1-19.2,0.1-28.8-0.9c-3.3-0.3-6.7-0.7-10-1.2c-2.6-0.3-4.9-1.4-6.9-3.1c-6.1-5.4-10.2-11.8-9.9-20.4c0.5-12,1-24,1.4-36
	c0.1-2.9,0.3-5.8,0.3-8.6c-0.1-2.1-0.4-4.1-0.8-6.1c-0.4-1.9-1.4-3.6-3.2-4.6c-0.4-0.2-0.8-0.5-1.2-0.8c-4-2.9-5-6.9-3.8-11.5
	c0.3-1.2,0.8-2.4,1.3-3.6c6.2-15.5,10.1-31.7,12.8-48.1c2.4-15.3,4.5-30.7,6.8-46c0.7-4.9,1.6-9.8,2.3-14.7c0.4-2.7,0.5-5.4,0.6-8.1
	c0.1-4.4-2.1-7.3-6.1-8.8c-2.2-0.8-4.6-1.5-6.9-2c-15-3.1-30.1-5.8-45.4-7.8c-12-1.6-24.1-3.2-36.2-4.4c-23.6-2.3-47.2-3.2-70.9-2.5
	c-1.3,0-2.6,0.1-3.8,0.3c-5.2,0.6-8.9,3.3-10.9,8.2c-0.6,1.5-1,3-1.5,4.5c-6.3,19.6-14.9,38.1-25.9,55.5c-6,9.5-12.8,18.3-20.7,26.4
	c-11.1,11.3-23.9,20.2-38.3,26.7c-11.1,5-21.8,10.8-31.8,17.7c-11.5,7.9-21.9,17.2-31.1,27.7c-13.8,15.7-22.1,34-25.3,54.5
	c-1.5,9.5-1.4,19.1,0.6,28.6c2,9.4,5.7,18,12,25.3c2.8,3.3,3.7,7,3.5,11.1c-0.1,2.3-1.1,4-3,5.2c-4.1,2.7-8.7,3.9-13.6,4.3
	c-1.4,0.1-2.8-0.5-4.2-0.9c-1.6-0.4-3.1-0.4-4.5,0.7c-3.5,2.6-7.5,3.5-11.8,3.1c-6.5-0.5-13.1-1.1-19.6-1.9c-2-0.2-4.1-1-5.9-1.8
	c-6.9-3-10.7-8.4-11.5-15.9c-0.4-4-0.2-8,0.8-11.9c2.5-10.1,5-20.2,7.4-30.3c3.4-14.5,6.2-29.1,7.9-43.9c2.1-18.3,2.3-36.7-0.2-55.1
	c-0.5-3.6-0.2-7,0.5-10.5c0.9-4.5,3-8.5,6.2-11.7c1.8-1.8,3.8-3.5,5.8-5c12.8-9.3,25.6-18.6,38.5-27.8c13.7-9.7,21.3-23.1,24.3-39.4
	c1.6-8.8,1.2-17.5-1.1-26.2c-0.4-1.4-0.9-2.7-1.3-3.8c-1.6-0.5-2.6,0.1-3.4,0.9c-2.2,2.1-4.4,4.2-6.4,6.5
	c-15.2,16.3-30.2,32.7-45.5,48.8c-16.8,17.8-34.4,34.8-53.4,50.3c-4.6,3.7-9.3,7.4-14,10.9c-5.3,4-10,8.5-13.9,13.9
	c-16.5,22.8-33.1,45.6-49.6,68.4c-9.6,13.3-14.8,28.2-16,44.5c-0.4,5.4-1.3,10.8-2.9,16c-1.3,4.2-3.4,7.9-6.4,11.1
	c-2,2.1-4.4,3.6-7.3,4.2c-10,2-20,2.3-30.1,0.7c-11.3-1.9-19.7-11.5-20.4-22.9c-0.4-6.4,1.1-12.4,4.2-17.9
	c3.5-6.1,7.1-12.2,10.6-18.3c6.8-11.8,13.8-23.4,20.4-35.3c4.8-8.7,9.2-17.6,13.5-26.5c5.5-11.6,9.9-23.6,12.8-36.1
	c1.2-5.2,2.8-10.2,4.9-15c3.8-8.5,9.4-15.6,17.1-20.9c0.3-0.2,0.5-0.4,0.8-0.6c17.6-11.7,28.6-28.2,33.7-48.5
	c6.4-25.4,15.7-49.7,27.7-72.9c7.5-14.5,12.7-29.6,16.6-45.4c2.2-8.8,4.2-17.7,6.7-26.5c1.8-6.3,4.2-12.4,6.8-18.4
	c4.1-9.6,9.9-18.3,16.7-26.2c8.5-9.8,16.8-19.8,25.1-29.7c1.8-2.2,3.6-4.5,5.2-6.9c7.8-11.7,9.5-24.2,5.1-37.5
	c-1.6-4.9-3.9-9.4-6.4-13.9c-9-16.2-18.2-32.3-26.9-48.7c-8.8-16.5-17.4-33.1-25.8-49.8c-11-22-18.8-45.1-23.3-69.3
	c-4.3-22.9-5.4-46-3.6-69.3c0.8-9.9,2.1-19.7,3.9-29.5c1.3-7,3.9-13.5,7.4-19.7c3.9-6.8,8.8-13,14.1-18.7
	C1093.5,486,1094.1,485.7,1094.8,485.1z"/>
</svg>
