<?xml version="1.0" encoding="utf-8"?>
<!-- Generator: Adobe Illustrator 22.0.0, SVG Export Plug-In . SVG Version: 6.00 Build 0)  -->
<svg version="1.1" id="Layer_1" xmlns="http://www.w3.org/2000/svg" xmlns:xlink="http://www.w3.org/1999/xlink" x="0px" y="0px"
	 viewBox="0 0 2880 1800" enable-background="new 0 0 2880 1800" xml:space="preserve">
<path d="M1754.9,470.2c2.9-3.1,4.8-6.2,5.6-10.1c2-8.7,4.1-17.4,6.3-26.1c0.7-2.9,1.7-5.8,2.5-8.7c0.6-2.1,1.8-3.7,3.6-5
	c2.8-1.9,5.7-3.5,8.7-5c4.2,5.2,6.6,10.7,6,17.3c-0.4,5.1,0.4,10.2,1.9,15.1c3.1,10,9.7,16.3,19.7,19.2c2.6,0.7,5.3,1.2,7.9,2
	c8.3,2.5,16.6,4.9,24.7,7.8c4.6,1.6,9.2,3.8,13.5,6.2c8,4.5,14.2,11,17.9,19.4c2.1,4.8,5.7,8,10.1,10.4c6.5,3.6,13.6,5.6,20.9,6.8
	c8.8,1.5,17.7,2.7,26.6,4c6.5,1,13,1.8,19.4,2.9c2.5,0.4,5,1.3,7.2,2.4c3.6,1.8,5.5,4.8,5.2,8.9c-0.2,2.4-0.6,4.8-1.3,7
	c-4.2,12.6-9.5,24.8-15.6,36.6c-1.7,3.3-4.1,6.1-7,8.4c-1.8,1.4-3.6,2.6-5.6,3.7c-6,3.1-8.8,6.5-3.1,14.2c0.6,0.8,1.1,1.6,1.6,2.4
	c0.6,1.1,1.2,2.3,1.7,3.5c2,5.3,1,10.3-3.3,14c-2.1,1.9-4.7,3.4-7.2,4.7c-6.6,3.4-13.7,5.4-21,6.6c-5.5,0.9-11.1,1.3-16.7,1.8
	c-5.3,0.4-10.4,1.6-15.5,3c-7.7,2-12.6,6.7-14.4,14.5c-1.4,5.7-2.7,11.5-3.9,17.3c-6.5,31.1-13.7,62.1-23,92.6
	c-4.5,14.7-9.8,29.1-14.8,43.6c-4.5,13-8.7,26.1-11.6,39.6c-1.1,5.3-2,10.7-2.9,16.1c-2.8,17-8.4,33.1-15.5,48.8
	c-5.3,11.7-11.2,23-17.3,34.2c-5.7,10.6-11.4,21.1-17.1,31.6c-1.7,3.1-3.3,6.2-4.9,9.3c-8.8,16.5-14.7,33.9-17.7,52.5
	c-2.7,17.4-6.2,34.6-9.2,52c-2.5,14.3-4.8,28.7-7.1,43.1c-1.5,9.5-3.1,18.9-4.3,28.5c-1.1,8.6-1.9,17.2-2.5,25.8
	c-1.3,20.8-1,41.6-0.3,62.4c0.4,13.6,0.6,27.2,0.9,40.8c0,1.9,0.1,3.8,0.3,5.7c0.6,4.9,3.1,8.6,7.5,11.1c2.7,1.5,5.6,2.4,8.6,2.9
	c3.1,0.6,6.3,1.2,9.4,1.8c3.3,0.6,5.8,2.4,7.7,5.2c2.9,4.1,5.7,8.1,7.8,12.7c1.3,2.9,2.3,6,2.3,9.2c-0.1,5.4-2.9,8.7-8.2,9.5
	c-4.3,0.7-8.6,0.3-12.9-0.3c-7.5-1.1-15-1-22.4,1c-3.9,1-7.8,1.5-11.9,1.3c-5.8-0.3-10.4-2.8-13.8-7.5c-2.2-3-3.7-6.4-4.7-9.9
	c-2.6-9.2-5.2-18.5-7.6-27.7c-2-7.6-3.9-15.2-5.8-22.8c-1.3-5-3.2-9.7-5.7-14.2c-2.1-3.8-4.1-7.5-6.3-11.5c-1.4,0.3-2.5,0.6-3.8,0.9
	c-1.2,3.8-1.6,7.6-1.4,11.5c0.4,6.5,0.8,13.1,1.2,19.6c0.5,7.3,1,14.7,1.7,22c0.3,3.3,0.5,6.7,1.2,10c1.9,9.4,7.2,16.6,15.4,21.7
	c2.2,1.3,4.4,2.6,6.5,4c7.2,4.9,12.1,11.4,13.7,20c0.6,2.9,0.7,6.1,0.5,9.1c-0.3,5.3-3.3,8.6-8.5,9.5c-2,0.4-4.2,0.5-6.2,0.3
	c-4.3-0.5-8.6-0.4-12.9,0.2c-6.2,0.8-12.4,1.4-18.6,2.1c-3.9,0.4-7.6-0.3-11.1-2.2c-4.5-2.5-8.8-5.3-12.4-9
	c-5.2-5.3-8.5-11.6-9.2-19.1c-0.8-8.6-1.2-17.2-1.8-25.8c-0.5-7.2-1.2-14.3-2.8-21.4c-1.1-5-3.2-9.2-6.9-12.9
	c-6.1-5.9-9.1-13.4-9.6-21.9c-0.2-2.9-0.2-5.8-0.1-8.6c1.1-26.7,1.1-53.4,0-80.1c-0.6-14.2-1.5-28.4-2.4-42.6
	c-0.7-10.4-1.4-20.7-2.3-31.1c-1-12.3-2.3-24.5-3.3-36.8c-0.5-6.1-0.9-12.1-1.3-18.2c-0.3-4.6-0.6-9.3-1.1-13.9
	c-0.7-7.1-4.2-12.4-10.6-15.5c-2.9-1.4-5.9-2.5-9-3.2c-32.1-8.1-64.2-16.1-96.3-24.1c-15.2-3.8-30.6-6.7-46.1-9.1
	c-23.1-3.6-46-7.9-68.7-13.7c-10.1-2.6-20.3-4.3-30.7-4.9c-5.8-0.4-11.5,0.1-17.2,0.7c-1.9,0.2-3.8,0.8-5.5,1.5
	c-2.7,1.1-4,3.3-3.6,6.1c0.2,2,0.9,4,1.4,6.1c0.6,2.5,1.3,5,1.7,7.5c0.2,1.2,0.2,2.6,0,3.8c-0.6,4.2-2.8,6.7-7,7.4
	c-2.5,0.4-5.1,0.4-7.6,0.4c-3.4-0.1-6.7-0.3-10,0.3c-6.6,1.2-11.9,4.5-15.9,9.8c-2.9,3.8-5,8.2-6.8,12.7c-3.4,8.6-7.5,17-12.2,25
	c-13.9,23.7-32.4,43.1-54.7,59c-6,4.3-12.2,8.2-18.5,12.1c-6.2,3.9-12.3,8-17.9,12.9c-11.9,10.5-19.6,23.4-22.8,39
	c-1,5-2.5,9.9-4.2,14.7c-6.5,18.8-11.6,37.9-14.5,57.6c-1.2,8.4-2,16.8-2.5,25.3c-0.4,7.4,1.8,13.9,5.9,19.8
	c1.6,2.4,3.6,4.5,5.2,6.9c2.1,3.2,4.4,6.3,6.1,9.8c2.9,5.7,3.8,11.8,2.4,18.2c-0.2,0.9-0.4,1.9-0.8,2.8c-2.8,8.1-9.6,11.6-17.9,9.4
	c-0.6-0.2-1.2-0.4-1.8-0.6c-5.9-2-11.8-4-17.7-6.1c-2.5-0.9-5-2.1-7.4-3.5c-6.8-4-10.4-10.2-11.2-18c-0.3-2.9-0.2-5.8-0.1-8.6
	c0.8-13.3,0.3-26.5-0.6-39.8c-1-16-2.1-31.9-1.3-47.9c0.4-7.3,1-14.7,1.5-22c0.5-8.1,1.1-16.3,1.5-24.4c0.3-5.1,0.9-10.2,2.8-15
	c1.7-4.4,4.3-8.2,7.2-11.9c11.2-14.4,22.3-28.9,33.5-43.3c2.6-3.3,4.3-7.1,6.1-10.9c0.2-0.4,0.3-0.9,0.4-1.4
	c0.2-1.1-1.2-2.2-2.2-1.7c-3,1.6-5.8,3.4-7.9,6.1c-2,2.7-4.1,5.3-6.1,8.1c-5.1,7.2-10.6,14-16.4,20.7
	c-19.5,22.7-38.9,45.5-59.3,67.4c-4.1,4.5-7.8,9.3-11,14.5c-6.8,11-10.4,23-9.7,36c0.9,15.8,0.6,31.7,0.4,47.5
	c-0.1,5.3,0.1,10.6,0.3,15.8c0.3,8.7,2,17.1,3.8,25.6c2,9.2,4,18.4,5.7,27.7c0.6,3.3,0.8,6.7,0.6,10c-0.4,8.1-6.4,12.8-14.4,11.4
	c-1.1-0.2-2.2-0.4-3.2-0.8c-8.1-3.2-16.5-5.1-24.8-7.4c-1.9-0.5-3.6-1.3-5-2.7c-5.1-5.1-9.7-10.6-13.3-16.9c-5.5-9.7-7.2-20-4.7-31
	c3-13.5,4.7-27.1,5.1-40.9c0.3-9.9,0.5-19.8,0.8-29.7c0.3-10.7,0.4-21.4,1.1-32.1c0.5-8,1.5-15.9,2.7-23.8
	c1.5-10.2,6.4-18.6,14.7-25c1.6-1.2,3.1-2.6,5.1-4.3c-1-0.4-1.6-0.7-2.1-0.7c-3.5-0.1-7-0.1-10.6-0.3c-6.2-0.3-12.5-0.6-18.7-1.1
	c-3.5-0.2-7-1.1-10.1-2.7c-3.6-1.9-4.8-4-4-7.8c1.3-6,3.7-11.3,8.3-15.9c14-13.9,27.6-28.1,39.7-43.7c9.7-12.5,16.9-26.3,22.5-41.1
	c8.9-23.7,15.5-48.1,19.7-73c4-23.9,5.9-47.9,6.6-72.1c0.9-29.6,8.1-57.5,23.1-83.2c5.2-8.9,11.1-17.2,17.9-24.9
	c26.4-29.7,57.8-52.3,95.2-66c16.1-5.9,32.7-9.9,49.7-12.2c10.2-1.4,20.4-2,30.6-2.4c14.1-0.6,28.1-0.9,42.2-1.1
	c31-0.5,62.1-0.7,93.1-1.3c24.6-0.4,49.3-1,73.9-1.9c15.2-0.5,30.4-1.5,45.5-2.8c27.5-2.4,54.5-7.2,80.7-16.2
	c11.4-3.9,22.4-8.6,32.9-14.4c11.4-6.4,21.8-14.1,30.7-23.5c14.8-15.6,23.8-34.3,28.5-55.1c1.3-5.6,2.2-11.3,3.4-16.9
	c2.5-10.8,6.4-21.1,10.5-31.4c3.9-9.8,7.8-19.6,11.7-29.4c1.9-4.9,3.3-10,3.5-15.4c0.1-3.7-0.1-7.4-1.3-10.9c-3-8.7-3-17.6-2.3-26.6
	c1-11.4,3.8-22.4,6.6-33.4c2.2-8.7,4.2-17.4,6.3-26.1c0-0.2,0-0.3,0.1-0.5c1-6,6.2-6.7,10.1-3.8c4.1,3.1,7.4,7.1,10,11.6
	c2.4,4.1,4.7,8.4,7,12.6c4.8,8.7,9.7,17.3,14.3,26.1C1747.1,465.4,1750.2,468.3,1754.9,470.2z"/>
</svg>
