<?xml version="1.0" encoding="utf-8"?>
<!-- Generator: Adobe Illustrator 22.0.0, SVG Export Plug-In . SVG Version: 6.00 Build 0)  -->
<svg version="1.1" id="Layer_1" xmlns="http://www.w3.org/2000/svg" xmlns:xlink="http://www.w3.org/1999/xlink" x="0px" y="0px"
	 viewBox="0 0 2880 1800" enable-background="new 0 0 2880 1800" xml:space="preserve">
<path d="M1899.3,904.9c0.7,1.6,1.3,3.2,2.1,4.8c3.6,7,7.2,13.9,10.8,20.9c0.9,1.7,1.6,3.5,2.4,5.1c-0.6,1.1-1.5,1-2.1,0.5
	c-1.1-0.9-2.2-1.9-3.1-2.9c-6.4-6.8-12.7-13.5-19.1-20.3c-1.1-1.1-2-2.5-3.8-3.3c0,0.9-0.1,1.5,0,2c1.8,5.8,3.7,11.6,5.5,17.4
	c0.3,1,0.5,2.1,0.9,3.8c-2.7-1.6-3.8-3.8-5.2-5.6c-1.6-2-3.1-4.1-4.7-6c-1.5-1.8-2.7-3.9-4.5-5.5c-1.2,0.7-0.6,1.5-0.4,2.1
	c2.8,12.1,5.6,24.3,8.5,36.4c0.2,0.9,0.3,1.8,0.6,3.4c-1.1-0.7-1.9-0.9-2.2-1.4c-3.1-4-6.2-8.1-9.3-12.2c-0.6-0.8-1.5-1.6-2.8-3
	c1.4,7.4,3.9,13.6,5.1,20c-0.9,0.8-1.4,0.4-1.9-0.1c-3.6-3.7-7.1-7.4-10.6-11.1c-0.7-0.8-1.6-1.4-2.5-2.2c-0.8,1.5,0.1,2.4,0.5,3.3
	c3.4,8.6,6.9,17.2,10.4,25.8c0.4,1,1.2,2,0.2,3.4c-5.3-3-9-8-14.7-11.4c0.1,1.4,0,2.3,0.3,3c1.9,5.4,3.9,10.8,5.8,16.3
	c0.5,1.3,1.1,2.6,0.9,4.5c-2.4-1.2-3.5-3.3-4.9-4.9c-1.6-1.8-3.1-3.6-4.7-5.5c-1.4-1.7-2.8-3.5-4.4-5.1c-1.5-1.6-2.6-3.5-5.3-5.4
	c2.1,5.5,4.7,9.7,6.8,14.1c2.3,4.6,4.7,9.1,7,13.7c2.2,4.4,4.5,8.8,6.7,13.1c-0.9,0.9-1.7,0.7-2.4,0.2c-3.7-2.3-7.3-4.6-11-6.8
	c-1-0.6-2.2-1.2-3.7-2c0.1,3.7,1.4,6.6,2,9.7c0.6,3,2.1,5.9,1.8,9.5c-2.7-1-4.2-3-6-4.5c-1.9-1.5-3.6-3.1-5.4-4.7
	c-1.7-1.5-3.4-3-5.1-4.4c-1.8-1.5-3.5-3.2-5.9-5c-0.1,1.2-0.2,1.7-0.1,2.2c0.6,2.8,1.2,5.6,1.9,8.4c4.7,17.6,9.4,35.2,14.2,52.8
	c0.3,1.2,0.5,2.4,0.8,4.3c-4-2.6-6.1-6-8.9-8.7c-2.7-2.7-5-5.8-8.5-8.7c0.2,1.5,0.2,2.3,0.4,3c2.4,9.3,4.8,18.6,7.2,27.8
	c1.6,5.9,3.7,11.6,6.3,17.1c3.2,6.7,5.4,13.7,7.7,20.6c0.3,1.1,0.6,2.2,0.8,3.3c0.3,2.5-1.5,4.1-3.8,3.3c-1.6-0.5-3.2-1.4-4.7-2.3
	c-5.2-3.3-9.4-7.7-12.9-12.8c-3-4.4-5.3-9.1-7.4-14c-0.5-1.1-1.1-2.2-1.6-3.3c-1.4,0.3-1.1,1.2-1.1,1.9c0.4,4.5,0.9,8.9,1.4,13.4
	c0.5,4.1,1.1,8.3,1.4,12.4c0.6,6.5,0.8,13.1-0.6,19.6c-0.3,1.2-0.6,2.5-1,3.7c-2.2,5.7-6.1,8.3-12.1,8.4c-1.1,0-2.2,0-3.5,0
	c-2.3,4.2-2.6,8.6-1.6,13c1.2,5.1,2.6,10.2,4,15.3c0.8,2.8,2.5,5.1,4.5,7.3c1.9,2.1,3.7,4.4,5.3,6.8c1.2,1.8-0.2,3.9-2.4,4.1
	c-0.6,0-1.3,0-1.9-0.1c-1.4-0.2-2.8-0.5-4.2-0.8c-0.9-0.2-1.8-0.2-3.2-0.4c0.4,1.3,0.6,2.1,0.9,3c2.3,6.2,4.5,12.3,6.8,18.5
	c1.1,2.9,1.8,5.8,1.8,8.9c0,3-0.8,4-3.8,4.6c-1.6,0.3-3.2,0.3-4.8,0.4c-1.6,0.1-3.1,0.1-4.6,0.2c-0.8,1.8,0,3.1,0.4,4.4
	c1.5,5.1,2.8,10.2,3.5,15.4c0.6,5,0.8,9.9,0.1,14.8c-0.9,6.9,0.2,13.4,3.1,19.6c2.8,6,4.8,12.2,6.7,18.5c1,3.2,1.4,6.6,1.2,10
	c-0.3,4.9-2.3,6.9-7.1,7.4c-1.1,0.1-2.2,0.1-3.3,0.2c-0.1,0-0.3,0.2-0.6,0.4c0.3,1.1,0.7,2.3,1.1,3.5c2.3,6.5,5.1,12.8,6.3,19.6
	c0.4,2.2,1.8,3.7,3.6,4.9c1.9,1.2,3.8,2.4,5.6,3.7c3.3,2.3,6.5,4.6,9.7,7.1c3.4,2.7,5.7,6.1,5.3,10.7c-0.2,2.3,1.1,3.9,2.4,5.6
	c4.6,5.8,8.2,12.2,11.2,19c0.7,1.6,1.3,3.3,1.8,4.9c1.7,6.2,0.1,11.4-4.9,15.4c-3.6,2.8-7.4,4.9-12.1,5.2c-3.7,0.2-7.3,0.9-11,1.3
	c-2.5,0.2-5.1,0.4-7.7,0.3c-4.7-0.3-9.3,0.1-13.9,0.8c-1.9,0.3-3.8,0.4-5.7,0.3c-10.2-0.3-20.5-0.6-30.7-1c-1.6-0.1-3.2-0.3-4.8-0.5
	c-3.8-0.4-7.6-0.5-11.5,0.2c-2,0.4-4.2,0.4-6.2,0c-4.3-0.9-8.6-0.9-12.9-0.7c-5.9,0.2-11.8,0.4-17.7,0.1c-3.6-0.2-7.3-1-10.9-1.8
	c-4.1-0.9-7.3-3.1-9-7.1c-1.5-3.6-4.2-5.5-8.1-5.7c-3.4-0.2-6.1-1.7-8.1-4.6c-1.1-1.7-2.7-2.7-4.5-3.4c-4-1.7-6.2-4.9-7.2-9
	c-0.8-3.1-1-6.3-0.8-9.5c0.3-4.5-0.1-8.9-1.5-13.3c-0.5-1.7-0.7-3.4-1-5.2c-0.5-3.4-1.7-6.5-3.6-9.3c-2.6-3.9-3.8-8.1-3.6-12.7
	c0.1-4.3,0.4-8.6,0.6-12.9c0.1-1.2,0-2.5,0-3.9c-5.3,0.3-8.8,3.7-12.9,6.8c-0.2-1.3-0.4-2-0.4-2.7c0.2-7.4,0.5-14.7,0.8-22.1
	c0-0.8,0.2-1.6,0.1-2.4c-0.2-3-1.5-5.2-4.4-6.2c-1.2-0.4-2.4-0.7-3.8-1.1c-0.3,4.4,0.1,8.3,0.3,12.3c0.2,6.7,0.6,13.4,0.6,20.1
	c0,8.2-1,16.3-2.5,24.3c-0.1,0.6-0.2,1.3-0.3,1.9c-0.9,4.9,0,9.5,2.6,13.8c2.9,4.8,5.5,9.7,8.2,14.6c1.5,2.8,2.4,5.9,2.6,9.2
	c0.4,5.2-1.2,7.4-6.2,8.6c-1.4,0.4-2.8,0.6-4.1,1.2c-3.7,1.7-7.6,2.4-11.6,2.5c-2.6,0.1-5.1,0.5-7.4,1.7c-4.3,2.4-9.1,3-13.9,3.1
	c-3.8,0-7.7-0.1-11.5-0.2c-4.8-0.1-9.6,0.3-14.2,1.7c-5.6,1.8-11.3,2-17,0.1c-2.1-0.7-4.4-0.6-6.6-0.6c-5.3,0-10.6,0.4-15.8,0.1
	c-3.6-0.2-7.3-1-10.8-1.8c-3.7-0.8-6.9-2.7-9.1-5.8c-1.7-2.4-3.9-3-6.7-2.7c-4.5,0.4-8.9,0.7-13.4,0.8c-2.4,0-4.8-0.3-7.1-0.8
	c-9.2-2.2-14.5-8.5-15.2-18c-0.2-2.2,0-4.5,0.1-6.7c0-3.8,0.1-7.7,0.1-11.5c0-2.1-0.5-4.1-1.9-5.8c-3.5-4.5-3.6-9.4-1.5-14.5
	c0.6-1.3,1.2-2.6,1.9-3.9c1-1.7,0.8-3.4-0.3-5c-0.6-0.9-1.3-1.8-1.9-2.8c-1.8-3-3.7-6-5.3-9.1c-2-3.9-3.3-8-2.7-12.5
	c0.2-1.7-0.1-3.2-1.3-4.4c-7.1-7.4-9-16.7-9.3-26.5c-0.3-10.2,1.4-20.1,4.3-29.8c2.1-6.9,4.5-13.7,7-20.4c1.7-4.7,3.1-9.3,3.4-14.4
	c0.6-12.1,1.5-24.3,2.3-36.4c0.1-0.9,0-1.9,0-2.7c-1.2-0.7-1.7-0.1-2.2,0.5c-2.4,3.6-4.8,7.2-7.2,10.8c-1.9,2.8-3.6,5.6-6.6,8.7
	c0.2-1.4,0.2-2.2,0.4-2.7c2.8-6.4,5.7-12.9,8.6-19.3c0.6-1.3,1.1-2.6,1.7-4c0.6-1.4,0.6-2.8-0.2-4.1c-0.3-0.5-0.7-1.1-1-1.7
	c-2.7-5.1-3.5-10.6-2.6-16.3c0.5-3,1.3-5.9,1.9-8.9c0.2-0.9,0.4-1.8,0.7-3c-1.8,0.5-2.2,1.7-2.8,2.7c-5.2,7.9-10.2,15.9-15.4,23.8
	c-0.7,1-1,2.4-2.8,2.7c-0.1-3.3,1.5-6.1,2.2-9.1c0.7-2.9,1.6-5.8,2.7-9.4c-1.3,0.7-2.1,0.8-2.5,1.3c-1.7,1.6-3.4,3.3-5.1,5.1
	c-2.6,2.8-5.1,5.7-7.8,8.5c-0.7,0.8-1.6,1.4-2.7,2.4c0-2,1.1-3,1.8-4.2c0.6-1.1,1.4-2.1,2.2-3.2c0.8-1.2,1.7-2.3,2.5-3.5
	c0.8-1,1.5-2,2.3-3.1c0.9-1.2,1.7-2.3,2.6-3.5c0.7-1,1.4-2.1,2.1-3.1c-1-1-1.6-0.2-2.1,0.3c-5.6,4.8-11.1,9.6-16.7,14.4
	c-0.8,0.7-1.7,1.4-2.8,2.2c-0.5-2.2,0.6-3.4,1.4-4.6c2.1-3.2,4.3-6.3,6.5-9.5c3.1-4.5,6.1-9,9.1-13.5c1-1.6,2.2-3.1,2.8-5.6
	c-0.9,0.5-1.5,0.7-1.9,1c-6,4.8-12,9.6-18,14.3c-0.8,0.6-1.8,1.1-2.6,1.7c-0.9-1.4,0.1-2,0.5-2.8c4.9-7.9,9.8-15.7,14.7-23.6
	c0.8-1.3,1.5-2.8,2.2-4c-0.7-0.9-1.3-0.6-1.8-0.2c-3.1,2.3-6.1,4.6-9.2,6.9c-1,0.7-2,1.4-3.6,2.4c0.2-1.2,0.2-1.8,0.5-2.3
	c0.8-1.4,1.7-2.7,2.6-4c6.8-9.1,13.6-18.2,20.3-27.3c1.5-2,2.8-4.2,4.6-6.8c-2.7,0.1-4.2,1.3-5.8,2.2c-1.7,0.9-3.3,1.9-5,2.9
	c-1.7,0.9-3.3,1.8-4.9,2.7c-1.2-0.9-0.7-1.6-0.3-2.3c1.9-3.2,3.8-6.3,5.7-9.4c3.4-5.4,6.8-10.8,10.2-16.2c0.9-1.5,1.7-3.1,2.5-4.6
	c-1-0.9-1.7-0.2-2.3,0.2c-3.8,2.3-7.7,4.6-11.5,6.9c-0.8,0.5-1.6,0.7-3.4,1.5c0.9-1.4,1.1-1.9,1.5-2.3c6.5-7.7,12.9-15.5,19.5-23.1
	c3.2-3.6,4.2-7.8,4-12.4c-3.5-2.5-7.6-2.5-11.7-3.8c-0.6,0.9-1.2,1.8-1.7,2.8c-1.6,2.9-3,6-4.9,8.8c-3.3,4.8-8,7.8-13.7,9
	c-1.7,0.4-3.5,0.5-5.2,0.4c-3.5-0.3-5.8-2.8-5.9-6.4c0-1.6,0.3-3.2,0.7-4.7c1.6-5.8,4.7-10.8,8.4-15.5c2.7-3.5,4.6-7.4,4.9-11.8
	c0.4-5.3,0.3-10.5,0.4-15.8c0-0.2-0.3-0.5-0.7-0.9c-1,1-2.1,1.8-3,2.8c-4,4.2-7.9,8.4-11.9,12.5c-2.3,2.5-5.1,4.4-8.1,6
	c-1.3,0.6-2.6,1.2-4,1.5c-3.7,1-6.6-0.2-8.7-3.4c-0.9-1.3-1.5-2.8-2-4.3c-0.7-2.4-1.2-5-1.9-7.4c-0.4-1.4-0.8-2.7-1.3-4.5
	c-1,0.8-1.8,1.3-2.3,2c-1,1.2-1.8,2.6-2.8,3.9c-0.7,0.9-1.7,1.5-2.9,0.8c-1.6-6-1.5-6.1-7.3-9.8c-4.5-2.9-4.7-7.2-2.3-10.7
	c1.4-2.1,3-4.2,4.9-5.9c3-2.7,4.7-6,5.2-10c0.3-2.3,0.8-4.7,1.3-7.5c-1.2,0.5-1.9,0.7-2.6,1c-1.4,0.8-2.8,1.5-4.1,2.4
	c-3.6,2.4-7.4,3-11.4,1.2c-0.4-0.2-0.9-0.2-1.7-0.3c-0.8,1.4-1.7,2.9-2.5,4.4c-1.6,2.8-3,5.7-4.9,8.3c-1.9,2.6-4.1,4.9-6.4,7.1
	c-1.2,1.1-3,1.8-4.6,2.4c-0.7,0.3-1.9,0-2.6-0.5c-1-0.7-0.8-2-0.5-3.1c0.3-0.7,0.7-1.4,1.2-2.1c3.5-5,7-10,10.4-14.9
	c0.6-0.9,1.4-1.8,2-2.7c1.5-2.2,1.6-4.4,0.4-6.8c-1.6-2.9-3.2-5.9-4.9-9.2c-0.8,0.7-1.5,1.3-2,1.9c-1.6,2-3,4.2-4.7,6.1
	c-5,5.6-9.3,5.2-13.5-1.1c-2.4-3.6-4.1-7.6-5.3-11.8c-0.7-2.1-1.2-4.3-1.9-6.4c-0.7-2-1.7-3.8-4.3-4.4c-0.9,1.6-1,3.4-1.4,5
	c-1,4.2-1.9,8.4-3,12.6c-0.5,2-1.3,4-2.1,5.8c-1.5,3.3-3.7,5.9-6.9,7.8c-0.8,0.5-1.6,1-2.4,1.5c1.4,4.8,2.7,9.4,4,14
	c0.5,1.7,0.9,3.4,1.3,5.1c0.3,1.6,0.5,3.2,0.6,4.8c0.1,4.2-1.5,5.6-5.5,4.9c-1.1-0.2-2.2-0.4-3.5-0.6c-0.5,1.3-1,2.4-1.4,3.6
	c-0.4,1.2-0.8,2.4-1.2,3.7c-0.9,3.4-2.9,5.6-6.6,6.1c-0.5,0.1-0.9,0.3-1.6,0.6c0,2.7,0.4,5.3,0.8,8c1.2,8,1.6,15.9,0.1,23.9
	c-0.2,1.2-0.3,2.6-0.1,3.8c0.9,4.7,1.7,9.4,2.8,14.1c1,4.2,2.6,8.2,4.8,12c0.5,0.8,0.9,1.7,1.5,2.9c-1.1,0-1.9,0.2-2.5,0
	c-1.8-0.7-3.5-1.6-5.3-2.3c-1.9-0.8-3.7-0.7-5.4,0.8c-0.7,0.6-1.5,1.2-2.3,1.7c-4.5,2.9-9.2,3.3-14.2,1.5c-1.5-0.5-2.9-1.1-4.5-1.8
	c0,1.8-0.1,3.2,0,4.6c0.2,3.7,0.6,7.3,0.6,11c0.1,13.6,0.1,27.2,0,40.8c0,5-0.4,9.9-0.8,14.8c-0.2,1.8-0.9,3.7-1.7,5.4
	c-1,2.1-2.9,2.9-5.2,2.6c-2.2-0.3-3.4-1.8-3.8-3.8c-0.3-1.7-0.5-3.5-0.3-5.2c0.6-4.8,0.5-9.6,0-14.4c-0.8-8.3-1.7-16.5-2.6-24.8
	c-0.3-3.3-0.7-6.7-1.1-10c-0.1-1.1-0.4-2.1-1.6-3.7c-0.2,2.1-0.3,3.4-0.4,4.7c-0.2,6.7-0.5,13.4-0.7,20.1c-0.2,6.6-1,13.1-2.4,19.5
	c-0.8,3.6-0.1,6.6,1.7,9.6c3.6,6.2,7.2,12.5,10.7,18.7c1,1.8,1.9,3.6,2.8,5.3c-1,1.2-1.7,0.4-2.3,0.1c-1.1-0.7-2.1-1.5-3-2.3
	c-8.5-7.8-13.6-17.4-14.5-28.9c-0.9-11.5-1.2-23-1.8-34.5c-0.1-1.9-0.2-3.8-0.5-5.7c-0.3-1.9-1.4-3.1-3.3-3.7
	c-1.7-0.5-3.4-1-5.3-0.6c-0.7,3.2-0.5,6.4,0,9.5c0.9,5.4,1.8,10.7,3.1,16c2.7,11.7,5.5,23.3,8.3,35c0.4,1.5,1,3,0.2,5
	c-0.6-0.8-1.2-1.3-1.6-1.9c-2-3.6-3.9-7.3-5.9-11c-4.7-8.9-9.5-17.8-14.2-26.7c-0.6-1.1-1.3-2.1-2.3-3.6c-0.9,2.8-1.7,5-2.3,7.3
	c-0.7,2.3-1.6,4.5-3.1,6.4c-2.1,2.6-3.1,5.6-2.8,8.9c0.3,3.3,0.8,6.7,1.3,10c1.3,7.9,2.8,15.7,4,23.6c0.6,3.9,0.9,7.9,1.2,11.9
	c0.7,8.8,1.3,17.5,1.9,26.3c0.6,9.9,0.9,19.9-0.3,29.7c-1.2,9.4,1.7,17.7,5.5,25.9c1.4,3.1,3.8,5.6,6.7,7.4c6,3.8,8.9,9.3,9.7,16.2
	c0.3,3,1.3,5.9,2.3,8.8c2.7,8,1.9,11-4.9,16.1c-6.5,5-13.9,8.1-22.1,8.3c-13,0.3-25.8,1.7-38.7,3.2c-7.5,0.9-15,0.8-22.5,0
	c-2.4-0.2-4.7-0.4-7.6-0.6c0.4,1.2,0.5,1.9,0.9,2.5c1.6,2.2,3.4,4.3,4.9,6.5c1.4,2,2.7,4,3.6,6.2c2,5,0.6,8.9-4.2,11.2
	c-6.7,3.1-13.5,5.9-21,6.5c-6.4,0.6-12.6,1.9-18.7,4c-5.9,2-11.9,2.4-18,1.4c-1.9-0.3-3.8-0.3-5.7-0.1c-7.6,0.6-15,0.2-22.4-1.4
	c-2.7-0.6-5.3-0.9-8.1-0.8c-1.9,0.1-3.8,0-5.8,0c-5.1-0.1-9.8-1.4-13.8-4.7c-3.4-2.8-7.4-3.6-11.7-3.2c-3.4,0.3-6.7,0.2-10-0.5
	c-3.2-0.7-5.4-2.4-7.1-5.2c-1.7-2.9-3.6-5.6-5.5-8.4c-2.7-3.9-4.5-8.1-4.4-12.9c0.1-2.8,0.7-5.4,1.9-7.9c0.7-1.6,1.4-3.2,2-4.8
	c-0.9-1-1.6-0.5-2.3-0.1c-2.1,1.1-4.2,2.3-6.4,3.3c-0.6,0.3-1.3,1-2.4,0.3c0.7-2.1,2.5-3.5,3.7-5.2c1.3-1.8,2.7-3.5,4-5.2
	c-0.6-1.1-1.2-0.6-1.6-0.3c-1.5,1-2.9,2-4.3,3c-0.6,0.4-1.3,0.6-2.7,1.1c1.8-5,4.4-8.8,6-13c-0.9-0.9-1.6-0.5-2.3,0
	c-1.7,1.1-3.4,2.3-5.2,3.5c-1.4,0.9-2.7,2.1-5.1,2.3c3-5.5,7.3-9.6,10.2-14.9c-2.4-0.6-3.9,0.8-5.6,1.5c-1.6,0.6-3.1,1.4-4.9,2.2
	c0.6-3,0.6-3,2.9-6.1c1.4-1.7,3-3.3,4-5.7c-1.9-0.7-3.4,0.8-5,0.7c-0.7-0.9,0-1.5,0.5-2.1c2.6-3.1,5.2-6,7.8-9.1
	c1.1-1.3,2.5-2.4,3.1-4.6c-1.8,0.2-2.9,1.2-4,1.9c-1.4,0.8-2.7,1.8-4,2.6c-1.2,0.7-2.4,1.5-3.5,2.1c-0.3-0.3-0.5-0.4-0.5-0.5
	c0-0.1,0-0.3,0.1-0.5c1.2-1.7,2.5-3.3,3.7-5c-0.8-1.1-1.5-0.3-2,0.1c-1.6,1-3.2,2.1-4.8,3.2c-0.6,0.4-1.3,0.7-1.9,1.1
	c-0.9-1.1-0.2-1.7,0.3-2.3c3.1-4.3,6.3-8.5,9.4-12.7c0.8-1.1,1.6-2.3,2.8-4.1c-1.2,0.2-1.8,0.1-2.3,0.3c-2.3,1-4.6,2.2-7,3.2
	c-0.7,0.3-1.4,0.5-2.6,0.9c0.7-2.8,2.4-4.3,3.7-5.9c1.4-1.7,3.2-3.1,4.1-5.5c-3.2-0.3-5.7,2.2-8.9,1.8c0.4-1.7,1.6-2.3,2.5-3.2
	c2.5-2.5,5.1-4.9,7.5-7.4c3.7-3.8,5.3-8.6,6.4-13.7c-1.8-0.8-3.1,1-4.9,0.3c-0.2-2.1,1.4-3.3,2.4-4.8c1-1.4,2.1-2.8,3-4.3
	c1-1.6,2-3.2,3.1-5.2c-1.5-0.1-2.5-0.2-4.1-0.4c3.7-5.7,7.7-10.6,11.3-15.7c-0.7-1.2-1.5-0.6-2.2-0.5c-0.8,0.1-1.5,0.2-2.7,0.3
	c0.9-6.7,5.4-11.8,6.4-18.2c-2-0.6-3.7-1.1-5.6-1.6c0.4-2.4,2-3.8,3.3-5.4c12.6-15.5,25.2-31.1,37.8-46.6c1.3-1.6,2.6-3.1,2.8-5.4
	c0.1-2,1.7-3.4,2.9-4.9c2.2-2.7,4.4-5.5,6.6-8.2c0.6-0.8,1.1-1.6,1.6-2.4c1.4-2.2,1.2-4.2-0.5-6.1c-0.7-0.8-1.5-1.5-2.6-2.5
	c-2.5,3.7-4.8,7.1-7.1,10.5c-2.2,3.3-4.3,6.6-6.9,10.2c-1.9-3.7-1-7.1-1.8-10.3c-1.1-0.4-1.4,0.3-1.7,1.1
	c-2.2,5.6-4.4,11.3-6.7,16.9c-0.5,1.1-1.1,2.2-1.9,3.9c-1.6-3.2-0.1-6.2-1.2-8.8c-1.1-0.1-1.4,0.7-1.7,1.4c-0.7,1.8-1.4,3.5-2.1,5.4
	c-1.6,4.5-3.2,9-4.8,13.6c-0.3,0.9-0.8,1.7-1.4,3.2c-0.6-1.2-1.1-1.8-1.1-2.4c0-1.8,0.1-3.5,0.2-5.3c0.1-1.4,0.3-2.9-0.9-4.3
	c-1.6,1.4-1.8,3.3-2.4,5c-0.7,2.1-1.2,4.3-1.8,6.5c-0.4,1.4-0.9,2.7-2.2,3.9c-1.1-1.4-0.7-2.9-0.9-4.2c-0.2-1.4-0.3-2.8-0.4-4
	c-1.2-0.5-1.5,0.3-1.7,0.8c-1.2,3.3-2.4,6.6-3.5,9.9c-0.8,2.4-1.4,4.9-2.7,6.9c-1.1,0.1-1.3-0.5-1.2-1.2c0.1-3,0.3-6.1,0.4-9.1
	c0.1-2.1,0.2-2.1-0.7-4.5c-1.4,0.2-1.5,1.4-2,2.4c-3.1,6.5-6.2,13-9.4,19.4c-0.8,1.7-1.5,3.4-3.5,4.9c-0.8-5.6,0.9-10.5,0.7-15.5
	c-1.2-0.4-1.6,0.3-1.9,1c-2.6,5.5-5.1,11-7.7,16.5c-0.7,1.4-1.4,2.9-2.1,4.2c-1.4-0.3-1.5-1.4-1.3-2.3c0.3-2.1,0.8-4.1,1.1-6.1
	c0.2-1.4,0.4-2.8,0.6-5c-1.2,1-2.1,1.4-2.5,2.1c-2.9,4.2-5.6,8.5-8.5,12.8c-0.9,1.3-1.5,2.9-3.3,3.6c-0.5-4,2.6-6.9,2.6-10.9
	c-2,0.7-2.7,2.4-3.8,3.6c-1.3,1.4-2.4,3-3.6,4.5c-1.1,1.4-2.2,2.8-3.3,4.1c-1.1,1.3-2,2.8-3.8,4.1c-0.3-2.4,1-3.7,1.6-5.2
	c0.7-1.5,1.5-2.8,2.1-4.3c0.7-1.5,1.8-2.9,2-5.3c-2.8,1.4-4.2,3.6-6,5.3c-1.8,1.8-3.4,3.7-6.4,5.1c0.9-3.4,2.2-5.7,3.2-8.2
	c1.1-2.5,2.2-5,3.3-7.5c1-2.5,2.4-4.8,3.1-7.5c-1.4-0.6-1.9,0.5-2.5,1c-4.3,4.3-8.5,8.7-12.7,13.1c-0.8,0.8-1.8,1.6-3.2,2.9
	c0.4-3.1,1.8-4.9,2.7-6.9c0.9-1.9,1.8-3.7,2.8-5.6c1-2,2-4,3-6s2-4,3-6c0.9-1.9,1.9-3.7,2.8-5.6c0.9-2,2.2-3.8,2.7-5.9
	c-1.2-0.7-1.7,0.1-2.2,0.6c-3.9,3.3-7.7,6.8-11.6,10.1c-0.7,0.6-1.5,1-2.8,1.8c0.4-2.9,1.8-4.4,2.9-6.1c3.4-5.2,6.9-10.4,10.4-15.6
	c1.1-1.6,2-3.3,2.9-4.9c0.2-0.4,0.2-0.9,0.5-1.8c-1.6,0.7-2.8,1.3-4,1.9c-1-0.7-0.5-1.4-0.2-2.1c2.4-4.9,4.9-9.7,7.3-14.6
	c0.5-1,0.8-2,1.7-4c-3.8,2.9-5.4,6.2-8.8,8.9c0.5-5.1,3.9-8.2,5.4-13.1c-3.2,1.9-4.7,4.1-6.5,6c-1.7,1.8-3.3,3.8-5.6,5
	c-0.2-0.3-0.4-0.4-0.4-0.6c0-0.1,0-0.3,0.1-0.5c7.3-11,14.7-22.1,22.1-33.1c0.1-0.1,0.1-0.3,0.2-0.8c-0.8,0.1-1.5,0-2.1,0.3
	c-2.2,1-4.3,2.2-6.8,3.5c-0.1-1-0.4-1.8-0.1-2.4c0.7-1.8,1.6-3.5,2.5-5.2c1.9-3.9,3.9-7.7,5.8-11.6c0.3-0.5,0.2-1.1,0.4-2.1
	c-2.3,0.9-3.4,2.4-4.8,3.7c-1.3,1.2-2.4,2.8-4.8,3.7c0.8-3.3,2.5-5.5,3.8-7.8c1.3-2.2,2.7-4.3,4-6.5c1.4-2.3,2.8-4.6,4.2-7
	c1.2-2.2,2.8-4.2,4-7.2c-4.7,2-7,5.9-11.3,8c0.2-2.8,1.5-4.6,2.4-6.6c0.9-1.9,1.9-3.7,2.9-5.5c1.1-2,2.2-3.9,3.2-5.9
	c0.9-1.8,2.2-3.5,2.7-5.7c-1.3,0-1.7,0.9-2.3,1.5c-0.6,0.7-1.2,1.5-1.8,2.3c-0.6,0.8-1.2,1.5-1.8,2.2c-0.6,0.6-1.4,1.2-2.7,2.3
	c0.5-2.7,1.7-4.2,2.5-5.8c0.9-1.7,1.9-3.4,2.8-5c0.9-1.5,1.7-3.1,2.5-4.6c0.9-1.6,1.9-3.2,2.8-5.6c-3.8,1.5-5.2,5.1-8.7,6.5
	c0.2-2.5,1.5-4.2,2.2-6c0.8-1.9,1.8-3.8,2.6-5.7c0.9-1.9,1.8-3.8,2.7-5.6c0.9-1.9,1.8-3.8,2.7-5.6c0.9-1.9,1.8-3.8,2.6-5.7
	c0.8-1.8,1.9-3.6,2.5-6.5c-4,3.8-6.5,7.6-9.4,11.1c-2.9,3.3-5.2,7.1-8.8,10.3c-0.5-2.3,0.6-3.8,1.2-5.4c4.1-10.1,8.3-20.1,12.4-30.2
	c0.5-1.3,0.9-2.6,1.5-4.3c-2.6,0.5-4.2,2-5.5,3.4c-3.1,3.5-6,7-8.9,10.7c-1.7,2.1-3.1,4.5-4.7,6.7c-0.6,0.9-1.4,1.7-2.2,2.6
	c-1.1-1-0.4-1.9-0.2-2.6c4.6-15.3,12.4-28.7,24.2-39.7c3.1-2.9,5.6-6,7.5-9.8c3.7-7.1,8.5-13.6,14.3-19.2c0.6-0.6,1.1-1.3,1.9-2.2
	c-4,0.3-5.8,0.9-11.8,4.5c-3.5,2.1-7.1,4.4-10.2,7.1c-3.2,2.6-5.8,5.8-8.8,8.8c0.4-3.3,1.7-6.1,5.6-10.8c2.6-3.1,5.3-6,8.4-9.5
	c-1.3,0.3-2,0.3-2.5,0.5c-1.6,0.6-3.2,1.3-4.6,2c-0.9-0.8-0.4-1.4,0-1.8c0.8-1,1.6-2,2.6-2.8c5.6-5.4,9.8-11.8,13.6-18.5
	c0.6-1.1,1-2.3,1.4-3.4c-1.3-0.7-2,0.2-2.7,0.6c-1,0.5-1.9,1.2-2.8,1.8c-0.8,0.5-1.7,0.9-2.9,1.6c0.1-1.1-0.1-1.9,0.2-2.5
	c0.8-1.6,1.7-3,2.7-4.5c2-2.9,4-5.8,5.9-8.7c0.8-1.3,1.5-2.7,2.6-4.7c-2.7,0.6-4.4,1.9-6.2,2.7c-1.8,0.8-3.4,2.4-5.9,2.2
	c0-2.9,1.2-5.4,1.7-7.9c0.6-2.5,1.3-4.9,2-7.4c0.7-2.6,1.5-5.2,2.2-7.9c0.7-2.4,1.3-4.9,1.8-7.2c-0.9-1-1.7-0.4-2.4-0.2
	c-0.7,0.2-1.5,0.5-2.5,0.8c-0.1-2.3,1-3.9,1.9-5.6c2.9-5.7,5.9-11.3,8.8-17c1.1-2.1,2.1-4.3,3.1-6.5c0.3-0.6,0.2-1.4,0.4-2.7
	c-1.8,1.1-3.2,1.8-4.5,2.6c-1-1.5-0.1-2.6,0.4-3.7c3.7-9.4,7.5-18.7,11.3-28c1.6-3.9,3.1-7.7,4.6-11.6c0.3-0.7,0.4-1.5,0.7-2.5
	c-2.8-0.6-4.8,0.9-7,1.7c-2.1,0.8-4,2.1-6.6,2.1c-0.3-1.4,0.6-2.5,1.1-3.5c6.5-12.1,13.1-24.2,19.7-36.3c3-5.5,6-11,8.9-16.4
	c0.5-0.9,0.9-2,1.5-3.5c-3.2,0.6-6,1.1-9,1.6c0.5-2.6,2-4,3.4-5.4c3.4-3.6,6.8-7.2,10.2-10.8c0.5-0.6,1-1.2,1.8-2.2
	c-2.5-0.5-4.6-0.9-7.1-1.4c0.5-1,0.8-1.8,1.3-2.5c4.5-6.4,9.1-12.7,13.7-19.1c0.8-1.1,1.5-2.4,2.4-3.8c-2.4-0.5-4.3-0.9-6.5-1.3
	c0.7-2.5,2.1-4.2,3.5-5.9c6.7-8.6,14.6-16.1,23.3-22.8c18.7-14.2,39.5-24.1,62-30.7c12-3.5,24.2-6,36.6-7.7c1-0.1,2-0.6,3.5-1
	c-4.1-3.5-8.4-5.6-12.3-8.3c-3.9-2.7-8.2-4.8-11.7-7.8c0.2-1.2,0.9-1.2,1.5-1.1c3.8,0.3,7.6,0.7,11.5,1c8,0.7,15.9,1.6,23.9,2.2
	c15,1.3,30,1.9,45.1,0.5c0.5,0,0.9-0.2,1.3-0.3c0.4-0.9-0.2-1.2-0.8-1.4c-1-0.4-2-0.9-3-1.3c0.4-1.5,1.5-1.1,2.4-1.1
	c7.5,0,15,0,22.6,0c1.6,0,3.1-0.1,5.3-0.3c-0.7-1.1-1-1.8-1.5-2.2c-2.5-2-5.1-3.8-7.7-5.7c-1.4-1.1-1.4-1.1-2.7-3.5
	c4.3,0.3,8.1,1.9,12.1,2.8c4,1,8,2.2,12,3.2c4,1,7.9,2.4,12.4,3c-1.3-3.6-4.4-5.5-5.6-8.4c0.6-1.2,1.4-0.6,2.1-0.4
	c7.3,2.5,14.5,4.9,21.8,7.4c1.3,0.5,2.7,0.8,4,1.2c1.1-1.2,0.1-1.9-0.3-2.7c-1.1-1.9-2.9-3.4-3.7-6c1,0.1,1.8,0.1,2.4,0.3
	c7.8,2.5,15.5,5,23.3,7.4c4.3,1.3,8.6,2.6,12.9,3.9c0.9,0.3,1.8,0.4,3.5,0.7c-0.9-1.2-1.2-1.8-1.7-2.2c-2.6-2.3-5.3-4.6-8-6.9
	c-0.6-0.5-1.4-0.9-1-2.2c1.2,0.3,2.4,0.5,3.5,1c3.8,1.6,7.6,3.3,11.5,4.9c6.8,2.8,13.6,5.6,20.4,8.4c1.1,0.5,2.4,0.7,4.3,1.2
	c-2.2-4-5.4-6.2-7.6-10c1.3,0.3,2.2,0.3,2.9,0.7c8.9,4.4,17.8,8.8,26.6,13.2c1.4,0.7,2.9,1.2,4.5,2c1-3.4-0.1-6.7,0.8-9.8
	c2.1-0.8,3.8,0.3,5.5,1.1c5.7,2.8,11.4,5.7,17.2,8.6c1,0.5,2,0.8,2.9,1.2c1-0.9,0.6-1.6,0.3-2.4c-0.6-1.5-1.3-2.9-2.1-4.8
	c1.1,0.1,1.9,0,2.5,0.2c2.5,1,5,2.1,7.5,3.2c7,3.1,14,6.3,21,9.4c0.7,0.3,1.5,0.5,2.2,0.8c0.9-0.9,0.1-1.6-0.2-2.3
	c-0.8-1.7-2.2-3.1-2.3-5.4c2.1-0.1,3.9,0.5,5.7,1.2c10.1,3.5,20.3,6.8,30.4,10.4c4.3,1.5,8.7,2.1,13.2,1.5
	c6.2-0.9,12.3-1.8,18.5-2.6c2.8-0.3,4.7-1.7,6.1-4.1c0.5-0.8,1-1.7,1.5-2.5c5.6-9.5,11.2-19,16.9-28.5c4-6.7,7.2-13.9,10.4-21.1
	c2.5-5.6,4.9-11.1,7.6-16.5c4-8,9-15.5,15.1-22.1c5-5.5,9-11.6,11.8-18.5c3.6-8.6,9.1-15.8,16.9-21c2.7-1.9,4.6-4.3,6-7.3
	c1.7-3.6,3.3-7.3,5.3-10.7c4.2-7.3,9.9-13.3,17.1-17.8c3.6-2.3,7-5,10.4-7.8c3.7-3.1,7.2-6.4,10.7-9.6c0.7-0.6,1.2-1.4,1.7-2.1
	c-1.1-0.8-1.8-0.2-2.4,0.2c-2.7,1.4-5.3,2.9-8,4.3c-5.2,2.8-10.5,5.5-15.7,8.2c-0.8,0.4-1.6,1.2-2.8,0.4c0.9-0.7,1.7-1.4,2.6-2
	c8.7-5.7,17.4-11.4,26.1-17.1c3.4-2.2,6.9-4.1,10.7-5.4c4.4-1.6,8.4-3.9,12.3-6.4c0.5-0.3,1-0.8,1.4-1.1c-1.7-3.6-4.4-5.9-8.2-6.7
	c-2-0.4-4.1-0.6-6.2-0.3c-2.8,0.3-5.6,1.2-8.4,1.8c-2,0.4-3.9,1.4-6.3,1.4c0.2-0.6,0.2-1.1,0.5-1.4c6.9-5.8,15-8.2,23.7-6
	c8.1,2,16.2,3.6,24.4,5c4.4,0.8,8.8,1.8,13.1,2.7c1.4,0.3,2.8,0.5,4,0.8c1.1-0.8,0.8-1.7,0.4-2.3c-1.8-3-3.6-6-5.5-9
	c-1-1.6-2.5-2.9-3.3-4.8c1.5-0.9,3-0.6,4.3-0.4c3.3,0.7,6.6,1.4,9.8,2.3c6.3,1.9,12.2,4.7,17.9,8.1c1.4,0.8,2.7,1.6,4.1,2.5
	c5.7,3.6,11.5,3.3,17.4,0.7c1.7-0.8,3.4-1.8,5-2.8c6.2-3.7,12.8-6.5,20.1-7.6c4.6-0.7,9.2-0.8,13.8,0.2c5,1.2,9.2,3.7,12.6,7.4
	c0.7,0.7,1.3,1.4,1.9,2.2c2.2,2.9,5.1,4.1,8.7,4.3c6.8,0.3,13.4-0.5,19.4-4.1c0.2-0.2,0.6-0.1,1.2-0.2c0.1,1.9-0.8,3.4-1.6,4.8
	c-0.8,1.4-1.8,2.7-2.6,4c-0.9,1.4-2.5,2.4-2.9,4.6c9.9,1.2,19.7,1.2,29.7,2.4c-0.5,0.8-0.7,1.6-1.2,2c-1.2,0.8-2.5,1.3-3.8,2.1
	c-0.6,0.4-1.4,0.7-1.5,1.9c5.8,1.7,11.9,1.8,17.7,3.6c0,1.8-1.3,2.2-2.5,2.6c-1.6,0.6-3.5,0.6-4.6,2.3c0.2,1.3,1.3,1.2,2.1,1.6
	c2.8,1.1,5.8,1.9,8.5,3.2c7.3,3.4,13,8.6,17.3,15.3c-0.7,0.9-1.2,0.5-1.7,0.1c-2.3-1.7-4.5-3.6-7-5.1c-2.6-1.6-5.3-3-8-4.3
	c-1.1-0.5-2.4-1-3.8-0.1c0.9,2.3,2.8,3.8,4.5,5.4c6.7,6.4,13.5,12.7,20.2,19.1c1.5,1.4,3,2.8,4.5,4.3c0.4,0.4,0.8,0.9,1.3,1.5
	c-2.1-0.1-2.1-0.1-6.3-2.6c-1.9-1.2-3.8-2.3-5.7-3.5c-2-1.2-3.9-2.6-6.6-3.6c0.5,2.3,1.8,3.5,2.9,4.8c8.2,9.6,16.5,19.1,24.7,28.7
	c0.9,1.1,1.7,2.2,2.9,3.7c-2.2,0.1-3.1-1-4.3-1.7c-1.4-0.8-2.7-1.8-4-2.6c-1.2-0.7-2.2-1.8-4.1-1.8c0.8,2,2.1,3.3,3.1,4.8
	c1.1,1.6,2.2,3.1,3.4,4.7c1.2,1.7,2.5,3.4,3.7,5c1.1,1.6,2.3,3.1,3.4,4.7c1.1,1.6,2.3,3.1,3.4,4.7c1.1,1.5,2.5,2.9,3.1,5.1
	c-1.8,0.3-2.8-0.8-4-1.3c-1.2-0.6-2.2-1.2-3.4-1.8c-1.2-0.6-2.5-1.2-3.9-1.8c-0.5,2.2,0.6,3.7,1.3,5.2c3.1,6.1,6.2,12.3,9.2,18.4
	c0.5,1.1,1,2.3,1.5,3.6c-3.1,0.7-5.4-1.7-8.1-1.5c-1,0.8-0.4,1.8,0,2.5c2.5,5.2,5,10.3,7.6,15.5c2.4,4.7,4.8,9.4,7.2,14.1
	c0.5,1,0.8,2,1.2,2.9c-0.9,1.1-1.6,0.4-2.2,0.1c-2.4-1.3-4.5-2.9-7-3.9c-0.8,1.1-0.2,2,0.1,2.8c4.2,11.9,7.8,24,10.4,36.4
	c3.6,17.2,5.2,34.5,4.2,52c-0.5,9.3-1.7,18.5-3.9,27.4c-1.2,0.4-1.5-0.4-1.7-1.1c-0.7-2.1-1.3-4.3-1.8-6.5c-0.4-1.5-0.6-3.1-1.8-4.5
	c-1.5,0.8-1.6,2.1-1.9,3.2c-0.5,2.2-0.8,4.4-1.1,6.6c-0.3,1.6-0.8,3-2,4.3c-1.7-2.5-1.7-2.5-1.9-5.2c-0.1-1.9,0.2-3.8-0.9-6
	c-3.6,3.9-5,8.8-8.3,12.7c-2.2-3.2-2-6.9-3.7-9.9c-1.3-0.1-1.3,0.9-1.4,1.6c-0.3,2.7-0.6,5.4-0.9,8.1c-0.1,0.6-0.3,1.2-0.5,2.2
	c-0.7-0.6-1.3-0.8-1.5-1.3c-1-2-1.9-4-2.9-6.1c-0.4-0.8-0.9-1.6-1.7-2.9c-0.5,1-1,1.5-1,2c-0.2,2.4-0.3,4.8-0.5,7.2
	c-0.1,0.9-0.4,1.8-0.7,2.9c-2.4-1.2-4.5-2.2-7-3.5c-0.3,2.4,0.8,4.2,1.3,6.1c0.5,1.8,1.1,3.7,1.7,5.7c-2.3,1-4.4-0.5-6.9-0.1
	c0.8,3.7,3.6,6.4,4.7,10.1c-1.5,1.1-3.3,1.1-4.9,1.6c-1.7,0.5-3.4,0.8-5.3,1.3c2,4.7,5.6,8,7.7,12.1c-0.2,1.3-1.2,1.1-1.8,1.4
	c-0.7,0.3-1.4,0.7-2.2,1.1c3.8,6.8,8.5,12.7,12.2,19.3c-1.9,1.2-3.8,1.1-5.7,1.1c-1.8,0-3.8-0.6-5.9,0.4c3.8,5.2,8.2,9.6,12.3,14.2
	c4,4.5,8.4,8.8,12,13.6c-1,1.2-1.9,0.4-2.7,0.1c-10.9-4.3-21.7-8.6-32.6-12.8c-1.3-0.5-2.6-0.9-4-1.4c-0.6,1.7,0.6,2.3,1.2,3
	c10.5,13.1,21,26.2,31.6,39.3c2.1,2.6,4.2,5.2,6.3,7.9c0.6,0.7,1,1.5,1.5,2.2c-0.6,1-1.2,0.7-1.8,0.4c-4-2.4-8-4.7-12-7.1
	c-1.2-0.7-2.5-1.4-3.7-2c-1.3,1.1-0.3,1.9,0.1,2.7c4.9,9,9.8,18,14.7,27c0.6,1.1,1,2.2,1.5,3.2c-1,0.8-1.5,0.2-1.9-0.2
	c-2-2.1-3.9-4.2-5.9-6.3c-4.7-5-9.4-10-14.2-15c-0.4-0.5-1-0.8-1.5-1.2c-0.8,1.5,0.4,2.2,0.9,3.1c8.3,13.5,16.6,27,24.9,40.5
	c0.8,1.4,1.6,2.7,2.4,4c-0.8,1.2-1.5,0.5-2.1,0.1c-3.7-2.8-7.4-5.6-11.1-8.3c-1-0.8-2.1-1.4-3.6-2.5c0.1,1.2,0,2,0.3,2.6
	c3.1,7.7,6.3,15.4,9.4,23.1c0.4,1,0.6,2,1.1,3.9c-2.6-2-3.5-4.1-4.8-5.8c-1.4-1.8-2.6-3.6-3.9-5.5c-1.3-1.8-2.6-3.6-3.9-5.5
	c-1.3-1.8-2.6-3.7-3.9-5.5c-1.3-1.7-2.3-3.7-4.3-5.4c-0.2,2.3,0.8,3.8,1.4,5.3c5.2,13.6,10.5,27.1,15.7,40.7
	c0.5,1.4,1.5,2.8,1.1,4.8c-4.4-2.4-7.4-6.3-11.3-8.9c-1.1,0.6-0.5,1.4-0.3,2c3.9,9.6,7.8,19.3,11.6,28.9c0.4,1.1,1.5,2.2,0.5,3.8
	c-0.8-0.9-1.7-1.5-2.3-2.4c-3.1-4.3-6.1-8.6-9.1-13c-1-1.4-2-2.9-3.1-4.3c-0.2-0.3-0.8-0.3-1.2-0.4c0-0.4,0-0.7-0.1-1.1
	c-0.1,0-0.2,0.1-0.4,0.1C1898.9,904.3,1899.1,904.6,1899.3,904.9z"/>
</svg>
