<?xml version="1.0" encoding="utf-8"?>
<!-- Generator: Adobe Illustrator 22.0.0, SVG Export Plug-In . SVG Version: 6.00 Build 0)  -->
<svg version="1.1" id="Layer_1" xmlns="http://www.w3.org/2000/svg" xmlns:xlink="http://www.w3.org/1999/xlink" x="0px" y="0px"
	 viewBox="0 0 2880 1800" enable-background="new 0 0 2880 1800" xml:space="preserve">
<path d="M1597,1288c-2,0.3-3.7,0.5-5.2,0.8c-0.9-0.9-0.6-1.7-0.1-2.3c0.7-1,1.7-1.9,2.4-3c0.4-0.6,0.7-1.3,1.1-1.9
	c-1.7-1.4-3.2,0.8-4.8-0.3c1.4-3.2,4.4-5.3,6.1-8.9c-2.3,0.1-4,0.2-6.6,0.4c2.2-2.4,3.8-4.3,5.5-6.2c-1.8-1-3.3,1-5-0.3
	c1.3-2,2.7-4.1,4.1-6.2c-1.1-1.7-3.2-0.5-4.5-2c0.9-2.3,3.6-3.3,5.1-5.8c-1.9,0-3.4,0-5.5,0c1.1-1.5,1.8-2.5,2.5-3.5
	c0.6-0.9,1.3-1.7,2.2-3c-2.1-0.1-3.6-0.2-5.5-0.3c0.4-1,0.6-1.8,1-2.6c1.4-2.7,3-5.3,4.6-8.1c-1.2-0.8-2.2-1.5-3.4-2.4
	c1.6-3.5,4.4-6.3,6-9.5c-0.6-1-1.2-0.7-1.7-0.5c-1.6,0.7-3.2,1.4-4.9,2c-0.5,0.2-1.2,0.1-2.2,0.1c1.5-2.3,2.7-4.3,4.1-6.5
	c-2.8-0.3-4.8,1.8-7.4,1.4c0.3-2.1,2-3.1,2.9-4.5c0.9-1.3,2.3-2.1,2.7-4.3c-2.7,0.4-5.1,0.8-8.3,1.3c1.1-1.4,1.7-2.3,2.3-3.1
	c0.6-0.7,1.3-1.3,2.4-2.5c-2.4,0-4,0-5.8,0c0.8-3.2,4.2-3.6,5.6-6.2c-2.3-1.4-4.8,0.1-6.9-0.8c-0.6-0.9,0-1.5,0.6-2
	c1.2-1,2.5-1.9,4-3.1c-1.3-0.9-2.4-1.5-3.4-2.2c0-0.3-0.1-0.7,0-0.9c0.8-1,1.7-1.9,2.6-2.9c-2.3-1.8-5.5-1-7.5-2.8
	c0.5-2.2,3.1-1.9,3.7-3.9c-1.4-2-4.2-0.7-6-2.3c1.4-3.5,5.9-3,7.7-6.4c-3-0.8-5.7-1.5-8.9-2.3c1.5-1.5,2.6-2.7,4-4.1
	c-2.4-1.9-5.8-1.7-7.8-3.6c0-2.9,2.9-2.6,3.8-4.4c-0.9-2.8-4.8-1.7-6-4.5c1.7-1.2,3.5-2.4,5.5-3.9c-1.8-1-3.3-1.8-5.1-2.8
	c0.6-0.8,0.9-1.4,1.5-1.8c0.7-0.5,1.6-0.8,2.8-1.3c-1.5-1.6-2.8-3-4.2-4.6c2.1-1.1,3.9-2,5.7-2.8c0.2-1.6-0.8-2.1-1.8-2.6
	c-1.5-0.8-3.4-1.1-3.9-3.2c0.9-2.1,3.6-1,4.9-3c-2.1-2.2-4.2-4.4-6.7-7c1.9-0.8,3.4-1.5,5.6-2.5c-1.8-1.5-3.2-2.6-5-4.1
	c1-0.4,1.5-0.8,2-0.8c2.1-0.1,4.2,0,6.2-0.1c0.7,0,1.5-0.2,2.5-0.4c-0.6-1.7-1.9-2-2.8-2.8c-0.9-0.7-1.7-1.3-2.8-2.1
	c2.5-2.1,5.7-2,7.9-4.2c-3.5-3.1-7.5-5.5-11.3-8.8c2.7-0.9,4.7-1.7,6.9-2.4c0-2.3-2.8-3-2.9-5.4c1.8-0.8,3.7-1.6,6-2.5
	c-2.5-2.2-4.7-4.1-7.4-6.3c3.1-1.6,6.3-1.4,8.9-2.7c-1.1-3.6-1.2-3.6-6.1-5.8c-2.3,2-4.6,4-6.9,6c-1.1-0.3-1.1-0.9-1-1.6
	c0.2-1.7,0.5-3.4,0.7-5c-0.9-0.7-1.4-0.2-1.7,0.3c-0.9,1.3-1.8,2.6-2.7,3.9c-0.5,0.8-1.2,1.4-2.5,1.9c-0.1-2.3-0.2-4.3-0.3-6.4
	c-1.8,0.3-2.7,1.6-3.7,2.5c-1.1,0.9-2.1,1.8-3.5,3c-0.4-2.7-0.7-4.8-1.1-7.4c-1.7,1.5-2.9,2.7-4.5,4.1c-1-2.2-1.8-4.1-2.8-6.5
	c-2.4,2.1-4.5,4-6.9,6.1c-0.4-0.9-0.8-1.5-1.1-2.2c-0.4-1-0.6-2.1-1-3.4c-1.8,1-2.3,3-3.9,4.1c-0.9-0.9-1.7-1.7-2.6-2.6
	c-1.8,1.2-1.1,4.4-4.1,4.7c-1.1-2.1-2.3-4.2-3.7-6.7c-1.7,1.6-1.7,3.7-3,5.4c-2.2-1.6-2.3-4.6-4.3-6.5c-1.8,2.1-1.9,5.1-3.5,7
	c-1.3,0.1-1.4-0.7-1.7-1.4c-0.7-1.9-1-4-2.4-6.2c-1.5,2.2-2.7,3.9-4.1,5.8c-2.3-2.2-1.4-5.4-2.7-7.6c-1.2-0.4-1.5,0.5-1.9,1.1
	c-0.9,1.5-1.8,3-3,4.9c-0.6-0.9-1.1-1.4-1.3-2c-0.5-1.1-0.9-2.3-1.5-3.9c-1.5,1.8-2.8,3.3-4.1,4.9c-3-1.9-1-5.7-3.7-7.9
	c-1.2,1.4-2.2,2.7-3.6,4.3c-0.9-1.7-0.6-3.1-0.9-4.4c-0.2-1.2-0.4-2.5-0.7-4.2c-0.9,0.6-1.6,0.9-2.1,1.4c-0.9,1.1-1.5,2.4-2.4,3.6
	c-0.5,0.7-1.3,1.2-2.2,1.9c-1.6-1.8-1.1-4.2-2.7-5.9c-1.9,1.6-3.7,3.2-6,5.1c-0.4-2.6-0.8-4.7-1.2-7.3c-1.9,1.3-3.4,2.4-5.1,3.6
	c-1.8-1.5-0.8-3.7-1.8-5.5c-2.8,0.3-4.3,3.1-7.1,3.9c-1.9-1.4-2.1-4.1-4-6c-1.4,0.4-2.9,0.8-4.7,1.2c-0.6-1.5-1.3-3.1-2-4.9
	c-2.3,1.6-4.3,3-6.8,4.7c-0.1-2-0.3-3.4-0.4-5.2c-1.3,0.3-2.3,0.5-3.4,0.7c-1.1,0.2-2.1,0.5-3.4,0.8c-0.5-1.7-0.9-3.2-1.3-4.8
	c-2.5-0.1-3.5,2.4-5.9,2.7c-0.7-1-1.6-2.1-2.5-3.3c-1.7,0.7-3.4,1.4-5.4,2.2c-0.7-2.3-1.2-4.4-1.9-6.8c-1.5,0.5-2.8,1-4.2,1.6
	c-0.5-1.1-1-2.1-1.5-3.1c-1.4,0.7-2.6,1.3-4,2c-0.8-2.9-1.5-5.5-2.3-8.3c-2.9,0.7-4.7,3-7.3,3.9c-1.9-2.6-1.1-6-2.9-8.8
	c-2.2,1-4.5,2-7.1,3.2c-0.2-2.2-0.4-4-0.6-5.9c-2.4-1.3-4.8,0.8-7.3-0.1c-0.2-1-0.5-2-0.8-3.1c-0.2-1.1-0.4-2.1-0.7-3.3
	c-2.8-0.3-4.9,1.9-7.7,1.9c-0.2-1.7-0.4-3.4-0.7-5.2c-1.8,0.5-3.3,0.9-4.8,1.3c-1.5-1.4-0.1-3.1-1-4.8c-2.7-1-5.8,0-8.8-0.7
	c-0.6-2.5,1.7-4.4,1.2-7c-2.6,0.2-5.1,0.3-7.9,0.5c0.1-1.8,0.2-3.3,0.4-5.4c-2.2,1.2-3.9,2.1-5.9,3.2c-0.7-2.5,1.3-4.4,1.1-6.5
	c-1.1-0.8-1.8,0.1-2.6,0.5c-1,0.5-1.9,1.1-3,1.6c-0.8,0.4-1.7,0.6-3,1.1c0.4-2.3,0.7-4.1,1.1-6.4c-2.5,1.2-4.4,2.2-6.7,3.3
	c0-2.5,0-4.5,0-6.7c-4.2,0-7.2,3-11.4,3.3c-0.1-1.7-0.2-3.3-0.4-5.2c-2.8-0.1-4.3,2.8-7,2.8c-0.6-1.5-1.2-2.9-1.9-4.6
	c-2.1,0.9-4.1,1.8-6.3,2.8c-0.5-1.9-0.9-3.6-1.3-5.4c-2.7,1.3-3.7,4.2-6.3,5.7c-0.9-1.7-1.7-3.4-2.6-5.1c-3.3,0.2-6.1,1.9-9.5,2.5
	c-0.7-0.8-1.5-1.7-2.5-2.9c-1.4,1.2-2.7,2.2-4.3,3.5c-0.9-1.3-1.7-2.4-2.7-3.8c-1.6,2-3.1,3.9-4.7,5.9c-2.7-0.9-4.1-3.5-6.5-4.6
	c-3.2,2.6-4.6,4.9-4.8,8.4c-0.1,1.1,0,2.2,0,3.4c0.5,9.6-2.1,18.3-7.3,26.4c-1.3,2-2.7,4-4.2,5.8c-2.6,3.1-4.6,6.5-6.3,10.2
	c-10.8,23.7-24.5,45.6-39.9,66.6c-22,30.1-46.9,57.5-75.2,81.8c-6.8,5.8-13,12.3-18.6,19.3c-3.8,4.8-5.1,10-4.5,16.1
	c1.3,13.2,1.6,26.5,1.1,39.8c-0.7,17.9-2.9,35.7-5,53.5c-1.8,14.8-2.6,29.6-1.2,44.5c0.4,3.8,1.1,7.6,1.7,11.4
	c0.6,3.5,2.5,5.8,5.8,7c0.9,0.3,1.7,0.8,2.6,1.2c6.2,3.1,11.1,7.6,14.3,13.8c1.7,3.2,3.9,5.8,6.5,8.3c3.4,3.2,6.7,6.4,10,9.7
	c2.8,2.8,5.4,5.9,7.4,9.4c1,1.7,1.7,3.4,1.8,5.4c0.1,2.8-1,5-3.5,6.3c-1.4,0.7-3,1.1-4.5,1.4c-6.3,1.3-12.7,1.1-19.1,0.5
	c-17.2-1.7-34.4-2.9-51.7-2.7c-9.8,0.1-19.5-0.4-29.2-1.6c-7.8-1-15.4-2.9-22.8-5.6c-5-1.9-8.2-5.3-9.8-10.4
	c-1.5-4.8-2.4-9.6-2.6-14.6c-0.4-6.9,0-13.8,1.4-20.5c0.6-3,0.7-6.1,0.3-9.1c-2.3-15.8-2.2-31.6-1-47.4c0.5-6.4,1.3-12.7,1.8-19.1
	c0.2-3.2,0.3-6.4,0-9.6c-0.5-5.6-1.3-11.1-2-16.7c-0.5-4.2-2-8-4.3-11.6c-4.2-6.5-7.4-13.5-9.3-21c-1.7-6.7-2.6-13.5-1.8-20.4
	c1-9.2,4.5-17.3,10.4-24.3c2.5-3.1,5.4-5.9,8.4-8.6c14.3-13.3,28.6-26.5,43-39.7c2.5-2.3,3.7-5,3.9-8.4c0.6-13.4,1.2-26.9,1.9-40.3
	c0.7-12.5,1.6-24.9,2.4-37.4c0.6-8.9,1.2-17.9,1.8-26.8c0-0.6-0.2-1.2-0.3-1.8c-0.5,0.2-0.9,0.2-1,0.3c-0.4,0.9-0.8,1.8-1,2.7
	c-0.9,3.4-1.6,6.9-2.5,10.3c-7.8,29.4-21.1,56.2-38.2,81.2c-5.7,8.3-11.9,16.3-18.5,23.9c-5.1,6-10.6,11.5-16.7,16.5
	c-5.5,4.5-10.5,9.4-15,14.8c-4.6,5.5-8,11.6-10.2,18.3c-1.4,4.4-3.1,8.7-4.7,13.1c-0.4,1.2-1.1,2.2-1.6,3.2
	c-1.2,0.2-1.3-0.6-1.4-1.1c-0.6-3.5-1.2-6.9-1.7-10.4c-1.4-11.3-3.4-22.4-6.4-33.4c-2.4-8.8-3.9-17.8-3.9-27
	c-0.1-19.6,5.8-37.1,18.4-52.3c2.9-3.4,5.9-6.8,9.3-9.7c14.7-12.6,24-28.6,29.2-47c2.6-9.1,4.6-18.3,6.7-27.5
	c0.6-2.5,0.4-5.1,0.5-7.6c0.2-13.1,0.4-26.2,0.7-39.3c0.4-16.5,1.8-32.9,3.8-49.3c1.8-14.9,3.9-29.9,8-44.3
	c6.2-21.8,12.6-43.6,22.1-64.4c9.6-21.2,22.2-40.3,38.8-56.7c22-21.9,47.9-36.6,78.3-43.2c4.4-1,8.6-2.4,12.2-5.4
	c6.4-5.3,13.9-8.5,21.8-10.8c16.6-4.8,33.6-6.4,50.8-5.4c17.1,1,34.2,2.2,51.2,3.7c20.9,1.8,41.5,5.9,61.6,11.7
	c3.4,1,6.8,2,10.1,3.1c11.6,3.9,23.6,5.9,35.7,6.9c12.9,1.1,25.8,1.9,38.7,3.2c11.1,1.1,22.2,2.6,33.3,4.2
	c5.6,0.8,11.1,1.6,16.7,1.6c2.9,0,5.8,0,8.6,0.3c13,1.4,25.8-0.2,38.6-2.7c16.5-3.2,33-6.2,49.5-9.3c9.1-1.7,18.3-3.3,27.3-5.2
	c5-1,9.9-2.5,14.8-4.1c10.2-3.2,20.4-6.5,31-8.5c3-0.6,6-1.1,9-1.3c3-0.2,5.6-1.2,8-2.9c4.1-3,8.5-5.7,12.4-9
	c7.9-6.5,15.5-13.4,23.2-20.1c0.5-0.4,0.8-0.9,1.2-1.3c-0.2-2.1-2.7-0.9-3.2-2.9c4.9-3.7,10.6-6.6,16.1-10.6c-1.9-0.6-3.2-1-4.9-1.5
	c3-3.7,7.1-4.8,10.6-6.9c3.4-2,6.8-4,10.3-6c-0.4-1.7-2.1-1.8-2.9-2.8c0.2-0.4,0.3-0.9,0.6-1.2c0.7-0.8,1.6-1.5,2.7-2.5
	c-2.3-1-4.3-1.8-6.7-2.8c1.7-1.3,2.9-2.2,4.2-3.2c1.1-0.9,2.3-1.7,3.6-2.7c-0.7-0.9-1.4-1.7-2.1-2.7c1.7-0.9,3.3-1.8,5.8-3.2
	c-2-0.2-2.8-0.3-3.7-0.4c-0.8,0-1.6,0-2.8,0c0.3-1.3,0.5-2.3,0.8-3.2c-0.9-0.5-1.9-1.1-3.1-1.7c1.3-1.9,3.5-1.8,5-3.4
	c-0.6-0.4-1.1-0.9-1.7-1.3c-0.9-0.5-1.9-0.9-3-1.4c0.6-2,2.6-2.2,3.6-3.6c-0.5-0.5-1.2-0.9-1.5-1.5c-0.3-0.6-0.3-1.5-0.4-2.3
	c-1.2-0.6-2.5-1.3-3.8-2c0.9-1.1,1.7-2.1,2.6-3.1c-1.4-0.9-2.6-1.6-4.1-2.5c1.2-1.1,2.1-2.1,3.4-3.3c-1.5-0.6-2.7-1.2-4.2-1.8
	c0.6-0.9,1.2-1.7,1.9-2.7c-0.9-0.7-1.7-1.4-2.7-2.2c0.4-0.8,0.8-1.6,1.3-2.6c-0.9-1-1.8-2.1-2.6-3.1c-0.3-1.7,1.1-3.2,0.1-4.8
	c-0.1-0.2,0.9-1.2,1.5-2c-1-2.1-3.7-2.6-5.4-4.7c1-0.6,1.9-1.1,3.1-1.7c-1.4-2.6-4.4-3.5-6.1-6.1c1.4-0.5,2.7-1,4.3-1.5
	c-1.1-1.5-2.1-2.8-3.3-4.3c1.4-1.6,3.4-0.6,5.2-1.5c-0.3-0.6-0.6-1.3-1-1.8c-1.7-1.9-3.5-3.8-5.4-5.9c0.5-0.5,1.3-1.3,2.1-2.1
	c-0.5-2.5-3-4-3.8-6.7c1.3-0.5,2.5-1,4-1.6c-1.7-3.1-5.1-4.8-7-8.1c1.6-0.5,2.9-0.9,4.5-1.4c-0.4-1.2-0.9-2.3-1.4-3.7
	c0.6-0.3,1.1-0.5,1.6-0.7c0.4-0.2,0.9-0.3,1.5-0.5c0.2-1,0.3-2.1,0.5-3.3c2.9-0.1,5.7-0.3,8.8-0.4c-0.6-2.8-2.6-4-4.1-5.5
	c-1.4-1.4-3.2-2.6-4.2-4.7c1-0.8,1.8-1.5,2.6-2.1c-0.1-0.4,0-0.8-0.2-1c-0.9-1.1-1.8-2.2-2.9-3.5c0.2-0.5,0.2-1.1,0.5-1.6
	c0.9-1.4,0.8-2.7,0-4.1c-0.7-1.1-1.3-2.2-2.1-3.4c0.6-1.1,1.2-2.2,1.8-3.4c-0.3-1-0.5-2.1-0.8-3.4c1-0.3,2-0.6,3-0.9
	c-0.3-1.6-0.6-3.2-1-4.9c1.2,0,2.1,0,3,0c1.2-1.7-0.5-3.1-0.2-4.7c1-1.2,2,0.2,3.3,0c0-0.5,0.2-1.1,0-1.6c-0.9-2-1.9-4-3-6.4
	c1.3-0.2,2.3-0.4,3.5-0.6c-0.5-1.7-0.9-3.3-1.5-5.2c0.7,0,1.3-0.1,1.9-0.1c0.6,0,1.2,0.2,2.1,0.3c0.5-2.9-1.6-5.2-1.6-8.2
	c0.4-0.2,1-0.4,1.5-0.7c0.4-0.2,0.9-0.3,1.5-0.6c-0.3-1.9-0.6-3.8-1-6c0.9,0.1,1.6,0.2,2.3,0.3c0.6,0.1,1.2,0.2,1.8,0.3
	c0.8-1.6,0.2-2.9,0-4.3c-0.1-1.1-0.6-2.4-0.2-3.3c1-2.6,1.4-5.2,1.2-7.9c-0.1-0.8,1.3-1.7,2.2-2.8c-0.3-2-0.6-4.3-0.9-6.7
	c1-0.5,1.8-0.9,2.9-1.5c-0.5-3.5,1.6-5.8,4-8.3c1.3,1,2.4,1.8,3.7,2.8c0.7-0.9,1.4-1.7,2.2-2.7c1.1,0.4,2.3,0.7,3.6,1.2
	c0.3-1.6,0.6-3,1-4.8c1.6,0.8,2.9,1.5,4.5,2.4c0.3-2.4,0.5-4.3,0.8-6.7c2.9,1.5,3.9,4.3,6.1,5.8c2.9-0.6,2.9-0.6,5.2,0.8
	c0.9-0.5,1.9-1,2.8-1.5c0.4,0.2,0.8,0.3,0.9,0.5c1.6,1.9,2.1,4.3,2.8,6.6c0.5,1.7,0.8,3.4,2.1,4.8c1.2-0.5,2.3-0.9,3.5-1.4
	c1.1,1.8,0.8,3.6,1,5.3c1,9.7,2.7,19.3,5.7,28.6c2.5,7.8,6,15.1,10.7,21.9c0.9,1.3,1.9,2.5,3,3.9c1.5-0.6,2.8-1.2,4.4-1.9
	c0.3,1,0.8,2,1,3c0.4,2.5,0.5,5,1.5,7.9c1.1-1.4,2-2.5,2.8-3.6c1.3,0.7,0.8,1.8,0.9,2.7c0.1,1.1,0,2.2,0,3.4c0,0.9,0.1,1.8,0.2,2.8
	c2.1-0.1,2.4-2.3,4-2.7c1,0.1,1.2,0.9,1.2,1.7c0.1,1.7,0,3.5,0,5.6c1.4-0.4,2.5-0.7,3.7-1c0.2,0.3,0.4,0.5,0.4,0.8
	c0,1.8-0.1,3.5,0,5.3c0,0.6,0.2,1.1,0.3,1.7c2.7,0.1,2.1-3.2,4.4-3.7c1.7,4.5,0.1,9.4,1.5,13.9c6.8-0.5,13.5-1.5,20.2-1.3
	c6.6,0.2,13.2,1.6,20.2,2.6c-1.5-5.7-6.3-9.5-7.3-15.2c1.7-0.7,3.2,0.4,5,0.2c-1.1-4.1-3.5-7.4-4.9-11.4c1.1-0.2,2.1-0.5,3-0.7
	c0.1-0.3,0.4-0.6,0.3-0.8c-0.5-2.8-1-5.7-1.6-8.7c2.1-1.7,2.8-3.9,2.2-6.7c-0.2-1,0-2.2,0-3.5c1.3-0.2,2.5-0.4,4-0.6
	c-0.4-2.1-0.8-3.9-1.2-5.8c-0.4-1.8-0.8-3.7-1.3-6.3c2.4,1.4,4.1,2.3,5.7,3.2c1.2-0.6,0.8-1.5,0.7-2.2c-0.6-7-0.9-14-0.4-21.1
	c0.6-8.9,2.6-17.4,6.2-25.5c4-9.1,10-16.7,18-22.6c2.8-2.1,5.6-4.3,8.6-6.2c2.7-1.7,5.6-3.1,8.5-4.4c1.4-0.6,3.1-0.9,4.6-1
	c4.5-0.4,8,1.5,9.8,5.5c2.4,5.4,4.4,11,6.5,16.5c0.3,0.7,0.2,1.6,0.3,2.4c0.2,2,0.2,2,2.4,4c-0.3,1.3-0.6,2.6-1,4.2
	c0.9,0.5,1.9,1,3.1,1.6c0.2,0.9,0.4,2,0.6,3.2c1.1,0.2,2.1,0.4,3.2,0.5c0.9,1.2-0.4,2.1-0.4,3.5c1.8,1.6,2.3,3.9,1.3,6.6
	c1.2,0.5,2.2,0.9,3.4,1.4c-0.3,3,0.2,5.7,1.4,8.4c0.8,1.6,0.5,3.7,0.8,5.7c0.8,0.5,1.6,1,2.6,1.6c-0.2,1-0.4,2.1-0.7,3.4
	c1,0.3,2,0.6,3.1,0.8c0.1,0.3,0.3,0.6,0.2,0.9c-0.4,1.2-0.9,2.4-1.4,3.5c0.6,0.8,1,1.4,1.3,1.8c-0.2,2.1-0.2,4-0.5,5.8
	c-0.1,0.9-0.5,1.9-1,2.6c-0.9,1.3-2,2.5-3,3.8c-1,1.4-2.3,2.7-2.7,4.9c2.4-0.3,4.5-0.5,6.8-0.8c0.3,1.3,0.5,2.3,0.8,3.4
	c1.2,0.3,2.4,0.7,3.6,1c0.5,5.1,1,9.9,0.6,14.8c1.3,0.8,2.3,1.5,3.4,2.2c-0.2,0.5-0.2,1-0.5,1.3c-2.2,2.5-4.6,4.9-6.8,7.4
	c-0.7,0.8-1.4,1.7-2.4,2.9c2.3,0.5,4,0.9,6,1.4c-0.3,1.1-0.5,2-0.7,3.2c1.4,1,2.9,2.2,4.6,3.4c-1.1,1.2-2,2.2-3.1,3.4
	c1.3,1.1,2.5,2.1,4.2,3.5c-1.4,0.8-2.4,1.5-3.3,2c0.2,1,0.2,1.6,0.4,1.9c0.7,1.2,1.5,2.4,2.3,3.7c-0.6,1.3-1.5,2.5-1.7,3.9
	c-0.2,1.2,0.2,2.5,0.6,3.8c0.4,1.3,0.3,2.5-0.4,3.7c-1.1,1.7-1.3,3.6-0.5,5.5c0.2,0.6,0.6,1.3,0.4,1.8c-0.8,1.8,0.3,3.3,0.7,5.1
	c-1.8,0.7-3.4,1.3-5.1,1.9c-7.7,2.6-15.5,5.2-23.2,7.9c-1.2,0.4-2.3,1.1-3.3,1.8c-0.8,0.6-1.1,1.7-0.6,2.6c0.3,0.6,1.2,1.1,1.8,1.3
	c1.2,0.3,2.5,0.2,3.8,0.3c2.1,0.2,4.1,0.4,6.1,0.6c0.2,1.8-1.2,1.9-1.9,2.6c-0.7,0.6-1.4,1.1-2.4,1.9c1.2,1,2.1,1.8,3.2,2.7
	c-0.3,1.6-2.4,1.4-3,3.1c0.9,0.7,1.8,1.4,2.7,2.2c0.3,1.8-2.2,1.8-2.1,3.8c2.5,1.4,3.7,3.9,4.1,6.9c0.4,2.7,1.6,5.2,4,6.9
	c-0.5,1.2-0.9,2.2-1.4,3.5c0.7,0.8,1.6,1.7,2.6,2.8c-0.5,1-1,2.2-1.7,3.6c1.9,3,2.4,6.4,1.7,10c-0.3,1.4-0.1,1.4,1.2,4.1
	c-0.4,0.9-0.9,1.9-1.3,3c0.1,0.4,0.3,0.9,0.5,1.3c0.3,0.7,0.9,1.4,0.9,2.2c0.1,1-0.9,2-0.1,3.2c0.6,0.7,1,1.6,1.5,2.6
	c-1.2,1.2-2.3,2.2-3.5,3.5c1.7,1.2,3,2.2,4.6,3.4c0.2,2.8,1.3,5.2,4.3,6.3c-0.5,2.6-0.2,4.9,2.4,6.3c-0.6,2.7-0.5,5.2,1.2,7.3
	c0.2,3.5,2.6,6.5,2.4,10.1c-0.1,2.3,1.4,3.8,2.8,5.4c-0.6,1.8-1.4,3.5-0.4,5.5c0.6,1.3,0.4,3.2,0.3,4.7c-0.3,2.7,0,5.4,0.4,8.1
	c0.3,2.1-0.6,4.3-1.2,7.3c0.2,0.4,0.7,1.5,1.3,2.8c-1.4,3.8-1.1,7.7,0.1,11.8c-0.6,0.5-1.2,1.1-2,1.8c1,3.8-1.1,7.2-1.9,10.9
	c-0.4,1.6-2.3,2.9-3.8,4.6c0,0.7,0,1.8,0,2.8c-0.9,0.7-1.7,1.3-2.4,1.9c-0.2,1.7,0.3,3.4-0.8,5c-0.8,1.2-0.5,3.1-0.6,4.7
	c-0.8,0.4-1.6,0.9-2.4,1.3c-0.2,0.3-0.5,0.6-0.5,0.9c-0.2,2.6-1.5,4.4-3.6,5.8c-1.5,1-2.8,2.2-4.3,3c-1.5,0.9-3.2,1.5-4.8,2.2
	c-0.3,1.3-0.6,2.5-0.9,3.7c-0.5,0.2-0.9,0.5-1.4,0.5c-1.2,0.2-2.5-0.1-3.5,1.1c-4.1,4.5-9.3,5.9-15.2,5.8c-0.3,0-0.6,0.1-1.1,0.2
	c-0.4,1-0.9,2.2-1.4,3.3c-0.4-0.1-0.8,0-1-0.2c-1.1-0.9-2.1-1.8-3.3-2.9c-0.8,1.5-1.5,2.7-2.3,3.9c-1.4-0.2-2.8-0.6-4.1-0.5
	c-1.4,0.1-2.9,0.4-4.1,1c-2.5,1.3-4.6,0.8-6.8-0.8c-1.3,1.1-2.5,2.1-3.9,3.3c-1.2-0.4-2.5-0.8-3.9-1.3c-1,0.6-2,1.6-3.1,1.9
	c-1,0.3-2.2-0.2-3.5-0.3c-2.2,3.5-4,7.6-9,8.8c-0.3,3.4-0.6,6.7-0.9,10.1c-1.4,17.6-4.2,34.9-9.4,51.8c-2.7,8.7-6,17.2-10,25.4
	c-0.9,1.8-1.7,3.8-2.7,5.8c1.6,2.1,3.1,4.1,4.5,6.1c-0.2,0.3-0.2,0.6-0.3,0.6c-1,0.3-2.1,0.6-3.4,1c1.1,3.3,3.7,5.6,5.2,8.9
	c-1.6,0.3-2.8,0.6-4.5,1c1.3,1.9,2.5,3.6,3.7,5.5c-1.3,0.8-2.3,1.4-3.5,2.1c0.1,3.3,2.3,5.9,2.7,9.3c-1.3,0.6-2.5,1.1-4.1,1.8
	c1.9,3.6,4.5,6.4,6.4,9.6c-2.1,1.3-3.4-1.1-5.4-0.3c0.7,2.5,3,4,3.8,6.5c-0.5,1.4-2.5,0.3-3.1,2c1.4,3,4.1,5.6,5.8,9.3
	c-2.1,0-3.8,0-5.8,0c0.8,2.2,1.4,4.1,2.2,6.3c-1.7,0.2-3,0.3-4.6,0.4c0.6,3.4,3.3,5.3,4.4,8.4c-0.8,0.8-1.7,1.6-2.7,2.4
	c0.8,2,1.5,3.9,2.4,6.1c-2.1,0.2-4,0.4-6.1,0.6c0.8,3.5,3.2,6.1,4.4,9.6c-0.8,0-1.4,0.2-1.9,0.1c-1.2-0.2-2.4-0.5-4-0.8
	c0.2,3.7,2.1,6.6,2.5,9.9c-1.9,0.7-1.9,0.7-6.2-0.7c-0.1,0.8-0.3,1.5-0.2,2.2c0.8,2.8,1.7,5.5,2.7,8.7c-2-0.2-3.6-0.3-5.3-0.4
	c-0.7,1.8-0.1,3.3,0.1,4.9c0.2,1.4,0.3,2.8,0.5,4.3c-1.2,0.4-2.2,0.7-3.2,1c0,1.9,0,3.6,0,5.3c-1.5,1.1-2.9-0.4-4.5,0.4
	c0,1.9,0,3.9,0,6.2c-1.5,0-2.8,0-4.4,0c-0.7,2.9,1,5.6,0.1,8.4c-2.8-0.1-4.3-3.1-7.1-3.4c-1,2.6,1.3,5,0.3,7.6
	c-2.8,1.1-4.6-2.1-7.2-1.8c-1,3.1,1.1,6,0.7,9.2c-2.1-0.8-4-1.5-6.2-2.3c-0.2,2.2-0.3,4.1-0.5,6.3c-1.7-0.7-3.1-1.3-4.5-2
	c-1.5,1.1-0.7,3.1-2.1,4.6c-1.9,0.1-4.1,0.1-6.5,0.2c0.1,1.4,0.2,2.5,0.3,3.5c0.1,0.9,0.2,1.8,0.3,3.2c-1.1-0.2-1.8-0.3-2.5-0.5
	c-0.7-0.2-1.4-0.4-2.5-0.6c-0.1,2.4,0.9,4.3,0.7,6.7c-2.8-0.7-5.4-1.4-7.9-2.1c-1.7,1-2,2.6-2.5,4.1c-2.1,7.4-4.3,14.7-6.2,22.2
	c-3.8,14.6-6.7,29.3-8.4,44.3c-1.4,12.1-2.5,24.2-1.2,36.4c0.8,7.8,2,15.5,3.2,23.3c2.9,18.2,5.8,36.3,7.5,54.6
	c0.9,9.9,1.7,19.8,2.4,29.6c0.6,8.6,0.5,17.3-1.7,25.8c-0.6,2.2-0.4,4.4,0,6.7c3.3,15.8,7.2,31.5,13.2,46.5
	c3.5,8.8,8,17.1,13.4,24.9c6.4,9.3,15.2,12.9,26.2,10.7c10.8-2.2,21.3-1.5,31.6,2.5c1.6,0.6,3.3,1.2,5,1.7
	c5.7,1.8,9.3,5.6,10.5,11.4c0.9,4.4,1.6,8.8,1.7,13.3c0.2,7.2-3.3,12.5-9.6,16c-3.8,2.1-8,3.3-12.3,3.7c-3.5,0.3-7,0.5-10.5,0.4
	c-13.9-0.3-27.8-0.7-41.7-1c-6.2-0.1-12.5,0-18.7-0.1c-7.3-0.1-14.3-1.5-21-4.6c-0.4-0.2-0.9-0.2-1.3-0.3c-1.3,0.8-1.2,2.2-1.6,3.4
	c-0.5,2-0.8,4.1-1.5,6c-1.3,3.8-3.8,6.7-7.6,8.2c-2.4,0.9-4,2.4-5.5,4.4c-4,5.3-9.6,8.4-15.8,10.3c-7.2,2.3-14.4,4.2-21.9,5.4
	c-12,2-24,3.6-36.2,3.7c-9.3,0.1-18.6-0.5-27.5-3.1c-1.8-0.5-3.7-1.2-5.4-2c-3.9-2-6.5-5.1-7.5-9.4c-1.2-5.1-0.8-4.5-6-6.2
	c-0.1,0-0.2-0.2-0.5-0.5c0-2.5,2.6-3.8,3.1-6.2c-1.4-1.7-3.9-0.8-5.6-2.1c0.5-3.8,4.7-5.1,5.9-8.4c-0.7-2-3-0.8-4.1-2.3
	c1.1-1.9,2.3-4,3.8-6.5c-1.9,0.2-3.3,0.4-5,0.6c-0.2-1.6,0.8-2.5,1.3-3.6c0.5-1.1,1.1-2.2,1.7-3.3c-1.7-1.8-3.9-0.2-5.6-1.6
	c0.9-3.7,3.5-6.9,4.6-11.2c-1.8,0.4-3.1,0.6-4.4,0.9c-0.7-0.9-0.5-1.6,0-2.3c0.8-1,1.8-1.8,2.6-2.8c0.5-0.6,0.7-1.3,1.1-2.1
	c-1.8-1.2-3.8-0.3-5.3-1.2c-0.9-2.6,2-3.9,1.9-6.4c-1.3-0.2-2.7-0.3-4.2-0.5c0.3-3.2,3.2-4.9,4-7.9c-1.1-0.3-2.1-0.5-3.4-0.8
	c-0.1-2.9,2.5-4.8,2.7-7.7c-0.7,0-1.5-0.1-2.2,0c-2,0.4-4,0.9-6.2,1.4c0.2-2.8,2.8-3.8,3.3-6.3c-2.2-0.5-4,1.8-6.4,1.4
	c0.4-2.8,2.9-4.3,3.6-7.2c-1.8,0.5-3.3,0.8-5.1,1.3c0.2-2.4,1.6-3.8,2.7-5.2c1-1.4,2.4-2.6,2.7-4.8c-1.5-0.1-2.9-0.1-4.6-0.2
	c1-2.7,1.8-5.1,2.7-7.5c-2.7-1.2-5,1.1-7.9,0.4c0.3-0.7,0.4-1.5,0.8-2c1.3-2.2,2.7-4.3,4-6.5c0.4-0.6,0.6-1.4,1.1-2.4
	c-2,0.2-3.7,0.3-5.6,0.4c0.3-3.8,4.4-5.5,4.4-9.4c-2.3,0.2-4.6,0.3-7.2,0.5c0.9-3.9,5.2-4.6,6.5-8.1c-1.4-0.2-2.6-0.4-3.7-0.6
	C1593.3,1292,1596.9,1291.1,1597,1288z M1724.1,1384c-0.9-1.3-1.7-2.5-2.5-3.6c-3.5-4.7-5.6-10-6.6-15.8c-0.8-4.1-1-8.2-0.9-12.4
	c0-1.2-0.2-2.5-0.3-3.6c-2.2-0.4-4-0.7-6-1.1c-0.3-1.5-0.5-2.9-0.7-4c-1.1-0.7-1.8-1.2-2.6-1.7c0.2-1.2,0.4-2.3,0.6-3.4
	c-1.2-0.2-2.2-0.4-3.2-0.5c-0.4-2.3,1.8-3.9,1.1-6.1c-1.3-0.6-2.6-1.1-4-1.7c0.4-1.7,0.8-3.2,1.2-4.6c-3-1.4-3-1.4-5-4.3
	c-0.9-1.3-1.6-1.3-4,0.2c0.1,0.7,0.1,1.5,0.2,2.3c1.8,9.1,2.1,18-0.8,27c-1.1,3.5-0.2,6.6,2.1,9.4c5.5,6.7,10.4,13.7,14.5,21.4
	c1.5,2.8,3.8,4.8,7,5.3C1717.7,1387.3,1721.1,1386.6,1724.1,1384z"/>
</svg>
