<?xml version="1.0" encoding="utf-8"?>
<!-- Generator: Adobe Illustrator 22.0.0, SVG Export Plug-In . SVG Version: 6.00 Build 0)  -->
<svg version="1.1" id="Layer_1" xmlns="http://www.w3.org/2000/svg" xmlns:xlink="http://www.w3.org/1999/xlink" x="0px" y="0px"
	 viewBox="0 0 2880 1800" enable-background="new 0 0 2880 1800" xml:space="preserve">
<path d="M1593.5,1128.9c-0.5-4.4,0.2-9-0.4-13.7c-2.4,0-4.6,0-7.2,0c0.3-1,0.4-1.8,0.8-2.4c1.4-2.5,2.9-4.9,4.3-7.2
	c-0.2-0.5-0.3-0.9-0.5-1.1c-3.9-2.1-4.6-5.5-3.9-9.4c0.3-1.4,0.5-2.8,0.6-4.3c0.2-2.3,0-2.5-1.6-5.6c-0.8,0.3-1.7,0.5-2.5,0.9
	c-2.8,1.5-5.6,3.1-8.4,4.6c-0.7,0.4-1.4,0.8-2.2,1c-0.8,0.3-2.1-0.7-1.9-1.6c0.2-1.1,0.6-2.2,1-3.2c2.5-7.4,4.9-14.9,7.4-22.3
	c0.4-1.2,1-2.3,0.5-3.7c-1.8,0-3.5,0-5.5,0c0.3-7.9,2-15.5,2.4-23.7c-3.5,1.1-6.1,3.4-9,4.5c-1.5-0.5-1.6-1.7-2-2.7
	c-2.3-6.5-2-13.2-0.7-19.9c0.6-3.3,1.5-6.6,2.1-9.8c0.2-1,0.2-2.1,0.3-3.5c-6,1.1-10.4,4-13.2,9c-1.3,2.2-2,4.7-3,7
	c-0.3,0.7-0.6,1.4-1.1,2.5c-4.2-5.6-7-11.5-10.9-17c-3.3,1.6-5.5,4.5-8.7,6.4c-2.6-1.9-4.3-4.6-6.4-7c-2.1-2.4-4.2-4.8-6.4-7.5
	c-1.2,0.4-2.3,0.9-3.2,1.2c-0.2,0.6-0.3,1-0.3,1.2c1,5.2,2,10.4,3,15.5c0.2,1.1,0.2,2.1,0.3,3.4c-3.2-0.6-5.8-1.9-8.3-3.2
	c-5.3-2.6-10.3-5.9-14.8-9.8c-5.5-4.8-10.9-9.9-16.4-14.8c-1.2-1.1-2.3-2.1-3.5-3.1c-1.3,0.8-0.7,1.8-0.7,2.7c0,1,0.3,1.9,0.4,2.9
	c0.1,1,0.2,1.9,0.2,2.9c0,0.9-0.1,1.8-0.2,2.6c-1.5,0.7-2-0.3-2.6-1c-3.5-4.2-6.9-8.4-10.4-12.6c-0.8-0.9-1.3-2.3-2.9-2.5
	c-1.1,3-0.9,6.2-1.4,9.3c-1,0.6-1.6-0.1-2.1-0.7c-1.8-2-3.6-4.1-5.4-6.1c-0.6-0.7-1.3-1.3-2.2-2.3c-1.3,1.4-1.4,3-1.9,4.4
	c-0.5,1.7-1,3.4-1.5,5.1c-0.5,1.5-0.9,3-1.5,5c-4.4-2.5-8.3-5.4-12.3-8c-4-2.6-8-5.3-12.2-8.1c-0.7,1.2-1.2,2.1-1.7,3.1
	c-0.8,1.7-1.5,3.5-2.5,5.2c-1.1,1.8-2.6,3.3-5.2,3.1c-1-1.1-2.1-2.3-3.1-3.5c-5.2-6.3-10.4-12.6-15.7-18.8c-1-1.1-1.6-3.2-3.5-2.7
	c-2.6,0.7-1.6,3.1-1.8,4.9c-0.2,2.2,0.2,4.4-0.3,6.6c-1.1,0.4-1.6-0.4-2.1-0.9c-2.8-2.9-5.5-5.8-8.3-8.6c-0.6-0.7-1.2-1.6-2.6-1.2
	c-0.2,4.3,1.9,8.2,2.1,12.4c-0.8,1-1.8,0.6-2.7,0.3c-4.3-1.4-8.3-3.4-11.7-6.4c-3.4-2.9-6.6-6-9.8-9.2c-3.2-3.2-6.1-6.5-9.2-9.8
	c-0.9-0.9-1.8-1.7-2.7-2.5c-1.3,0.4-1,1.3-0.9,2c0.2,1.9,0.5,3.8,0.7,5.7c0.2,1.8,0.6,3.7,0.1,6c-2-1.1-3.2-2.5-4.6-3.7
	c-1.3-1.2-2.6-2.4-3.9-3.6c-1.4-1.3-2.7-2.7-4.3-3.7c-1.4,1.1-1.1,2.5-1.2,3.7c-0.3,4.1-0.6,8.3-0.9,12.4c-0.1,0.8-0.2,1.6-0.4,2.3
	c-0.2,0.9-1.8,1.3-2.4,0.6c-0.7-0.9-1.3-1.8-2-2.7c-4.2-6.2-8.3-12.5-12.5-18.8c-0.9-1.3-1.8-2.6-2.9-4.2c-0.9,0.6-1.7,0.9-2.4,1.5
	c-3.9,3.7-6.4,8.3-8.3,13.3c-1.9,5.1-2.9,10.5-3.9,15.8c-2,10.1-4.8,19.9-8.8,29.4c-3.8,9-8.7,17.4-14.7,25.2
	c-2,2.5-3.9,5.1-5.7,7.7c-6.5,9.5-13.1,18.9-19.5,28.5c-4.9,7.3-9.6,14.8-14,22.3c-5.5,9.4-9.7,19.5-12.5,30
	c-1.2,4.6-2.6,9.2-3.8,13.9c-1.7,6.3-1.6,12.6-0.1,19c1.9,7.9,4.6,15.6,7.3,23.3c2,5.6,4,11.1,5.9,16.7c0.2,0.5,0.3,0.9,0.5,1.4
	c2.5,7.1,7.6,10.8,15.1,11.4c2.5,0.2,5.1,0.4,7.6,0.9c7.3,1.4,12.9,5.3,16.9,11.6c2.5,4,4.2,8.3,5.2,12.8c0.7,3.2,0.6,6.3-0.5,9.5
	c-1.6,4.9-4.7,8.4-9.9,9.4c-4.8,1-9.7,1.9-14.6,2.5c-5.1,0.6-10.2,1-15.3,1.2c-3.8,0.1-7.7-0.2-11.5-0.5c-5.1-0.4-10.2-0.7-15.3-1.3
	c-3.8-0.4-7.6-1-11.3-2c-7.6-2-12.9-6.7-16.1-13.9c-1.4-3.1-2.9-6.1-4.8-8.8c-4.6-6.8-11.2-10.3-19.4-10.8c-3-0.2-6.1,0-9.1,0.1
	c-1.6,0-3.2,0.2-4.8,0.2c-7.1-0.1-12.1-3.5-15.3-9.8c-0.8-1.6-1.3-3.3-1.8-4.9c-3.9-12.7-7.8-25.4-11.7-38
	c-4.2-13.5-4.4-27,0.1-40.6c3.1-9.4,6.3-18.8,8.6-28.5c2.2-9.4,3.8-18.8,3.4-28.5c-0.2-5.3-1.2-10.5-2.4-15.6
	c-1.1-4.5-3.8-8.1-6.8-11.4c-0.3-0.4-1.3-0.6-1.6-0.3c-0.4,0.2-0.7,1-0.7,1.6c0,1.1,0.3,2.2,0.5,3.3c1.1,8.7,0.2,17.2-3.4,25.4
	c-2,4.6-4.8,8.7-8.4,12.1c-0.6,0.5-1.2,1-2.1,1.7c-0.4-0.9-0.8-1.6-1-2.2c-1-3.2-1.9-6.5-2.9-9.7c-0.4-1.4-1-2.7-1.7-3.9
	c-0.9-1.6-2.2-2.7-4.5-2.7c0.2,4.2,0.5,8.2,0.6,12.3c0.1,4.2-0.1,8.3-1.1,12.4c-1,4-2,8.1-3.5,11.9c-1.5,3.8-3.4,7.6-5.6,11.1
	c-2.2,3.5-4.7,6.9-7.3,10.1c-2.5,3.3-5.4,6.2-8.4,8.9c-1.6-0.5-1.7-1.7-2.2-2.6c-1.6-3.2-3.1-6.3-4.6-9.5c-0.4-0.9-0.8-1.8-2-1.7
	c-1.1,0.1-1.5,1.1-1.8,2c-0.9,2.2-1.6,4.5-2.5,6.7c-0.3,0.8-0.5,1.8-1.5,2.6c-2.3-2.5-3.1-5.7-5.5-8.5c-0.5,1.6-0.9,2.7-1.3,3.9
	c-1.3,4.8-2.4,9.6-3.9,14.3c-1.8,5.5-4.6,10.6-8.8,14.7c-0.7,0.6-1.5,1.1-2.4,1.9c-3.2-7.3-4.8-14.8-7.9-22.1
	c-2.2,2-3.6,4.1-5.2,6.1c-1.6,2-3.1,4-4.8,6c-1.6,2-3,4.1-5.1,6c-2-2.4-3.9-4.7-5.7-7c-1.5,0.1-1.6,1.2-2,2c-2,3.5-3.7,7.1-5.8,10.5
	c-2.1,3.6-5,6.6-8.7,8.8c-0.8,0.5-1.7,0.7-2.8,1.2c-1.6-6.2-0.8-12.3-2.3-18.7c-0.8,0.6-1.4,0.9-1.8,1.5c-3.5,4.4-6.9,8.8-10.3,13.3
	c-0.8,1-1.7,1.9-2.8,3.2c-1.1-3.1-2-5.8-2.9-8.5c-0.5-1.4-0.9-2.7-1.3-4.1c-0.3-1-1-1.8-2.1-1.7c-0.6,0.1-1.4,0.8-1.7,1.4
	c-1.5,2.8-2.8,5.7-4.2,8.6c-1.8,3.7-3.6,7.5-5.6,11.6c-0.8-1.1-1.4-1.7-1.8-2.5c-3.1-6-6.1-12-9.3-17.9c-0.9-1.8-1.3-3.5-1.3-5.5
	c0.1-3.8,0.2-7.7,0-11.5c-0.3-5.5,0.6-10.8,2.4-16c2.1-5.9,4.1-11.8,6.5-17.5c2.8-6.7,6.8-12.7,12-17.8c9-9,15.4-19.6,19.5-31.6
	c2.8-8.2,6.8-15.8,11.5-23.1c2.7-4.1,5.3-8.3,7.9-12.4c-0.9-4.5-3.3-8.2-4-12.7c2.2-0.4,4.2-0.8,6.3-1.2c4.1-0.8,8.1-1.9,11.8-3.8
	c6-3,10.2-7.5,12.7-13.8c2.8-7.2,4.3-14.7,5.6-22.3c1.9-10.5,3.6-21.1,5.9-31.6c2.1-9.8,5.8-19,11.7-27.1c2-2.7,2.6-5.8,2.5-9
	c-0.1-5.9-0.2-11.8,0-17.8c0.5-18.5,3.6-36.6,8.8-54.3c1.5-5.1,2.2-9.9,0.4-15c-0.3-0.7-0.3-1.5-0.5-2.4c0.9-1.1,1.7-2.3,2.8-3.6
	c-1.5-1.5-2.9-2.9-4.5-4.5c1.1-1.5,2.1-3,3.1-4.4c9.1-11.8,17.1-24.3,24.7-37.1c4.6-7.9,9.4-15.6,14.1-23.4
	c4.3-7.3,10-13.1,17.1-17.8c12.7-8.4,25.6-16.4,38.7-24.1c5.1-3,10.5-5.5,16.1-7.3c16.5-5.2,32.9-10.5,49.4-15.4
	c14.9-4.4,30.2-5.1,45.7-3.7c15.5,1.3,30.9,2.9,46.3,4.5c10,1,20,2.2,30,3.6c5.4,0.8,10.7,2.1,15.9,3.4c8.3,2,16.6,3.3,25.1,3.6
	c31.3,1.3,62.7,1.5,94,1.8c11.3,0.1,22.3-2,33.2-4.5c7.2-1.6,14.4-3.2,21.7-3.7c4.3-0.3,8.6-0.4,12.9-0.2c2.8,0.2,5.4-0.3,7.9-1.5
	c0.3-0.1,0.6-0.3,0.8-0.5c21.2-11.6,42.6-22.9,62.7-36.3c0.7-0.4,1.3-0.9,2-1.3c1.4-0.9,2.4-2,2.6-3.8c0.1-0.9,0.4-1.9,0.8-2.7
	c0.9-2.1,2.5-3.4,4.8-3.3c2.1,0,4.1,0.3,6.6,0.5c0.3-0.8,0.8-1.7,1-2.8c0.5-3,0.8-6,1.3-9c0.1-0.9,0.5-1.8,0.7-2.6
	c2.9,0.8,5.4,1.8,8,2.2c4.8,0.8,5.8-0.1,5.7-4.8c-0.1-2.7-0.5-5.4-0.8-8.1c-0.1-1.2-0.3-2.5-0.4-4c3.8,0.6,6.6,3.1,10.3,3.9
	c2.6-2.6,5.2-5.3,8-8.2c1.6,1.4,1.8,3.2,2.7,4.7c1.3,2,2.4,2.4,4.4,1.1c1.5-0.9,2.9-2,4.2-3.1c7.2-6.1,14.4-12.3,21.5-18.5
	c6.6-5.8,13.3-11.5,20.5-16.6c10.1-7,21.1-12.1,33.2-14.5c5.6-1.1,11.3-2.3,16.9-3.7c7.2-1.7,14.5-2.3,21.9-2.1
	c8.6,0.2,17.3,0.1,25.9,0c2.2,0,4.4,0.3,6.6,0.8c4,0.9,8.2,1.4,12.3,2.2c9.5,1.8,18.7,4.5,27.2,9.2c4.3,2.4,8.5,5.1,12.5,8
	c4.6,3.4,9,7.2,13.5,10.8c4.5,3.6,6.7,8.5,7.9,13.9c0.4,1.9,0.2,3.8-0.7,5.6c-2.1,4.3-1,8,2.2,11.3c5.4,5.6,11.6,10.1,18.5,13.5
	c6.5,3.2,13.3,5.4,20.2,7.4c5.4,1.6,10.7,3.1,16,5.1c6.5,2.4,12.4,5.8,17.6,10.5c2,1.8,3,3.8,2.9,6.7c-0.1,8.4,0,8.4-3.4,16.1
	c-1.9,4.4-3.9,8.8-5.8,13.2c-1.5,3.5-3.5,6.8-5.9,9.9c-5.9,7.4-13.6,11.6-22.9,12.6c-3.6,0.4-7.3,0.4-11,0.3
	c-4.8-0.1-9.6-0.5-14.2-0.7c-0.7,1.2,0.1,1.7,0.6,2.2c8.4,9.2,16.8,18.5,25.3,27.6c2.5,2.7,5.4,5,8.1,7.4c2,1.8,4.1,3.6,6,5.6
	c2.4,2.6,3.3,5.8,2.5,9.3c-0.8,3.9-3.6,6.2-7.5,5.9c-2-0.2-4.1-0.8-6-1.5c-1.9-0.7-3.7-1.9-5.6-2.8c-7.3-3.8-14.9-4.6-22.8-2.2
	c-4.3,1.3-8.7,2-13.2,2.4c-8,0.7-15.7-0.7-22.9-4c-4.2-1.9-8.1-4.4-12.1-6.8c-2.2-1.4-4.5-2.4-7.3-2c-1.8,5.7,0.8,11,0.9,16.6
	c-2.2,0.9-3.8-1.5-6.2-0.9c0.2,0.9,0.3,1.8,0.5,2.7c1.3,5.5,2.3,10.9,2.6,16.6c0.3,7.1-0.6,14-3.3,20.7c-0.4,0.9-0.8,1.7-1.4,2.8
	c-0.7-0.6-1.4-1-1.9-1.6c-0.8-1-1.5-2.1-2.4-3c-0.3-0.3-1.1-0.4-1.7-0.3c-0.3,0-0.6,0.7-0.6,1.1c0.1,1.3,0.2,2.5,0.5,3.8
	c0.8,4.4,1.6,8.8,2.3,13.2c0.1,0.8,0.2,1.5,0.3,2.6c-2.5,0-4-1.5-5.8-2.3c-1.9-0.8-3.5-2.2-5.4-2.6c-1.1,0.5-0.9,1.4-0.9,2.1
	c0,4.8,0,9.6,0,14.4c0,1.6-0.1,3.2-0.1,4.5c-3.4,3-7,2.9-10.7,1.9c-1.7-0.4-3.3-1.3-4.9-2c-1-0.4-2-0.9-2.8-1.3
	c-1.3,0.5-1,1.5-1,2.2c-0.1,1.9,0,3.8,0,5.8c-0.2,6-1.7,7.8-7.7,9.1c-1.7,0.4-3.5,0.7-5.2,1c-0.4,0.1-0.8,0.3-1.5,0.6
	c0.5,2.4,2.4,3.7,3.6,5.6c1.2,1.8,2.9,3.4,4,5.8c-2.6,0.3-4.7-0.4-6.8-0.7c-2-0.2-4-1-6.3-0.5c0.9,3.6,3.1,6.4,4.3,10
	c-0.7,0.4-1.4,1-2.2,1.4c-1.2,0.6-2.5,1.2-4.2,1.9c1.8,2.8,3.9,4.9,5.8,7.2c1.8,2.2,3.7,4.4,5.8,6.8c-1,0.5-1.7,1-2.4,1.1
	c-5.3,1.3-10.6,2.6-15.8,3.9c-1.4,0.3-2.7,0.8-4.4,1.3c0.7,1.4,1.2,2.5,1.8,3.6c2.8,4.7,5.6,9.3,8.4,14c0.5,0.8,1.2,1.6,0.1,2.8
	c-2.2-0.4-4.2-1.7-6.4-2.5c-2-0.8-3.9-1.9-6.4-2.5c0.3,4.2,2.1,7.7,2.6,11.3c-3.4,3.1-4.7,7.2-5.6,11.4c-1.3,6.4-2.4,12.9-3.9,19.3
	c-1.2,5.3-3.3,10.4-5.8,15.2c-3.4,6.6-7.8,12.6-13.7,17.1c-13,10-19.9,23.5-23.5,39c-3.1,13.9-5.3,28-6.9,42.1
	c-1.3,11.3-2.6,22.6-3.4,33.9c-1.1,14.8-2.2,29.7-2.7,44.5c-0.5,11.7,0.7,23.3,4.3,34.6c2.9,9.3,7.6,17.6,14,24.9
	c3.4,3.9,7.9,6.5,13.1,7.5c0.6,0.1,1.3,0.2,1.9,0.2c5.8,0.3,10.4,2.9,14.2,7c3.3,3.7,6.6,7.4,9.9,11.1c2.2,2.5,2.8,5.3,1.8,8.5
	c-1.2,3.8-2.4,7.6-3.5,11.4c-0.9,3-2.9,4.9-5.9,5.8c-12.8,3.6-25.7,6.5-39.2,6.1c-8-0.3-15.9-1.5-23.6-4c-3.3-1.1-6.6-2.6-9.6-4.3
	c-7.1-4.1-11.7-10.3-14-18.1c-0.4-1.2-0.7-2.4-1.1-3.9c-4.2-1.1-8.3-2.2-12.5-3.2c-4.3-1.1-8.7-2.1-13.1-3.1
	c-1.1-0.3-2.2-0.5-3.2-0.9c-6.1-2-10.2-6-11.7-12.2c-0.9-3.7-1.3-7.5-1.9-11.3c-0.7-5.1-1.3-10.1-1.9-15.2c-0.3-3.1-1.5-5.8-3.2-8.4
	c-2-2.9-3.7-6-5.8-8.8c-3.8-5.5-6.2-11.5-7.5-18c-0.9-4.1-1.8-8.1-2.7-12.2c-0.3-1.1-0.5-2.2-1-3.2c-1.2-2.7-2.7-3.5-5.7-3.1
	c-0.6,0.1-1.2,0.2-1.9,0.3C1594.1,1129.3,1594,1129.1,1593.5,1128.9z"/>
</svg>
