<?xml version="1.0" encoding="utf-8"?>
<!-- Generator: Adobe Illustrator 22.0.0, SVG Export Plug-In . SVG Version: 6.00 Build 0)  -->
<svg version="1.1" id="Layer_1" xmlns="http://www.w3.org/2000/svg" xmlns:xlink="http://www.w3.org/1999/xlink" x="0px" y="0px"
	 viewBox="0 0 2880 1800" enable-background="new 0 0 2880 1800" xml:space="preserve">
<path d="M1814.4,1313.3c-1.3-0.1-2.7-0.2-4.1-0.4c-5.3-0.6-7.7-3.4-7.3-8.7c0.1-2.1,0.5-4.1,1.1-6.1c1.1-3.6,1.2-7.2,0.6-10.9
	c-0.6-3.8-1-7.6-1.3-11.4c-0.3-3-0.2-6.1,0.8-9c0.2-0.6,0.3-1.2,0.4-1.9c1-4.3,0.3-5.5-4.1-7.1c-0.6-0.2-1.2-0.5-1.8-0.7
	c-0.1-0.1-0.3-0.2-0.8-0.6c-0.4-1.3-0.8-3-1.3-4.7c-0.8-2.9-1.5-5.9-2.4-8.8c-1.2-4-3.5-7.2-7.1-9.3c-0.9-0.5-1.8-1.2-2.9-2
	c1.4-1.1,2.7-0.8,3.9-0.8c1.1-0.1,2.2,0,3.4,0c1.2,0,2.4-0.2,4.1-0.3c-1.2-2.4-3.1-3.3-4.5-4.6c-1.5-1.4-3.2-2.7-4.7-4.1
	c-1.5-1.4-3.3-2.4-4.6-4.4c3.8-6.1,8.3-11.7,12.3-18c-5.3-3.3-11.1-5.3-16.5-8.4c0.9-2.1,2.5-3.4,3.8-5c1.3-1.6,2.7-3.1,4-4.7
	c-1.1-2.2-2.8-3.4-4.3-4.9c-2-2.1-4.1-4.1-6-6.2c-2.4-2.9-3.9-6.2-4.3-10c-0.2-2.1-0.1-4.1,0.5-6.2c0.6-2,1.1-4,1.3-6.1
	c0.3-3.5-1.4-5.4-4.9-5.7c-1.6-0.1-3.2,0-4.9,0c-1.3-0.8,0.7-2.3-0.5-3.6c-0.7,0.2-1.7,0.3-2.5,0.6c-12.9,4.8-25.8,9.5-38.7,14.4
	c-15.6,5.9-23.5,17.9-26.3,33.8c-1.2,7-0.3,13.7,2.7,20.1c4.7,10.1,5.5,20.7,3.9,31.5c-1.7,11.3-2.6,22.6-3.3,33.9
	c-0.4,7-0.7,14.1-1.1,21.1c-0.2,2.6,0.3,5,1.6,7.3c4.1,7.5,5.7,15.6,6,24c0.2,5.9,0.3,11.8,0,17.8c-0.4,10.7,1.3,21,4.6,31.1
	c2.5,7.6,5,15.2,6.4,23.1c0.4,2.5,0.6,5.1,0.6,7.6c0,3.2-1.7,5.5-4.6,6.7c-1.8,0.7-3.6,1.4-5.5,1.7c-7,1.2-14,1.5-21,0.7
	c-6.4-0.7-12.7-1.2-19.1-1.8c-2.6-0.2-5,0.2-7.4,1.3c-10.3,4.9-21,5.2-31.8,2.3c-5.5-1.5-10.9-3.6-16.3-5.6
	c-5.7-2.2-11.2-4.7-16.8-7c-1.5-0.6-2.9-1.3-4.3-2.2c-3.4-2.2-5.1-5.3-4.7-9.3c0.2-1.7,0.5-3.5,1.1-5.1c2.3-6.2,2.3-12.5,1.4-18.9
	c-0.1-1-0.3-1.9-0.4-2.8c-0.9-5.3-6.6-9.6-11.8-8.6c-3.4,0.7-6.7,0.6-10,0c-2.2-0.4-4.4-0.7-6.6-1c-1.1-0.1-2.2-0.2-3.3-0.2
	c-5,0-8.6,2.2-10.5,6.9c-1,2.4-1.8,4.8-2.9,7.1c-0.9,1.9-1.8,3.7-3,5.4c-1.7,2.6-4.3,3.9-7.4,3.6c-1.9-0.1-3.8-0.5-5.7-0.9
	c-2.2-0.5-4.3-1.2-6.5-1.7c-5.4-1.3-10.1,0.2-14,4.1c-0.4,0.5-0.9,0.9-1.3,1.4c-2.4,3.6-5.9,5.2-10.1,5.8c-1.7,0.3-3.5,0.6-5.2,0.7
	c-9.3,0.4-18.5-0.1-27.7-1.9c-3.3-0.6-6-2-8.2-4.5c-1.6-1.8-3.2-3.6-4.9-5.3c-0.6-0.7-1.4-1.2-2.1-1.9c-1.2,1.1-0.6,2.3-0.8,3.3
	c-0.3,2-0.4,4.1-0.9,6.1c-1,4.1-3.8,6.6-7.8,7.7c-2.5,0.6-5,1.1-7.6,1.1c-13,0.1-25.9,1.1-38.8,1.8c-14.9,0.8-29.8,0.5-44.6-0.1
	c-9.3-0.4-18.5-0.9-27.8-1.3c-15.7-0.8-31.3-1.8-47-2.2c-7.3-0.2-12.1-3.6-15.5-9.5c-1.1-1.9-1.9-4-2.6-6.2
	c-1.2-3.9-1.1-7.8,0.8-11.7c2.7-5.5,4.6-11.2,5.6-17.3c1.7-10,0.3-19.4-4.2-28.5c-3.3-6.8-8.1-12.7-13.5-17.9
	c-1.2-1.2-2.5-1.9-4.2-1.9c-5.4,0.1-10.9,0.1-16.3,0.1c-0.3,0-0.5,0.2-1.1,0.5c0.2,2.4,1.6,4.4,2.5,6.5c0.9,2.2,2,4.4,3,6.6
	c1,2.2,2,4.4,2.9,6.4c-2.2,2.9-6.3,6.1-10.2,8.2c-3.9-6-6.6-12.7-10.6-18.7c-6.3,1.2-10.8,4.5-12.9,10.4c-1.4,3.9-2.1,8-2.9,12.1
	c-0.8,3.6-1.5,7.2-3.3,10.5c-0.4,0.8-0.7,1.8-1.9,1.9c-0.2-0.1-0.3-0.1-0.4-0.2c-0.1-0.1-0.1-0.3-0.1-0.5c0-11.8,0-23.7,0-35.4
	c-1.3-0.5-1.6,0.3-2,1c-2.5,4.1-5,8.2-7.5,12.3c-0.6,1-1.1,2-1.9,2.8c-0.3,0.4-1.2,0.5-1.7,0.4c-0.5-0.2-1.1-0.9-1.1-1.3
	c-0.1-1.1,0.2-2.2,0.3-3.3c0.2-1.6,0.4-3.2,0.5-4.8c0-0.2-0.3-0.5-0.6-1c-0.5,0.7-1,1.3-1.4,1.9c-4.2,6.5-10.2,10.6-17.6,12.4
	c-10,2.4-20.2,2.9-30.5,1.7c-1.7-0.2-3.5-0.4-5.2-0.7c-0.7-0.1-1.4-0.5-2.5-0.9c2.1-1.8,3.9-3.4,5.9-5.1c-4.2-4.9-9.2-6.9-15.4-5.9
	c-2.8,0.5-5.6,1.2-8.4,2.1c-6,2-12.1,2.8-18.4,2.6c-8.1-0.3-16.3-0.5-24.4-1c-9-0.5-17.9-0.8-26.8,0.2c-1.1,0.1-2.2,0.2-3.3,0.2
	c-4.1,0-7.5-1.3-10.2-4.5c-1.4-1.7-2.9-3.4-4.1-5.3c-1.2-1.7-2.5-2.8-4.7-2.7c-0.4,0-0.8-0.3-1.6-0.6c1.1-1.7,2.8-2.2,4.2-3.1
	c1.5-1,3-1.8,4.5-2.8c1.4-0.9,2.9-1.9,4.4-2.9c-1.1-1.3-2.3-0.8-3.3-0.9c-3.3-0.4-6.7-0.7-9.8-2.1c-3.3-1.6-4.6-4.2-3.9-7.9
	c0.2-1.1,0.6-2.2,0.9-3.2c0.3-0.9,0.7-1.8,1-2.6c-0.8-0.9-1.6-0.4-2.3-0.1c-6.3,2.8-12.5,5.7-18.7,8.6c-1.9,0.9-3.8,1.8-5.7,2.5
	c-2.6,0.9-5,0.4-7-1.7c-2-2.1-3.8-4.2-5.3-6.8c3.3-5.6,7.7-10.2,11.1-16c-3,0-5.1,1.9-7.8,2.1c-2.4-3.7-2.6-8.4-4.9-12.5
	c-8.5-0.8-17-1.2-25.2-1.9c-1-1.5-0.3-2.4-0.1-3.3c1.2-4.5,2.6-8.9,3.7-13.4c0.4-1.6,1.1-2.9,2.9-3.4c-0.6-6.4-1.3-12.6-1.9-18.7
	c-2.3-1.3-4.6-0.5-6.8-0.7c-1.5-0.2-3.3,0.5-4.2-1.5c-0.7-1.7,0.7-2.7,1.5-3.7c5.7-7.2,11.7-13.9,18.5-20.1
	c24.2-22.4,48.3-44.8,72.4-67.4c3.1-2.9,6-6.2,8.8-9.5c2.3-2.7,3.9-5.8,5.2-9.2c0.9-2.3,1.1-4.7,0.4-7c-1.2-3.9-2.5-7.9-3.8-11.7
	c-2.1-0.2-3.4,0.9-4.7,1.7c-8.6,4.8-16.1,10.9-22.8,18.2c-5,5.4-9.5,11.2-13.4,17.5c-7.4,11.9-17.4,20.9-29.6,27.4
	c-5.3,2.9-11,5.2-16.5,7.8c-0.7,0.3-1.4,0.4-2.4,0.2c0.7-0.6,1.3-1.2,2-1.7c4.2-3,8.4-5.9,12.5-8.8c1-0.7,2.1-1.5,3.1-2.3
	c4.8-3.6,7.5-8.4,7.7-14.3c0.2-4.6,1.9-8.4,4.8-11.7c2.3-2.7,4.8-5.1,7.2-7.7c3.4-3.8,6.9-7.6,10.1-11.6c4.5-5.6,9-11.2,14.1-16.3
	c9.8-9.8,20.9-17.3,34.3-21.2c2.7-0.8,4.5-2.3,5.5-4.9c0.7-1.6,1.4-3.2,2-4.9c1.8-5.2,4.7-9.8,7.8-14.3c2-2.9,4.5-5.3,7.6-7.2
	c19.8-11.9,40.7-20.7,63.6-24.8c14.1-2.5,28.3-3.1,42.5-1.8c9.4,0.9,18.7,2.4,27.8,4.9c3.7,1,7.3,0.9,10.8-0.5
	c4.3-1.8,8.5-3.6,12.8-5.5c3.2-1.5,6.3-3.2,9.5-4.7c6-2.7,12.4-4.2,19-4.4c6.9-0.1,12.8,2.4,17.8,7.1c3,2.9,5.6,6.2,7.8,9.7
	c2.4,3.8,5.3,7.1,8.6,10.7c3.5-4.8,5.2-10.4,8.7-15.2c2,1.6,3.8,3.1,5.7,4.6c1.7-1.1,2.4-2.7,3.4-4.2c6.1-9,12.2-18,18.3-27
	c2.7-3.9,5.7-7.7,7.5-12.2c0.3-0.7,0.8-1.4,1.2-2.1c1.6-2.3,3.7-3.4,6.5-3.3c0.6,0,1.3,0,1.9,0.2c3.3,1.4,5.5-0.1,7.4-2.6
	c1-1.2,2.1-2.4,3.1-3.7c23-29,52-49.9,86.1-64c5.8-2.4,11.7-4.4,17.5-6.5c4.4-1.6,8.6-3.4,12.6-5.8c9.9-6,16.9-14.5,21-25.4
	c0.5-1.3,0.9-2.7,1.4-4.1c0.9-3,2.5-5.4,4.9-7.5c6.8-6,12.4-13,17.1-20.6c3.6-5.8,7-11.8,10.3-17.8c2.7-4.9,5.1-10,7.9-14.8
	c3.6-6.2,7.3-12.4,11.1-18.5c2.3-3.8,4.8-7.6,6.2-11.9c1.7-5.2,1.2-10.1-1.8-14.7c-1.2-1.9-2.6-3.6-4.1-5.3
	c-1.7-1.9-3.6-3.7-5.5-5.3c-11.1-9.7-19.9-21.2-26.9-34.1c-6.4-11.7-11.3-24-15.5-36.6c-2.9-8.5-5.6-17-8.3-25.5
	c-2.5-7.8-3.8-15.9-5-23.9c-0.9-5.5-1.8-11.1-2.3-16.6c-0.9-10.5,1.2-20.4,6.9-29.4c2.6-4.1,4.4-8.6,5.7-13.2
	c2-6.6,4.9-12.8,8.3-18.8c8.6-14.6,17.2-29.2,26.8-43.2c3.4-5,7.2-9.8,11.4-14.2c3-3.3,6-6.6,8.8-10.2c4.1-5.3,6.6-11.3,6.6-18.2
	c0-1,0.1-1.9,0.3-2.8c0.4-1.8,1.4-3.2,3.4-3.6c9.4-2,16.9-7.4,23.9-13.7c3.6-3.2,7.1-6.4,10.7-9.6c5-4.4,10.4-7.9,16.5-10.6
	c13.7-6.3,27.4-12.4,41.7-17c19.4-6.2,39.3-8.7,59.6-7.5c16.2,0.9,32.1,3.5,48,6.5c8,1.5,16.1,2.8,24.1,4.4
	c13,2.7,13.2,2.5,24.8,11.6c3.5,2.8,6.8,5.9,10.1,8.8c5.6,4.9,11.6,9,18.6,11.6c4.3,1.5,7.9,4.3,11.1,7.5c2.8,2.8,5.6,5.7,8.1,8.9
	c10,12.5,20,25,29.9,37.5c6.6,8.4,12.8,17.2,18.1,26.5c5.4,9.5,9.6,19.5,11.9,30.2c3.3,15.3,3.1,30.5-0.4,45.7
	c-0.9,3.8-0.8,7.3,0.6,10.8c1.8,4.6,3.5,9.3,5.4,13.9c1.6,3.8,2.1,7.5,1.1,11.6c-5.1,21.1-9.7,42.4-16.3,63.1
	c-0.6,1.8-1.3,3.6-1.8,5.5c-2.6,9.1-7.2,17-13.3,24.2c-9.4,11.1-18.5,22.5-28.8,32.8c-2.2,2.1-4.2,4.4-6.2,6.7
	c-1.6,1.9-3.4,3.3-5.9,3.7c-1.9,0.3-3.7,1-5.4,1.9c-4.2,2.1-6.5,5.5-7,10.2c-0.3,3.2,0,6.4,0.7,9.5c1.6,6.4,3.9,12.5,6.6,18.5
	c2.8,6.3,5.8,12.5,8.9,18.6c9.1,18,19.1,35.5,29.4,52.8c7.5,12.7,14.6,25.6,20.3,39.1c7.8,18.4,13.1,37.4,15.9,57.1
	c1.6,10.6,2.3,21.3,2.8,32c0.5,10.4,1.5,20.7,2.4,31.1c1,11.2,2.1,22.3,3.3,33.4c3.1,29.2,2.9,58.5,3.7,87.7c0.1,3.5,0.2,7,0.2,10.6
	c0,2.2,0.7,4,1.8,5.8c4,6.4,6.3,13.3,5.9,20.9c-0.5,10.2-1.1,20.4-1.7,30.7c-0.2,3.5-0.4,7-0.6,10.5c-0.1,2,0.2,3.7,1.3,5.5
	c5.5,8.9,8.3,18.6,9.5,28.9c0.8,6.5,1.3,13,1.9,19.6c0.7,7.8,1.3,15.6,2.8,23.3c1.2,6.3,2,12.6,2.9,19c1,8,2.6,15.8,5.7,23.2
	c2.2,5.4,3.4,11,3.8,16.8c0.4,5.9,0.2,11.8,0.3,17.7c0,2.4-0.8,4.4-2.5,6c-4.4,4.2-9.4,7.2-15.7,7.3c-10.4,0.2-20.8,0.5-31.2,0.5
	c-9.6,0-19.2-0.2-28.8-0.5c-3.5-0.1-7-0.4-10.5-0.9c-8.3-1.1-15.2-5-20.1-11.8c-6.8-9.3-13.5-18.7-20.2-28.1
	c-7.1-9.9-10.2-21.2-11.3-33.2c-0.2-2.1-0.5-4.1-0.7-6.2C1815,1314,1814.7,1313.7,1814.4,1313.3z"/>
</svg>
