<?xml version="1.0" encoding="utf-8"?>
<!-- Generator: Adobe Illustrator 22.0.0, SVG Export Plug-In . SVG Version: 6.00 Build 0)  -->
<svg version="1.1" id="Layer_1" xmlns="http://www.w3.org/2000/svg" xmlns:xlink="http://www.w3.org/1999/xlink" x="0px" y="0px"
	 viewBox="0 0 2880 1800" enable-background="new 0 0 2880 1800" xml:space="preserve">
<path d="M1072.4,1123.9c-2.7,0.8-5.1,2.2-7.2,4.3c-12.1,12.1-24.3,24.1-36.4,36.3c-5.4,5.5-10.5,11.2-15.6,16.9
	c-14.7,16.3-23.8,35.5-28.6,56.8c-2.5,11.1-4.1,22.3-5,33.7c-0.2,2.9-0.6,5.7-0.6,8.6c0,7.3,2.4,9.8,9.7,10.2
	c1.9,0.1,3.8,0.1,5.8,0.2c6.6,0.3,12.2,2.8,16.2,8.1c2.6,3.4,5.1,7,7.2,10.8c3.1,5.6,2.5,10.3-1.7,15c-4.1,4.5-8.5,8.7-13.4,12.3
	c-7.8,5.6-16.3,7.2-25.5,4.5c-4.1-1.2-8.1-1.6-12.3-1.1c-1.7,0.2-3.5,0.2-5.3,0.4c-5.6,0.5-10.8-0.9-15.6-3.7
	c-2.5-1.5-4.8-3.1-7.2-4.8c-3-2.1-5.9-4.4-9-6.4c-2.2-1.4-3.3-3.4-3.6-5.9c-0.1-1-0.2-1.9-0.2-2.9c0-9.6,0-19.2-0.1-28.8
	c0-8.4,1.3-16.6,2.5-24.8c1.8-12,2.8-24.1,3.5-36.3c1.1-17.3,1.2-34.5,1-51.8c-0.1-7.7,2.1-14.5,6.4-20.7c3.4-5,6.9-10,10.4-15
	c11.2-15.6,22.5-31.1,33.6-46.8c11.1-15.5,20.7-31.9,28.3-49.4c6.5-14.9,11-30.4,13-46.5c1.1-9.1,1.4-18.2,1-27.3
	c-0.8-16-0.7-32,0-48c0.4-8.8,0.7-17.6,1.4-26.4c1.1-13.1,3.6-25.9,8.4-38.3c3.2-8.3,7.3-16,12.4-23.2c1.1-1.6,2.2-3.2,3-4.9
	c4.5-9.2,11-16.9,19.1-23.1c3.8-2.9,7.8-5.5,11.9-8.1c7.2-4.6,8.8-8.1,6.9-16.5c-0.9-3.7-1.8-7.5-2.8-11.2c-1.6-6.2-2.3-12.5-2-19
	c0.6-13.1,0.9-26.2,1.5-39.3c0.6-14.4,1.3-28.8,2.2-43.1c1.1-18.7,5.7-36.6,11.6-54.2c11-32.8,27.8-62.4,49-89.6
	c6.7-8.6,13.6-17,20.7-25.2c4.6-5.3,9.6-10.3,14.7-15.1c17.3-16.2,37.7-26.8,60.8-32c16.3-3.6,32.8-5.2,49.6-4.1
	c6.5,0.4,13.1,0.8,19.5,2.1c4.4,0.9,8.7,2.4,12.4,5c5,3.5,8.6,8.1,9.6,14.4c0.6,3.8,0.2,7-3.3,9.2c-1.5,0.9-2.8,2.2-4.1,3.3
	c-6.1,5-13,7.7-20.9,8.6c-17.1,1.9-33.6,6.3-49.4,13.3c-22.9,10.2-41.8,25.4-56,46c-18.3,26.6-35.3,54.1-50.6,82.6
	c-5,9.4-7.9,19.5-9.2,30.1c-1.7,13.5-0.8,26.8,1.2,40.2c0.4,3,0.6,6,0.8,9.1c0.4,6.4,1.4,12.7,3.9,18.7c4.7,11.2,13,17.9,25,20.2
	c5.6,1.1,11.1,1.2,16.7,0.5c11-1.3,22.1-1.2,33.1-0.2c14,1.4,28,2.4,42.1,3.5c8.8,0.7,17.5,1.9,26.2,3.2c26.2,3.9,52.5,5.9,78.9,4.2
	c8.9-0.6,17.8-1.8,26.7-3c10.6-1.4,21.2-2.9,31.8-4.6c17.2-2.7,34.2-6.6,50.4-13.3c9.8-4,19.3-8.6,28.5-13.8
	c10.1-5.8,19-12.9,26.4-22c6.9-8.6,15.7-15,25.6-19.8c7.5-3.7,15.3-6.4,23.3-8.8c3.7-1.1,7.3-2.3,10.8-3.9
	c10-4.4,17.1-11.7,20.6-22.1c2.8-8.1,6.4-15.7,10.8-23c11.3-19.1,22.7-38.2,34-57.4c3.1-5.3,7.2-9.7,12.1-13.4
	c20.5-15.7,38.2-34,52.2-55.8c4.6-7.1,11.5-11.5,19.1-14.6c5.7-2.3,11.7-3.1,17.8-3.6c0.3,0,0.6,0,1,0c11.7,0.2,23.4,0.2,35,0.6
	c12.8,0.4,24.9,4,36.3,9.7c8.8,4.3,16.9,9.7,24.6,15.7c5.8,4.5,11.3,9.4,17.1,14c2.7,2.2,4.6,4.8,5.4,8.3c1,4.4,3.5,7.9,7.1,10.5
	c2.7,2,5.6,3.8,8.5,5.4c19.5,10.4,39,20.7,58.5,31c1.7,0.9,3.4,1.8,4.9,3c3.5,2.7,4.9,6.2,3.7,10.6c-0.1,0.5-0.2,0.9-0.3,1.4
	c-5.3,16.1-10,32.4-16.1,48.2c-1.3,3.3-2.7,6.5-4,9.8c-1.6,4.1-4,7.7-7.1,10.7c-4.8,4.7-9.8,9.2-14.7,13.7c-0.7,0.6-1.6,1-2.5,1.2
	c-8.1,1.8-16.2,3.5-24.4,5.1c-1.9,0.4-3.8,0.4-5.7,0.5c-6.6,0.3-12,3.1-16.1,8.2c-1.4,1.7-2.5,3.7-3.9,5.5c-1.9,2.4-3.6,4.9-5.8,7
	c-5.8,5.5-12.8,7.6-20.7,6.7c-3.5-0.4-6.9-1.3-10.4-1.8c-7.2-1.1-10.2,1.3-10.5,8.6c-0.1,4.8-0.1,9.6,0.4,14.4
	c0.9,10.5,2.1,21,3.3,31.5c0.3,2.9,0.8,5.7,0.9,8.6c0.1,2.5,0,5.1-0.5,7.6c-1.2,6.4-5,10.6-11.3,12.4c-0.9,0.3-1.9,0.5-2.8,0.7
	c-1.2,0.3-2.5,0.6-3.7,0.9c-10.9,2.9-14.3,7.5-15.9,18.4c-0.6,4-0.9,8-1.5,11.9c-2.4,16-7.4,31.1-14.6,45.5
	c-6.2,12.4-12.7,24.8-19,37.2c-3.7,7.3-7.5,14.5-11,21.8c-2.1,4.5-4.1,9-5.6,13.7c-2.1,6.4-4.6,12.6-7.6,18.6
	c-6.5,13.2-12.8,26.5-18,40.3c-5.4,14.6-9.1,29.6-10.3,45.2c-0.7,9.1-3,18-5.2,26.8c-2.2,9-4.6,18-6.3,27.1
	c-1.3,6.6-2.1,13.3-2.6,20c-0.7,9.7-1.1,19.5-1.1,29.2c-0.2,20.6-0.9,41.3-2.2,61.9c-0.8,12.1-2,24.2-3.1,36.3
	c-0.4,4.5-0.5,8.9,0.4,13.4c1.1,5.4,4.1,9,9.3,10.6c3.2,1,6.5,1.6,9.8,2c3,0.4,6.1,0.4,9.1,0.4c8.9,0,17.4,2.4,25.7,5.3
	c3.3,1.2,5.7,3.4,7.8,6.2c1.7,2.4,2.6,5.1,2.7,8c0.1,4.9-0.9,9.6-3.3,13.9c-6.8,12.5-17.3,19.4-31.4,20.8c-4,0.4-8-0.5-11.8-1.8
	c-3.9-1.4-7.8-2.8-11.7-4.2c-1.2-0.4-2.4-0.8-4-1.3c-0.1,1.2-0.3,2-0.2,2.9c0.4,3.3,0.9,6.7,1.2,10c0.4,4.3-0.8,8.2-3.5,11.7
	c-2.1,2.7-4.9,4.5-8.4,5.1c-12.3,2.1-24.7,3.9-37.1,4.3c-10.3,0.3-20.5-0.5-30.4-3.5c-6.8-2.1-13.1-5.1-18.7-9.6
	c-2.2-1.8-4.2-3.9-6.1-6c-2.3-2.6-3.2-5.7-3.3-9.3c-0.1-5.1-0.3-10.2-0.8-15.3c-1.5-13.4-5.4-26.3-10.5-38.8
	c-3.2-7.7-6.8-15.2-10.3-22.7c-2-4.2-3.8-8.5-5-13c-1.6-6.1-2.2-12.3-1.8-18.5c0.4-6.9,1-13.7,1.1-20.6c0.1-9.6-1-19.1-3.4-28.5
	c-2.1-8.4-3.3-16.9-4.2-25.5c-1.1-11-2.3-22-3.4-32.9c-0.8-7.6-1.4-15.3-2.2-22.9c-0.6-5.9-1.3-11.8-2.1-17.6
	c-0.1-0.9-0.4-1.9-0.6-2.8c-2.4-9.3-8.8-14.8-18.5-15.4c-5.3-0.3-10.6-0.1-15.8,0.3c-8,0.6-16,0.7-24,0.4
	c-9.3-0.4-18.5-0.8-27.8-1.4c-15.6-1-31.3-1.9-46.9-3.3c-15.8-1.4-31.5-3.2-47-6.5c-8.6-1.9-17-4.5-25-8.3
	c-7.1-3.3-14.4-6.1-22.2-7.5c-8.8-1.6-17.5-1.4-26.1,1.2c-6,1.8-11.8,4-17.4,6.8c-9.3,4.5-16.6,11.1-21.8,20.2
	c-13.3,23.2-31.7,41.5-54.6,55.4c-25,15.2-45.8,34.9-60.6,60.3c-5.6,9.5-10.7,19.3-15.9,29c-2.6,4.8-4.9,9.7-7.4,14.5
	c-2,3.9-3.2,8-3.2,12.4c0.1,8.2,0.2,16.3,0.4,24.5c0.1,3.8,0.4,7.7,0.6,11.5c0.1,1.3,0.1,2.6,0.2,3.8c0.9,7.2,4.6,12.5,11.4,15.4
	c4.3,1.8,8.5,3.6,12.7,5.7c5.5,2.8,10.2,6.6,13.5,11.9c1,1.6,1.8,3.4,2.6,5.1c0.9,2,1,4,0,6c-1.5,3.2-2.7,6.5-4.4,9.6
	c-3.5,6.5-8.9,9.7-16.5,9.5c-11.7-0.3-23.4-0.7-34.9-3c-5-1-9.9-2.6-14.8-3.9c-0.6-0.2-1.2-0.5-1.8-0.7c-9.8-3.8-15-11.1-16.1-21.4
	c-0.4-3.3-0.4-6.7-0.4-10.1c0-31.2,0.1-62.4,0.2-93.6c0-6.6-0.7-13.1-2.9-19.3c-3.2-9.2-1.4-17.7,4.5-25.3c1.7-2.1,3.6-4.1,5.5-6
	c3.4-3.6,7-7.1,10.4-10.6c2.2-2.2,3.7-4.8,4.9-7.6C1074.5,1125.2,1073.7,1124.5,1072.4,1123.9z"/>
</svg>
