<?xml version="1.0" encoding="utf-8"?>
<!-- Generator: Adobe Illustrator 22.0.0, SVG Export Plug-In . SVG Version: 6.00 Build 0)  -->
<svg version="1.1" id="Layer_1" xmlns="http://www.w3.org/2000/svg" xmlns:xlink="http://www.w3.org/1999/xlink" x="0px" y="0px"
	 viewBox="0 0 2880 1800" enable-background="new 0 0 2880 1800" xml:space="preserve">
<path d="M1142.6,1029.3c-5.1,6.6-10,12.9-14.9,19.2c-8.9,11.7-18,23.3-26.8,35.1c-13.5,18.1-27.8,35.5-42.9,52.3
	c-7.1,7.8-13.8,15.9-20.6,24c-14,16.7-24.6,35.4-32.5,55.7c-7.3,18.6-13.5,37.6-18.3,57c-0.6,2.6-1.1,5.3-1.3,8
	c-0.5,5.3,0.9,10.1,4.2,14.4c3.6,4.7,6.2,10.1,8.8,15.4c5.4,10.9-2.4,24.3-14,25.8c-0.3,0-0.6,0.1-1,0.1c-9.7,0.5-19.5,1-29.2,1.3
	c-5,0.2-9.8-0.8-14.6-2.3c-3.2-1-6.5-1.7-9.7-2.6c-1.5-0.4-3.1-0.7-4.5-1.1c-0.8-3.6-0.9-14.5-0.3-21.5c2-1.4,3-3.7,3.8-6.1
	c11.9-37.5,22.5-75.3,32-113.5c2.8-11.5,4.9-23.1,7.4-34.7c1.1-5.3,2.4-10.6,3.5-15.9c0.8-3.9,2.6-7.2,5.1-10.2
	c2.1-2.4,4.2-4.8,6.5-7.1c5.5-5.4,11.1-10.7,16.6-16c2.9-2.8,5.7-5.6,8.5-8.5c5.1-5.1,8.6-11.1,10.9-17.9c2.1-6.1,3.3-12.3,4.5-18.6
	c2.5-13.5,4.9-27.1,7.2-40.6c2-11.5,3.2-23.1,4.4-34.7c1.4-12.7,2.7-25.4,4.4-38.1c2.2-16.8,4.7-33.6,7.2-50.3
	c2.8-18.3,5.2-36.7,9.6-54.8c1.6-6.5,3.5-13,5.8-19.3c3.7-10.7,9.3-20.4,16.4-29.1c3.3-4.1,6.7-8.1,10.2-12.1
	c4.8-5.4,9.1-11.1,13.3-17c0.3-0.4,0.6-0.8,0.8-1.2c2.8-4.2,2.8-5.8-0.3-10c-2.5-3.4-5.2-6.5-8.6-9c-9-6.6-17.9-13.4-27.1-19.8
	c-6-4.1-8.9-9.4-8.5-16.6c0.2-3.8,0.6-7.7,1.8-11.3c1.9-5.7,5.6-9.6,11.2-11.7c8.7-3.2,17.3-2.7,25.4,2.1c1.2,0.7,2.4,1.6,3.6,2.4
	c13.1,8.6,26.3,17.1,39.4,25.7c4.1,2.7,8.3,3.4,13.2,2.3c16.4-3.8,33-6,49.8-7.2c15.5-1.1,31-1.5,46.5-1.7
	c38.4-0.6,76.8-1.4,115.2-2.2c16.8-0.4,33.6-1.1,50.4-1.7c10.6-0.4,21-1.6,31.5-3c12.2-1.6,24.5-2.6,36.8-2.7
	c6.6-0.1,13.1-0.8,19.5-2.3c10.3-2.4,19.6-6.7,28.1-12.9c8.8-6.4,18.5-10.8,29.1-13c5.1-1.1,10.4-1.5,15.6-2.3
	c3.8-0.6,7.6-1.1,11.3-2.1c9.1-2.6,16.4-7.8,21.8-15.6c1.2-1.7,2.3-3.5,3.3-5.3c18.8-35.2,40.6-68.5,64.6-100.4
	c2.2-2.9,4.3-6,6.5-8.9c3.4-4.4,4.4-9.3,3.7-14.9c-0.9-7.5-1.2-15-1.6-22.5c-0.3-6.2,2.3-11.2,7-15.1c1.2-1,2.6-1.9,3.9-2.8
	c12.6-8.4,25.3-16.9,38-25.2c2.1-1.4,4.5-2.5,6.8-3.4c2.9-1.1,5.6-2.4,7.4-5.3c3.2,0,6.3,0,9.8,0c1.2,3.5,4.1,4.1,7.6,4.1
	c6.1-0.1,12.2,0.2,18.2,0.1c16.6-0.4,32.4,3.3,47.5,9.9c13.7,5.9,26.4,13.6,38.8,22c8.3,5.7,13.5,13.5,14.9,23.6
	c1.2,8.7,2.5,17.4,3.8,26.1c0,0.3,0.1,0.6,0.1,1c0.3,6.6,3.4,11.2,9,14.9c17.1,11.2,34,22.9,50.9,34.4c2.1,1.4,4.2,3,5.9,4.9
	c4.9,5.1,6.2,11.1,3.7,17.7c-0.7,1.9-1.7,3.8-2.7,5.6c-4.5,8.3-9,16.6-13.5,24.9c-7.9,14.4-20.3,22.7-35.9,26.6
	c-5,1.2-10,2.1-15.2,2.1c-13.3-0.1-26.5-0.3-39.8-0.7c-6.6-0.2-13.1-0.7-19.6-1.1c-1-0.1-1.9-0.1-2.9,0c-3.4,0.3-6.1,1.9-7.7,5
	c-0.7,1.3-1.2,2.6-1.7,3.9c-6,15.5-9.2,31.5-9.4,48.2c-0.2,10.2-1,20.4-1.6,30.7c-1.2,18.7-2.9,37.3-2.4,56.1
	c0.4,13.1-0.5,26.2-2.7,39.2c-1.8,10.1-4.9,19.8-9.5,29.1c-4.6,9.3-8.9,18.8-13.1,28.3c-4.2,9.4-6.4,19.4-7.3,29.7
	c-1,11.6-2.6,23.2-5.7,34.5c-4.5,15.9-7.5,32.1-9.5,48.4c-1,8.1-2.7,16.1-5.2,23.9c-4.7,14.2-7.7,28.7-8.9,43.6
	c-0.2,1.9-0.2,3.8-0.3,5.8c-0.9,14.9-1.7,29.7-2.6,44.6c-0.3,5.7-0.8,11.5-1.1,17.2c-0.9,15.8-2,31.6-2.6,47.4
	c-0.4,9.1-0.2,18.2-0.1,27.4c0.2,10.1,0.5,20.2,0.9,30.2c0.1,2.7,0.4,5.4,0.6,8.1c0.2,3.2,1.9,5.4,4.8,6.6c2.1,0.9,4.2,1.6,6.3,2.4
	c2.9,1.2,5.9,2.4,8.7,3.9c6.3,3.5,11.2,8.4,14.9,14.6c1.8,2.9,2.9,6,3,9.5c0.1,4.9-2,8.7-6.2,11.1c-2,1.2-4.4,2.1-6.7,2.4
	c-6.5,0.8-13.1,1.2-19.6,1.7c-4.5,0.3-8.9,0.5-13.4,0.8c-6.1,0.4-11.8-0.7-17.1-3.6c-4.2-2.3-7.4-5.5-9.2-10
	c-2.5-6.2-5.1-12.4-7.6-18.7c-0.6-1.6-1-3.4-1.2-5.1c-0.7-8.6-4.2-16-9.5-22.6c-0.9-1.1-1.9-2.2-2.8-3.3c-0.9-1.1-1.8-2.2-2.6-3.4
	c-4.2-6.1-5.8-12.7-3.8-20.1c1.5-5.4,2.5-10.9,3-16.5c0.3-2.9,0.6-5.7,0.7-8.6c0.3-10.7,0.2-21.4-0.6-32.1
	c-0.4-5.7-0.6-11.5-0.9-17.3c-0.8-13.6-1.9-27.1-2.6-40.7c-0.4-8.3,0-16.6-0.1-24.9c0-2.4-0.3-4.8-0.6-7.2c-0.1-0.6-0.2-1.3-0.5-1.8
	c-0.2-0.4-0.7-0.8-1.1-0.8c-0.4,0-1,0.4-1.1,0.7c-0.4,1.9-0.9,3.7-1.1,5.6c-0.4,5.9-0.6,11.8-0.9,17.7c-0.9,19-1.9,38-2.8,57
	c-0.9,18.1-1.6,36.1-2.5,54.2c-0.9,17.9-1.5,35.8-1.5,53.7c0,4.8,0.1,9.6,0.1,14.4c0,5.8,2.2,10.7,6.6,14.3c2.9,2.5,6.2,4.5,9.4,6.6
	c3.4,2.3,7.1,4.4,10.3,7c5.8,4.6,9.8,10.5,11.4,17.8c0.5,2.5,0.7,5.1,0.7,7.6c0,3.1-1.7,5.1-4.6,6.1c-1.3,0.5-2.8,0.8-4.2,1
	c-3.9,0.4-7.3,1.6-10.5,4.2c-5.2,4.2-11.4,5.7-18,4.8c-6.2-0.8-12.4-1.5-18.6-2.3c-6.8-0.9-12-4.4-14.8-10.8c-1.1-2.5-2-5.1-2.5-7.7
	c-2.8-15.9-10.1-29.5-20.5-41.6c-1.6-1.8-3.2-3.6-4.6-5.5c-5.2-7-6.6-14.8-3.9-23.1c2.4-7.3,4.2-14.7,5.2-22.4
	c1.1-8.6,0.9-17.2,0.4-25.9c-0.4-6.9-0.9-13.7-1.4-20.6c-1.1-15.2-2-30.3-3.3-45.5c-1.5-17.5-3.6-35-6.2-52.4
	c-1.9-12.6-3.5-25.3-5.2-38c-0.9-6.8-1.9-13.6-2.9-20.4c-0.5-3.6-2.4-5.4-6-5.6c-4.5-0.3-8.9-0.5-13.4-0.7c-9.4-0.4-18.9-1-28.3-1.1
	c-12.7-0.2-25.2-1.4-37.6-4c-20.5-4.2-41-8.3-61.4-13.4c-22.5-5.6-44.4-13-65.7-22.5c-25.5-11.4-51.4-22.1-77.1-33.1
	c-6.1-2.6-7.8-1.8-10.2,4.2c-5,12.1-10,24.2-15,36.4c-6.7,16.3-16.1,30.9-28.1,43.8c-5.3,5.7-10.7,11.4-16.3,16.9
	c-20.4,20.1-40.9,40.1-61.4,60.1c-1.8,1.8-3.7,3.6-5.5,5.4c-10,9.8-15.2,21.8-15.4,35.6c-0.2,14.1,0.2,28.2,0.4,42.2
	c0,3.8,0.4,7.7,0.3,11.5c0,8.8,1.2,17.5,2.1,26.3c0.3,3.3,2,5.3,5.2,6.1c2.2,0.5,4.4,1,6.6,1.5c6.5,1.5,12.3,4.4,17.3,8.9
	c4.9,4.3,8.3,9.7,9.8,16.1c0.4,1.8,0.5,3.8,0.5,5.7c0,2.3-1.3,3.9-3.4,4.7c-1,0.4-2.1,0.8-3.2,0.8c-4.8,0.2-9.5,1.4-14.1,2.8
	c-5.1,1.6-10.2,2.1-15.6,1.6c-9.5-1-19.1-1.6-28.7-2.4c-1.3-0.1-2.5-0.3-3.8-0.6c-4.6-1.1-6.4-3.1-7.1-7.8c-0.3-2.4-0.6-4.8-0.7-7.2
	c-0.8-14.9-1.4-29.7-2.3-44.6c-1.1-18.5-2.4-37-4.8-55.4c-1.4-10.1-3.4-20.2-6-30.1c-1.5-5.7-2.6-11.5-2.7-17.5
	c-0.2-10.7,4-19.2,12.3-25.8c2-1.6,4.1-3.1,6.1-4.7c10.9-8.7,19.9-19,26-31.6c3-6.1,4.7-12.6,4.9-19.4c0.1-3,0.2-6.1,0.1-9.1
	c0-0.7-0.5-1.5-0.9-2.1C1143.9,1029.7,1143.3,1029.6,1142.6,1029.3z"/>
</svg>
