<?xml version="1.0" encoding="utf-8"?>
<!-- Generator: Adobe Illustrator 22.0.0, SVG Export Plug-In . SVG Version: 6.00 Build 0)  -->
<svg version="1.1" id="Layer_1" xmlns="http://www.w3.org/2000/svg" xmlns:xlink="http://www.w3.org/1999/xlink" x="0px" y="0px"
	 viewBox="0 0 2880 1800" enable-background="new 0 0 2880 1800" xml:space="preserve">
<path d="M1279,1305.7c-8.7,1.7-17.2,3.2-25.9,4.9c-0.2-1.2-0.4-2.2-0.7-3.5c-4.3,0.4-8.6,0.8-12.8,1.3c-12.4,1.6-24.7,3.4-37.1,5
	c-3.5,0.5-7,0.6-10.5-0.2c-2.8-0.7-5.6-0.6-8.5,0.2c-2.9,0.8-5.9,1.2-9,0.9c-5.3-0.5-9.8-2.6-13.8-6.1c-3.2-2.8-5.8-6-8.2-9.4
	c-2-2.9-3.9-5.8-6.1-8.6c-1.5-2-3.2-4-5-5.8c-2-2.1-4.6-3.6-7.5-4c-5.7-0.8-11.4-0.4-17.3,0.2c0.1,2,1.6,3,2.4,4.2
	c0.8,1.2,1.8,2.2,2.7,3.4c0.9,1.2,2.3,2.3,2.6,4.2c-2.1,0.4-4.1,0.8-6.1,1.1c-5.4,0.8-10.8,1.6-16.1,2.5c-3.1,0.5-6.1,0.2-9.1-0.4
	c-7.2-1.6-11.7-7.1-11.5-14.4c0.1-3.3,0.8-6.7,1.3-10c0.3-2.4,0.6-4.7,0.9-7.3c-2.6-1.2-5.1-2.3-7.8-3.6c1.6-2.6,4.5-3.2,6.3-5.4
	c-1.1-1-2.2-0.5-3.3-0.4c-1.1,0-2.2,0.2-3.3,0.3c-1.1,0.1-2.2,0.3-3.3,0.3c-1,0-2.1,0-3.9,0c3.1-2.7,6.3-3.9,8.8-5.9
	c-0.1-1.6-1.3-1.4-2.1-1.6c-4.9-1-9.7-1.8-14.6-3c-2.3-0.5-4.5-1.5-6.8-2.4c-0.5-0.2-0.9-0.7-1.6-1.3c2.8-1.4,5.6-0.7,8.5-1.7
	c-1.5-2.2-4.4-1.5-5.5-3.3c0-0.3-0.1-0.5,0-0.6c0.1-0.1,0.3-0.2,0.4-0.2c2-0.4,4-0.9,6.5-1.4c-0.7-0.8-1-1.4-1.6-1.8
	c-2.2-1.6-4.6-2.8-7.3-5c5.9-0.2,11,1.5,16.4,1.3c-0.7-2.5-3.3-3.1-4.3-5.4c2.9-3.4,6.6-5.2,11.2-4.7c2.9,0.3,5.7,0.7,8.5,1.2
	c1.7,0.3,3.1,0.1,4.5-0.9c3-2,6.2-3.7,9.4-6.2c-6.1-4.1-12.9-6.2-18.5-10.7c17.3,2.9,34.6,5.8,52,8.7c1.1-1.9,1.4-3.7,1.5-5.8
	c-1-0.3-1.8-0.8-2.7-0.9c-5.7-1.1-11.3-2.1-17-3.1c-1.4-0.3-2.8-0.7-4.7-1.1c1.6-1.2,2.8-2.1,4.4-3.3c-0.7-0.5-1.3-1-1.9-1.3
	c-2.5-1-5.1-1.9-7.6-2.9c-1.1-0.4-1.1-1.4-0.9-2.6c0.9-0.1,1.8-0.4,2.7-0.4c4.6,0,9.3,0,13.9,0.2c15.4,0.6,30.7-1.2,45.8-4.3
	c3.4-0.7,6.8-1.3,10-1.9c0.6-1.2-0.2-1.5-0.7-1.7c-3.1-1.6-6.3-3.1-9.5-4.7c-1.1-0.6-2.2-1.2-3.7-2.1c2.1-1.5,4.3-2,6.2-2.8
	c1.9-0.8,3.9-1.5,5.8-2.2c2.1-0.8,4.2-1.5,6.3-2.4c1.9-0.8,3.9-1.2,5.9-2.6c-2.8-3.1-6.7-4.7-9.5-7.4c-0.5-1.5,0-2.8,1-4
	c0.8,0,1.5-0.1,2.3-0.1c12.6,0,25.3,0,37.9,0c5.6,0,11.2,0.7,16.6,2.3c4.2,1.3,8.5,1.8,12.8,1.4c2.1-0.2,4.1-0.5,6.1-1.1
	c3.1-1,4.3-2.9,4.1-6.2c-0.1-1.7-0.5-3.5-0.9-5.2c-0.2-1.1-0.6-2.2-1-3.2c-4.6-11.6-10.2-22.7-15.6-34.2c-1.2,0.2-2.3,0.3-3.3,0.5
	c-0.2-0.2-0.6-0.3-0.7-0.5c-1.4-3.6-2.7-7.2-4-10.8c-0.8-2.4-0.8-4.6,0.6-6.9c2.9-4.9,3-10,1.3-15.3c-0.4-1.2-0.7-2.5-1.2-3.6
	c-2.8-6.8-3.4-13.9-3.2-21.2c0.3-7.2,0.6-14.4,1-21.6c0.2-3.5,0.1-6.9-0.6-10.9c-1.8,1.6-1.9,3.5-2.6,5c-0.6,1.5-1.1,3-1.7,4.5
	c-0.6,1.6-1.3,3.2-2,5.2c-2.2-1.6-3.1-3.7-4.5-5.3c-1.4-1.7-2.6-3.6-4.1-5.4c-1.4,0.9-1.7,2.2-2.2,3.3c-0.5,1-0.9,2-1.4,3.1
	c-0.5,1.1-1.1,2.3-1.8,3.7c-0.4-0.6-0.8-0.9-0.9-1.2c-1.2-6.8-1.4-13.7-0.2-20.5c1.3-7.3,4.9-13.4,10.4-18.5
	c0.8-0.8,1.6-1.5,2.4-2.3c0.1-0.1,0-0.3,0-0.8c-2.3-0.1-4.6-0.2-7.4-0.3c0.4-0.8,0.6-1.6,1.1-2c2.4-2.3,4.8-4.6,7.3-7
	c-1.4-1.9-3.8-1.2-5.4-2.8c2.4-4.9,5.6-9.5,8.4-14.2c2.8-4.8,5.8-9.5,8.9-14.6c-1.4-0.5-2.3-1-3.3-1.2c-9.5-2-19.1-4-28.6-6
	c-1.2-0.3-2.5-0.6-4.2-1.1c3.2-2.3,6.8-2.5,9.7-4.3c0.4-1.9-1.9-2.2-2-3.6c0.2-0.2,0.3-0.6,0.5-0.6c3.5-0.6,6.9-1.2,10.4-1.7
	c3-0.5,6-0.8,9-1.3c0.8-0.1,1.5-0.4,2.6-0.8c-3.4-3.9-7.9-5.8-11.5-9.4c0.5-0.7,1-1.5,1.7-2.1c5.2-4.7,10.5-9.4,15.8-14.1
	c1.1-0.9,2.1-2,3-2.8c-0.2-1.3-1.1-1.2-1.9-1.3c-1.1-0.2-2.2-0.3-3.5-0.5c-0.1-1-0.2-1.9-0.1-2.8c0.2-1.6,0.6-3.1,0.8-4.7
	c0.3-2.8-0.6-4.2-3.3-4.9c-1.1-0.3-2.2-0.4-3.5-0.6c1-2.9,3.6-4.6,4.9-7.1c-0.7-0.9-1.4-0.3-2.1,0c-4.1,1.9-8.1,3.8-12.1,5.7
	c-1.1,0.5-2.3,1-3.8,1.6c0-0.9-0.1-1.5,0-2.1c0.8-3.1,1.6-6.2,2.4-9.3c0.2-0.8,0.4-1.7,0.9-2.2c2.2-2.6,2.6-5.8,3.2-8.9
	c2.5-13.4,5-26.7,7.7-40c0.5-2.6-0.1-4.7-1.6-6.7c-1.2-1.6-2.5-3.3-3.5-4.8c0.5-1.7,1.6-1.3,2.5-1.3c5.9,0,11.8,0,17.8,0
	c1.6,0,3.1-0.1,5-0.2c-0.1-1.2-0.1-2.2-0.3-3.1c-4.9-17.6-15.8-29.3-33.7-34.1c-1.4-0.4-2.8-0.7-4.2-1c-4.1-1.1-7.8-2.9-11-5.7
	c-10.5-9.3-21.1-18.6-31.7-27.9c-1.3-1.1-2.6-2.2-4.6-3.8c0.2,2.8,0.4,4.7,0.6,7.4c-0.9-0.9-1.5-1.3-1.9-1.9
	c-11-18-19.9-36.8-24.4-57.6c-2.7-12.4-3.5-25-2.6-37.7c0.3-3.4,1.3-6.6,2.5-9.7c2-4.9,4.8-9.4,7.7-13.8c3.5-5.2,7.1-10.3,10.3-15.6
	c3.1-5,6-10.2,8.6-15.5c3.4-7,5-14.5,4.7-22.3c0-0.7-0.2-1.4-0.4-2.8c-2.9,3.2-4.3,6.6-6.7,9.3c-1.3-0.2-1.3-1.3-1.6-2.1
	c-1.1-3-2.1-6.1-3.1-9.1c-0.4-1-0.8-2-1.4-3.3c-2.1,3.4-2.8,6.9-4,10.1c-1.2,3.1-2.3,6.3-3.6,10.1c-0.6-1.3-1.1-1.9-1.2-2.5
	c-1-8.3,0.9-15.9,5.6-22.8c2.3-3.5,5.1-6.6,8.3-9.3c13.2-11.2,22-25.3,27.1-41.7c3.3-10.5,8.3-20.1,14.5-29.1
	c2.5-3.7,5-7.5,7.4-11.2c0.5-0.8,0.9-1.6,1.4-2.7c-2.8-0.5-4.9,1-7.8,1c0.6-0.9,0.9-1.5,1.4-2c2.4-2.2,4.8-4.2,7.2-6.4
	c0.8-0.7,1.6-1.5,3-2.8c-1.4,0.2-2.1,0.1-2.7,0.4c-4.3,1.6-8.7,3.3-13,5c-1.2,0.4-2.4,0.8-4.4,1.5c3-4.6,6.3-7.6,9.3-11
	c3-3.5,6.2-6.9,9.3-10.4s6.2-6.9,9.3-10.4c3.1-3.5,6.2-6.9,9.4-10.6c-0.9-1-1.6-2-2.4-2.9c-0.8-0.8-1.5-1.6-2.4-2.4
	c-2.3-1.9-2.5-4.3-1.7-7c0.5-1.5,1-2.9,1.7-4.7c-1.9-0.3-3,0.6-4.3,1c-1.3,0.4-2.7,1-3.9,1.4c-0.9-0.9-0.5-1.7-0.1-2.3
	c1-1.4,2.1-2.8,3.3-4.1c16.5-18.2,36.6-30.8,59.8-38.6c8.5-2.8,17.2-4.9,26-6.5c11.3-2.1,22.6-4.3,33.9-6.4
	c7.9-1.5,15.8-2.6,23.8-3.2c10.7-0.8,21,1,31.2,4c4,1.2,7.9,2.7,11.8,4c1.4,0.5,2.7,0.9,4.1,1.4c4.4,1.6,8.2,0.6,11.2-2.9
	c0.8-1,1.7-1.9,2.8-3.1c5.2,3.6,10.1,7.5,15.1,11.2c4.9,3.6,9.7,7.3,14.5,10.8c2.5-1.5,2.6-1.6,1.9-3.2c-0.7-1.6-1.6-3.2-2.3-4.7
	c-0.4-0.8-0.7-1.7-1.2-3c1.9,0.4,3,1.4,4.1,2.1c10.6,6.9,22,11.7,34.3,14.3c11.2,2.4,22.5,2.9,33.9,2c12.3-1,24.4-3.1,36.4-6
	c9.7-2.4,19.5-3.6,29.4-4c14.4-0.5,28.8-0.7,43.2-1c0.6,0,1.2,0.1,1.8,0.2c0.8,1.6,1.2,3.1,0.7,4.8c-3.2,1.4-6.8,1.6-10.1,2.4
	c-2.2,0.5-4.4,0.8-6.6,1.3c-0.7,0.2-1.2,0.7-2.1,1.2c1.8,1.5,3.6,1.2,5.3,1.5c1.7,0.3,3.5,0,5.3,1.4c-1.4,3.1-2.7,6.3-4,9.4
	c1.2,1.5,2.7,1.4,4.1,1.6c7.4,1.1,14.9,2.1,22.3,3.1c1.9,0.3,3.5,0.7,3.5,3.4c-4.9,3.5-10.8,5.7-15.8,8.9c0,0.5,0,0.6,0.1,0.7
	c0.1,0.1,0.3,0.2,0.4,0.2c11.6,1,23.2,2.1,34.8,3.1c0.7,1,0,1.6-0.6,2.1c-2.7,2.5-5.3,5.1-8,7.6c-0.5,0.5-0.9,1.2-1.6,2.2
	c6.5,0.8,12.5,1.1,18.5,1.8c5.8,0.7,11.8,0.5,17.9,2.1c-0.5,0.8-0.7,1.8-1.2,2c-1.2,0.3-2.5,0.3-3.8,0.3c-3.5,0-7,0-10.9,0
	c0.3,1.1,0.3,1.9,0.6,2.6c1.1,2.3,2.3,4.6,3.4,6.9c0.3,0.7,0.5,1.4,0.9,2.5c-3.1-0.1-5.7-0.3-8.4-0.4c-0.4,1.6,0.9,1.6,1.6,2
	c6.6,3.9,13.4,7.6,19.8,11.7c15.7,10.1,29.7,22.2,41.1,37.1c2.8,3.7,5.3,7.6,8,11.4c1,1.4,1.2,2.8,0.7,4.5c-2.2,8.5-1.3,16.9,2,24.9
	c2,4.9,4.4,9.6,6.7,14.3c2.2,4.6,4.5,9.2,6.6,13.9c0.8,1.8,1.8,3.7,1.7,5.8c-0.9,0.8-1.6,0.1-2.2-0.2c-2.9-1.6-5.9-3.2-9.3-5.1
	c0,1.2-0.2,2,0,2.6c1,4,2.1,8,3.2,12c0.2,0.7,0.3,1.5,0.5,2.9c-3.2-2.3-4.4-5.6-6.9-7.6c-1.2,0.3-0.9,1-0.9,1.6
	c0.1,6.2,1.8,12,4.4,17.5c2.7,5.7,6.3,10.8,10.3,15.6c4.7,5.7,9.4,11.3,14.1,17c0.9,1,2,2,2.2,3.8c-3.6-0.7-6.1-2.9-8.8-4.5
	c-1.6,0.4-2,1.4-1.7,2.6c1.7,6.3,3.2,12.7,5.1,19c0.9,2.9,2.4,5.5,3.7,8.3c1.6,3.6,3.5,7.2,4.9,10.9c3.8,10.7,3.8,21.5-1.1,31.8
	c-2.5,5.4-2.6,10.4-1,15.8c0.7,2.3,1.2,4.6,1.8,7c0.1,0.5,0.2,1.1-0.4,2c-1.7-2-3.3-4-5.5-6.7c-0.1,1.3-0.2,1.9-0.1,2.4
	c3.6,17.7,1.5,35-3.6,52.1c-3.6,11.9-7.6,23.8-11.2,35.7c-2.3,7.5-4.4,15-6.6,22.5c-0.5,1.8-0.8,3.7-1.1,5.6
	c-0.7,5.9,1.6,9.8,7.2,12.1c1,0.4,2.1,0.8,3.2,1c2.1,0.5,3.9,1.7,5,3.5c4.9,7.5,11.2,13.9,16.9,20.8c0.2,0.2,0.3,0.6,0.6,1.1
	c-1.5,3.7-4.3,7.1-6,11.4c8.1,1.2,15.7,1.2,24,2.3c-4.1,3.2-8.6,4.1-12.2,6.5c0.2,2,2.7,1.9,2.9,3.8c-2.7,1.9-6.1,2.5-9,4.6
	c3.4,1.8,7.1,1.4,10,3.1c-0.2,0.6-0.1,0.8-0.2,0.9c-0.2,0.2-0.5,0.4-0.8,0.4c-4.9,0-9.9,0-14.7,0c-0.4,1.4,0.5,1.7,1.2,2
	c1.8,1.1,3.6,2.1,5.4,3.2c0.6,0.4,1.2,0.9,2.1,1.6c-1.7,1.1-2.9,1.9-4.4,2.9c1.2,3.1,3.8,5.2,4.9,8.1c-1.1,1.4-2.7,1.3-4,1.6
	c-1.4,0.4-2.1,1.3-2.1,3.1c3.5,2.3,7.5,3.8,11.4,5.6c3.9,1.9,7.8,3.7,12.2,5.8c-2.6,1.3-4.7,2.3-7,3.4c0.6,1.7,1.1,3.2,1.8,4.6
	c1.2,2.6,1.3,5.1,0.2,7.8c-1,2.5-1.6,5.2-2.1,7.8c-1.7,8.2,0.5,15.5,5.5,22.1c3.1,4,6.9,7.1,11,9.9c1.3,0.9,2.6,1.8,4,2.8
	c-1,1.3-2.1,0.7-3.1,0.8c-1.3,0-2.6-0.1-3.8-0.1c-1.1,0-2.2,0-3.8,0c0.5,1.5,0.8,2.7,1.4,3.8c4.9,10.6,9.7,21.2,14.6,31.8
	c0.7,1.4,1.3,2.9,1.9,4.3c-1.2,1.2-2.2,0.2-3.2,0c-1.8-0.4-3.4-1.8-5.8-1.2c2.9,3.8,5.6,7.3,8.4,11c-2,0.6-3.2-1.2-5.2-0.9
	c-1,4-0.8,8.3-1.2,12.5c-0.5,4.3-0.7,8.6-1,12.9c-0.3,4.5-0.7,8.9-1,13.4c-0.3,4.3-0.6,8.6-0.9,12.9c-0.3,4.2-0.2,8.5-1.2,13.2
	c-1.4-1.5-2.4-2.6-3.5-3.8c-5.2,6-10.6,11.5-14.9,17.9c-1.7,2.6-2.2,5.3-2,8.2c0.4,5.9,0.8,11.8,1.6,17.7c1.1,8.6,1.9,17.2,1.7,25.8
	c-0.1,2.5,0.2,5.1,0.6,7.6c0.8,5.2,3.8,8.7,8.8,10.4c0.9,0.3,1.8,0.7,2.9,1.1c-1,2.4-2.8,4.1-4,6c-1.2,1.8-2.9,3.3-3.7,5.7
	c1.4,0.7,2.7,0.4,3.9,0.3c1.1,0,2.2-0.2,3.3-0.3c1.3-0.1,2.6-0.2,3.8-0.2c1,0,2.1,0,3.8,0.1c-1.7,1.9-3.4,2.3-4.9,3
	c-1.4,0.7-2.9,1.4-4.3,2.1c-1.5,0.8-3,1.6-5.3,2.8c3.3,0.7,5.6,1.2,8.4,1.7c-1.4,2.3-3.5,3.2-5.2,4.5c-1.9,1.5-3.9,2.9-5.8,4.3
	c-1.8,1.3-3.6,2.6-5.4,4c-1.7,1.4-3.8,2.3-5.3,4.5c2.2,1,4.3,0.6,6.2,0.9c1.9,0.3,3.8,0.5,6.7,0.9c-2.1,0.8-3.2,1.2-4.3,1.6
	c-1.9,0.8-3.9,1.4-5.7,2.4c-3.4,1.9-4.3,4.3-3.4,8.1c0.8,3.2,2.6,5.8,4.3,8.5c1,1.6,2.3,3,3.3,5.2c-7-0.9-13-3.6-19.9-4.6
	c1.5,6.2,4.8,11.3,6.4,17.5c-1.8-0.1-3.1-0.3-4.6-0.4c-0.5,1.7,0.3,2.9,0.7,4.3c0.4,1.3,0.8,2.7,1.2,4c-2.3,1.1-4.1-1.2-6.5-0.4
	c0.1,0.7,0.1,1.4,0.3,2.2c0.5,2,0.9,4.1,1.5,6.1c0.5,1.6,0.2,3.1-0.6,4.6c-1.7,3.1-3.3,6.2-4.8,9.4c-2.2,4.7-3.8,9.5-4.5,14.6
	c-0.5,3.5-0.6,7,0,10.5c0.2,1.1,0.2,2.2,0.3,4c-3.1-2.4-3.9-6-6.5-8.3c-1.1,1.6-1,3.2-1.1,4.7c-0.4,5.3-0.6,10.5-1.2,15.8
	c-0.4,3.7-1,7.3-1.6,10.9c-0.6,4-2.4,7.6-4.9,10.8c-2,2.5-4.1,4.9-6.2,7.3c-1.7,1.9-3.4,3.8-5,5.9c-1.2,1.5-2.1,3.2-3,4.9
	c-2.4,4.9-1.9,9.6,1.4,14c1,1.4,2.2,2.7,3.5,4.3c-3.1,1.5-5.9,2.8-9.1,4.3c4.2,3.7,8.5,6.3,12.6,9.9c-3.4,2.7-7.1,4.1-10.6,6
	c-3.3,1.9-6.8,3.6-10.2,5.4c-3.5,1.9-7.1,3.7-10.4,5.5c-0.3,1.5,0.1,2.2,1.3,2.1c1.1,0,2.2-0.2,3.5-0.4c2.3,3.9,3.2,8.3,5,12.5
	c-0.7,0.8-1.3,1.5-2,2.1c-4.4,3.5-8.8,7-13.3,10.3c-11.9,8.6-25.1,13.9-39.8,15.3c-5.3,0.5-10.5,1.1-15.7,1.6
	c-5.3,0.5-10.5-0.1-15.7-1.2c-4.9-1.1-9.5-3-13.5-6c-3.3-2.5-7-3.6-11.1-4.1c-5.4-0.6-10.7-1.8-15.9-3.5c-14-4.6-23.4-14-28.2-27.9
	c-2.5-7.5-4.1-15.2-4.2-23c-0.1-8,0.3-16,0.4-24c0-2.9,0-5.7,0-8.5c-0.8-0.4-1.2,0.2-1.5,0.8c-1.3,2.5-2.6,5.1-4,7.9
	c-1-0.7-1.7-1.2-2.4-1.8c-0.7-0.6-1.4-1.3-2-2.1c-3.1-4.5-7.6-5.5-12.7-4.8c-3.5,0.4-6.9,1.3-10.2,2.6c-2.8,1.2-5.7,2.2-8.6,3.1
	c-3.1,1-6.3,1.1-9.5,0.3c-5.3-1.3-10.6-2.5-15.8-4c-7.6-2.1-15.3-3.6-23.2-3.1c-4.1,0.3-8.3,0.7-12.4,1.4c-9,1.6-17.6,4.6-26,8.2
	c-9.4,4-17.1,10-21.7,19.4c-0.1,0.3-0.4,0.5-0.6,0.7c-0.8-1.7-0.8-1.7-0.9-3.3c0-1.1-0.2-2.2-0.3-3.6c-1.1,0.1-2.1,0-2.8,0.4
	c-1.1,0.6-2,1.6-3,2.4c-12.1,10.2-24.1,20.5-36.3,30.7c-2.7,2.3-5.5,4.3-8.3,6.6c-1.9,1.6-4.1,2.5-6.6,2.6c-1.1,0.1-2.2,0.2-3.3,0.2
	c-9-0.4-17.9,0.7-26.8,1.5c-4,0.3-7.8,1.4-11.7,2.6c-4.1,1.3-8.3,2.5-12.5,3.3c-6.9,1.3-12.6-1.1-17-6.4c-0.4-0.5-0.8-1-1.2-1.5
	c-1.4-2.3-3.5-3.7-5.8-4.8c-2.2-1.1-4.3-2.1-6.4-3.3c-2.2-1.3-4.4-2.7-6.5-4.1c-6.2-4.2-8.9-10.3-8.7-17.7c0.1-3.2,0.6-6.4,0.8-9.6
	c0.7-8.8,3.6-16.8,8.6-24.1c0.4-0.7,0.8-1.4,1.3-2c5.8-8,7.9-17,8-26.7c0.1-5.3-0.1-10.6-0.2-15.8c-0.1-3.2-0.3-6.4-0.4-9.6
	C1281.3,1312,1280.6,1309.1,1279,1305.7z"/>
</svg>
