<?xml version="1.0" encoding="utf-8"?>
<!-- Generator: Adobe Illustrator 22.0.0, SVG Export Plug-In . SVG Version: 6.00 Build 0)  -->
<svg version="1.1" id="Layer_1" xmlns="http://www.w3.org/2000/svg" xmlns:xlink="http://www.w3.org/1999/xlink" x="0px" y="0px"
	 viewBox="0 0 2880 1800" enable-background="new 0 0 2880 1800" xml:space="preserve">
<path d="M1750,1025.9c-9.2,5-18.3,10-26.2,16.9c-2.4,2.2-4.2,4.8-5.7,7.7c-7.4,14.9-14.8,29.8-22.2,44.7c-1.8,3.6-3.4,7.2-5.2,10.8
	c-8.3,17.3-11.5,35.5-9.6,54.6c0.9,8.8,2.5,17.4,4.9,25.9c0.5,1.8,1.2,3.6,1.9,5.4c2.1,5.5,6.1,9,11.8,10.3c4,1,8.2,1.5,12.3,2.2
	c3.8,0.6,7.7,0.9,11.3,1.9c14.6,4.1,22.7,14.1,25.7,28.7c0.2,1.2,0.4,2.6,0.3,3.8c-0.3,4-2.3,7-6.1,8.4c-1.6,0.6-3.4,1.1-5.1,1.3
	c-2.2,0.3-4.5,0.4-6.7,0.5c-15.5,0.2-31,0.4-46.6,0.6c-4.8,0.1-9.6-0.5-14.2-1.8c-4.7-1.3-9-3.3-12.8-6.4c-12-10-24-20.2-36-30.3
	c-2.5-2.1-4.3-4.7-5.8-7.6c-10.7-21.3-21.3-42.6-32-63.9c-3.9-7.8-5.3-16.1-4.7-24.7c0.4-5.9,1.3-11.8,1.8-17.7
	c0.9-9.7,1.7-19.4,2.4-29.2c0.1-1.4,0.1-2.9-0.1-4.3c-0.3-3.3-2-5.7-5.4-6.6c-1.4-0.4-2.8-0.6-4.2-0.7c-2.4-0.2-4.8-0.3-7.2-0.3
	c-9.3-0.1-18.4-2-27.5-3.9c-8.9-1.8-17.9-3.4-27-4c-5.1-0.3-10.2-0.1-15.3,0c-1.6,0-3.2,0.1-4.7-0.6c-2.9-1.3-3.7-3.3-2.6-6.3
	c0.9-2.3,2.1-4.3,3.9-6c0.8-0.8,1.7-1.4,2.5-2.2c1.2-1.2,0.6-3-1-3.3c-2.4-0.4-4.7-0.7-7.1-1.1c-13.3-2-26.6-3.9-39.8-5.9
	c-3.1-0.5-6.2-1.4-9.2-2.1c-0.5-2.4,0.9-3.9,1.3-5.8c0.4-1.8,1.7-3.5,1-5.7c-0.8-0.2-1.7-0.6-2.6-0.8c-10.3-2.3-20.7-4.4-30.8-7.1
	c-12.2-3.2-24.3-7-36.4-10.5c-2.1-0.6-4.3-1.3-6.4-1.9c-1.2-0.3-2.5-0.7-3.7-0.8c-3.7-0.5-5.3,0.4-6.7,3.9c-0.6,1.5-1,3-1.4,4.6
	c-2.2,8.2-4.4,16.4-6.6,24.5c-2.8,10-6.6,19.7-11.6,28.9c-7.7,14.1-18.1,25.8-31,35.5c-13.1,9.8-25.9,19.9-38.7,29.9
	c-4,3.2-7.7,6.8-10.9,10.7c-10.5,12.8-14.2,27.3-11.1,43.6c2,10.4,5.4,20.4,9.8,30c3.3,7.2,8.5,12.4,16.2,14.7
	c2.6,0.8,5.3,1.1,8,1.4c10.8,1,18.6,6.2,23.4,16c1.3,2.6,2.2,5.3,3.1,8c0.4,1.2,0.5,2.5,0.6,3.8c0.2,3.1-1.2,5.3-3.8,6.6
	c-1.7,0.9-3.5,1.6-5.4,2c-16.2,4.2-32.7,6-49.4,4.3c-5.6-0.6-11.1-1.3-16.6-2.2c-8.2-1.3-14.4-5.6-19-12.6c-17.4-27-34.9-54-52.4-81
	c-1.4-2.1-2.6-4.4-3.5-6.8c-3.1-7.5-2.8-15,0.9-22.3c1.1-2.1,2.4-4.1,3.7-6.2c4.7-7.3,8.3-15.1,10.1-23.7
	c2.3-10.9,1.7-21.7-1.4-32.3c-1.3-4.4-2.9-8.8-4.7-13.1c-7.7-18-13.3-36.7-16.5-56c-1.3-8-2.1-16.2-3.1-24.3
	c-0.7-5.4-1.4-10.8-2.2-16.2c-0.1-0.4-0.4-0.8-0.5-1.2c-1.1-0.5-1.7,0.1-2,0.8c-0.7,1.6-1.5,3.2-1.9,4.9c-1.2,5.6-2.1,11.3-3.2,17
	c-1.4,7.1-1.3,14.3-1.5,21.5c-0.4,17.4-0.5,34.9,0.2,52.3c0.5,11.5,0.5,23-0.8,34.5c-2.5,22-8.7,42.9-18.9,62.5
	c-4.2,7.9-8.8,15.6-14.1,22.8c-7,9.7-15.9,17-26.9,21.8c-3.6,1.6-7.3,2-11.4,1.9c-0.7-3.2-1.1-6.4-1.1-9.5c0-3,0.9-6,0.7-9.3
	c-0.9,0.2-1.5,0.1-2,0.4c-1.2,0.7-2.5,1.5-3.6,2.3c-13.6,10.6-28.9,16.9-46,18.8c-20.5,2.3-40.6,0.5-59.9-7
	c-9.8-3.8-18.7-9.2-26.5-16.1c-1.6-1.5-3-3.2-4.3-5c-1-1.4-0.9-3.2,0.2-4.5c1.2-1.4,2.6-2.8,4.2-3.9c3.2-2.2,6.5-4.1,9.8-6.1
	c7.1-4.3,14-8.9,20.4-14.3c18.6-15.7,32-35.1,41.4-57.4c5.6-13.3,9.4-27.2,12.6-41.2c8.4-37,19.7-73.2,35.4-107.8
	c8.2-18.1,17.5-35.6,28.1-52.4c9.9-15.6,21-30.2,34.2-43.2c19-18.8,41-32.4,66.3-41c15.9-5.4,31.6-11.3,47.2-17.4
	c25.6-9.9,52.1-16.5,79.2-20.4c31.3-4.5,62.7-6,94.3-5.3c34.1,0.8,68.1,1.8,102.2,1.4c9.2-0.1,18.1-1.9,26.9-4.3
	c3.8-1,6.3-3.6,7.7-7.3c0.5-1.3,0.8-2.8,1.4-4.1c1.5-3.9,3.1-4.9,7.4-4.6c1.1,0.1,2.2,0.3,3.3,0.6c14.6,3.1,28.3,0.9,41.3-6.3
	c4-2.2,7.8-5,11.7-7.6c0.7-0.4,1.2-1,1.8-1.5c1.6-1.4,2.1-3.2,1.1-5.2c-0.6-1.3-1.3-2.6-1.9-3.9c-0.6-1.1-1.2-2.3-1.6-3.5
	c-1-2.9,0-5.1,3-6c2.1-0.7,4.4-0.9,6.6-1.2c2.5-0.4,5.1-0.4,7.6-1c5.3-1.2,6.3-3.2,4.1-8.2c-0.9-2-2-4-2.8-6.1
	c-1.3-3.8-0.2-5.7,3.8-6.5c1.4-0.3,2.9-0.3,4.3-0.3c10.1,0,18.3-4,24.9-11.5c21.9-25.1,45.8-48.2,69.7-71.5
	c14.3-14,28.7-27.9,43-41.8c5.1-5,10.9-8.9,17.9-10.8c5.5-1.5,11-2,16.6-1.3c10.8,1.4,21.7,1.6,32.6,1c9.1-0.5,18.2-0.6,27.3-0.8
	c3.1-0.1,6,0.5,8.8,2c2.9,1.6,4.1,4,3.8,7.2c-0.3,3.1-1.3,5.9-3,8.5c-6,8.9-14.2,14.6-24.6,17.2c-3.6,0.9-7.3,1.2-10.8,2.1
	c-2.3,0.5-4.6,1.4-6.8,2.3c-0.9,0.4-1.6,1.5-2.5,2.3c1,3.5,2.9,6.1,6,7.8c13.8,7.4,27.6,14.8,41.4,22.3c1.1,0.6,2.3,1.2,3.4,1.8
	c14.5,7.9,22.9,20,24.8,36.5c0.2,1.9,0.5,3.8,1,5.7c1.5,6.2,5.1,10.9,10.5,14.3c1.2,0.8,2.5,1.4,3.8,2.1
	c16.1,8.1,32.3,16.3,48.4,24.4c2.6,1.3,5.1,2.7,7.5,4.3c5.1,3.4,6.8,8.3,5.6,14.2c-0.3,1.7-0.9,3.4-1.5,5.1
	c-5.9,16.5-16.9,28.4-33.1,35.4c-11.9,5.1-24.3,8-37.2,8.7c-8,0.5-16,0.3-23.9-0.8c-5.4-0.7-10.8-0.9-16.3-0.3
	c-12.1,1.3-21,7.2-26.1,18.4c-3.6,8.1-5.8,16.6-6.5,25.4c-0.5,7.3,0.5,14.4,3.2,21.2c2.3,5.9,5.1,11.7,7.7,17.6c0.9,2,2.1,4,2.9,6.1
	c1.8,4.3,0.8,5.7-3.9,6.3c-0.8,0.1-1.6,0.1-2.4,0.2c-5.3,0.5-7.7,2.5-7.9,7.7c-0.4,6.9-0.5,13.8-0.2,20.6c0.2,4.8,0.8,9.6,1.7,14.3
	c1.5,7.9,4.6,15.3,9.3,21.9c1.2,1.7,2.3,3.5,2.1,5.7c-0.1,1.4-0.7,2.4-2.1,3c-2.5,1-5,1.1-7.5,0.4c-2.2-0.6-4.3-1.2-6.5-1.5
	c-3.5-0.5-5.1,0.6-6,4c-0.9,3.6-1.4,7.2-2.1,10.8c-6.2,31.2-21.1,57.4-45.4,78.1c-1,0.8-2,1.7-3,2.4c-3.8,2.7-5.7,2.5-8.6-1
	c-0.8-1-1.5-2.1-2.3-3.1C1751.2,1027.2,1750.7,1026.7,1750,1025.9z"/>
</svg>
