<?xml version="1.0" encoding="utf-8"?>
<!-- Generator: Adobe Illustrator 22.0.0, SVG Export Plug-In . SVG Version: 6.00 Build 0)  -->
<svg version="1.1" id="Layer_1" xmlns="http://www.w3.org/2000/svg" xmlns:xlink="http://www.w3.org/1999/xlink" x="0px" y="0px"
	 viewBox="0 0 2880 1800" enable-background="new 0 0 2880 1800" xml:space="preserve">
<path d="M1611.7,1307.8c-1.4-1.2-1.4-2.9-1.5-4.4c-0.5-6.7-1.1-13.4-1.6-20.1c-0.2-2.1-0.6-4.1-2.1-5.7c-1.7-1.9-3.3-1.8-4.7,0.2
	c-0.7,1.1-1.3,2.2-1.7,3.4c-1.1,2.7-2.9,4.5-5.5,5.9c-1.9-1.1-3.1-2.7-3.6-4.9c-2-9.1-4-18.1-3.8-27.5c0.1-7.5,0.2-15,0.3-22.6
	c0-2.1-0.2-4.1-0.3-6.4c-1.4,0-2.5-0.2-3.5,0.1c-1.2,0.3-2.3,1-3.5,1.5c-2.7,1.1-4,0.7-5.1-1.7c-3.9-8.3-7-16.7-6.1-26.3
	c2.2-25.2,2.2-50.5,3-75.8c0.1-3.2,0.3-6.4,0.5-9.6c0.1-2.4,0.1-4.8-0.8-7.4c-0.8,0.6-1.7,1.1-2.2,1.7c-2.6,3-3.6,6.7-4.1,10.6
	c-1.4,10.5-3.8,20.8-7.7,30.6c-1.5,3.9-3.2,7.7-4.9,11.5c-1.2,2.7-3.3,4.6-5.7,6.3c-1.5-3.7-1.9-5.2-1.5-8
	c0.9-6.7,1.9-13.3,2.9-19.9c0.4-3,1-6,1.3-9c0.3-2.6,0.2-5.1-2-7.1c-2,0-3.1,1.4-4,2.9c-1.4,2.3-2.8,4.7-4.1,7
	c-2.8,4.8-5.6,9.7-8.5,14.5c-6.7,11.2-16.5,19-28.3,24.2c-0.9,0.4-1.8,0.7-2.7,0.9c-0.6,0.1-1.2,0-1.8,0c-0.9-1-0.4-2-0.1-2.8
	c2-5.5,4.2-11.1,6.2-16.6c0.6-1.6,1.1-3.3,1.3-5.1c0.2-2-0.8-3.4-2.6-4.1c-1.2-0.5-2.4-0.8-3.7-1.1c-6.9-1.8-11.4-6.2-13.9-12.8
	c-1.5-3.9-2.3-8-2.8-12.1c-0.8-6-1.3-12.1-2-18.1c-0.2-1.7-0.6-3.5-1.1-5.1c-0.6-1.7-2.1-2.6-3.8-2.2c-1.8,0.4-3.6,1.2-5.3,2
	c-10,5.4-20,10.8-29.9,16.3c-1.1,0.6-2.2,1.3-3.4,1.7c-0.8,0.3-1.8,0.2-3.1,0.4c0.8-4.5,2-8.4,3.3-12.3c2-6,3.2-12.1,3.6-18.3
	c0.3-4.2,0.3-8.3-0.5-12.4c-0.5-2.6-2.4-3.5-4.6-1.9c-1.7,1.2-3.1,2.7-4.6,4.2c-2.5,2.5-5.1,4.8-8.5,5.9c-1.4-0.8-1.4-2.1-1.6-3.3
	c-0.9-6.5-1.8-13-2.8-19.5c-0.9-5.7-1.8-11.4-2.9-17c-0.5-2.5-1.2-5-2.3-7.3c-3.2-6.4-6.7-12.7-10.1-19.1c-0.4-0.8-1-1.6-1.6-2.4
	c-0.9-1-1.9-1.6-3.6-1.3c-0.9,1.5-0.7,3.3-0.8,5c-0.1,5.8-0.1,11.5-0.1,17.3c0,1.4-0.1,2.9-0.3,4.3c-0.2,1.1-0.9,2.1-2.1,2.4
	c-1.2,0.3-2.2-0.4-2.9-1.3c-0.9-1.3-1.8-2.7-2.5-4.1c-6.9-13.6-15.4-26.1-24.5-38.3c-0.7-0.9-1.3-1.8-2-2.7c-2-2.3-4.2-2.6-6.8-0.8
	c-1.3,0.9-2.5,2-3.5,3.2c-4.3,4.7-8.5,9.6-12.8,14.3c-1.9,2.1-3.8,4.3-5.6,6.4c-3.4-2.7-4.6-4.2-5.6-7.2c-2.7-8.5-7.2-16-12.4-23.1
	c-12-16.2-24.8-31.8-38.6-46.5c-4.7-5-9.7-9.8-15.3-13.8c-3.8-2.6-7.7-5.2-11.9-7.2c-8.5-4.2-17.2-2.1-23.3,5.1
	c-3.4,4-5.6,8.5-7.2,13.5c-1.9,5.8-2.5,11.9-3.8,17.8c-1.1,5.3-2.3,10.6-3.7,15.9c-2.2,8.2-5.7,16-10.3,23.1
	c-10.2,15.7-20.4,31.4-30.6,47.1c-21.6,33.3-42.6,66.9-62.6,101.2c-3.5,6-5.2,12.2-5.1,19.1c0.2,18.7-0.8,37.4-1.5,56.1
	c-0.2,4-0.1,8,0.1,12c0.8,13,1,25.9-0.4,38.8c-0.3,2.7-0.7,5.4-1.2,8.1c-0.4,2.5-1.3,4.9-3.5,6.8c-2.1-0.8-3.9-2.2-5.5-3.7
	c-3.4-2.9-6.8-5.9-10.2-8.8c-4.3-3.7-8.7-7-13.7-9.7c-6.2-3.3-9.8-8.6-11-15.5c-0.9-5-1.2-10.2-1.9-15.2c-0.7-5.1-1.5-10.1-2.2-15.2
	c-0.5-3.5-2.5-5.8-5.2-7.7c-1.8-1.2-3.6-1.2-5.4,0.1c-0.6,0.5-1.3,1-1.8,1.6c-4.7,4.9-7.6,10.8-7.6,17.6c0,4.5,0.4,8.9,1,13.4
	c1.2,9.8,2.7,19.6,4,29.5c0.7,4.9,3.4,8,8,9.9c5.2,2.1,10.3,4.4,15.4,6.8c2.6,1.2,5.1,2.7,7.4,4.4c6.7,4.9,9.7,11.7,9.8,19.9
	c0.1,4.3-1.6,6.3-5.8,6.8c-9.7,1.1-19.4,2.3-29.2,1.7c-11.6-0.7-20.2-6.4-26.6-15.8c-3.9-5.6-5.9-12-6.9-18.8
	c-3.3-20.9-6.5-41.7-9.7-62.6c-0.5-3.3-0.9-6.7-2.7-9.6c-0.6-0.9-1.2-1.8-2-2.9c-2.6,1-4.5,2.5-5.6,5c-1.8,4.3-3.7,8.5-5.4,12.8
	c-1.8,4.5-2.7,9.1-2.8,14c-0.4,18.1,0.5,36.1,2,54.2c0.5,5.5,2.9,10.1,7.1,13.7c1.7,1.4,3.6,2.7,5.6,3.7c8.2,4.5,15.7,9.9,23,15.7
	c1,0.8,2,1.7,2.8,2.6c1.7,2.2,1.4,4.6-0.9,6.2c-1,0.7-2.2,1.2-3.4,1.7c-2,0.7-4,1.2-6,1.7c-5.4,1.5-10.8,3-16.1,4.6
	c-4.5,1.3-9,2.3-13.7,2.3c-3.4,0.1-6.7,0-10.1,0.1c-14.2,0.2-27-11.2-29.6-25.4c-0.4-2.4-0.7-4.8-0.8-7.1
	c-0.5-10.2-0.3-20.5,0.5-30.7c0.5-6.4,0.9-12.8,1.1-19.2c0.4-13.2-1.6-26.1-6.1-38.6c-3.8-10.7-7.3-21.5-10.5-32.4
	c-2.4-8.1-1.2-15.5,2.9-22.6c2.4-4.1,5-8.2,7.9-12c7.2-9.8,14.6-19.5,21.9-29.2c4-5.4,8.2-10.7,12.2-16c5.8-7.7,8.6-16.7,11-25.9
	c0.7-2.7,0.6-5.4-0.3-8.1c-0.8-2.7-1.7-5.5-2.9-8.1c-3.4-7.9-6.9-15.8-10.5-23.7c-5.1-11-7-22.5-5.5-34.6c0.5-4.1,0.9-8.3,1.4-12.4
	c1.2-9.3,1.2-18.6,0.3-27.8c-1.9-19.5-1.9-39-0.3-58.5c0.6-7.3,1.7-14.6,2.5-21.9c0.4-3.4,1.7-6.4,3.6-9.3c2.4-3.6,4.8-7.2,6.9-11
	c4.2-7.5,6.8-15.5,7.7-24.1c0.7-6.5,2.9-12.4,5.9-18.1c2.2-4.1,4.3-8.2,6.3-12.4c2.6-5.5,4.6-11.2,5.7-17.3
	c2-11.5,7.7-20.9,16.6-28.4c10.2-8.6,18.3-18.7,24.6-30.4c6.8-12.7,17.3-21.9,30.4-27.5c11.9-5.1,22.7-11.8,33.1-19.3
	c18.1-13.1,37.7-23.5,58.6-31.4c13.8-5.2,28.2-8.3,42.8-10.3c11.8-1.6,23.6-2.2,35.4-2.7c20.3-0.8,40.6-1.4,60.9-2.2
	c14.7-0.6,29.4-1.3,44.1-1.9c13.6-0.5,27.2,0.8,40.7,2.6c6.7,0.9,13.3,1.6,20,2.2c24.6,2,49.2,2.6,73.8,1c16.6-1.1,33.1-3.1,49.5-6
	c8.3-1.5,16.7-2.9,25-4.4c1.9-0.3,3.8-0.7,5.6-1.4c6.4-2.4,12.8-4.9,19.3-7.4c5-1.9,9.1-5.1,12.8-9c19.6-21.1,38-43.3,54.9-66.6
	c6.2-8.5,12.7-16.8,19.1-25.2c0.8-1,1.6-2,2.4-3c8.8-11.8,19.9-20.7,33.2-27c2-1,4-2,6-3c5.8-2.8,10.2-7.1,13.1-12.9
	c1.2-2.3,2.1-4.7,3.3-6.9c2.3-4.4,4.6-8.8,7.2-13c4.9-7.9,11.1-9.7,18.9-7.5c8.8,2.4,17.6,3,26.6,3.1c2.4,0,4.8,0.1,7.2,0.2
	c3.4,0.3,6.7-0.2,9.8-1.8c0.7-0.3,1.4-0.7,2.2-0.9c2.5-0.7,4.3-0.1,5.8,2.1c0.4,0.5,0.7,1.1,1,1.7c3.2,6.5,8.7,9.9,15.6,10.4
	c8,0.6,15.4,3,22.5,6.3c7.5,3.5,14.9,7.3,22.4,11c5.4,2.7,9,6.9,11.3,12.5c4,10.2,10.8,18.5,19.5,25.1c2.8,2.1,5.7,4.1,8.7,6
	c21.2,13.4,39.2,30.3,54.3,50.2c0.9,1.1,1.7,2.3,2.4,3.6c1.5,2.5,1.1,4.9-0.7,7.1c-0.8,1-1.8,1.8-2.7,2.7c-2.8,2.6-5.7,5.2-8.5,7.8
	c-1.7,1.5-3,3.3-3.9,5.4c-3.8,9.9-11.6,14.4-21.6,16.1c-9.3,1.6-18.5,1-27.7-0.4c-12.9-2-25.1-6.2-37-11.6
	c-4.1-1.8-8.1-3.7-12.2-5.6c-4.2-2-8.6-3.4-13.3-4c-1.9-0.3-3.8-0.4-5.7-0.2c-5.2,0.5-8,3.9-7.6,9.2c0.2,1.7,0.6,3.5,1,5.2
	c1.5,5.6,3.1,11.1,4.5,16.7c0.7,2.6,1.1,5.3,1.3,8c0.3,3.6-0.7,4.9-4.3,5.8c-1.6,0.4-3.2,0.6-4.7,1c-2.5,0.7-3.4,2.2-2.7,4.7
	c0.5,2,1.2,4,2,5.9c1.9,5.1,3.9,10.1,5.8,15.2c1.9,5.3,3.3,10.7,3.5,16.3c0.1,5-0.7,9.9-2.7,14.5c-3.7,8.4-6.1,17.2-8.5,26
	c-3.1,11.4-2.6,22.8,0.2,34.2c1.4,5.6,3.2,11.1,4.8,16.6c2,6.8,3.6,13.6,3.3,20.7c-0.5,9-2.9,17.3-8.6,24.5
	c-1.3,1.7-2.7,3.1-5.1,3.5c-1.5-0.6-1.8-2-2.1-3.4c-0.3-1.2-0.3-2.5-0.5-3.8c-0.3-2-1.3-3.6-3.4-4.4c-1.7,1.3-2.2,3.2-2.4,5
	c-0.2,2.2-0.3,4.5-0.2,6.7c0.3,6.4,0.9,12.8,1.2,19.2c0.2,6.2,0.2,12.5-0.8,18.7c-0.8,4.8-2,9.4-4,13.8c-2.1,4.5-4.4,8.9-6.6,13.3
	c-1.3,2.5-2.4,3-5,2.4c-1.6-0.3-3.1-0.9-4.6-1.1c-2.7-0.3-4.7,0.8-5.8,3.3c-0.7,1.8-1.3,3.6-1.8,5.5c-2.9,11.8-5.9,23.6-8.5,35.4
	c-2.6,11.6-6.6,22.7-11.8,33.4c-1.5,3-3,6-4.6,8.9c-11.5,21.2-23.1,42.4-34.7,63.6c-2.6,4.8-5.6,9.3-8.5,13.9
	c-0.5,0.8-1,1.6-1.6,2.4c-1.9,2.3-3.8,2.6-6.3,1c-1.5-0.9-2.8-2.1-4.3-3.1c-6.4-4.5-13-0.5-12.8,6.9c0.1,4.6,0.1,9.3,0.1,13.9
	c0.3,34.2,0.4,68.5,0.8,102.7c0.2,18.9,1.6,37.7,4.9,56.4c1.6,9,3.8,17.8,5.8,26.7c0.2,0.8,0.5,1.5,0.7,2.3
	c2,6.6,6.2,11.1,12.8,13.2c2.7,0.9,5.5,1.7,8.3,2.2c7.3,1.3,13.7,4.4,19.3,9.1c3.4,2.9,6.7,5.9,9.8,9.1c1.6,1.7,2.9,3.8,3.9,6
	c2,4.3,1.1,6.4-3.4,8.2c-0.7,0.3-1.5,0.5-2.3,0.7c-3.7,1.4-4.9,3.1-5,7.2c0,0.5,0,1,0.1,1.4c0.1,2.9-1.2,5-3.6,6.3
	c-2.1,1.1-4.3,2.2-6.5,3c-11,4.1-22.4,5.2-34,4.2c-3.7-0.3-7.3-1-10.8-2.3c-10.6-3.8-18.4-10.8-23.8-20.5c-2.4-4.3-3.3-8.9-4.1-13.7
	c-1.6-10.3-3.1-20.5-5-30.8c-0.9-5.2-2.2-10.3-3.7-15.4c-1.9-6.5-4.1-7.9-10.9-7c-2,0.3-4.1,0.9-6,1.7c-3.5,1.4-5.1,4.2-5.2,7.9
	c0,0.8,0,1.6,0.1,2.4c1.6,10.5-0.7,20.4-5.2,29.8c-1.6,3.5-3.7,6.7-5.5,10.1C1614.5,1306.5,1613.6,1307.8,1611.7,1307.8z"/>
</svg>
