<?xml version="1.0" encoding="utf-8"?>
<!-- Generator: Adobe Illustrator 22.0.0, SVG Export Plug-In . SVG Version: 6.00 Build 0)  -->
<svg version="1.1" id="Layer_1" xmlns="http://www.w3.org/2000/svg" xmlns:xlink="http://www.w3.org/1999/xlink" x="0px" y="0px"
	 viewBox="0 0 2880 1800" enable-background="new 0 0 2880 1800" xml:space="preserve">
<path d="M1635.2,1035.3c-5,4.2-8,8.6-10.4,13.5c-2.4,4.9-3.9,10.2-4.7,15.5c-1.8,11.9-3.3,23.7-4.9,35.6
	c-1.5,11.6-2.9,23.2-4.4,34.7c-1.4,10.8-2.8,21.6-4.3,32.3c-1.4,10.9-2.9,21.9-4.2,32.8c-1.2,9.7-2.4,19.4-3.4,29.1
	c-0.8,7.2-1.5,14.3-2.2,21.5c-1.4,14.1-0.1,28.1,2.6,42c2.2,11.7,5.7,23,10.2,33.9c1.2,2.9,2.6,5.9,4.1,8.6
	c4.9,8.7,11.9,15.4,20.9,19.9c2.9,1.4,5.8,2.8,8.6,4.3c9.8,5.2,14.9,13.7,16.8,24.3c1.2,6.4-1.5,11.6-6.7,15.4
	c-2.4,1.7-5.1,2.7-8,3.2c-9.6,1.5-19.2,3.2-28.9,4.4c-9.9,1.2-19.8,1.2-29.7-0.5c-1.7-0.3-3.5-0.7-5.1-1.1
	c-6.5-1.9-11.3-5.8-14.4-11.8c-2.2-4.3-3.6-8.9-4.8-13.5c-2.3-9-4.4-18-6.8-27c-1.3-4.8-2.9-9.5-4.5-14.1c-2.8-8-6.6-15.6-11.5-22.6
	c-6.2-9-9.2-18.9-9.1-29.8c0-5.9,0.6-11.8,1.6-17.7c2.5-14.5,3.8-29.2,4.5-43.9c0.2-3.8,0.2-7.7,0.5-11.5c0.5-8.2-0.1-16.3-0.9-24.4
	c-1.7-15.7-3.6-31.5-5.5-47.2c-1.7-14.3-3.5-28.6-5.4-42.8c-1.3-10.1-2.6-20.3-4.1-30.4c-0.4-2.7-1-5.3-1.9-7.9
	c-2.5-7.4-7.2-13.2-14-17c-2.6-1.5-5.4-2.8-8.3-3.7c-31-10.2-61.9-20.4-93-30.5c-16.3-5.3-32.7-10.2-49.5-13.4
	c-9.9-1.9-19.8-3.6-29.8-5.1c-6.5-1-13.1-0.9-19.6,0.5c-11.8,2.6-20.7,9.1-26.7,19.5c-2,3.6-3.7,7.5-5,11.4
	c-3.1,9.3-5.8,18.6-8.7,27.9c-5.7,17.8-12.5,35.3-21.1,51.9c-9.8,19-21.8,36.5-36.6,52c-4.2,4.3-7.2,9.4-9.5,14.9
	c-6,14-9.1,28.6-9.4,43.8c-0.3,12.5,1.2,24.9,3.2,37.2c0.9,5.7,2.1,11.3,3.2,17c0.4,2,1,4,1.8,5.9c3.3,8,9.3,12.8,17.8,14.4
	c3.6,0.7,7.3,1,10.9,1.8c8.2,1.7,15.1,6.1,21.1,11.7c6,5.6,7.1,18.6-2.6,25.2c-1,0.7-2.2,1.4-3.3,1.9c-9.7,4.2-19.5,8-30,9.8
	c-6.6,1.1-13.3,1.9-20,0.7c-7.5-1.3-13.4-5-17.7-11.2c-2.9-4.1-5-8.6-6.6-13.3c-2.6-7.4-5.1-14.8-7.6-22.2
	c-10.5-30.9-21.1-61.7-31.6-92.6c-1.3-3.9-2.8-7.8-4.2-11.7c-1.6-4.7-2.6-9.5-2.7-14.6c-0.2-6.9,1.5-13.4,5.1-19.2
	c2-3.3,4.2-6.4,6.8-9.2c13.1-14.3,19.5-31.3,21-50.4c0.8-9.8,0.8-19.5,0.2-29.2c-0.5-7.8-0.7-15.7-1-23.5c0-1-0.1-1.9-0.2-3.1
	c-1.1-0.5-2.2-1-3.5-1.6c-3,3.1-5.7,6.2-7.9,9.7c-4.5,7-9.2,13.9-13.6,20.9c-16.3,26.3-34.4,51.2-53.6,75.4
	c-19.5,24.6-39.2,48.9-59.4,73c-6.5,7.7-12.6,15.7-17.8,24.4c-8.1,13.4-13.8,27.7-16.6,43.2c-2.2,12.2-2.3,24.5-0.9,36.8
	c0.4,3,0.9,6,1.4,9c1.5,9.4,6.3,16.5,14.8,21.2c9,4.8,16.4,11.6,23,19.4c2.2,2.6,3.9,5.4,4.6,8.8c1.1,5.3-0.4,9.9-4.4,13.4
	c-1.5,1.4-3.3,2.6-5.2,3.4c-8.8,3.7-17.8,7-27.2,9.1c-9,2-18.1,2.1-27.2,1.4c-3.5-0.3-7-0.9-10.5-1.4c-1.3-0.2-2.5-0.6-3.7-0.9
	c-8.6-2.5-13.9-8.1-16-16.8c-1.2-5-1.8-10.1-1.8-15.2c0-6.6,0.1-13.1,0.2-19.7c1-44.8,2.6-89.6,2.6-134.4c0-14.8,4.7-27.9,13.9-39.5
	c2.7-3.4,5.4-6.7,8.1-10.1c12.2-15.4,22.3-32,29.2-50.5c5.3-14.2,10.8-28.4,15.8-42.7c8.8-25,17.2-50.2,25.8-75.3
	c5-14.6,8.4-29.5,10.8-44.7c4.2-26.3,10.3-52.1,20-76.9c6.1-15.5,13.5-30.4,22.7-44.3c0.9-1.3,1.7-2.7,2.4-4.1
	c1.3-2.6,0.8-5-1.2-7.1c-1.1-1.2-2.4-2-3.6-3.1c-2-1.8-4.1-3.6-5.8-5.7c-3.7-4.8-3.8-9.6-0.3-14.6c1.5-2.1,3.3-3.9,5.2-5.6
	c4.1-3.6,8.9-6.2,14-8.2c16.8-6.3,33.5-12.6,50.2-19c13.1-5.1,26.1-10.6,39.2-15.7c26.7-10.4,54.3-17.9,82.6-22.9
	c18.4-3.3,37-5.5,55.7-6.8c20.4-1.4,40.9-1.8,61.4-1.3c16.5,0.4,33,0.4,49.4-0.5c15.8-0.8,31.5-3,46.9-6.7
	c32-7.7,63.9-15.9,95.7-24.7c10.1-2.8,17.9-8.3,24.1-16.4c3.6-4.7,7.1-9.5,10.5-14.3c8.7-12.2,17.4-24.6,26.2-36.7
	c4.7-6.5,9.6-12.8,14.6-19.1c7.8-9.8,16.2-19,25.3-27.6c11.8-11.2,18.1-25,19.6-41c0.4-4.5,0.7-8.9,0.7-13.4
	c0.1-12.4,2.1-24.5,6.2-36.2c4.8-13.6,8.5-27.5,10.8-41.7c1.3-8.1,2-16.2,2.2-24.4c0.1-3.5,0.9-6.6,2.8-9.5c2-3,3.9-3.7,7.4-2.7
	c3.3,1,6.1,2.7,8.1,5.6c2.5,3.5,5.1,7,7.4,10.6c9.5,14.4,18.8,29,28.3,43.4c3.4,5.2,6.9,10.4,10.5,15.5c1.8,2.5,3.9,4.7,6,6.9
	c1.2,1.2,2.7,2.3,4.2,3.1c2.4,1.4,5,1.2,7.2-0.5c1.4-1.1,2.7-2.3,3.7-3.7c1.5-2,2.9-4.2,4.2-6.4c11.1-18.9,22.2-37.8,33.1-56.8
	c5-8.7,10.7-16.7,17.5-23.9c0.4-0.5,0.9-0.9,1.3-1.4c0.1-0.1,0.3-0.1,0.8-0.3c0.5,0.5,1.2,1.1,1.8,1.8c2.5,2.9,5.1,5.8,7.6,8.7
	c2.7,3.2,4.7,6.8,6.1,10.8c4.1,11,5.3,22.3,3.9,34c-1.2,10.2-4,20-7.6,29.6c-1,2.7-2,5.4-2.8,8.2c-1.6,5.2-0.3,9.5,4.2,12.6
	c2,1.4,4,2.7,6.1,3.8c4.5,2.5,9,4.9,13.5,7.4c8.1,4.5,15.9,9.6,22.9,15.7c4.6,4,8.7,8.4,12.2,13.5c6,8.8,9.6,18.5,9.8,29.1
	c0.1,6.4,3.1,10.6,8.4,13.4c2.8,1.5,5.8,2.7,8.7,4.1c2,1,4.1,1.8,6,3c6.8,4.4,9.2,10.8,7.2,18.7c-0.9,3.6-1.9,7.1-2.5,10.7
	c-1.8,10-2,20-1.4,30.1c0.3,5.3,0.5,10.6,0.5,15.8c0,2.9-0.4,5.7-1,8.6c-1.2,6.2-4.6,11.2-9.8,14.8c-3.6,2.5-7.5,4.4-11.6,5.7
	c-6.1,2-12.2,3.8-18.3,5.8c-7.9,2.5-15.9,4.9-23.7,7.7c-10.1,3.6-19.5,8.9-27.9,15.6c-9.3,7.4-20,11.8-31.7,14
	c-1.9,0.3-3.8,0.7-5.6,1.2c-11.3,3-20.2,9.5-26.1,19.6c-2.2,3.7-4,7.7-5.5,11.7c-9.5,25-16.5,50.8-20.8,77.2
	c-2.1,12.6-3.4,25.3-4.2,38.1c-0.8,13.1-2.3,26.1-5.4,38.9c-2.5,10.5-6.2,20.5-11.1,30.1c-7,13.5-13.1,27.4-18,41.8
	c-5.8,17-9.7,34.4-11.6,52.3c-1.7,15.8-5.3,31.2-9.9,46.4c-4.3,14.2-9.3,28.2-14.4,42.2c-5.7,15.8-10.9,31.8-14.4,48.2
	c-3.7,17.1-5.3,34.5-4.2,52c0.7,11.8,3.5,23.1,8.2,33.9c2.8,6.3,5.9,12.4,9.2,18.5c5.6,10.2,14.4,16.1,25.6,18.4
	c3.6,0.7,7.3,1.1,10.9,1.9c3.6,0.8,7.2,1.8,10.5,3.2c6.2,2.5,11.1,6.8,14.7,12.6c7,11.3,1.2,24.2-8.4,28.5c-2.6,1.2-5.4,2.2-8.2,2.7
	c-15.3,2.4-30.8,3.8-46.3,3.7c-4.6,0-9.3-0.5-13.8-1.7c-10.8-2.7-19.1-8.9-24.4-18.7c-1.9-3.5-3.3-7.3-4.5-11.1
	c-1.9-6-4.3-11.7-7.5-17.1c-10.9-18.6-17.4-38.7-20.1-60.1c-1.1-8.9-1.6-17.8-1.7-26.8c0-7-0.5-14.1-0.5-21.1
	c-0.1-12.2-0.1-24.3,0-36.5c0-6.7,0.3-13.4,0.4-20.2c0.5-21.9,2.1-43.8,5.1-65.5c1.7-12.8,4-25.6,7-38.2
	C1635.6,1042.5,1635.7,1039.4,1635.2,1035.3z"/>
</svg>
