<?xml version="1.0" encoding="utf-8"?>
<!-- Generator: Adobe Illustrator 22.0.0, SVG Export Plug-In . SVG Version: 6.00 Build 0)  -->
<svg version="1.1" id="Layer_1" xmlns="http://www.w3.org/2000/svg" xmlns:xlink="http://www.w3.org/1999/xlink" x="0px" y="0px"
	 viewBox="0 0 2880 1800" enable-background="new 0 0 2880 1800" xml:space="preserve">
<path d="M1795.3,1375.7c-1.1,1.7-2.1,3.2-3,4.6c-1.3,0.1-2.4,0.2-3.5,0.2c-13.6,0-27.2,0-40.8,0c-9,0-17.9-1.3-26.3-4.8
	c-18.5-7.6-30.4-21.3-36.5-40.2c-2.1-6.4-2.8-13.1-3.7-19.8c-1.9-13.5-3.7-26.9-5.5-40.4c-1.7-12.8-3.4-25.7-5.2-38.5
	c-1.8-12.8-3.5-25.7-5.3-38.5c-1.7-12.7-3.4-25.4-5.2-38c-1.6-11.4-3.4-22.8-5.2-34.1c-0.1-0.8-0.4-1.5-0.7-2.5c-1.4,0-2.7,0-4,0
	c-1.2,1.5-0.8,3-0.7,4.4c0.4,15.5,0.9,31,1.4,46.5c0.4,12.2,0.9,24.3,1.2,36.5c0.5,14.6,0.9,29.1,1.3,43.7
	c0.6,21.8,1.2,43.5,1.8,65.3c0.4,14.3,6.2,25.9,17.5,34.7c2.8,2.1,5.7,4.1,8.8,5.9c3.8,2.2,7.2,4.7,10.4,7.7c2.7,2.5,5.4,5,8.1,7.5
	c0.5,0.5,1,1.1,1.9,2.1c-1.4,0.2-2.1,0.3-2.8,0.3c-24.8-0.1-49.6-0.2-74.4-0.2c-4.5,0-8-1.8-11.1-4.8c-1.5-1.5-2.7-3.2-3.3-5.2
	c-5.7-17.6-12.5-34.9-17.6-52.8c-4.1-14.2-6.3-28.7-7.4-43.4c-2-27.5-2.5-55-3-82.5c-0.4-19.8-0.9-39.7-1.9-59.5
	c-0.5-10.5-1.8-21-3.1-31.5c-1.6-12.9-3.5-25.7-5.3-38.5c-0.2-1.4-0.5-2.8-0.8-4.2c-1.3-5.3-4.6-9.2-9.5-11.4
	c-2.7-1.3-5.7-2.2-8.6-3c-12-3.5-24-6.9-35.9-10.5c-14.6-4.4-28.7-9.9-42.4-16.5c-15.2-7.4-31.4-11.9-48-14.5
	c-14.6-2.3-29.3-3.1-44-3c-14.1,0-28.2,0.3-42.2,0.4c-11.7,0-23.4-0.1-35-0.2c-1.3,0-2.5,0-4,0c-0.4,1.1-0.8,2.1-1.1,3.2
	c-0.6,2.7-1,5.3-1.5,8c-1.3,7.6-3.6,14.9-6.4,22.1c-12.2,31.7-29.5,60.3-53,84.9c-16.3,17-34.7,31.2-55,43.1
	c-2.6,1.5-5.2,3.1-7.8,4.7c-16.7,11-27.2,26.3-32,45.6c-1.9,7.6-2.8,15.4-3.1,23.3c-0.8,21,2.5,41.4,8.8,61.4
	c1.3,4.3,3,8.4,4.9,12.5c9.1,19.3,23.6,32.8,43.6,40.3c6.5,2.4,11.8,6.2,16.3,11.4c2.2,2.6,4.3,5.2,6.2,7.9c1.1,1.5,2,3.3,2.6,5.1
	c0.9,2.8-0.2,5.2-2.8,6.4c-1.3,0.6-2.7,0.9-4.1,1.2c-1.1,0.2-2.2,0.2-3.3,0.2c-16.8,0-33.6,0-50.4-0.1c-3.8,0-7.7-0.4-11.5-0.6
	c-3.3-0.2-6.2-1.4-8.9-3.2c-4.1-2.7-7.6-6-9.9-10.2c-2.9-5.2-5.8-10.3-8.4-15.7c-5.9-12.3-11.8-24.5-18.2-36.5
	c-6-11.3-11.1-23.1-14.1-35.6c-2.4-9.7-3.4-19.5-2.9-29.5c0.3-5.3,0.4-10.6,0.4-15.8c0-21.3-0.1-42.6-0.1-63.8
	c0-1.1-0.1-2.2-0.2-3.5c-1.1-0.4-2.1-0.8-3.2-1.2c-1.9-0.7-3.6-0.4-5.4,0.9c-20.8,15.1-41.8,30.1-62.6,45.3
	c-7.6,5.6-14.8,11.7-22,17.9c-14.1,12.2-23.3,27.5-27.1,45.8c-2.8,13-2.7,26.1-0.1,39.1c2,10.3,7.6,18.6,15.6,25.2
	c5.1,4.2,10.8,7.4,17,9.6c4.5,1.6,8.2,4.2,11.4,7.7c3.4,3.8,6.7,7.7,10,11.9c-5.5,3.1-10.7,6.2-16.5,8.1c-2.1,0.7-4.4,1-6.6,1.1
	c-4.8,0.1-9.6,0.1-14.4-0.2c-9.6-0.5-19.2-1-28.7-1.7c-4.6-0.3-9.2-0.9-13.8-1.9c-8.4-1.8-13.8-7.1-15.9-15.5
	c-0.7-2.8-1.3-5.6-1.6-8.5c-0.5-4.5-0.7-8.9-0.9-13.4c-0.7-25.6-1.2-51.2-0.6-76.8c0.4-18.4,0.7-36.8,0.7-55.2c0-5.8,2-10.2,6.1-14
	c6.1-5.7,12.1-11.4,18.3-17c14.4-13.2,28.9-26.2,43.2-39.5c9.7-9.1,19.2-18.3,28.4-27.9c22.5-23.3,39.8-50,51-80.5
	c6.4-17.5,10.5-35.5,12.3-54.1c1.1-11.5,2.2-22.9,3.7-34.3c2.5-18.8,6.9-37.1,14.3-54.6c8.3-19.6,20-36.7,35.8-51
	c4-3.7,7.9-7.5,11-12c4.3-6.3,6.6-13.1,6-20.8c-0.3-3.7-1.1-7.3-2.5-10.7c-2.1-4.8-4.3-9.6-6.7-14.3c-3.7-7.1-6.9-14.4-8.9-22.2
	c-4.4-17.5-2.8-34.6,4.4-51.1c4-9.3,9.5-17.8,15.8-25.6c1.4-1.7,3.1-3.3,4.9-4.6c2.9-2.1,6.2-2.5,9.6-1.3c1.3,0.5,2.7,1.1,3.9,1.8
	c5,2.8,7.2,7.1,6.3,12.8c-0.2,1.4-0.5,2.8-0.8,4.2c-2.3,10.5-4.2,21-5.2,31.7c-0.6,6.5-0.6,13.1,0.2,19.6
	c1.6,12.9,10.8,23.9,25.5,27.2c6.4,1.4,12.7,1.2,19-0.4c14.8-3.7,29.8-5.8,44.9-7.4c16.5-1.7,33.1-3.3,49.7-5
	c20.9-2.1,41.4-6.2,61.9-10.8c43.3-9.9,86.4-20.9,129.5-31.7c13.5-3.4,27-6.7,40.5-10.1c17.2-4.3,32.8-11.8,46.3-23.3
	c10.9-9.2,19.6-20.2,26.5-32.6c3-5.4,5.8-11.1,8.6-16.6c10.9-21.7,21.8-43.4,32.7-65.2c4.2-8.4,9-16.6,14.3-24.4
	c14.2-20.8,32-37.8,53.8-50.5c4.2-2.4,7.3-5.7,9.5-9.9c1.5-2.9,2.1-5.9,1.7-9.2c-1.4-10.1,2.2-18.2,10.4-24.2c2.1-1.5,4.3-2.9,6.6-4
	c11.7-5.5,23.7-10.5,36.2-13.8c2.6-0.7,5.3-1.4,7.9-1.9c12.4-2.3,23.5,0.5,33.4,8.2c2.7,2,5.1,4.4,7.5,6.7c2.7,2.5,5.2,5.2,7.9,7.8
	c4.4,4.3,9.2,7.9,14.4,11.1c7.1,4.3,14.1,8.9,20.9,13.6c5.7,3.9,10.8,8.5,15.4,13.7c6.6,7.5,11.2,15.9,13.2,25.7
	c1.7,8.1,1.3,16.2-0.1,24.3c-0.2,1.4-0.4,2.8-0.6,4.3c1.1,0.2,1.8,0.5,2.6,0.5c1.1,0.1,2.2,0.2,3.4,0.1c10.8-1,17.2,3.6,26.1,10
	c2.4,1.7,3.8,4.2,4.6,7.1c3.3,11.7,5.8,23.6,7.5,35.6c0.9,6.7,1.5,13.4,2,20c0.3,3.7,0,7.3-0.8,11c-1.8,7.9-6.1,14-13,18.3
	c-4.8,3-10.1,4.7-15.7,5.7c-0.5,0.1-1,0.1-1.4,0.2c-9.6,1.6-8.1,1.1-14.8,5.9c-9.9,7.1-20.8,11.8-33,13.5
	c-10.8,1.5-21.4,0.7-31.9-1.9c-7-1.7-13.8-4.1-20.4-7c-3.7-1.6-7.4-3-11.2-4.3c-1.9-0.7-4-1.1-6.1-1.3c-4.3-0.4-7.9,1.1-10.2,4.9
	c-1,1.6-1.9,3.4-2.5,5.2c-2.3,6.9-3.8,13.9-3.4,21.2c0.5,9.9,1,19.8,1.6,29.7c0.4,7.3,1,14.7,1.4,22c1.1,18.7,2.2,37.4,3.3,56.1
	c1.4,23.5,2.4,47,2.7,70.5c0.1,13-0.4,25.9-2.1,38.8c-5.4,41.3-20.7,78.3-47.5,110.4c-1.4,1.7-2.9,3.4-4.4,5.1
	c-6.5,7.5-10.2,16.1-11.4,26c-1.8,14.3-3.8,28.5-5.5,42.8c-1.3,10.5-2.3,21-3.3,31.5c-2.9,31.1-3,62.3-2.2,93.5
	c0.5,18.4,1,36.8,1.5,55.2c0.2,9.1,0.5,18.2,0.8,27.3c0.2,5.4,1.6,10.3,4.7,14.9c4.6,6.7,9,13.6,13.5,20.4
	c4.4,6.5,9.3,12.6,14.8,18.2c5,5,10.5,9.4,16.7,12.8c3.3,1.8,6,4.2,8.1,7.3C1790.6,1368.7,1792.8,1372,1795.3,1375.7z"/>
</svg>
