<?xml version="1.0" encoding="utf-8"?>
<!-- Generator: Adobe Illustrator 22.0.0, SVG Export Plug-In . SVG Version: 6.00 Build 0)  -->
<svg version="1.1" id="Layer_1" xmlns="http://www.w3.org/2000/svg" xmlns:xlink="http://www.w3.org/1999/xlink" x="0px" y="0px"
	 viewBox="0 0 2880 1800" enable-background="new 0 0 2880 1800" xml:space="preserve">
<path d="M1651.4,1082.9c-1.9,1.5-2.1,3.2-2.4,4.7c-3.2,15.5-6.5,31-9.6,46.5c-3.2,16.5-5.7,33.1-7.3,49.8c-2,22.6-2.9,45.3-2.7,68.1
	c0.1,8.5,1.3,16.9,3.9,25c1.2,3.8,2.3,7.6,3.4,11.5c0.7,2.6,2.2,4.5,4.4,6c5.4,3.7,10.8,7.4,16.9,9.9c5.7,2.3,9.8,6.7,11.9,12.5
	c1,2.8,1.9,5.8,2.4,8.8c0.7,4.3-1.1,6.4-5.4,6.5c-1.9,0.1-3.8-0.1-5.7-0.3c-3.8-0.4-7.3,0.2-10.6,2.1c-3.7,2.2-7.8,2.8-12,2.3
	c-6.5-0.7-13-1.4-19.5-2.2c-1.7-0.2-3.5-0.6-5.1-1.2c-4.5-1.7-7.5-5-8.3-9.7c-0.5-2.5-0.5-5.1-0.5-7.6c0-3.9-0.7-7.6-3.3-10.7
	c-2.5-3-3.9-6.6-4.8-10.4c-0.4-1.6-0.7-3.1-1-4.7c-0.8-5.1-2.4-9.9-5.1-14.4c-3.2-5.2-5.6-10.8-6.7-16.8c-0.8-4.1-1-8.3-0.1-12.4
	c4.1-18,3.7-36.2,2.8-54.5c-0.5-10.7-1.2-21.4-1.7-32.1c-0.4-9.9,0.1-19.8,1.4-29.7c1.7-12.2,1.9-24.6,1.3-36.9
	c-0.8-18.1-2.9-36-4.5-54c-0.3-3.9-1.4-5-5.3-5.6c-10.6-1.6-21.2-3.2-31.8-4.8c-23.7-3.6-47.4-7.2-71-11.9
	c-16.3-3.2-32.7-6.1-49-9.2c-22.3-4.3-44.6-8.7-66.8-13c-14.9-2.9-29.8-5.7-44.7-8.6c-4.9-0.9-9.9-1-14.8-0.5
	c-10.6,1-18.7,6.2-24.3,15.2c-6.2,9.9-12.3,19.9-18.6,29.7c-11.5,18.1-23,36.2-34.9,54c-15.4,23.1-34.3,42.9-56.7,59.4
	c-11.3,8.3-22.3,17.2-32.9,26.5c-15.3,13.3-27.1,29.4-36.4,47.3c-3.3,6.3-5.2,13-5.3,20.2c-0.1,5,0.8,9.9,2.7,14.5
	c4.3,10.5,9.2,20.8,14.9,30.6c5.7,9.8,14.2,15.3,25.5,16.5c9.7,1,16.9,6.5,22.5,14.1c3.3,4.5,1.2,9.3-4.3,10.6
	c-2.5,0.6-5,0.9-7.6,1.1c-8.9,0.7-17.9,1.3-26.8,0.6c-3.2-0.2-6.4-0.1-9.6,0.1c-7.2,0.3-14.4,0.8-21.6,1.1c-2.5,0.1-5.1-0.1-7.6-0.4
	c-3.4-0.3-5.6-2.3-6.6-5.4c-0.7-2-1.2-4-1.6-6c-1-4.8-2.7-9.1-6.1-12.8c-4.3-4.7-5.9-10.5-6.1-16.8c-0.1-2.7,0.2-5.4,0.5-8.1
	c1.5-11-0.4-21.4-5.9-31c-2.1-3.6-4.4-7.1-6.8-10.4c-2.5-3.4-5.3-6.4-7.8-9.7c-2-2.7-4.1-5.4-5.7-8.3c-3.5-6.3-3.7-12.9-0.7-19.4
	c1.3-2.9,3-5.6,4.8-8.3c3.2-4.6,6.6-9,9.9-13.5c4.4-6.1,8.9-12.1,13.2-18.3c7.6-11,16.6-20.7,27.3-28.8c5.1-3.9,9.9-8.1,14.4-12.7
	c3.7-3.8,6-8.2,7.2-13.3c0.2-0.8,0.2-1.6,0.3-2.8c-1,0.3-1.8,0.4-2.3,0.7c-1.4,0.8-2.7,1.8-3.9,2.7c-26.4,20.1-52.7,40.1-79,60.2
	c-9.3,7.1-17.9,14.9-25.3,24.1c-4.5,5.6-8.5,11.6-11.8,18c-5.6,11.1-8,22.8-6.7,35.3c1.1,11.5,2.3,22.9,4.1,34.3
	c0.9,5.8,3.6,10.5,8,14.4c6.4,5.7,13.8,9.2,22.2,10.6c1.7,0.3,3.5,0.7,5.2,0.9c5.2,0.5,8.8,3.5,11.6,7.7c1.8,2.7,3,5.7,3.1,9
	c0.2,4.6-2.1,7.6-6.6,8.6c-6.9,1.5-13.9,2-21,1.4c-5.4-0.5-10.9-0.4-16.3,0c-8.1,0.5-16.3,0.9-24.4,1.2c-1.9,0.1-3.8-0.2-5.7-0.4
	c-2.4-0.4-4.1-1.8-5-4c-0.6-1.3-1-2.7-1.5-4.1c-0.6-2-1.1-4-1.7-6c-1.1-3.7-2.8-7.1-5.2-10.2c-1.4-1.9-2.7-3.9-3.8-6.1
	c-2.3-4.5-3.2-9.4-2.2-14.4c0.7-3.5,0.6-7-0.2-10.5c-1.9-8.3-3.8-16.5-5.5-24.8c-2.3-10.8-3.5-21.8-2.7-32.9
	c0.6-7.4,2.1-14.5,4.7-21.5c3.1-8.3,5.5-16.7,6.5-25.5c1-8.3,0.8-16.6-0.9-24.8c-0.3-1.4-0.6-2.8-1-4.2c-1.5-5.9-0.2-11.1,3.6-15.7
	c2.9-3.5,6.3-6.4,10.2-8.7c3.2-1.8,6.5-3.5,9.8-5c8.2-3.6,16.5-7,24.7-10.6c13.8-6.1,26.7-13.8,38.4-23.4
	c22.7-18.6,38.1-42,47.2-69.8c6.8-20.7,12.5-41.6,18.2-62.6c2.7-9.9,5.2-19.8,8.1-29.6c1.8-6.1,2.2-12.2,1.3-18.5
	c-2-13.2-2.5-26.4-1.7-39.7c0.2-3.8,0.7-7.6,1.3-11.4c0.6-3.6,1.5-7.2,3.1-10.5c3.2-6.8,2.1-13-2.7-18.7c-6.3-7.4-14.2-12.5-23.5-15
	c-9.6-2.6-19.2-4.9-28.9-7c-9.2-2-18.6-3.2-27.8-5.3c-21.2-4.7-41.4-12.3-60.7-22c-9.8-5-19.3-10.6-29-15.9
	c-4.1-2.3-7.4-5.6-10.2-9.3c-0.4-0.5-0.8-1-1.1-1.6c-2.2-3.7-1.4-7.9,2.4-10c5.7-3.1,11.8-5,18.4-4.1c2.2,0.3,4.5,1,6.3,2.2
	c11.9,7.7,25.2,11.7,38.8,14.7c29.1,6.3,57.8,13.9,86.7,21c19.4,4.7,38.9,9.1,58.4,13.6c5.1,1.2,9.9,0.3,14.1-2.7
	c1.4-1,2.9-2.1,4.2-3.2c19-15.8,41.1-25,65.1-30.2c13.5-2.9,27.2-4.4,40.9-4.6c13.9-0.1,27.8,0,41.8,0.3c29.3,0.6,58.6,0.9,87.8,0
	c18.2-0.6,36.4-1.6,54.6-2.8c12.9-0.8,25.8-2.2,38.7-3.3c12.4-1.1,24.9-2.2,37.3-3.3c14.7-1.3,29.3-2.3,44-3.8
	c13.9-1.4,26.3-6.6,36.8-16c2.1-1.9,4.2-3.9,6.1-6.1c6-6.9,12.6-13.1,19.4-19.3c7.5-6.7,14.9-13.6,22.4-20.3
	c4.7-4.2,8.5-9,11.7-14.5c12.2-21.2,20.2-43.8,24.5-67.8c2-11,4.6-21.9,8.6-32.4c3.1-8.1,6.9-15.8,11.8-23c3.3-4.8,6.1-9.8,8.3-15.1
	c5.3-12.4,13.2-23,22.9-32.3c5.6-5.4,12-9.5,19.9-10.9c3.4-0.6,6.7-0.5,10-0.1c10.7,1.3,21.1,3.5,31.6,5.7
	c7.7,1.6,15.3,3.5,22.9,5.3c9.9,2.4,19,6.7,27.3,12.5c4.3,3,8.5,6.2,12.6,9.5c5.8,4.6,9.5,10.7,12,17.6c0.9,2.5,2,5.1,3.2,7.4
	c1.4,2.6,3.5,4.5,6,6c7.8,4.8,15.9,8.8,24.4,12.2c7.1,2.8,14.3,5.7,21.3,8.8c8.8,3.9,17,8.8,24.2,15.4c1.3,1.2,2.9,2,4.3,3
	c1.9,1.4,4.1,2.6,5.8,4.3c4,3.9,4.7,8.7,2.1,13.6c-1,2-2.4,3.8-3.9,5.4c-6.2,6.6-10.7,14.3-14.2,22.6c-2.2,5.3-4.8,10.5-7.3,15.6
	c-1.9,3.8-4.6,6.9-8,9.4c-4.6,3.4-9.4,6.6-14.8,8.8c-7.2,3.1-14.8,4.3-22.5,3.1c-3.4-0.5-6.7-0.2-10,0.6c-4.2,1.1-8.3,2.3-12.5,3.4
	c-4,1-8.1,2-12.1,2.9c-0.6,0.1-1.3,0.2-1.9,0.4c-2.4,0.8-3.5,2.1-3.3,4.6c0.3,3.3,0.9,6.7,1.4,10c1.3,8.9,2.6,17.7,2.5,26.7
	c0,3.4-0.2,6.7-1.1,10c-0.4,1.5-0.9,3.1-1.5,4.5c-2.4,5.5-6.4,7.3-12,5.5c-1.5-0.5-2.9-1.2-4.4-1.8c-3.1-1.3-4.4-0.9-6,1.9
	c-0.2,0.4-0.4,0.8-0.7,1.3c-8,16.7-13.9,34-16,52.5c-0.6,5.6-1.3,11.1-1.6,16.7c-0.8,17.3-3.6,34.3-8.5,51
	c-2.4,8.1-4.6,16.3-7.7,24.2c-2.5,6.6-3.6,13.6-5.1,20.5c-2.8,13-5.6,25.9-8.5,38.9c-2.9,12.9-8.2,24.9-15,36.2
	c-6.9,11.5-15.1,22.2-23.3,32.9c-0.6,0.8-1.2,1.5-1.8,2.3c-3.8,4.5-6,9.6-7.3,15.4c-3.3,14.9-5.7,29.8-7.7,44.9
	c-1.9,14.4-3.2,28.9-4.4,43.4c-0.4,5.6-0.8,11.2-1,16.8c-0.4,12.6-0.9,25.3-1.1,37.9c-0.2,13.6,0.6,27.2,2.7,40.7
	c0.8,5.1,1.9,10,2.8,15.1c1.6,9.1,3.2,18.3,4.7,27.4c1.2,7.7,3.6,14.9,7.1,21.8c4,7.8,8.1,15.6,12.2,23.4c2.7,5.1,6.6,9.1,11.4,12.1
	c3.5,2.2,7.2,4.1,11,5.9c3.9,1.8,8,3.3,12,5c2.7,1.1,5.4,2.1,8,3.3c6.3,2.9,9,9.4,7.1,16c-0.8,2.8-2.6,4.4-5.4,4.6
	c-2.1,0.2-4.2,0.3-6.2,0.2c-5.7-0.2-11.2,0.6-16.6,2.2c-7.6,2.3-15.2,2-22.6-0.7c-5.1-1.8-10.3-3.5-15.8-4.1
	c-1.4-0.2-2.8-0.5-4.2-0.9c-3.8-1-6.1-3.4-6.4-7.4c-0.2-2.4-0.4-4.8-0.4-7.2c0-4.1-1.5-7.1-5.6-8.4c-0.5-0.1-0.9-0.4-1.3-0.6
	c-5.6-2.4-8.8-6.6-9.6-12.8c-0.3-2.4-0.8-4.7-1.6-7c-1.8-5.3-5.6-8.4-11.2-9.2c-1.4-0.2-2.8-0.5-4.2-0.9c-2.3-0.6-3.6-2.1-3.8-4.4
	c-0.2-1.6-0.1-3.2,0-4.8c0.5-6.2,1.1-12.4,1.5-18.7c0.6-9.8-0.2-19.4-2.9-29c-4.5-16-8.6-32.1-12.9-48.2c-2.5-9.1-4.6-18.3-5.9-27.7
	c-0.5-3.8-0.9-7.6-1.2-11.5c-1.2-15.3-5-29.9-10-44.3C1652.9,1085.7,1652.2,1084.5,1651.4,1082.9z"/>
</svg>
