<?xml version="1.0" encoding="utf-8"?>
<!-- Generator: Adobe Illustrator 22.0.0, SVG Export Plug-In . SVG Version: 6.00 Build 0)  -->
<svg version="1.1" id="Layer_1" xmlns="http://www.w3.org/2000/svg" xmlns:xlink="http://www.w3.org/1999/xlink" x="0px" y="0px"
	 viewBox="0 0 2880 1800" enable-background="new 0 0 2880 1800" xml:space="preserve">
<path d="M920.3,809.5c-0.2-2.1,0.3-3.2,2.1-3.5c3.6-0.6,7.2-1.1,11-0.8c18.8,1.6,37.6,3.1,56.4,4.8c18.2,1.7,36.3,3.5,54.3,6.2
	c11.2,1.7,22.5,2.7,33.9,3.3c26.2,1.4,52.5,0.8,78.7-0.4c11.7-0.5,23.3-1,35-1.7c14.6-0.8,28.9-3.6,42.5-9.2
	c21.6-8.8,44-14.5,67-17.9c16.8-2.5,33.7-4,50.6-4.8c8.5-0.4,16.9-1,25.4-1.5c9.8-0.5,19.5-0.5,29.3,0.1c9.9,0.6,19.8,1,29.7,1.6
	c13.6,0.8,27.1,1.7,40.7,2.5c6.4,0.4,12.8,0.8,19.2,1.2c3.5,0.2,7,0.5,10.5,0.7c5.9,0.4,11.8,0.6,17.7-0.4c6.4-1,12.4-3,18.1-6
	c27.1-14.4,54.2-29,81.4-43.2c7-3.7,11.9-8.8,15.3-15.9c9.7-20.2,19.7-40.2,29.3-60.4c6.9-14.6,13.1-29.5,17.5-45.1
	c3.5-12.5,6.3-25.1,9-37.8c3.6-17.1,6.3-34.3,8.8-51.5c0.9-6.3,1.9-12.6,2.9-19c0.2-1.1,0.5-2.2,0.8-3.4c1.1-0.1,2.2-0.2,3.3-0.3
	c0.9,0,1.9,0,3.1,0c1.9,3,3.8,5.9,5.7,8.9c0.7,1.1,1.4,2.2,2.1,3.2c0.5,0.7,1.3,1.1,2.1,0.7c0.5-0.3,1.1-0.8,1.2-1.3
	c0.3-1.7,0.4-3.5,0.5-5.2c0.2-1.9,0.3-3.8,0.4-5.8c2.3-0.6,4.3-0.5,6.6,0c0.6,1.9,1.2,3.9,1.8,5.9c4.5,15.3,9,30.7,13.5,46
	c0.2,0.6,0.4,1.2,0.6,1.8c1,4.9,4.5,6.6,8.9,7.4c0.5,0.1,1,0.1,1.4,0.1c12,0.3,24,0.9,36,0.1c16.6-1.1,32.6,1.5,48,7.3
	c16.2,6,32.3,12.3,48.2,18.9c20.1,8.2,40.1,16.8,60.2,25.2c0.9,0.4,1.8,0.8,2.6,1.1c9.5,4.1,12,12.9,10.7,20.4
	c-1,5.7-3.1,11.1-5.9,16.2c-3.1,5.7-6.9,10.8-11.5,15.3c-4.2,4.1-8.7,8.1-13.3,11.8c-4.7,3.8-9.8,7.2-14.7,10.8
	c-7.1,5.1-15.1,7.6-23.7,8.4c-3.7,0.3-7.3,0.4-11,0.6c-10.5,0.5-21.1,0.9-31.6,1.5c-5.1,0.3-10.2,1.1-15.1,2.7
	c-7.5,2.5-13.1,7.1-17,14c-2.6,4.7-4.3,9.6-5.6,14.8c-2.2,8.7-4,17.5-6.3,26.1c-4,14.3-8.2,28.6-12.4,42.8
	c-2.9,10-5.9,19.9-8.9,29.9c-1.6,5.4-2.5,10.9-2,16.6c2.5,30.4-4,59.1-16.8,86.6c-7.5,16-16.8,30.9-27.2,45.1
	c-1.2,1.7-2.5,3.3-3.7,5c-3.5,5.1-5.6,10.7-6.3,16.9c-1.8,15.9-3.7,31.8-5.3,47.7c-1.7,16.4-3.1,32.8-3.4,49.3
	c-0.2,12.4,0.9,24.6,2.6,36.8c1.1,7.9,2.3,15.8,3.3,23.8c0.4,3.5,1.6,6.5,3.9,9.1c3.1,3.5,6.2,6.9,9.4,10.3
	c3.8,4.1,7.6,8.2,11.6,12.1c4.7,4.6,7.4,10,7.1,16.9c-3.4,1.7-7.2,2.8-11.2,2.4c-12.4-1.4-24.7-3.4-36.9-6.3c-3.4-0.8-6.2-2.5-8.6-5
	c-2.4-2.4-4.4-5.1-5.8-8.2c-2.8-5.9-5.4-11.9-8.1-17.9c-0.7-1.5-1.3-2.9-2.1-4.3c-0.4-0.8-2-0.8-2.4,0.1c-1.6,3.2-2.7,6.5-3,10
	c-0.8,9.5,0.1,18.9,2.4,28.1c1.3,5.4,3,10.8,4.3,16.2c0.7,3,2.4,5.2,5,6.7c3.2,1.8,6.5,3.4,9.7,5.2c3.9,2.1,7.9,4.1,11.8,6.4
	c4.4,2.7,8,6.3,11,10.6c1.3,1.8,2.4,3.8,3.1,5.9c1.6,4.4,0.5,7.9-3.4,10.4c-2.1,1.4-4.5,2.5-7,3.1c-4.3,1.1-8.7,2-13.1,2.7
	c-7.1,1.1-14.3,1.7-21.5,0.3c-5.3-1-10.2-2.6-14.8-5.4c-5.6-3.5-9.8-8.1-12.5-14.2c-5.6-12.1-9.5-24.8-12.3-37.8
	c-2.9-13.5-4.7-27.1-5.9-40.8c-1.3-14.8-2.4-29.7-3.9-44.4c-1.5-14.3-3.4-28.6-5.3-42.9c-1-7.6-2.1-15.2-3.1-22.8
	c-0.2-1.6-0.5-3.2-0.9-4.7c-2.1-8.4-7.7-13.1-16-14.5c-2.7-0.5-5.4-0.6-8.1-0.7c-5.8-0.2-11.5-0.1-17.3-0.3
	c-16.6-0.6-33.3-1-49.9-2.2c-28.9-2-57.5-6.4-85.5-14.2c-19.6-5.4-38.6-12.6-56.6-22.3c-14-7.6-28.9-9.8-44.6-7.8
	c-20.8,2.6-39.5,10.3-56,23.2c-6.6,5.1-12.8,10.6-18.7,16.5c-13,13-25.7,26.3-37.4,40.5c-8.4,10.2-18.1,19-28.8,26.7
	c-9.2,6.7-18.7,12.9-28,19.3c-2.6,1.8-5.4,3.5-8,5.3c-9.3,6.5-13,15.5-11.3,26.7c1,6.8,2.5,13.5,3.9,20.3c0.7,3.4,1.3,6.9,2.2,10.3
	c2.7,9.9,8.5,17.1,18.1,20.9c9.8,3.9,11.4,14.2,9.2,21.6c-1.2,4-4.3,5.9-8.3,6.1c-6.2,0.3-12.5,0.4-18.7,0.4c-3.5,0-7-0.2-10.5-0.4
	c-5.1-0.3-9.1-2.5-11.6-7.2c-6.6-12.8-13.4-25.5-19.9-38.3c-1.5-3-2.2-6.3-3.3-9.5c-0.5-1.4-1-2.9-1.6-4.7c-2.1,1.8-3.2,3.6-3.3,6
	c-0.1,3.2-0.4,6.4-0.5,9.6c-0.5,13.4-0.9,26.9-1.4,40.3c0,1.4,0,2.9,0.1,4.3c0.6,6.4,3.6,11.2,9.3,14.1c1.4,0.7,2.9,1.3,4.4,1.9
	c11.7,4.9,18.2,16.6,16.1,29.1c-0.7,4.3-4.5,7.8-8.9,8c-1.6,0.1-3.2,0-4.8-0.1c-10.8-0.9-21.7-1.8-32.5-2.7
	c-2.3-0.2-4.2-0.9-5.8-2.9c-2.3-2.9-4.8-5.5-7.2-8.3c-1.8-2.1-3.5-4.1-5.1-6.4c-3.5-4.9-5.4-10.5-5.3-16.6c0.1-4.3,0.2-8.6,0.2-13
	c0.1-27.2,0.2-54.4,0.4-81.6c0-4.5,0.2-9,0.2-13.4c0-3.5,0.8-6.6,2.7-9.5c0.7-1.1,1.4-2.2,2-3.3c0.8-1.5,1.9-2.5,3.3-3.4
	c15.7-9.9,26.6-23.8,34-40.6c4.6-10.4,7.8-21.3,10.3-32.4c1.9-8.4,4-16.8,6.8-25c2.7-7.8,2.4-15.7,1.4-23.7
	c-0.9-7.8-2.3-15.5-2.7-23.3c-1.3-23.9,3.4-46.4,14.3-67.7c2.3-4.6,5-9,7.6-13.3c8.2-13.5,16.5-27,24.7-40.6c1.2-1.9,2.1-3.9,3-6
	c0.6-1.4,0-2.6-1.4-3c-1.2-0.4-2.5-0.7-3.7-0.8c-6.5-0.6-13.1-1.2-19.6-1.6c-16.1-1.1-32.2-2.1-48.4-3.3c-19.1-1.5-38.3-3-57.4-4.8
	c-20.4-1.9-40.7-4.7-60.6-9.4c-15.1-3.5-29.9-8.1-44.3-14c-6.8-2.8-13.4-6.1-19.5-10.3C925.2,812.7,922.8,811.2,920.3,809.5z"/>
</svg>
