<?xml version="1.0" encoding="utf-8"?>
<!-- Generator: Adobe Illustrator 22.0.0, SVG Export Plug-In . SVG Version: 6.00 Build 0)  -->
<svg version="1.1" id="Layer_1" xmlns="http://www.w3.org/2000/svg" xmlns:xlink="http://www.w3.org/1999/xlink" x="0px" y="0px"
	 viewBox="0 0 2880 1800" enable-background="new 0 0 2880 1800" xml:space="preserve">
<path d="M1017,736.7c-1.8-2.1-1.9-2.2-3.5-1.2c-3.6,2.1-7.1,4.3-10.7,6.5c-5.2,3.2-10.6,5.9-16.4,7.8c-10.1,3.3-20.4,3.6-30.8,1.2
	c-3-0.7-5.8-1.9-7.8-4.4c-1.7-2.2-1.7-3.4,0-5.5c3.1-3.7,7-5.8,11.8-6.8c10.6-2.1,19.8-7.2,27.9-14.2c6.1-5.2,11.3-11.3,16.1-17.7
	c4.6-6,9.1-12,13.8-17.8c15.4-18.8,32.7-35.6,52.5-49.6c27.8-19.7,58.5-32.8,91.6-40.2c25.3-5.7,51-7,76.8-5.5
	c22.2,1.2,43.7,6.1,64.5,13.7c14.1,5.1,28,10.9,42,16.5c14.4,5.7,28.9,11.2,43.9,15.2c12.7,3.4,25.7,5.4,38.8,5.9
	c8.7,0.3,17.3-0.6,25.8-2.1c15.8-2.7,31.2-7.1,46.6-11.4c5.1-1.4,10.1-2.9,15.2-4.4c5-1.4,9.6-3.6,13.7-6.7
	c8-6.2,15.9-12.3,23.9-18.5c5.3-4.1,9.4-9.2,12.2-15.2c2.2-4.6,4.1-9.4,5.8-14.2c3-8.3,5.9-16.6,9.8-24.5
	c4.1-8.5,9.1-16.5,15.4-23.7c4.8-5.4,10.2-10.1,16.3-14.1c6.6-4.3,13.8-6.7,21.8-6c7.8,0.7,15.3-0.8,22.5-3.7
	c3.3-1.3,6.5-2.7,9.6-4.3c5.4-2.8,11.1-4.8,17-6.6c19.6-6,39.1-12.1,58.6-18.1c6.4-2,12-5.2,17-9.6c1.3-1.2,2.7-2.3,4-3.4
	c12-10.1,25.7-13.2,40.8-9.7c16.4,3.8,32.2,9.3,47.7,16.1c4.8,2.1,8.9,5.1,12.2,9.1c7.9,9.3,11.7,20.1,11.6,32.2
	c0,2.5-0.5,5.1-0.9,7.6c-1.3,6.9,0.1,13.4,3.5,19.4c3.4,6.2,7.7,11.7,13.1,16.4c1.9,1.7,4,3.3,5.9,4.9c1.1,0.9,2.3,1.8,3.4,2.7
	c11.9,9.4,16.3,21.7,14.1,36.6c-1.3,9-2.7,18-4,27c-0.3,2.2-0.5,4.5-0.4,6.7c0.1,3.5,1.4,6.5,4.2,8.8c8.9,7.5,16.2,16.4,22.7,25.9
	c7.5,11,13.9,22.6,20.4,34.2c3.2,5.8,4,12.1,3.5,18.6c-0.6,6.2-1.4,12.4-2.4,18.5c-1.1,7-4.7,12.9-9.8,17.8
	c-9.6,9.2-19.1,18.4-28.8,27.5c-2.7,2.5-5.5,4.9-8.5,7c-4.7,3.3-9.9,5-15.8,4.8c-8.7-0.3-16.3,2.6-23,8c-2,1.6-3.8,3.4-5.7,5.1
	c-4.7,4.1-9.3,8.4-14,12.4c-9.3,7.8-20,12.5-32.3,13.4c-1.3,0.1-2.6,0.2-3.8,0.5c-6.1,1.5-8.8,5.5-7.9,11.7c0.2,1.6,0.5,3.2,0.8,4.7
	c1.6,9.6,1.5,19.2,0.2,28.7c-1.6,11.2-3.7,22.4-5.6,33.6c-1.9,11.6-2.1,23.2-1,34.9c0.9,10,2.3,20,2.4,30.1
	c0.1,18.8-2.5,37.3-7.2,55.5c-2.7,10.4-5.9,20.6-9,30.8c-5.3,17.6-9.5,35.5-13.5,53.5c-2.7,12-5.4,24-8.1,36
	c-1.8,8.3-3.2,16.6-4,25.1c-0.9,9.9,2.2,18.3,9.6,25c3.2,2.9,6.9,5.2,11,6.8c11.9,4.6,22.5,11.5,32.2,19.7
	c6,5.1,11.9,10.2,17.7,15.5c1.7,1.6,3.4,3.5,4.5,5.5c3.6,6.3,3.1,12.6-1,18.5c-2,2.8-4.6,4.9-7.6,6.4c-7.5,3.8-15.4,6.1-23.8,6.9
	c-15.3,1.4-30.7,1.7-46,2.4c-10.7,0.4-19.7-3.1-27.4-10.4c-3.6-3.4-7.4-6.7-11.4-9.6c-9.5-6.9-16-15.9-20.8-26.5
	c-6.3-13.8-9.3-28.2-8.4-43.4c0.2-3.7,0.7-7.3,1.3-11c0.8-5.4-0.3-10.2-3.8-14.4c-0.9-1.1-1.7-2.3-2.5-3.5
	c-3.6-5.9-4.7-12.2-3.3-18.9c1.2-5.9,2.6-11.9,3.7-17.8c1.7-9.1,2.7-18.3,3.5-27.6c1-12.3,0.9-24.6,1.1-36.9
	c0.2-11.8,0.8-23.7,1.2-35.5c0.2-5.6,0.4-11.2,0.6-16.8c0-1.1,0-2.3-0.3-3.3c-0.3-1.2-0.8-2.4-1.2-3.7c-2.6-0.2-4.8,0.6-6.8,1.9
	c-2.4,1.6-4.8,3.1-7.3,4.7c-6.7,4.4-13.4,8.7-20.1,13.1c-4.6,3-9.5,5.3-14.7,6.9c-17,5.1-33.9,10.6-51,15.3
	c-21.2,5.9-42.8,6.9-64.7,4.8c-13.1-1.3-25.9-4-38.6-7.4c-2.3-0.6-4.7-1.1-7-1.5c-3-0.5-5.4,0.6-6.9,3.2
	c-5.8,10.5-12.4,20.6-14.3,32.8c-0.7,4.6-1.1,9.2-1.1,13.8c0.3,18.9,0.8,37.7,1.2,56.6c0.1,3.2,0.7,6.3,1.9,9.3
	c4.3,10.7,6.7,22,7.9,33.5c1.4,13.5,1.7,27.1,1.8,40.7c0.1,9.3,1.3,18.5,3.7,27.5c3.7,13.7,10.5,25.7,20.6,35.7
	c3.9,3.9,7.2,8.1,9.9,12.9c0.9,1.5,1.6,3.1,2.3,4.7c2.4,5.5,2,10.9-1.1,16.1c-0.3,0.5-0.7,1.1-1,1.6c-2.6,4.1-4.4,8.5-5.7,13.2
	c-0.4,1.5-0.8,3.1-1.2,4.6c-2.5,10-8.9,15.5-18.9,17.3c-7.4,1.3-14.7,0.7-21.9-0.7c-7.7-1.5-15.2-4-22.6-6.5
	c-4.2-1.5-8.5-2.7-12.9-3.5c-0.2,0-0.3-0.1-0.5-0.1c-8-1-13.8-5.4-18.5-11.7c-5.2-7-8.2-14.8-9.1-23.4c-0.8-8-0.2-16,2.2-23.7
	c3.9-12.3,5.3-25,4.5-37.9c-0.2-3.8-0.8-7.6-1.5-11.4c-2.6-13.2-5.4-26.3-7.9-39.5c-4.2-22-10.1-43.6-17.9-64.6
	c-5.5-14.7-10.5-29.5-14.3-44.7c-3-11.7-5.1-23.4-5.9-35.4c-0.3-4-0.1-8,0-12c0.5-13.3,0.8-26.5,1.6-39.8c0.4-7.3-2.6-12.6-7.9-17.1
	c-2.3-2-4.9-3.7-7.8-4.6c-1.4-0.4-2.8-0.7-4.2-0.9c-3.1-0.4-5.3,1-6.7,3.6c-0.6,1.1-1.1,2.3-1.6,3.5c-5.7,13.9-11.4,27.8-17,41.8
	c-1.5,3.7-3.5,7.1-5.7,10.5c-8.2,12.4-14.5,25.6-17,40.4c-4.2,24.9,1.1,47.7,16.5,67.8c2.8,3.6,6.4,6.3,10.1,8.8
	c9.2,6.2,18.4,12.3,27.5,18.5c6.9,4.7,13.6,9.5,20.4,14.4c4.4,3.2,7.6,7.3,8.9,12.7c1.6,6.5,1.1,13-0.9,19.4c-1.2,3.7-4,6.3-7.6,7.4
	c-2.7,0.9-5.6,1.5-8.4,1.7c-9.4,0.6-18.8,1-28.3,1.2c-14.3,0.3-27.9-2.9-40.6-9.6c-2.8-1.5-5.6-3.1-8.5-4.5c-4-1.9-6.7-4.8-8.7-8.6
	c-2.8-5.6-5.7-11.1-8.2-16.8c-13.2-29.3-25.3-59.1-37.8-88.7c-2.4-5.6-5-11.1-7.4-16.6c-0.8-1.8-1.6-3.5-2.3-5.3
	c-2.4-6-2.3-11.9,0.4-17.7c2.6-5.5,5.4-10.9,8.4-16.2c5.7-10.1,10.2-20.6,12.8-32c2.6-11.3,3.6-22.7,2.9-34.3
	c-1-17-4.8-33.5-9.3-49.9c-2.3-8.3-5-16.5-7.4-24.8c-1-3.7-3.1-6.3-6.4-8c-2.4-1.2-4.9-2.3-7.6-2.9c-5.9-1.4-11.9-2.5-17.8-3.7
	c-2.7-0.5-5.3-1.1-8-1.6c-1.9-0.3-3.8-0.6-5.7-0.7c-5.5-0.3-9.9,1.9-13.3,6.4c-0.3,0.4-0.6,0.8-0.9,1.2
	c-5.9,8.4-11.8,16.7-17.6,25.2c-3.3,4.9-6.5,9.9-9.4,15.1c-5.6,10.1-12.2,19.5-19.7,28.3c-20.5,24.1-41.1,48.2-61.7,72.3
	c-4.3,5-8.8,9.7-13.8,14c-4.9,4.4-9.2,9.3-12.6,15c-3.4,5.7-5.9,11.8-6.9,18.3c-1.3,7.7-4.1,14.8-8,21.4c-3.5,6-5.9,12.4-7.2,19.2
	c-0.5,2.7-0.9,5.4-1.1,8.1c-0.5,6.4-1,12.8-1.4,19.1c-0.5,6.9-0.1,13.8,0.6,20.6c1,9.7,2.1,19.4,3.4,29.1c0.9,7.3,2.3,14.5,3.3,21.8
	c1,7.2,0.2,14.4-2.3,21.3c-1.3,3.5-3.1,6.7-5.7,9.3c-4.6,4.8-10.3,7.1-16.9,6.2c-4.6-0.6-9.1-1.5-13.7-2.5c-9.4-2.1-18.7-4.3-28-6.5
	c-5.2-1.2-9.8-3.9-13.9-7.3c-4.7-3.9-6.5-9-5.9-15c0.4-3.5,1.2-6.9,2-10.3c4.1-16.6,8.4-33.2,12.3-49.8c2.4-10.3,4.4-20.7,6-31.1
	c1.6-10,1.4-20.1,0.9-30.2c-0.2-4.5-0.4-9-0.5-13.4c-0.3-6.7-0.6-13.4-0.8-20.1c-0.1-4.8-0.3-9.6,0.1-14.4
	c0.8-8.8,4.5-16.6,10.1-23.4c2.6-3.2,5.3-6.5,7.6-9.9c6.6-9.4,11.1-19.8,13.1-31.1c0.6-3.1,1-6.3,1.2-9.5
	c0.7-13.1,2.2-26.1,4.1-39.1c0.7-4.6,1.4-9.2,2-13.8c1.1-7.6,1.3-15.3,1.1-23c-0.1-9.9-0.5-19.8-0.9-29.7c-0.6-17-0.8-33.9,0.8-50.8
	c2.1-21.9,7.5-42.8,17.9-62.3c5-9.3,9.6-18.8,14.3-28.2C1015.7,739.9,1016.3,738.3,1017,736.7z"/>
</svg>
