<?xml version="1.0" encoding="utf-8"?>
<!-- Generator: Adobe Illustrator 22.0.0, SVG Export Plug-In . SVG Version: 6.00 Build 0)  -->
<svg version="1.1" id="Layer_1" xmlns="http://www.w3.org/2000/svg" xmlns:xlink="http://www.w3.org/1999/xlink" x="0px" y="0px"
	 viewBox="0 0 2880 1800" enable-background="new 0 0 2880 1800" xml:space="preserve">
<path d="M1823.2,419.1c1.5,4,2,7.8,0.6,11.8c-0.3,0.7-0.4,1.5-0.6,2.3c-1.5,5.8-0.4,11.1,3,15.9c1.1,1.6,2.4,3,3.6,4.5
	c3.3,4.1,5.3,8.8,5.1,14.1c-0.2,6.1,2.8,10.4,7.9,13.3c8,4.7,16.1,9.2,24.2,13.8c3.5,2,7,3.9,10.4,5.9c4.2,2.4,8,5.3,11.4,8.7
	c7.7,7.7,11,17.1,9.9,27.9c-0.2,1.7-0.4,3.5-0.3,5.3c0.1,4.1,1.6,6.1,5.6,7.3c1.4,0.4,2.8,0.6,4.2,0.7c12.1,0.9,24.2,1.7,36.4,2.6
	c2.2,0.2,4.5,0.4,6.6,0.9c3.1,0.7,5,2.7,5.8,5.8c0.4,1.5,0.8,3.1,0.8,4.7c0.4,13.5,2.5,26.7,4.4,40c1,7.2,0.9,14.4-0.9,21.5
	c-3.1,12.5-10.2,22.3-21,29.3c-7.7,4.9-15.5,9.6-23.3,14.3c-4.7,2.8-9.6,5.1-14.8,6.8c-4.6,1.5-9.3,2.3-14.1,2.5
	c-4.8,0.2-9.6,0.6-14.4,0.6c-5.1,0.1-10.2-0.1-15.3-0.4c-5.6-0.3-11.2-0.9-16.8-0.3c-10.8,1.1-20,5.4-27,13.8
	c-3.8,4.5-7.4,9.2-10.5,14.3c-6.7,11.1-10.4,23-9.4,36.1c0.5,6.5-1.2,12.4-5.1,17.5c-7.1,9.3-10.5,20-12.1,31.4
	c-1.7,11.6-2.3,23.2-2.5,34.9c-0.2,10.2-1.1,20.4-1.9,30.6c-0.7,9.2-1.7,18.5-2.4,27.7c-0.4,5.1-1.3,10.1-3.2,14.9
	c-3.7,9.2-6.9,18.6-10.7,27.7c-5.7,13.8-12.8,26.8-20.1,39.8c-5.5,9.7-11.5,19.2-17.3,28.8c-2.9,4.8-5.9,9.5-8.5,14.5
	c-4.6,8.5-7.3,17.7-8.5,27.3c-1.9,15.1-4.1,30.1-6.2,45.1c-2.1,14.9-4.3,29.8-6.1,44.7c-2.1,17.5-4,34.9-5.9,52.4
	c-1.1,10.5-1.8,21-2.9,31.5c-0.6,6.4-1.5,12.7-2.5,19c-1.4,8.5-2.5,17.1-2.2,25.8c0.4,12,3.3,23.4,8.6,34.1c0.9,1.9,2,3.7,3.2,5.3
	c3,4.2,7.1,6.9,12.2,7.8c1.6,0.3,3.2,0.5,4.7,0.8c4.7,1.1,8.5,3.3,11.1,7.6c5.2,8.7,10,17.5,13.5,27c0.8,2.1,1.3,4.3,1.6,6.5
	c0.4,2.8-0.8,5-3.3,6.3c-1.5,0.8-3.2,1.6-4.8,2.1c-12.5,4-25.2,7.2-38.1,9.7c-2.6,0.5-5.4,0.5-8.1,0.5c-3.8,0-7.2-1.3-10.4-3.3
	c-5.9-3.7-10.9-8.4-15.9-13.1c-2.1-2-2.9-4.6-3.1-7.4c-0.3-3.5-0.3-7-0.4-10.5c0-1.6,0-3.1,0-4.6c-1.9-0.8-3.2,0.1-4.4,0.5
	c-5.2,1.9-10.6,2.4-16.1,1.9c-4.3-0.4-8.6-0.5-12.9-0.7c-1.3-0.1-2.6-0.2-3.8-0.3c-4.3-0.4-7.4-2.7-9.6-6.4
	c-2.2-3.8-3.4-7.9-3.7-12.3c-0.5-6.7,0.1-13.4,0.5-20.1c0.4-6.1,0.9-12.1,1.3-18.2c0.5-8.7-0.2-17.3-1.2-25.9
	c-2.7-22.8-4.3-45.6-3.2-68.5c0.7-14.7,1.6-29.4,2.5-44.1c0.7-11.3,1.5-22.7,2.2-34c0.8-12,1.7-23.9,2.4-35.9
	c0.5-8.1,1.1-16.3,1.5-24.4c0.3-5.9-1-7.2-6.8-7c-5.1,0.2-10.2,0.5-15.3,0.8c-12,0.6-24-0.3-35.9-1.3c-8.3-0.7-16.6-1.5-24.8-2.4
	c-14.2-1.5-28.1-4.5-41.7-8.7c-25.6-7.8-50.6-17-74.6-28.9c-19.9-9.8-39.9-19.6-59.9-29.4c-7.9-3.9-16.2-6.9-24.9-8.5
	c-5.5-1-11.1-1.4-16.7-1.3c-10.7,0.2-21.4,0.3-32.1,0.4c-3,0-6.1,0-9.1,0.2c-3.2,0.2-4.2,1.3-4.4,4.5c-0.1,1.4,0.1,2.9,0.1,4.3
	c0,1.8,0.1,3.5-0.2,5.3c-0.5,3.3-1.9,4.7-5.3,5.2c-1.1,0.2-2.2,0.2-3.3,0.3c-3.4,0.1-6.7,0.2-10.1,0.4c-1.3,0-2.6,0-3.8,0.2
	c-2.4,0.3-3.5,1.3-3.6,3.7c-0.1,3.3,0,6.7,0.2,10.1c0.3,4.6,0.9,9.2,1.3,13.9c0.6,6.6,0.1,13.1-1.1,19.6c-2.5,13-5.1,26-7.7,39.1
	c-4.5,22.8-11.3,44.9-17.3,67.3c-4.5,17-9,34-13.7,50.9c-5.2,18.3-4.9,36.6-0.8,55.1c3.2,14.3,8.3,27.9,15,40.9
	c1.6,3.1,3.5,6.1,5.7,8.8c4.4,5.4,10.2,8.1,17.2,7.9c0.5,0,1,0,1.4,0c9.6-1,16.7,3.7,22.6,10.4c5.6,6.4,8.5,14.3,9.3,22.8
	c0.9,9.2-3.7,17.4-13.2,19.5c-17.8,3.9-35.6,3.9-52.8-3c-3.9-1.5-7.6-3.4-10.9-6c-3.3-2.6-5.9-5.8-7-10c-1.7-6.2-4.2-12.1-7.2-17.7
	c-12.5-23.8-23.4-48.3-35.2-72.5c-2.1-4.3-4.3-8.6-6.3-12.9c-4.2-9-6.4-18.4-5.3-28.4c0.3-3.2,1-6.3,1.8-9.4
	c2.7-10.4,5.7-20.6,8.3-31c2.3-9.3,3.6-18.9,4.4-28.4c0.6-7,0.9-14,1.5-21.1c0.4-5.2-0.2-10.2-1.6-15.2c-1.3-4.6-2.7-9.2-4.2-14.2
	c-0.8,0.6-1.5,0.9-1.9,1.4c-1.7,2.5-3.5,5-5,7.6c-8.5,14.6-16.9,29.4-25.5,44c-11,18.6-23.6,36.2-37.1,53
	c-4.7,5.9-9.2,11.9-13.9,17.8c-6.9,8.6-11.6,18.3-14.8,28.9c-5.5,18.3-8.6,37-8.9,56.2c-0.2,10.9,0.1,21.8,1.1,32.6
	c0.1,1,0.2,1.9,0.3,2.9c0.8,4,3,6.6,7.2,7.3c0.8,0.1,1.6,0.3,2.3,0.5c8.3,1.8,14.5,6.5,18.9,13.6c3.3,5.2,5.3,10.9,6.4,16.9
	c0.7,3.8,1.1,7.6,1.5,11.4c0.5,4.9-1.1,9-5,12.4c-5.1,4.5-10.9,6.7-17.7,5.4c-4.9-0.9-9.8-0.8-14.8,0c-5.6,0.9-11.2,0-16.5-2.1
	c-6.2-2.4-11.8-5.7-16.9-9.9c-7.7-6.5-11.5-14.7-11.5-24.8c0.1-20.6,0-41.3,0.2-61.9c0.1-13.9,0.1-27.8-0.9-41.7
	c-0.7-10.9-2-21.7-4.3-32.3c-1.5-6.9-2-13.9-0.8-21c1.6-9.1,5.5-17.1,12-23.5c5.7-5.6,9.8-12.1,12.8-19.5c5.3-13,10.8-26,15.1-39.4
	c3.7-11.5,5.7-23.3,6.6-35.3c1.4-19.1,0-38-2.7-56.9c-1.9-13.1-4-26.2-5.8-39.4c-1.2-8.9-2.1-17.8-3.1-26.7
	c-0.9-8.6-2.2-17.1-4.4-25.5c-1.5-5.6-2.3-11.3-2.5-17c-0.5-11-1-22.1-1.7-33.1c-0.5-9.3,1-18.2,4.3-26.8c2-5.2,4.2-10.4,6.7-15.4
	c5.3-10.6,10.8-21,16.2-31.6c1.4-2.7,2.7-5.4,4-8.2c1.3-2.9,2.2-6,2.5-9.2c0.4-5-0.7-9.5-3.8-13.5c-3.7-4.9-8.3-8.9-13.5-12.2
	c-13.3-8.5-26.6-17.1-40-25.7c-14-9-28.1-17.9-42.1-26.9c-4-2.6-7.9-5.5-11.9-8.1c-2.9-1.9-4.5-4.4-4.7-8c1.4-1.5,3.4-1.8,5.2-2.1
	c7.4-1.2,14.9-2.2,22.3-3.2c3.5-0.5,7-0.2,10.5,0.5c12.5,2.4,24.4,6.2,35.8,12.1c14.9,7.7,30.1,15,45.9,20.7
	c11.4,4.1,23.1,7.6,35.1,9.6c13.3,2.2,26.5,1.8,39.5-1.7c16.7-4.5,33.5-8.2,50.6-10.8c9.5-1.4,19-2.5,28.6-3.3c27-2.5,54-2.7,81-2.7
	c25.4,0,50.9-0.1,76.3,0.1c16.5,0.1,33,0.6,49.4,0.8c6.6,0.1,13.1,0.2,19.7,0c8.1-0.3,16.3-1,24.4-1.6c9.3-0.7,18.5-1.4,27.7-2.2
	c16.6-1.4,32.4-5.8,47-13.8c2.8-1.5,5.6-3.1,8.4-4.5c5.7-2.9,11.6-4.2,18.1-3.4c6.2,0.8,11.7-1.2,16.2-5.6c1.7-1.7,3.2-3.6,4.5-5.6
	c5.4-7.9,12.5-13.7,21.6-16.7c9.2-3.1,16.6-8.7,22.5-16.5c13.4-17.6,25.9-35.8,36.9-54.9c4.3-7.5,8.9-14.8,13.4-22.2
	c6.6-10.7,14.8-20.1,24.3-28.3c5.8-5,11.8-9.9,17.7-14.8c2.5-2,5-4,7.4-6.1c4.5-3.9,7.3-8.6,8.2-14.7c1.7-11.1,5.9-21.2,13.5-29.7
	c2.5-2.9,4.9-5.9,7.3-8.9c4.4-5.3,9.5-9.9,15.5-13.5c2.7-1.7,5.4-3.4,8.1-5.2c5-3.3,9.7-6.8,13.9-11c1.1-1.1,2.5-2,4-2.6
	c2.2-0.9,3.8-0.2,4.7,2c0.6,1.4,1.1,3.1,1.1,4.6c0,2.4-0.2,4.8-0.6,7.1c-1.2,6.1-2.6,12.2-3.7,18.3c-0.4,2.2-0.6,4.5-0.4,6.7
	c0.3,3.8,3.5,6.3,7.3,5.9c1.7-0.2,3.1-1,3.9-2.4c0.8-1.4,1.5-2.8,2-4.3c1.7-5.7,3.4-11.3,4.7-17.1c2.1-9.6,7.1-17.4,13.7-24.4
	C1817.1,420.2,1819.9,419.4,1823.2,419.1z"/>
</svg>
