<?xml version="1.0" encoding="utf-8"?>
<!-- Generator: Adobe Illustrator 22.0.0, SVG Export Plug-In . SVG Version: 6.00 Build 0)  -->
<svg version="1.1" id="Layer_1" xmlns="http://www.w3.org/2000/svg" xmlns:xlink="http://www.w3.org/1999/xlink" x="0px" y="0px"
	 viewBox="0 0 2880 1800" enable-background="new 0 0 2880 1800" xml:space="preserve">
<path d="M1131.5,1208.3c-0.4,0.3-1,0.6-1.4,1c-8.6,7.7-17.4,15.1-25.2,23.6c-5.3,5.8-11.2,11-17.3,15.9
	c-9.4,7.5-19.6,13.8-30.7,18.6c-1,0.4-2.1,0.9-3.1,1.3c-11.5,5.4-20.5,13.5-26.6,24.7c-11.6,20.9-19.8,42.9-24,66.4
	c-1.7,9.3-2.5,18.7-2.9,28.1c-0.1,1.4,0,2.9,0.2,4.3c0.3,3,1.9,5,4.9,5.9c1.5,0.4,3.1,0.8,4.7,1.1c3,0.6,6,1.2,8.9,1.9
	c5.6,1.4,10.3,4.2,13.8,9c1.8,2.5,3.6,4.9,5.4,7.4c3,4.3,6,8.7,8.9,13.1c0.7,1.1,1.4,2.2,1.9,3.3c1.1,2.9,0.9,5.7-1,8.2
	c-6.7,8.3-15,14-26,14.6c-19.5,1.1-38.6-1.2-57.1-7.8c-0.6-0.2-1.2-0.5-1.8-0.7c-5.7-1.7-8.7-5.7-9.8-11.3
	c-0.8-4.1-1.4-8.2-1.8-12.3c-1.4-13.9-1.1-27.8,0.5-41.7c1.3-11.3,2.2-22.6,2.4-34c0.3-25.9,0.7-51.8,1-77.7
	c0.1-5.6,0.7-11.2,2.1-16.6c2.6-10.2,7.9-18.8,15.7-25.9c3.9-3.6,8.3-6.5,12.9-9.2c7.6-4.5,14.6-9.8,20.7-16.2
	c11.4-12,18.1-26.2,19.7-42.7c0.4-4.3,1.2-8.5,2.3-12.7c2.1-7.9,3.3-16,3.3-24.2c0-7.7-1.1-15.3-3.5-22.7
	c-6.6-20.9-12.8-41.9-18.1-63.1c-4.4-17.5-8-35.2-10.9-53.1c-1.8-11.6-1.8-23.2,0.6-34.8c1.4-6.9,2.3-13.9,3.5-20.8
	c1.7-9.6,4.5-19,7.4-28.3c3.2-10.5,6.8-21,10.1-31.5c0.6-1.8,1-3.7,1.5-5.5c0.8-2.4,0.3-4.8-0.5-7.1c-0.7-2-1.9-3.6-3.9-4.6
	c-13.2-6.4-22.4-16.8-29.1-29.6c-2.5-4.8-4.8-9.8-6.8-14.8c-14.2-35.3-26.9-71.2-38.2-107.5c-3.1-10.1-5-20.5-5.2-31.1
	c-0.3-15.6,2.6-30.6,8.4-45c6.3-15.8,14.2-30.8,23.9-44.8c5.9-8.4,12.5-16.2,20.2-23.1c10.4-9.3,22.1-16.4,35.2-21
	c10.7-3.7,21.6-6.8,32.8-9c10.6-2.1,20.9-1.6,31.2,1.8c10.7,3.6,20.8,8.2,30.4,14.1c10.4,6.4,19.9,13.9,29,22.1
	c2.3,2.1,4,4.5,4.9,7.5c1,3.5,0.3,5.4-2.6,7.5c-2.5,1.8-5.4,3-8.5,2.7c-8.4-0.7-17-0.7-25.3-2.4c-3.6-0.8-7.2-1.5-10.7-2.7
	c-38.3-13.1-70.9,15.5-76.8,43.4c-1.9,8.9-4.4,17.7-6.3,26.6c-4.9,22.5-3,44.5,5.4,65.9c4.9,12.4,11.4,24,19.4,34.6
	c3.5,4.6,7.4,8.8,11.7,12.6c11.6,10.2,25.2,15.5,40.6,16.2c11.4,0.5,22.7-0.3,34-1.3c8.8-0.8,17.5-1.6,26.3-2.5
	c8.6-0.8,17.2-1.7,25.8-2.4c8.8-0.8,17.5-1.6,26.3-2.2c26.8-1.9,53.7-2.5,80.6-2c19.5,0.3,39,1.1,58.5,2.6
	c16.1,1.2,32.2,2.6,48.3,3.8c13.9,1.1,27.8,1.6,41.7,1.1c18.5-0.7,36.6-3.4,54.3-9c9.8-3,19.6-5.9,29.7-7.6
	c3.5-0.6,6.9-1.3,10.4-1.4c18.7-0.9,36.7-5.1,54.2-11.5c2-0.7,3.9-1.3,5.8-2.2c2.8-1.2,5.6-2.4,8.2-4c10.7-6.3,17.2-15.7,19.4-27.8
	c1.4-8,2.9-16,4.5-24c1.3-6.4-0.5-11.7-5.8-15.7c-3.5-2.6-6.4-5.6-8.8-9.3c-3.6-5.7-9-9.5-15.2-12c-2.8-1.1-5.7-2.1-8.7-2.8
	c-8.3-2-15.5-6.1-21.3-12.3c-4.1-4.3-7.8-8.9-11.6-13.5c-1.5-1.8-2.3-3.8-2.2-6.2c0.3-6.2-1.9-11.6-5.4-16.6
	c-3.5-5-7.2-9.8-10.9-14.6c-2.5-3.3-5.1-6.6-7.5-10c-3.4-4.7-5.9-9.8-7.6-15.4c-4.2-14-10.1-27.3-17.7-39.8
	c-1.6-2.6-2.8-5.4-3.7-8.3c-4.7-15.1-9.2-30.3-13.7-45.5c-0.9-3-1.6-6.2-1.8-9.4c-0.3-4.9,1.4-7.1,6.4-7.9c3-0.4,6.1-0.5,9.1-0.2
	c49.3,4.5,94.5,20.3,135.2,48.6c4.7,3.2,9.6,5.6,15.5,5.9c5.6,0.3,10.8-1,15.6-4c1.6-1,3.2-2.2,4.7-3.3
	c19.7-14.1,41.2-24.4,64.6-30.7c9.9-2.6,19.5-6.1,29.2-9.3c1.8-0.6,3.6-1.4,5.2-2.3c2.6-1.4,4.6-3.4,6.1-5.9
	c5-8.7,9.7-17.6,13.1-27.2c4.2-11.9,9-23.6,14.9-34.8c5.1-9.7,11-18.8,17.9-27.2c11.1-13.5,25.3-21.9,42.1-25.9
	c1.8-0.4,3.8-0.5,5.7-0.6c2.3-0.1,4,1.1,4.9,3.2c0.7,1.6,1.2,3.3,1.5,5c1.6,9.8,3.3,19.6,4.7,29.4c2.1,14.4,3.9,28.8,5.9,43.3
	c1,7.3,2.6,14.5,3.1,21.8c1,14.2,1.2,28.5-1.3,42.6c-1.1,6-2.8,11.8-5.3,17.4c-0.3,0.7-0.6,1.5-1,2.2c-3.1,4.9-2,9.8,0.2,14.6
	c0.8,1.7,2,2.8,3.5,3.9c2.4,1.9,4.9,3.7,7,5.8c5.2,5,8.3,11.2,9.2,18.5c1,8.4,1.6,16.9,1.7,25.4c0,2.6,0,5.1,0.1,7.7
	c0.1,3.7,1.7,6.3,5.5,7.5c6.5,2,11.5,6.2,15.5,11.6c0.4,0.5,0.8,1,1.1,1.5c3.3,5.1,6.7,10.1,9.7,15.4c11.8,21,8.3,46.1-8.7,63.2
	c-2.5,2.5-5.2,4.7-8,6.9c-10.6,8.5-19.8,18.1-27.2,29.6c-5,7.7-8.8,15.9-11,24.9c-2.8,11.4-2.5,22.8,0.4,34.2
	c2.4,9.5,4.5,19,5.7,28.7c0.6,4.4,1.1,8.9,1.4,13.4c0.4,6.5,0.6,13.1,0.8,19.7c0.5,21.6,0.9,43.2,1.3,64.8
	c0.4,21.9,0.5,43.8,0.9,65.8c0.5,26-6.2,49.9-19.9,72c-6.3,10.1-11.5,20.7-16.6,31.4c-4.7,9.8-9.4,19.6-14.2,29.4
	c-4.7,9.5-10.2,18.4-16.8,26.8c-4,5.1-7.7,10.6-11.3,16.1c-6.5,10-10.9,20.9-13.5,32.6c-4.7,21.1-9.6,42.1-13.6,63.3
	c-3.1,16.2-5.7,32.4-7.6,48.8c-1.8,16.2-2.9,32.5-2.9,48.8c0,10.6,0.6,21.1,3.2,31.4c1.1,4.3,2.4,8.6,3.9,12.8
	c0.7,2.1,1.9,4.1,3.2,5.9c1.8,2.6,4.2,4.2,7.4,4.7c8.9,1.6,16.5,5.9,23,12.2c6,5.8,10.9,12.6,15.6,19.4c0.6,0.9,1,2,1.3,3.1
	c0.5,1.5,0.1,2.7-1.2,3.8c-3.3,2.8-6.4,5.8-9.6,8.7c-4.3,3.9-9.4,5.9-15.2,6.1c-13,0.4-25.9,1.1-38.8,1.5c-4,0.1-8-0.1-12-0.1
	c-0.8,0-1.6-0.1-2.4-0.2c-6.2-0.7-10.1-3.3-10.8-10.6c-0.2-2.4-0.5-4.8-0.5-7.2c0.2-10.1-1.7-19.8-5.8-28.9
	c-4.1-9.2-8.6-18.2-13-27.3c-0.4-0.8-1-1.7-1.7-2.3c-3.4-2.5-4.7-6.4-6.4-10c-1-2.2-1-4.7-0.8-7.1c0.6-6.7,1.3-13.4,1.8-20.1
	c0.3-3.7,0.5-7.4,0.4-11c-0.7-25.3-1.6-50.5-2.4-75.8c-0.4-13.1-0.9-26.2-1.4-39.3c-0.2-5.7-1.5-10.7-4.1-15.8
	c-2.1,0.8-3.1,2.4-3.5,4.6c-0.8,4.6-1.8,9.1-2.6,13.7c-4.4,23.7-9,47.4-13.3,71.2c-2.5,13.8-4.9,27.7-6.7,41.7
	c-2.1,16.7-2.3,33.5-0.7,50.3c1.4,14.5,4.3,28.8,8.9,42.6c0.5,1.7,1.2,3.3,1.9,4.9c2.1,4.9,5.5,8.6,10.7,10.3
	c2.6,0.9,4.9,2.4,6.8,4.4c6.2,6.5,12.3,13,18.5,19.5c1.8,1.9,3.1,4.1,4,6.5c0.6,1.8,0.5,3.3-0.7,4.9c-2.3,2.9-4.4,5.9-6.7,8.8
	c-1.5,1.8-3.2,3.6-5,5.1c-3.1,2.7-6.8,4.2-11,4.3c-10.4,0.1-20.8,0.6-31.1-1c-13.2-1.9-24.7-7.5-34.2-17c-4-4-7-8.7-8.2-14.4
	c-0.4-2-0.6-4.1-0.7-6.2c-0.6-10.7-1.2-21.4-1.8-32.1c-0.2-3.3-0.6-6.7-1-10c-0.1-0.9-0.3-1.9-0.6-2.8c-1.5-5.8-4.6-8.3-10.5-8.7
	c-1.4-0.1-2.9,0-4.3-0.3c-2.6-0.6-3.8-2.1-3.8-4.8c0-1.3,0-2.6,0.4-3.8c1.4-4.3,1.2-8.6,0.3-12.8c-2.1-9.6-2.3-19.4-2.6-29.1
	c-0.6-21.4-1.2-42.9-2.1-64.3c-0.7-17.1-1.7-34.2-2.8-51.3c-0.9-12.9-2.2-25.8-3.3-38.7c-0.4-4.9-0.8-9.9-1.3-14.8
	c-0.2-2.1-0.4-4.1-0.8-6.2c-0.9-4.6-2.5-6-7-6.4c-1.9-0.1-3.8-0.1-5.8-0.1c-6.2-0.2-12.5-0.3-18.7-0.6c-5.5-0.2-10.8-1.1-16-2.7
	c-18.7-5.6-37.3-11.3-56-17.1c-17.4-5.4-34.7-11.1-52.5-15.3c-12-2.8-24.1-5.1-36.1-7.8c-15.8-3.5-31.5-7.1-47.3-10.5
	c-7.8-1.7-15.6-3.4-23.5-4.6c-14.7-2.2-28,1.5-39.3,11.2c-11.5,9.8-22,20.5-30.3,33.2c-6.1,9.2-12,18.5-18,27.8
	c-3.6,5.5-7.1,11-10.7,16.5c-5.2,7.9-11,15.3-17.5,22.2c-6.7,7.1-13.3,14.3-18.7,22.5c-2.5,3.7-4.8,7.5-7,11.5
	c-2.8,5.1-4.2,10.6-4.8,16.5c-1.1,12.2-0.9,24.3-0.2,36.4c0.4,6.4,0.8,12.8,1.2,19.2c0,0.6,0.1,1.3,0.2,1.9c0.4,4.3,2.6,7.1,6.7,8.5
	c3.3,1.1,6.7,2.1,10.1,3.1c1.6,0.4,3.1,0.9,4.3,1.9c7.1,5.9,14.4,11.7,21,18.3c2.6,2.6,4.2,5.6,5.1,9.1c0.6,2.3,0.3,4.4-1.4,6.3
	c-2.6,2.8-5,5.8-7.7,8.5c-2.5,2.5-5.7,4-9.3,4.6c-7.1,1.2-14.3,2-21.4,2.3c-7.8,0.3-15.7,0.2-23.5,0.2c-3.9,0-7.6-0.9-11.2-2.5
	c-6.4-2.8-10.8-7.4-12.6-14.2c-1.5-5.9-2.9-11.8-3.9-17.8c-1.4-8.8-2.5-17.7-3.4-26.6c-0.5-4.4-0.5-8.9-0.5-13.4
	c0-6.6-1-13-3.3-19.3c-3.4-9.5-5.2-19.4-6.5-29.5c-1.2-9.7-2-19.4-3-29.1c-0.3-2.7-0.7-5.4-1.1-8.1
	C1133.9,1209.5,1133.2,1208.5,1131.5,1208.3z"/>
</svg>
