<?xml version="1.0" encoding="utf-8"?>
<!-- Generator: Adobe Illustrator 22.0.0, SVG Export Plug-In . SVG Version: 6.00 Build 0)  -->
<svg version="1.1" id="Layer_1" xmlns="http://www.w3.org/2000/svg" xmlns:xlink="http://www.w3.org/1999/xlink" x="0px" y="0px"
	 viewBox="0 0 2880 1800" enable-background="new 0 0 2880 1800" xml:space="preserve">
<path d="M1922.2,573.2c1.3,1.6,2.2,2.8,3.3,4c13.7,16.3,27.3,32.7,41.2,48.8c3.2,3.7,2.5,7.6,2.4,11.7c0,0.6-0.5,1.1-0.9,1.7
	c-0.5,0.6-1,1.2-1.6,1.8c-5.9,5.8-9.7,13-13.3,20.4c-1.6,3.3-2.7,6.8-3.2,10.5c-0.4,3-1,6-1.7,8.9c-0.4,1.9-1.1,3.7-1.9,5.4
	c-1.5,3.3-4,5.8-7.5,7.1c-2.4,0.9-4.9,1.6-7.4,1.9c-4.3,0.5-8.6,0.9-12.9,1c-16.8,0.5-33.6,0.8-50.4,1.2c-5.3,0.1-10.6,0.4-15.8,0.6
	c-1.3,0.1-2.6,0.2-3.8,0.5c-4.2,1.2-7.3,3.5-9.4,7.5c-7.4,13.9-16.4,26.7-26.4,38.8c-11.7,14.2-24.5,27.5-38.2,39.8
	c-7.3,6.5-12,14.3-15,23.5c-6.6,20.2-13.4,40.4-20.6,60.4c-7.1,19.9-15.6,39.2-25.9,57.7c-13.1,23.5-29.1,44.8-49.2,62.8
	c-3.4,3.1-5.6,6.9-7.4,11.1c-9.1,22.2-18.4,44.3-27.5,66.5c-19,46-36.7,92.4-52.6,139.5c-2.3,6.8-4.6,13.6-6.8,20.5
	c-2.3,7-3.5,14.2-3.6,21.7c-0.1,12,2.8,23.3,9.3,33.2c6.5,9.9,12.1,20.3,17.9,30.6c4.2,7.5,9.2,14.3,15.7,19.9
	c1.2,1,2.3,2.3,3.2,3.6c2.5,3.7,2.5,7.6-0.4,11.1c-1.5,1.8-3.4,3.5-5.3,4.8c-5.3,3.4-11.2,5.4-17.1,7.5c-1.2,0.4-2.5,0.4-3.8,0.4
	c-3.8,0-7.7-0.1-11.5,0c-2.3,0.1-4.4-0.4-6.5-1.4c-2-0.9-4.2-1.7-6.3-2.4c-6.1-2.2-12.2-2.3-18.3-0.1c-7.4,2.7-14.5,1.4-21.1-2.7
	c-4.2-2.6-7.2-6.3-9.2-10.8c-4.1-9.4-7.2-19.1-9.7-29.1c-2.4-9.6-3.6-19.5-4.8-29.3c-0.2-1.7-0.6-3.5-0.7-5.2c-0.2-5-1.8-9.1-5.1-13
	c-5.5-6.6-7.2-14.9-7.6-23.3c-0.2-4.8-0.2-9.6,0-14.4c0.4-9-0.5-17.9-1.5-26.8c-1.2-11.1-2.3-22.3-3.5-33.4
	c-1.2-11.3-2.3-22.6-3.4-33.9c-1.1-10.7-2.1-21.3-3.2-32c-1.2-11.5-2.4-22.9-3.5-34.4c-1-10-2.1-20-3.2-30.1
	c-1.3-11.4-2.6-22.9-3.9-34.3c-0.4-3.2-1.6-6.2-3.1-9c-3.5-6.3-8.3-11.3-14.4-15.1c-18.6-11.6-37.5-22.6-56.8-33
	c-12.8-6.9-25.6-13.8-39-19.6c-6.3-2.7-12.6-5.4-18.9-8.2c-7.2-3.2-14.3-6.4-21.4-9.6c-1.9-0.8-3.8-1.7-5.8-2.3
	c-5.5-1.6-9.7,0.1-12.7,5c-0.6,0.9-1.1,2-1.5,3c-3.9,9.6-7.9,19.2-11.5,29c-2.2,6.1-4.1,12.5-5.5,18.9
	c-5.3,24.9-15.4,47.7-29.8,68.6c-5.3,7.6-11,14.9-16.7,22.3c-10.7,13.8-21.2,27.7-31.2,42c-6.2,8.8-11,18.4-13.8,28.8
	c-4.4,16.4-3.5,32.6,1.5,48.7c3.2,10.3,7.6,20,12.2,29.7c4.9,10.2,10.1,20.4,15.1,30.5c5.2,10.3,13.5,16.4,24.8,18.6
	c6,1.2,11.9,2.6,17.5,4.9c2.6,1.1,5.3,2.4,7.6,4.1c5.8,4.2,8,11,6.1,17.9c-1.1,4.3-3.9,6.9-8.3,7.6c-1.7,0.3-3.5,0.3-5.3,0.5
	c-0.9,0.1-1.9,0.2-2.7,0.3c-1,1.7,0,2.9,0.4,4.2c1.4,4.1,3,8.1,4.2,12.2c0.6,2.1,0.7,4.4,0.7,6.6c0,4.9-2.5,8.5-6.8,10.8
	c-3,1.6-6.3,2.2-9.6,2.7c-0.9,0.1-1.9,0.2-2.9,0.2c-15.2,0.3-30.4,0.4-45.5-1.2c-3-0.3-6-1-8.8-2.3c-5.6-2.7-9.8-6.7-11.7-12.7
	c-1.3-4.3-2.5-8.6-3.5-13c-1.7-7.7-4.3-15.1-6.8-22.5c-4-11.8-8.2-23.6-11.9-35.5c-2.9-9.3-5.2-18.8-7.7-28.2
	c-1.2-4.3-2.3-8.7-3.4-13c-1.3-4.8-3.2-9.4-5.6-13.7c-4.3-7.7-8.1-15.7-9.6-24.5c-0.7-4.1-1.1-8.2-1.2-12.4c-0.1-3.4-0.5-6.7-2-9.8
	c-4.6-9.8-4.4-19.8-0.9-29.9c0.9-2.4,1.8-4.8,2.8-7.1c4.6-10.3,5.5-21,3.9-31.9c-3.7-24.8-10.5-48.7-19.2-72.2
	c-9.2-24.8-20.3-48.7-32-72.3c-0.4-0.8-1-1.6-1.7-2.8c-0.4,1.4-0.8,2.3-1,3.2c-3.1,14.6-5.4,29.3-5.1,44.2
	c0.1,5.5-0.5,10.9-1.8,16.2c-3.9,16-13.3,27.4-28.3,34.1c-7.9,3.5-16,6.4-24.4,8.7c-23.8,6.5-47.5,12.8-71.3,19.1
	c-5.7,1.5-11.5,2.9-17.2,4.3c-1.5,0.4-3.1,0.7-4.5,1.1c-0.9-1-0.2-1.6,0.2-2.3c0.7-1.2,1.6-2.4,2.3-3.7
	c6.3-11.8,15.2-21.3,25.5-29.6c7.6-6.1,15.3-12.1,23.1-18c10-7.6,19.4-15.7,27.5-25.3c11.5-13.5,19.5-28.8,23.4-46.2
	c1.4-6.3,2.2-12.6,2.1-19c-0.3-21.8-0.8-43.5-1.1-65.3c-0.2-20.5-0.4-41-0.1-61.4c0.2-16.2,1.6-32.3,3.6-48.3
	c2.3-18.4,7-36.1,16-52.4c7.3-13.3,16.3-25.2,27.2-35.8c25.7-24.9,55.3-43.4,89.7-53.6c17.6-5.2,35.6-7.9,53.9-8.4
	c16-0.4,32,0.6,47.9,2.7c10.9,1.4,21.9,2.6,32.8,4.2c13.9,1.9,27.9,3.9,41.7,6.2c20.5,3.5,40.9,7.3,61.3,11.1c13,2.5,26,5.4,39,8
	c15.2,3,30.5,3.4,45.9,1.9c9.4-0.9,18.6-3.1,27.8-5c14.4-2.9,28.8-5.7,43.3-8.6c1.4-0.3,2.8-0.6,4.2-1c7.3-2.1,12.7-6.5,16.4-13.1
	c2.7-4.7,5.5-9.4,8.6-13.8c2.1-3,4.5-5.9,7.1-8.4c5-5,11.2-6.8,18.1-5.5c4.2,0.8,8.4,2,13,3.1c0.7-0.5,1.7-1.2,2.7-2
	c16.6-14.3,33.2-28.6,49.8-42.9c4.1-3.6,7.7-7.7,11-12c5.7-7.4,11.8-14.4,18.4-20.9c14-13.7,29.7-24.7,48.1-31.9
	c17.9-7,36.4-9.6,55.5-8.6c24.9,1.3,48.4,8.4,71.2,18.1c0.1,0.1,0.3,0.2,0.4,0.2c11.4,4.1,18.9,12.2,23.5,23.2
	c2.9,7.1,7.2,13.1,12.7,18.5c1.5,1.5,3.2,2.7,4.6,4.2c3.2,3.2,6.5,6.2,9.3,9.6c4.6,5.5,7.5,11.8,8.4,19c0.6,4.7,0,9.3-1,13.8
	c-1.3,6-3.7,11.6-6.4,17C1924.2,569.2,1923.3,571,1922.2,573.2z M1537.6,1151.3c0.8-0.6,1.5-0.8,1.6-1.2c0.5-1.4,0.8-2.8,1.1-4.2
	c2.1-10.3,4.1-20.7,6.2-31c6.5-32.4,13.1-64.8,19.6-97.2c0.3-1.5,0.4-3.1,0.6-4.8c-1.7-0.8-3.1-1.4-4.5-2.1
	c-5.2,5.4-9.7,11-11.7,18.1c-0.6,2-1.4,3.9-2.1,5.9c-6.6,19.7-10.9,39.7-11.1,60.5c-0.2,17.6-0.1,35.2-0.1,52.7
	C1537.1,1149,1537.3,1149.9,1537.6,1151.3z"/>
</svg>
