<?xml version="1.0" encoding="utf-8"?>
<!-- Generator: Adobe Illustrator 22.0.0, SVG Export Plug-In . SVG Version: 6.00 Build 0)  -->
<svg version="1.1" id="Layer_1" xmlns="http://www.w3.org/2000/svg" xmlns:xlink="http://www.w3.org/1999/xlink" x="0px" y="0px"
	 viewBox="0 0 2880 1800" enable-background="new 0 0 2880 1800" xml:space="preserve">
<path d="M1069.4,618c1.2-1.9,2.2-3.6,3.3-5.2c2-2.9,4-5.8,6.2-8.5c1.3-1.6,2.8-3.1,4.5-4.3c3.1-2.4,6.6-3,10.4-1.7
	c3.2,1.1,6,2.9,8.9,4.7c1.7,1.1,3.5,2.2,5.3,3.2c1.3,0.8,2.7,0.7,4.1,0c7.9-3.9,16-7.3,23.5-12c3.1-2,6-4.2,8.9-6.4
	c7.2-5.4,15-9,24.1-9.8c4.7-0.4,9.3,0,13.7,1.6c3,1.1,6.1,1.8,9.4,1.9c2.9,0.1,5.7-0.3,8.2-2.1c0.6-0.5,1.4-0.8,2-1.3
	c10.5-6.2,21.6-7.6,33.3-4.1c4.1,1.2,8.2,2.9,12,4.8c6.3,3.1,12.6,6.3,18.2,10.6c0.9,0.7,2.3,1.1,3.5,1.2
	c15.8,1.6,31.5,3.1,47.3,4.5c4,0.4,8,0.2,12,0.4c1.9,0.1,3.8,0.3,5.7,0.7c3.4,0.7,5.1,3.1,5.6,6.4c0.2,1.1,0.1,2.2,0.1,3.4
	c0,1.6,0,3.2,0.1,4.8c0.5,4.5,2.7,7.9,6.9,9.6c2.3,1,4.9,1.5,7.4,2.1c3.3,0.7,6.5,1.7,9.3,3.6c4.2,2.7,7.3,6.5,8,11.5
	c1.4,10.1,2.8,20.3,1.2,30.6c-0.6,3.8-1.7,7.5-3.4,11c-2.3,4.6-2.3,9.3-0.6,14c2.9,8.2,8.2,13.9,16.8,16.4
	c16.8,4.8,33.9,6.6,51.3,5.1c7.5-0.6,14.8-2.2,22.1-4.1c4.9-1.2,8.2-4.2,10.5-8.4c0.8-1.4,1.4-2.9,2-4.3
	c10.7-24.5,22.6-48.4,36.6-71.2c27.3-44.6,62.2-82.3,104.7-113c28.9-20.9,60.7-36.1,95.3-45.1c11.9-3.1,24-5.4,36.2-7
	c5.8-0.7,11.3-2.4,16.5-4.7c5.2-2.4,10.4-5,15.6-7.4c5.2-2.5,10.5-4.7,16.2-5.8c0.3-0.1,0.6-0.2,0.9-0.2c10.7-1.7,18.5,1.2,24,11.4
	c2.5,4.5,4.1,9.4,5.1,14.4c1.5,7.2,5,13,10.3,18c15.4,14.9,28.6,31.5,39.3,50.1c5.7,9.9,10.7,20.1,14.5,30.8c1.8,5,4.9,8.5,9.1,11.3
	c1.1,0.7,2.2,1.4,3.3,2c16.3,9.6,32.6,19,49.4,27.6c1,0.5,2,1,2.9,1.6c7,4.3,9.9,10.6,9,18.7c-1.2,10.6-4.3,20.6-8.7,30.3
	c-7,15.1-17.3,27.6-30.1,38c-6.5,5.3-13.4,9.9-20.6,14c-6.6,3.7-13.2,7.2-19.8,10.8c-1.5,0.8-3,1.7-4.8,2.7c0.2,1.2,0.3,2.3,0.6,3.3
	c1.9,6.3,3.9,12.5,5.7,18.8c4.1,14.3,5.2,28.9,3.7,43.7c-1.6,16.7-6.2,32.6-11.3,48.5c-12,37.5-30.2,71.8-52.1,104.4
	c-13.4,19.9-28,39-42.8,57.9c-20,25.5-38,52.3-53,81c-14.9,28.5-26.4,58.2-33.7,89.5c-3.5,15.1-6,30.4-7.4,45.9
	c-0.8,8.6-1.4,17.2-0.8,25.9c0.9,13.4,6.2,24.7,16.8,33.2c2.4,1.9,4.6,4,6.3,6.6c1.8,2.7,3,5.6,3.1,8.9c0.2,3.7-0.8,7-3.4,9.7
	c-6,6.3-13.1,9.9-22.2,9.1c-13.1-1.1-26-3.5-38.9-5.8c-2.5-0.4-5-0.8-7.4-1.2c-0.9,1-0.3,1.6,0,2.3c1.6,3.2,3.3,6.2,4.7,9.4
	c2.3,5.5,2.6,11.2,1,16.9c-2.2,7.9-7.2,13.4-14.8,16.5c-7.6,3.1-15.4,5.3-23.5,6.7c-21.8,3.9-42.2,0.2-61.7-10.2
	c-11.8-6.3-19-15.8-22.3-28.6c-0.6-2.5-1.1-5-1.6-7.5c-0.2-0.8-0.4-1.5-0.7-2.4c-1.2-0.2-2.3-0.4-3.3-0.7c-5-1.2-8.1-4.3-9.5-9.1
	c-0.5-1.7-0.9-3.4-1-5.2c-0.2-3.7-1.6-6.8-3.6-9.8c-2.5-3.7-5.1-7.4-7.8-10.9c-0.6-0.8-1.7-1.5-2.6-1.9c-1.6-0.7-3.4-1-5-1.7
	c-2.2-1-4.4-2-6.4-3.3c-5.8-3.6-8.9-9-9.5-15.8c-0.5-5.8,0.1-11.5,1.4-17.1c2.9-12,2.1-23.8-2-35.4c-2.8-7.8-4-15.8-4.1-24
	c-0.1-11.4-0.1-22.7-0.1-34.1c0-1.6,0-3.2,0-5c-1.6-0.4-2.9-0.8-4.3-1c-61.7-8.6-116.6-32.7-165.3-71.4c-1.1-0.9-2.3-1.7-3.7-2.8
	c-1,1.4-2,2.7-2.9,3.9c-24.1,33.1-46.4,67.5-67.7,102.5c-6.6,10.8-13.5,21.4-20.1,32.1c-4.3,6.9-9.7,12.7-15.8,17.9
	c-1.8,1.5-3.7,3-5.6,4.5c-10.2,8.3-16,19-17.8,31.9c-0.7,4.9-1,9.9-1.1,14.8c-0.1,8,0.2,16,0.1,24c0,2.6,0.9,4.3,3,5.5
	c1.9,1.1,3.9,2.2,5.9,3.2c3.6,1.8,6.9,4,9.7,7c7.2,7.7,8.9,16.8,6.9,26.7c-0.9,4.4-3.4,8-7.1,10.5c-2.5,1.7-5.2,3.2-7.9,4.4
	c-9.4,3.9-19.4,5.5-29.5,5.4c-14.5-0.2-28.2-3.6-41-10.4c-10-5.3-18.6-12.4-25.5-21.5c-5.9-7.7-9-16.4-10.5-25.9
	c-1.5-9.8-0.8-19.5,0.6-29.2c1.7-12.5,3.8-25,5.8-37.4c0.2-1.1,0.2-2.2,0.4-3.7c-1,0.2-1.8,0.2-2.4,0.5c-3.6,2.1-7.4,3.9-10.7,6.4
	c-13.5,10.1-24.3,22.7-32.3,37.5c-3.2,5.8-5.4,11.9-6,18.6c-0.3,3-0.3,6,0.3,9.1c1,5.2,3.7,9.1,8.2,11.9c1.4,0.8,2.8,1.5,4.2,2.3
	c6,3.2,9.8,8.1,11.4,14.7c1.1,4.4,1.1,8.9,0.4,13.3c-0.7,4.3-2.9,7.8-6.5,10.3c-2.4,1.6-4.9,3-7.5,4.1c-13.3,5.5-27.1,7.3-41.4,6.1
	c-10.7-0.9-21.1-3.2-31.5-6.1c-4.7-1.3-8.4-3.9-11.2-7.7c-8.8-12.1-15-25.3-17.8-40c-3.9-20.2-0.8-39.4,8.1-57.9
	c3.6-7.5,8.1-14.6,13.4-20.9c4.8-5.7,8.4-12.1,10.7-19.2c3.8-11.7,7.4-23.5,10.8-35.3c2.8-9.7,5-19.5,7.5-29.3
	c1.8-7.1,1.2-14.3,0.6-21.6c-2.2-0.9-4.3-1.7-6.3-2.6c-6.1-2.7-6.7-4.4-3.7-10.3c0.3-0.6,0.6-1.2,0.9-1.7c4.8-7.2,7-15.4,9.5-23.5
	c0.1-0.4,0-0.9,0-1.7c-2.5,0-4.8,0.7-7.1,0.9c-1.6,0.1-3.2,0.5-4.8,0.4c-3.2-0.1-4.7-1.4-5.3-4.4c-0.4-2.2-0.6-4.4-0.6-6.7
	c-0.1-3.2,0-6.4,0-9.7c-0.6-0.4-1.3-0.8-2-1.1c-5.6-2.7-10.1-6.7-13.8-11.6c-7-9.3-10.8-19.9-11.5-31.5c-0.6-10.4-1.2-20.8-1.8-31.1
	c-0.1-1-0.1-1.9-0.2-2.9c-0.2-2.4-1.1-4.3-3.2-5.6c-0.5-0.3-1.1-0.7-1.6-1.1c-3.6-2.9-4.8-6.2-3.3-10.6c0.6-2,1.6-3.9,2.7-5.6
	c3.1-4.9,4.6-10.2,4.7-15.9c0.3-17.1,4.5-33.2,11.5-48.7c5.1-11.2,10.5-22.3,15.7-33.4c1.1-2.3,2.2-4.6,3.4-7c-0.5-1.5-1-3-1.6-4.5
	c-3.7-10.4-7.4-20.8-11.2-31.1c-1.8-4.8-3.8-9.5-6-14.1c-3.1-6.6-5.3-13.4-5.9-20.6c-0.8-9.1,1-17.9,5.1-26c1.9-3.7,4-7.3,6.5-10.6
	c3.3-4.5,6.3-9.2,8.7-14.3c3.2-6.7,7.2-12.8,12.1-18.3c1.5-1.7,3-3.3,4.6-4.8c1.3-1.3,2.1-2.6,2.3-4.5c0.9-9.1,4.1-12.5,13-14.7
	c1.2-0.3,2.5-0.6,3.8-0.9c0.1-2-1-3.4-1.7-5c-1-2-2.1-4-2.9-6c-2-5-0.7-7.8,4.4-9.8c3.8-1.4,7.8-1.9,11.8-1.5
	c3.5,0.3,7,0.8,10.5,1.2c1.9,0.2,3.8,0.3,5.4,0.4c1.3-1.5,0.9-3,1-4.4c0.2-3,0.3-6.1,0.6-9.1c0.4-4.3,2.8-7.1,6.9-8.2
	c2-0.6,4-1.1,6.1-1.4c2.3-0.3,3.9-1.5,4.8-3.4c1-2.2,1.8-4.4,2.4-6.7c0.8-3.3,1.2-6.6,1.9-9.9c0.4-1.7,0.9-3.4,1.6-5
	c1.7-3.7,4.6-5.8,8.6-5.8c2.4-0.1,4.8,0.2,7.2,0.5C1066.5,617.3,1067.7,617.7,1069.4,618z"/>
</svg>
