<?xml version="1.0" encoding="utf-8"?>
<!-- Generator: Adobe Illustrator 22.0.0, SVG Export Plug-In . SVG Version: 6.00 Build 0)  -->
<svg version="1.1" id="Layer_1" xmlns="http://www.w3.org/2000/svg" xmlns:xlink="http://www.w3.org/1999/xlink" x="0px" y="0px"
	 viewBox="0 0 2880 1800" enable-background="new 0 0 2880 1800" xml:space="preserve">
<path d="M1821.5,770.8c0.2,3,0.3,5.3,0.6,7.7c0.7,7.5,0.7,15-0.3,22.5c-0.9,6.8-4.1,12.1-10.3,15.2c-1.5,0.7-2.5,1.9-3.6,3
	c-3.8,3.4-7.7,6.7-11.7,9.8c-2.1,1.6-4.6,2.1-7.3,1.9c-1.1-0.1-2.2-0.2-3.3-0.1c-1.4,0.1-2.5,0.7-3,2c-2.5,6.9-5.5,13.7-5.3,21.3
	c0.1,2.8,0.4,5.8,1.2,8.5c2.4,8.7,4.3,17.4,5.3,26.3c1,8.9,1.1,17.9,0.1,26.8c-2.6,23.7-6.5,47.2-10.4,70.7
	c-1.5,9.2-4.3,18.1-7.9,26.6c-5.6,13.2-11.4,26.4-17.3,39.6c-1.3,2.9-3,5.7-4.6,8.4c-1.9,3.2-3.2,6.6-3.9,10.2
	c-3.6,19-7.3,38-10.9,57c-1.3,6.7,0,13.1,3.6,18.9c1.3,2.2,2.8,4.3,4.2,6.4c6,9.2,10.8,18.9,13.5,29.5c1.2,4.8,2,9.7,1.6,14.7
	c-0.7,8.9-5.2,14.9-13.5,18c-3.3,1.2-6.8,1.9-10.3,1.9c-5.4,0-10.9,0-16.3,0c-4,0-8,0-12.3,0c0.1,1.2,0.1,2.1,0.3,3
	c1.2,6.1,2.5,12.2,3.5,18.4c0.5,2.7,0.6,5.4,0.6,8.1c0,4.4-2.2,7.6-6,9.6c-1.7,0.9-3.5,1.6-5.3,2.1c-5.5,1.5-11.1,3-16.7,4.4
	c-1.2,0.3-2.5,0.4-3.8,0.5c-1.8,0.1-3.5,0-5.3,0c-4.6-0.1-9.3-0.2-13.9-0.2c-6.3-2.2-12.8-4.1-19-6.7c-11.3-4.8-21.2-11.9-29.7-20.7
	c-2.3-2.4-4.5-5-6.4-7.8c-6.8-10.1-8.8-21.1-5.7-32.9c0.4-1.5,0.8-3.1,1.4-4.6c5.1-13.3,5.9-27.1,4.5-41.1
	c-1.2-12.2-0.7-24.3,3.2-36c2.1-6.2,2.2-12.6,0.8-19c-3.4-15-4.7-30.3-5.5-45.7c-0.1-2.2-0.4-4.5-1-6.6c-0.6-2.4-2.2-3.9-4.7-4.3
	c-1.7-0.3-3.5-0.5-5.2-0.4c-10.1,0.6-19.8-1.2-29.2-4.7c-4.7-1.7-9.2-3.7-13.8-5.5c-3.6-1.4-7.1-2.8-10.8-4.1
	c-6-2-12.1-2.9-18.4-2.3c-10.6,1.1-20.7-0.7-30.6-4.2c-2.3-0.8-4.5-1.6-6.7-2.6c-10.4-4.7-21.4-7.4-32.6-9.6
	c-7.4-1.5-14.8-2.6-22.3-3.1c-9.6-0.6-18.5-3.4-26.2-9.5c-4.8-3.8-10-6.9-15.5-9.6c-11.4-5.5-22.7-11.1-34.1-16.6
	c-1.7-0.8-3.5-1.6-5.4-2.1c-4.9-1.4-8.9,0.1-11.6,4.4c-1.2,1.9-2,4-2.7,6.1c-3.1,9.4-5.4,19-7.8,28.7c-1.6,6.5-3.5,13-5.7,19.3
	c-3,8.7-7.7,16.5-13.7,23.5c-2.1,2.4-3.8,5.2-5.3,7.9c-5.4,9.5-10.5,19-15.9,28.5c-2.9,5-5.9,9.9-9.3,14.6
	c-6.4,8.8-10.5,18.6-13.3,29.1c-3.7,13.9-7.6,27.7-11.7,41.6c-1.2,4.1-3,8.1-4.5,12.2c-1.6,4.5-3.2,9.1-3.4,13.9
	c-0.2,4,0.2,8,1.7,11.8c2,5.2,4,10.5,5.8,15.8c1.2,3.5,2.1,7.1,2.8,10.6c0.7,3.1,0.6,6.3-0.1,9.5c-1,4.4-3.3,7.9-6.8,10.7
	c-2.5,2-5.4,3.4-8.4,4.5c-7.6,2.8-15.4,4.2-23.4,4.6c-7.2,0.3-14.4,0.1-21.6-0.5c-6.8-0.6-13.7-0.8-20.6-1.3
	c-2.9-0.2-5.7-0.5-8.5-1.2c-3.5-0.8-6.5-2.8-8.6-5.8c-6.3-9.5-11.5-19.6-13.8-30.9c-2.1-10.3-1.1-20.3,2.6-30.2
	c2.5-6.7,5-13.5,7.2-20.3c3.6-11,5.2-22.4,4.8-34c-0.2-8-0.2-16-0.2-24c-0.1-9.1,0.7-18.2,1.4-27.3c1.3-15.2-0.6-30-4.9-44.6
	c-1.6-5.5-3.3-11-4.5-16.6c-1.6-7.5-2-15.2-1-22.9c0.5-3.8,0.6-7.7,0.5-11.5c-0.1-6.6-2-12.8-6.2-17.8c-4.8-5.8-5.3-11.9-3.9-18.9
	c2.7-13.7,2-27.4-1.9-40.8c-0.1-0.4-0.4-0.8-0.7-1.3c-0.1-0.1-0.3-0.2-0.6-0.4c-0.5,2.2-0.9,4.4-1.3,6.5c-2.7,13-15,21.8-28.1,19.4
	c-7.8-1.4-15.6-1.3-23.4-1.9c-3.9-0.3-7.6-0.7-10.7-3.4c-2.2-1.9-4.7-1.8-7.2-0.3c-1.6,1-3.2,2.1-4.7,3.3c-5,3.9-10.8,6.2-16.6,8.4
	c-3.4,1.3-7,1-10.4,0.2c-4.2-0.9-8.4-2-12.5-3.2c-8.9-2.7-17.5-6.2-25.9-10.2c-6.8-3.2-13.7-6.2-20.5-9.4c-2.9-1.4-5.7-2.8-8.5-4.4
	c-5.9-3.4-10.9-7.8-14.8-13.4c-6-8.5-12-17-18.2-25.3c-2.4-3.2-1.8-6.6-1.6-10.1c0-0.6,0.8-1.4,1.4-1.9c2.4-2,5.2-3.1,8.3-3.5
	c3.7-0.5,7.4-0.2,11,0.3c17.1,2.6,34.1,5.3,51.2,8c7.9,1.3,15.8,2.8,23.7,3.8c20,2.5,39.6,1.1,58.6-6.1c15.7-6,29-15.5,40.5-27.5
	c9.6-10.1,19.9-19.5,30.5-28.4c18.9-15.8,39-30.1,59.7-43.5c3.9-2.5,8.1-4.5,12.2-6.7c2.3-1.2,4.6-1.6,7.4-0.9c3.9,1,8,0.9,11.9-0.3
	c2.9-0.9,5.8-1.9,8.6-3c9.3-3.7,18.8-4.8,28.7-3.4c9.7,1.4,19.1,0.3,28.1-3.9c9.5-4.4,19.5-6.1,29.9-5.4c5.9,0.4,11.7,1.7,17.4,3.5
	c5,1.6,10,3.2,15.1,4.6c7.1,2,14.4,2.9,21.8,2.3c6.4-0.5,12.8-0.4,19.2,0c12.7,0.8,24.9,3.8,36.6,8.9c3.8,1.7,7.7,3.2,11.7,4.4
	c7.9,2.4,15.8,2.2,23.6-0.3c3-0.9,6-2.1,9-3.3c5.4-2.1,10.8-4,16.4-5.2c6.8-1.4,12.5-4.7,17.2-9.8c0.6-0.7,1.3-1.4,2-2.1
	c6.4-6.4,14.2-9.7,23.2-9.8c3.5-0.1,7-0.3,10.5-0.5c4.1-0.3,7.7-1.9,11.1-4.2c1.1-0.7,2.1-1.4,3.1-2.2c13.9-11,28.8-20.8,43.8-30.3
	c4.7-3,9.3-6.3,13.1-10.5c6.8-7.6,13.6-15.3,20.5-22.9c1.8-2,2.4-4.2,1.7-6.6c-2.1-6.9-0.3-13.2,2.7-19.4
	c5.2-10.4,10.4-20.9,15.4-31.4c2.3-4.8,5.4-8.7,9.8-11.6c4.5-3,7.9-6.9,10.5-11.6c2.5-4.6,6-8.2,10-11.5c7-5.6,14.1-11,21.6-15.9
	c3.8-2.4,7.6-4.8,11.7-6.5c3-1.2,5.7-2.9,7.6-5.6c1.1-1.6,2.7-2.1,4.4-2.6c4.9-1.4,9.8-2.7,14.7-4.3c2-0.6,4-0.9,6.1-0.9
	c2,0,3.8,0.3,5.4,1.4c1.2,0.8,2.5,1.4,3.8,2c3.5,1.5,6.9,1.2,10.1-0.9c0.7-0.4,1.4-0.9,2-1.4c1-0.9,2.2-1.2,3.6-1.2c3,0,6.1,0,9.1,0
	c3.4,0.1,6.6,1.3,9.6,2.7c3.6,1.7,7.1,3.6,10.5,5.7c2,1.2,3.9,2.9,5.5,4.6c3.1,3.3,6.9,4.5,11.3,4c1.9-0.2,3.8-0.4,5.7-0.6
	c2.8-0.2,5.3,0.5,7.7,2.2c14.3,10.2,28.4,20.7,41.4,32.7c2.9,2.7,6.1,5.2,9.3,7.6c3.8,2.8,6.2,6.4,6.6,11.2c0.4,4.1,0.7,8.3,1,12.4
	c0.2,2-0.3,3.7-2,5.1c-3,2.4-3.4,5.6-2.5,9.1c0.8,2.9,1.6,5.9,2.3,8.8c1.2,4.6,3.9,7.8,8.2,10.1c13.7,7.2,27.4,14.6,41,22
	c1.5,0.8,3.1,1.7,4.5,2.7c3.5,2.6,5.1,6.1,4.6,10.4c-1.6,14.8-5.8,28.8-13.8,41.5c-5.7,9.1-13.4,15.8-23.2,20.1
	c-1.2,0.5-2.3,1-3.5,1.5c-3.1,1.3-5.2,3.4-6.5,6.6c-1,2.5-2.3,5-3.8,7.2c-4.5,6.4-10.6,9.9-18.6,10.3c-13,0.6-25.9-0.5-38.6-3.4
	c-9.4-2.1-18.8-3.7-28.5-3.4C1825.3,770.5,1823.7,770.6,1821.5,770.8z"/>
</svg>
