<?xml version="1.0" encoding="utf-8"?>
<!-- Generator: Adobe Illustrator 22.0.0, SVG Export Plug-In . SVG Version: 6.00 Build 0)  -->
<svg version="1.1" id="Layer_1" xmlns="http://www.w3.org/2000/svg" xmlns:xlink="http://www.w3.org/1999/xlink" x="0px" y="0px"
	 viewBox="0 0 2880 1800" enable-background="new 0 0 2880 1800" xml:space="preserve">
<path d="M1830.3,645c0.1,1.2,0.1,2.2,0.3,3.3c1.8,8.9,4.1,17.7,6.8,26.5c2.3,7.7,4.3,15.4,4.6,23.5c0.1,2.9,0.1,5.8-0.2,8.6
	c-0.9,8.9-6.6,15.4-15.3,17.7c-2.5,0.6-4.9,1.2-7.3,1.7c-0.9,2-0.6,3.7-0.5,5.5c0.4,8.1-0.8,16-3.1,23.7c-0.8,2.9-2,5.8-3.4,8.4
	c-2.8,5-7.2,7.6-12.9,7.9c-3.1,0.1-6.1,0-9-1.1c-0.5-0.2-0.9-0.2-1.4-0.4c-4.9-1.9-6.6,0.2-8.1,3.9c-7.8,20.2-14.5,40.6-19.8,61.6
	c-3.7,14.9-6.3,30-8.6,45.2c-2.6,16.9-7.5,33-15.3,48.3c-9.3,18.4-18.4,36.9-27.6,55.4c-0.9,1.7-1.6,3.5-2.5,5.2
	c-2.8,5.8-4.7,11.9-5.4,18.3c-1.1,9.7-2.2,19.4-3,29.1c-1,12.8-1.8,25.5-2.6,38.3c-0.4,5.9-0.6,11.8-0.9,17.7
	c-0.6,13.1-1.7,26.2-1.5,39.3c0.2,8.6,0.8,17.2,1.6,25.9c1.1,12,1.4,24,1.3,36c0,1.6,0,3.2,0.1,4.8c0.1,2,1,2.9,3,3.1
	c1.6,0.2,3.2,0.2,4.8,0.3c11.4,0.8,19.8,7.5,23.3,18.4c0.8,2.3,0.6,4.3-0.8,6.3c-1.8,2.5-3.3,5.1-5.1,7.5c-2.8,3.9-6.5,6.5-11.1,8
	c-5,1.6-10,3.4-14.9,5.2c-1.2,0.4-2.4,0.9-3.5,1.6c-2.2,1.4-2.7,3.2-1.6,5.7c0.7,1.6,1.5,3.2,2.4,4.7c2.7,4.6,6.4,7.9,11.5,9.7
	c5.9,2.1,11.6,4.6,17.1,7.6c4.6,2.5,8.6,5.6,11.7,9.8c3.8,5.3,7.5,10.7,11.2,16.1c0.4,0.7,0.8,1.4,1.1,2.1c1.6,3.9,1,7.2-2.1,10
	c-3.1,2.9-6.8,4.6-11.1,5.1c-4.8,0.6-9.5,1.3-14.3,1.8c-3.2,0.4-6.3,1.2-9.1,2.9c-2.4,1.5-5,1.9-7.8,1.8c-4.2-0.1-8.3,0-12.5,0
	c-1.3,0-2.4-0.2-3.6-1c-1.4-1-3-1.8-4.6-2.5c-5.4-2.3-11-4.5-16.4-6.8c-2.8-1.2-5.5-2.6-8-4.3c-8.4-5.4-13.6-13-15-22.9
	c-1.2-8.2-2.1-16.5-3.1-24.8c-0.4-3.8-0.7-7.6-1.1-11.5c-0.3-3.3-1.6-6-4.1-8.4c-2.4-2.3-4.5-4.9-6.6-7.6c-1.6-2.1-3.4-3.4-6.1-2.5
	c-0.3,0.1-0.6,0.1-0.9,0.2c-5.1,0.5-8.4-2.1-8.8-7.2c-0.2-2.2-0.1-4.5,0.1-6.7c0.6-6,1.2-12.1,2-18.1c1.4-11.1,2-22.3,2.4-33.5
	c0.2-6.7,0.6-13.4,0.6-20.1c0-2.4-0.5-4.8-1.1-7.1c-7.9-30.8-16-61.6-23.9-92.4c-1.8-7-3.3-14-4.6-21.1c-1.7-9-1.8-18.1-0.1-27.2
	c0.9-5,0.1-5.9-5.1-5.8c-7.7,0.1-15.4,0.3-23,0.4c-26,0-51.7-2.9-77-9.2c-16.6-4.1-33.1-8.7-49.6-13.2
	c-21.8-5.9-43.9-10.4-66.3-12.9c-11.8-1.3-23.6-1.9-35.4-2.1c-8.8-0.1-17.6-0.2-26.4-0.3c-1,0-1.9,0-2.9,0c-2.8,0.1-4.9,1.4-6.3,3.7
	c-0.9,1.5-1.6,3.1-2.4,4.7c-6.7,14-13.7,27.8-21.9,41c-3.3,5.3-6.8,10.5-10.4,15.5c-7.2,10.1-15.9,18.8-25.9,26.2
	c-11.8,8.7-23.7,17.4-35.6,26.1c-14.9,10.8-29.8,21.6-44,33.3c-10,8.2-19.7,16.8-28.7,26.1c-3.4,3.6-6.7,7.3-9.8,11.1
	c-6.4,8-10.2,17.2-11.6,27.5c-1.5,10.9-1.5,21.7,0.2,32.5c0.1,0.9,0.4,1.9,0.6,2.8c0.6,5.1,3.6,8,8.4,9.3c2.2,0.6,4.3,1.2,6.5,1.8
	c10.6,3,18.2,9.6,23.6,19.1c2,3.5,2.7,7.1,1.2,11c-1.7,4.6-5.7,7.5-10.6,7.6c-1.1,0-2.2-0.1-3.4-0.1c-3.9-0.2-7.4,0.9-10.1,3.7
	c-5.1,5.2-10.9,6.1-17.6,3.7c-2.2-0.8-4.7-0.9-7-1.4c-3.9-0.9-7.8-1.9-11.6-3c-3.5-1-6.3-3.1-8.7-5.8c-3.2-3.7-5.4-7.9-6.9-12.5
	c-1.6-4.9-2.4-10-2.9-15c-0.7-6.5-1.2-13.1-1.8-19.6c-0.8-9.1-1.5-18.2-2.4-27.2c-1.5-14.8-2.1-29.7-2.5-44.5c-0.1-4-0.1-8-0.2-12
	c0-1-0.4-2.1-0.7-3.4c-0.9,0.4-1.5,0.5-2,0.9c-5.1,3.6-10.2,7.2-15.3,10.8c-5.3,3.9-9.8,8.6-13.7,14c-6.2,8.8-11.9,17.8-16.8,27.4
	c-9.7,18.8-17.2,38.5-22.9,58.9c-2.2,7.7-3.5,15.6-3.6,23.7c0,1.3,0,2.6,0,3.8c0.2,4.9,2.2,9,6,12c1.6,1.3,3.4,2.4,5.2,3.5
	c5.6,3.5,9.9,8.1,12.7,14.1c1.9,4.2,3.6,8.6,5.4,12.8c0.8,1.8,0.6,3.4-0.8,4.8c-2.2,2.3-4.3,4.7-6.7,6.9c-3.5,3.2-7.6,5.2-12.2,6.3
	c-5.8,1.4-11.7,1.9-17.6,2.5c-4.9,0.6-9.9,1.1-14.8,1.5c-2.7,0.2-5.4,0.3-8.1,0c-6.1-0.6-10.8-3.8-14.1-8.9c-1.8-2.8-3.4-5.8-4.5-9
	c-2.2-6-4.8-11.9-7.8-17.5c-1.5-2.8-2.1-5.6-2.1-8.7c0-4.2,0.5-8.3,1.7-12.3c2.1-7.2,3.1-14.7,3.8-22.2c1.3-13.4,3.8-26.6,6.5-39.7
	c3.6-17.9,7.4-35.7,11-53.6c0.9-4.5,2.7-8.4,5.9-11.8c8.7-9.3,17.5-18.7,26.1-28.2c18.3-20.2,36-40.8,51.9-62.9
	c5-6.9,9.7-13.9,14.3-21c4.6-7.2,8.1-14.9,9.8-23.3c1-4.7,1.6-9.5,2.1-14.2c1.5-15.1,3-30.2,4.2-45.4c1.8-21.4,3.2-42.7,5-64.1
	c2.3-27.5,8.1-54.4,16.5-80.7c1.4-4.4,2.6-8.9,3.6-13.4c1.4-5.7,0.4-11.1-1.7-16.4c-0.8-1.9-1.7-3.8-2.7-5.6
	c-11.2-22.3-21.9-44.8-30.9-68.1c-5.6-14.5-10.5-29.2-14.2-44.3c-4.4-18.1-4.9-36.3-1.9-54.7c2.1-12.7,5-25.1,9.9-37
	c6.7-16.4,16.5-30.6,29.5-42.7c6.6-6.1,13.3-12,20.6-17.2c9.5-6.9,19.8-12.4,31-16c6.2-2,12.5-3.9,18.8-5.6c2.1-0.6,4.4-0.9,6.6-0.7
	c6,0.4,9.7,5.9,8,11.6c-0.5,1.6-1.4,3.3-2.3,4.7c-2.2,3.2-4.9,5.9-7.9,8.3c-11,8.8-22,17.6-33,26.4c-6.5,5.2-12.6,10.8-17.9,17.3
	c-8,9.8-13.7,20.8-16.4,33.3c-2.5,11.6-2.2,23.2,0.1,34.8c3.7,18.9,10.2,37,18.3,54.4c2.8,6.1,5.9,12.1,8.8,18.1
	c4.6,9.6,10.4,18.4,16.9,26.7c2.1,2.6,4.1,5.3,6.2,7.9c3.1,4,7.2,5.8,12.2,5.2c5.2-0.6,10.5-1.4,15.7-2.2c19.1-3,38.2-6.2,57.3-8.9
	c15.5-2.2,31.1-3.6,46.8-4.3c9.1-0.4,18.2-1,27.3-1.4c7.4-0.2,14.7-0.4,22.1-0.2c14.7,0.6,29.4,1.4,44.1,2.3
	c9.9,0.6,19.8,1.3,29.7,2.1c9.4,0.7,18.8,1.6,28.2,2.4c17.4,1.4,34.8,2.1,52.3,1.4c6.7-0.3,13.4-1.2,19.9-3.1
	c18.9-5.3,37.9-10.6,56.8-16c14.7-4.3,29.2-9.4,43.5-15.2c8.2-3.3,16-7.3,23.3-12.3c13.5-9.3,23.9-21.2,30.8-36
	c7.7-16.5,14.9-33.3,20.6-50.6c3.8-11.5,8.2-22.9,13.7-33.8c10-20.2,23.2-37.9,40.5-52.4c3.9-3.3,7.8-6.7,11.8-9.9
	c6.7-5.4,14.3-9.1,22.8-10.7c2.2-0.4,4.4-1,6.5-1.5c5.9-1.5,11.9-1.9,18-2c9.6-0.1,19.1,0.5,28.5,2.8c7.6,1.8,15.3,3.1,23,4.8
	c8.5,1.8,16.5,5.1,24.2,9c9,4.6,15.2,12,19,21.5c0.7,1.8,1.3,3.6,1.9,5.4c2.3,6.5,6.7,10.8,13.2,12.9c2.6,0.8,5.3,1.4,7.9,2
	c13.1,3.1,26,6.6,38.6,11.5c7.5,2.9,14.6,6.5,21.2,11c1.5,1,2.9,2.1,4.2,3.2c4.9,4,6.4,9,4.7,15c-0.6,2.2-1.2,4.3-2,6.4
	c-4.7,11.9-9.5,23.8-14.3,35.6c-0.9,2.2-2.1,4.3-3.3,6.4c-5.8,10-14.5,15.5-26,16.5c-3.3,0.3-6.7,0.6-10.1,0.6
	c-5.4,0-10,1.6-13.8,5.6c-2.5,2.7-5.7,3.9-9.3,4.3c-5.6,0.6-11.1,1.6-16.6,2.1c-6.4,0.6-12.7-0.3-18.8-2.6
	c-5.2-1.9-10.7-3.3-16.1-4.9C1831.6,644.9,1831.1,645,1830.3,645z"/>
</svg>
