<?xml version="1.0" encoding="utf-8"?>
<!-- Generator: Adobe Illustrator 22.0.0, SVG Export Plug-In . SVG Version: 6.00 Build 0)  -->
<svg version="1.1" id="Layer_1" xmlns="http://www.w3.org/2000/svg" xmlns:xlink="http://www.w3.org/1999/xlink" x="0px" y="0px"
	 viewBox="0 0 2880 1800" enable-background="new 0 0 2880 1800" xml:space="preserve">
<path d="M1713.4,570.7c1.1-4.8,1.8-8.3,2.6-11.8c1.6-6.9,3-13.7,4.8-20.5c1.4-5.4,3.6-10.6,6.3-15.5c3-5.3,8.7-7.2,14.4-4.9
	c1.9,0.8,3.3,2,4.2,3.8c0.6,1.1,1,2.3,1.4,3.6c5.9,17.7,9.4,35.8,9.1,54.6c-0.1,5.4,0.4,6,5.8,6.7c4,0.5,7.9,1,11.9,1.3
	c8.7,0.7,17.1,2.6,25.1,6c10,4.3,20,8.6,29.7,13.4c14.3,7.1,24.5,18.3,31.3,32.6c0.9,1.9,1.8,3.8,2.5,5.7c2.2,6,6.4,9.8,12.4,11.8
	c5.1,1.7,10.3,3.6,15.4,5.4c16.6,5.8,33.2,11.5,49.9,17.2c3.2,1.1,6.3,2.3,9.3,3.7c2.4,1.2,4.7,2.7,7,4.1c3.7,2.3,4.8,5.7,4.1,9.9
	c-1,5.4-2.9,10.5-6.1,15c-2.3,3.3-4.9,6.3-7.3,9.5c-3.4,4.4-6.8,8.9-10.2,13.3c-2.3,3-4.6,6.2-7.1,9.1c-5.8,6.8-12.7,12.1-20.7,16.1
	c-18.3,9.2-37.5,15.4-57.8,18.3c-4.8,0.7-9.4,1.8-13.9,3.6c-17.7,7.2-26.8,22.9-24.1,41.8c2.4,17,4,34,4.7,51.1
	c0.2,6.1,0.6,12.1,0.7,18.2c0.7,40.5-5.8,79.9-18.7,118.3c-9.2,27.3-21.2,53.2-37.3,77.1c-7.8,11.6-16.2,22.6-26.1,32.5
	c-16.4,16.5-35.5,28.7-57.5,36.3c-1.8,0.6-3.6,1.3-5.4,2.1c-17.2,7.7-21.8,30.7-10.8,44.8c2.3,2.9,5,4.6,8.8,5
	c3.6,0.4,7.2,1.3,10.7,2.4c6.4,2,12.4,5.2,18.1,8.7c6.2,3.8,8.8,9.5,8.6,16.6c-0.1,3.8-1.7,6.8-4.7,9c-0.9,0.7-1.8,1.3-2.8,1.8
	c-10.8,5.6-22.1,9.2-34.5,8.6c-0.8,0-1.6-0.1-2.4-0.1c-3.2,0-3.9,0.5-4.4,3.7c-0.5,2.8-1.7,5.1-3.4,7.3c-4.1,5.5-9.5,9.4-15.9,11.9
	c-6.4,2.5-13.1,4-20,4.9c-12,1.6-24,0.7-35.9-0.4c-1.9-0.2-3.8-0.4-5.7-0.6c-1.6-0.2-3.2-0.5-4.7-0.9c-5.9-1.6-9.7-5.4-11.4-11.3
	c-0.6-2.1-1-4.4-1-6.6c-0.1-19.3-4.3-37.7-11.4-55.6c-3.5-8.9-7.4-17.7-11.1-26.6c-1-2.5-2-5.1-3.1-7.5c-1.9-4.3-3.6-5.3-8.3-4.6
	c-6.2,1-12.3,2.1-18.4,3.2c-16.7,2.9-33.4,5.6-50.4,6.9c-11,0.9-22,1.4-33.1,0.7c-8.8-0.5-17.6-0.7-26.4-1.4
	c-20.9-1.7-41.7-4-62-9.5c-27.6-7.5-53.3-19-76.9-35c-4.9-3.3-9.9-6.5-14.8-9.8c-12-8-25.1-13.3-39.1-16.5
	c-5.9-1.4-11.9-2.5-17.8-3.8c-2.8-0.6-5.3-0.1-7.9,1c-9,3.8-17.6,8.4-25.5,14.2c-8,5.9-16,11.7-24,17.6
	c-7.1,5.3-14.3,10.2-22.1,14.3c-6.8,3.5-14,6.3-21.4,8.3c-3.7,1-7.4,2.2-10.9,3.6c-8,3.3-14.1,8.7-17.8,16.7
	c-2.5,5.5-5,11.1-7.2,16.7c-1.8,4.4-1.2,5.7,2.8,8.4c2.8,1.9,5.7,3.5,8.6,5.3c5,3.2,10,6.3,15,9.5c3.4,2.2,6.1,5.1,8.3,8.5
	c2.5,3.9,2.4,6.5-0.5,10.1c-6,7.4-13.7,11.9-23.2,13.1c-12.4,1.6-24.9,1.3-37.4,1.8c-4.1,0.2-7.5-1.6-9.9-4.9
	c-1.1-1.4-1.9-3-2.9-4.4c-2.5-3.7-4.9-7.5-7.5-11.1c-2.6-3.5-5.8-6.4-9.4-8.9c-1.3-0.9-2.5-2-4.5-2c-1.3,3.6-0.5,7.2,0.5,10.7
	c0.9,3.1,2.7,5.8,4.7,8.3c1.1,1.4,2.3,2.7,3.4,4.1c3.9,5.2,5.4,11.1,5.2,17.6c-0.2,6.3-4.5,12.7-12.9,13.7c-2.4,0.3-4.8,0.6-7.2,0.7
	c-7.2,0.4-14.3,1.5-21.5,0.5c-9.4-1.2-17.9-4.5-25.6-10.2c-5.4-4-8.9-9.3-9.5-16c-0.9-9.5-2.5-19-2.5-28.7c0-10.1-0.4-20.2,0-30.2
	c0.4-10.9,1.3-21.7,2.4-32.5c1.7-17.7,3.3-35.3,3.2-53.1c-0.1-21,0.5-41.9,1-62.9c0.3-11.9,1.9-23.6,4-35.2
	c2.7-15.4,5.9-30.8,10.6-45.8c14.7-46.6,40.4-86.1,78-117.5c26.8-22.4,57.6-36.6,91.8-43.5c19.1-3.8,38.3-5.4,57.7-4.6
	c4.8,0.2,9.6,0.6,14.4,1c17.4,1.4,34.8,2,52.3,2c19.8,0,39.7-0.4,59.5-0.8c14.2-0.3,28.5-0.8,42.7-1.2c14.6-0.4,29.1-0.6,43.7-1.2
	c25.5-0.9,50.6-4.4,75.5-9.9c13-2.9,25.9-5.9,38.5-10c27.3-8.8,51.1-23.3,71.4-43.5c6-6,11.9-12,18-18c7.4-7.3,15.2-14.2,23.5-20.5
	c4.5-3.4,8.4-7.4,11.5-12.1c3.3-4.9,6.4-10,9.3-15.1c3.5-6.3,6.8-12.7,10.1-19.1c0.7-1.4,1.3-3,1.6-4.5c1.2-7.9,2.5-15.8,3.3-23.8
	c0.9-9.7,1.3-19.5,1.7-29.2c0.5-13.1,0.9-26.2,1.3-39.3c0.1-4,0.3-8,0.7-12c0.4-5.4,3.1-9.7,7-13.3c3-2.8,6.6-3,10.3-1.1
	c1.4,0.7,2.6,1.8,3.9,2.8c12.5,10.3,24.1,21.6,33.6,34.8C1710.2,566.8,1711.4,568.3,1713.4,570.7z"/>
</svg>
