<?xml version="1.0" encoding="utf-8"?>
<!-- Generator: Adobe Illustrator 22.0.0, SVG Export Plug-In . SVG Version: 6.00 Build 0)  -->
<svg version="1.1" id="Layer_1" xmlns="http://www.w3.org/2000/svg" xmlns:xlink="http://www.w3.org/1999/xlink" x="0px" y="0px"
	 viewBox="0 0 2880 1800" enable-background="new 0 0 2880 1800" xml:space="preserve">
<path d="M938.9,1132.3c-1.4-3.8-1.3-6.9,0.2-10c1.6-3.1,0.9-5.9-1.3-8.4c-0.3-0.4-0.6-0.8-0.9-1.1c-4-4-5.7-8.8-5.2-14.4
	c0.2-2.4,0.3-4.8,0.5-7.2c0.1-1.1,0.3-2.2,0.4-3.3c0.3-3.6-0.6-6.7-3.5-9c-2.8-2.1-3.7-5-3.9-8.4c-0.4-8.8,0.3-17.6,1.2-26.3
	c0.8-8,1.6-15.9,2.3-23.9c0.2-2-0.2-4.1-0.4-6.2c-0.1-1.1-0.4-2.2-0.5-3.3c-0.5-3.9,0.3-7.3,3.1-10.2c1-1,1.9-2.2,2.7-3.4
	c0.7-1.1,1.4-2.2,1.8-3.4c1.4-4,0.9-4.9-3.2-6.1c-0.2,0-0.3-0.1-0.5-0.1c-4.5-0.8-5.8-3.7-5.1-8.1c0.3-2,1.3-3.6,2.5-5.1
	c0.8-1,1.6-2,2.3-3.1c1.1-1.8,1.1-3.7-0.3-5.3c-0.6-0.7-1.4-1.3-2-2.1c-2.6-2.9-3-5.8-1.1-9.2c0.7-1.3,1.5-2.4,2.4-3.6
	c5-6.3,8.5-13.5,11.2-21.1c0.6-1.8,0.9-3.7,1-5.6c0.1-1.7,0-3.5-0.3-5.3c-1-4.9,0-9.5,2-14c4-8.7,8-17.4,12-26.2c0.9-2,2-4,2.8-6.1
	c1.4-3.4,2.3-6.9,2.6-10.7c0.3-3.8,0.9-7.6,1.6-11.4c0.7-3.8,2.3-7.3,4.1-10.7c2.5-4.8,4.8-9.7,7.2-14.6c0.7-1.6,1.3-3.3,1.8-5
	c3-10.8,6.3-21.5,9-32.3c3.3-13,9.5-24.4,17.2-35.1c3.4-4.7,7.7-8.6,12.6-11.7c5.2-3.1,10.6-6,15.9-9c0.4-0.2,0.8-0.5,1.3-0.6
	c4-0.6,7.1-2.9,10.3-5c11.1-7.3,22.2-14.6,33.2-22c3.8-2.6,7.4-5.5,11.1-8.3c4.1-3.1,8.6-4.9,13.9-4.1c4.1,0.6,7.5-0.8,10.5-3.6
	c0.7-0.7,1.4-1.4,2.1-2c5-4.5,10.9-5.9,17.4-4.7c1.7,0.3,3.4,0.9,5.1,1.2c5.9,1.2,10-1.3,11.9-5.6c0.2-0.4,0.4-0.9,0.7-1.3
	c1-2.1,2.5-3.2,4.8-3.4c3.2-0.2,5.7-1.9,7.7-4.3c1.1-1.3,2.3-2.6,3.7-3.8c2.2-1.9,4.8-3.2,7.7-3.5c7.8-1,15.5-2.2,23.4-2.5
	c2.9-0.1,5.7-0.5,8.6-1c3.9-0.7,7.3-2.4,10.1-5.1c1.7-1.6,3.6-2.6,5.7-3.3c3.7-1.2,7.3-2.5,10.9-3.7c4.3-1.4,8.6-2.5,13.1-2.8
	c1.9-0.1,3.8-0.7,5.5-1.4c6.2-2.5,12.4-5.1,18.6-7.6c1.3-0.5,2.7-1,4.1-1.2c2.6-0.3,4.3,0.9,4.9,3.4c0.2,0.9,0.3,1.9,0.5,2.8
	c0.6,3.1,1.3,3.7,4.5,3.9c1.6,0.1,3.2,0,4.8,0c7.2,0,14.4,0,21.6,0.1c1.6,0,3.2,0,4.6,1c1.6,1.1,2.1,2.4,1.1,4
	c-0.8,1.2-1.8,2.2-2.8,3.2c-1.1,1-2.1,1.9-2.3,3.6c1.2,1.7,3.1,2.2,4.9,2.6c4.3,0.9,8.2,2.6,12,4.7c3.1,1.7,6.3,3.2,9.3,4.9
	c4.8,2.6,8.9,6.1,12.6,10.2c2.8,3.1,5.9,5.8,9,8.6c2.3,2,4.8,3.8,7,5.8c2.7,2.4,2.8,3.4,1.3,6.7c-0.1,0.1-0.2,0.3-0.2,0.4
	c-1.3,2.9-1.1,4.2,1.3,6.3c1,0.8,2,1.6,3,2.4s2,1.6,3,2.4c2.6,2.4,3.5,5.3,2.4,8.7c-0.2,0.6-0.5,1.2-0.7,1.8
	c-0.6,2.1-0.1,3.8,1.6,5.1c1.4,1.1,2.9,2.1,4.3,3c4.3,2.8,8.5,5.7,12.8,8.5c2.8,1.8,4.6,4.4,5.9,7.4c0.8,2-0.1,3.4-2.3,3.6
	c-1.1,0.1-2.3,0-3.3,0.1c-2,0.3-3.1,1.9-2.5,3.8c0.2,0.8,0.5,1.5,0.9,2.2c2.4,4.7,4.9,9.3,7.3,14c1.5,3,4,4.4,7.3,4.6
	c0.8,0,1.6,0,2.4,0c25,0,49.9,0,74.9,0c1.4,0,2.9,0.1,4.3-0.1c5-0.5,8.9-2.9,10.8-7.6c2.8-7.4,6.6-14.2,10-21.3
	c1.3-2.7,2.3-5.6,3.4-8.4c1.9-4.9,3.8-9.8,5.8-14.7c2.5-6.2,5.2-12.4,7.6-18.7c2.6-6.7,5.1-13.5,7.5-20.2c1.1-3,2.2-6,2.9-9.1
	c2.6-11.1,6.2-21.8,9.8-32.6c1.9-5.6,3.1-11.4,3.6-17.3c0.4-5.1,1.2-10.1,2.5-15.1c1-3.7,1.5-7.5,2-11.3c0.3-2.6,1.2-4.9,2.7-7.1
	c3-4.5,6.2-8.9,8.9-13.6c7.1-12.1,15.9-22.8,25.7-32.8c14.2-14.5,29.7-27.2,47.4-37.2c7.1-4,14.5-7.5,22.1-10.5
	c2.7-1.1,5.4-2.1,8-3.2c4.7-1.9,8.7-4.7,11.8-8.7c2.7-3.5,6.4-5.7,10.2-7.8c2.4-1.3,4.6-1,6.7,0.6c1.1,0.9,2.3,1.8,3.5,2.6
	c2.4,1.6,5,1.8,7.1-0.3c4.4-4.3,9.2-4.6,14.5-2c2.8,1.3,5.4,1,8.2-0.6c4.7-2.9,9.9-4.6,15.2-5.7c5.9-1.2,12-2.1,18-3.1
	c7.7-1.3,15.3-0.7,23,0.2c4.8,0.5,9.5,1.2,14.3,1.7c3,0.3,5,1.6,6.1,4.5c0.7,1.9,2,3.7,3.3,5.2c2.3,2.6,4.8,5.1,7.4,7.6
	c2.8,2.7,4.7,2.8,8.2,1c1.5-0.8,3.1-1.7,4.6-2.5c1.1-0.6,2.2-0.3,3.1,0.5c2,1.5,3.4,3.4,4.1,5.7c0.6,1.8,1.2,3.6,1.9,5.4
	c1.8,4.3,5.1,7.1,9.6,7.8c5.8,0.9,10.5,3.8,14.7,7.5c3.2,2.7,6.2,5.6,9.2,8.4c2.6,2.4,5.1,4.8,7.9,7c3.4,2.8,5.4,6.2,5.8,10.6
	c0.1,1.1,0.2,2.2,0.5,3.3c0.7,2.8,2.1,5,4.9,6.1c4.4,1.6,7.6,4.7,9.7,8.8c0.9,1.8,2.4,2.9,4,4c4.6,3.2,5.1,4.7,2.7,9.6
	c-2.2,4.4-2.6,6.6,2.5,9.4c2.7,1.5,3.9,3.7,3.4,6.7c-0.3,2.2,0.3,4,1.7,5.8c1.4,1.7,1.6,3.8,1,5.9c-1.5,4.9-1.4,9.7,0,14.6
	c0.9,3.2,0.1,6.3-1.3,9.3c-2.1,4.5-4,9.1-5.1,13.9c-0.5,2.2-1,4.4-1.3,6.6c-0.8,5.9,2.2,11.1,7.7,13.4c10.5,4.5,19.9,10.8,29.1,17.5
	c4.6,3.4,7.3,7.8,7.8,13.7c0.3,3.8,1.4,7.5,3.1,11c1.9,3.8,2.7,7.8,2.6,12.1c-0.1,7.7,0,15.4-0.1,23c0,2.2-0.4,4.4-0.8,6.6
	c-0.8,4.1-2,8.1-2.8,12.1c-1.1,5.2-2.9,10.1-6.1,14.4c-1.7,2.2-2.7,4.8-2.6,7.6c0,4-1.6,7.3-4.6,9.6c-4.5,3.4-7.3,8-10,12.7
	c-1.5,2.6-3.2,4.5-6.4,5.2c-3.5,0.8-5.8,3.4-7.8,6.1c-3.2,4.5-7,8.3-11.4,11.6c-3.8,2.9-7.6,5.8-11.2,9c-3.5,3.1-7.7,4.5-12.4,3.8
	c-4.4-0.7-7.4,1.3-9.4,5.1c-0.7,1.4-1.3,2.9-1.9,4.4c-1.2,2.6-3,4.5-5.6,5.7c-0.4,0.2-0.9,0.4-1.3,0.6c-4.8,1.9-7.9,5.4-9.4,10.2
	c-1.4,4.4-2.6,8.9-3.5,13.4c-2.1,10-3.4,20.2-4.1,30.4c-0.7,10.9-1.1,21.7-1.9,32.6c-0.7,10.2-2.7,20.3-5.2,30.2
	c-0.8,3.2-2.1,6.4-3,9.6c-0.5,1.8-1,3.7-1.4,5.6c-1.1,5.8-3,11.4-5.6,16.8c-2.7,5.6-5.1,11.4-7.5,17.1c-2,4.9-4.3,9.6-7.4,13.9
	c-1.7,2.3-3.1,4.9-4.4,7.4c-13.1,25-29.6,47.9-46.7,70.2c-5,6.5-10.1,12.8-15.2,19.2c-5.6,7-9.4,14.8-10.7,23.8
	c-0.5,3.5-0.5,7-0.5,10.5c0.2,10.6,0.7,21.1,1,31.7c0.3,11.7,0.4,23.4,0.8,35c0.2,6.9,0.8,13.7,1.5,20.6c0.6,6.7,1.5,13.3,2.3,20
	c0.5,4.2-0.6,7.9-3,11.3c-2.3,3.3-5.1,6.2-8.2,8.7c-6.2,5.1-13.3,8.8-20.9,11.5c-3.7,1.3-7.5,1.7-11.3,1.6c-1.6-0.1-3.2-0.2-4.8-0.2
	c-4,0-5.1,1.2-4.5,5.3c0.1,1.1,0.4,2.2,0.6,3.3c0.6,3.9-0.9,6.9-4.4,8.8c-1,0.5-2,1-3,1.4c-7.3,2.9-14.5,5.8-21.9,8.6
	c-6.8,2.6-13.7,4.1-21,4.4c-5.1,0.2-10.2,0.8-15.2,2c-15.1,3.6-30.3,4.5-45.7,3.3c-5.6-0.4-11.2-0.5-16.8-0.5
	c-8.3-0.1-16.6,0-25,0.1c-8.8,0.1-17.6-0.6-26.3-1.8c-8.2-1.1-16.5-2.1-24.7-3.3c-4.9-0.7-9.7-2-14.3-3.9
	c-5.8-2.4-10.3-6.3-13.6-11.7c-0.7-1.2-1.5-2.5-2.1-3.8c-3.9-8.1-7.6-16.2-10-24.9c-1.3-4.8-3.1-9.4-4.8-14c-3.3-9-6.5-18-8.3-27.5
	c-1.3-6.6-4-12.8-6.7-19c-0.8-1.9-2.2-3.5-3.5-5.1c-1.4-1.7-3.4-2.2-5.2-1.3c-3,1.6-5.4,1.4-7.8-1c-1.4-1.3-3.1-1.5-4.8-0.2
	c-1.8,1.4-4,1.4-5.9,0.3c-3.5-2-7.3-2-11.2-2.2c-7.7-0.4-15.3-1-23-1.5c-2.9-0.2-5.7-0.3-8.6,0.4c-2,0.5-4.1,0.7-6.1-0.2
	c-1.3-0.6-2.5-0.3-3.7,0.2c-5.1,2.2-10.3,2.1-15.5,0.5c-3.4-1.1-6.6-0.8-9.8,0.6c-1.3,0.6-2.7,1.1-4,1.6c-1.5,0.5-3,1.2-4.6,1.3
	c-8.2,0.5-16,3.1-24.1,4c-6.4,0.7-12.7,1.6-18.8,3.4c-2.7,0.8-5.7,0.9-8.5,1.1c-4.6,0.4-6.5,1.9-7.6,6.5c-0.6,2.8-0.9,5.7-1.5,8.5
	c-2.7,14.3-10.4,25.2-22.3,33.4c-0.5,0.4-1.1,0.7-1.6,1c-7.6,3.4-15.1,7-23.4,8.5c-2.8,0.5-5.7,1.1-8.4,1.8
	c-9.8,2.5-19.7,2.1-29.6,1.3c-5.8-0.5-11.3-1.9-16.8-3.7c-5-1.6-10.1-3-15.2-4.4c-4.2-1.2-8.2-0.6-12,1.6c-4.8,2.6-9.6,5-14.5,7.4
	c-1.7,0.9-3.4,1.7-5.3,2.3c-5.2,1.7-10,4.3-14.5,7.3c-2,1.3-4,2.7-6,3.9c-3.3,2-6.1,4.5-8.3,7.8c-3.2,4.8-8,7.8-13.6,9.3
	c-11.6,3.1-23.3,5.8-35.4,6.1c-12.6,0.4-25.3,0.8-37.9-0.7c-6.2-0.7-12.3-1.8-18.4-3.1c-6.9-1.5-13.6-3.5-20.4-5.4
	c-2.8-0.8-5.5-1.8-8.1-2.9c-4.6-2-8.5-5-11.8-8.8c-4.4-5.2-7-11.1-6.9-18c0.2-9.9,0.4-19.8,1-29.7c0.2-4.1,1.3-8.2,2.3-12.2
	c2.3-9.2,5.5-18.1,9.1-26.8c1.7-4.1,3.9-8.1,6.3-11.9c5.3-8.5,10.9-16.9,16.4-25.4c0.4-0.7,0.9-1.3,1.3-2c1.2-2,1.4-3.9-0.4-5.7
	c-3.3-3.4-4.1-7.5-2.9-12c0-0.2,0.1-0.3,0.1-0.5c1-5.4-0.2-7.3-5.3-9c-0.3-0.1-0.6-0.1-0.9-0.2c-2.5-0.9-3.4-1.9-3.2-4.6
	c0.1-1.9,0.6-3.8,1-5.6c0.4-1.7,0.9-3.4,1.2-5.1c0.3-1.8-0.5-2.8-2.3-2.9c-1.3-0.1-2.6,0.1-3.8-0.1
	C942.3,1133,940.7,1132.6,938.9,1132.3z"/>
</svg>
