<?xml version="1.0" encoding="utf-8"?>
<!-- Generator: Adobe Illustrator 22.0.0, SVG Export Plug-In . SVG Version: 6.00 Build 0)  -->
<svg version="1.1" id="Layer_1" xmlns="http://www.w3.org/2000/svg" xmlns:xlink="http://www.w3.org/1999/xlink" x="0px" y="0px"
	 viewBox="0 0 2880 1800" enable-background="new 0 0 2880 1800" xml:space="preserve">
<g>
	<path d="M1615.2,1082.5c-1.3,0.5-2.1,0.7-2.8,1c-12.2,5.3-24.6,5.9-37.6,3.2c-20.1-4.1-39.9-9.1-59.6-14.5
		c-13.3-3.6-26.5-7.2-39.5-11.9c-9.9-3.6-19.6-7.8-28.8-13.1c-2.1-1.2-4.3-2-6.7-2.5c-27.8-5.4-55.5-10.8-83.3-16.3
		c-17.3-3.4-34.3-7.6-50.8-14.1c-10.3-4.1-20.1-9.1-29.5-15c-3.2-2-6.5-4-10-5.7c-2.4-1.2-5-2-7.6-2.7c-4.6-1.3-9-0.4-12.9,2
		c-2.7,1.7-5.3,3.6-7.6,5.8c-5.3,5.1-10.2,10.6-14,17c-5.7,9.7-13.7,17.2-23,23.5c-5.5,3.7-11.3,6.6-17.3,9.4
		c-11.1,5-22.1,10.1-33.1,15.2c-2.3,1.1-4.5,2.4-6.7,3.8c-4.6,3.1-7,7.4-6.6,13c0.2,3,0.6,6.1,1.4,9c2.7,10.5,5.5,21,8.3,31.5
		c1.6,5.9,5.1,9.8,11.1,11.4c0.6,0.2,1.2,0.4,1.8,0.6c10.5,3.2,17.6,10.1,21.3,20.5c1,2.9,1.8,5.8,2.8,8.7c0.1,0.5,0.3,0.9,0.4,1.4
		c0.7,3.6-0.3,5.1-3.8,5.9c-2,0.5-4.1,0.8-6.2,0.9c-3.8,0.2-7.7,0.2-11.5,0.1c-4.3-0.1-8.6,0.2-12.8,1.2
		c-10.4,2.5-19.6-0.3-27.9-6.7c-2.9-2.2-4.7-5.2-5.6-8.7c-2-7.6-3.9-15.2-6-22.7c-1.5-5.2-3-10.5-4.8-15.6
		c-2.4-6.7-6.3-12.6-11.3-17.6c-7.4-7.5-12.1-16.4-14.2-26.7c-1-5.1-1-10.2,0.9-15.1c2.6-6.9,5.2-13.8,7.8-20.6
		c2.6-7.1,4.2-14.4,4.4-22c0.2-8.8-1.7-17.1-5.3-25.1c-1.1-2.5-2.3-4.9-3.3-7.4c-2.5-5.8-3.9-11.8-5.2-17.9c-2.2-10-4.5-20-5.7-30.1
		c-1.5-12.5-1.5-24.9,2-37.1c0.2-0.7,0.3-1.5,0.5-2.9c-1.2,0.6-2,0.9-2.7,1.4c-7,5.7-12.9,12.4-17.8,20c-5,7.7-8.5,16.1-11.4,24.8
		c-5.8,17.5-13.2,34.3-22.3,50.4c-11.8,20.7-26.1,39.4-43.1,56.1c-5.7,5.6-11.8,10.7-18.5,15.2c-10.6,7-22.1,11.5-34.7,13
		c-1.4,0.2-2.9,0.3-4.3,0.3c-1.1,0.1-2.2,0-3.2,0c-1.2-1.2-0.8-2.2,0-3.1c4.8-5.8,9.7-11.5,15.6-16.2c4.8-3.8,9.5-7.6,14.3-11.3
		c20.7-15.6,35.9-35.4,45.6-59.4c6.6-16.3,13.2-32.6,19.9-48.9c4.1-10.1,8.8-19.9,14.2-29.3c8.6-14.9,19.7-27.5,32.9-38.4
		c4.7-3.9,9.7-7.4,15.2-10c16.9-8.1,34.1-15.4,52.1-20.8c12.2-3.6,24.7-5.3,37.4-5.2c11.9,0.1,23.7-0.8,35.5-1.8
		c8.6-0.8,17.2-1.5,25.8-2.3c9.2-0.8,18.5-1.6,27.7-2.4c20.4-1.7,40.9-2.2,61.4-0.9c13.7,0.8,27.5,1.6,41.2,2.4
		c17.7,1.1,35.4,2.3,53.2,3.5c10.5,0.7,21.1,1.5,31.6,2.3c8.5,0.7,16.9,1.5,25.3,2.1c11.9,0.9,23.7-0.3,35-4.1
		c11.4-3.9,23.1-6.4,34.9-8.6c26.4-4.8,51.8-12.8,76.3-23.8c13.2-5.9,22.7-15.1,28.8-28.1c8-16.9,16.2-33.7,24.4-50.5
		c5.7-11.6,12.1-22.9,19.8-33.4c3.7-5,7.6-9.9,11.6-14.7c2.1-2.5,3.2-5.1,3.1-8.3c-0.2-3.5,0.2-7,1.3-10.4
		c3.1-10.1,9.5-17.4,19.7-20.7c10.5-3.4,21.1-6.5,31.6-9.8c4.3-1.4,8.6-2,13.2-1.9c10.2,0.2,20.5,0,30.7,0.1c2.4,0,4.8,0.3,7.1,0.8
		c5.9,1.2,11.9,2.6,17.8,4c6.6,1.6,12.7,4.3,18.3,8.2c3.6,2.5,6.7,5.4,9.4,8.9c1.7,2.2,3.4,4.3,5.3,6.2c5.9,6.1,13.2,9.5,21.6,10.3
		c4.8,0.5,9.6,0.7,14.3,1.4c6,1,12,2.2,17.8,3.6c13.5,3.3,27,6.8,40.5,10.1c5,1.2,9.2,3.8,12.9,7.1c3.6,3.2,3.8,6.3,0.7,10
		c-0.8,1-1.7,1.9-2.7,2.7c-5.1,4.7-9.6,9.9-13,15.9c-6.2,10.8-15.6,17.6-27.2,21.5c-5.5,1.9-11,3.3-16.8,3.7
		c-5.3,0.3-10.5,1.3-15.5,3c-2.4,0.8-4.9,1.4-7.4,2c-4.3,1-8.6,1.2-12.8,0.1c-1.7-0.4-3.1-0.3-4.6,0.3
		c-13.1,5.1-26.2,10.3-39.3,15.4c-3.6,1.4-5.2,4-5.4,7.7c-0.1,1.6-0.1,3.2-0.1,4.8c-0.1,9.3-0.1,18.6-0.3,27.8
		c-0.1,3.2-0.3,6.4-0.8,9.6c-1,6.3-4.1,9-10.4,8.8c-7.7-0.2-14.8-2.3-20.7-7.7c-0.6-0.5-1.2-1-2.1-1.7c-0.6,1.2-1.1,2.1-1.5,3
		c-2.8,6.3-5.5,12.6-8.3,18.9c-3.6,8-5.4,16.4-5.9,25c-0.2,3.4-0.2,6.7-0.1,10.1c0.1,26.4,0.2,52.8,0.3,79.2
		c0,5.6-0.3,11.2-1.9,16.6c-1.2,4-2.8,7.9-5.1,11.3c-4.7,6.9-9.4,13.8-14.2,20.5c-3.6,5.1-7.8,9.7-12.3,14.1
		c-10.9,10.4-21.9,20.6-33.6,30.1c-9.3,7.6-19,14.7-29.2,21c-2.7,1.7-4.6,3.7-5.4,6.9c-1.6,6-4,11.8-4.4,18.1
		c-0.1,1.8-0.4,3.5-0.4,5.3c-0.4,15.4-0.7,30.7-1,46.1c-0.1,6.2,0.2,6.5,6.3,7.1c2.5,0.3,5.1,0.4,7.7,0.6c3.7,0.2,6.7,1.6,9.2,4.4
		c5,5.7,9.2,11.9,13.2,18.3c1.6,2.6,0.8,6.2-1.9,8.6c-2.1,2-4.7,3.4-7.5,4.2c-3.7,1.1-7.4,2.1-11.2,2.7c-8.7,1.4-17.5,1.6-26.3,1
		c-9.9-0.7-17.8-5.1-23.9-13.2c-4.8-6.5-9-13.2-12.1-20.6c-1.6-3.8-3.7-7.4-4.6-11.5c-1.5-6.4-1.3-12.8,1.6-18.7
		c3.3-6.7,4.3-13.7,4.1-21C1615.8,1091.1,1615.5,1087.2,1615.2,1082.5z"/>
</g>
</svg>
