<?xml version="1.0" encoding="utf-8"?>
<!-- Generator: Adobe Illustrator 22.0.0, SVG Export Plug-In . SVG Version: 6.00 Build 0)  -->
<svg version="1.1" id="Layer_1" xmlns="http://www.w3.org/2000/svg" xmlns:xlink="http://www.w3.org/1999/xlink" x="0px" y="0px"
	 viewBox="0 0 2880 1800" enable-background="new 0 0 2880 1800" xml:space="preserve">
<g>
	<path d="M1584.1,1299c-1.2,0.1-2.2,0.2-3.1,0.2c-18.4,0.3-36.8,0.5-55.2,0.7c-1.9,0-3.8,0-5.7-0.3c-3.2-0.4-5.3-2.2-5.9-5.4
		c-0.5-2.7-1.7-5.1-3.2-7.4c-2.9-4.3-3.9-9.2-3.1-14.2c1.4-8.6,0.8-17.2,0.6-25.9c-0.1-7.4-0.6-14.7-0.9-22.1
		c-0.3-8.4-2.6-16.4-5.8-24.1c-1.3-3.1-1.8-6.1-1.6-9.3c0.9-13.4,2.6-26.7,5.1-39.9c1.8-9.3,3.4-18.6,4.6-27.9
		c1-7.8,1.4-15.6,1.6-23.4c0.4-23.4,1.1-46.7,0.4-70.1c-0.1-3.7-0.1-7.4,0-11c0.2-5.1-0.8-9.9-2.8-14.5c-1.1-2.6-2.3-5.3-3.4-7.9
		c-0.9-2.2-1.8-4.4-2.6-6.7c-1.8-5.6-1.7-11,1.3-16.2c1.4-2.5,2.3-5.2,3.2-8.2c-1.2-0.7-2.2-1.5-3.4-1.9
		c-24.8-10.9-47.2-25.6-67.5-43.5c-2.1-1.8-4.3-3.2-7-4.1c-20.5-7.2-41.1-14.3-62.3-19c-9-2-18.2-3.5-27.3-5.2
		c-1.9-0.3-3.8-0.3-5.7-0.4c-2.7-0.1-4.6,1.2-5.7,3.6c-0.5,1.2-1,2.3-1.4,3.5c-1.5,4.2-2.9,8.5-4.4,12.7c-1,2.9-1.4,5.9-1.1,9
		c1.8,23.3-2.9,45.5-11.6,67c-2.8,7-6.8,13.4-11.4,19.4c-3,4-5.8,8-8.5,12.2c-5.5,8.4-10.9,17-16.3,25.4c-3.8,5.9-8,11.6-12.5,17
		c-8.7,10.4-16.7,21.4-23.5,33.3c-6.6,11.6-11.9,23.7-15.3,36.6c-4.1,15.5-3.2,30.7,1.5,45.9c2.8,9,6.5,17.7,10.8,26.1
		c2.5,5,5.2,9.9,7.8,14.9c1.8,3.4,4.3,6.4,7.7,8.4c3.4,2,7.1,2.8,11,3c2.1,0.1,4.2,0,6.2,0.2c4.1,0.3,7.8,1.5,11.1,4.1
		c3.7,3,7.5,6,11.1,9.1c3.8,3.3,6.4,7.5,8.5,12.1c0.2,0.4,0.2,0.9,0.3,1.4c0,0.1-0.1,0.3-0.1,0.6c-0.5,0.1-1.1,0.3-1.7,0.4
		c-2.7,0.2-5,1.2-6.4,3.7c-1,1.8-2.6,2.2-4.5,2.3c-6.7,0.5-13.4,1.1-20.1,1.6c-3.7,0.3-7.3,0.5-11,0.8c-4.3,0.3-8.6,0.5-12.9-0.5
		c-2.8-0.7-5.7-0.7-8.6-1.1c-1.4-0.2-2.8-0.4-4.2-0.8c-4.5-1.2-7.1-4.2-8.2-8.5c-0.5-2-0.8-4.1-0.8-6.2c0-2.6-0.7-5-1.8-7.4
		c-1.9-3.9-3.5-7.9-5.3-11.8c-2.9-6.3-6.1-12.3-9.8-18.1c-4-6.4-7.9-12.8-11.6-19.3c-4.5-7.9-8-16.4-10.3-25.2
		c-1.6-6.2-3.8-12.2-6.6-18c-2.8-5.9-6.3-11.5-10.6-16.5c-0.8-1-1.7-1.9-2.4-3c-4.7-6.2-5.5-12.8-1.9-19.8c1.2-2.3,2.6-4.4,3.9-6.6
		c9.9-15.5,19.9-31,29.8-46.5c0.8-1.2,1.5-2.5,2.3-3.7c4.7-7.3,7.4-15.2,8.6-23.7c1.2-8.5,2.5-17.1,3.8-25.6
		c0.4-2.5,0.7-5.1,1.2-7.6c1.7-7.7,0-14.9-2.5-22.6c-0.7,1-1.2,1.6-1.5,2.3c-3.1,8.8-7.4,17-11.5,25.3
		c-10.9,21.6-21.7,43.1-32.6,64.7c-0.9,1.9-1.9,3.7-3,5.5c-11.4,19.6-19.8,40.5-26.8,61.9c-2.8,8.7-5.6,17.3-8.5,26
		c-2.2,6.4-3.3,13-3.9,19.7c-0.4,4.1-0.5,8.3-1,12.4c-1.3,12.9,0.1,25.5,3.1,38.1c1.1,4.8,2.2,9.7,3.6,14.4c0.9,3.1,1.9,6.1,3.2,9
		c2.3,5.1,5.9,9.2,11,11.6c1.9,0.9,3,2.2,3.9,4c2.4,4.9,4.8,9.7,7.4,14.6c1.3,2.5,1.7,5.2,1.8,7.9c0.2,3.7-1.2,5.3-4.8,6.1
		c-11.9,2.4-23.9,4.4-36.2,3.2c-4.3-0.4-8.6-0.5-12.9-0.9c-1.6-0.1-3.2-0.4-4.7-0.9c-3.5-1.1-4.4-2.3-4.6-5.8c-0.1-0.8,0-1.6,0-2.4
		c0.4-7.8-0.9-15.3-3.9-22.5c-1.1-2.6-1.6-5.2-1.5-7.9c0.1-5,0-9.9,0.2-14.9c0.9-20.8,0.2-41.6-1-62.4c-0.7-11-1.5-22-2.3-33
		c-0.3-4-0.7-8-1-12c-0.6-6.9,0.9-13.3,4.4-19.3c13.3-22.6,21.1-47.2,25.6-72.9c2.9-16.9,4.9-33.9,6-51c1.5-21.6,2.6-43.1,2.3-64.7
		c-0.2-14.9-0.9-29.7-2.3-44.6c-1.2-12.3-2.2-24.5-3.4-36.8c-1.3-12.5,0.4-24.6,4.7-36.3c2.4-6.4,5.2-12.7,8.1-19
		c3.1-6.8,3.6-13.8,2.2-21.1c-1.2-5.7-4.5-9-10.1-10.1c-6.7-1.4-13.5-2.8-20.2-4.2c-21-4.5-41.4-10.9-60.9-20
		c-34.1-15.9-62.2-38.9-84-69.6c-6.8-9.5-13.1-19.4-18.6-29.7c-4.4-8.2-7.9-16.8-9.4-26.1c-0.8-5.1-1-10.2-0.7-15.3
		c0.2-2.7,0.9-5.3,2.5-8c0.6,0.5,1.3,0.9,1.7,1.5c1,1.5,1.9,3,2.7,4.5c2.2,4.1,4.4,8.2,6.3,12.4c8.6,18.3,20.2,34.4,33.7,49.4
		c17.3,19.2,37.4,34.9,59.9,47.6c18.1,10.2,37.5,16.2,58,18.9c21.6,2.8,43.4,3.2,65.1,2c9.7-0.6,19-3,27.6-7.3
		c24.7-12.5,50.9-19.7,78.1-23.7c12.2-1.8,24.4-3.2,36.6-4.7c9.5-1.2,19-2.4,28.6-3.4c8.8-0.9,17.5-1.6,26.3-2.1
		c17.7-0.9,35.5-1,53.3,0c15.5,0.9,30.9,2.6,46.2,5.2c8.8,1.5,17.7,2.7,26.7,2.5c4.8-0.1,9.6-0.5,14.3-1.4
		c11.6-2.2,23.3-4.3,34.8-6.9c7.8-1.7,15.7-2.8,23.6-4.3c9.2-1.8,17.8-5.1,25.8-9.9c6.9-4.1,13.4-8.7,19.2-14.3
		c6.7-6.4,13.7-12.5,20.6-18.8c2.1-1.9,4.2-4,5.9-6.3c9.2-12.4,19.7-23.6,30.8-34.2c9.3-8.8,18.7-17.5,28-26.3
		c3.3-3.1,6.5-6.2,9.8-9.2c3.9-3.7,6.8-8,9.4-12.6c2.5-4.6,5.3-9.1,8.1-13.6c1.6-2.5,3.6-4.9,5.6-7.2c3.5-4,7.8-7.1,12.7-9.2
		c11.2-4.9,22.9-8.2,34.9-10.3c6.9-1.2,13.9-2.1,20.9-3.1c9.1-1.2,18.2-0.2,27.3,0.5c6.4,0.5,12.7,1.1,19.1,1.7
		c1.4,0.1,2.9,0.3,4.3,0.5c4,0.5,7.3,2.4,10,5.3c1,1.1,1.8,2.2,2.8,3.3c2.8,3.1,5.6,6.2,8.5,9.1c7.2,7.1,16,11.1,26,12.4
		c5.4,0.7,10.8,1.1,16.3,1.1c17.1,0.2,34.2,0.1,51.4,0.2c2.1,0,4.2,0.1,6.2,0.4c5.1,0.9,8,3.8,8.9,8.8c0.3,1.6,0.4,3.2,0.2,4.8
		c-1.8,14.6-4.1,29.2-9.5,43c-1.8,4.6-3.9,9.1-6.3,13.5c-4.5,8.2-10.9,14.1-20.1,16.8c-1.8,0.5-3.6,1.3-5.2,2.3
		c-10.8,6.8-22.7,11.1-34.9,14.3c-14.2,3.7-28.4,7.8-42.8,10.6c-9.6,1.8-19.2,3.5-28.8,5.3c-3,0.6-6,1.2-8.8,2.1
		c-7.5,2.4-13.8,6.7-18.5,13c-1.9,2.6-3.9,5.1-5.8,7.6c-4,5.2-8.4,10.1-13.3,14.5c-6.2,5.6-12.1,11.4-17.2,18
		c-2.4,3-4.6,6.2-6.7,9.4c-4,6-7.8,12.1-11.7,18.1c-0.6,0.9-1.2,1.9-1.8,2.8c-1.9,2.8-2.4,5.8-1.5,9.1c0.8,2.9,1.4,5.9,1.9,8.9
		c1.5,8.7,2.1,17.5,2.1,26.3c0,5.1-0.1,10.2,0,15.4c0.1,8.7,1.4,17.2,4.3,25.4c4.2,12.1,5.6,24.6,4.6,37.4
		c-1.3,17.4-4.3,34.6-7.6,51.7c-1.8,9.3-3.9,18.5-4.7,27.9c-0.9,10.7-0.9,21.4-0.1,32.1c0.8,11.7,1.4,23.3,0.9,35
		c-0.7,18.9-2.7,37.6-5,56.4c-1.6,13.2-2.5,26.4-2.4,39.7c0.1,21.4,1,42.9,1.8,64.3c0.3,6.9,0.3,13.8,0.5,20.6
		c0.3,8.7,1.2,17.2,3.4,25.6c1.9,7.2,4.4,14,7.8,20.6c2.1,3.9,3.6,7.9,3.9,12.2c0.3,3.1,1.8,4.9,4.8,5.8c9.9,2.8,16.6,9.3,20.9,18.4
		c2.6,5.5,5.2,11,7.8,16.5c0.1,0.3,0.3,0.6,0.4,0.9c2.2,4.6,0.7,6.6-4,6.2c-15.2-1.3-30.4-0.3-45.6-0.3c-4.3,0-8.6-0.1-12.9-0.4
		c-4.1-0.3-5.6-1.9-6-6c-0.1-0.6-0.1-1.3-0.1-1.9c0.5-8.1-1.1-15.9-2.3-23.8c-0.8-5.4-1.7-10.7-2.6-16c-2.2-1.1-3.7,1.2-6,0.5
		c-0.2-1.2-0.5-2.5-0.7-3.9c-0.3-1.4-0.5-2.8-0.7-4.3c-1.1-6-1.3-12.1-0.7-18.2c0.6-6.7,0.1-13.5-0.8-20.1
		c-1.8-13.2-4-26.2-5.9-39.4c-1.5-10.8-3-21.5-4.2-32.3c-1.3-11.4-2.4-22.9-3.5-34.4c-0.8-8.8-1.5-17.5-2.2-26.3
		c-0.9-12.3-1.8-24.6-2.7-36.9c-0.7-9.1-1.3-18.2-2-27.3c-0.7-8.3-1.5-16.6-2.3-24.8c-0.8-7.6-1.7-15.3-2.6-22.9
		c-0.1-1.1-0.2-2.2-0.6-3.3c-0.9-3-3.1-4.5-6.2-4c-2.2,0.4-4.4,1-6.4,1.9c-3.1,1.3-6.1,2.8-9.1,4.3c-12.1,5.8-24.1,11.8-36.6,16.9
		c-7.6,3.1-13.1,8.4-16.2,16.1c-1.5,3.7-3.4,7.2-5.2,10.8c-1.5,3.2-3.2,6.3-4.7,9.4c-3.2,6.7-5.2,13.7-6.5,21
		c-2,10.7-4.6,21.2-7,31.9c-3.1,14.1-5.5,28.2-7.4,42.5c-1.8,14-2.7,28-3.5,42.1c-0.6,9.8-2,19.4-4.2,28.9
		c-3.7,15.7-4.9,31.6-4.4,47.6c0.2,7.5,1.3,15,2.9,22.3c1.6,7.8,5.8,13.8,13.4,17c6.1,2.6,10.7,6.9,14.1,12.6
		c1.6,2.7,2.8,5.7,4.3,8.6C1584.8,1290.6,1584.9,1294.5,1584.1,1299z"/>
</g>
</svg>
