<?xml version="1.0" encoding="utf-8"?>
<!-- Generator: Adobe Illustrator 22.0.0, SVG Export Plug-In . SVG Version: 6.00 Build 0)  -->
<svg version="1.1" id="Layer_1" xmlns="http://www.w3.org/2000/svg" xmlns:xlink="http://www.w3.org/1999/xlink" x="0px" y="0px"
	 viewBox="0 0 2880 1800" enable-background="new 0 0 2880 1800" xml:space="preserve">
<path d="M1721.4,1082.7c-1.6,0.5-2.1,1.9-2.6,3.2c-1,2.5-1.8,5.1-2.9,7.6c-2.2,5.3-4.4,5.9-9.2,2.7c-0.7-0.4-1.3-1-2-1.4
	c-2.8-1.8-4.4-1.5-5.7,1.4c-2.3,4.9-4.1,10-5,15.5c-2.5,16.1-5,32.2-8.5,48.2c-1.3,6-1.5,12-0.7,18.1c1.2,9.2,2.3,18.4,3.4,27.6
	c0.4,3.2,1.2,6.3,2.6,9.2c2.5,5.4,6.3,7.7,12.3,7.2c3.7-0.3,7.3-0.7,11-1c4.7-0.5,9.3,0.1,13.8,1.3c8.1,2.2,14.3,6.9,18.8,14
	c4.7,7.3,6.8,15.5,6.6,24.2c0,2.2-0.5,4.5-1.3,6.5c-1.8,4.7-5.7,6.7-10.7,5.8c-0.2,0-0.3-0.1-0.5-0.1c-4.6-1.6-9-1.3-13.6,0.2
	c-3.3,1.1-6.9,1.2-10.5,0.8c-1.6-0.2-3.2-0.3-4.5-0.4c-1.9,1.2-1.8,2.9-2,4.5c-0.9,6-1.8,12-2.9,18c-1,5.4-5,8.1-10.5,7.2
	c-3.5-0.5-6.9-1.2-10.4-2c-5.1-1.2-10.2-1.1-15.3-0.3c-2.4,0.3-4.7,0.7-7.1,1.1c-6.9,1.1-12.6-1-17.2-6.2c-1.2-1.3-2.2-2.8-3.2-4.2
	c-2.8-3.6-6.4-5.8-10.9-6.3c-8.5-0.8-13.7-5.7-16.1-13.6c-1.8-6-2.9-12.1-4.4-18.2c-0.3-1.2-0.6-2.5-1.1-3.6c-0.6-1.4-2-2.1-3.6-1.8
	c-1.9,0.5-3.6,1.2-5.5,1.8c-1.5,0.5-3,1.3-4.5,1.6c-3.5,0.7-5.9-0.6-7.4-3.8c-0.6-1.3-1-2.7-1.2-4.1c-1-6.3-1.9-12.6-2.7-19
	c-0.3-2.2-0.6-4.4-1.8-6.7c-0.7,0.2-1.5,0.3-2.1,0.7c-2,1.6-3.9,3.3-5.8,5c-2.2,2.1-3.7,2.1-5.5-0.5c-1-1.4-1.7-3.1-2.2-4.7
	c-1-3.2-1.8-6.5-2.8-9.7c-0.3-1.1-0.8-2.1-1.1-3.1c-2.6-0.8-4.5,0-6,2c-2.5,3.5-4.9,7.1-7.4,10.6c-0.7,1-1.4,2.1-2.3,3.1
	c-0.9,1-2.5,0.9-3.4-0.3c-0.6-0.9-1.2-1.9-1.6-2.9c-1.6-3.9-2.3-8-1.7-12.2c0.8-5.9,1.8-11.7,2.7-17.5c0.3-2.1,0.6-4.1,1-6.2
	c0.3-1.5,0.1-2.9-0.9-4.3c-0.6,0.4-1.3,0.8-1.9,1.3c-0.8,0.7-1.6,1.6-2.5,2.3c-3,2.6-5,2.1-6.5-1.7c-1.3-3.2-1.5-6.5-1-9.9
	c1-7.3,1.9-14.6,2.8-21.9c0.3-2.4,0.6-4.8,0.9-7.1c0.1-0.9,0-1.8-0.1-3.1c-0.9,0.4-1.6,0.6-2,1c-1.8,1.6-3.6,3.2-5.3,4.9
	c-1.5,1.5-3.2,2.7-5.3,3.2c-2,0.5-3.1-0.1-3.7-2c-0.4-1.4-0.7-2.8-0.8-4.2c-0.7-6.5-1.2-13.1-1.9-19.6c-0.2-1.9-0.7-3.8-1.3-5.6
	c-0.4-1.4-1.9-1.8-3.1-0.8c-1.3,1-2.4,2.1-3.5,3.2c-1.1,1-2,2.1-3.2,2.9c-2.4,1.7-4.8,1.6-7-0.3c-1.4-1.3-2.6-2.8-3.8-4.3
	c-4.1-4.9-4.3-4.9-10.1-2.4c-1.6,0.7-3.2,1.4-4.9,1.9c-5.1,1.6-9.1,0.3-12.2-4.1c-1.2-1.7-2.2-3.5-3.3-5.3c-0.7-1.2-1.4-2.5-2.3-3.7
	c-1.8-2.5-4.3-3.8-7.4-3.7c-1.8,0.1-3.5,0.3-5.2,0.5c-2.4,0.3-4.7,0.8-7.1,1c-5.7,0.3-10.3-1.6-13.8-6.3c-0.8-1-1.4-2.1-2.2-3.1
	c-2.5-3.3-5.8-4.9-10-4.6c-1.4,0.1-2.8,0.4-4.3,0.6c-2.1,0.2-4.1,0.5-6.2,0.6c-3.4,0.2-5.8-1.3-7.4-4.3c-0.7-1.3-1.2-2.6-1.9-3.9
	c-1.1-2-2.1-4-3.4-5.8c-1.9-2.8-4.6-4.4-8.1-4.4c-2.4-0.1-4.8,0-7.2,0.1c-7.2,0.2-14.4,0-21.4-1.8c-4.2-1.1-8.2-2.5-12.2-4.3
	c-2.3-1-4.7-2-7.1-2.7c-3.7-1.2-7.6-1.3-11.4-0.2c-5.5,1.7-10.7,0.9-16-0.9c-3.6-1.3-7.3-2.4-10.9-3.7c-2.7-0.9-5.3-0.8-7.8,0.6
	c-3.9,2.2-8.2,2.9-12.5,2.6c-5.1-0.4-10.2-1.1-15.2-1.6c-1.9-0.2-3.8-0.5-5.7-0.6c-3.5-0.1-4.2,0.7-3.8,4.3c0.1,0.8,0.3,1.6,0.4,2.4
	c0.1,0.9,0.3,1.9,0.3,2.9c0.2,4-0.5,5.2-4.6,5.8c-5.4,0.8-8.1,3.9-9,9.1c-0.3,2-1,4-1.6,6c-0.8,2.6-2.5,4.5-5.1,5.2
	c-5.7,1.5-8.6,5.6-10.3,11c-1.1,3.5-2.5,6.9-3.8,10.3c-0.3,0.9-0.7,1.8-1.2,2.6c-1.8,3.1-5.2,3.3-7.4,0.4c-0.9-1.1-1.5-2.4-2.3-3.7
	c-1.2-2.1-2.3-4.2-3.5-6.3c-0.6-0.9-1.3-1.7-1.9-2.4c-1.6,0-2.4,0.7-2.9,1.7c-0.6,1.3-1.1,2.6-1.6,4c-3.5,9.5-6.6,19-9,28.8
	c-0.9,3.6-1.9,7.1-4,10.2c-0.4,0.7-0.8,1.4-1.3,2c-1.6,2.1-3.3,2.3-5.2,0.2c-1.6-1.8-3-3.8-4.2-5.8c-1.2-1.9-2.1-4-3.2-5.9
	c-0.4-0.8-1.1-1.4-1.6-2c-1.8,0.2-2.5,1.3-3.1,2.4c-1.4,2.5-2.7,5.1-4.1,7.6c-1.2,2.2-2.3,4.6-3.8,6.6c-2.1,2.9-4,3.4-7.5,2.4
	c-0.6-0.2-1.2-0.5-1.8-0.7c-2.3-0.7-3.2-0.4-4.4,1.6c-0.9,1.5-1.7,3.1-2.6,4.6c-2,3.6-4.1,7.2-6.1,10.9c-1.5,2.8-3.9,4.5-6.9,5.8
	c-2.2-2.2-3.4-4.7-3.6-7.7c-0.2-3.4-0.5-6.7-0.8-10c-0.2-1.4-0.6-2.8-1.2-4.1c-0.7-1.4-2.5-1.6-3.6-0.5c-0.7,0.7-1.3,1.5-1.7,2.3
	c-3.4,6.5-6.8,13-10.1,19.6c-2.2,4.3-3.3,9-3.6,13.8c-0.4,7.8-0.7,15.7-1,23.5c-0.1,1.3-0.1,2.6,0.1,3.8c0.5,5,3.4,7.8,8.5,8
	c1.9,0.1,3.8-0.2,5.7-0.3c2.1-0.1,4.2-0.3,6.2-0.1c9.3,0.9,16.2,7.4,17.9,16.7c0.2,1.1,0.4,2.2,0.4,3.3c0.1,6.7,0,13.4-1.2,20.1
	c-0.2,0.9-0.4,1.9-0.7,2.8c-1.3,3.7-3.6,5.4-7.5,5.5c-0.8,0-1.6,0-2.4-0.1c-5.8-0.4-11.1,1-16.1,3.8c-2.4,1.4-4.9,2.5-7.7,1.9
	c-1.9-0.4-3.7-1.1-5.4-1.8c-1.3-0.5-2.6-1.2-3.9-1.8c-3.8-1.5-7.5-1.2-11,1c-2.2,1.3-4.3,2.7-6.6,3.9c-3.2,1.7-4.7,1.5-7.3-0.9
	c-3.9-3.5-7.7-7.3-10.7-11.6c-3.6-5.1-7.1-10.2-10.7-15.4c-2.7-4-3.9-8.4-3.8-13.1c0-2.2,0.1-4.5,0.3-6.7
	c0.6-12.3,0.7-24.6-0.1-36.9c-0.5-7.5-0.8-15-1.2-22.5c-0.2-3.4-0.4-6.7-0.9-10c-1.2-8.4,0.3-16.2,4.7-23.5c1-1.7,2.2-3.5,2.5-6.1
	c-0.9,0.4-1.4,0.6-1.9,0.9c-0.4,0.3-0.7,0.7-1,1.1c-5.2,7.5-12.1,13.2-19.5,18.3c-1.8,1.3-3.7,2.5-5.5,3.8c-5.4,3.7-8.9,8.7-10.4,15
	c-1.2,5.3-3.3,10.3-5.8,15.2c-0.5,1-1.2,1.8-1.7,2.5c-1.7,0.3-2.4-0.6-3.1-1.4c-1.2-1.3-2-2.9-3.9-3.4c-1.7,0.2-2.4,1.5-3.1,2.7
	c-1.8,3.5-3.7,7.1-5.3,10.8c-1.3,3.1-2.4,6.3-3.3,9.5c-3,10.3-5.9,20.6-8.7,30.9c-0.4,1.5-0.6,3.1-0.7,4.7c-0.3,4,1.4,7.2,4.4,9.6
	c1.1,0.9,2.3,1.7,3.6,2.4c1.9,1.2,3.9,2.3,5.8,3.4c10.5,6.4,16.3,15.9,18.6,27.8c0.7,4,0.5,7.9-0.3,11.9c-0.8,3.6-3.9,6-7.2,5.7
	c-7-0.6-13.3,1.3-19.3,4.7c-5,2.8-10,2.6-14.3-1c-5.7-4.8-12.2-5-19-4.6c-2.5,0.2-4.6,1.2-6.6,2.6c-1.3,0.9-2.5,1.9-3.8,2.9
	c-4,2.9-8.1,2.8-11.9-0.4c-1.3-1.1-2.4-2.5-3.4-4c-3.1-4.8-4.8-10.1-5.8-15.6c-0.4-2.5-0.8-5.1-1-7.6c-0.1-1.6-1.2-2.1-2.4-2.9
	c-0.1-0.5-0.2-1.1-0.2-1.7c0-6.7,0-13.4,0-20.2c0-1.6-0.1-3.2,1.6-4.2c0.6-0.3,0.9-1.3,1.2-2c1.9-5.9,3.9-11.8,5.7-17.8
	c0.6-2.1,0.8-4.4,0.8-6.6c-0.1-4.6-0.3-9.3-0.7-13.9c-0.9-11.1-0.7-22,2.2-32.8c2.7-10.2,5.2-20.5,7.3-30.8
	c2.1-10.4,2.9-20.9,2.6-31.5c-0.1-3.2,0.1-6.4,0.6-9.5c0.9-5.1,3.5-9.6,7.1-13.4c2.1-2.2,4.4-4.2,6.7-6.1
	c11.1-9.4,22.4-18.6,33.5-28.1c7.9-6.8,15-14.4,21.3-22.7c6.2-8.1,12.3-16.4,17.7-25.1c3.4-5.5,6.2-11.2,8.5-17.2
	c4.4-11.2,7.4-22.8,9.5-34.6c1.4-8.1,2.2-16.1,2.2-24.3c0.1-13.8,0.4-27.5,0.7-41.3c0.2-8.5,0.9-16.9,2.8-25.2
	c2.1-9.6,5.8-18.6,10.6-27.1c2.5-4.3,5.7-8.1,9.4-11.4c1.3-1.1,2.3-2.6,3.3-4c0.7-1,0.1-2.3-1.1-2.7c-0.6-0.2-1.2-0.4-1.8-0.5
	c-6.4-1.2-12.1-4-17.3-7.9c-2.7-2-5.3-4.2-7.8-6.4c-7.1-6.5-15.1-11.8-24-15.6c-2.9-1.2-5.7-2.9-8.4-4.6c-1.6-1-3-2.4-4.2-3.9
	c-2.9-3.6-2.6-8,0.6-11.3c2.6-2.7,5.8-4.5,9.3-5.8c3.3-1.2,6.8-1.9,10.3-2.2c15.4-1.1,30.3,1.1,44.8,6.4c7.2,2.6,14.3,5.6,21.4,8.4
	c2.7,1.1,5.3,2.2,8,3.2c7.2,2.8,14.6,3.1,22.2,1.9c9.7-1.6,19-4.2,28.4-6.8c12.9-3.6,25.9-7.3,38.9-10.5c13.3-3.3,26.8-4.4,40.4-4.2
	c17.6,0.2,35.2,0.1,52.8,0.1c7.2,0,14.4-0.9,21.5-1.7c12.1-1.4,24.1-2.8,36.2-4c4.6-0.4,9.3-0.4,13.9-0.4c9.8,0,19.5,0,29.3,0.1
	c7.1,0,14-0.5,21-1.7c5.5-1,11.1-1.5,16.7-1.9c13.1-1.1,26.2-2,39.2-3.1c13.9-1.2,27.7-2.5,41.3-5.6c12.1-2.7,23-7.7,32.7-15.4
	c5.9-4.7,12.3-8.6,19.3-11.5c1-0.4,2.1-0.9,3-1.5c3.7-2.2,4.5-4.3,3-8.4c-0.4-1.1-0.9-2.1-1.2-3.1c-0.7-2.5-0.1-4,2.1-5.3
	c1.4-0.8,2.9-1.4,4.4-2c2.8-1.1,5.7-2,8.6-3c7.5-2.5,13.1-7.2,17.2-13.8c1.4-2.3,2.7-4.7,3.9-7.2c7.1-15,14.2-30.1,21.2-45.2
	c11.3-24.6,23.7-48.6,36.7-72.3c2.7-4.9,5.8-9.6,9.2-14c9.9-13.3,20.1-26.5,30.1-39.8c4.3-5.7,9.4-10.4,16.1-13.2
	c4.8-2,9.7-3.2,14.9-3.1c9.3,0.3,18.5,0.6,27.8,1c11.7,0.5,23.3,0.7,35-0.2c8.6-0.6,17.3-0.8,25.9-1.2c1.9-0.1,3.8,0,5.8,0
	c8.3,0.1,15.7,2.8,21.9,8.3c1.7,1.5,3.3,3,4.9,4.6c3,2.8,6.1,5.7,9.1,8.5c4.7,4.4,10.3,6.9,16.5,8.2c14.9,3.2,29.7,6.4,44.5,9.6
	c11.9,2.6,23.6,5.6,35.2,9.3c2.7,0.8,5,2,7.1,3.8c1.7,1.5,3.5,2.8,5.7,4.4c0.3,3.4,0.2,7.2,0,10.4c-2.2,3.2-4.1,5.9-6.1,8.6
	c-1.3,1.8-2.6,3.7-4.1,5.3c-4.6,5-8.2,10.7-10.9,16.8c-2.1,4.7-3.8,9.5-5.8,14.2c-1.7,4-3.3,8-5.3,11.8
	c-8.6,16.2-22.3,24.1-40.4,24.6c-6.9,0.2-13.7-1-20.5-2.3c-5.2-1-10.3-2.1-15.5-2.9c-5.7-0.9-11.5-1.2-17.1,0.4
	c-2.9,0.8-5.8,1.8-8.5,3.2c-7.9,4-15.8,7.7-24.1,10.7c-0.7,0.3-1.5,0.6-2.2,1c-3.2,1.6-5.4,4-6.1,7.6c-1.2,6.4-4,12.1-7.8,17.4
	c-2.8,3.8-3,7.9-1.1,12.2c3.5,7.9,7.1,15.7,12,22.9c7.6,11.4,15.3,22.9,22.9,34.3c1.4,2.1,2.8,4.3,4.2,6.4
	c7.1,10.6,10.8,22.4,11.7,35.1c0.3,4.6,0.5,9.3,0.7,13.9c0,1,0,1.9-0.1,2.9c-0.6,3.7-3.2,5.2-6.6,3.6c-1.1-0.5-2.2-1.3-3.2-2
	c-1.3-1-2.5-2-3.7-3.1c-0.7-0.6-1.4-1.3-2.2-1.8c-2.6-1.7-4.2-1.1-4.7,2c-0.6,3.3-0.8,6.7-1.2,10c-0.3,2.9-0.7,5.7-1.1,8.6
	c-0.3,2.1-1.1,4-2.3,5.7c-1.8,2.4-3.6,2.9-6.2,1.6c-1.7-0.9-3.3-2-4.9-3.1c-3.2-2.2-5.1-2.5-6.4,2.4c-1.2,4.8-3.9,8.3-8.5,10.3
	c-2.8,1.3-3.7,3.1-3.1,6.3c0.5,2.6,1.3,5.3,2.4,7.8c1.8,4.1,3.8,8.1,6.1,11.9c9.6,15.7,15.8,32.8,20.5,50.5c1.6,6,2.4,12.2,2.5,18.5
	c0.1,8.5,0.7,16.9,0.8,25.4c0,4-0.4,8-0.9,11.9c-0.4,3.6-2.3,4.9-6,4.6c-0.8-0.1-1.6-0.3-2.4-0.2c-1,0-1.9,0.6-2.2,1.6
	c-0.3,1.1-0.7,2.1-0.8,3.2c-0.4,3.5-0.7,7-1.1,10.5c-0.2,1.9-0.4,3.8-0.8,5.7c-0.3,1.2-0.8,2.5-1.5,3.5c-1.1,1.5-2.8,2.3-4.6,1.7
	c-1.7-0.5-3.3-1.3-4.9-2c-1-0.5-1.9-1.1-3-1.6c-2.3-1-4.2-0.3-4.9,2.1c-0.6,2-1,4-1.3,6.1c-1.4,8.4-3.8,16.5-7.7,24.1
	c-4.4,8.5-6.7,17.5-7.8,27c-0.7,6.5-2,12.9-3.1,19.4c-0.2,1.1-0.5,2.2-1,3.2c-1.2,2.8-4.1,3.9-6.8,2.5c-1.4-0.7-2.5-1.9-3.6-3
	c-1-1-1.8-2.3-2.8-3.3c-1.8-1.8-3.5-1.4-4.3,1c-0.6,2-1.1,4-1.2,6.1c-0.5,6.7-0.8,13.4-1.1,20.1c-0.1,2.2-0.7,4.1-1.7,5.9
	c-1.5,2.8-3.2,3-5.2,0.7c-0.8-1-1.6-2-2.3-3.1c-3.9-5.5-7.7-11-11.6-16.5C1724.1,1084.9,1723.3,1083.2,1721.4,1082.7z"/>
</svg>
