<?xml version="1.0" encoding="utf-8"?>
<!-- Generator: Adobe Illustrator 22.0.0, SVG Export Plug-In . SVG Version: 6.00 Build 0)  -->
<svg version="1.1" id="Layer_1" xmlns="http://www.w3.org/2000/svg" xmlns:xlink="http://www.w3.org/1999/xlink" x="0px" y="0px"
	 viewBox="0 0 2880 1800" enable-background="new 0 0 2880 1800" xml:space="preserve">
<path d="M913.5,1262.3c0-6.9,0-13.3,0-19.9c0.7-0.5,1.6-0.9,2.1-1.6c0.5-0.7,0.8-1.7,1-2.7c3-15.3,8.5-29.8,13.1-44.6
	c3.2-10.2,6.3-20.5,9.4-30.7c2.9-9.5,7-18.5,10.9-27.6c1.4-3.3,3.8-5.9,6.9-7.8c1.8-1.1,3.6-2.1,5.5-2.9c4.7-2.1,9-4.8,13.2-7.8
	c4.4-3.2,8.9-6.3,13.4-9.2c9.2-6,17.3-13.2,25.2-20.7c6.4-6,12.7-12.2,19.2-18.1c6-5.5,10.6-11.8,13.9-19.3
	c4.4-9.8,8.2-19.8,11.8-29.9c4.8-13.2,9.5-26.5,14.3-39.7c5.3-14.6,9-29.7,11.8-44.9c1.7-9.3,3.1-18.6,4.7-27.9
	c0.6-3.3,1.3-6.6,2.2-9.8c6-21.1,18.8-36.8,38-47.3c3.9-2.2,8-4,11.9-6.1c6.1-3.2,12.1-6.6,18.1-9.9c2.4-1.3,4.7-2.7,7.2-3.9
	c19.3-9.4,38.8-18.1,59.5-23.9c7.7-2.2,15.3-4.6,22.9-7c13.2-4.1,26.8-6.2,40.6-6.4c3.4,0,6.7,0,10.1,0c15.4,0.2,30.6-1.6,45.8-4.2
	c16.5-2.8,33.1-5.6,49.7-8.3c18.5-3.1,36.9-6.2,55.4-9.1c13.1-2.1,26.2-4.1,39.3-6.1c6.8-1,13.6-2,20-4.6c2.9-1.2,6.1-2,9.2-2.8
	c10.2-2.8,20-6.8,29.4-11.6c16.4-8.4,32.7-16.9,49-25.4c7.5-3.9,13.9-9.1,18.9-15.9c5.9-8,11.8-16,17.3-24.2
	c10.5-15.5,21.9-30.3,34.2-44.5c5.3-6.2,11.2-11.9,17.4-17.2c4.8-4,9.3-8.3,13.8-12.6c4-3.9,8.1-7.8,12.7-10.9
	c3.2-2.2,5.7-5.1,7.7-8.4c0.9-1.5,1.8-3.1,2.4-4.7c4.4-10.6,10.8-20,18.5-28.4c6-6.5,11.1-13.6,15.9-21c4.2-6.4,8.5-12.8,12.8-19.2
	c3.1-4.7,6.3-9.3,10-13.5c1.4-1.5,2.4-3.4,3.7-5c1-1.3,1.9-2.6,3.1-3.6c1.8-1.6,3.5-1.3,4.7,0.9c0.6,1.3,1,2.7,1.3,4.1
	c0.4,1.7,0.7,3.4,1.1,5.6c1-0.6,1.8-0.9,2.2-1.5c1.4-1.8,2.7-3.6,3.9-5.5c2.1-3.3,4.7-6.1,8-8.1c1.1-0.6,2.3-1.2,3.5-1.6
	c2.2-0.7,3.5,0,3.9,2.1c0.2,1.2,0.3,2.6,0.1,3.8c-0.3,2-0.9,4-1.4,6.1c-2.6,11.1-3.6,22.4-3.3,33.8c0.2,5.6,0.8,11.2,1.1,16.7
	c0.3,4.5,2.4,7.9,6.1,10.4c3.7,2.5,7.6,4.8,11.4,7c3.2,1.8,6.5,3.5,9.7,5.2c6.8,3.6,13,8.2,18.8,13.2c5.8,5.1,10.5,11.2,13.5,18.4
	c2.3,5.6,5.6,10.8,9.1,15.8c2.8,4,6.3,7.2,10.4,9.8c9.4,5.8,18.9,11.4,28.8,16.3c13.9,6.8,27.9,13.6,41.4,21.2
	c1.7,0.9,3.5,1.5,5.2,2.4c0.8,0.4,1.8,0.9,2.2,1.7c2.6,4.4,3.4,8.9,0.9,13.7c-0.8,1.6-1.8,3-3.6,3.7c-2.2,0.8-3.7,2.4-5.2,4.1
	c-2.6,3-5.3,6-7.9,9c-3.3,3.9-7.5,6.5-12.3,8c-13.1,4-26.3,4.9-39.8,2.2c-3.2-0.6-6.2-1.7-8.9-3.4c-0.9-0.6-1.9-1.2-3-1.6
	c-1-0.3-2.1-0.3-3.2-0.4c-0.4,2.1,0.4,3.4,1.5,4.5c2.3,2.2,4.6,4.4,6.8,6.7c4,4.2,8,8.3,11.7,12.7c4.8,5.9,8.1,12.6,9.5,20.2
	c1.1,5.7,0.8,11.5-0.6,17.1c-0.4,1.6-0.9,3.3-2.6,3.7c-1.9,0.5-3.4-0.8-4.4-2.2c-1.8-2.6-3.4-5.4-5.2-8.1c-1.5-2.2-3.1-4.5-4.8-6.6
	c-2.3-2.8-5.1-3.6-8.6-2.5c-1.8,0.6-3.7,1.2-5.5,1.7c-11.6,3.7-22.3,1.9-32.3-5.2c-6.5-4.7-13.2-9-19.9-13.4
	c-0.9-0.6-1.9-1.1-2.9-1.6c-0.6-0.3-1.8,0.3-1.9,1c-0.2,0.9-0.3,1.9-0.2,2.8c0.3,2.4,0.8,4.7,1,7.1c1.2,12.4,2.3,24.8,3.3,37.3
	c0.4,5.1-0.4,10.2-1.8,15.2c-1.5,5.2-3,10.4-4.7,15.6c-2.1,6.6-3.1,13.4-3.5,20.3c-0.5,10.1-1,20.1-1.8,30.2
	c-1.3,15.8-5.2,30.9-12.6,44.9c-0.7,1.3-1.4,2.5-1.9,3.9c-3.3,7.7-7.9,14.6-13.2,21.1c-1.6,2-3.2,4-4.8,6c-3.8,4.6-7,9.5-9.6,14.9
	c-4.4,9.4-10.5,17.6-17.6,25c-9,9.3-18.2,18.4-27.4,27.6c-7.8,7.8-15.8,15.4-23.7,23.2c-2.1,2-4,4.1-5.9,6.3
	c-8.2,9-12.3,19.8-12.9,31.8c-0.9,18.1-1.4,36.1-2.2,54.2c-0.7,17.4-1.6,34.8-2.4,52.3c-0.6,12.5-1.4,24.9-1.9,37.4
	c-0.4,7.9,0.9,15.6,2,23.4c0.4,3.1,2.4,5.2,5.3,6.3c2.8,1,5.7,2,8.7,2.7c7,1.7,14,3.2,21,4.8c1.4,0.3,2.8,0.7,4.2,1.1
	c3,0.9,5.6,2.5,7.3,5.1c3.3,4.9,6.6,9.8,9.9,14.8c1.9,2.9,1.9,5.7-0.6,8.3c-1.8,1.9-2,4.3-1.5,6.7c0.4,1.7,0.9,3.4,1.3,5.1
	c0.3,1.6,0.6,3.1,0.7,4.7c0.2,3.3-1.1,5.9-3.6,8c-2.6,2.2-5.6,3.8-8.7,4.9c-6,2.3-12.2,3.7-18.6,4.7c-12.2,1.9-24.2,0.4-36.2-2.3
	c-2.2-0.5-4.3-1.1-6.5-1.5c-2.5-0.4-4.4-1.7-6-3.6c-4.1-4.9-8.3-9.7-12.5-14.6c-5.2-5.9-9.5-12.4-13.5-19.2c-3-5.1-6-10.2-8.9-15.4
	c-2.3-4.2-5.3-7.6-9.7-9.6c-3.5-1.6-4.8-4.4-4.8-8.1c-0.1-6.9-0.3-13.8-0.4-20.6c-0.1-12.8-1.5-25.5-3.8-38.1
	c-1.8-9.9-3.4-19.9-4.7-29.8c-1.9-14.3-5-28.3-8.4-42.3c-1.8-7.6-3.7-15.2-5.3-22.9c-1-4.9-3.7-7.5-8.6-8.3
	c-5.7-1-11.5-1.1-17.2-1.2c-13.4-0.2-26.9-0.4-40.3-0.6c-11.5-0.2-23-1.4-34.4-3.1c-16.9-2.6-33.8-5.5-50.7-8.2
	c-17.9-2.9-35.4-7.4-52.5-13.1c-7.9-2.6-15.9-4.9-23.7-7.9c-12.1-4.6-24.6-5.5-37.3-4.2c-1.1,0.1-2.2,0.5-3.3,0.5
	c-7.9,0.3-13.4,4.9-18,10.5c-2.7,3.3-5,7.1-7.2,10.7c-3.6,5.9-6.9,11.9-10.4,17.8c-2.1,3.4-4.3,6.8-6.4,10.1
	c-5.3,8.6-11.6,16.4-18.4,23.9c-11.7,12.9-23.5,25.7-34.5,39.3c-3.7,4.6-8.1,8.6-12.4,12.7c-5.7,5.4-11.5,10.6-16.3,17
	c-3.3,4.3-6.3,8.9-9.3,13.4c-3.1,4.7-3,9.6-0.6,14.6c2.2,4.5,5.3,8.3,9.1,11.6c5.2,4.6,11.1,8.1,17,11.6c2.7,1.6,5.6,3.2,8.3,4.9
	c3.8,2.4,8,3.3,12.3,3.7c9.1,1,18.1,2,27.2,2.9c4.6,0.4,8.7,2,12.4,4.7c5.6,4.1,10.5,8.9,14.3,14.7c3,4.4,4.9,9.3,5.7,14.6
	c0.4,2.9-0.1,3.9-3,4.4c-6,1.1-12,2.1-18,2.9c-6.5,0.9-13.1,0.8-19.6,0.3c-8.8-0.6-17.6-0.8-26.4-1c-9.4-0.3-17.8-3.6-25.9-7.9
	c-1-0.5-1.8-1.3-2.6-2.1c-0.7-0.6-1.4-1.3-2-2c-5.4-5.5-11.4-10.2-18.1-14.2c-14.7-8.8-29.2-17.8-43.8-26.7
	c-1.4-0.8-2.7-1.7-4.2-2.4c-1.9-0.9-2.9-0.5-3.8,1.5c-0.4,1-0.7,2.1-1.1,3.2c-1.3,3.6-2.4,7.3-3.9,10.8c-1.6,3.6-3.4,7.3-5.8,10.4
	c-5,6.8-10.5,13.3-15.8,19.9c-1.9,2.4-4.3,4.3-7,5.7c-5.4,2.9-10.7,5.7-16.1,8.6c-6.7,3.6-13.8,5.8-21.4,6.5
	c-3.2,0.3-6.4,0.7-9.5,1.2c-8.1,1.4-15.6-0.5-22.8-4c-4-1.9-4.9-5.5-2.6-9.2c0.7-1.2,1.7-2.3,2.6-3.4c3.9-5,8-10,11.8-15.1
	c4.5-6.1,7.9-12.7,10.4-19.9c3.9-11,7.5-22.1,9.5-33.7c1.2-6.9,2.1-13.9,3.2-20.9c1.1-7.1,2.4-14.2,3.5-21.3
	c0.3-1.6,0.5-3.2,0.4-4.8c-0.2-2.6-1.8-3.6-4.3-2.9c-1.8,0.6-3.6,1.3-5.4,1.9c-5.6,1.8-11.3,3.6-16.9,5.3
	c-9.4,2.7-18.3,6.7-26.4,12.3c-5.6,3.8-11.1,7.5-16.7,11.2c-3.8,2.5-7.1,5.5-9.6,9.3c-3.2,4.8-6.3,9.6-9.1,14.6
	c-3.9,7.1-6,14.8-6.4,22.9c-0.3,5.9,0,11.8,0.1,17.7c0.1,3.1,1.3,5.9,3.2,8.4c3.7,5,8.3,8.9,13.9,11.5c3.8,1.8,7.5,3.6,11.4,5.1
	c4.7,1.8,8.1,4.8,11,8.9c3.3,4.8,5.8,9.9,7,15.6c0.2,0.8,0.3,1.6,0.4,2.4c0.3,2.3-0.6,4.1-2.7,5.2c-1.1,0.6-2.3,1.2-3.4,1.7
	c-10.7,4.8-21.9,5.9-33.3,4.4c-10-1.3-19.8-3.9-29.2-7.4c-2.7-1-5.3-2.3-7.8-3.6c-4.6-2.3-8-5.8-10.1-10.5c-1.3-2.9-2.4-5.9-3.3-9
	c-1.7-5.7-3.2-11.4-4.7-17.1c-0.2-0.8-0.4-1.5-0.6-2.3C918.1,1264.7,916.9,1262.7,913.5,1262.3z"/>
</svg>
