<?xml version="1.0" encoding="utf-8"?>
<!-- Generator: Adobe Illustrator 22.0.0, SVG Export Plug-In . SVG Version: 6.00 Build 0)  -->
<svg version="1.1" id="Layer_1" xmlns="http://www.w3.org/2000/svg" xmlns:xlink="http://www.w3.org/1999/xlink" x="0px" y="0px"
	 viewBox="0 0 2880 1800" enable-background="new 0 0 2880 1800" xml:space="preserve">
<path d="M1044.7,1068.1c-3.8-0.4-7.1,1.6-10.9,0.9c-0.7-5.6-0.6-11.1,1.2-16.5c0.7-2.1,1.5-4.2,2.2-6.3c0.3-0.8,0-1.6-0.8-2
	c-0.8-0.4-1.6-0.4-2.2,0.3c-3,3.6-5.8,7.3-7.6,11.6c-1.9,4.6-3.7,9.2-5.6,13.8c-1.3,3.1-2.5,6.2-3.9,9.3c-0.5,1.2-1.1,2.3-1.7,3.4
	c-2.1,3.2-4.2,3.9-7.7,2.9c-0.9-0.3-1.8-0.6-2.6-0.9c-1.6,0.5-2.7,1.5-3.1,2.8c-0.3,1.2-0.1,2.5,0.1,3.8c0.1,0.9,0.5,1.9,0.7,2.8
	c0.2,0.9,0.4,1.8,0.7,2.9c-3.3,1.2-6.6,0.1-10,1c0.5,4.9,2.6,9.2,3.4,13.7c-0.2,0.4-0.3,0.8-0.5,0.9c-3.5,1.5-4.7,4.4-5.3,7.9
	c-1.7,10.3-4.5,20.2-8.3,30c-5.3,13.8-15.7,21-29.8,23.3c-4.3,0.7-8.6,1.1-12.9,1.5c-5.9,0.5-11.8,1-17.7,1.3
	c-4.9,0.2-6-1.1-4.3-5.6c3.8-10.4,6.5-21.1,9.2-31.8c0.7-2.9,1.7-5.8,2.5-8.7c1-3.2,1.1-6.4-0.2-9.4c-1.9-4.7-1.6-9.4-0.6-14.2
	c3.7-17.8,10.6-34.2,21.7-48.6c2.9-3.8,5.8-7.7,9-11.3c13.7-15.5,22.8-33.5,28.7-53.2c3.3-10.9,5.6-22,7.5-33.2
	c4.6-26.9,9-53.9,13.7-80.9c2.4-14,4.8-28.1,7.9-41.9c6.9-31.2,23.6-56.4,48.7-76c5.7-4.4,11.6-8.5,17.7-12.3c7-4.3,13.8-8.7,20-14
	c16.1-13.6,34.3-23.4,53.9-30.7c15.9-5.9,31.8-11.8,48.2-16.2c22.3-6.1,44.9-8.2,67.9-6.7c12.8,0.8,25.5,1.8,38.2,3.4
	c12,1.6,24.1,3.5,36.1,5.1c15.5,2.2,31,4.3,46.6,6.4c13.2,1.7,26.4,2.6,39.7,3.1c30.2,1.2,59.3-4,86.9-16.4
	c23.4-10.5,46.9-20.3,70.6-30c13.4-5.5,25.6-13,36.3-22.9c10.9-10.1,19.4-22.1,25.9-35.5c2.9-6.1,3.4-12.6,3.2-19.2
	c-0.1-2.9-2.2-4.5-4.4-5.8c-0.8-0.5-1.8-0.7-2.7-1c-3.5-1.1-5.1-3.5-5.5-7.1c-0.8-8.3,0.8-15.9,5.8-22.7c1.8-2.4,3.8-4.7,6-6.8
	c7.4-6.8,14.2-14.3,20.8-21.9c0.7-0.8,1.6-1.6,2.5-2.2c6.5-4.1,12.4-9,18.3-14c4.1-3.5,8.3-7.1,12.5-10.5
	c13.3-10.6,28.7-16.7,45.3-19.7c18.7-3.4,37.5-3.5,56.4-1.1c8.1,1,16.1,2.5,24.1,4.2c12.2,2.6,21.7,9.2,28.6,19.4
	c1.7,2.5,3.2,5.2,4.6,7.8c1.8,3.2,3.5,6.5,5.2,9.7c5.3,10,13.3,17.1,23.6,21.7c6.6,2.9,13.5,4.8,20.6,6.4c9.7,2.2,19.3,4.4,29,6.8
	c3.2,0.8,6.4,2,9.4,3.5c6.2,3,9.4,8,9.1,15c-0.1,2.9-0.4,5.8-1,8.6c-3.2,15.3-9.5,29.1-19.3,41.3c-9.9,12.4-22.8,18.8-38.4,20
	c-5.1,0.4-10.2,0.3-15.3,0.2c-8.3,0-16.6-0.3-25-0.1c-10.1,0.3-20.1,1.6-29.8,4.7c-4.1,1.3-8.2,2.9-12,4.9
	c-10.1,5.3-16.4,13.7-18.7,24.8c-1.6,7.7-2.7,15.4-3.9,23.2c-1.8,11.9-2.8,23.8-3.5,35.8c-0.7,14.2-1,28.5,0.2,42.7
	c1.3,15.5,0.8,31-0.7,46.5c0,0.5-0.1,1-0.2,1.4c-0.7,3.4-1.9,4.2-5.4,3.3c-1.5-0.4-3-0.8-4.4-1.2c-0.9,1-0.4,1.7-0.2,2.4
	c0.3,0.9,0.7,1.8,1.2,2.6c5,7.4,5.3,15.6,3.5,24c-0.7,3.4-1.8,6.8-2.6,10.2c-0.5,2.3-1.1,4.7-1,7.1c0.7,13.9-1.4,27.4-5.4,40.7
	c-1.6,5.2-2.8,10.5-3.7,15.9c-0.5,2.9-1.2,5.5-4,7.2c-1.8,1.1-2.3,3.2-1.9,5.1c1.1,4.6-1,8-3.7,11.4c-3.7,4.6-7.2,9.4-10.7,14.2
	c-2.2,2.9-4.2,6-6.5,8.9c-3.6,4.6-5.1,9.8-5.3,15.6c-0.5,16-1.2,32-1.9,48c-0.8,20.3-1.8,40.6-2.3,60.9c-0.6,24.1-1.1,48.3-1.1,72.5
	c0,30.7,0.5,61.4,0.9,92.1c0,3.7,0.4,7.4,0.7,11c0.6,6,3.6,10.5,8.8,13.5c2.2,1.3,4.6,2.3,7,3.1c7.4,2.5,13.2,7.1,17.7,13.3
	c4.3,6,7.2,12.8,9.5,19.8c1.4,4.1,0.2,7.2-3.5,9.5c-1.6,1-3.4,1.8-5.2,2.3c-6.5,1.8-12.1,4.8-16.6,10c-2.7,3.1-6.5,3.9-10.5,3.9
	c-6.6,0-13.1,0-19.7-0.3c-9.7-0.4-19.5-1-29.2-1.5c-1.3-0.1-2.6-0.2-3.8-0.4c-7.8-1.7-12.7-6.6-14.9-14.1c-1.3-4.4-2.1-9-3-13.6
	c-2.3-11-4.4-21.9-6.7-32.9c-1.2-5.8-3.3-11.3-5.8-16.7c-2.3-5-5.8-8.8-10.4-11.6c-1.6-1-3.3-1.9-4.9-2.9c-4.6-2.9-7.4-7-8-12.5
	c-0.2-1.9-0.2-3.8-0.4-5.7c-0.4-4-0.6-8-1.2-11.9c-0.6-4.2-2.3-8-5.6-10.8c-0.5-0.4-0.9-0.9-1.3-1.4c-2.4-2.9-2.4-5.2,0-8.2
	c0.7-0.9,1.5-1.6,2.2-2.5c0.9-1.2,1.4-2.4,0.8-4.2c-3.5,1.3-6.6,3.4-10.1,4.6c-0.1-0.8-0.3-1.3-0.2-1.8c1.7-9.8,3.5-19.5,5.2-29.3
	c0.2-1.2,0.1-2.6,0.3-3.8c0.2-1.1,0.3-2.3,0.9-3.1c2.5-3.6,2.4-7.5,1.9-11.5c-0.3-2.7-0.5-5.4-0.9-8.1c-0.2-1.1-0.5-2.2-1.1-3.1
	c-2.3-3.3-2.4-6.9-1.6-10.6c0.1-0.6,0.3-1.2,0.5-1.8c2.3-5.7,2.9-11.8,3-17.9c0.2-9.9,0.3-19.8,0.1-29.7c-0.2-9.1-1.7-18.1-3.1-27.1
	c-1.2-7.3-2.4-14.5-3.6-21.8c-0.3-1.6-0.5-3.2-1.1-4.7c-1.2-3.5-3.6-5.7-7.2-6.3c-2.5-0.4-5.1-0.6-7.6-0.7c-9.9-0.4-19.8-0.8-29.7-1
	c-21.1-0.6-42.1-2.6-63.1-5.2c-12.1-1.5-24-3.7-35.7-7c-13.5-3.8-26.2-9.4-38.2-16.4c-10.1-5.9-20.1-11.9-30.1-17.9
	c-13.2-7.9-26.7-15.2-40.8-21.3c-16.7-7.2-33.8-12.6-51.8-15.5c-6-0.9-12.1-1.6-18.1-2.2c-6.4-0.6-12.8-1-19.1-1.6
	c-4.2-0.4-7.2,1.1-9.1,4.7c-0.9,1.7-1.7,3.5-2.4,5.2c-9,20.9-17.7,41.8-26.9,62.6c-13.1,29.6-27.8,58.3-45.1,85.7
	c-9.3,14.8-19.3,29.1-31.7,41.4c-7.9,7.8-16,15.2-24.1,22.7c-6.4,6-13,11.8-19.4,17.9c-3.3,3.2-6.3,6.8-9.4,10.3
	c-7.3,8.5-11.1,18.6-12.4,29.6c-2,17-2.3,34.1-2.8,51.3c-0.1,3,0.3,6.1,0.7,9.1c1.1,8.5,5,15.6,11.9,20.6c8.6,6.2,14.9,14.4,21,22.9
	c1.3,1.8,2.3,3.9,3,6c1.2,3.6,0.1,6.7-3,8.8c-1.3,0.9-2.8,1.7-4.3,2.1c-3.2,0.8-6.6,1.4-9.9,2c-0.8,0.1-1.6,0-2.4,0.1
	c-3.8,0.4-6.6,2.2-7.9,6c-0.4,1.2-0.8,2.5-1.5,3.5c-1.5,2.2-3.6,3.6-6.3,4.1c-2.5,0.4-5,0.9-7.6,1.2c-7.5,0.9-15,1.6-22.5,0.9
	c-8.1-0.7-16.3-1.3-24.4-2.2c-11.8-1.3-19.8-9.6-21.1-21.4c-0.3-2.9-0.4-5.7-0.6-8.6c-0.1-1.6-0.2-3.2-0.5-4.8
	c-0.6-3.4-2.5-5.9-5.7-7.1c-1.6-0.6-3.3-1.1-5-1.7c-1.7-0.5-3.4-1-5-1.7c-3.4-1.4-4.4-3.2-3.7-6.8c0.3-1.4,0.7-2.8,1.1-4.2
	c5.3-17.1,9.5-34.5,12.5-52.2c2.2-12.9,3.9-25.9,4.8-39c0.6-8.5-0.3-16.9-1.1-25.4c-0.4-4.3-0.9-8.6-1.3-12.9
	c-0.2-1.6-0.2-3.2-0.2-4.8c-0.1-5.5,1.5-10.4,5.2-14.6c5.9-6.6,9.1-14.4,10.1-22.9c1.3-11.1,2.1-22.3,3.1-33.4
	C1046.2,1074.4,1046,1071.4,1044.7,1068.1z"/>
</svg>
