<?xml version="1.0" encoding="utf-8"?>
<!-- Generator: Adobe Illustrator 22.0.0, SVG Export Plug-In . SVG Version: 6.00 Build 0)  -->
<svg version="1.1" id="Layer_1" xmlns="http://www.w3.org/2000/svg" xmlns:xlink="http://www.w3.org/1999/xlink" x="0px" y="0px"
	 viewBox="0 0 2880 1800" enable-background="new 0 0 2880 1800" xml:space="preserve">
<g>
	<path d="M1698.5,1269.5c-5,2.7-10,3.5-15.2,3.9c-4.2,0.3-8.3-0.1-12.4-0.9c-4.9-1-9.7-2.1-14.5-3.3c-4.3-1.1-6.9-3.7-7.1-8.4
		c-0.3-5-1.6-9.8-3.1-14.8c-1.2-0.1-2.4-0.3-3.7-0.3c-6.9-0.1-13.8,0-20.6-0.1c-4.3,0-8.6-0.8-12.8-1.9c-4.1-1.1-7.1-3.4-9.2-7.1
		c-3.8-6.5-5.9-13.4-6.9-20.8c-0.9-6.5-1.1-13.1-0.9-19.6c0.4-9.9-1.2-19.4-4.1-28.8c-1-3.2-1.8-6.5-2.8-9.7
		c-0.2-0.7-0.5-1.4-0.9-2.4c-4,2-7,5.6-11.8,5c-1.3-2.3-1.5-4.6-1-7.3c3.2-15.5,6.3-31,9.4-46.5c3.1-15.2,5.6-30.5,7.4-45.9
		c1.9-17.2,3.8-34.3,5.4-51.5c1.1-11.8,1.4-23.6,1-35.5c-0.2-6.1-0.4-12.2-0.7-18.2c-0.1-2.2-0.5-4.4-1-6.6c-0.5-2-1.8-3.5-3.9-3.7
		c-2.5-0.3-5.1-0.6-7.6-0.5c-10.6,0.3-21.1,0.8-31.7,1.2c-17.6,0.7-35.2,0.2-52.7-1.6c-14-1.4-27.8-4.3-41.3-8.5
		c-26.5-8.4-53-16.9-79.2-26.3c-20.8-7.4-40.9-16.5-60.5-26.8c-2.5-1.3-5.1-2.6-7.8-3.8c-6.8-2.9-13.4-2.3-19.7,1.8
		c-3.9,2.5-7.5,5.4-10.5,9c-4.4,5.4-6.8,11.5-6.8,18.5c0,2.1-0.1,4.2,0.3,6.2c1.5,8.5,0.4,16.9-1.6,25.2
		c-5.2,21.7-14.4,41.6-28,59.5c-10.7,14-21.4,27.9-32.1,41.9c-8.2,10.7-16.3,21.3-24.3,32.1c-10.7,14.5-19.6,29.9-26,46.8
		c-7,18.7-10.2,37.9-9,57.9c0.8,13.5,3.6,26.6,8,39.4c2.9,8.3,6.2,16.5,9.1,24.7c1.8,5.1,5.7,7.5,10.6,8.7c1.5,0.4,3.2,0.5,4.8,0.6
		c3.6,0.2,6.9,1.3,10.2,2.5c2.5,0.9,4.5,2.3,6.2,4.4c5.6,7.2,10.6,14.8,15.5,22.5c0.1,0.1,0,0.3,0.1,0.8c-4,5.5-8.6,10.3-16,11.6
		c-5.7,1-11.2,2.5-16.9,3.4c-4.3,0.7-8.6,0.8-12.9-0.3c-2.3-0.6-4.7-0.9-7.1-1.4c-5.4-1-10.4-3.2-14.7-6.7c-6.1-5-9.2-11.4-8.2-19.4
		c0.5-4.4-0.2-8.6-1.6-12.7c-13-38.1-26.8-76-41.5-113.5c-0.9-2.4-1.8-4.8-2.5-7.2c-1.8-6.2-1.4-12.4,1.6-18.2
		c1.7-3.2,3.9-6.2,6-9.2c6-8.1,12.2-16,18.1-24.2c12.6-17.7,22-37.1,29.5-57.4c2-5.6,3.1-11.4,4.3-17.2c0.7-3.4,1.3-6.9,1.9-10.4
		c0.1-0.4-0.1-0.9-0.2-1.7c-1.1,0.8-2,1.3-2.8,2.1c-7.3,6.5-15.2,12.2-23.2,17.9c-23.6,16.6-44.6,35.9-62.1,58.9
		c-12.2,16.1-22.6,33.4-32,51.2c-4.8,9.2-8.4,19-10.6,29.2c-1.4,6.6-1.8,13.3-2.2,20c-0.7,10.4-1.2,20.8-1.8,31.1
		c0,0.8-0.1,1.6,0,2.4c0.3,3.8,1.7,5.4,5.5,6.1c1.4,0.3,2.9,0.3,4.3,0.7c5.3,1.3,9.7,4.1,13.2,8.3c2.2,2.7,4.2,5.6,6.1,8.6
		c1.9,2.9,3.7,6,5.5,8.9c-2.8,4.8-6.4,8.7-10,12.5c-1.3,1.3-2.9,2-4.7,2.1c-2.7,0.1-5.4,0.5-8.1,0.5c-9.9,0.1-19.8,0.1-29.8,0.1
		c-2.4,0-4.8-0.4-7.1-0.8c-3.5-0.6-5.6-2.9-6.6-6.2c-0.4-1.4-0.8-2.8-1-4.2c-0.4-4.1-0.9-8.3-1-12.4c-0.5-13.5,0.3-26.9,1.4-40.3
		c1.6-18.7,2.6-37.3,1.8-56.1c-0.5-12.5-0.4-25-0.6-37.4c-0.1-7.7,2.7-14.2,7.9-20c12-13.1,24.2-26,37.4-37.9
		c11.6-10.5,20.9-22.8,28.7-36.4c8.3-14.5,14.6-29.8,20.2-45.5c4.1-11.6,7.9-23.3,10.1-35.5c1.6-9,2.7-18,3.4-27.1
		c0.9-10.9,0.7-21.7,0.9-32.6c0.3-13.1,0.9-26.2,1.5-39.3c0.6-14.1,1.2-28.1,0.8-42.2c0-1.4,0.4-3.2-1.5-3.5
		c-1.6-0.3-1.9,1.5-2.5,2.5c-4.2,6.8-8.3,13.7-12.6,20.4c-9.9,15.8-17.6,32.6-25.1,49.6c-8,18.1-15.7,36.4-24.1,54.4
		c-11.7,25.3-24.5,50-39.2,73.6c-12.4,19.9-26.3,38.6-42.1,55.9c-5.8,6.4-12,12.4-18.9,17.7c-4.5,3.4-9.2,6.4-14.2,8.9
		c-0.7,0.3-1.4,0.5-2.3,0.8c1.5-4.2,3.4-7.1,6.6-9.4c12.6-8.9,22.3-20.6,30.8-33.3c14.6-22,27.5-45,39.2-68.7
		c12.8-26,23.7-52.8,33.6-80c8.6-23.4,17.8-46.6,28.7-69.1c7.9-16.3,16.6-32.1,26.5-47.2c14.1-21.5,32.4-38.1,55.3-49.9
		c22.8-11.7,46.8-19.6,72.1-23.7c18.7-3,37.5-4.2,56.4-3.5c14.5,0.5,29.1,1.5,43.6,2.3c6.4,0.3,12.8,0.7,19.2,1.1
		c13.6,0.8,27.2,1.5,40.7,2.3c17.2,1.1,34.5,2.3,51.7,3.4c10.1,0.7,20.1,1.4,30.2,1.9c25.2,1.1,49.9-2.2,73.4-11.4
		c21-8.2,42.4-15.4,63.7-22.7c3.9-1.3,7.9-2.7,11.8-4c7.6-2.6,14.9-5.7,22-9.5c5.8-3.1,11.8-5.7,18-7.8c15.1-5.3,28.8-13,40.7-23.8
		c18.8-16.9,37.7-33.7,56.5-50.6c2.4-2.1,4.8-4.2,7.2-6.4c2.2-2.1,4.4-4.2,6.5-6.4c3.4-3.7,5.9-8,7-13c0.7-3.6,2.7-6.1,5.4-8.2
		c4.9-3.7,10.1-6.8,15.9-8.7c4.7-1.6,9.4-3.1,14.2-4.5c6.8-1.9,13.6-3.7,20.3-5.6c3.5-1,6.9-0.8,10.2,0.8c12.5,6,25.1,12,37.7,17.9
		c12.9,6.1,24.2,14.2,34.5,24c4,3.8,6.4,8.2,6.5,13.9c0.2,10.3,4.9,18.4,12.9,24.6c2.1,1.7,4.4,3.2,6.7,4.6
		c11.1,6.7,22.2,13.3,33.4,19.9c1.5,0.9,3.1,1.7,4.5,2.7c1.4,1,2.9,2.1,4,3.4c3.2,3.4,3.8,7.3,1.7,11.5c-0.9,1.8-2.1,3.7-3.5,5.1
		c-3.6,3.8-5.9,8.2-7.8,13.1c-5.7,15.1-15.3,27.2-28.2,36.8c-4.2,3.2-8.9,4.8-14.2,5c-9.8,0.3-19.5-0.1-29.3-0.6
		c-5.8-0.3-10.5-2.6-14.2-6.9c-1.2-1.3-2.3-2.7-3.4-4c-4-5-9.3-7.3-15.6-6.4c-4.1,0.6-8.2,1.5-12.2,2.6c-9.8,2.9-18.6,7.7-26.8,13.7
		c-9.1,6.6-17.2,14.4-24.7,22.7c-4.6,5-8,10.8-9.1,17.7c-0.5,2.9-2,5.4-3.8,7.7c-1.8,2.3-3.6,4.5-5.3,6.8
		c-6.2,8.7-10.6,18.3-13.5,28.5c-2.6,9.2-4.9,18.6-7.1,27.9c-5.2,21.9-11.7,43.5-18.3,65.1c-5.5,17.9-11.2,35.7-18,53.1
		c-4.4,11.2-7.4,22.8-9.2,34.7c-1.8,11.8-4.2,23.6-6.4,35.4c-4,21.4-8.1,42.7-12,64.1c-3.7,20.3-7.5,40.6-11,60.9
		c-2.1,12.6-3.8,25.3-5.4,38c-1,7.9-1.7,15.9-2.5,23.9c-1,10.3,0.2,20.5,2.9,30.4c1.4,5.2,3.5,10.3,5.2,15.4
		c1.1,3.4,3.3,5.8,6.4,7.5c3.2,1.7,6.6,3.3,9.9,4.8c3,1.4,6.2,2.6,9.1,4.2c2.1,1.1,4.1,2.5,5.8,4.2c3.3,3.2,3.2,6.4-0.1,9.6
		c-0.8,0.8-1.7,1.5-2.6,2.1c-2.4,1.5-3.4,3.7-3.5,6.4c0,1.6-0.1,3.2-0.1,4.8C1698.5,1266,1698.5,1267.6,1698.5,1269.5z
		 M1621.5,1166.2c0.8-3.1,1.1-5.8,1.5-8.4c3-21,6.1-42.1,9.2-63.1c0.5-3.5,0.9-7,1.3-10.5c0-0.2-0.3-0.5-0.6-1
		c-0.7-0.1-1.6-0.2-2.7-0.3c-0.2,0.8-0.4,1.4-0.6,2c-1.2,6.3-2.3,12.6-3.7,18.8c-2,9.4-4.5,18.7-6.4,28.1
		c-1.7,8.7-2.1,17.5-0.5,26.2C1619.6,1160.6,1619.8,1163.3,1621.5,1166.2z M1636.1,1207.8c1.7-0.4,2.4-1.4,2-3.1
		c-1.3-5.5-2.7-11.1-4-16.6c-0.1-0.5-0.6-0.9-1.1-1.5c-4.1,2.5-8.1,4.7-11.6,7.6C1624.3,1197.7,1633.1,1205.8,1636.1,1207.8z"/>
</g>
</svg>
