<?xml version="1.0" encoding="utf-8"?>
<!-- Generator: Adobe Illustrator 22.0.0, SVG Export Plug-In . SVG Version: 6.00 Build 0)  -->
<svg version="1.1" id="Layer_1" xmlns="http://www.w3.org/2000/svg" xmlns:xlink="http://www.w3.org/1999/xlink" x="0px" y="0px"
	 viewBox="0 0 2880 1800" enable-background="new 0 0 2880 1800" xml:space="preserve">
<path d="M1419.3,1125.6c-3.5-0.3-6.5-0.5-9.5-0.7c-7.7-0.4-15.3-0.8-23-1.2c-1.4-0.1-2.9-0.2-4.3-0.5c-4.5-0.9-6-3-5.4-7.4
	c0.1-0.9,0.5-1.9,0.6-2.8c0.2-1.2-0.4-2.2-1.5-2.7c-0.7-0.3-1.5-0.6-2.3-0.8c-11.2-2.7-21.2-8.1-30.2-15.2
	c-8.1-6.3-15.4-13.5-21.7-21.6c-1.6-2-2.9-4.2-4.3-6.2c-1.3-0.3-2,0.4-2.5,1.2c-1.2,2.1-2.4,4.2-3.2,6.4c-4.7,14.7-11,28.6-18,42.3
	c-1.3,2.5-2.4,5.2-3.3,7.9c-1.7,4.8-3.6,6.5-8.8,6.5c-2.8,0-4.5,1.2-5.9,3.3c-5.8,8.5-11.6,16.9-17.3,25.3c-0.9,1.3-1.7,2.7-2.8,3.9
	c-1.9,2.1-4.1,3-6.9,1.7c-0.4-0.2-0.9-0.4-1.3-0.6c-2.9-1-4.3-0.6-6.1,2c-0.7,1-1.3,2.2-2,3.3c-4.7,8.2-9.3,16.4-14,24.6
	c-0.6,1.1-1.2,2.2-1.9,3.3c-1.3,2.1-3,3.8-5.7,3.8c-2,0-3.3,1.1-4.4,2.5c-6,7.5-12.1,14.9-17.8,22.6c-5.6,7.4-8,15.9-7.9,25.2
	c0.1,5.3,0.6,10.5,1.9,15.7c1.8,6.8,5.7,12.1,11.1,16.4c1.2,1,2.7,1.7,4.2,2.2c6.2,2.2,10.6,6.3,13.6,12.1c1.5,3,3.2,5.9,4.8,8.8
	c2.3,4.3,3.7,8.9,3.8,13.7c0.2,8.2-3.3,14.1-10.8,17.6c-14.3,6.7-29.3,8.9-44.9,5.8c-11.3-2.2-22.6-4.5-33.9-6.5
	c-6.7-1.2-12.2-4.4-17-9.2c-4.4-4.4-9-8.7-13.5-13c-0.8-0.7-1.7-1.3-2.6-2c-1.5,1.1-1.6,2.6-1.9,3.9c-1.4,8.7-2.9,17.4-2.5,26.2
	c0.1,2.4-0.1,4.8-0.5,7.2c-0.6,3.1-3,4.6-6,3.8c-1.5-0.4-3-1.1-4.4-1.9c-8.4-4.8-15.6-11.1-21.5-18.8c-3.6-4.7-6.7-9.7-9.4-15
	c-1.4-2.7-2.8-5.4-4.3-8.1c-0.3-0.6-0.9-1.1-1.5-1.8c-1.3,3.4-1.4,4.1,0.1,6.9c2,3.8,4.1,7.6,6.3,11.3c3.4,6,6.3,12.2,8.5,18.8
	c1.1,3.3,2.1,6.7,2.6,10.2c1.6,11.8-2,21.8-10.6,29.9c-2.4,2.3-5.3,4.2-8.2,5.9c-9.9,5.5-20.3,9.4-31.8,9.9
	c-14.4,0.7-28.8,1.4-43.1,2c-2.4,0.1-4.8-0.2-7.1-0.8c-5.2-1.2-8.9-4.4-10.4-9.6c-0.8-2.8-2.3-3.9-4.8-4.6c-4.1-1.2-5.1-2.6-5.2-6.9
	c-0.1-3.4,0.1-6.7,0.1-10.1c0-3.4,0-6.7,0.1-10.1c0.1-2.7-0.8-4.6-3.4-5.7c-2.9-1.2-4.4-3.5-5.5-6.3c-1.4-3.7-2.9-7.4-4.7-11
	c-5.4-10.9-5.4-21.8-1.1-33c0.5-1.2,0.9-2.4,1.4-3.6c1.1-2.8,0.6-5.5-1.5-7.5c-6.8-6.7-7.2-15-6-23.6c0.5-3.9,1.7-7.8,3.1-11.6
	c2.9-8.1,6-16.2,9.4-24.1c4.7-10.9,9.7-21.6,14.6-32.3c1.3-2.9,2.7-5.8,4-8.7c1.6-3.6,2.2-7.3,2.5-11.2c0.2-2.3-0.5-4.1-2.8-5
	c-3.3-1.2-4.5-3.7-4.5-7.1c0.1-14.4-0.4-28.8,1.9-43.1c0.1-0.6,0.1-1.3,0.2-1.9c0.2-3.5,0.2-3.6-3.4-4.3c-3.7-0.7-4.8-2.3-4.4-6
	c0.2-1.3,0.5-2.5,0.9-3.7c4.6-16.1,9.1-32.3,13.8-48.4c1.9-6.6,2.7-13.1,0.9-19.9c-0.4-1.5-0.2-3.2-0.2-4.8c0.1-2.2-0.9-3.7-2.9-4.5
	c-1-0.4-2.1-0.7-3.2-1c-1.2-0.4-2.5-0.7-3.7-1.2c-2.9-1.3-4-3.3-3.6-6.6c0.2-1.3,0.5-2.5,0.9-3.7c1.2-4,1.6-8.1,1.9-12.3
	c0.1-1.7-0.2-3.1-1.5-4.3c-2.6-2.4-2.6-5.3-1.5-8.4c5.5-14.2,8.7-29.1,13.1-43.6c2.6-8.7,5.6-17.3,9.9-25.4c0.3-0.6,0.6-1.1,0.8-1.7
	c0.5-1.3,0.3-2.5-0.7-3.5c-0.6-0.6-1.2-1.1-1.7-1.7c-1.4-1.5-1.9-3.3-1.6-5.3c0.1-0.8,0.2-1.6,0.5-2.3c4.2-10.1,6.3-20.8,8.7-31.4
	c1.7-7.5,4.2-14.8,6.8-22c0.4-1.2,0.9-2.4,1.3-3.6c0.9-2.4,0.8-4.5-1.4-6.5c-2.8-2.5-2.9-4.4-1.1-7.7c2-3.6,4.2-7.2,6.4-10.7
	c7.8-13,15.6-26.1,23.4-39.1c0.9-1.5,1.8-3,2.6-4.6c0.8-1.6,1.3-3.3,0.7-5.1c-1-2.7,0-4.7,2.4-6c7-3.7,12.6-9.3,18.2-14.7
	c7.1-6.7,14.3-13.3,21.5-19.8c3.1-2.8,6.2-5.5,9.4-8.2c1.8-1.6,3.5-3.4,4.4-5.6c1-2.8,2.8-4.6,5.3-5.2c0.3-0.5,0.5-0.6,0.5-0.7
	c1.4-4.7,1.5-4.9,6.5-5.3c1.8-0.1,3.5-0.2,5.3-0.2c3.3,0,6.3-0.9,8.9-3c1.9-1.5,4-2.6,6.2-3.5c2.7-1.1,5.3-2.2,7.9-3.5
	c12.2-6.3,25.2-10.1,38.5-13.1c12.3-2.8,24.8-4.7,37.4-5.9c8.3-0.8,16.6-1.6,24.8-2.2c2.2-0.2,4.5-0.1,6.7-0.1
	c6.9,0.2,13.7,0.5,20.6,0.7c11,0.2,22.1,0.2,33.1,0.6c8.5,0.3,16.9,0.9,25.4,1.5c16.6,1.2,33.2,1.2,49.9,0c11.2-0.8,22.3-1.9,33.5-2
	c20.6,0,40.4-4,59.8-10.3c6.1-2,12.1-4.1,18.2-6.1c3.1-1,5.9-2.4,8.6-4.3c12.9-8.9,25.8-17.8,38.7-26.7c8.6-5.9,15.8-13.5,23-20.9
	c1.6-1.6,1.8-3.3,1-5.2c-0.2-0.6-0.6-1.1-0.9-1.7c-1.9-3.9-2-4.3,1.1-7c2.7-2.3,4.9-5,6.9-7.9c7.9-11.3,15.9-22.5,23.8-33.7
	c1.8-2.6,3.5-5.4,5.3-8c1.7-2.5,2.1-5,0.5-7.6c-0.3-0.6-0.6-1.1-0.8-1.7c-0.7-2.1-0.1-3.8,1.8-4.9c0.6-0.3,1.1-0.6,1.7-0.8
	c6.9-2.6,12.7-6.8,17.7-12c4.9-5,9.6-10.3,14.1-15.7c5-6,9.7-12.3,14.6-18.5c0.5-0.6,1-1.3,1.4-1.9c0.7-1.2,0.8-2.4,0.3-3.7
	c-0.2-0.4-0.4-0.9-0.7-1.3c-2.5-5-2.3-6.2,2.2-9.7c4.5-3.6,9.1-7.1,13.7-10.5c5-3.6,9.4-7.6,13.4-12.3c2-2.3,4-4.6,5.9-7
	c5.9-7.6,13.4-13.2,21.5-18.1c4.4-2.7,8.8-5.2,13.1-7.9c6.9-4.2,14.3-7.2,22-9.3c10-2.7,20.1-5.2,30.2-7.7c5-1.3,9.9-2.6,14.9-3.7
	c10.2-2.1,20.4-1.6,30.4,1c6.7,1.7,13.3,3.5,19.8,5.6c11.6,3.6,22,9.5,31.5,16.9c5.3,4.1,10.7,8.2,15.8,12.5c4.7,3.9,10,5.3,16,5.3
	c7.2,0.1,14.4,0.2,21.6,0.6c15.1,0.9,29.8,3.9,44.3,8c1.7,0.5,3.4,1.2,4.7,2.2c8.2,6.2,13.3,14.2,13.7,24.7c0.2,3.8,0,7.7-0.6,11.5
	c-2.2,13.2-4.7,26.4-7.2,39.6c-1,5.2-2.4,10.3-4.6,15.1c-3.2,6.8-7.9,12.3-14.2,16.5c-3.5,2.3-6.9,4.6-10.2,7.1
	c-7.1,5.4-14.7,9.5-23,12.7c-5.7,2.1-11.4,4.3-17,6.4c-1.2,0.5-2.4,0.9-3.5,1.5c-2.4,1.3-2.5,4.2-0.3,5.9c0.6,0.5,1.5,0.6,2.2,1
	c2.9,1.6,6,3,8.7,5c5.7,4.1,11.3,8.4,16.7,12.9c4.9,4,8.4,9.2,11.4,14.7c6.6,11.8,11.5,24.3,14.7,37.4c3.2,13.1,4.9,26.4,5.6,39.8
	c0.6,9.8,1.5,19.4,3.6,29c0.2,0.8,0.3,1.6,0.4,2.4c0.2,3.1-0.6,4.3-3.5,5.5c-4.5,1.9-4.4,1.8-3.1,6.4c0.9,3.1,1.4,6.2,1.8,9.4
	c0.4,3,0.4,6.1,0.4,9.1c0.1,10,1.6,19.7,3.9,29.4c0.4,1.7,0.8,3.4,1.1,5.2c0.4,2.3-0.2,4.3-2.4,5.2c-3.2,1.3-3.5,3.8-3.1,6.7
	c0.8,6,1.6,12.1,2.3,18.1c0.4,2.9,0.5,5.7,1,8.6c0.6,3.6-1.2,7-5.5,7.4c-0.2,0-0.3,0-0.5,0.1c-3.1,0.7-3.7,1.3-4,4.4
	c-0.7,6.7-1.3,13.4-1.9,20.1c-0.2,2.5-0.6,5.1-0.9,7.6c-0.4,3.4-2.2,5.8-5.7,6.2c-5.2,0.5-6.9,3.5-7.5,8.2c-1.2,9.5-2.8,19-4.2,28.5
	c-0.2,1.4-0.4,2.9-0.8,4.2c-0.9,2.9-2.7,4.2-5.6,4.4c-0.2,0-0.3,0-0.5,0c-4.4-0.9-6.4,1.6-7.9,5.2c-2.6,6.3-5.5,12.6-8.3,18.9
	c-2,4.4-3.7,8.8-4.6,13.6c-0.7,3.9-2.8,6.4-6.8,7.1c-2.2,0.4-3.8,1.5-5,3.4c-6.1,9.6-11.8,19.4-14.6,30.6c-0.5,2-0.8,4.1-1.4,6.1
	c-0.7,2.6-1.8,3.4-4.4,3.6c-0.8,0.1-1.6-0.1-2.4,0c-4.6,0.2-7.9,2.4-9.7,6.6c-0.3,0.7-0.6,1.5-0.9,2.2c-1.9,5.6-5.2,10.3-9.4,14.3
	c-2.5,2.4-5.2,4.7-7.9,7c-2.4,2.1-4.9,4.1-7.2,6.3c-5.1,5-9,10.8-11.2,17.6c-0.8,2.6-2.2,4.5-4.5,5.9c-1.5,0.9-3,1.9-4.4,2.9
	c-1,0.7-2.2,1.4-3,2.4c-3.6,4.1-7.1,8.2-10.5,12.5c-2.2,2.8-3.5,6.1-4.6,9.4c-1,3-2.1,6-3.3,9c-1.1,2.7-1.9,5.4-2.2,8.3
	c-0.7,7.2-1.3,14.3-2,21.5c-0.7,7-1.6,14-2.1,21c-1,14.5-2.2,29-2.7,43.6c-0.6,16.9-0.7,33.9-0.8,50.9c0,4.1,0.3,8.3,0.8,12.4
	c0.5,5,2.5,9.5,5.7,13.5c6.2,7.8,12.8,15.1,21.2,20.7c4.4,2.9,8.3,6.5,11.9,10.4c5.9,6.5,9.9,14.1,11.7,22.8
	c1.2,5.7-0.1,11.1-2.5,16.3c-1.3,2.9-3.8,4.7-6.7,5.8c-4.4,1.6-8.9,2.6-13.6,2.8c-1.4,0.1-2.9,0.2-4.3,0.5c-1.3,0.3-2.2,1.3-2.3,2.7
	c-0.1,1.8-0.1,3.5-0.1,5.3c0,1.6,0.2,3.2,0.3,4.8c0.4,7.8-5.8,13-12.1,13.6c-1.1,0.1-2.2,0.1-3.4,0.1c-16.6,0-33.3-0.1-49.9,0
	c-8.1,0-15.9-1.4-23.2-5.1c-2.5-1.3-5.4-1.8-8.2-2.7c-3.8-1.3-7.7-2.4-11.2-4.1c-7.1-3.4-12.9-8.4-17.1-15c-2.9-4.6-6.7-7-12-7.7
	c-5.1-0.7-10.1-1.9-15.1-2.7c-2.3-0.4-4.2-1.3-5.8-3.1c-2.6-2.9-5.4-5.4-9.2-6.6c-2.4-0.8-3.4-2.8-3.1-5.3c0.2-1.6,0.5-3.2,0.9-4.7
	c1.9-8.3,3.8-16.5,5.6-24.8c0.4-1.9,0.6-3.8,0.7-5.7c0.1-3.6-0.8-4.8-4.4-5.8c-2.6-0.7-5.3-1.1-8-1.6c-0.5-0.1-1-0.1-1.4-0.2
	c-4.8-0.7-8.3-3.2-10.6-7.4c-0.9-1.7-1.7-3.4-2.3-5.3c-0.8-2.5-2.4-4-5.1-4.5c-1.6-0.3-3.1-0.8-4.6-1.4c-3.1-1.2-4.8-3.6-5.2-6.9
	c-0.7-5.9-1.3-11.8-1.9-17.6c-0.3-2.9-0.5-5.7-0.9-8.6c-0.5-3.9-1.8-5.2-5.6-6c-2.2-0.5-4.4-0.9-6.5-1.5c-4.8-1.5-5.7-3.1-4.3-7.8
	c1.6-5.4,2.7-10.8,3.3-16.4c0.1-0.8,0.3-1.6,0.3-2.4c0-3.1-1.1-4.8-4.1-5.7c-2-0.6-4-0.9-6.1-1.4c-2-0.5-4.1-0.9-6-1.6
	c-2.8-1-3.7-2.7-3-5.6c0.3-1.4,0.8-2.8,1.3-4.1c0.8-1.9,1.7-3.8,2.5-5.7c1.5-3.4,2.4-7,2.1-10.7c-0.2-3.3-0.4-6.7-1-10
	c-0.6-3.3-2.4-6-5.1-7.9c-1.8-1.3-3.8-2.4-5.8-3.3c-9.5-3.9-18.9-7.8-28.5-11.4c-4.9-1.8-10.1-3.1-15.2-4.5
	c-4.9-1.3-9.5-0.5-13.8,2.1c-1.4,0.8-2.7,1.8-4,2.6c-1.2,0.8-2.4,1.6-3.7,2.1c-2.6,1.1-4.7,0.5-6.4-1.7c-1-1.4-1.8-3-2.5-4.6
	c-0.9-1.9-1.6-3.8-2.6-5.7c-1.1-2.1-2.4-2.6-4.8-1.8c-1.2,0.4-2.4,1-3.5,1.5c-3,1.5-6,3.1-9,4.6c-3.7,1.9-7.4,3.8-11.2,5.4
	c-6.4,2.7-10.2,0.1-10.3-6.9c-0.1-2.2,0-4.5,0-6.7C1419.5,1128.3,1419.4,1127.2,1419.3,1125.6z"/>
</svg>
