<?xml version="1.0" encoding="utf-8"?>
<!-- Generator: Adobe Illustrator 22.0.0, SVG Export Plug-In . SVG Version: 6.00 Build 0)  -->
<svg version="1.1" id="Layer_1" xmlns="http://www.w3.org/2000/svg" xmlns:xlink="http://www.w3.org/1999/xlink" x="0px" y="0px"
	 viewBox="0 0 2880 1800" enable-background="new 0 0 2880 1800" xml:space="preserve">
<g>
	<path d="M1694,1220.4c-1.2,0.8-1.9,1.3-2.8,1.7c-1.5,0.8-3.2,1.5-4.7,2.4c-3.7,2.3-7.7,3-12,2.5c-1.3-0.1-2.7-0.8-4.1-0.1
		c0.1,1.6,1.3,1.9,2.3,2.3c2.8,1.2,5.6,2.4,8.4,3.6c2.9,1.3,5.8,2.6,8.7,4.1c3.7,1.9,6.3,4.9,8.3,8.4c0.9,1.5,0.3,2.9-1.3,3.4
		c-6,1.7-11.4,4.8-17.5,6.5c-3.6,1-7.1,1.9-10.8,1.7c-4.5-0.1-8.9-0.4-13.4-0.6c-2.8-0.1-5-1.4-6.4-3.7c-3-5.1-7.5-7.7-13-9.1
		c-0.5-0.1-0.9-0.3-1.4-0.4c-4.4-1.6-5.3-2.7-5-7.4c0.2-3.2-0.7-6-2-8.8c-1.9-3.9-3.8-7.7-5.9-11.5c-7.4-13.5-13.9-27.3-20.3-41.3
		c-2.3-5.1-3.3-10.3-2.7-15.9c0.8-7.3,1.4-14.7,2.4-21.9c1.6-11,1-22-0.5-33c-1-7.9-1.9-15.9-2.5-23.8c-1.5-18.3-2.7-36.7-4.2-55
		c-1.2-14.9-3.6-29.5-8.5-43.7c-1.6-4.7-3.3-9.4-5.1-14c-2.4-6.1-1.8-11.9,1.1-17.6c0.7-1.4,1.4-2.9,1.9-4.4c0.3-1,0.3-2.1,0.4-3.1
		c-1.6-1-3-0.6-4.4-0.5c-5.4,0.4-10.9,0.7-16.3,1.2c-6.9,0.7-13.8,0.3-20.6-0.5c-12.9-1.5-25.6-3.6-38.1-7.2
		c-10-2.9-19.7-6.5-29.3-10.6c-6.8-2.9-13.1-6.6-19-11.2c-6-4.7-12.1-9.5-18.2-14.2c-7.8-5.9-15.5-11.8-23.4-17.6
		c-3.3-2.5-6.9-4.7-10.4-6.9c-10.6-6.8-22-11.5-34.5-13.6c-16.4-2.8-32.7-6.1-49-9.2c-7.2-1.4-14.5-2.3-21.9-1.6
		c-5.3,0.5-10.4,1.8-15.2,4c-6.5,2.9-10.9,7.6-13.3,14.3c-3.2,8.9-5.5,18-7.1,27.3c-2,11.7-3.8,23.4-5.7,35
		c-2.5,15.3-8.4,29.1-17.1,41.8c-1.2,1.7-2.4,3.4-3.9,4.8c-2.1,2-3.6,4.4-5,7c-4.3,8.1-9.6,15.5-16.5,21.6c-1.5,1.4-3,2.9-4.4,4.4
		c-11.6,12.2-24.1,23.4-37.6,33.5c-3.8,2.9-7.9,5.4-12.1,7.8c-5.5,3.1-10.2,7.1-14.4,11.8c-1.6,1.8-2.4,3.6-2.5,6
		c-0.2,7.5-0.6,15-0.6,22.5c0.1,11.8,0.3,23.7,0.7,35.5c0.3,9.8,1.3,19.5,3.7,29c0.4,1.5,0.9,3.1,1.3,4.6c1,3.7,3.2,5.7,7.2,5.9
		c2.6,0.1,5.1,0.5,7.6,0.8c0.5,0.1,1,0.1,1.4,0.2c9.7,1.5,16.7,9.3,16.9,19.2c0,0.9-0.5,1.8-0.7,2.6c-0.7,0.2-1.1,0.4-1.6,0.4
		c-14.5,0.7-29.1,1.4-43.6,2.1c-1.3,0.1-2.6,0.1-3.8,0.1c-4.6,0-7.6-2.3-9.1-6.5c-1-3-2-6.1-2.4-9.2c-0.8-5.5-1.2-11.1-1.8-16.7
		c-1.4-14.8-2.6-29.6-4.1-44.4c-0.7-7-1.9-13.9-2.9-21.2c-1.1,0.3-1.9,0.4-2.4,0.8c-6.8,5.3-13.7,10.5-20.4,16
		c-5.3,4.4-8.8,10-10.8,16.6c-1.8,5.9-2.8,11.8-3.5,17.8c-1.5,12.9-1.3,25.9,0.6,38.8c1,6.5,2,13,3,19.4c0.8,4.9,3,6.9,7.9,7.4
		c3,0.3,6,0.6,9.1,1c1.6,0.2,3.1,0.6,4.7,1c4.5,1,7.3,3.9,8.8,8c0.7,1.9,1.3,3.9,2.5,5.7c1.2,1.9,1.2,4.3,1.2,6.5c0,1-1,1.9-2,1.7
		c-4.7-1.1-8.8,0.6-13,2.2c-8.6,3.4-17.6,4.5-26.8,4.3c-2.9-0.1-5.8-0.3-8.6-0.6c-4.9-0.5-7.6-2.8-8.6-7.6c-0.9-4.5-1.6-9.1-2-13.8
		c-0.7-8.6-1.2-17.2-1.8-25.8c-0.9-12.6-2.7-25.1-4.5-37.6c-1.6-11.4-3.3-22.8-4.7-34.2c-0.6-4.3-0.5-8.6,0.2-12.9
		c0.7-4.6,2.4-8.6,5.3-12.1c12-14.2,23.7-28.6,37.1-41.5c5.6-5.4,11.2-11,16.7-16.5c0.9-0.9,1.6-1.8,2.4-2.8
		c-1.1-0.8-1.7-0.2-2.4,0.1c-2.4,1.3-4.8,2.6-7.2,3.8c-6.9,3.4-14,6.2-21.5,8.2c-9.4,2.5-18.8,5.3-28.4,6.9
		c-18.8,3-37.3,2.4-55.5-3.2c-7.8-2.4-15.4-5.2-23.1-8.1c-6.5-2.4-12.4-6-17.8-10.3c-10-7.9-18.7-16.9-25.9-27.5
		c-0.3-0.4-0.5-0.9-0.8-1.2c-1.9-1.5-2-3.4-1.3-5.7c0.5-0.2,1.1-0.6,1.7-0.8c1.7-0.7,3.2-0.3,4.3,1.2c6.6,8.8,16,14.2,24.6,20.5
		c1.7,1.2,3.6,2.2,5.4,3.1c8.6,4.6,17.6,8.4,26.8,11.7c10.6,3.8,21.7,5.7,32.9,6.1c13.2,0.5,26.2-0.6,39.1-3.5
		c7.5-1.7,14.6-4.5,21.3-8.5c11.8-7,22.5-15.3,31.3-25.9c2.9-3.4,5.7-7,7.9-10.8c4.8-8.3,9.2-16.8,13.7-25.3
		c2.6-8.6,5-17.2,2.5-26.3c-1.7-6-3.2-12-4.7-18.1c-2.6-10.9-5.3-21.7-7.6-32.7c-2.1-9.9-2.9-19.9-2.4-30.1
		c0.5-11.5,3.1-22.5,7.9-32.9c3.4-7.4,7.5-14.5,12.3-21.1c6-8.1,12-16.2,18.4-24c17.9-21.9,40.7-36.8,67.3-45.8
		c15.3-5.2,31-9.1,47-11.2c7.4-1,15-1.6,22.4-2.1c9.3-0.6,18.5-0.9,27.8-1.1c40.5-1,80.9-2,121.4-3.1c14.7-0.4,29.4-1.8,44-3.3
		c5.9-0.6,11.6-1.9,17.4-3.1c7.3-1.6,14.8-2.9,22.2-3.7c8.3-0.9,16.6-1.5,24.9-1.7c15.1-0.4,30,0.6,44.8,3.9c5,1.1,10,1.9,15.1,2.6
		c7.3,1.1,13.6-1.2,18.8-6.3c1.5-1.5,3-2.9,4.4-4.4c19.8-21.7,41.3-41.4,64-60c20.5-16.9,41.1-33.6,61.8-50.3c2.9-2.4,4.7-5,5.4-8.7
		c0.9-5,2.3-10,3.4-15c0.5-2.4,1.7-4,4-5c2-0.9,4-2,6-3c3.3-1.6,6.4-3.5,8.9-6.3c3.1-3.5,7.1-4.1,11.4-2.1c2.9,1.4,5.6,3,8.5,4.5
		c2.5,1.3,3.2,1.3,4.8-1c2.8-3.9,6.2-6.9,11.1-7.8c2.9-2.3,6.3-1.7,9.6-1.7c2.7,0,4.8,1.7,5.6,4.4c0.4,1.4,0.6,2.8,0.9,4.2
		c1.5,6.4,5.2,11.3,10.6,14.8c2,1.3,4.2,2.3,6.3,3.4c4.1,2.1,8.3,4.1,12.4,6.3c3.1,1.7,6,3.6,8.9,5.7c4.2,3.1,7.5,7,9.5,11.8
		c1.7,3.9,4.1,7.2,7,10.2c5.4,5.8,11.8,10.4,18.9,13.8c11.8,5.6,23.8,10.9,36.1,15.5c4.9,1.8,9.8,3.8,14.6,6
		c4.7,2.1,5.6,4.2,4.4,9.2c-0.8,3.5-2.8,6.3-6.1,7.6c-5,1.9-9.1,5.2-13.3,8.4c-7.2,5.4-15.2,8.7-24.2,9.6c-4.5,0.4-9,0-13.4-0.8
		c-6.6-1.2-13.3-1.9-20-1.7c-3.7,0.1-7.3,0.4-11,0.9c-5.9,0.7-11.2-0.3-15.3-5c-1.4-1.6-3.1-2.1-5.1-2c-5.9,0.4-11.8,0.7-17.7,1.1
		c-6.2,0.4-12.5,0.9-18.6-0.5c-1.7-0.4-3.4-1-5-1.6c-1.8-0.6-3.2-0.1-4.2,1.3c-0.8,1.2-1.6,2.4-2.3,3.6c-4.1,7.6-8.4,15.1-12.3,22.8
		c-3.6,7-7.5,13.8-12.7,19.7c-1.3,1.5-2.1,3.1-2.3,5.1c-0.4,3.6-2.2,6.6-4.5,9.4c-1.6,1.8-3,3.8-4.2,5.8
		c-8.8,14.1-17.4,28.4-26.2,42.5c-4.2,6.7-7.8,13.6-10.7,20.9c-5.8,14.6-11.5,29.2-17.3,43.7c-2.6,6.5-5.5,13-8.3,19.4
		c-2.4,5.4-5,10.7-7.2,16.2c-5.9,14.2-13.2,27.7-21,40.9c-5.6,9.5-11.8,18.7-19.5,26.6c-3,3-4.3,6.5-4.4,10.7
		c-0.4,10.7-2.2,21.3-4.4,31.8c-3.3,16-6.2,32-8.7,48.1c-0.7,4.6-1,9.2-1.1,13.9c-0.4,17.1,0.5,34.2,1.3,51.3
		c0.4,8.3,0.7,16.6,1.2,24.9c0.6,11.2,1.1,22.4,2.1,33.5c1.3,15,5.4,29.2,13.6,42c1.6,2.5,3.4,4,6.4,4.3c6.8,0.7,12.8,4,19,6.4
		c1.7,0.7,2.9,2,3.8,3.5C1692.5,1217,1693.1,1218.5,1694,1220.4z"/>
</g>
</svg>
