<?xml version="1.0" encoding="utf-8"?>
<!-- Generator: Adobe Illustrator 22.0.0, SVG Export Plug-In . SVG Version: 6.00 Build 0)  -->
<svg version="1.1" id="Layer_1" xmlns="http://www.w3.org/2000/svg" xmlns:xlink="http://www.w3.org/1999/xlink" x="0px" y="0px"
	 viewBox="0 0 2880 1800" enable-background="new 0 0 2880 1800" xml:space="preserve">
<g>
	<path d="M926.7,1210.9c0-4.3,0-8.3,0-12.4c0.6-0.5,1.4-0.9,1.8-1.5c0.6-0.9,1.1-2,1.5-3c3.3-7.6,6.2-15.5,7.9-23.6
		c2.8-13.1,9.6-24,17.8-34.1c2.5-3.1,5.3-6,8-8.9c2.3-2.5,4.6-4.9,6.9-7.3c7.5-7.7,12.7-16.8,17.1-26.4c0.3-0.6,0.5-1.2,0.7-1.8
		c0.5-1.9,0-3.5-1.7-4.5c-1.1-0.6-2.3-1-3.5-1.4c-3.8-1.2-7.6-2.3-11.5-3.5c-2.2-0.7-4.2-1.6-5.8-3.2c-2.8-2.7-2.4-5.9,1.2-7.8
		c0.8-0.5,1.7-0.8,2.6-1.1c8.2-2.7,15.1-7.7,21.8-12.8c4.7-3.6,7.6-8.6,10.9-13.3c1-1.5,1.2-3.2,0.5-4.9c-1.8-1-3.3-0.4-4.8-0.1
		c-1.3,0.2-2.5,0.7-3.7,0.8c-3.2,0.4-5-0.9-5.1-4.1c-0.1-2,0.2-4.1,0.6-6.2c0.7-3.5,2.5-6.6,4.3-9.6c2-3.3,4-6.5,6-9.9
		c3.7-6.3,5.7-13.2,5.7-20.6c0-13.2,3.5-25.6,9.9-37.1c1.4-2.5,2.6-5.1,3.8-7.7c0.9-1.9,1.3-3.9,0.6-6c-1.4-4.3,0-7.7,3-10.9
		c6-6.6,10.4-14.1,13.4-22.5c0.5-1.5,1-3.1,1.2-4.6c0.2-1.6-1.2-2.7-2.8-2.5c-0.6,0.1-1.3,0.2-1.9,0.4c-4.8,1.8-9.6,3.5-14.3,5.4
		c-4.6,1.9-8.1,5.2-10.5,9.5c-1.6,2.9-3,6-4.5,9c-0.8,1.6-1.5,3.2-2.5,4.7c-1,1.7-2.5,2.9-4.3,3.7c-2,0.9-3.5,0.3-4.1-1.9
		c-0.4-1.5-0.6-3.1-0.8-4.7c-0.2-1.7-0.1-3.5-0.3-5.3c-0.1-1-0.7-2-1-2.8c-1.8-0.6-2.8,0.2-3.9,1c-5.8,4.1-11.3,8.4-16.1,13.5
		c-1.4,1.5-2.8,3.1-4.3,4.5c-0.7,0.7-1.4,1.3-2.3,1.7c-3,1.4-5.1,0.2-5.6-3c-0.6-4.3,0.1-8.6,1.2-12.8c1.5-5.7,4.2-10.7,8-15.2
		c2.4-2.8,5-5.4,7.6-8c1.5-1.5,3-2.9,4.5-4.3c4.8-4.4,7.7-9.8,9-16.1c0.5-2.3,0.8-4.7,1.4-7.1c0.6-2.2-0.2-3.7-2-4.9
		c-0.9-0.6-1.9-1.2-2.8-1.9c-0.9-0.8-1.3-1.8-0.8-3c0.4-0.9,0.8-1.7,1.3-2.5c9-15.1,18-30.2,27-45.3c0.7-1.2,1.5-2.5,2.3-3.6
		c2.7-4,6-7.5,10.4-9.7c1.1-0.5,2.4-0.9,2.4-2.5c-0.5-0.9-1.4-0.8-2.1-0.8c-9.9,0.5-19.2,2.7-27.3,9c-5.9,4.6-12.2,8.8-18.3,13.2
		c-2.6,1.9-5.5,3.3-8.6,4.2c-2.5,0.7-4.8-0.8-5.4-3.4c-0.3-1.6,0.4-2.8,1.4-3.9c3.1-3.2,6.2-6.5,9.5-9.5c4.6-4.2,9.5-8.1,14.2-12.2
		c1.7-1.4,3.4-2.9,4.2-5.2c-1.6-2.4-3.9-3.3-6.4-3.8c-2.8-0.5-5.7-0.9-8.5-1.3c-3.1-0.4-5.9-1.5-7.9-4.2c1-2.3,2.4-3.8,5-4.6
		c6.1-1.9,12.3-3.4,18.8-3.4c8.4,0.1,16.1-2.1,23.1-6.9c3.1-2.1,6.6-3.2,10.3-3.8c1.4-0.2,2.9-0.2,4.3-0.5c7-1.4,14-0.9,21,0
		c6.9,0.8,8,0.1,10.9-6.4c2.7-6,5.4-12,8.6-17.7c7.6-13.6,17.7-25,30.3-34.2c13.5-9.8,28.7-14.7,45.4-14c5.6,0.3,11.1,1.1,16.6,2.2
		c9.3,1.9,18.6,2.8,28.1,2.3c5.6-0.3,11.2,0.1,16.8,0.2c1.4,0,2.9,0.2,4.3,0.5c2.3,0.4,2.9,1.1,3.3,3.5c0.1,0.3,0,0.6,0.1,1
		c0.1,2.6,1.5,4.1,4,4.6c4.9,0.9,9.7,2.1,14.6,2.8c4.4,0.6,8.9,0.9,13.4,1.1c6.1,0.3,12.2,0.2,18.1,1.7c4.9,1.3,9.8,2.9,14.7,4.5
		c2.2,0.7,2.7,1.7,2.5,4c0,0.6-0.3,1.3-0.3,1.9c-0.1,1.6,0.7,2.7,2.4,3.1c1.4,0.3,2.8,0.5,4.3,0.5c17.1,0.8,34.2,1.1,51.3,0
		c5.7-0.4,11.5-0.4,17.3-0.5c6.5-0.1,12.7,1.5,18.7,3.7c1.9,0.7,3.4,1.7,4.7,3.6c-1.1,2.5-3,4.2-5.7,5.2c-1.5,0.5-3,1.2-4.3,1.9
		c-0.9,0.5-0.7,2,0.3,2.3c1.5,0.5,3,1,4.6,1.3c7.9,1.4,15.7,2.8,23.6,4.2c3.5,0.6,6.9,1.2,10.4,1.8c0.9,0.2,1.9,0.4,2.7,0.9
		c1.6,0.8,2.2,2.3,1.4,4c-0.6,1.5-1.4,2.8-2,4.2c1,2.1,2.8,2.2,4.6,2.5c6.4,1.1,12.8,0.8,19.1-0.3c9.5-1.7,18.5-4.9,27.5-8.3
		c1.6-0.6,3.1-1.7,4.6-2.6c2.2-1.4,4.4-2.5,7.2-2.5c1.5,2.6,2,5.4,1.7,8.3c-0.2,2.4-0.5,4.8-0.5,7.2c0,2.5,1.2,3.7,3.6,3.4
		c3-0.3,6-1,9-1.5c1.6-0.3,3.1-0.8,4.7-1c3.2-0.3,4.8,1.7,3.9,4.8c-0.4,1.2-0.9,2.4-1.4,3.6c-0.5,1.2-1,2.4-1.3,3.6
		c-0.9,3.7,0.2,5.7,4,6c3.2,0.3,6.4,0.1,9.6,0c2.9-0.1,5.7-0.5,8.6-0.6c5.3-0.2,10.5,0.5,15.7,1.6c5.4,1.1,10.8,0.9,16.2-0.4
		c5.8-1.4,11.4-3.1,16.8-5.5c10.5-4.8,18.9-12,24.8-21.9c4.8-7.9,9-16.2,13.5-24.3c0.5-0.8,0.8-1.7,1.1-2.7c0.4-1.5,0.2-2.9-1-3.9
		c-0.6-0.5-1.2-1.1-1.8-1.5c-3.4-2.5-4.3-5.9-3.4-9.8c0.8-3.6,1.8-7.1,2.9-10.6c0.8-2.4,2-4.7,3.1-7c0.7-1.6,1.5-3.2,2.4-4.7
		c8.3-14.7,14.4-30.3,19.1-46.5c4.2-14.6,9.1-29,13.2-43.6c4-14.1,11.7-25.8,22.3-35.8c10-9.4,20.6-18.2,31.7-26.4
		c1.9-1.4,4-2.6,6.1-3.7c10.9-5.8,21.7-11.6,32.6-17.3c4-2.1,8-4,12.1-5.7c10.9-4.6,22.3-6.9,34-7.4c10.6-0.4,21.1-0.5,31.7,0.1
		c5.8,0.3,11.5,0.1,17.2-1.1c5.4-1.1,10.4-2.9,15.2-5.6c2.2-1.2,4.6-2.3,6.8-3.5c2.6-1.3,5.3-2.2,8.3-1.7c0.2,0,0.3,0.1,0.5,0
		c5.5-1.4,11.1,0.4,16.7,0c0.5,0,1,0,1.4,0c1.2,0,2.2,0.4,2.8,1.5c0.5,1.2,0,3-1.2,3.8c-0.9,0.6-2,1-3.1,1.2c-1.5,0.3-2.7,1-3.6,2.4
		c0.4,1.8,2,2.5,3.5,3.4c2.2,1.2,2.4,1.9,1.5,4.2c-2.2,5.5-2.1,5.5,3,8.6c5.2,3.2,10.3,6.5,15.4,9.8c1.3,0.9,2.5,2,3.6,3.2
		c1.3,1.5,1.1,3.3-0.3,4.7c-0.7,0.7-1.5,1.2-2.3,1.8c-0.8,0.5-1.7,0.9-2.4,1.5c-3.4,3.1-7.2,4-11.6,2.8c-0.4-0.1-0.9,0.1-1.8,0.2
		c0.6,0.9,0.8,1.9,1.5,2.3c3.3,2,6.6,3.9,10,5.7c2,1,4.1,0.5,6.1,0.1c5.2-1,10.4-2,15.5-3c3.1-0.6,6.3-1.1,9.5-1.5
		c11.5-1.5,17.4,4.2,17.5,15.3c0,3.8,0.2,7.7,0.3,11.5c0.1,4.5,1.1,8.7,3.3,12.9c4.2,8,6.9,16.5,7.1,25.7c0,1.2,0.4,2.1,1.5,2.8
		c0.5,0.3,1,0.9,1,1.4c0,7.2-0.1,14.4-0.2,21.5c0,0.1-0.2,0.2-0.4,0.5c-2.1,0.2-4.2-0.7-6.3-1.4c-2.4-0.7-3.3-0.4-4.1,1.9
		c-1.9,5.3-3.3,10.7-3.8,16.3c-0.5,6.1-0.5,12.1,0.6,18.2c0.4,2,0.5,4.1,0.5,6.2c0,3.6-1.1,4.6-4.6,4.5c-0.8,0-1.6-0.2-2.4-0.2
		c-2.1-0.1-2.9,0.6-2.9,2.8c0.1,3.2,0.3,6.4,0.5,9.6c0.2,3.8,0.5,7.7,0.7,11.5c0.1,1.4,0.4,3-1.1,3.9c-1.6,0.9-3.1-0.1-4.4-1
		c-1.7-1.2-3.3-2.5-4.9-3.9c-2.1-1.7-4.2-3.5-6.3-5.2c-0.6-0.5-1.4-0.6-2-0.9c-1.6,1.3-1.4,3-1.4,4.6c0,5.3-3.6,5.6-6.7,4.1
		c-1.9-0.9-3.6-2.1-5.4-3.1c-1.5-0.8-2.9-2-5.1-1.9c0.2,0.8,0.3,1.4,0.5,1.9c3.4,6.6,8.3,12.1,13.7,17.1c5.8,5.3,12.3,9.7,18.8,14.1
		c2.5,1.7,4.9,3.6,7.3,5.4c0.9,0.7,1.6,1.6,2.3,2.4c1,1.3,0.7,2.8-0.7,3.7c-1.3,0.9-2.8,1.5-4.2,2.3c-1.5,0.9-2,2-1.5,3.6
		c0.4,1.4,1,2.7,1.5,4c2,4.5,4.2,9,6,13.6c2.3,5.7,1.5,7.4-4.3,9.1c-0.3,0.1-0.6,0.1-0.9,0.2c-4.1,1.3-4.8,2.3-2.9,6.2
		c5.3,10.9,8.6,22.4,10.8,34.2c0.6,3.1,0.6,6.4,0.5,9.5c-0.1,2.7-1.8,3.6-4.3,2.6c-1.8-0.7-3.4-1.7-5.2-2.4c-1.4-0.6-2.5,0.4-2.3,2
		c0.2,1.1,0.5,2.2,0.9,3.2c1.3,4,2.6,7.9,3.8,11.9c0.6,2,1,4,1.1,6.1c0.1,2.4-1.6,3.6-3.8,2.6c-2-0.9-3.9-2.2-5.8-3.3
		c-1.6-0.9-3.1-3.1-5-1.5c-1.5,1.3-0.1,3.3,0.4,4.9c2.8,10.7,5.2,21.4,7.2,32.3c0.6,3.2,0.5,6.3,0,9.5c-1.3,7.1-2.4,14.2-3.6,21.3
		c-0.8,4.6-0.9,9.3-0.4,13.9c1,9.1,2.1,18.1,3.2,27.2c0.8,6.4,1.6,12.7,1.4,19.1c-0.2,4.7-0.9,9.2-2.4,13.7
		c-0.5,1.7-1.2,3.3-2.1,4.8c-2.7,4.5-3.9,9.4-4.1,14.6c-0.1,2.6,0,5.1-0.1,7.7c-0.3,6.9-0.6,13.7-0.9,20.6c-0.1,2.8-1.3,5.3-2.9,7.5
		c-1.2,1.6-2.7,1.7-4.1,0.3c-0.9-0.9-1.6-2-2.5-2.9c-0.5-0.6-1.2-1-2.1-1.7c-0.4,1-0.9,1.7-0.9,2.3c0.5,5.9-1.3,11.3-2.6,16.9
		c-1.7,7-2.7,14.1-3.9,21.2c-0.5,2.8-1.4,5.2-3.2,7.4c-1.8,2.2-3.8,2.3-5.7,0.1c-1.1-1.3-2-2.9-2.8-4.4c-0.7-1.4-1.1-3-1.7-4.5
		c-0.5-1.3-1.2-2.6-2.7-3.1c-1.5,0.7-2.1,1.9-2.3,3.5c-0.3,3.2-0.8,6.3-0.9,9.5c-0.4,6.7-0.5,13.4-0.9,20.1
		c-0.4,7.4-2,14.6-4.1,21.6c-2,6.9-4.2,13.8-6.3,20.6c-0.5,1.5-1,3-1.7,4.5c-0.7,1.5-1.9,2.6-3.7,2.5c-1.9-0.1-2.8-1.4-3.3-3
		c-0.5-1.7-0.8-3.4-1.3-5.1c-0.4-1.5-0.9-3.1-2.7-3.5c-1.7,0.8-2,2.5-2.6,3.9c-0.7,1.4-1.1,3-1.8,4.4c-2.8,5.2-6.7,5.8-10.7,1.6
		c-1-1-1.8-2.2-2.8-3.3c-0.4-0.5-0.9-0.9-1.4-1.3c-0.8-0.6-2.1-0.5-2.5,0.4c-0.6,1.1-1.1,2.3-1.4,3.5c-1.3,4.6-2.4,9.3-3.7,13.9
		c-0.7,2.6-1.4,5.2-2.3,7.8c-0.4,1.2-1,2.4-1.7,3.4c-1,1.5-2.6,2-4.2,1c-1.8-1.3-3.5-2.8-5-4.4c-1.4-1.5-2.6-3.2-3.9-4.8
		c-0.8-1-1.8-2.1-3.2-1.8c-1.8,0.3-1.9,2-2.1,3.4c-0.9,5.5-1.7,11.1-2.4,16.6c-0.5,3.7,1,6.6,4.3,8.5c2.9,1.6,5.9,3.2,9,4.5
		c10,4.2,18,10.8,24.5,19.5c3,4,6,7.9,9.2,11.7c2.7,3.3,3.8,5.8-0.9,8.5c-0.4,0.2-0.8,0.5-1.2,0.8c-1.8,1.5-2,2.5-1,4.6
		c0.8,1.6,1.7,3.1,2.3,4.7c0.9,2.5,0.3,4.5-1.9,5.9c-1.6,1-3.4,1.9-5.2,2.3c-3.7,0.8-7.5,1.3-11.3,1.9c-1.2,0.2-2.6,0-3.6,1.4
		c-0.2,1.7,0.8,3.2,1.3,4.8c1.4,4.3,2.6,8.6,2.3,13.1c0,1-0.1,1.9-0.2,2.9c-0.5,3.9-1.7,4.8-5.7,4.7c-0.5,0-1-0.1-1.4-0.1
		c-2.3-0.4-3.7,0.7-4.5,2.7c-0.8,1.8-1.4,3.6-2.2,5.3c-0.8,1.7-1.5,3.6-2.6,5.1c-3.2,4.7-9,6.6-14.4,4.6c-1.8-0.6-3.5-1.6-5.1-2.6
		c-2.8-1.9-5.4-3.9-8.2-5.9c-0.9-0.7-1.8-1.4-2.8-1.9c-1.7-0.9-3.4-0.8-5,0.3c-1.1,0.9-2.2,1.9-3.1,2.9c-1.3,1.4-2.4,3-3.5,4.6
		c-8.3,11.8-25.5,13.2-36.2,4.4c-1.5-1.2-3-2.5-4.4-3.8c-3.9-3.6-8.5-5-13.7-4.6c-1,0.1-1.9,0.2-2.9,0.2c-7.2,0.4-14-0.7-20.5-4.1
		c-5-2.6-9.9-5.2-14.8-7.9c-2.1-1.1-4.3-2.2-6.4-3.4c-4.6-2.6-9.5-3.7-14.7-3.8c-2.9-0.1-5.7-0.4-8.6-0.7c-3.9-0.5-6.7-2.8-8.6-6.2
		c-0.7-1.3-1.3-2.6-1.8-3.9c-1.1-3-2.2-6-2.9-9.1c-1.3-4.9-3.7-9.2-7.1-12.9c-4.2-4.6-8.4-9.2-12.6-13.8c-0.4-0.4-1-0.7-1.6-1.1
		c-2.3,1.7-2,5.3-5,6.4c-1.9-0.1-3.2-1.3-4.1-2.9c-1.8-3-3.6-6.1-5.1-9.2c-2.2-4.8-4.1-9.7-6.1-14.6c-1.9-4.4-2.9-4.6-6.4-1.3
		c-0.1,0.1-0.2,0.2-0.3,0.3c-3.7,3.5-5.7,3.1-7.9-1.6c-0.5-1-0.9-2-1.3-3.1c-2.2-6-4.3-6.8-9.5-3.1c-2,1.4-4.1,2.5-6.2,3.6
		c-8.1,4.2-16.7,7.3-25.3,10.2c-1.5,0.5-3.1,0.6-4.7,0.7c-1.8,0.1-3.1-1-3.5-2.7c-0.3-1.4-0.4-2.8-0.5-4.3c-0.1-1.6,0-3.2-0.2-4.8
		c-0.3-2.1-1.4-3.5-3.6-3.9c-0.8-0.1-1.6-0.3-2.4-0.4c-3.1-0.4-5.2-2.2-6.6-4.9c-0.8-1.6-1.5-3.2-2.3-4.8c-1.7-3.2-3.2-3.7-6.2-2
		c-8.5,5-17.9,7.7-27.3,10.2c-3,0.8-5.9,1.3-9,0.5c-2.4-0.6-3.2-1.8-2.5-4.2c0.5-2,1.2-4,1.9-5.9c1.8-4.9,1.5-9.7-0.6-14.4
		c-0.9-2-1.8-4.1-2.8-6.5c-0.8,0.6-1.4,1-1.8,1.5c-3.3,4.5-4.9,3.8-8-0.3c-0.7-0.9-1.4-1.8-2.2-2.5c-0.4-0.3-1.1-0.3-1.9-0.4
		c-0.1,1.4-0.2,2.5-0.3,3.6c-0.2,1.4-0.3,2.9-0.7,4.2c-1.7,6-8.8,15.6-14,19c-0.7,0.4-1.4,0.8-2.1,1.1c-1,0.3-2,0-2.5-1
		c-0.5-1-0.8-2.1-1-3.2c-0.9-5-1.8-10.1-2.7-15.1c-0.5-2.8-1.1-5.6-1.7-8.5c-0.2-0.8-0.3-1.6-0.6-2.3c-1.1-2.9-2.9-3.7-5.6-2.1
		c-1.2,0.7-2.3,1.7-3.5,2.5c-1,0.7-2,1.6-3.2,2.1c-2.6,1.2-5.1,0.6-6.9-1.6c-0.9-1.1-1.5-2.5-2.1-3.8c-2.5-5.6-4.2-11.4-5.3-17.4
		c-0.3-1.7-0.5-3.5-1-5.2c-0.3-1-0.9-1.9-1.4-2.9c-2.8,0.5-3.6,2.3-4,4.4c-0.5,3-0.8,6-1.1,9c-0.1,0.8-0.1,1.6-0.2,2.4
		c-0.2,1.5-1.1,2.3-2.4,2.6c-1.2,0.3-2.2-0.3-3-1.2c-0.8-1-1.5-2.1-2.2-3.1c-2.1-3.2-4.2-6.5-6.3-9.6c-1.5-2.3-1.6-2.2-5.1-3.8
		c-0.7,0.7-1.5,1.4-2.1,2.3c-1,1.5-1.8,3-2.7,4.6c-3.5,5.8-7.6,6.2-12.3,1.1c-0.5-0.6-1-1.2-1.6-1.8c-0.4-0.5-0.8-1-1.3-1.4
		c-2.3-2.1-4.5-2.2-6.9-0.2c-0.7,0.6-1.3,1.4-2,2.1c-0.7,0.7-1.3,1.5-2,2.1c-2.4,2.1-4.4,2.3-6.9,0.5c-1.4-1-2.8-2.2-4-3.5
		c-3.8-4.2-8.2-4.9-13.5-3.3c-7.2,2.3-14.4,4.4-21.6,6.3c-2.9,0.8-6,1-9,1.3c-1.1,0.1-2.2,0-3.3-0.1c-2.2-0.4-3.5-1.6-3.7-3.8
		c-0.2-1.2,0-2.5,0.1-3.8c0.1-1.4,0.4-2.9,0.4-4.3c0-3.7-1.5-5-5-4.3c-2,0.4-4.1,0.8-6.1,1.4c-4.1,1.2-8.3,2.3-12.4,3.8
		c-6.2,2.2-12,5.3-17,9.7c-2.6,2.3-5.5,3.8-8.7,5c-2.6,1-4.2,0.5-5.8-1.7c-0.8-1.2-1.5-2.5-2.4-3.6c-1.1-1.4-2.3-1.6-3.8-0.5
		c-1,0.7-2,1.6-2.9,2.5c-6.7,6-13.5,11.8-20,17.9c-3.8,3.6-8,5.8-13.3,5.5c-3.4-0.2-6.2,1.3-8.3,4c-1.4,1.8-2.8,3.5-4.3,5.2
		c-4.2,4.9-9.3,8.1-15.8,9.4c-6.9,1.4-13.8,2.6-20.9,3c-5.9,0.3-10.3,3-13.8,7.5c-1.1,1.4-2,2.9-3.2,4.2c-2.4,2.6-4.9,2.8-7.5,0.3
		c-1.9-1.7-3.6-3.7-5.3-5.6c-2.8-3.2-6-3.9-9.9-2.3c-9.6,4-19.2,8-28.7,12.1c-1.2,0.5-2.3,1.2-3.2,2.1c-2.3,2.1-2.5,4.9-0.4,7.2
		c0.8,1,1.9,1.8,2.8,2.7c2.9,2.9,5.9,5.9,8.8,8.8c2.3,2.2,2.9,4.8,1.9,7.9c-1.4,4.3-2.6,8.6-3.8,12.9c-2,7.2-6.7,12.3-13.1,15.8
		c-2.6,1.5-5.5,2.6-8.4,3.4c-4.6,1.3-8.7,3.1-11.8,6.9c-2.4,2.9-5.7,3.4-9.2,2.2c-3.9-1.3-7.9-2.6-11.7-4.4
		c-6.9-3.3-14-4.2-21.5-3.4c-9.4,1-18.8,0.9-28.2-0.3c-1.9-0.3-3.8-0.5-5.6-1.1c-1.8-0.6-3.6-1.4-5.2-2.5c-1.9-1.2-2.9-3.1-2.1-5.4
		c1.8-4.6,0-7.5-3.6-10.2c-5.2-4-10.2-8.3-15.2-12.5c-4.6-3.8-8.2-8.5-11.8-13.2c-1.6-2-1.9-4-0.3-6.1c0.4-0.5,0.7-1,1-1.6
		c0.8-1.5,0.8-3.1-0.1-4.6C930.5,1215.1,929.4,1212.5,926.7,1210.9z M1124,789.7c1.7-0.1,3,0,4.2-0.3c4.3-1.3,8.5-1,12.8-0.2
		c6.5,1.2,12.6,3.2,18.7,5.8c7.4,3.1,15,5.3,23.2,5.5c9.4,0.2,18.8-0.5,28.1-2c0.9-0.2,1.9-0.3,2.8-0.7c0.5-0.2,1-0.9,1.1-1.4
		c0.3-0.9-0.4-1.5-1.2-1.8c-0.7-0.3-1.5-0.6-2.2-0.8c-9.1-2.9-18.2-5.8-27.4-8.6c-5-1.5-5.1-1.5-8.1,3c-1.7,2.6-3,3.1-6.1,2.3
		c-1.2-0.3-2.4-0.8-3.6-1.2c-2.9-1-5.7-2.1-8.6-3c-9-2.8-18.2-3.1-27.5-1.6c-2,0.3-3.7,1-5,2.5
		C1124.7,787.7,1124.6,788.5,1124,789.7z"/>
</g>
</svg>
