<?xml version="1.0" encoding="utf-8"?>
<!-- Generator: Adobe Illustrator 22.0.0, SVG Export Plug-In . SVG Version: 6.00 Build 0)  -->
<svg version="1.1" id="Layer_1" xmlns="http://www.w3.org/2000/svg" xmlns:xlink="http://www.w3.org/1999/xlink" x="0px" y="0px"
	 viewBox="0 0 2880 1800" enable-background="new 0 0 2880 1800" xml:space="preserve">
<path d="M1619.1,1264c-5,3.5-9.1,7.4-13.9,10.6c-0.6-1.2-1.2-2.2-1.6-3.2c-2.2-5.5-4.4-11-6.6-16.5c-0.8-1.9-1.7-3.8-2.9-5.5
	c-1.8-2.6-4.3-3.2-7.2-1.8c-1.6,0.8-3,1.8-4.3,3c-3.2,2.8-6.9,4.5-11.1,5.8c-0.6-1-1.1-2-1.6-3c-4.7-9.1-9.3-18.2-14-27.3
	c-3.1-3.5-3.7-7.9-4.7-12.3c-1.9-8.4-4.2-16.7-6.4-25.1c-1.7-6.7-3.2-13.4-3.8-20.2c-0.5-6-0.1-11.8,0.9-17.7
	c0.4-2.4,0.5-4.8,0.8-7.1c0.3-3.5,0.5-7,1-10.5c0.9-7.5-0.9-14.3-5.7-20.2c-2.1-2.6-4.5-5-7.2-7c-4.3-3.3-8.9-6.3-13.3-9.4
	c-2.4-1.6-5.1-1.9-7.8-1.4c-5,0.9-10,1.9-15.1,2.9c-6,1.2-11.9,2.6-17.9,3.6c-9.4,1.5-17.7-1.3-24.9-7.5c-1-0.8-1.9-1.8-2.8-2.6
	c-4.8-4.1-10.3-6.3-16.6-6.6c-4.2-0.2-8.3-0.4-12.4-0.8c-6.5-0.7-12.4-3.2-17.1-7.9c-4-4.1-9-5.9-14.5-6.6
	c-4.9-0.7-9.8-1.3-14.7-2.4c-9.8-2.2-18.7-6.4-27.3-11.5c-7.5-4.6-14.5-9.9-21.3-15.5c-6-5-12-10.1-18.1-15
	c-6.5-5.3-13.2-10.2-20.3-14.5c-7.1-4.3-14.6-8-22.6-10.5c-2.4-0.8-4.9-1.4-7.4-1.9c-5-0.9-9.2,0.7-12.2,4.9c-1.6,2.2-2.8,4.6-4.1,7
	c-5.7,11.3-11.2,22.7-17,33.8c-4.5,8.6-9.4,17.1-14.3,25.5c-17.9,30.7-44.1,51.4-77.3,63.6c-2.9,1-5.8,2-8.6,3
	c-11.2,4.2-19.8,11.4-25.6,22c-3.1,5.7-6.7,11.2-10.3,16.7c-5.1,7.8-9.4,16-13.2,24.5c-3.8,8.6-5.9,17.6-5.1,27.1
	c0.3,3.2,0.9,6.3,1.9,9.4c1.9,6,5.7,10.7,11,14.1c2.6,1.6,5.3,2.9,8.1,4.1c3.1,1.4,6,3,8.5,5.2c9.2,8.3,4.7,22.9-5.5,26.2
	c-2.1,0.7-4.3,1.1-6.6,1.3c-2.5,0.2-5.1,0-7.7,0.1c-1.8,0-3.5-0.1-5.3,0.2c-4.7,0.8-7,3.2-7.7,7.9c-0.1,0.8-0.3,1.6-0.2,2.4
	c0.4,6.3-3.4,9.7-8.6,11.9c-2.6,1.1-5.5,1.7-8.3,2.2c-7.7,1.3-15.6,1.9-23.4,1.2c-3.5-0.3-7-1-10.3-2c-7.2-2.2-12.5-6.9-16-13.6
	c-2.7-5.2-4.2-10.7-4.8-16.5c-0.7-6.7-1.3-13.4-1.8-20.1c-0.9-12-1.9-23.9-2.5-35.9c-0.9-17.4-1.6-34.8-0.6-52.3
	c0.3-5.6,1.6-11.1,3.5-16.4c2-5.5,4.4-11,6.6-16.5c4.6-11.1,9.3-22.1,13.9-33.2c0.2-0.4,0.2-0.9,0.4-1.7c-0.9-0.7-1.8-1.5-2.6-2.2
	c-0.6,0.2-1,0.1-1.2,0.3c-2.8,2.8-5.7,5.6-8.5,8.5c-2.2,2.3-4,5-5.4,7.9c-5.1,10.3-10.3,20.6-15.2,31c-9.7,20.8-21.5,40.4-34.4,59.3
	c-2,3-4.5,4.8-8.1,5.4c-2.3,0.4-4.1-0.3-5.3-2.3c-1.2-1.9-2-4-2.1-6.3c-1-12.6-2-25.2-3-37.8c-0.8-10-1.7-20.1-2.4-30.1
	c-0.7-9.6-1.5-19.1-2.1-28.7c-0.9-15.2-1.4-30.4-2.3-45.5c-0.6-9.8,1-19.2,4.5-28.2c3-7.7,6.2-15.4,9.9-22.9
	c6.7-13.5,13.8-26.7,20.6-40.1c4.4-8.7,8.8-17.4,13.1-26.2c7-14.3,11.6-29.4,14.5-45.1c2.3-12.1,4.5-24.2,6.4-36.4
	c1.4-9,2.2-18.1,3.3-27.1c1.5-12.1,2.9-24.1,6.2-35.9c7.3-26.1,22.2-46.9,43.4-63.4c12.5-9.7,26.2-17.1,40.6-23.4
	c17.1-7.5,34.7-13.1,53.2-15.9c12.7-1.9,25.4-2.6,38.3-1.8c10.7,0.7,21.2,2.8,31.8,4.5c9.3,1.4,18.7,2.6,28.1,3.5
	c15,1.5,30,2.5,44.9,4.1c10,1.1,20,2.8,29.9,4.1c12.4,1.6,24.8,3.1,37.1,4.5c10.6,1.2,21.3,2.2,32,3.4c25.3,2.7,50.6,5.5,76.1,5.2
	c22.2-0.3,44-3,65.3-9.6c28.1-8.7,52.3-23.6,71.7-46c5.8-6.7,10.9-13.8,15.6-21.3c9.4-15.2,18.7-30.5,28.2-45.7
	c10.2-16.4,19.6-33.4,28.6-50.5c2.5-4.8,5.1-9.6,7.7-14.4c3.4-6,7.3-11.7,11.9-16.8c8.7-9.7,19.3-16.2,32.2-18.7
	c3.5-0.7,6.7-2,9.6-4c2.5-1.8,5.3-2.9,8.2-3.9c19.8-6.3,40.1-7.9,60.7-5.5c8.3,1,16.4,2.7,24.4,5.1c3.9,1.2,7.4,3,10.1,6.1
	c1.7,2,3.9,3.2,6.3,4.3c5.7,2.6,11,5.8,15.9,9.7c9.1,7.3,15.6,16.4,19.5,27.4c0.5,1.4,0.9,2.7,1.4,4.1c3.7,11.3,11,19.3,21.7,24.3
	c3,1.4,6.2,2.5,9.4,3.7c14.5,5.5,29,10.9,43.5,16.4c3.6,1.4,7.1,3,10.1,5.4c3.7,2.9,6.2,6.6,6.4,11.3c0.1,2.3-0.2,4.8-0.9,7.1
	c-2,6.6-5,12.7-10.3,17.5c-5.8,5.2-11.3,10.9-17,16.3c-5.8,5.5-12,10.6-18.7,15c-9.3,6.2-19.4,10.5-30.4,12.4
	c-1.3,0.2-2.5,0.4-3.8,0.5c-7.8,0.5-15.1,2.7-22.3,5.5c-1.8,0.7-3.5,1.6-5.1,2.6c-3.3,2.1-5.4,5.1-5.4,9.1c0,3.5,0.2,7,0.6,10.5
	c0.4,3.2,1.2,6.3,1.9,9.4c0.2,0.9,0.4,1.9,0.5,2.8c0.3,3-0.9,5.3-3.7,6.6c-0.4,0.2-0.9,0.4-1.3,0.5c-1.4,0.4-2.7,1-3.3,2.5
	c-0.8,1.8-1.4,3.6-1.1,5.6c0.1,0.5,0.2,0.9,0.4,1.4c3.4,8.8,3.1,17.8,1.3,26.9c-0.4,1.9-0.8,3.8-1.3,5.6
	c-4.9,18.6-8.9,37.3-12.2,56.2c-0.2,0.9-0.5,1.9-0.7,2.8c-1,4.1-3.3,7.4-7.4,8.8c-3.3,1.2-4.3,3.6-4.6,6.6c-0.1,1.4,0,2.9,0.1,4.3
	c0.7,12.9-0.1,25.6-3.5,38.1c-2.7,10-6.6,19.4-12.1,28.1c-4,6.2-6.5,12.8-8,19.9c-3.4,15.9-8.8,31-15.8,45.7
	c-9.6,20.2-22.6,37.8-39.8,52.3c-6.6,5.6-13.6,10.6-21.2,14.8c-7,3.8-11,9.6-12.7,17.2c-1.5,6.9-2.6,13.8-3.6,20.8
	c-1.2,8.4-1.2,16.9-1.3,25.4c0,10.9,1.2,21.7,2.5,32.5c0.9,7.9,1.7,15.9,2.4,23.9c1.6,17.7,3.2,35.4,4.8,53
	c0.4,4.3,1.4,8.5,2.8,12.6c3.3,9.7,9.7,16.7,19.3,20c7.2,2.5,12.4,7.1,16.7,13c1.4,2,2.7,3.9,4,6c0.8,1.4,1.5,2.8,2,4.4
	c1.3,4.3,0.4,8.3-2.9,11.5c-1.6,1.5-3.5,2.8-5.5,3.8c-3.9,2.1-7.1,4.7-9.4,8.6c-4.4,7.5-11.2,11.6-19.8,12.8
	c-4.5,0.6-8.9,0.7-13.4,0.3c-8.9-0.8-17.9-0.9-26.8,0.2c-6.4,0.8-12.8,0.8-19.1-0.5c-8.8-1.8-16.1-6.1-21.8-13
	c-4.1-5-7-10.6-9.6-16.5c-1.8-4.3-3.9-8.4-5.8-12.6C1620.4,1266.1,1619.9,1265.4,1619.1,1264z"/>
</svg>
