<?xml version="1.0" encoding="utf-8"?>
<!-- Generator: Adobe Illustrator 22.0.0, SVG Export Plug-In . SVG Version: 6.00 Build 0)  -->
<svg version="1.1" id="Layer_1" xmlns="http://www.w3.org/2000/svg" xmlns:xlink="http://www.w3.org/1999/xlink" x="0px" y="0px"
	 viewBox="0 0 2880 1800" enable-background="new 0 0 2880 1800" xml:space="preserve">
<path d="M1699.6,1329.5c0.7,1.2,1,1.9,1.5,2.5c2.2,3.2,4.5,6.2,6.6,9.5c1.4,2.3,2.8,4.7,3.7,7.2c2,5.8-0.5,11.5-6.2,13.8
	c-2.8,1.1-5.8,1.8-8.8,2.1c-7.6,0.8-15.3,1.2-23,1.8c-2.9,0.2-5.7,0.4-8.6,0.7c-3.9,0.4-7.7,0.1-11.4-0.8c-8-2.1-13.4-7.3-16.1-15.1
	c-1.2-3.6-2.1-7.4-2.8-11.1c-2.6-14.3-5.2-28.6-7.7-43c-0.2-1.1-0.4-2.2-0.7-3.3c-0.5-2-1.6-3.5-3.6-4.1c-2.9-0.8-4.5-2.8-5.4-5.6
	c-1.7-5.3-3.8-10.5-5.2-15.9c-1.3-5.2-3.5-9.9-6.2-14.5c-4.5-7.6-8.8-15.2-13.1-22.9c-4.1-7.5-7.4-15.3-9-23.7
	c-1.4-6.9-2.5-13.9-3.9-20.7c-4.2-19.7-8.6-39.4-12.9-59c-0.2-1.1-0.6-2.1-0.9-3.3c-1.9-0.8-3.8-0.3-5.7-0.1
	c-9.7,1-19.5,1.5-29.2,1.3c-13.1-0.2-26.2-1.3-39.2-3c-10-1.4-20-2.6-30-3.9c-13.5-1.7-26.8-4.3-40.1-7
	c-25.2-5.2-50.4-10.6-75.3-16.9c-27.4-6.9-54.6-14.8-81.8-22.8c-23.2-6.8-46.3-13.7-69.4-20.7c-7.3-2.2-14.6-4.7-21.9-7.1
	c-1.2-0.4-2.4-0.6-3.7-1c-0.6,1-1.2,1.8-1.6,2.7c-7.1,15.1-16.6,28.8-26.5,42.2c-19.6,26.5-41.8,50.5-67.1,71.6
	c-13.3,11.1-27.3,21.2-42,30.3c-1,0.6-1.9,1.2-2.9,1.8c-2,1.3-3.1,3.2-3.4,5.5c-0.1,0.8-0.1,1.6-0.2,2.4
	c-0.7,16.6-1.4,33.2-2.2,49.9c-0.3,5.9-0.7,11.8-1.2,17.7c-0.6,6.7-0.4,13.4,0.4,20.1c0.4,3.7,2,6.2,5.2,8c3.3,1.9,6.4,4.2,9.5,6.5
	c3.1,2.3,5.7,5.2,7.8,8.4c2.1,3.2,2.1,5.4-0.2,8.4c-4.3,5.6-9.9,9.5-16.9,11c-3,0.7-6,0.9-9.1,0.6c-6.4-0.6-12.7-1.2-19.1-1.9
	c-4-0.4-7.9-1.1-11.9-1.5c-3.1-0.3-5-1.8-5.6-4.9c-0.6-2.7-1.2-5.3-1.9-7.9c-0.4-1.5-0.8-3.1-1.3-5.2c-1.1,2.1-1.1,3.8-1.3,5.5
	c-0.7,5.9-1.2,11.8-2,17.6c-0.4,3.2,0.6,5.6,3.2,7.5c2.8,2.1,5.7,4.1,8.4,6.4c2.7,2.3,5.3,4.7,7.6,7.3c4.5,5.4,3.9,11.6-1.4,16.1
	c-4.3,3.6-9.4,6.1-14.6,8.2c-0.6,0.2-1.2,0.4-1.9,0.4c-5.6,0.1-11.2,0.6-16.8,0.1c-6-0.6-12-2.1-17.9-3.4c-1.7-0.4-3.4-1-5-1.7
	c-4.5-1.9-7.9-5-9.3-9.7c-2.1-6.7-4-13.5-5.8-20.3c-0.4-1.5-0.4-3.2-0.4-4.8c0-12.2-0.1-24.3,0-36.5c0.1-6.1,0.7-12.1,0.9-18.2
	c0.5-17.3,1-34.5,1.5-51.8c0.5-17.1,0.1-34.2-1.3-51.3c-0.5-5.5,0.3-10.8,2.2-16c8.4-22.3,16.6-44.6,24.9-67c0.5-1.3,1-2.7,1.5-4.1
	c0.7-1.8,0.8-3.7,0.6-5.7c-1.1-12.7-2.3-25.5-3.2-38.2c-1.4-20-2.2-39.9-1.6-59.9c0.4-11.7,0.9-23.3,1.5-35
	c2.7-49.1,16.7-94.9,40.9-137.6c3.7-6.5,7.4-13.1,11.1-19.6c0.5-0.8,0.9-1.7,1.3-2.4c-4.2-4.6-8.5-8.9-12.5-13.4
	c-14-16.1-24.9-34-31.9-54.3c-2.4-7-4.4-14-5.6-21.3c-1.6-9.6-1.5-19.1,2.6-28.2c0.9-2.1,0.7-4,0-6c-2-5.9-3.5-12-4.4-18.2
	c-2.3-15.2-1.3-30.3,2.5-45.2c1.9-7.5,4.4-14.7,7.6-21.7c1.6-3.6,3.7-7.1,5.8-10.5c2.6-4.1,6.2-7.4,10.5-9.7c2-1.1,3.5-2.6,4.9-4.4
	c8.9-11.5,17.8-23.1,26.8-34.5c7.5-9.4,15.7-18.1,24.8-26c6.5-5.7,13.5-10.8,20.9-15.3c5.6-3.4,11.4-5.7,18-5.7c5,0,9.6-1.7,14.2-4
	c15.2-7.5,30.9-13.9,47.7-17.1c5.6-1.1,11.4-1.8,17.1-2.1c10-0.5,19.4,1.4,27.7,7.4c1.6,1.2,3.4,1.8,5.3,2.1
	c7.6,1.2,15.2,2.3,22.7,3.6c12.6,2.1,25.1,4.8,37.1,9.4c23.8,9.1,42.4,24.7,55.9,46.3c2.2,3.5,4.2,7.2,6.2,10.8
	c2.6,4.7,4.5,9.6,3.7,15.1c-0.2,1.2,0.3,2.2,1.1,3c0.5,0.6,1.1,1.2,1.7,1.7c12.1,12.5,18.6,27.8,21,44.8c2.3,16.1,1,31.9-2.8,47.6
	c-1.2,5-2.9,9.8-6.6,13.6c-2.1,2.1-2.5,4.8-2,7.6c0.4,2.5,1,5,1.2,7.6c1.1,14.9-4.4,26.9-16.8,35.4c-1.8,1.2-4,2.1-6.1,2.7
	c-3.8,1.1-7.4,0.2-10.2-2.6c-1.6-1.5-2.9-3.4-4.1-5.3c-3.3-5.3-5.6-11.2-7.3-17.2c-4.5-15.5-12.1-29.6-21.2-42.8
	c-8.6-12.4-18.8-23.4-30.9-32.6c-4.1-3.1-8.5-5.7-13.2-7.8c-10.6-4.7-21.6-5.7-32.8-2.7c-9.1,2.4-17.4,6.4-24.9,12
	c-9.7,7.3-15.3,17-17.3,28.9c-1.9,11.1-0.9,22,1.5,32.9c3,13.8,7.6,27.1,13.4,39.9c3.9,8.7,8.2,17.3,12.4,26
	c0.6,1.3,1.4,2.5,2.2,3.7c1.8,2.6,4.3,3.9,7.4,3.6c6.2-0.7,12.5-0.1,18.7,0c30.9,0.8,61.7,2.3,92.6,1.2c18.2-0.6,36.4-2.2,54.2-6.6
	c7.1-1.8,14.3-3.7,21.1-6.3c18.6-7.1,37.7-12.1,57-16.7c25.4-6,50.7-12,76-18.2c5.4-1.3,10.8-3.1,16-4.9c7.6-2.7,14.4-6.7,20.9-11.6
	c20.7-15.8,41.5-31.6,62.4-47.1c5.1-3.8,8.4-8.4,10.5-14.4c7.3-21.5,17.3-41.6,30-60.4c11.7-17.3,24.9-33.3,40.8-47
	c13.5-11.6,28.3-20.9,44.9-27.3c3.5-1.3,5.4-3.4,6.9-6.7c7.2-16.1,13.4-32.5,17.3-49.8c1.1-4.7,3.4-8.1,7.8-10.2
	c2.3-1.1,4.5-1.3,7.1-0.8c3.3,4,6.2,8.5,7.7,13.6c2.1,7.4,4,14.8,6,22.2c0.8,3.2,1.5,6.4,2.2,9.5c1.6,0.2,1.9-0.9,2.4-1.7
	c4.3-6.4,8.5-12.8,12.8-19.1c1.2-1.9,2.5-3.7,3.9-5.5c0.8-1,1.7-1.9,2.7-2.7c1.7-1.4,3.4-1,4.4,0.8c0.5,1,1,2,1.2,3.1
	c0.5,2.5,0.9,5,1,7.6c0.1,4,0.1,8-0.1,12c-0.4,5.6-0.6,11.2-0.3,16.8c0.1,3-0.6,6-1,9c-0.2,1.7-0.7,3.4-1.1,5.3
	c1.2,0.7,2.2,1.4,3.3,2c8.5,4.5,17.1,8.7,25.5,13.4c4.8,2.6,9.3,5.6,13.8,8.7c6.6,4.6,12.2,10.2,17,16.7c3.9,5.3,8.1,10.3,12.3,15.4
	c2.8,3.4,6.2,6,10,8.1c13.6,7.7,28.2,12.8,43.6,15.4c7.4,1.3,14.8,2.5,22.2,3.8c2.7,0.5,5.3,1.2,7.9,2.1c6.4,2,10.8,7.4,10.1,14.5
	c-1,11-4,21.4-11,30.2c-1.9,2.3-4.2,4.3-6.6,6.3c-1.7,1.4-2.9,3-3.3,5.1c-2.1,10.4-8.8,16.3-18.6,19.2c-7.4,2.2-14.9,3.5-22.6,4.4
	c-10,1.2-20.1,1.2-30.2,1c-2.4,0-4.8-0.2-7.2-0.1c-2.7,0.1-3.7,1.1-4.1,3.7c-0.1,0.5-0.1,1-0.1,1.4c-1.1,10.2-2.1,20.4-3.3,30.5
	c-1.1,9.4-2.2,18.7-3.4,28.1c-1.4,11.3-2.8,22.5-4.3,33.8c-1.7,12.5-3.5,25-5.4,37.5c-7,44.8-18.8,88.1-37.4,129.6
	c-4.7,10.4-10,20.4-15.6,30.3c-8.8,15.6-20,29.3-33.2,41.4c-4.7,4.3-9.5,8.6-14.2,12.9c-7.1,6.5-13.3,13.9-18.2,22.2
	c-6,10.1-9.7,20.9-10.9,32.5c-2.4,23.9-7,47.4-13,70.7c-3.1,11.9-6,23.9-8.7,35.9c-2.4,10.3-3.4,20.9-2.4,31.5
	c0.7,7.1,2.1,14.2,3.4,21.3c1.7,9.1,3.8,18.1,5.5,27.3c1.9,10.2,2.8,20.6,2.3,31c0,0.2,0,0.3,0,0.5c-0.7,3.5,0.8,5.7,3.9,7.4
	c4.4,2.4,8.3,5.5,11.6,9.2c3.8,4.2,6.8,8.8,8.2,14.4c1.3,5.2-1.3,8.3-4.7,9.8c-1.7,0.8-3.6,1.4-5.5,1.7
	C1712.6,1327.5,1706.5,1328.4,1699.6,1329.5z"/>
</svg>
