<?xml version="1.0" encoding="utf-8"?>
<!-- Generator: Adobe Illustrator 22.0.0, SVG Export Plug-In . SVG Version: 6.00 Build 0)  -->
<svg version="1.1" id="Layer_1" xmlns="http://www.w3.org/2000/svg" xmlns:xlink="http://www.w3.org/1999/xlink" x="0px" y="0px"
	 viewBox="0 0 2880 1800" enable-background="new 0 0 2880 1800" xml:space="preserve">
<path d="M1961.8,548.7c0,5.5,0,10.6,0,16c-2.5,1.8-3.8,4.4-4.9,7.3c-2.4,6.1-5,12.1-7.4,18.2c-3.7,9.7-10.1,17-19.2,21.9
	c-9.7,5.2-20.1,8.3-31,9.6c-5.6,0.7-11.2,0.8-16.8,0.6c-10.6-0.4-20.7,1.7-30.2,6.3c-6.1,3-12.7,4.2-19.3,5.4
	c-2.8,0.5-5.6,1.2-8.3,2.1c-5.6,1.9-8.5,6-8.7,11.9c-0.7,16.5-0.3,32.9,4.1,49.1c1.1,3.9,1.9,7.8,2.9,11.6c0.1,0.5,0.3,0.9,0.4,1.4
	c1,5,0.2,6.8-4.7,8.3c-3.1,1-4.6,3.4-4.6,6.4c0.1,3.7,0.2,7.4,0.1,11c-0.3,7.1-2.2,13.9-4.9,20.4c-1.4,3.4-3,6.7-4.6,10
	c-2.3,4.8-3.1,9.7-2.1,14.9c3.1,17.1,6.1,34.3,10.6,51.2c2.2,8.4,4.1,16.8,5,25.4c1.4,12,1.3,24,0.1,35.9c-0.4,3.8-0.8,7.6-1.5,11.4
	c-0.4,2-0.9,4.2-2.1,5.8c-4.4,5.7-5.8,12.4-6.2,19.3c-0.1,2.1-0.1,4.2-0.1,6.2c-0.1,11,0,22.1-0.2,33.1c-0.1,7.5-0.5,15-0.8,22.5
	c-0.1,1.6-0.3,3.2-0.7,4.7c-1.9,7.9-4,15.8-7.9,23.1c-2.5,4.7-3.7,9.9-4.9,15c-1,4.4-1.9,8.7-3,13.1c-0.3,1.2-0.6,2.5-1.2,3.6
	c-0.9,2-2.8,2.5-4.8,1.2c-0.9-0.6-1.7-1.4-2.6-2.1c-0.7-0.6-1.5-1.1-2.5-1.8c-0.6,1.1-1.1,2.1-1.5,3.1c-2.5,6.2-5,12.5-7.5,18.7
	c-1,2.5-1.9,5.1-3.1,7.5c-1.6,3.2-4.9,4-8,2.2c-0.6-0.3-1.1-0.7-1.6-1c-1.4-0.7-2.8-0.5-4,0.5c-0.6,0.5-1.1,1.1-1.7,1.7
	c-2.6,2.8-5.1,5.8-7.7,8.5c-6.4,6.6-9.8,14.5-9.7,23.8c0,2.7,0.2,5.5,0.6,8.1c1.7,10.4,1.5,20.7,0.2,31.1
	c-0.8,6.3-1.1,12.8-1.1,19.1c0.1,9.3,1,18.5,2.4,27.7c0.8,5.7,3.7,9.3,9.2,11.1c2.4,0.8,4.8,1.7,7.1,2.8c5.9,2.8,10,7.2,12,13.6
	c2.7,8.4,5.2,16.8,6.7,25.5c0.1,0.3,0.2,0.6,0.2,0.9c1,6.5-3.1,11-9.7,10.5c-2.1-0.2-4.1-0.5-6.2-0.9c-4.1-0.7-8.1-0.3-11.7,1.5
	c-4.6,2.3-9,1.9-13.4-0.2c-3.7-1.9-7.5-3.7-10.9-6c-6.3-4.1-10.9-9.8-13.5-17c-0.8-2.3-1.8-4.4-3.7-6.2c-1.6,0.4-2.5,1.9-3.5,3
	c-1.9,1.9-4.1,2.9-6.7,3.3c-4.6,0.7-8.9,0.1-12.9-2.4c-5-3.1-10.2-5.9-15.6-8.5c-5.8-2.8-9.5-7.5-10.5-14
	c-1.1-6.5-3.2-12.7-5.6-18.8c-0.9-2.2-1.7-4.5-2.8-6.6c-4.3-8.6-6.1-17.8-7.2-27.2c-0.8-7.2-2.2-14.2-4.8-21
	c-1.4-3.7-3-7.4-5.3-10.7c-1.2-1.8-2.1-4-2.7-6.1c-1.9-6.8-3.7-13.6-5.5-20.4c-0.4-1.5-0.8-3.1-1.3-4.6c-0.9-2.6-2.5-3.8-5.1-3.4
	c-3.2,0.5-6-0.4-8.9-1.2c-5.2-1.4-10.5-2.7-15.9-3.7c-3.8-0.7-6.9-2.3-9.7-4.9c-3.5-3.3-7-6.6-10.5-9.8c-1.2-1.1-2.4-2.2-3.7-3
	c-2.4-1.5-4.5-1.2-6.6,0.6c-1,0.8-1.8,1.9-2.7,2.7c-2.6,2.5-5.6,3-8.8,1.3c-2.1-1.1-4.2-2.4-6-3.9c-9.6-7.5-20.7-10.5-32.6-11.3
	c-4.8-0.3-9.5-1-14.3-1.8c-5.1-0.9-9.7-3.1-14.1-5.9c-3.5-2.2-7.2-4.1-10.9-6c-3.1-1.7-6.2-2-9.6-0.2c-3.5,1.9-7.4,1.9-11.2,1
	c-2.3-0.6-4.6-1.4-6.9-2.1c-4-1.3-8.1-2.1-12.3-1.7c-8.7,0.7-15.4,5-20.4,12c-1.2,1.7-2.1,3.6-3.2,5.3c-2,3.1-4,6.2-6.3,9
	c-2.4,3.1-5.7,5.2-9.6,5.9c-4.5,0.8-7.4,3.4-9.5,7.4c-1.1,2.1-2.3,4.2-3.7,6.1c-1.7,2.3-3.6,4.5-5.7,6.5c-2,2-4.4,3.1-7.3,3.3
	c-6.1,0.4-11.5,2.8-16.3,6.4c-2.9,2.2-6,3.4-9.6,4c-7.3,1.2-13.6,4.6-19.2,9.3c-2.6,2.1-5.1,4.4-7.4,6.9c-8.5,9.2-19.2,14.3-31.4,16
	c-6,0.8-11,3.1-15.4,7.1c-9.3,8.4-18.6,16.7-27.9,25c-1.3,1.2-2.6,2.4-4,3.4c-2.6,1.9-5.4,2.8-8.6,1.6c-2.8-1.1-5.3-0.6-7.9,0.6
	c-6.2,2.9-12.5,5.8-18.7,8.7c-5.7,2.7-11.5,4.7-17.6,6.1c-12.3,2.9-24.5,6-36.4,10.4c-2.7,1-5.5,1.7-8.3,2.5c-1.7,0.5-3.4,1-5,1.5
	c-5,1.7-5.5,2.2-8.1,7.6c2.3,2.1,4.9,3.8,8.1,4.6c2.3,0.6,4.7,1.1,6.9,1.8c7.1,2.4,11,7.5,11.8,14.8c0.4,3.5,0.3,7,0.1,10.5
	c-0.3,5.1-3.2,7.8-8.2,8.3c-0.8,0.1-1.6,0.1-2.4,0.1c-8-0.1-16-0.1-24-0.5c-9.4-0.4-15.6-5.3-18.1-14.4c-0.8-2.8-1.2-5.6-1.9-8.4
	c-0.5-2.1-1.7-3.4-4.1-3.9c-2.2,2.3-4.4,4.8-6,7.8c-0.9,1.6-0.9,3.1,0.3,4.4c1.4,1.5,2.8,3.1,4.3,4.5c1.9,1.7,4,3.2,6,4.8
	c2.1,1.7,4.2,3.4,6.1,5.4c5.4,5.4,5.7,12.8,2.4,19.6c-1,2.1-2.8,3.5-5.1,4.1c-2.2,0.5-4.4,0.9-6.6,1c-7,0.4-14,1.1-20.9,2.7
	c-0.9,0.2-1.9,0.3-2.8,0.4c-3.9,0.5-7.2-0.6-10-3.6c-3.5-3.7-7.1-7.4-10.6-11.1c-2.4-2.5-4.8-5.1-7.2-7.7c-2.9-3.2-4-6.8-2.9-11.1
	c0.9-3.2,1.7-6.5,2.7-9.7c1.5-5.2,2.4-10.6,2.6-16c0.3-8.7,2.1-17.1,4.2-25.5c2.5-10.1,5.1-20.1,7.5-30.3c2.1-8.9,3-18,3.2-27.1
	c0.1-3.3,0.3-6.7,0.9-10c1.9-10.3,7.5-18.2,16.1-24.1c2.4-1.6,4.9-3,7.5-4.3c13.5-6.8,24.3-16.5,32.1-29.4
	c3.1-5.1,7.1-9.3,12.2-12.7c10.1-6.6,17.8-15.5,23.2-26.3c5.8-11.6,11.1-23.4,15.9-35.4c4.8-11.9,7.7-24.4,10.4-36.9
	c0.3-1.4,0.7-2.8,0.9-4.2c0.3-1.9,1.2-4-0.6-5.4c-1.8-1.5-3.7-0.1-5.3,0.8c-3.8,2.3-7.6,4.8-11.3,7.2c-1.1,0.7-2,1.6-3.1,2.3
	c-0.8,0.6-1.6,1.1-2.4,1.6c-2.2,1.3-4.3,1.2-6.2-0.4c-1.4-1.3-2.9-2.5-4.1-4c-3.5-4.4-7.7-5.3-12.8-3.2c-1.9,0.8-3.9,1.4-6,1.8
	c-4.6,1-8.6,0-11.6-3.8c-1.3-1.6-2.5-3.3-3.8-4.9c-0.9-1.1-1.8-2.3-2.8-3.3c-1.4-1.3-3.1-1.6-4.9-1c-1.1,0.4-2,1-3.1,1.4
	c-5.5,2.2-10.3,1.1-14.4-3.3c-1-1.1-1.8-2.2-2.7-3.4c-5.8-8-11.1-16.4-15.7-25.2c-0.9-1.7-1.8-3.4-2.9-5c-1-1.5-2.5-2-4.2-1.4
	c-1.6,0.6-3.1,1.6-4.8,2.2c-1.9,0.8-3.8,1.7-5.8,2.1c-4.5,0.7-7.8-1.8-8.6-6.3c-0.2-1.1-0.2-2.2-0.1-3.3c0.2-5.1-1.1-9.8-3.2-14.4
	c-1.1-2.5-2.4-4.9-3.7-7.3c-1.5-3-2.9-6-4.4-9c-1.7-3.4-3.3-4.1-7-3.1c-1.5,0.4-3,1.1-4.6,1.5c-3.3,0.8-5.2,0.2-6.9-2.8
	c-1.6-2.9-3-6-4.2-9.1c-2.3-6.5-4.3-13-6.5-19.6c-1-3-2-6.1-3.2-9c-0.7-1.8-1.6-3.5-2.6-5.1c-1.3-2.1-3-3.6-5.5-4.4
	c-6.7-2-10.2-6.8-11.8-13.3c-0.4-1.6-0.7-3.1-1-4.7c-1.4-7.3-5.1-13-11.2-17.3c-1.7-1.2-3.5-2.2-5.2-3.4
	c-6.5-4.3-10.2-10.4-11.5-18.1c-0.9-5.4-1.6-10.8-2.8-16.1c-1.5-7.1-4.4-13.7-8.4-19.7c-3.9-5.9-7.6-11.8-11.6-17.7
	c-1.5-2.2-2.2-4.5-2.1-7.2c0.1-3.2,0-6.4,0-9.5c2.4-1.9,5-1.8,7.5-1.8c3.8,0,7.3,1.1,10.6,2.9c3.9,2.1,7.9,4.3,11.5,6.8
	c21.4,15.2,42.8,30.4,63.6,46.3c6.9,5.2,14.1,10,21.4,14.6c14.1,8.8,29.5,14.4,46,17.2c20,3.4,39.8,8.1,59.5,12.8
	c17.4,4.1,34.8,8.4,52.5,11.5c16,2.9,32,4.2,48.2,2.3c14.1-1.6,27.6-5.5,40.4-11.6c13.4-6.5,27.3-11.7,41.7-15.6
	c8.5-2.3,17.2-3.8,25.8-5.3c17.4-2.8,34.7-5.7,52.1-8.3c7.7-1.1,15.6-2.1,23.4-2.2c27.1-0.3,53.5-4.7,79.2-13.3
	c12-4,23.7-8.6,35.7-12.8c21.3-7.4,42.6-14.8,63.9-22.1c8.3-2.9,16.6-5.9,24.6-9.5c17.5-8,33.1-18.7,46.4-32.7
	c8.1-8.6,14.5-18.2,19.7-28.8c13.1-26.4,26.2-52.7,39.3-79c2.4-4.9,5.1-9.6,7.7-14.4c3.2-5.9,6.2-11.9,8.5-18.2
	c1.6-4.2,3.7-8.2,6.5-11.7c5.7-7.2,13-11.1,22.1-12c8.4-0.9,16.9-1.1,25.4-1.2c10.4,0,20.8,0,31.2-0.1c2.6,0,5,0.5,7.4,1.6
	c10.2,4.6,20.2,9.6,29.6,15.8c3.7,2.4,7.7,4.5,11.8,6.5c5.8,2.8,12,4.5,18.5,4.6c10.1,0.2,20.1,0.3,30.2,0.5c4,0.1,8-0.1,12,0.3
	C1951.6,543.4,1956.9,545,1961.8,548.7z"/>
</svg>
