<?xml version="1.0" encoding="utf-8"?>
<!-- Generator: Adobe Illustrator 22.0.0, SVG Export Plug-In . SVG Version: 6.00 Build 0)  -->
<svg version="1.1" id="Layer_1" xmlns="http://www.w3.org/2000/svg" xmlns:xlink="http://www.w3.org/1999/xlink" x="0px" y="0px"
	 viewBox="0 0 2880 1800" enable-background="new 0 0 2880 1800" xml:space="preserve">
<path d="M1704.3,1298.8c0,1.7,0.1,2.6,0,3.5c-0.1,1.6-0.2,3.2-0.5,4.8c-1.5,7.7-7,13.1-14.8,13.3c-6.5,0.1-11.7,2.1-16.6,6.3
	c-4,3.4-9.1,4.7-14.4,3.8c-6.3-1-12.6-2.2-18.9-3.2c-1.8-0.3-3.4-1-4.5-2.5c-2.4-3-5.5-4.2-9.2-4.2c-5.7,0-10.1-2.5-13.4-7.2
	c-1.8-2.6-3.6-5.3-4.7-8.3c-3.1-8.7-6.3-17.4-9.3-26.2c-1-3-2.4-5.4-5.2-7.1c-2.1-1.3-3.9-3.3-5.5-5.2c-4.2-4.7-7.2-10.2-9.6-16
	c-4-9.7-6.7-19.7-8.4-30c-3.4-20.2-5.4-40.6-5-61.1c0.3-18.2,1.1-36.5,1.7-54.7c0.2-6.9,0.6-13.8,1.2-20.6c1-11.1,2.1-22.3,3.6-33.4
	c2-14.6,4.4-29.1,6.7-43.6c0.1-0.9,0.1-1.9,0.2-2.6c-1-1.2-1.9-0.7-2.8-0.5c-4.2,0.9-8.4,2-12.7,2.6c-9.5,1.3-18.8,0.4-28.1-1.7
	c-14.8-3.4-29.6-6.6-44.4-10.4c-21.1-5.3-41.5-13-61.7-21c-14.6-5.8-29.2-11.4-43.8-17c-11.7-4.5-23.8-7.3-36.2-9
	c-6.5-0.9-13.1-0.7-19.6-0.1c-4.3,0.4-8.6,1.2-12.8,1.7c-3.5,0.4-6,2.1-7.3,5.4c-0.2,0.4-0.4,0.9-0.6,1.3
	c-11.2,24.2-25.7,46.4-41.9,67.6c-9.6,12.6-19.6,24.9-29.6,37.2c-3.6,4.5-7.6,8.7-11.6,12.8c-10.2,10.4-20.4,20.8-30.7,31.1
	c-10.7,10.7-22.4,20.1-35.5,27.6c-3.3,1.9-6.7,3.7-10.2,5.3c-9.9,4.7-16.5,12.4-20.3,22.6c-1.7,4.7-2.8,9.5-3.1,14.5
	c-0.5,8.7-0.1,17.3,1.2,25.8c0.6,4,1,7.9,1.5,11.9c0.3,1.9,0.5,3.8,1.1,5.6c1.2,3.7,3.6,6.4,7.2,7.8c1.9,0.8,3.9,1.3,6,1.7
	c7.6,1.5,13,5.7,16.1,12.9c1.8,4.3,3.6,8.5,5.6,12.7c1.7,3.7,1.4,7.1-0.6,10.5c-1.2,2.1-2.4,4.2-3.8,6.1c-2.5,3.4-6,5-10.1,4.3
	c-4.4-0.7-8.5,0.1-12.7,1.4c-4.7,1.5-9.5,2.7-14.5,3.1c-5.1,0.4-9.9-0.4-14.5-2.4c-6.8-2.9-13.1-6.6-18.8-11.3
	c-6.1-5-10.3-11.3-12.7-18.8c-3.4-10.5-5.5-21.3-6.7-32.3c-2.5-22.2-2.4-44.4-1.6-66.6c0.1-2.9,0.1-5.8,0.1-8.6
	c0-0.7-0.2-1.5-0.4-2.4c-1.8,0.4-2.6,1.7-3.6,2.6c-9.6,10-19.3,20.1-28.9,30.1c-5.6,5.9-11.2,11.9-17,17.6
	c-16.7,16.4-29.1,35.6-37.7,57.3c-3,7.6-5.8,15.2-8.7,22.9c-0.1,0.3-0.2,0.6-0.3,0.9c-2.9,8.2,1.1,12.8,6.7,15.2
	c2,0.9,4.3,1.4,6.5,1.5c5.5,0.3,9.8,2.6,13.2,6.8c4.5,5.5,7.6,11.8,10.4,18.3c0.5,1.3,0.6,2.5-0.1,3.7c-1.5,2.5-2.9,5-4.5,7.3
	c-2.4,3.3-5.8,5.1-10,4.5c-3.8-0.5-7.3,0.3-10.9,1.1c-2.5,0.6-5,1.2-7.5,1.8c-6.1,1.5-12.1,1-18-0.9c-6.6-2.1-12.8-5-18.5-9
	c-8.1-5.7-12.5-13.5-13-23.4c-0.2-3.7,0-7.4-2.1-10.7c-0.4-0.6-0.3-1.6-0.3-2.3c0-2.1,0-4.2,0-6.2c0-2.3,0-4.4,1.4-6.4
	c0.6-0.9,0.7-2.1,1-3.2c1.8-7.1,3.6-14.3,5.3-21.4c3.8-16.3,10-31.7,18-46.4c14.5-26.9,30-53.2,47.2-78.5
	c8.8-12.9,16.1-26.5,22.8-40.5c16.3-34.2,32.7-68.4,49.3-102.4c4.3-8.9,9.4-17.4,14.3-26.1c4.8-8.5,9.8-16.9,14.5-25.4
	c4-7.2,6.4-15,8.1-23c0.9-4.1,1.8-8.1,3.1-12c6.2-18.2,13.9-35.8,22.8-52.8c9.3-17.9,22-33,38.3-44.9c6.3-4.6,9.3-10.5,9.7-18.3
	c0.6-11.4,0.7-22.7,0.7-34.1c0-12.2,1.4-24.2,4.9-36c1.7-5.7,4-11.1,7.3-16.1c25.3-38.4,51.9-75.7,79.4-112.5
	c5.3-7,10.4-14.2,15.9-21.1c4.5-5.6,9.4-10.9,14.3-16.2c1.3-1.4,2.8-2.7,4.4-3.7c4.3-2.8,9.4-2.5,13.5,0.5c1.8,1.3,2.9,3,2.6,5.3
	c-0.4,3.5-0.8,7-1.5,10.4c-2.3,10.4-6.6,20-12.3,29c-2.7,4.3-5.7,8.5-8.7,12.7c-11.5,16-23.1,31.9-34.6,47.9
	c-5.9,8.2-11.6,16.5-16.6,25.2c-5.2,9.2-9.6,18.8-12.1,29.2c-2.4,10-3.4,20.2-3.7,30.4c0,0.5,0,1,0,1.4c0.3,4.9,2.5,7.8,7.3,8.9
	c3.7,0.9,7.5,1.5,11.3,2c9,1.2,18.1,2.4,27.1,3.3c5.4,0.6,10.9,0.7,16.3,1c16.3,1,32.6,2,48.9,1.7c19.7-0.4,39.4-0.5,59-1.2
	c12.1-0.4,24.3-1.4,36.4-2.6c11.6-1.1,23.2-2.6,34.8-4.1c18.6-2.5,36.8-6.5,54.7-12.3c9.8-3.2,19-7.6,27.5-13.3
	c13.2-8.9,25.6-18.6,37.8-28.7c10-8.3,19.8-16.8,29.7-25.1c9-7.6,16.5-16.5,22.2-26.8c1.6-2.9,3.4-5.8,5-8.8
	c11.8-21.7,25.4-42.2,39.1-62.6c2.2-3.3,4.8-6.4,7.3-9.5c2.4-3,4.9-5.9,7.3-8.9c5.9-7.5,12.4-14.2,20.5-19.3
	c3.4-2.2,5.6-5.2,6.3-9.2c0.6-3.1,1.3-6.3,2-9.4c0.3-1.6,0.6-3.1,1.2-4.6c0.9-2.6,2.6-4.8,5.1-6.1c6.2-3.3,12.4-6.6,18.6-9.9
	c8.2-4.3,17-6.4,26.2-7.2c4.5-0.4,8.9-0.5,13.4-0.8c5.3-0.4,9.3,1.5,12,6.3c1,1.8,2.2,3.5,3.6,5.1c2.1,2.5,4.9,3.5,8.1,3.4
	c2.4-0.1,4.3-0.9,5.3-3.3c0.5-1.2,1.2-2.3,2-3.2c3.5-4.2,8.8-5.6,14.4-3.5c6.9,2.5,13,6.2,18,11.6c3.7,3.9,6.2,8.5,7.4,13.8
	c0.5,2.3,1.1,4.7,1.8,7c1.6,5,4.4,9.2,8.4,12.6c5.2,4.4,10.9,7.9,17.6,9.5c3.8,0.9,7.2,2.6,10.4,4.8c6.1,4.2,8.4,11.1,6.1,18.2
	c-0.8,2.4-1.7,4.7-3.4,6.9c-1.6-1.9-1.4-4.2-2.2-6c-0.8-1.9-1.5-3.9-3.3-5.1c-2.8,2.9-4,5.3-3.8,9.3c0.1,3.5,0.6,7,1.4,10.4
	c3,13.7,9.1,25.9,17.7,36.9c3.7,4.6,7.7,9,11.7,13.3c3.8,4.1,7.8,8,11.6,12.1c5.4,5.8,10.1,12,13.7,19c2.6,5,4.5,10.2,5.6,15.8
	c0.6,2.8,0,5-2.2,6.9c-1.9,1.7-3.6,3.6-5.4,5.4c-2.5,2.5-4.1,5.4-4.1,8.9c0,2.7-1.4,4.5-3.6,5.7c-5.8,3.3-11.7,6.7-17.5,10
	c-0.8,0.5-1.7,0.9-2.5,1.4c-2.4,1.4-3.5,3.4-3.5,6.3c0.1,11.2,1.9,22,7.2,32c0.9,1.6,2,3.2,2.3,5.2c-3.1-0.4-3.7-0.6-5.9-2.7
	c-1.5-1.4-2.8-2.9-4.6-4.8c-1.1,3.6-1,7.2-4,9.7c-1.3-1-1.7-2.3-1.6-3.7c0.2-3.7-1.8-6.3-4.3-8.7c-0.4-0.4-1.1-0.6-1.7-1
	c-2.1,1.3-2.8,3.2-2.8,5.3c0,1.4,0.2,2.9,0.5,4.3c0.3,1.6,0.9,3.1,0.2,4.7c-2.8,0.5-3.8-2.6-6-3.2c-0.7,1.1,0.1,1.9,0.5,2.7
	c1.9,3.7,3.8,7.4,5.7,11.1c1.8,3.5,2.7,7.2,3.1,11c0.1,1.3,0,2.5-1.4,3.2c-5.7-8.9-7.5-10.7-13.7-13.8c-0.9,0.9-0.4,2-0.3,3
	c0.7,4.4,1.6,8.8,2.3,13.2c1,6.9,0.4,13.7-1.6,20.4c-0.7,2.2-1.5,4.3-3.2,5.8c-0.6,0.5-1.3,0.8-2.3,1.5c0-1.4-0.2-2.3,0-3.1
	c1.2-3.3,0.9-6.6,0.2-9.9c-3.2-15.5-8.8-30.1-16.2-44c-6.4-12-13-23.9-19.7-35.7c-3.7-6.7-7.7-13.3-11.4-20
	c-5-9-12.1-15.6-21.4-19.9c-3.9-1.8-7.8-3.8-11.6-5.8c-5.2-2.8-10.1-6.1-14.5-10.1c-0.9-0.8-2-1.5-2.9-2.1c-2,0.7-2.1,2.3-2.3,3.6
	c-0.3,2.2-0.5,4.4-0.8,6.7c-2.6,20.5-8,40.4-13.3,60.4c-3.4,12.7-7.1,25.3-9.6,38.1c-2.5,12.9-3.9,25.9-2.6,39.1
	c0.4,4,1.1,7.9,2.4,11.7c0.7,2,1.3,4,1.8,6c1.3,4.9,1.2,9.8-0.1,14.7c-4.7,17.6-9.1,35.3-15.6,52.4c-3.1,8.1-5.5,16.4-8.6,24.4
	c-3.3,8.5-7.3,16.7-10.9,25.1c-3.2,7.4-7.9,13.9-13.1,20c-1.7,1.9-3.3,3.9-5,5.8c-1.3,1.5-2.1,3.2-2.3,5.2
	c-1.3,10.5-2.8,20.9-4,31.4c-1.6,13.7-3,27.3-4.5,41c-1.1,10-2.1,20-3.2,30.1c-0.4,3.7-0.7,7.3-1.1,11c-1,8.5-0.8,16.9-0.5,25.4
	c0.7,22.4,1.4,44.8,2,67.2c0.4,14.9,0.3,29.8,0.6,44.6c0.1,6.4,0.5,12.8,0.9,19.2c0.1,1.9,0.5,3.8,1,5.7c1.2,5.3,4.5,8.8,9.6,10.5
	c2,0.7,4,1.2,6,1.7c10.7,2.5,19.1,8.6,25.7,17.3c2.4,3.2,2.7,6.2,1.5,9.9c-1.3,3.9-3.4,6.9-7.5,8.1c-1.2,0.4-2.4,1-3.6,1.3
	c-3,0.8-5.6,2.3-8,4.2c-4.4,3.5-9.3,4.7-14.8,2.9C1710.6,1299.8,1707.7,1299.5,1704.3,1298.8z"/>
</svg>
