<?xml version="1.0" encoding="utf-8"?>
<!-- Generator: Adobe Illustrator 22.0.0, SVG Export Plug-In . SVG Version: 6.00 Build 0)  -->
<svg version="1.1" id="Layer_1" xmlns="http://www.w3.org/2000/svg" xmlns:xlink="http://www.w3.org/1999/xlink" x="0px" y="0px"
	 viewBox="0 0 2880 1800" enable-background="new 0 0 2880 1800" xml:space="preserve">
<path d="M1120.7,1227.5c-1.7,1.7-2.8,2.8-3.9,3.9c-6,6.2-12,12.5-18,18.6c-6.8,6.9-14.9,11.6-24.3,13.7c-16.9,3.7-32.4,0.4-46.4-9.8
	c-6.1-4.4-11.8-9.3-17.7-14c-1.1-0.9-2.2-1.9-3.4-2.6c-2.7-1.7-4.8-1.2-6.6,1.4c-0.3,0.4-0.5,0.8-0.7,1.2c-0.2,0.4-0.5,0.8-0.7,1.3
	c-11.4,21.3-9.9,17.6-15.3,44.1c-2.7,13.2-4.6,26.5-5.5,39.9c-0.9,13.6-1.1,27.2,0.5,40.7c0.2,1.9,0.6,3.8,1.1,5.6
	c1.7,6.1,5.3,10.5,11.1,13.1c4.7,2.1,9.1,4.7,13.4,7.5c0.8,0.5,1.6,1,2.4,1.6c13.9,9.8,6.8,27.1-2.9,31.8c-2.2,1.1-4.5,1.6-6.9,1.6
	c-5.3,0.2-10.5-0.3-15.8-1.1c-7.4-1.1-14.9-2-22.2-3.9c-1.7-0.5-3.4-1-5-1.6c-3.4-1.3-5.9-3.6-7.6-6.9c-3.2-6.3-5.9-12.8-8.1-19.5
	c-1.3-4.2-1.5-8.5-1.1-12.8c0.5-6.1,1.1-12.1,1.5-18.2c1.1-17.3,0.7-34.5,0.5-51.8c-0.2-20.8-0.5-41.6-0.4-62.4
	c0.1-17.4,1.3-34.8,3.8-52.1c0.6-4.1,1.6-8.2,2.9-12.1c3.4-10.2,10.2-17.2,20.3-20.9c7.3-2.6,14.1-6.1,20.6-10.2
	c4.5-2.9,8.6-6.1,12.3-9.9c4.9-4.9,9-10.5,11.7-16.8c6.6-15.5,14.4-30.3,22-45.3c6.1-12,10.9-24.5,13.6-37.8
	c2.9-14,4.1-28.2,3.5-42.5c-0.8-23.2-1.8-46.4-2.8-69.5c-0.7-16.5-1.6-32.9-2.5-49.4c-0.2-3.4-0.6-6.7-0.8-10
	c-0.4-5.7-0.9-11.5,0.4-17.2c0.6-2.5,1.3-5,2.3-7.3c4.4-9.9,8.8-19.9,13.5-29.7c28.5-59.7,74.3-99.9,137-120.9
	c13.8-4.6,28-7.9,42.1-11.5c29.3-7.3,58.9-13.6,88.6-18.9c19.7-3.5,39.4-6.6,59.3-9.1c21.9-2.8,43.9-4.5,65.9-5.8
	c20.1-1.1,40.2-2.4,60.3-3.9c16.6-1.3,33.1-2.9,49.7-4.7c18.1-2,36.1-4.7,54-8.4c7.8-1.6,15.5-4,22.9-7.1
	c28.4-11.9,47.4-32.5,57.4-61.5c3.4-9.7,5.4-19.7,6.8-29.9c1.7-12,3.1-24.1,4.8-36.1c2-13.3,4.6-26.5,9.2-39.1
	c2.1-5.7,4.4-11.3,7.5-16.6c1.9-3.3,2.9-6.7,2.7-10.7c-2.8-0.9-5.6-0.3-8.3,0.5c-1.5,0.4-3,1.1-4.6,1.4c-7.6,1.8-13.1-0.7-16.6-7.8
	c-2.6-5.2-3.5-10.5-1.7-16.2c2.1-6.7,3.9-13.5,5.9-20.2c1-3.2,2.3-6.3,3.5-9.4c5.1-12.7,14.9-19.7,27.8-22.6
	c5.2-1.2,10.5-1.4,15.7-0.3c8.4,1.9,16.9,1.1,25.3-0.1c12-1.7,24-3.5,36.1-5c11.5-1.4,23-1.8,34.4,0.4c12,2.3,22.3,7.6,31,16.2
	c2.5,2.5,5.2,4.8,7.9,7c4.9,4.1,8.6,9.1,9.8,15.5c0.3,1.7,0.5,3.5,0.5,5.2c0.3,8.3,3.9,14.7,10.7,19.4c1.4,1,3,1.9,4.5,2.8
	c10.8,6,20.8,13.2,30.5,20.8c4.7,3.7,7.1,8.5,7,14.6c-0.4,14.6-4.8,27.6-15.5,38.1c-8.1,8-17.9,12.2-29.1,13.2
	c-7.2,0.6-14.4,0.3-21.6-0.5c-2.2-0.3-4.5-0.4-6.7-0.5c-6-0.2-11,2-14.9,6.4c-2.3,2.6-4.3,5.5-6.2,8.5c-2.7,4.4-4.5,9.2-5.5,14.3
	c-3.1,15.4-5.2,30.9-4.8,46.7c0.2,8.3,0.3,16.6,0.5,24.9c0.3,12.2-1,24.3-2.2,36.4c-0.8,8.3-1.6,16.6-2.5,24.8
	c-0.2,2.1-0.5,4.1-0.8,6.2c-0.6,4.1-1,8.2-0.1,12.4c1.2,5.6,0.6,11.2-0.8,16.6c-1.3,5.3-3,10.4-4.7,15.6c-1.9,5.8-3.7,11.6-4.7,17.6
	c-0.6,4-0.8,8-0.4,12c1,11.9,2.4,23.9,3.2,35.8c1,14.5,1.5,29.1,1,43.6c-0.4,12.2-1.1,24.3-2.5,36.4c-1.4,11.3-3.1,22.5-5.7,33.6
	c-3.1,13.6-6.1,27.1-10.6,40.3c-3.3,9.9-7.7,19.3-13.4,28.1c-7.7,11.9-12.4,24.9-14.4,38.8c-1.4,9.2-2.1,18.4-2.8,27.7
	c-1.3,15.3-2.4,30.6-3.6,45.9c-0.8,10.2-1.5,20.4-2.3,30.6c-0.8,11.5-1.7,23-2.5,34.5c-0.8,10.7-1.5,21.4-2.2,32.1
	c-0.9,13.6-1.8,27.1-2.6,40.7c-0.4,6.2-0.7,12.5-1,18.7c-0.9,18.9-1.7,37.7-1.1,56.6c0.4,13.9,1.1,27.8,2.9,41.6
	c1.6,12.7,4.6,25.2,8,37.5c0.6,2,1,4,1.7,6c0.9,2.4,1.8,4.8,3,7c2.3,4,5.8,6.4,10.5,6.5c3.5,0,7-0.3,10.5-0.6c2.1-0.2,4.1-0.6,6.2-1
	c3.8-0.7,7.3,0.2,10.6,2.1c8.9,5,13.8,16.5,11,26.4c-0.6,2.1-1.5,4.2-2.5,6.2c-5.5,10.2-15.6,14.5-26.8,11.6c-1.1-0.3-2.1-0.6-3.2-1
	c-4.5-1.5-9-1.9-13.7-1.6c-2.4,0.2-4.8,0.3-7.2,0.2c-5.1-0.1-9.3-2.4-12.4-6.3c-1.7-2.1-3.1-4.5-4.5-6.8
	c-3.1-5.3-6.7-10.2-11.7-13.8c-8-5.8-11.7-13.8-12.1-23.4c-0.5-11.8-1.3-23.7-1.3-35.5c0-11.5-3.2-21.8-9.9-31
	c-3.8-5.2-5.5-10.8-5.4-17c0.1-4.1,0.4-8.3,0.8-12.4c0.5-5.3,1-10.5,0.8-15.8c-0.5-12.6-0.8-25.3-1.2-37.9c-0.5-15.7-1-31.3-1.3-47
	c-0.7-31.7-1.3-63.3-2-95c-0.1-4.3-0.2-8.6-0.5-12.9c-0.3-3.2-0.9-6.3-1.5-9.5c-1-5.4-3.8-9.7-8.3-13c-0.3-0.2-0.5-0.3-0.8-0.5
	c-0.1-0.1-0.3,0-0.7,0c-1.6,2.7-1.9,5.9-2.1,9c-0.5,6.9-0.8,13.7-1.3,20.6c-0.8,13.1-1.7,26.2-2.5,39.3c-0.4,5.9-0.8,11.8-1.1,17.7
	c-1.3,21.1-2.6,42.1-3.7,63.2c-0.6,10.4-0.8,20.8-1.1,31.2c-0.4,11.7-0.7,23.3-1.2,35c-0.2,4.8-0.7,9.6-1.1,14.4
	c-1.3,14.2-1.8,28.4-1.6,42.7c0.3,19.4,2.2,38.6,5.9,57.7c0.4,2,0.9,4,1.5,6c2.6,8.7,7.8,15.3,15.6,19.9c2.3,1.4,4.8,2.6,7.2,3.9
	c3.4,1.8,6.8,3.5,10.2,5.4c1.7,0.9,3.3,2,4.8,3.2c4.2,3.5,6.4,7.9,4.9,13.6c-1.5,5.6-4.8,9.3-10.6,10.5c-1.9,0.4-3.8,0.6-5.7,0.6
	c-13,0.2-25.9,0.3-38.9,0.4c-2.1,0-4.2,0-6.2-0.2c-4.7-0.5-8.5-2.7-11-6.8c-1.3-2.2-2.5-4.5-3.3-6.9c-3.4-9.5-6.8-19-10.1-28.5
	c-4-11.5-4.7-23.1-1.4-34.9c0.4-1.4,0.6-2.8,0.8-4.2c0.9-7.3-1.7-13.1-7.6-17.6c-1.7-1.3-3.3-2.5-4.9-3.9c-6.4-5.8-9.7-13-9.9-21.6
	c-0.1-4.8,0.6-9.6,1.6-14.3c2.9-13.3,5.9-26.5,8.5-39.9c2.3-11.5,3.6-23.1,3.3-34.8c-0.1-4.9-0.4-9.9-1-14.8
	c-1.8-14.8-2.2-29.7-2.8-44.5c-0.6-14.7-1.6-29.4-2.4-44.1c-0.3-6.1-0.7-12.1-1.1-18.2c-1-14.7-1.8-29.4-3.1-44
	c-0.6-6.5-2.2-12.9-3.3-19.4c-1.1-6.5-2.3-12.9-3.3-19.4c-1.3-8.3-0.5-16.6,1.1-24.8c0.7-3.6,1.2-7.3,1.8-10.9
	c0.1-0.8,0.2-1.6,0.2-2.4c0.1-5.5-1.7-7.5-7.3-7.8c-1.9-0.1-3.8-0.1-5.8-0.1c-11.5,0-23,0-34.6,0.1c-19.9,0.2-39.1-3.7-57.8-10.1
	c-14.9-5.1-29-11.9-42.4-20c-6.3-3.8-12.6-7.7-18.7-11.7c-16.1-10.5-32-21.2-48.1-31.6c-7.5-4.9-15.2-9.5-23-13.9
	c-9.8-5.6-20.5-8.7-31.6-10.7c-10.6-1.9-21.3-2.6-31.9-3.7c-4.8-0.5-9.5-1.1-14.3-1.5c-1.9-0.1-3.8,0-5.7,0.3
	c-2.5,0.5-3.9,2.3-3.9,4.8c0,1.9,0.3,3.8,0.7,5.7c0.3,1.4,0.9,2.7,1.2,4.1c1.2,5.1,0,9.5-4,13c-1,0.8-2,1.6-3,2.4
	c-5.8,4.9-8.1,11.3-7.6,18.8c1,14.5,2.2,29,2.9,43.6c0.7,15.3-0.7,30.3-4.9,45.1c-4,14.4-10.6,27.4-20.1,39
	c-7.1,8.7-13.6,17.8-20,26.9c-11.3,16.1-22.6,32.2-34.2,48.1c-6,8.3-12.4,16.3-18.8,24.3c-9.3,11.5-17.6,23.6-23.8,37.1
	c-7.4,16.3-11.1,33.3-10.9,51.2c0.1,7,1.1,14,2.1,21c1.6,11.4,4.6,22.5,8.1,33.5c2,6.2,3.6,12.6,5.5,18.9c0.6,2.1,1.3,4.3,2.3,6.3
	c3.7,7.4,9.8,11.2,18,11.4c3.2,0.1,6.4,0,9.6-0.2c3.9-0.2,7.2,1.1,10.3,3.3c4.9,3.6,8.5,8.2,10.4,14c2,6,0.4,11.5-4.4,15.5
	c-3.4,2.9-7.4,4.5-11.8,4.7c-7.7,0.4-15.3,0.6-23,0.8c-7.2,0.1-13.5-2.2-18.7-7.3c-5.1-5.1-10.3-10-15.5-15.1
	c-4.1-4-6.8-8.8-8.4-14.3c-2.7-9.4-5.4-18.7-8-28.1c-4.8-17.4-9.6-34.8-14.4-52.2c-2.2-7.7-3.4-15.6-3.5-23.6
	C1121.6,1233,1121.6,1230.6,1120.7,1227.5z M1116.8,1112.2c-4,0.6-6.6,2.7-9.2,5.2c-26.6,26.6-53.2,53.1-79.9,79.6
	c-0.8,0.8-1.6,1.6-2.3,2.4c-3.4,4.1-3.6,7.6,0,11.6c3.7,4.2,7.8,8.1,11.7,12c1.6,1.6,3.4,2.9,5.2,4.3c5.7,4.4,12.1,7.1,19.2,8.2
	c1.3,0.2,2.5,0.1,3.7-0.3c4.3-1.4,8.4-3.1,12.3-5.3c16.7-9.5,28.1-23.4,34.6-41.4c4.4-12.3,6.1-25.1,6.5-38.1
	c0.3-10.2,0.2-20.5,0.2-30.7C1119,1117.1,1118.4,1114.7,1116.8,1112.2z M1154,1111c0.6-0.8,1-1.2,1.1-1.6c2.8-8.5,5.5-17,8.2-25.4
	c1.8-5.7,1.9-11.6,1.9-17.5c0-0.6-0.1-1.3-0.2-1.9c-0.3-1.3-1.7-2.2-2.9-1.6c-1.3,0.6-2.7,1.3-3.5,2.4c-1.3,1.7-2.5,3.7-3.3,5.8
	c-3.5,9-4.9,18.5-4.4,28.1C1151.1,1103.1,1151.5,1107.1,1154,1111z"/>
</svg>
