<?xml version="1.0" encoding="utf-8"?>
<!-- Generator: Adobe Illustrator 22.0.0, SVG Export Plug-In . SVG Version: 6.00 Build 0)  -->
<svg version="1.1" id="Layer_1" xmlns="http://www.w3.org/2000/svg" xmlns:xlink="http://www.w3.org/1999/xlink" x="0px" y="0px"
	 viewBox="0 0 2880 1800" enable-background="new 0 0 2880 1800" xml:space="preserve">
<path d="M1563.4,1063.3c-2.5-0.4-4.5-0.7-6.5-0.9c-17.6-2-35.3-3.8-52.9-6.1c-23.5-3-46.7-7.9-69.6-13.7
	c-33.2-8.4-65.8-18.9-98.2-29.7c-29.9-10-59.8-19.9-89.7-29.8c-6.8-2.3-13.8-3.9-21-4.9c-6.2-0.8-12.4-1-18.7,0
	c-10.6,1.6-19.6,6.5-27.5,13.7c-4.6,4.2-8.7,9-12.4,14c-1.7,2.3-3.4,4.7-4.9,7.1c-8.2,12.9-18,24.5-28.7,35.3
	c-13.5,13.7-27.8,26.4-42.4,39c-22.4,19.4-44.9,38.6-67.4,57.9c-1.7,1.5-3.3,3-5.1,4.4c-2.9,2.3-4.4,5.4-5.2,8.9
	c-1.2,4.8-0.9,9.5,0.3,14.2c0.6,2.2,1.3,4.3,1.9,6.4c0.9,3.6,1.8,7.1,2.6,10.7c1.1,5.2,2.4,10.3,4.6,15.1
	c5.3,11.6,14.5,17.5,27,18.5c1.6,0.1,3.2,0.1,4.8,0.2c6.9,0.4,12.7,3,17.2,8.2c4.4,5.1,7.8,10.9,11.5,16.8c-0.9,0.6-1.6,1.1-2.4,1.5
	c-1.3,0.7-2.6,1.3-3.8,2c-6.1,3.3-12.6,5.5-19.4,6.8c-9.3,1.9-18.5,3.8-28,4.2c-5.1,0.2-10.2-0.1-15.2-1.3
	c-10.6-2.6-18.2-8.9-22.7-18.9c-1.6-3.7-2.7-7.5-3.4-11.5c-1.3-7.4-3.7-14.5-6.1-21.6c-1.2,0-1.4,0.9-1.6,1.6
	c-1.6,4.9-2.4,9.9-2.7,15.1c-0.7,11.4,0.6,22.7,3.3,33.8c1.5,6.2,3.5,12.3,6.1,18.2c2.4,5.3,5.4,10.1,9,14.7
	c3.3,4.3,6.5,8.8,9.2,13.4c4.7,7.8,9,15.9,13.4,23.8c0.2,0.4,0.3,0.9,0.3,1.2c-0.2,0.4-0.3,0.8-0.5,0.9c-7.3,4.7-15.2,8.2-23.8,9.8
	c-9.2,1.8-18.1,0.6-26.9-2.6c-2.1-0.8-4.2-1.6-6.3-2.4c-3-1.1-6.1-1.7-9.4-1.1c-2.3,0.4-4.8,0.4-7.2,0.3
	c-6.9-0.4-11.7-3.9-14.1-10.5c-1.5-4.3-2.1-8.7-2.1-13.2c0-7,0.1-14.1,0.3-21.1c0.5-13.6,1.1-27.2,1.6-40.8
	c0.5-13.6,0.3-27.2-0.3-40.8c-0.6-14.4-1.7-28.7-3.4-43c-0.7-6-1.2-12.1-1.8-18.1c-0.4-3.7,0-7.4,0.7-11c1.1-5.5,3.9-10.1,8.2-13.8
	c1.6-1.4,3.2-2.7,4.7-4.1c1.8-1.6,2.5-3.5,2.1-6c-0.3-2-0.4-4.1-0.3-6.2c0.4-6.5,3-12.1,7.6-16.6c2.5-2.4,5.3-4.7,8.1-6.8
	c3.1-2.3,6.2-4.5,9.5-6.6c8.5-5.4,13-13.4,15.6-22.8c0.9-3.1,1.3-6.3,1.2-9.5c-0.5-10.4-0.8-20.8-1.5-31.2
	c-0.7-10.4-1.6-20.7-2.5-31.1c-0.8-8.9-1.6-17.8-2.4-26.8c-0.4-4.5-0.9-8.9-1.2-13.4c-0.2-2.6-0.7-5-1.6-7.5
	c-5-14.9-8.5-30.2-10-45.8c-2.9-30.8,2.3-60.2,15.6-88.2c3.4-7.1,7.2-13.9,11.4-20.5c0.8-1.2,1.6-2.4,2.3-3.6
	c5.7-8.9,6.8-18.5,3.8-28.5c-0.7-2.3-1.6-4.5-2.5-6.7c-8.2-19.5-14.1-39.8-18.4-60.5c-3.4-16.4-6-33-7.9-49.7
	c-1.6-13.5-3-27-4.8-40.5c-2.6-20.3-6.6-40.4-14.1-59.6c-3.1-7.9-6.6-15.6-11-22.9c-2.3-3.9-4-8-4.9-12.4c-0.7-3.6-1.5-7.2-2.3-11
	c0.7-0.4,1.3-0.9,2-1.1c11.8-2.3,23.6-2.2,35,2c15.6,5.7,25.8,16.8,30.7,32.6c2.3,7.3,4.2,14.8,5.9,22.2
	c4.2,18.2,8.4,36.5,12.4,54.7c6.6,29.9,15.9,58.9,27.9,87.1c0.5,1.2,1,2.4,1.5,3.5c5.5,12.3,15.2,19,28.3,21c3.5,0.5,7,0.7,10.5,0.8
	c40.8,0.8,81.6,1.6,122.4,2.4c45.7,0.9,91.5,2,137.2,2.9c38.9,0.7,77.7,1.1,116.6,1.9c12.9,0.3,25.5-1.3,38-4.5
	c8.7-2.2,17.3-4.6,26.1-6.4c17.2-3.5,34.5-6.8,51.9-9.2c7.4-1,15-1.6,22.5-1.5c10.5,0.2,20.2-2.8,29.1-8.3c6.5-4,12.2-8.8,17.2-14.4
	c11.6-12.9,19.1-27.9,22.2-45c2.4-13,1.3-25.8-3.4-38.2c-1.6-4.3-4.1-7.9-7.8-10.7c-1.9-1.5-3.8-2.9-5.9-4.1
	c-6.8-3.9-13.7-7.7-20.5-11.5c-2,0.8-3.2,2.3-4.2,3.9c-2.1,3.2-4.1,6.5-5.8,9.9c-1.8,3.4-3.1,7-4.9,10.4c-1.4,2.7-3,5.3-4.9,7.7
	c-3.5,4.4-8.1,6.7-13.7,6.7c-3,0-6.1,0.4-8.9-1.3c-0.1-0.7-0.2-1.3-0.2-1.9c-0.2-9.1-0.5-18.2-0.7-27.3c-0.2-8.5,0.3-16.9,1.3-25.4
	c0.6-4.6,2.3-8.6,4.8-12.4c3.7-5.7,8.5-10.4,14.1-14.2c9.1-6.2,18.5-12,28.2-17.3c9.4-5.2,18.9-10.2,28.3-15.2
	c4.2-2.2,8.6-4.2,13.3-5.5c4.4-1.2,8.7-1.2,13.1,0.6c9.6,4.1,19.7,5.3,30,5c8.2-0.2,16.2-1.4,24.3-2.8c15.9-2.7,31.9-5.3,47.8-7.9
	c5.7-0.9,11.4-1.3,17.1-2.4c4.2-0.8,8.4-2,12.4-3.5c8-2.8,14.7-7.6,20.2-14.1c0.7-0.9,1.5-1.7,2.4-2.7c4.7,0,9.4-0.1,14.2,0.1
	c1.9,0.1,3.7,0.9,5.5,1.5c17,5.7,33.9,11.5,50.9,17.1c10.8,3.6,21.7,6.8,32.5,10.2c2.4,0.8,4.9,1.6,7.1,2.8c5.2,2.7,7,6.5,6.3,12.2
	c-0.2,1.7-0.7,3.5-1.1,5.1c-6.1,22.4-13.6,44.3-23.1,65.5c-2.7,6.1-5.4,12.3-8.2,18.4c-0.4,1-1,1.9-1.6,2.9
	c-2.5-1.8-3.4-4.1-4.1-6.6c-0.6-2.3-1-4.7-1.2-7.1c-0.4-4.3-0.5-8.6-0.9-12.9c-0.8-8.8-5.2-15.3-13.1-19.4c-0.4-0.2-0.9-0.4-1.3-0.5
	c-0.3-0.1-0.6,0-0.9,0.1c-0.2,0.2-0.5,0.4-0.6,0.7c-1.3,6.4-2.8,12.8-3.9,19.3c-0.8,4.6-0.7,9.2,0.3,13.8c1.8,8.5,2.9,17,3.1,25.7
	c0.5,22.9-5,44.4-16.5,64.2c-2.2,3.9-4.6,7.7-7.3,11.3c-3.6,4.9-5.9,10.2-7.3,16c-3.6,14.4-7.3,28.8-11,43.2
	c-1.2,4.5-2.4,9-3.7,13.4c-2.6,8.9-6.3,17.4-11,25.5c-12.2,20.9-21.1,43.1-26.1,66.7c-1.6,7.7-2.8,15.4-4.3,23.1
	c-5.2,27.1-12.8,53.5-24.9,78.4c-11.7,24.1-27,45.7-46.6,64.1c-4.2,4-7.1,8.5-9.2,13.8c-8.6,22.2-17.4,44.4-26,66.6
	c-10.4,26.8-20.6,53.7-31.2,80.5c-4.2,10.7-6.6,21.7-8,33c-0.8,7-1.6,14-2.2,21c-0.2,2.7-0.1,5.4,0.1,8.1c0.3,4.7,2.2,8.7,5.5,11.9
	c2.1,2,4.3,3.8,6.7,5.4c4.2,2.7,8.5,5.1,12.7,7.7c6.9,4.1,13.8,8.1,20.5,12.4c2.7,1.7,5.2,3.8,7.4,6c2.7,2.6,3.5,6,2.8,9.7
	c-0.7,3.9-2.6,6.8-6.4,8.3c-3.9,1.5-8,2.2-12.1,2.8c-4.9,0.7-9.8,1.3-14.7,1.9c-2.1,0.2-4.1,0.3-6.2,0.3c-2.4,0-4.8,0.2-7.4,1.2
	c0.4,0.7,0.6,1.5,1,1.9c4.1,3.8,8.3,7.5,12.4,11.4c4.7,4.5,9.4,9.2,14,13.8c2.5,2.5,4.3,5.6,5.3,9c0.4,1.2,0.6,2.5,0.9,3.7
	c0.5,2.8-0.4,5-2.5,6.8c-4,3.5-8.5,5.7-13.9,5.7c-5,0-9.9,0-14.9-0.4c-17.6-1.1-35.1-2.4-52.7-3.6c-2.2-0.2-4.5-0.6-6.6-1.2
	c-8.7-2.4-13.7-8.7-14.3-17.7c-0.4-5,0.2-9.9,1.3-14.8c1.7-7.7,1.8-15.6,2-23.4c0-1.8-0.2-3.5-0.4-5.3c-0.2-2.3-1-4.4-2.5-6.1
	c-11.8-14.2-17.7-31-20.7-48.9c-1.6-9.6-3-19.3-4.3-28.9c-1.3-10.2-3.4-20.2-5.5-30.2c-2.9-13.6-4.9-27.4-6.5-41.2
	c-1.9-15.7-3.6-31.5-5.5-47.2C1564.8,1075.6,1564.1,1069.7,1563.4,1063.3z"/>
</svg>
