<?xml version="1.0" encoding="utf-8"?>
<!-- Generator: Adobe Illustrator 22.0.0, SVG Export Plug-In . SVG Version: 6.00 Build 0)  -->
<svg version="1.1" id="Layer_1" xmlns="http://www.w3.org/2000/svg" xmlns:xlink="http://www.w3.org/1999/xlink" x="0px" y="0px"
	 viewBox="0 0 2880 1800" enable-background="new 0 0 2880 1800" xml:space="preserve">
<path d="M1063.6,968.2c-0.9,1.5-1.5,2.2-1.9,3c-1.8,3.9-3.3,8-5.2,11.8c-1.8,3.6-3.9,6.9-6,10.3c-0.5,0.8-1.2,1.4-1.8,2
	c-1.3-0.4-1-1.3-0.9-2.1c0.2-5.8,1.3-11.4,2.5-17.1c0.8-3.6,1.9-7.1,1.1-11.2c-0.8,0.4-1.5,0.5-2,1c-2.8,2.6-5.6,5.3-8.4,7.8
	c-3.6,3.1-7.3,6.2-11.1,9.1c-1.5,1.2-3.3,1.9-5,2.8c-0.5,0.3-1.2,0.4-2.1,0.7c-0.6-1.4-1.3-2.6-1.8-3.9
	c-4.8-11.8-9.5-23.8-14.5-35.5c-5.3-12.4-11.5-24.3-18.7-35.6c-0.7-1.1-1.4-2.1-2.2-3.2c-0.2-0.2-0.5-0.3-1-0.5
	c-0.7,1.2-1.4,2.4-2.1,3.6c-1.7,3.2-3.4,6.5-5.2,9.7c-0.6,1.1-1.3,2.2-2.1,3.2c-1,1.3-1.9,1.4-3.4,0.8c-0.6-0.3-1.1-0.6-1.7-1
	c-7.5-5.2-15-10.4-22.4-15.7c-1.2-0.8-2.3-1.8-3.4-2.7c-10.1-8.4-13.5-19.2-11.1-31.8c1.2-6.3,3.1-12.4,4.8-18.6
	c2.3-8.8,4.7-17.6,7-26.4c0.3-1,0.3-2.1,0.5-3.6c-2.1,0.4-3.8,0.8-5.5,1.1c-5.3,1-10.6,2.3-16,3c-5,0.7-10.1,0.8-15-0.9
	c-0.5-1.5,0.6-1.9,1.3-2.4c4.6-3.3,9.2-6.4,13.7-9.7c5.5-3.9,10.6-8.2,15.4-13c11.4-11.4,19.6-24.8,24.1-40.4
	c3.5-12.3,7-24.6,10.5-36.9c1.4-4.9,2.9-9.8,4.4-14.7c0.2-0.7,0.4-1.5,0.5-2.3c-1.3-0.5-1.5,0.5-1.9,1c-3.1,4.6-6.1,9.4-9.4,13.9
	c-1.7,2.5-3.7,4.8-5.8,7c-2.7,2.7-4.6,3.5-8.7,4.2c0.2-0.7,0.3-1.3,0.5-1.7c0.8-1.4,1.6-2.8,2.4-4.2c3.9-7.1,6-14.7,6.4-22.9
	c0.6-11.3,1.5-22.7,3.8-33.8c2.7-13.7,8.3-26.2,17.5-36.9c3.7-4.4,7.4-8.8,11.1-13.2c0.7-0.8,1.2-1.7,2-3c-4.2,0.2-7.5,2.2-11,2.7
	c-0.9-0.7-0.5-1.6-0.1-2.2c9.7-16,22.7-27.1,41.9-29.5c6.4-0.8,12.8-0.2,19.1,0.6c4.8,0.6,9.5,1.1,14.3,1.6c0.9,0.1,1.9,0,2.9,0
	c0.1-0.7,0.3-1.1,0.2-1.5c-1.2-4.6-3.2-8.7-6.1-12.4c-4.2-5.2-9.6-8.3-16.2-9.3c-6.9-1.1-13.7-0.2-20.6,0.6
	c-9.7,1.2-19.2,3.3-28.3,7c-0.9,0.4-1.8,0.5-3.1,0.9c-0.1-0.9-0.3-1.6-0.2-2.3c1.4-7.3,4.3-14,8.9-19.9c9-11.8,19.9-21.7,32.6-29.4
	c4.6-2.8,9.4-5.5,14.3-7.8c12.7-6.1,25.3-6,37.8,0.6c5.9,3.1,11.9,6.3,17.7,9.7c5.4,3.1,10.9,4.1,17,2.8c6.7-1.4,13.4-0.5,19.8,2.1
	c6,2.4,11.5,5.7,16.6,9.5c7.1,5.2,13.5,11.3,19.3,17.9c5.3,6,10.4,12.2,15.5,18.3c1,1.2,2.1,2.4,3,3.4c1.8-0.2,1.5-1.4,1.5-2.2
	c0.4-5.3,0.6-10.5,0.9-15.8c0.2-2.5,0.5-5,1.9-7.6c6.1,1.9,11.6,4.8,16.7,8.4c5.3,3.7,9.8,8.2,13.4,13.6c3.5,5.1,5.7,10.9,7.9,16.7
	c1-1.6,0.7-3.1,0.7-4.6c0-1.8,0-3.5,0-5.3c0-1.6,0-3.2,0-4.6c1.3-0.7,1.7,0.1,2.1,0.7c4.4,6.5,6.9,13.7,7.9,21.4
	c1.3,9.8,0.4,19.5-3.5,28.7c-3.3,7.8-8.5,14.3-15.2,19.4c-4.3,3.3-9.1,5.2-14.4,6.4c-2.9,0.6-5.9,1.4-8.6,3.4c1.6,1,2.9,1.8,4.3,2.6
	c6.3,3.8,12.4,7.9,18,12.8c7.7,6.6,14.1,14.4,18.9,23.4c1.3,2.4,2.8,4.6,4.3,7c1.7,2.8,4.3,4.2,7.6,4.4c1.3,0.1,2.6,0.1,3.8,0.1
	c17.8,0.2,35.5,0.3,53.3,0.5c15.7,0.2,31.3,0.9,47,2.3c18.5,1.6,36.8,4.2,55.2,6.7c15.7,2.1,31.4,4.1,47.1,5.7
	c17.4,1.8,34.8,2.2,52.2,1.1c17-1.1,33.6-4,50.2-7.9c15.9-3.7,31.5-8.4,47.1-13.2c7.7-2.4,12.3-7.9,14.9-15.1
	c1.3-3.6,1.1-7.2-1.1-10.8c-0.7,0.5-1.5,0.8-2,1.3c-2.7,3.1-5.4,6.3-8.1,9.5c-1,1.2-2.1,2.4-3.4,3.8c-5.8-4.8-11.2-9.7-17.1-14.6
	c-0.9,0.7-1.9,1.3-2.7,2c-2.5,2.2-5,4.5-7.5,6.8c-0.8,0.7-1.7,1.3-2.5,1.9c-1.5-0.5-1.5-1.4-1.3-2.4c0.9-4.4,1.6-8.8,2.7-13.1
	c5.7-22.5,15.7-42.9,30-61.1c6.5-8.4,14.3-15.5,22.7-22c7.9-6.2,16.3-11.8,24.9-17.1c0.9-0.6,1.8-1.3,2.7-1.9
	c0.1-0.1,0.1-0.3,0.1-0.8c-0.9,0-1.8-0.1-2.6,0c-4.9,0.6-9.8,1.4-14.7,2c-3.2,0.3-6.4,0.5-9.6,0.4c-1.7,0-3.4-0.5-5.5-0.9
	c0.4-1.1,0.6-2,1-2.8c3.2-5.2,7.2-9.8,11.4-14.2c3.9-4,7.9-8,11.8-12c0.8-0.9,1.5-1.9,2.6-3.2c-2.6-0.5-4.5,0.1-6.5,0.2
	c-1.9,0.1-3.8,0.2-5.6,0.3c-0.5-1.2,0.3-1.6,0.9-2.1c5.2-3.8,10.9-6.7,17.1-8.6c6.7-2.1,13.5-3.8,20.3-5.7c0.9-0.3,1.8-0.6,3-1
	c-0.4-0.9-0.7-1.6-1.1-2.1c-1.7-2.4-3.8-4.3-6.2-5.9c-7.1-4.6-14.3-9.1-21.5-13.6c-1.3-0.8-2.6-1.7-3.8-2.4c0.4-1.2,1.1-0.9,1.7-0.9
	c13.4-0.7,26.1,2,38.2,7.5c2.3,1,4.7,2.1,7,3.1c0.7,0.3,1.4,0.5,2.8,1c-1.2-2.8-2.1-4.9-3.3-7.4c0.9,0,1.6-0.2,2,0
	c6.4,3.7,12.5,7.8,17.2,13.6c7.2,9,14.7,17.7,21.9,26.7c4.8,5.9,5.1,4.3,9.5,2.3c4.9-2.2,10-3.2,15.4-3.4c2.7-0.1,5.4-0.1,8.2,0.1
	c13.9,0.8,27.8,1.6,41.7,2.5c2.6,0.2,5.1,0.3,7.7,0.4c8.9,0.4,17-1.9,24.7-6.5c12.3-7.4,24.8-14.7,37.2-21.9
	c2.1-1.2,4.3-2.1,6.5-2.9c2-0.7,4-0.8,5.9,0.2c0.7,1.7-0.3,3-0.8,4.2c-2,5.1-4.1,10.1-6.1,15.1c-0.6,1.5-1.1,3-1.5,4.5
	c-0.7,2.5,0.1,3.6,2.7,3.9c3.5,0.5,7,0.7,10.5,1.2c2,0.2,4.1,0.6,6.5,0.9c-0.5,1-0.8,1.7-1.2,2.3c-1.5,2.3-1,4.3,0.8,6.1
	c2,2,4.3,3.9,6.4,5.7c1.8,1.5,3.7,3,5.8,4.8c-3.2,2.3-6.8,2.8-10.1,4.7c0.6,0.8,1.1,1.5,1.8,2.2c2.5,2.5,5.4,4.5,8.5,6.1
	c14.5,7.2,26.5,17.8,38.7,28.2c2.9,2.4,4.6,5.7,6.6,8.9c-1.5,1.8-3.9,0.7-5.3,2.3c-0.5,0.6,0.1,1.2,0.4,1.6
	c6,10.7,8.7,22.3,9.4,34.4c0.6,9.1,0.8,18.2-0.7,27.3c-1.6,10.2-4.2,20-8.6,29.4c-1.2,2.6-2.9,5-4.4,7.4c-0.3,0.5-0.9,0.8-1.3,1.1
	c-1.3-0.4-1-1.3-1.1-2c-0.8-6.4-1.8-12.7-3.9-18.8c-1.3-4-3-7.8-5.6-11c-1.2-1.4-2.4-2.9-4.5-3.5c-0.8,1.8-0.5,3.4-0.4,4.9
	c0.1,15.5,0.2,31,0.3,46.6c0,6.1-0.1,12.2,0,18.2c0.1,8.2-1.8,16.2-3.4,24.2c-0.2,0.8-0.5,1.5-0.8,2.3c-0.9,1.9-2.3,2.5-4.3,2
	c-0.5-0.1-0.9-0.3-1.3-0.6c-3.6-2-7.2-1.1-10.7,0c-1.6,0.5-2.3,1.6-2.1,3.3c0.2,2.2,0.6,4.4,0.9,6.7c1.6,11.6,3.6,23.1,3.3,34.8
	c-0.2,8.4-1.6,16.5-4.8,24.3c-1.4,3.4-3.2,6.6-5.9,9.2c-2.2,2.1-4.7,3.8-8,4.1c-3.8-4.7-4.6-11.3-9.9-15.4c-0.8,0.8-1.5,1.3-2.2,2
	c-9.2,9.8-18.3,19.7-27.5,29.5c-1.5,1.6-3.1,3.4-4.9,4.5c-4,2.6-5.1,6.1-4.8,10.6c0.2,4.6-0.1,9.3-0.6,13.9
	c-0.8,7.2-3.4,13.9-6.5,20.5c-5.4,11.3-10.9,22.4-15.9,33.9c-7.6,17.6-14.8,35.4-22.1,53.1c-2.8,6.6-5.5,13.3-8.4,19.9
	c-8.6,19.7-22.2,34.9-40.9,45.6c-11.8,6.8-23.3,14-34.9,21.2c-2.6,1.6-5,3.5-7.2,5.6c-3.6,3.5-5.8,7.8-5.6,12.8
	c0.3,12.6-2.2,24.8-5.2,36.9c-2.1,8.8-3.2,17.6-2.4,26.6c0.8,9.4,4.1,18,9.3,25.9c1.6,2.3,3.6,4,6.2,5.2c5.5,2.6,11,5.1,16.5,7.7
	c1.4,0.7,2.9,1.3,4.4,2c4.2,2.2,7,5.5,8.3,10.1c1,3.4,1.4,6.9,1,10.4c-0.4,4.3-2.4,6.4-6.6,7c-3.5,0.5-7,0.9-10.5,1.1
	c-14.4,0.6-28.8,0.6-43.2-0.1c-3.6-0.2-7.3-0.9-10.9-1.8c-5.5-1.3-9.3-4.8-11.7-9.8c-1.5-3.2-2.3-6.6-3.1-10.1
	c-1.8-8.4-3.5-16.9-5.5-25.3c-2.6-11.2-6.3-22.1-11-32.7c-2.9-6.4-4.4-13.1-3.7-20.1c0.3-3.2,1.1-6.3,1.8-9.4c1-4.7,2.2-9.3,3.2-14
	c0.2-1,0-2.1,0-3.2c-0.6,0-1.2-0.1-1.6,0c-14.3,5.1-28.6,10.2-42.9,15.3c-1.1,0.4-2.1,0.9-3.1,1.4c-2.3,1.1-3.3,2.9-3.4,5.3
	c0,0.6,0,1.3,0,1.9c0.6,9.3,1.1,18.5,2.4,27.7c1.9,13.3,3.6,26.6,5.3,39.9c1,7.6,1.9,15.2,2.9,22.8c0.2,1.7,0.6,3.5,1.1,5.2
	c1.8,6,5.5,10.4,11.3,13c3.4,1.5,6.5,3.5,9.4,5.8c6.1,4.8,9.4,11.2,10.4,18.8c0.6,4.5-0.6,8.6-3.9,11.9c-3.8,3.8-8.3,6.4-14,6.2
	c-5.8-0.2-11.5-0.1-17.3,0c-7.4,0.1-14.6-1.3-21.7-3.4c-13.2-3.9-22.6-12.2-28.4-24.7c-0.7-1.6-1.5-3.2-2.2-4.8
	c-1.5-3.3-4.2-4.6-7.8-4.3c-2.9,0.3-5.7,0.4-8.6,0.6c-0.8,0-1.6-0.2-2.7-0.3c1.5-6.2,4.9-11.5,6.5-17.8c-3.5-0.7-6.8-1.2-10-1.9
	c-6.3-1.2-12.5-2.5-18.8-3.7c-2.4-0.5-4.5-1.4-6.2-3.5c1-1.3,2-2.6,2.9-3.9c7.6-10.5,10.7-22.4,11.2-35.1c0.1-3.6-0.9-4.8-4.5-5.6
	c-4.5-1-9.1-1.8-13.6-2.8c-3-0.7-5.9-1.5-8.8-2.3c-1.2-0.4-2.4-0.8-3.6-1.4c-6.5-2.9-9.4-7.8-8.9-14.9c0.2-3.3,0.2-6.7,0.3-10.1
	c0-0.9-0.3-1.8-0.6-3c-2.5,0.2-4.9,0.3-7.3,0.4c-1.9,0.1-3.8,0.1-5.7,0c-2-0.1-3.3-1.2-3.7-3.2c-0.2-1.1-0.4-2.2-0.6-3.3
	c-1.6-12.1-3.1-24.1-4.7-36.2c-0.1-0.9-0.2-1.9-0.5-2.8c-0.4-1.6-1.5-2.8-3.1-3.4c-0.7-0.3-1.5-0.5-2.3-0.7
	c-13.7-3.9-27.4-7.8-41.1-11.6c-3.1-0.8-6.2-1.4-9.4-1.9c-7.3-1.3-14.3-0.3-21,3c-3.4,1.7-6.9,2.4-10.6,2.9
	c-2.8,0.4-3.7-0.4-4.4-3.1c-0.3-1.1-0.5-2.2-0.7-3.3c-3.2-17.3-13.3-29.4-28.6-37.5c-7.1-3.8-14.9-5.6-22.7-7.6
	c-2.3-0.6-4.5-0.2-6.5,1c-1.1,0.7-2.2,1.4-3.2,2.1c-19,12.2-37.9,24.4-56.9,36.7c-4.4,2.9-8.7,6-12.8,9.2
	c-5.3,4.2-9.3,9.6-12.3,15.8c-5.1,10.7-9.1,21.8-13.4,32.9c-0.9,2.4-1.1,4.9-0.7,7.5c1.1,6.7,3,13.1,6.1,19.1
	c4.3,8.2,10.6,14.4,19,18.4c1.7,0.8,3.5,1.6,5.2,2.5c11,5.9,16.7,15.4,18.8,27.4c0.2,1.1,0.2,2.2,0.1,3.4c-0.3,4.6-2.8,7.8-7.3,9.1
	c-2,0.5-4.1,0.8-6.1,1c-11,0.6-22.1,1.1-33.1,0.3c-2.5-0.2-5.1-0.5-7.6-1.1c-7-1.7-12.4-5.7-16.5-11.6c-2.4-3.5-4.1-7.2-5.2-11.3
	c-8.7-29.7-20.8-58.1-31.5-87c-0.3-0.7-0.7-1.4-1.1-2.4c-1,0.5-1.8,0.8-2.6,1.3c-5,3.2-10,6.3-14.9,9.6c-7.6,5.2-13.2,11.9-17,20.3
	c-4.6,10.2-8.8,20.6-12.7,31.1c-1,2.8-1.3,5.5-1,8.5c0.7,6.8,2.8,13.1,6.6,18.8c2.5,3.9,5.3,7.6,8.2,11.2c3,3.7,6.7,6.3,11.3,7.9
	c13.5,4.7,20.2,14.9,23,28.3c0.3,1.4,0.3,2.9,0.2,4.3c-0.4,5-3.3,8.3-8.1,9.4c-1.7,0.4-3.5,0.6-5.2,0.7c-11.4,0-22.7,0-34.1,0
	c-1.8,0-3.5-0.3-5.2-0.5c-8-1.1-14-5.2-17.8-12.3c-2.9-5.4-5.4-10.9-7.3-16.7c-3.3-10-6.3-20.1-9.8-30.1
	c-5.3-14.9-10.9-29.7-16.4-44.6c-1.3-3.6-2.7-7.2-3.9-10.8c-2.4-7.5-2.1-15,2-21.8c4.8-8,7.1-16.7,9-25.6c3.3-15.5,5.4-31.2,6.9-47
	c1-10.2,2.3-20.3,3.4-30.5c1.5-13.5,2.7-27.1,2.2-40.7C1066.6,986,1065.6,977.6,1063.6,968.2z"/>
</svg>
