<?xml version="1.0" encoding="utf-8"?>
<!-- Generator: Adobe Illustrator 22.0.0, SVG Export Plug-In . SVG Version: 6.00 Build 0)  -->
<svg version="1.1" id="Layer_1" xmlns="http://www.w3.org/2000/svg" xmlns:xlink="http://www.w3.org/1999/xlink" x="0px" y="0px"
	 viewBox="0 0 2880 1800" enable-background="new 0 0 2880 1800" xml:space="preserve">
<path d="M1621.3,1330.6c-1.2-1.5-1-3.2-1.1-4.8c-1.4-20.9-2.8-41.8-4.2-62.7c-1.4-20.6-2.9-41.2-4.4-61.8
	c-1.1-16.3-2.2-32.6-3.3-48.8c-0.8-11.6-1.7-23.3-2.5-34.9c-0.1-0.8-0.2-1.6-0.3-2.7c-1.4,1.4-1.3,2.8-1.5,4.1
	c-1.1,7.4-2.1,14.9-3.1,22.3c-1.8,13-3.6,26-5.3,39c-1.3,9.8-2.3,19.7-3.4,29.6c-1.5,14.3-3,28.6-4.5,42.9
	c-0.6,6.2-1.5,12.4-0.5,18.6c1.2,8.1,5.1,14.4,12.1,18.7c2,1.3,4.2,2.3,6.4,3.3c4.8,2.1,8.1,5.7,9.9,10.5c2.7,7.1,2.4,14.1-1,20.9
	c-1.8,3.6-4.7,5.5-8.7,5.8c-1,0.1-1.9,0.1-2.9,0.1c-18.4,0.1-36.8,0.1-55.2,0.1c-1.1,0-2.2-0.1-3.5-0.2c-0.3-0.9-0.8-1.8-0.9-2.7
	c-1.1-10.8-2.2-21.6-3.1-32.5c-1.2-14.5-2.4-29-3.4-43.5c-0.9-13.2-1.6-26.5-2.3-39.8c-0.9-18.4-1.7-36.8-2.5-55.1
	c-0.4-9.1-0.7-18.2-1.1-27.3c-0.8-19.8-1.4-39.7-2.3-59.5c-0.7-16.5-1.7-32.9-2.6-49.4c0-0.8-0.2-1.5-0.3-2.4
	c-1.8-0.9-3.5-0.5-5.3-0.5c-10.1,0-20.2,0.2-30.2,0.1c-20.8-0.2-41.6-1.4-62.3-3.5c-23.1-2.4-45.9-6.2-68.5-11.7
	c-35.5-8.7-69.3-21.5-101.3-39.2c-1.4-0.8-2.8-1.5-4.2-2.2c-1.6,1.4-1.9,3.2-2.6,4.8c-4,9.2-7.7,18.6-12.1,27.7
	c-13.1,27.1-30.4,51.5-50.6,73.7c-6.1,6.7-12.4,13.3-19,19.7c-18.5,18-37.1,35.8-55.7,53.6c-4.6,4.4-9.3,8.8-14,13.1
	c-7.6,7.2-14.2,15.2-19.2,24.4c-7.9,14.6-10.7,30.3-9.8,46.8c0.4,6.4,0.6,12.8,0.8,19.2c0.3,7.7,0.5,15.4,0.7,23
	c0.2,8.1,3.7,14.5,10.2,19.1c3,2.1,6.3,3.7,9.5,5.5c2.5,1.4,5.2,2.6,7.5,4.3c8.7,6.3,11.9,16.1,7.4,27.3c-1.7,4.2-4.8,6.7-9.5,6.8
	c-2.9,0.1-5.8,0.2-8.6,0.2c-15.7,0.1-31.4,0.1-47,0.1c-1.4,0-2.8-0.2-4.5-0.3c-0.7-4.1-1.3-8.1-2-12c-2.4-12.9-4.8-25.8-7.4-38.6
	c-3.3-16.3-6.7-32.6-8.8-49.1c-2.1-16.6-3-33.2-1.1-49.8c0.7-6.5,2.1-12.9,3.1-19.4c0.2-1.1,0.4-2.2,0.6-3.2c-1.6-0.8-2.3,0.4-3,1
	c-17.8,13.1-30.2,30.2-37.3,51.1c-3.6,10.7-5.6,21.7-6.7,32.8c-0.8,8.9-1.5,17.8-2.3,26.8c-0.2,1.9-0.2,3.8-0.1,5.7
	c0.4,6.6,3.5,11.9,8.8,15.8c1.8,1.3,3.8,2.4,5.7,3.6c7.2,4.2,10.6,10.4,10.2,18.7c-0.1,3.1-0.5,6.1-1.6,8.9c-1.8,4.9-5.3,7.5-10.4,8
	c-1.4,0.1-2.9,0.2-4.3,0.1c-16.8-0.9-33.6-0.5-50.4-0.2c-2.1,0-4.1,0-6.3,0c-2.3-5.2-4.3-10.1-4.2-15.8c0.2-20,0.1-40,0.1-60
	c0-4.2,0.1-8.3,0.9-12.4c1.3-6.5,1.6-13,1.7-19.6c0.5-18,3.1-35.7,7.8-53c4-14.7,9.6-28.8,16.7-42.3c6.6-12.6,12.7-25.5,18.1-38.7
	c7.6-18.7,12.8-38.2,16.2-58.1c2.9-16.9,4.7-33.9,5.8-51c1.6-23.3,1.8-46.7,2.7-70c0.8-20.5,3.4-40.8,9.7-60.4
	c6.4-20.1,16.5-38.1,30.6-53.8c1.4-1.5,2.8-3.1,3.9-4.8c3.9-5.7,4.8-11.8,2.5-18.3c-0.9-2.4-2-4.7-3.3-6.9
	c-9.6-16.3-15.8-33.8-19.1-52.5c-2.7-15.9-3.1-31.8-1.9-47.8c1-13.3,3.5-26.3,8.2-38.8c5.8-15.9,14.7-29.8,26.7-41.7
	c16.8-16.6,36.1-28.9,58.9-35.7c18-5.3,36.4-6.5,55.1-4.7c13.4,1.3,26.6,4,39.3,8.3c36.1,12.4,61.5,36.4,76.3,71.5
	c2.4,5.7,4.3,11.7,6.3,17.6c1.3,3.8,1.6,7.8,1.3,12.1c-0.9,0.4-1.9,0.9-2.9,1.1c-13.4,3.2-26.4,2-39-3.3c-4-1.7-7.8-3.6-11.6-5.7
	c-11.3-6-22.9-11.4-35.1-15.4c-10.4-3.4-21-5.6-32-5.3c-12.8,0.4-24.6,4.1-35,11.6c-13,9.3-19.7,22-19.9,38
	c-0.2,13,3.7,24.9,10,36.1c4.5,8,11.7,12.6,20.7,14c3.8,0.6,7.6,0.9,11.5,1c10.9,0.2,21.7-0.9,32.5-2c11-1.1,22-2.1,33-2.5
	c26.7-1,53.4-0.3,80.1,1.5c12.6,0.8,25.2,1.5,37.8,2.3c12.6,0.8,25.2,1.8,37.8,2.3c17.9,0.8,35.8,1.6,53.7,0.9
	c10.9-0.4,21.8-0.8,32.6-1.7c20.6-1.7,41-4.9,61-9.9c11.5-2.9,22.9-5.8,34-10c6.1-2.3,12.1-5,17.8-8.3c11-6.2,20.5-14.2,28-24.4
	c13.7-18.5,27.5-37,41.2-55.5c10.5-14.3,21.6-28.2,34.2-40.7c14.8-14.8,31.4-27.2,50.2-36.6c7.3-3.6,14.2-8.1,20.8-12.9
	c22.6-16.5,45.2-33,67.8-49.5c2.8-2.1,5.7-4.2,8.5-6.2c1-0.7,2.1-1.5,3.7-0.4c-0.7,6.6-2.8,13.2-3.6,20.3c3.6-1.6,6.1-4.1,8.9-6.1
	c2.9-2,5.6-4.1,8.3-6.1c3,1.4,3.2,1.5,2.5,3.8c-2.3,8-4.6,16-6.9,24c-1.3,4.6-2.7,9.2-3.9,13.8c-0.3,1.1-0.4,2.2-0.6,3.4
	c1,0.7,1.8,1.4,2.8,2c9,5.5,18,11,27,16.5c2.2,1.3,4.4,2.7,6.4,4.2c7.2,5.4,11.7,12.6,13.8,21.3c0.1,0.3,0.1,0.6,0.2,0.9
	c1.9,10.3,8,17.1,17.6,21.2c13,5.5,25.9,10.9,38.9,16.4c5.7,2.4,11.4,5,17.1,7.6c2.6,1.2,5.1,2.7,7.5,4.3c3.3,2.2,5,5.4,4.4,9.4
	c-0.3,2.2-0.6,4.5-1.4,6.5c-5.1,13.6-11.7,26.2-20.7,37.7c-5.4,6.9-12.1,11.7-20.3,14.7c-12.9,4.7-26,7.8-39.9,7.2
	c-5.7-0.2-11.5-0.2-17.2,0.8c-13.4,2.2-24.3,8.5-32.7,19.2c-3.7,4.7-6.5,9.8-9,15.2c-14,30.2-28,60.3-42.1,90.5
	c-5.6,12-11.1,24.1-16.7,36.2c-15.4,33.3-34.9,64-60,91c-3.6,3.8-5.9,8.3-7.3,13.3c-5.3,19.9-10,40-14.1,60.2
	c-3.6,17.7-6.7,35.5-9.3,53.4c-2,14.1-3.6,28.2-5.2,42.4c-2.5,21.8-3.7,43.7-4.9,65.5c-0.9,15.8-2.2,31.6-3.3,47.4
	c-0.7,9.4-1.4,18.8-2,28.2c-0.3,3.8-0.2,7.7,0.5,11.5c1.4,7.7,5.5,13.5,12.2,17.5c1.5,0.9,3.1,1.7,4.7,2.4
	c11.8,5.4,17.4,20.9,11.9,33.6c-1.5,3.4-4,5.4-7.4,6.2c-1.5,0.4-3.2,0.6-4.7,0.6c-18.1,0.1-36.2,0.1-54.2,0.2
	C1622.7,1330.8,1621.9,1330.7,1621.3,1330.6z"/>
</svg>
