<?xml version="1.0" encoding="utf-8"?>
<!-- Generator: Adobe Illustrator 22.0.0, SVG Export Plug-In . SVG Version: 6.00 Build 0)  -->
<svg version="1.1" id="Layer_1" xmlns="http://www.w3.org/2000/svg" xmlns:xlink="http://www.w3.org/1999/xlink" x="0px" y="0px"
	 viewBox="0 0 2880 1800" enable-background="new 0 0 2880 1800" xml:space="preserve">
<path d="M1925.7,738.1c-4.1,1.1-7.5,2.1-10.8,3c-1.4,0.4-2.7,1-2.7,3.1c3.7,2.8,7.9,5,12,7.5c4,2.5,8.1,5,12.6,7.7
	c-3.7,3.7-8,5.9-11.6,9.1c-0.2,1.8,1,3.1,1.6,4.4c3.6,7.2,6.8,14.5,8.6,22.3c2,8.8,2.3,17.7,0.2,26.4c-1.1,0.6-1.7,0-2.3-0.5
	c-1.6-1.4-3.1-2.8-4.6-4.2c-0.6-0.5-1.2-0.9-2.4-1.7c0.3,1.7,0.3,2.8,0.6,3.8c1.2,3.6,2.7,7.2,3.8,10.8c1.1,3.5,2.3,7,2.9,10.6
	c0.7,3.9,0.9,7.9-0.7,12.1c-3.5-1.8-5.9-4.9-9.5-7.2c0.1,4.6,1.5,8.3,2.3,12.1c0.8,3.9,1.8,7.8,2.7,11.7c0.9,3.9,1.8,7.8,2.7,11.9
	c-0.8,0.4-1.5,0.8-2.2,1.1c-0.5-0.3-0.9-0.5-1.2-0.9c-1.9-2.9-3.8-5.9-5.9-9c-1.9,1-2.4,2.7-3,4.3c-0.8,1.9-1.3,4-0.7,6.1
	c0.5,2,1.3,3.9,2,5.9c1.3,3.3,2.8,6.5,3.9,9.8c2.4,7.7,2.6,15.4,0.3,23.2c-0.1,0.5-0.3,0.9-0.5,1.3c-0.1,0.3-0.4,0.5-0.7,1.1
	c-0.7-0.4-1.6-0.8-2.2-1.3c-3.8-3.2-7.5-6.5-11.3-9.7c-1.1-0.9-2.1-2-3.9-1.2c-1,1.2-0.5,2.7-0.4,4.1c0.4,6.4,1,12.8,1.3,19.1
	c0.7,13.8-0.2,27.5-4.2,40.8c-2.2,7.4-5.4,14.4-9.5,20.9c-0.5,0.8-1.1,1.4-2,2.6c-0.7-1.7-1.4-2.9-1.8-4.2
	c-2.6-7.6-5.2-15.1-7.8-22.7c-0.3-0.9-0.6-1.8-1-2.7c-0.9-2.2-0.9-2.2-4.3-1.8c-0.1,1.2-0.3,2.4-0.3,3.6c-0.1,7.5,0,15-0.3,22.6
	c-0.4,9.6-1.8,19.1-4.7,28.3c-3,9.9-7.8,18.9-14.5,26.8c-0.8,1-1.7,1.9-2.6,2.8c-0.3,0.3-0.8,0.6-1.3,0.9c-2.9-0.8-5.2-3-8.1-3.9
	c-1.6,0.8-1.8,2.6-2.4,4c-7.1,15.7-14.2,31.5-21.3,47.2c-0.8,1.7-1.6,3.4-2.3,4.9c-1.5,0.5-2.1-0.4-2.7-1c-3.1-2.6-6.1-5.2-9.1-7.7
	c-1.5,0.6-1.4,1.9-1.8,2.8c-0.4,0.9-0.6,1.8-0.9,2.7c-0.4,1-0.8,2.1-1.2,3.3c-2.3,0-4.4,0-6.8,0c-0.7,2.8,1,5.1,0.8,7.8
	c-1.8,0.2-3.5,0.3-5.2,0.5c-1.5,1.4-2.8,3-4.4,4.2c-2.9,2.1-4.9,4.9-6.4,8.1c-5.7,12-11.6,23.9-17.4,35.8c-0.8,1.6-1.6,3.1-2.5,4.8
	c-1.1-0.3-2-0.5-2.9-0.7c-2.2-7.6-3.3-15.3-5.7-23.1c-0.8,0.6-1.4,0.8-1.8,1.3c-3.2,4-6.6,7.9-9.5,12.1c-3.9,5.6-6.2,11.8-6.6,18.8
	c-0.3,3.8-0.9,7.6-1.7,11.4c-0.9,4.3-2.6,8.2-5.2,11.8c-0.4,0.6-1.1,1.1-1.9,1.9c-3-8.2-4.6-16.3-7.4-24.1c-1.9,0.2-2.9,1.7-4,2.7
	c-6.8,6.4-12.7,13.5-17.7,21.4c-5.8,8.9-10.3,18.4-14.2,28.2c-0.6,1.5-1,3-1.3,4.6c-0.6,3.5,0.6,6.4,3.5,8.4c2,1.4,4.1,2.5,6.3,3.4
	c2.2,1,4.5,1.6,6.8,2.3c3.8,1.3,7.4,2.9,10.7,5.3c4.7,3.4,8,7.7,9.5,13.4c0.6,2.2,1.2,4.3,2,6.4c2.3,5.8,6.1,10.4,11,14.3
	c1.8,1.4,3.7,2.5,5.5,3.9c2.3,1.8,4.6,3.5,6.6,5.5c5.2,5.2,7.3,11.5,6.5,18.8c-0.3,2.2-0.6,4.4-1.2,6.6c-1.7,6.4-6.1,10-12.5,11
	c-4.7,0.7-9.5,1.4-14.3,1.9c-11.3,1.3-22.6,2.5-33.9,3.6c-6,0.6-12.1,0.8-18.2,1.1c-4.4,0.2-8.6-0.8-12.7-2.2
	c-4.5-1.6-8.8-3.8-12.8-6.5c-5.7-3.8-11.3-7.8-16.9-11.9c-6.1-4.4-12.1-9-18.1-13.4c-5-3.7-10.8-5.3-16.7-7.3c-2.2,3.8-2.8,8-5,11.9
	c-2.2-2.5-3.1-5.2-4.4-7.7c-1.3-2.4-2.5-4.8-4-7.5c-0.9,0.8-1.6,1.3-2.1,2.1c-1.3,1.8-2.3,3.8-3.6,5.7c-2.3,3.2-5.3,4.4-9.2,3.4
	c-0.7-3,1-5.6,0.9-8.6c-4.3-1.3-8.7-1.1-13.1-2.2c0.4-0.7,0.6-1.5,1-2c1.3-1.6,2.8-3,4.4-4.8c-4.3-2.3-8.8-2.9-13.2-4.9
	c0.6-0.6,0.9-1.3,1.5-1.6c1.7-1.1,3.6-2.1,5.3-3.2c0.5-0.3,1.1-0.7,1.4-1.2c0.2-0.3,0.2-1,0-1.3c-0.2-0.4-0.7-0.8-1-0.8
	c-1.1,0.1-2.2,0.3-3.2,0.7c-5,1.6-10,3.3-15.1,4.8c-1.2,0.4-2.4,0.6-4,1c-1.3-9.6-1.6-19-2.7-28.4c-1.2-0.6-2.3-1.1-3.4-1.6
	c-6.8-2.9-12.2-7.6-16.2-13.7c-2.9-4.4-5.2-9.2-6.9-14.2c-3.3-9.9-6.4-19.8-9.6-29.7c-1.3-4.1-2.5-8.3-4-12.3
	c-2.7-7.4-6-9.3-13.7-7.6c-12.3,2.7-24.6,5.6-36.9,8.5c-4.2,1-8.4,2-12.6,3c-0.9,0.2-1.8,0.2-3.3,0.3c2.7-5,5.6-9.1,8.3-13.4
	c2.6-4.2,5.3-8.3,8.1-12.8c-0.9-0.4-1.4-0.7-1.9-0.7c-12.8-1.4-25.6-1-38,2.7c-7.4,2.2-14.2,5.7-20.4,10.4c-1.1,0.9-2.3,1.7-3.3,2.4
	c-1.5-0.1-1.7-1.1-2.1-1.9c-2.7-5.4-2.6-10.8,0.6-16c1.6-2.6,3.5-5,5.3-7.4c1.2-1.7,2.5-3.3,3.9-5.1c-0.7-0.6-1.1-1.1-1.6-1.3
	c-11.1-5.2-22.3-10.4-33.5-15.6c-5.4-2.5-10.9-3.4-16.8-2.4c-6.9,1.1-13.9,1.8-20.9,2.7c-1.1,0.1-2.2,0.1-3.8,0.2
	c3-5,7.6-8.2,10.3-12.9c-5.3-1.5-48.8-8.6-52.8-8.5c-0.1,1.6,0.7,3,1.2,4.5c0.5,1.4,0.5,2.8-0.3,4.1c-1,1.8-2,3.6-2.8,5.5
	c-1.2,2.8-2.5,5.6-3.4,8.4c-0.9,2.8-2.4,5.2-4.6,7.2c-4.9,4.6-10.3,8.1-16.7,10.1c-5.6,1.8-11.3,3.4-17.1,4.7
	c-5.2,1.2-10,3.2-14.3,6.5c-0.5,0.4-0.9,0.8-1.5,1.4c2.2,1.7,4.1,3.2,6.4,5c-5.5,2.4-11.1,3.1-16.4,5.3c0.6,2.3,1.9,4.2,2.8,6.1
	c0.9,1.9,1.8,3.7,2.9,6c-1,0-1.7,0.2-2.4,0.1c-2.2-0.5-4.3-1-6.8-1.6c-2.6,7.9-3.5,16-6.1,24.1c-2-1.4-3.6-2.5-5.5-3.9
	c-0.8,1.6-0.5,3-0.6,4.4c-0.1,1.4-0.1,2.8-0.2,4.5c-2.2-0.4-4.2-0.8-6.5-1.3c0.1,1.3,0.1,2.2,0.2,3.1c0.1,1,0.3,1.9,0.4,3.1
	c-0.9,0.2-1.7,0.6-2.6,0.7c-2.5,0.2-5.1,0.4-7.7,0.5c-0.9,0.1-1.8,0.2-3,0.4c0.3,1.1,0.5,2.1,0.8,2.9c1.6,4.2,3.6,8.2,6,12
	c2.5,4.1,4.7,8.3,6.2,12.9c2.3,7.1,7.4,11,14.9,11.5c2.7,0.2,5.5,0.4,8.1,1.1c12.1,3.1,19.6,10.9,22.7,22.9c0.6,2.2,0.9,4.4,1,6.6
	c0.3,6-1.9,8.9-7.8,10.3c-8.9,2.1-17.8,3.9-26.7,5.9c-5,1.1-10,2-15,3.1c-1.1,0.2-2.1,0.7-3,1c-0.7,4.1-0.7,22.8,0,27.2
	c0.9-0.2,1.8-0.2,2.6-0.5c3.9-1.3,7.9-2.7,11.8-4c3.1-1.1,6.3-1.3,9.5-1c6,0.5,10.6,3.4,13.5,8.7c2.1,3.8,3.3,7.9,4.1,12.2
	c0.5,3,1.1,6,1.5,9c0.7,5.2-1.8,8.5-6.9,9.6c-2.7,0.6-5.3,1.1-8,1.6c-8.3,1.5-16.6,3.3-25,4.5c-15.4,2.3-29.9-0.4-43.7-7.6
	c-8.3-4.4-15.5-10.1-21.9-17c-3.3-3.6-5.7-7.7-7.6-12.1c-1.7-4.1-3.3-8.3-4.8-12.5c-1.8-4.8-3.8-9.5-6.3-14
	c-7-12.5-11.4-26-14.9-39.9c-1.7-7-3.3-14-4.8-21c-0.9-4.4-2.4-8.6-4.7-12.5c-1.8-3-3.6-6-5.6-9.5c-0.6,0.8-1,1.2-1.1,1.7
	c-0.8,2.9-1.4,5.9-2.2,8.9c-0.2,0.7-0.6,1.4-0.9,2c-0.6-0.1-0.9-0.1-1.2-0.3c-13.4-9.1-21.9-21.3-23.8-37.7
	c-0.6-5.7-3.1-15-5.3-19.9c-1.8,0.1-3.2,1.4-4.7,2.2c-2.9,1.6-5.8,3.4-8.8,5c-0.3,0.2-1,0-1.3-0.2c-0.3-0.3-0.6-0.9-0.5-1.2
	c0.2-0.9,0.5-1.8,0.9-2.7c1-2.8,2.1-5.7,3.2-8.6c-1.3-1.7-3.1-2.4-4.7-3.2c-2-1-2.6-2.5-2.7-4.6c-0.3-8.2-0.8-16.3-1.2-24.4
	c-0.1-2.1-0.3-4.1-0.5-6.1c-3.2-1.3-6.4,0-9.5-1.2c0.3-5.4,1.7-10.6,2.5-15.9c0.9-5.5,1.9-11,2.9-16.5c0.9-5.3,1.9-10.7,2.9-16.5
	c-1.2,0.4-1.9,0.5-2.5,0.8c-2.2,1.1-4.3,2.2-6.4,3.3c-0.7,0.3-1.4,0.5-2.4,0.8c0.1-1,0-1.6,0.2-2.2c3.5-15.7,2.9-31.5,0.2-47.2
	c-1.9-11.2-4.8-22.2-7.7-33.1c-0.2-0.9-0.6-1.8-1-2.8c-1-0.1-1.9-0.2-2.9-0.3c-0.3,0.5-0.7,0.9-0.8,1.3c-2.2,6.9-4.3,13.7-6.5,20.6
	c-0.7,2.2-1.5,4.5-2.3,7.2c-0.7-0.7-1.3-1.1-1.5-1.6c-6.3-12.1-11.6-24.5-14.6-37.9c-3.6-15.7-2.9-31.1,2.4-46.3
	c0.3-0.8,0.6-1.5,0.8-2.3c0.3-0.8,0.3-1.8-0.5-2.1c-0.6-0.2-1.7-0.1-2.2,0.3c-3.8,3-7.5,6-11.2,9c-1.5,1.2-3,2.4-4.3,3.5
	c-1.4-0.2-1.6-1.2-2-2.1c-2.5-5.5-2.8-11.2-1.4-16.9c1.2-4.8,2.9-9.5,4.7-14.1c1.5-4,3.4-7.9,5.2-11.9c0.5-1.2,1-2.3,1.5-3.6
	c-3.7-4.4-8.5-7.3-12.4-11.8c0.9-0.7,1.6-1.2,2.4-1.7c7.7-4.7,15.6-8.8,24.1-11.8c1.3-0.5,2.6-1.2,3.8-1.9c0.1,0,0.1-0.3,0.2-0.7
	c-5-0.8-10-1.7-15-2.5c-0.2-0.7-0.5-1.1-0.4-1.5c1.2-7.4,2.3-14.8,3.6-22.3c1.3-7.7,4.4-14.7,9.1-20.9c3.6-4.7,7-9.5,10.5-14.3
	c0.3-0.4,0.4-0.8,0.6-1.2c-0.5-1.1-1.4-0.7-2.1-0.7c-8.4,0.7-16.9,1.6-25.3,2.3c-2.3,0.2-4.7,0.7-7.3,0.1c0.3-1.1,0.5-2,0.9-2.9
	c2.2-5,5.3-9.5,8.8-13.6c6.7-7.9,14.7-14.2,23.6-19.4c1.4-0.8,2.7-1.6,4.5-2.7c-7.1-4.3-14.8-6.7-21.6-10.7
	c3.7-6.9,11.5-11.9,25.6-16.2c-3.3-2.3-7.4-2.1-10.9-4c1.2-2.3,3.2-3.4,4.7-4.9c1.6-1.6,3.3-3,5-4.5c1.7-1.5,3.3-3,5-4.5
	c1.6-1.5,3.3-3,5.1-4.7c-1.8-1.5-3.8-1.2-5.6-2.2c0-0.8-0.1-1.8,0-2.6c0.6-3.1,1.2-6.3,2.1-9.3c2-7.4,6-13.7,11.5-19
	c4.1-3.9,8.5-7.3,13.3-10.2c8.1-4.8,16.3-9.4,24.5-14.2c1.3-0.8,2.9-1.1,4.1-2.9c-2.1-0.6-4-0.3-5.9-0.4c-1.9,0-3.8,0-5.8,0
	c-2.1,0-4.2,0-6.2,0c-1.9,0-3.8,0-5.8,0c-1.9-0.1-3.8,0.3-5.6-0.4c1-3.3,1.7-4.4,4.3-6.1c2.5-1.6,5.2-3.1,8-4.3
	c7.6-3.3,15.3-6.5,23-9.7c1.4-0.6,2.8-1.3,4.8-2.2c-3.6-1.7-7-1.6-10.2-2.2c-3.3-0.6-6.5-1.1-9.6-1.6c-0.6-1.4,0-1.9,0.5-2.5
	c5.4-6,12.3-9.2,20.3-9.5c4.8-0.2,9.6,0.2,14.4,0.5c2.2,0.1,4.4,0.4,6.5,0.7c0.8-1.1,0-1.7-0.4-2.3c-3.6-4.7-7.2-9.4-10.8-14.1
	c-0.9-1.1-1.6-2.3-2.6-3.7c1.2-0.4,2.1-0.8,2.9-0.9c16.1-3.5,32.4-6.1,48.9-6.2c3.4,0,6.7-0.2,10.1-0.4c0.8,0,1.6-0.2,2.3-0.5
	c0.3-0.1,0.5-0.8,0.5-1.2c0-0.3-0.2-0.7-0.4-0.8c-0.7-0.3-1.5-0.5-2.3-0.6c-8-0.7-15.9-1.4-23.9-2.1c-4.5-0.4-8.9-0.8-13.4-1.2
	c-0.4,0-0.8-0.3-1.4-0.5c0.3-0.5,0.4-1,0.7-1.3c5.9-4.5,12.2-8.2,19.6-9.8c3-0.6,6-0.9,9-1.1c8.5-0.6,16.9-0.8,25.4-1.6
	c7.3-0.7,14.6-2,21.8-3.1c0.4-0.1,0.7-0.5,1.4-1c-4.2-2-8.3-3.1-12.2-4.7c-3.8-1.6-7.9-2.3-11.9-5c6.1-1.9,11.8-2,17.4-3
	c5.6-1,11.3-1.3,17.2-2.7c-1.3-2.3-3.3-3.4-4.9-4.9c-1.6-1.5-3.3-3-4.9-4.4c0.2-1.5,1.3-1.5,2.2-1.7c8.2-2,16.5-3.9,24.7-5.9
	c1.1-0.3,2.1-0.6,3.5-1c-0.4-1.1-0.8-2-1.1-3c3.1-1,3.5-1,7-0.3c3.1,0.6,6.2,1.5,9.4,1.9c3.9,0.6,7.5-0.3,11-3.1
	c-3.4-3-7.5-4.5-11.2-7.5c1.1-0.6,1.9-1.1,2.7-1.3c10.6-3.4,21-3.4,31.5,0.5c9.6,3.6,19.3,6.8,29,10.1c1.1,0.4,2.1,0.8,3.2,0.9
	c0.4,0,1.1-0.6,1.4-1c0.2-0.3,0-1-0.3-1.2c-1-0.8-2.1-1.5-3.2-2.1c-7.3-4.3-14.6-8.6-21.9-13c-1.1-0.7-3.1-1-2.4-3
	c0.5-1.6,2.2-1,3.4-1c9.1-0.3,18.2-0.7,27.3-0.7c5.3,0,10.5,0.5,15.8,1c4.7,0.4,9.1,1.9,13.2,4c3.5,1.8,7,3.8,10.5,5.8
	c2.4,1.3,4.7,2.7,7,4c1.1-0.9,0.4-1.5,0-2.1c-2.2-3.5-4.4-7-6.6-10.5c1.2-1.2,2.3-0.4,3.2,0c7.9,2.7,15.7,5.4,23.6,8.1
	c1.5,0.5,3,0.9,4.7,1.4c0.5-3.1-1.5-5.5-1.3-8.1c0.5-0.8,1.1-0.3,1.7,0c8,4.1,15.8,8.5,22.9,13.9c4.2,3.2,8.2,6.7,11.7,10.6
	c7.8,8.7,12.7,18.7,14.9,30.2c0.2,0.9,0.4,1.9,0.7,2.8c0,0.1,0.2,0.2,0.4,0.4c1.3,0.4,2-0.6,2.5-1.6c1.7-3.6,3.4-7.2,5.2-10.8
	c0.7-1.4,1.4-2.8,2.2-4.3c0.5,0.3,1.1,0.5,1.3,0.8c4,6,8,12,11.9,18c2.6,4.1,4.5,8.5,5.8,13.1c2.5,8.5,1.7,16.8-1.6,24.9
	c-0.9,2.1-1.8,4.1-2.7,6c0.3,0.4,0.4,0.7,0.7,0.8c7.9,3,15.7,6.6,24.2,7.4c5.9,0.5,11.8,0.9,17.7,1.1c6.2,0.2,12.5,0.1,18.7,0.2
	c0.5,0,1,0,1.4,0c7.6-0.2,11.9-3.8,13.3-11.2c0.7-3.4,1.1-7,1.9-10.4c1.9-8.2,3.9-16.5,6.1-24.7c0.7-2.6,2.1-5,3.6-7.3
	c10.5-15.5,21.2-30.9,31.8-46.3c0.9-1.3,2-2.5,3.3-3.4c10.7-7.5,21.5-15.1,32.4-22.4c9.2-6.2,18.9-11.3,29.1-15.6
	c13.1-5.6,23.3-14.5,30.1-27.1c2.3-4.2,4.2-8.6,6.3-12.9c0.8-1.6,1.5-3.2,2.3-4.7c1.8-3.4,5.2-4.5,8.5-3.6c3.4,0.9,6.9,1.4,10.4,2
	c0.8,0.1,1.6,0.1,2.6,0.2c0.5-0.9,1.2-1.8,1.6-2.7c2.5-5.4,5-10.7,7.5-16.1c0.6-1.3,1.3-2.5,1.8-3.7c3.4-1,6.1-0.2,8.7,1.8
	c2.6,2.1,5.4,4,8.2,5.9c5.1,3.6,9.8,7.7,13.8,12.5c1.5,1.8,3.3,3.5,5.1,5.1c4.4,3.9,9.7,5.8,15.5,4.8c8.3-1.4,15.9,0.4,23.4,3.5
	c1.5,0.6,3,1.2,4.4,1.9c10.3,5,21.2,8,32.4,10.2c7.1,1.4,14.1,2.8,21.1,4.7c18.8,5,32.7,16.3,41.8,33.4c1.6,3,2.9,6.1,4.6,9
	c2,3.4,4.1,6.9,6.5,10.1c4.3,5.8,10.2,8.9,17.4,10.1c6.2,1,12.4,0.8,18.7,0.6c14.1-0.3,28.1-0.7,42.2-0.9c2.2,0,4.5,0,6.7,0.2
	c5.5,0.5,9.4,3.4,10.9,8.7c3.6,12.7,4.1,25.3-2.1,37.4c-2.7,5.2-4.4,10.6-4.8,16.4c-0.6,10.4-5.2,19-12.7,26.1
	c-3.2,3.1-6.7,6-10.3,8.6c-8.1,5.9-16.5,11.6-24.7,17.4c-1.8,1.3-3.6,2.7-5.2,4.3c-4.6,4.7-5.6,10.3-3.3,16.4c1,2.7,2.3,5.3,3.6,7.8
	c4.8,9.6,10.3,18.8,16.2,27.8c4.1,6.3,8.3,12.6,12.4,18.8C1923.7,734.9,1924.5,736.2,1925.7,738.1z"/>
</svg>
