<?xml version="1.0" encoding="utf-8"?>
<!-- Generator: Adobe Illustrator 22.0.0, SVG Export Plug-In . SVG Version: 6.00 Build 0)  -->
<svg version="1.1" id="Layer_1" xmlns="http://www.w3.org/2000/svg" xmlns:xlink="http://www.w3.org/1999/xlink" x="0px" y="0px"
	 viewBox="0 0 2880 1800" enable-background="new 0 0 2880 1800" xml:space="preserve">
<path d="M1595.6,1240.7c-0.1-4.8,1-8.6,3.1-12.1c2.1-3.6,4.5-7,6.7-10.5c0.7-1.2,1.9-2.1,1.9-3.8c-1.5-0.4-2.5,0.4-3.7,0.9
	c-5.5,2.1-11,4.2-16.6,6.3c-1.5,0.6-3,1.1-4.6,1.4c-0.9,0.2-1.9,0.2-2.8,0c-2-0.4-2.9-2-2.3-4c0.3-1.1,0.8-2.1,1.3-3.1
	c3.5-8.6,7.1-17.1,10.6-25.7c0.4-0.9,0.6-1.8,0.8-2.7c-2-1-3.6-0.3-5.2,0.4c-1.8,0.8-3.5,1.6-5.3,2.3c-0.5,0.2-1.1,0-2.2-0.1
	c0.8-1.4,1.3-2.3,1.8-3.2c5.7-9.7,9-20.1,10.2-31.2c1.2-10.3,0.4-20.5-0.5-30.7c-1-10.5-2.2-21-3.4-31.5c-0.1-0.6-0.3-1.2-0.5-1.9
	c-2.6,0.8-4.4,2.3-5.8,4.3c-1,1.4-1,3.1-0.5,4.6c2,6.1,0.4,11.7-2.4,17.1c-1.9,3.7-3.8,7.4-5.7,11.1c-0.1,0.1-0.2,0.1-0.6,0.3
	c-1.5-0.9-2-2.6-2.8-4.1c-1-1.8-1.8-3.8-2.8-5.5c-1.1-1.7-2.7-2.7-4.8-2.6c-1.4,0.1-2.5,0.6-3,2c-0.4,1.4-0.6,2.8-0.9,4.2
	c-0.3,1.6-0.4,3.2-0.8,4.7c-0.2,0.6-0.9,1.1-1.4,1.6c-0.4-0.2-0.6-0.2-0.7-0.3c-0.1-0.1-0.3-0.2-0.3-0.3c-3.2-8.7-6.4-17.4-9.5-26.1
	c0-0.1-0.2-0.2-0.4-0.3c-1.1,0-1.1,0.9-1.3,1.7c-3.6,14.5-12.7,24.8-24.8,32.9c-0.5,0.3-1.1,0.4-2,0.7c0.4-2.6,0.8-4.8,1.1-7
	c1.4-8.2,0.5-16.3-1.7-24.2c-1.2-4.3-2.9-8.5-4.4-12.7c-0.9-2.6-1.9-5.1-3-7.6c-0.4-1-0.8-2.1-1.5-3c-1.6-2.4-4.8-2.6-6.5-0.4
	c-0.7,0.8-1.3,1.9-1.5,3c-0.6,3-1,6-1.4,9c-0.2,1.4-0.3,2.9-0.6,4.2c-0.4,1.5-2.1,2.2-3.5,1.6c-1.1-0.5-2.3-1.2-3.2-2.1
	c-2.7-2.5-5.8-3.9-9.4-4.5c-2.5-0.4-5-0.9-7.5-1.4c-4.7-0.8-8.3-3.1-10.5-7.5c-0.2-0.4-0.5-0.8-0.9-1.2c-3.5-0.3-7-0.5-10.4-1
	c-13.1-1.7-23.4-8-31.3-18.5c-1.4-1.9-2.7-4-4.1-5.9c-3.5-5-7.7-6.3-13.3-3.9c-3.2,1.3-5.9,3.3-8,6c-1.5,1.9-2.8,3.9-4.1,5.9
	c-0.9,1.3-1.7,2.6-2.8,4.3c-0.8-0.7-1.4-1.1-1.8-1.7c-1.1-1.5-2.2-3.1-3.3-4.7c-0.5-0.7-0.9-1.3-1.4-1.9c-1-1.1-2.2-1.3-3.5-0.8
	c-1.2,0.5-1.6,1.4-1.7,2.6c-0.2,3.7-0.5,7.3-0.8,11c-0.2,2.2-0.5,4.4-2.5,6.3c-0.8-1.2-1.5-2.2-2.1-3.3c-2.4-4.1-4.8-8.3-7.2-12.4
	c-0.8-1.3-1.9-2.6-3-3.7c-1.6-1.4-3.5-1.6-5.3-0.5c-1.2,0.7-2.4,1.7-3.3,2.7c-5.8,6.5-10.3,13.9-12.2,22.5c-0.2,0.9-0.4,1.9-0.8,2.7
	c-0.7,1.4-1.8,2.2-3.8,1.6c-0.3-1.9-0.6-3.9-0.9-6c-1-8-2.9-15.7-6.9-22.8c-1-1.8-1.7-3.8-2.7-5.6c-0.8-1.4-1.7-2.8-2.8-3.8
	c-1.8-1.7-4.5-1.3-5.9,0.7c-0.9,1.3-1.5,2.8-2.1,4.3c-0.7,1.6-1.1,3.4-1.7,5c-0.5,1.2-1.1,2.3-1.9,3.3c-1,1.3-2.5,1.5-3.8,0.6
	c-1.2-0.8-2.2-1.8-3.2-2.8c-3-3.2-5.3-6.8-7.2-10.7c-2.1-4.1-3.9-8.4-5.9-12.6c-0.8-1.6-1.6-3.1-2.6-4.5c-1-1.3-2.5-1.4-3.8-0.4
	c-1,0.8-1.9,1.7-2.7,2.7c-10.4,13.3-23.8,22.8-39,29.6c-13.6,6.1-27.4,11.7-41.1,17.4c-9.6,4-19.3,7.7-28.9,11.8
	c-8.8,3.8-17.2,8.4-25,14.1c-3.5,2.6-6.7,5.4-9.4,8.9c-6.2,7.9-8.8,16.9-7.9,27c0.4,4.9,2.6,8.8,6.6,11.7c2.9,2.1,6.1,3.5,9.4,4.7
	c7.6,2.6,15.1,5.2,22.7,7.6c6,2,11.5,4.8,16.3,8.9c6.4,5.6,8.8,12.7,7.6,21.1c-0.7,4.6-3.2,7.9-7.2,10.1c-3.8,2.1-8.1,3-12.3,3.8
	c-7.6,1.5-15.3,1.3-23,0.6c-6.5-0.6-13.1-1.1-19.6-1.6c-2.9-0.2-5.7-0.6-8.6-0.8c-1.2-0.1-2.2,0.2-2.8,1.3c-0.6,1.2-0.5,2.6,0.6,3.5
	c1,0.8,2,1.6,3.2,2.1c3.4,1.3,6.8,2.7,10.4,3.7c7.2,2,14.5,3.8,21.8,5.7c0.6,0.2,1.2,0.3,1.9,0.5c9.9,2.5,15.6,9.4,16.9,20.2
	c1.1,9.3-3.6,17.5-12.3,21.9c-3.6,1.8-7.5,2.8-11.5,3.3c-13.8,2-27.7,2.7-41.6,2.2c-7.7-0.2-15.3-0.9-22.9-2.1
	c-2.2-0.3-4.4-0.8-6.5-1.6c-8.5-2.9-13.9-8.8-16.2-17.5c-0.5-1.7-0.7-3.4-1.1-5.2c-0.5-1.9-1.3-3.6-3.4-4.2c-1.6,0.5-2.3,1.8-3,3
	c-0.6,1-1,2-1.5,3c-0.8,1.2-1.9,1.6-3.3,1.4c-1.4-0.2-2.3-1.1-2.7-2.4c-0.1-0.2-0.1-0.3-0.1-0.5c-2.9-13.7-4.4-27.5-1.2-41.4
	c2.2-9.8,2.4-19.7,1.1-29.6c-0.2-1.5-0.3-2.9-2-3.4c-1.4-0.4-2.8,0.4-3.7,2.3c-0.4,0.9-0.7,1.8-1,2.7c-2.9,7.5-5.7,14.9-8.6,22.4
	c-2,5.1-4.4,10-7.9,14.2c-1.6,2-3.3,3.9-5.2,5.6c-3.4,3-5.4,2.6-7.8-1.1c-0.5-0.8-0.9-1.7-1.4-2.5c-0.5-0.8-1.2-1.5-1.9-2.2
	c-1.1-0.9-2.3-0.9-3.5-0.1c-0.6,0.5-1.2,1-1.7,1.6c-0.5,0.6-1,1.3-1.4,2c-7.1,11.3-17.5,17-30.6,18c-3.3,0.3-6.7,0.3-10.1,0.4
	c-5.4,0-10.9-0.1-16.3,0c-3.2,0.1-6.4,0.6-9.5,1.1c-3,0.5-6,1-9,0.3c-0.6-0.1-1.1-0.4-1.5-0.5c-0.5-1.3,0.3-1.7,0.9-2.2
	c1.9-2,3.9-3.8,5.6-5.9c3.5-4.6,5.2-9.9,5.4-15.6c0.3-11.7,0.6-23.4-0.7-35c-0.7-6.4-1.8-12.7-3.6-18.8c-2.3-8-3.9-16.1-4.5-24.5
	c-1.8-23.1,4.3-44,17.6-62.9c2-2.9,4.2-5.6,6.5-8.3c8.8-10.6,16.9-21.7,24.4-33.2c6.4-9.8,13-19.4,19.3-29.3
	c14.1-22.4,25.1-46.3,34.3-71.2c4.6-12.4,7.7-25.1,10.4-37.9c1.3-5.9,2.9-11.8,5.1-17.5c1.6-4,2.8-8.2,4.1-12.3
	c3.1-10.6,7.9-20.6,13-30.3c10.8-20.2,24.5-38.2,41-54.1c4.5-4.3,9.5-8,14.6-11.7c23.8-17.3,49.9-29.8,77.9-38.5
	c17.3-5.3,34.9-9.1,52.9-11.8c16-2.3,32.1-3.9,48.2-4.8c31-1.9,62-1.8,93.1-1.1c25.1,0.5,50.2,0.9,75.3,1.1
	c17.1,0.1,34.2-0.6,51.3-1.9c21.9-1.6,43.4-5.5,64.2-13.1c31.9-11.6,58.4-30.8,79.2-57.7c11.9-15.3,23.6-30.7,36.2-45.4
	c11.1-12.9,22.6-25.3,35.4-36.5c9.3-8.1,19.2-15.4,30.1-21.3c17.9-9.8,37-14.9,57.5-14.5c12.2,0.2,24.1,2.6,35.9,5.9
	c5.8,1.7,11.7,3.5,17.1,6.2c4,2,8,4.2,11.6,6.7c9.7,6.7,16,15.9,19.3,27.3c1.1,3.7,2.2,7.4,3.5,10.9c2.1,5.3,5.2,9.9,9.7,13.4
	c5,4,10.9,6,17.2,6.9c3.3,0.4,6.7,0.8,10,0.9c7.3,0.3,12.3,3.9,15.5,10.4c2.8,5.8,4.8,11.9,5.5,18.3c1,8.9,1.6,17.8,2.1,26.8
	c0.4,9-2.8,16.9-8.5,23.8c-5.3,6.3-11.8,11.2-19.2,14.9c-8.5,4.3-17.6,6.6-26.9,8.6c-4.8,1-9.7,1.9-14.6,2.9
	c-1.9,0.4-3.7,0.9-5.5,1.7c-3.1,1.4-4,3.3-3.4,6.6c0.2,1.1,0.5,2.2,0.9,3.2c3.1,8.8,4.4,18,5.2,27.3c0.5,6.2,1.1,12.4,1.6,18.6
	c0.3,3.4,1.3,6.5,3,9.5c1.7,2.9,3.1,5.9,4.5,9c2,4.4,1.2,8-2.7,11c-1.8,1.4-3.8,2.4-5.7,3.4c-2.3,1.3-3.6,2.9-2.9,5.8
	c1.2,5.1-1,8.7-5.4,11.2c-1.8,1-3.6,2-5.5,3c-5.6,3.1-10.2,7.2-12.5,13.4c-1.3,3.4-3.6,5.4-7.4,6c-5.2,0.8-9.6,3.5-13.1,7.4
	c-2.1,2.4-4.1,4.9-6,7.5c-2.4,3.2-4.6,6.6-7.2,9.5c-3.3,3.6-3.8,12.5-0.3,16.6c0.7,0.9,1.5,1.7,2.2,2.5c6.9,7.7,12.4,16.2,16.5,25.7
	c0.7,1.6,1.7,3.1,2.4,4.7c0.6,1.5,1.2,3,1.6,4.5c0.4,1.5,0,2.8-1.4,3.8c-4,2.9-5.5,6.9-5,11.7c0.6,6.4,1,12.8,1.5,19.1
	c0.4,4.6,0.3,9.3-0.4,13.9c-0.1,0.6-0.3,1.2-0.5,2.1c-1-0.2-1.9-0.3-2.8-0.7c-0.9-0.3-1.6-1-2.5-1.4c-1.6-0.7-2.9,0.3-2.9,2
	c0,1,0.1,1.9,0.2,2.9c1.1,11.4-0.7,22.4-5.6,32.7c-4.9,10.4-10.1,20.7-16.6,30.2c-12.9,19.1-24.1,39.3-32.9,60.6
	c-0.4,1-0.9,1.9-1.7,3.5c-0.5-1.1-0.9-1.5-1-2.1c-1-4.8-2-9.7-3.1-14.6c-0.2-1-0.7-2-1.1-3.4c-3.6,2.5-6.3,5.4-8.7,8.7
	c-2.5,3.4-4.4,7.1-5.5,11.1c-1,3.8-1.8,7.7-2.8,11.8c-2.8-1.6-4.4-3.8-5.6-6.2c-1.2-2.4-2.2-5-2.9-7.6c-0.9-3.1-1.4-6.2-2.1-9.4
	c-0.6-2.5-1.2-4.9-2.3-7c-1.2-0.4-1.8,0.3-2.1,1c-1.4,2.5-2.9,5-4.1,7.6c-1.4,3-2.5,6.2-3.8,9.3c-0.7,1.6-1.5,3.1-2.5,5.1
	c-0.6-0.8-1.1-1.2-1.3-1.7c-1.2-3.9-1.2-7.9-0.7-11.9c0.4-2.9,0.8-5.7,1.1-8.6c0.2-2,0.2-4.1,0.3-6c-1.3-0.6-1.7,0.1-2.2,0.7
	c-2.4,2.8-4.1,6.1-5.3,9.6c-1,2.9-1.8,5.8-2.8,8.7c-0.3,1-0.9,2-1.3,2.9c-2.2-0.4-3.1-2-4-3.4c-0.7-1.1-1.3-2.2-2.1-3.2
	c-0.9-1.1-2.2-1.3-3.5-0.7c-1.6,0.6-2.7,1.8-3.3,3.3c-0.5,1.3-0.9,2.7-1.2,4.1c-2.1,12.4-2.9,24.8-1.9,37.3
	c0.9,11.5,3.1,22.8,6.6,33.8c0.5,1.7,1.2,3.3,2,4.9c5,10,13.1,15.5,24.2,16.4c5,0.4,9.9,1.1,14.5,2.8c2.7,1,5.4,2.2,7.8,3.7
	c5.9,3.7,8.8,9.2,8.9,16c0,2.9-0.4,5.7-0.9,8.6c-0.6,3.2,0,5.9,1.6,8.7c1.7,2.9,3.2,5.9,4.4,9c0.9,2.2,1.4,4.6,1.7,6.9
	c1,8.4-2.4,14.6-9.5,18.9c-4.2,2.5-8.7,4-13.5,4.9c-9.1,1.7-18.4,2.7-27.6,2.9c-15.8,0.3-31.7,0.1-47.5-1c-11-0.8-21.9-2.6-32.3-6.6
	c-2.7-1-5.3-2.3-7.8-3.7c-4-2.2-7-5.5-9.1-9.6c-0.5-1-1-2-1.5-3c-4.5-7.8-12.2-11.5-21.1-9.9c-3,0.5-5.9,1.6-8.8,2.4
	C1599.1,1239.6,1597.6,1240.1,1595.6,1240.7z"/>
</svg>
