<?xml version="1.0" encoding="utf-8"?>
<!-- Generator: Adobe Illustrator 22.0.0, SVG Export Plug-In . SVG Version: 6.00 Build 0)  -->
<svg version="1.1" id="Layer_1" xmlns="http://www.w3.org/2000/svg" xmlns:xlink="http://www.w3.org/1999/xlink" x="0px" y="0px"
	 viewBox="0 0 2880 1800" enable-background="new 0 0 2880 1800" xml:space="preserve">
<path d="M1008.7,772.8c-2.4-0.5-4.4-0.1-6.5,0c-2.9,0.1-5.8,0.3-8.6,0.3c-5.6-0.1-9.5-2.8-11-8.2c-1.3-4.6-2.4-9.3-3.5-13.9
	c-0.1-0.6,0.1-1.3,0.2-2.1c-2.3-1.1-4.7-1.6-7.2-1.7c-9.6-0.4-16.9-5.2-23.3-11.9c-4.5-4.8-6.8-10.4-6.5-17c0.1-1.6,0.1-3.2,0.3-4.8
	c1-5.8,0.4-11.5-0.8-17.1c-0.6-3-1.2-5.9-1.6-9c-0.5-3.9-0.2-7.7,1.5-11.3c1.7-3.6,0.3-6.5-1.9-9.3c-0.6-0.7-1.4-1.3-2.2-1.9
	c-13.2-10.4-17.7-24.1-16-40.4c0.8-7.3,2.5-14.5,4.3-21.6c3.3-13.7,6.5-27.4,9.8-41.1c0.8-3.3,1.7-6.5,2.8-9.7
	c4.7-13.8,14.5-21.5,28.7-23.6c5.4-0.8,10.7-1.9,15.9-3.6c8.9-3,16.8-7.8,23.5-14.4c1-1,2-2,3.1-3c12.1-11.2,26.4-15.1,42.5-13.1
	c9.9,1.2,19.4,4.2,28.3,8.7c8,4,15.8,8.4,23.7,12.7c3.5,1.9,5.9,4.8,7,8.7c3.1,11.2,9.3,20.4,18.2,27.5c8.2,6.5,12.9,14.9,15.1,24.9
	c2.6,12.2,1.7,24.2-3.2,35.7c-3.8,9-9.8,16-18.4,20.8c-4.6,2.6-9,5.5-13.5,8.2c-1.9,1.2-4,2-6.3,2c-2.6,0.1-4.2-1-5.2-3.4
	c-0.8-2-1.3-4-0.5-6.1c2-5.7,0.2-10.3-3.8-14.4c-1-1-2-2.1-2.9-3.2c-2.8-3.5-3.8-7.3-2.6-11.7c0.7-2.6,1.3-5.3,1.6-8
	c0.5-5-0.8-9.6-4.3-13.3c-6-6.4-13.3-10.9-21.9-13.1c-4.5-1.1-8.9-0.6-13.2,1c-5,1.9-9.4,4.8-13.4,8.3c-1.8,1.6-2.7,3.4-2.5,5.9
	c0.4,4.8-1,9.2-3.6,13.2c-1.4,2.3-3,4.5-4.7,6.7c-4.1,5.4-6.2,11.5-6.2,18.3c0.1,7.7,0,15.4,0.1,23c0.2,11.3,4.3,21.2,11.4,29.9
	c5.6,6.9,12.3,12.6,19.6,17.5c9.8,6.5,20.3,11.6,31.1,16c8.1,3.3,16.1,3.3,24.2-0.2c11.6-4.9,23.7-7.6,36.4-7.1
	c2.7,0.1,5.4,0.4,8.1,0.7c3.7,0.5,7.3,0.4,11-0.5c5.9-1.4,11.7-3,17.3-5.6c18-8.3,36.5-8.7,55.2-2.9c2.9,0.9,5.7,2,8.6,3.1
	c13.3,5.1,26.9,6.6,41,4.5c14.1-2.1,28.1-0.7,41.8,3.1c6,1.7,11.9,3.8,17.7,5.9c7.5,2.7,14.9,5.7,22.4,8.5
	c6.6,2.5,13.4,4.1,20.6,4.3c8.3,0.3,16.3-1.1,23.9-4.2c7.9-3.2,16-5.7,24-8.2c3.7-1.2,7.3-2.4,10.9-3.7c4.5-1.7,8.7-4,12.5-7
	c13.5-10.6,29.1-15.7,46-17.3c1.9-0.2,3.8-0.4,5.7-0.5c4.6-0.2,8.7-1.9,12.4-4.5c2.4-1.7,4.6-3.5,6.9-5.2
	c12.8-9.3,25.6-18.6,38.4-28c1.5-1.1,3.1-2.2,4.6-3.5c2.6-2.3,4.1-5.3,4.1-8.9c0-1.6,0-3.2,0.1-4.8c0.7-5.9,3-11.1,7.3-15.2
	c0.8-0.8,1.6-1.5,2.5-2.2c6.7-5.5,11.5-12.5,14-20.8c2.1-6.9,5.4-13,9.9-18.4c3-3.6,4.3-7.7,3.7-12.5c-0.7-5.6-0.2-11.2,1.6-16.6
	c2.5-7.4,5.1-14.8,7.8-22.2c0.6-1.8,1.7-3.4,2.8-5c1.4-2.1,3-4.2,4.6-6.2c1.7-2.2,3-4.5,3.6-7.2c1.1-4.8,3.7-8.9,7.1-12.3
	c2.2-2.3,4.6-4.4,7.1-6.5c5.6-4.7,10.4-9.9,14.1-16.2c4.7-7.9,11-14.5,18.2-20.2c6.7-5.3,13.9-9.8,21.7-13.1c4.5-1.9,8.4-4.3,12-7.6
	c5.6-5.2,12.3-8,20.1-7.6c0.8,0,1.6-0.1,2.4-0.1c1.1-1.6,2.1-3.2,3.2-4.9c5.3,0,10.5,0,15.6,0c0.2,0.3,0.4,0.4,0.4,0.6
	c0.4,4.3,0.6,4.6,4.6,4.9c1.6,0.1,3.2,0.2,4.8,0.1c2.3-0.2,3-0.8,3.6-3.1c0.2-0.7,0.3-1.5,0.5-2.4c1.3-0.1,2.4-0.2,3.5-0.2
	c7.7,0,15.4,0.1,23,0c2.2,0,4.1,0.5,5.8,1.8c2.9,2.2,5.8,4.5,8.7,6.7c2.4,1.9,4.7,3.9,7.2,5.6c4.3,3.1,9.1,4.6,14.5,4
	c1.1-0.1,2.2-0.1,3.4-0.2c5.1-0.2,9.8,1.1,14.2,3.6c1.9,1.1,3.8,2.4,5.6,3.8c9.5,7.6,19,15.2,28.3,23c5.5,4.6,10.6,9.7,15.8,14.7
	c3.1,3,5.8,6.4,8.1,10.1c4.2,7,5.2,14.3,2.9,22.1c-1,3.2-1.8,6.5-2.6,9.7c-1.1,4.6,0.2,8.6,3.5,11.9c2.1,2.2,4.4,4.1,6.8,6
	c5.7,4.6,11.7,9,17.3,13.7c4.3,3.6,8.4,7.4,12.4,11.3c7.2,6.8,11.6,15.2,13.6,24.9c2.5,11.8,1.9,23.5-1.9,35
	c-2.3,6.8-6.1,12.7-10.5,18.2c-1,1.2-2.1,2.4-3,3.7c-3.7,5.2-4.6,10.9-2.4,16.8c1.5,4.3,2.2,8.7,1.9,13.2
	c-0.5,6.4-4.7,11.3-10.8,12.4c-3.1,0.6-6-0.1-8.9-1.4c-2.2-1-4.3-2.1-6.3-3c-1.9,0.6-2.4,2.2-3.2,3.6c-1.4,2.7-2.7,5.5-4.4,8
	c-6,8.9-14.5,13.8-25.2,14.4c-3.3,0.2-6.7,0.2-10.1-0.2c-10.1-1.3-20.3-2.8-30.4-4.3c-8.6-1.3-16.7-4.2-24.7-7.5
	c-1.8-0.7-3.6-1.5-5.4-1.9c-4.8-1.2-8.1,0.8-9.5,5.6c-0.2,0.6-0.2,1.3-0.4,1.9c-1.5,7.8-4.2,15.1-8.3,21.9c-3.4,5.8-7,11.5-10.8,17
	c-3.9,5.6-7,11.4-8.8,18c-2,7.1-4.3,14.1-6.4,21.1c-3.6,12.6-3.5,25.3,0.7,37.8c4.6,13.9,7.7,28,9.3,42.5c1.6,14.5,1.7,29,0.8,43.6
	c-1,16.2-3.7,32.1-6.5,48c-1,5.8-1.8,11.7-2.4,17.6c-1.2,11-4,21.7-8.2,31.9c-1.7,4-3.4,8-5,11.9c-6.4,15.2-11.7,30.8-15.9,46.7
	c-2,7.6-3.3,15.3-4.4,23.1c-2.3,15.5-4.6,31-6.5,46.6c-2.5,20.3-5.2,40.6-6.3,61.1c-0.4,7.7-1,15.3-1.8,23c-0.4,4-1.3,7.9-2.1,11.8
	c-1.7,8.6-0.2,16.5,4.3,24c2.6,4.4,5.5,8.7,8.2,13c3.9,6.3,7.5,12.6,10.5,19.4c2.9,6.8,5.1,13.8,5.8,21.2c0.4,4.5-0.1,9-1.6,13.2
	c-1.8,5.1-5.1,8.8-10.2,10.9c-7.9,3.2-16,5.7-24.5,6.2c-6.4,0.4-12.8,0.6-19.2,0.7c-7,0.1-14.1-0.1-21.1-0.1c-2.1,0-4.2,0-6.2,0.2
	c-4.2,0.4-5.4,2.1-4.4,6c0.5,2,1.2,4,1.9,5.9c1.8,5,3.1,10.1,3.8,15.3c0.4,3,0.5,6-0.1,9.1c-0.9,4.8-3.5,8.5-7.6,11.2
	c-3,1.9-6.3,3.2-9.7,4.2c-12.9,3.8-26,5.1-39.4,3.9c-8.3-0.8-16.4-2.8-24.2-5.8c-14.6-5.8-27.4-14.4-38.6-25.4
	c-3.9-3.8-7.2-8.1-9.9-12.9c-6.1-10.6-7.8-21.9-4.9-33.8c0.6-2.6,1.4-5.2,2.2-7.9c3.8-13.7,4.6-27.7,3.6-41.9
	c-1.1-16.3-1-32.6,0-48.9c0.6-9.4,1.4-18.8,2.3-28.2c0.6-6.5,1.4-13,2.3-19.5c1.1-7.3,0.9-14.7,0.2-22c-1.2-11.3-3.4-22.4-5.7-33.5
	c-0.5-2.5-1-5-1.5-7.5c-0.3-1.4-0.7-2.8-1.2-4.1c-1.5-3.8-4.2-5.9-8.4-6.1c-1.6-0.1-3.2-0.1-4.8,0c-15.7,0.8-30.1-3-43.4-11.2
	c-2.7-1.7-5.6-3-8.6-4.3c-3.1-1.4-6.4-1.9-9.8-1.7c-16,1.1-31.6-1.5-46.8-6.3c-10.5-3.3-21-6.8-31.4-10.4
	c-19-6.5-38.5-10.4-58.6-12.1c-10.5-0.9-20.4-3.8-29.5-9.2c-17.8-10.5-36.3-19.6-54.7-29c-5.8-3-11.9-3.7-18.1-3.9
	c-4.6-0.1-7.9,2.2-10,6.3c-1,2-1.7,4.1-2.6,6.2c-2.9,7.1-5.9,14.2-8.6,21.3c-2,5.2-3.8,10.5-5.3,15.9c-4,14.5-10,28-17.9,40.7
	c-8.2,13.3-17.7,25.5-28,37.1c-16.9,18.9-32,39.1-47.4,59.1c-6,7.8-8.9,16.9-10.4,26.5c-1.1,6.9-1.9,13.9-2.8,20.9
	c-1.1,8.6-2.5,17.1-3.4,25.7c-0.9,8.6-1.6,17.2-2.2,25.8c-0.4,5.6,0.7,11.2,2.3,16.6c2.5,8.9,5.1,17.8,7.6,26.8
	c1.4,4.8,2.5,9.6,2.2,14.6c-0.1,2.2-0.4,4.5-0.8,6.7c-1,5.5-4,9.7-8.6,12.8c-3.1,2.1-6.5,3.5-10,4.6c-9.4,2.8-19,4.5-28.8,4.9
	c-8.2,0.3-16.3,0.1-24.4-0.7c-6.8-0.6-13.7-0.3-20.6-0.5c-2.6-0.1-5.1-0.2-7.6-0.5c-5.6-0.7-10.4-3.2-14.2-7.3
	c-2.1-2.3-4.2-4.9-5.7-7.7c-5.5-10.2-9.9-20.8-12.1-32.2c-2.5-12.6-1.4-24.9,4-36.6c3.7-8,4.5-16.1,3.6-24.8
	c-1.2-11.5-0.8-23,1-34.4c2.5-15.9,7.4-31.1,13.5-45.9c5.7-14.1,10.8-28.4,14.4-43.2c5-20.2,6.3-40.7,4.7-61.4
	c-0.9-11.5-2-22.9-3.3-34.4c-2-17.3-5.2-34.5-9.7-51.3c-2.4-8.8-6.1-17.2-10.1-25.4c-1.5-3-3-6-4.4-9.1c-3.2-7-4.5-14.3-4.3-21.9
	c0.2-6.1-0.2-12.2-0.2-18.2c0-6.1,0-12.2,0.3-18.2c0.4-8,2.4-15.8,4.8-23.4c3.5-11.2,8-21.9,12.3-32.8c3.6-9,7.5-18,11.2-27
	c0.7-1.6,1.3-3.3,1.5-5c1.6-12.9,3.1-25.7,4.6-38.6C1008.8,774.2,1008.7,773.8,1008.7,772.8z"/>
</svg>
