<?xml version="1.0" encoding="utf-8"?>
<!-- Generator: Adobe Illustrator 22.0.0, SVG Export Plug-In . SVG Version: 6.00 Build 0)  -->
<svg version="1.1" id="Layer_1" xmlns="http://www.w3.org/2000/svg" xmlns:xlink="http://www.w3.org/1999/xlink" x="0px" y="0px"
	 viewBox="0 0 2880 1800" enable-background="new 0 0 2880 1800" xml:space="preserve">
<path d="M1143.7,787.8c-4.6,0.4-8.7,0.8-12.8,1.2c-8.3,0.8-16.5,1.7-24.8,2.5c-10.8,1.1-21.6,2.2-32.4,3.4c-9.2,1-18.4,2.3-27.7,3.1
	c-19.9,1.6-38.8-2.1-56.8-10.8c-11-5.3-21.1-12.1-30.4-20c-5.5-4.7-10.8-9.5-16.1-14.4c-7.2-6.8-14.3-13.8-21.5-20.6
	c-1.5-1.4-2.3-2.9-2.2-5c0.1-2.9,0-5.8,0.1-8.6c0-0.8,0.2-1.5,0.3-2.5c7.7-0.3,15.2-0.7,22.4,2c4.6,1.7,9.2,3.6,13.7,5.7
	c7.8,3.6,15.8,6.9,24.1,9.4c9,2.8,17.9,5.9,26.9,8.8c10.8,3.4,21.8,5,33.1,4.5c14.4-0.6,28.8-1.4,43.1-2.7
	c36.6-3.3,72.5-9.8,108-19.5c11.3-3.1,22.5-6.3,33.8-9.1c17.8-4.3,35.8-6.9,54.1-7c11.1-0.1,22,1.3,32.9,3c12.3,2,24.7,3.7,37,5.4
	c9.2,1.2,18.4,2.2,27.6,3.3c24.2,2.9,48.4,4.8,72.8,3.3c26.5-1.6,51.8-7.8,75.4-20.2c8.6-4.5,17.4-8.9,26-13.3
	c8.4-4.3,16.6-8.9,24.5-14.2c8.7-5.8,16.7-12.4,23.6-20.3c3.1-3.6,6.1-7.4,8.7-11.4c11.5-17.7,22.8-35.5,34.1-53.4
	c5-7.8,9.9-15.7,14.9-23.5c0.7-1.1,1.4-2.2,2-3.3c3-5.1,3.1-10.3,0.7-15.6c-0.6-1.3-1.4-2.5-1.9-3.9c-1-2.9-2.1-5.7-2.8-8.6
	c-1.3-5.5,0.2-10.5,3.9-14.7c1.9-2.1,4.2-4,6.5-5.6c2.5-1.7,5.2-3.2,7.9-4.5c22.1-10.9,44.2-21.8,66.2-32.8c2.9-1.5,5.9-2.2,9.2-2.2
	c8.2,0.2,16.3,0.1,24.5,0c2.6,0,5,0.4,7.3,1.7c2.4,1.3,4.9,2.3,7.5,3c19.4,5.5,38.8,11,58.1,16.5c3.9,1.1,7.6,2.4,11.2,4.3
	c8.8,4.9,13.6,12.3,14.2,22.4c0.1,1.9-0.1,3.8,0.1,5.8c0.2,2.4,0.3,4.8,0.8,7.1c1.1,4.7,4,8.3,8.2,10.8c2.9,1.8,6.1,2.8,9.4,3.6
	c12,2.8,24,5.5,36,8.3c12.3,2.8,24.6,5.7,36.9,8.5c0.9,0.2,1.8,0.5,2.9,0.9c0.1,1.2,0.3,2.3,0.3,3.3c0,9,0,17.9,0,26.9
	c0,1.1,0,2.3-0.2,3.3c-1.7,7.2-3.1,14.4-5.2,21.4c-4.9,16.6-15.5,28.4-31.2,35.6c-8.1,3.7-16.6,5.8-25.3,7.4
	c-17.3,3-34.7,5.8-52,8.9c-5.5,1-11,2-16.4,3.6c-17.8,5.1-29.6,16.6-35.4,34.1c-1.4,4.1-2.4,8.3-3.3,12.5c-4.5,20.6-10,41-15.5,61.4
	c-3.2,11.9-6.2,23.8-9.4,35.7c-2.6,9.6-3.8,19.4-3.5,29.4c0.4,12.9-1.1,25.5-4.4,38c-4,15.1-10.4,29.2-19,42.2
	c-3.5,5.3-7.4,10.4-11.3,15.5c-2.6,3.5-5.3,6.9-8,10.2c-1.9,2.3-3.8,4.8-6.1,6.7c-12,10.2-20.2,23-25.5,37.7
	c-3.2,8.9-5.4,18.1-7.2,27.3c-5.6,28.9-12.2,57.6-18.8,86.2c-2.3,10-4.7,19.9-6.7,30c-1.8,9.3-1.9,18.8-1.1,28.2
	c1.2,14.9,4.1,29.4,7.4,43.9c0.9,4,1.7,8.1,2.6,12.2c0.5,2,0.9,4.1,1.6,6c1.8,5.2,5.4,8.6,10.6,10.2c1.1,0.3,2.2,0.7,3.3,0.8
	c4.8,0.8,8.7,3.1,12,6.5c5.9,6,9.6,13.1,10.2,21.6c0.2,3.1-0.9,5.6-3,7.8c-1.9,1.9-4,2.8-6.9,2.4c-13.6-1.8-27.3-3-40.9-5.5
	c-4.9-0.9-9.7-2-14.6-3c-3.2-0.6-6-2.2-8.3-4.5c-4.3-4.3-7.3-9.3-9-15.1c-2.9-9.8-5.9-19.6-8.6-29.5c-3.7-13.4-7-26.9-10.7-40.3
	c-1.5-5.4-1.5-10.6,0-16c3.5-12,5-24.4,5.7-36.9c1.1-17.9,0-35.8-0.5-53.7c-0.2-8.8-0.3-17.6-0.7-26.4c-0.3-8.6-0.8-17.3-1.2-25.9
	c0-0.6-0.2-1.2-0.4-1.9c-0.5-0.1-1-0.4-1.4-0.3c-4.3,0.9-8.3,2.5-12,4.8c-5.6,3.5-8.9,8.7-10.8,14.8c-1.8,5.6-3.4,11.3-5,17
	c-5.5,19.9-9.6,40.1-12.2,60.6c-3.6,27.8-4.9,55.8-3.4,83.8c0.9,17.6,2.2,35.1,2.1,52.7c0,2.4,0.4,4.8,0.8,7.1
	c1,5.1,3.7,9.2,7.7,12.4c2.2,1.8,4.7,3.3,7.2,4.7c10.8,5.6,19.9,13.4,28.4,21.9c1.3,1.3,2.4,3,3.2,4.7c1.8,3.9,0.8,7.6-2.6,10.2
	c-2.1,1.6-4.5,2.4-7,2.9c-11.2,2.4-22.5,3.3-33.9,2.5c-11.5-0.7-22.8-2.7-34.1-5.3c-3.6-0.8-6-2.8-7.8-5.8c-1.6-2.7-2.4-5.6-3.1-8.5
	c-2.3-9.7-4.5-19.3-6.7-29c-1-4.5-2.1-9-3.2-13.5c-1.8-8-4.7-15.6-8.1-23c-2.3-4.9-4.2-10-6.2-15.1c-1.8-4.6-1.9-9.2-0.6-14.1
	c3.7-14,5.2-28.3,5.4-42.7c0.2-12-0.2-24-0.5-36c-0.2-8.5-0.7-16.9-1-25.4c-0.8-26.9-1.5-53.7-2.4-80.6c-0.1-2.2-0.4-4.5-0.8-6.6
	c-0.8-3.7-3-6.4-6.5-7.8c-2-0.9-4.2-1.6-6.4-2c-26.1-4.6-52.1-10-78.1-15.3c-12.8-2.6-24.8-7.3-36-14.1c-8-4.8-15.4-10.3-22.6-16.2
	c-3.2-2.7-6.3-5.5-9.5-8.1c-3.5-2.9-6.7-6-8.2-10.4c-0.1-0.4-0.6-0.7-1-1.1c-0.4,0.3-0.9,0.5-1.2,0.8c-0.6,0.6-1.1,1.2-1.5,1.8
	c-10.5,14.4-22.8,27.2-34.9,40.2c-8.2,8.8-16.4,17.6-24.5,26.4c-2.3,2.5-4.5,5-6.4,7.8c-10.8,15.2-20.4,31-27.9,48.1
	c-5.8,13.1-9.8,26.7-11.6,40.9c-1.4,11.7-1.3,23.3,0.7,34.9c1.2,7.1,4.7,12.8,10.6,17c3.7,2.6,7.1,5.4,10.5,8.3
	c3.4,2.9,6.4,6.3,8.8,10.1c1.5,2.3,2.6,4.8,3.1,7.5c0.8,4.1-0.8,7.6-4.5,9.7c-2.1,1.2-4.4,1.9-6.9,1.9c-5.4,0.1-10.9,0.5-16.3,0.3
	c-7-0.3-14-1-21.1-1.4c-7.2-0.4-11.5-4.4-13.7-10.9c-2.4-7.1-4.4-14.4-6.5-21.6c-2.1-7.6-3.5-15.3-4.1-23.1
	c-0.5-6.4-0.1-12.8,0.9-19.1c2-11.6,2.6-23.2,1.8-34.9c-0.7-11.7-1.2-23.3-2-35c-0.8-10.6,1.7-20.3,6.9-29.5
	c5.7-10.2,11.4-20.4,17.3-30.5c4.4-7.6,8.9-15.2,13.3-22.8c0.8-1.4,1.6-2.8,2.5-4.4c-1-0.8-1.9-1.6-2.7-2.2c-0.6,0.2-1,0.2-1.1,0.4
	c-2.5,2.7-4.6,5.7-6.3,9c-1.3,2.5-2.9,5-4.6,7.3c-19.3,25.2-39.6,49.4-60.7,73.1c-5.8,6.6-11.4,13.4-17.1,20.1
	c-6.6,7.8-11.7,16.5-15,26.1c-3.1,9.1-5.7,18.3-8.6,27.5c-1.9,6.1-3.8,12.2-6,18.2c-4.6,12.1-5.8,24.5-4,37.3
	c0.1,0.8,0.2,1.6,0.3,2.4c0.9,8.7,5.2,15.5,12.2,20.3c9.4,6.4,13.3,15.6,15.3,26.1c0.2,0.9,0.2,1.9,0.2,2.9c0,2.9-1.1,5.4-3.6,6.9
	c-2.3,1.4-4.7,2.7-7.2,3.7c-7.4,3-15,2.7-22.7,1.4c-7.9-1.3-15.5-3.8-23.1-6.3c-6.6-2.2-9.9-6.9-10.3-13.6c-0.3-4.3,0-8.6,0.3-12.9
	c0.7-10,1.6-20.1,2.5-30.1c0.8-9.9,1.7-19.8,2.5-29.6c0.8-8.8,1.4-17.5,2.2-26.3c1.1-12.4,2.4-24.8,3.5-37.3
	c0.5-5.4,0.7-10.9,0.6-16.3c-0.2-12.2,2.7-23.4,8.7-34c3-5.3,6.6-10.2,10.3-15c7.2-9.1,12.8-19.1,16.6-30.1c4.9-14.3,6.3-29,5-44
	c-0.9-10.2-1.5-20.4-2.2-30.6c-0.5-8.3-0.8-16.6-1.3-24.9c-0.2-4.6-0.7-9.3-0.9-13.9c-1.2-32.2,8.6-60.8,27.9-86.3
	c1.8-2.4,3.6-4.9,5.4-7.4C1142.9,789.7,1143.2,789,1143.7,787.8z"/>
</svg>
