<?xml version="1.0" encoding="utf-8"?>
<!-- Generator: Adobe Illustrator 22.0.0, SVG Export Plug-In . SVG Version: 6.00 Build 0)  -->
<svg version="1.1" id="Layer_1" xmlns="http://www.w3.org/2000/svg" xmlns:xlink="http://www.w3.org/1999/xlink" x="0px" y="0px"
	 viewBox="0 0 2880 1800" enable-background="new 0 0 2880 1800" xml:space="preserve">
<path d="M1676.9,502.8c-2.4-2-4.4-3.8-6.5-5.5c-3-2.4-6.1-4.7-9.1-7c-8.1-6.3-10.7-15.2-11.8-24.8c-0.1-1,0.3-2.2,0.7-3.2
	c0.9-2.4,1.8-4.8,2.9-7.1c1.1-2.3,2.3-4.6,3.9-6.5c5.7-6.9,11.8-13.4,18.7-19.2c7.3-6.2,15.3-11,24.5-13.8
	c8.1-2.5,16.4-2.8,24.7-1.8c6.6,0.8,13.1,0.7,19.6,0.2c11.3-0.8,22.7-1.6,34-2.6c12.3-1,24.5-2.2,36.8-3.5
	c7.8-0.8,15.6-1.9,23.3-3.1c4.7-0.8,9.4-2,14-3.3c9-2.5,18-2.6,26.9,0.4c8.8,2.9,17.9,4.7,27,6.5c13,2.5,23.2,9.7,31.1,20.1
	c3.8,5,5.6,10.6,5,17.1c-1.1,12.3-2.5,24.5-6.4,36.3c-2,6.1-3.1,12.4-3.2,18.8c-0.1,13.5,5,24.6,15,33.5c1.9,1.7,4,3.1,6,4.8
	c1.6,1.3,3.2,2.7,4.5,4.2c2.1,2.6,3,5.6,1.8,9c-0.8,2.1-1.5,4.2-2.4,6.3c-4.3,9.9-6.7,20.3-8.5,30.9c-0.3,1.9-0.7,3.8-1.3,5.6
	c-4.9,13.6-13.4,24.3-25.8,31.7c-8.6,5.1-18,8.2-27.7,10.4c-2.1,0.5-3.8,0.2-5.1-1.6c-0.5-0.7-0.9-1.4-1.3-2
	c-1.3,0.4-2.1,0.6-2.8,0.9c-9.2,4.3-18.9,4.7-28.7,3.3c-5.1-0.7-10-1.9-15.1-2.9c-1.6-0.3-3.1-0.6-4.9-1c-0.4,0.8-1,1.6-1.2,2.5
	c-4,14.8-8.1,29.6-12.1,44.4c-1.6,6-2.6,12.2-3.2,18.4c-0.6,5.9-0.1,11.8,1,17.7c0.6,3,1,5.9,0.5,9c-0.5,3-0.5,6.1-0.6,9.1
	c-0.2,3.4,0.3,6.7,1.3,9.9c3.8,13.4,7.1,26.9,9.5,40.6c3.5,20.4,5.3,40.9,3.7,61.6c-0.2,2.4-0.2,4.8-0.2,7.2
	c0,9.9,0.2,19.8,0.2,29.8c0,9.1-0.1,18.2-0.3,27.4c-0.2,8.4-2.3,16.4-6.4,23.9c-3.5,6.4-7,13-10.2,19.5c-5.2,10.5-9.5,21.3-11.5,33
	c-0.6,3.3-1,6.6-1.3,10c-1,9.4-1.8,18.8-2.8,28.2c-1.3,12.1-1.5,24.3-0.9,36.4c0.3,5.6,0.4,11.2,0.6,16.8c0.2,8.7-0.6,17.3-1.5,25.9
	c-1.4,13.2-2.9,26.4-4.4,39.6c-1.1,9.9-2.4,19.7-3.3,29.6c-0.9,9.2-1.8,18.5-2.2,27.7c-0.9,22.7-1.5,45.4-2.2,68.1
	c-0.3,10.2-0.6,20.5-0.9,30.7c-0.1,5.4-0.1,10.9,0.9,16.3c1.4,8,4.7,14.9,10.6,20.5c1.9,1.8,3.2,3.9,4,6.4c2.4,7,5.4,13.7,9.1,20
	c6.3,10.6,14.6,19.4,24.9,26.3c1.7,1.1,3.5,2.3,5,3.7c2.7,2.5,4.2,5.6,4.1,9.4c-0.1,3.4-1.2,6.2-3.7,8.5c-2.6,2.4-5.7,4.1-9.2,5.1
	c-4,1.1-8.1,1.8-12.3,2c-9.3,0.5-18.5-0.8-27.7-2.4c-7.9-1.4-15.8-2.6-23.8-3.2c-5.8-0.4-10.8-2.8-15-6.7c-7.5-7.2-11-16-10.5-26.3
	c0.1-2.4,0-4.7-0.6-7.1c-1.8-8-3.5-15.9-6.5-23.5c-2.5-6.3-3.3-13-4-19.7c-1.5-12.9-3-25.7-4.6-38.6c-0.7-5.6-1.6-11.1-1.9-16.7
	c-0.2-3.5,0.1-7.1,0.9-10.5c2.2-9.2,2.1-18.4,1.1-27.7c-0.9-9.4-1.6-18.8-2.3-28.2c-0.8-9.7-1.8-19.4-2.5-29.2
	c-0.8-10.7-2.3-21.3-2.2-32.1c0-4.1-0.9-8.3-1.4-12.4c-0.5-3.5-0.5-7-0.2-10.5c0.3-4.3,0.3-8.6,0.3-12.9c0-15.9-1.3-31.6-4.2-47.2
	c-0.5-2.8-0.9-5.7-1.4-8.5c-0.2-0.9-0.4-1.8-0.7-3c-1.3-0.1-2.6-0.3-3.8-0.3c-14.2-0.1-28.5,0-42.7-0.2c-8.1-0.1-14,3.4-17,10.8
	c-4.5,11.1-8.8,22.3-11,34.2c-1.1,6-1.4,12-1.1,18.1c0.2,5.6-0.4,11.2-0.8,16.7c-0.8,9.9-1.7,19.8-2.5,29.6
	c-0.9,10.5-1.8,21-2.5,31.6c-0.6,10.1-0.8,20.1-1.4,30.2c-0.7,12.5-1.5,24.9-2.4,37.4c-0.7,10.5-1.8,21-2.4,31.6
	c-0.8,13.7-1.4,27.5-1.8,41.2c-0.3,10.9,0.6,21.7,2.7,32.5c1.5,7.6,3.8,14.9,7.2,21.8c4.6,9.3,9.2,18.6,13.8,27.9
	c0.4,0.9,0.9,1.7,1.4,2.6c0.7,0.2,1.5,0.4,2.2,0.7c2.7,0.9,4.3,2.8,4.8,5.5c1.4,6.9,2.8,13.8,3.9,20.7c0.7,4.1-0.9,6.2-5,7.4
	c-9.9,2.8-19.9,4.6-30.3,4.6c-5.8,0-11.6-0.6-17.1-2.4c-5-1.6-10-1.8-15.2-1.3c-3.2,0.3-6.4,0.5-9.6,0c-0.6-0.1-1.3-0.2-1.9-0.2
	c-2.8-0.4-4.4-1.9-5.5-4.6c-4.5-11.2-6.3-22.8-6.3-34.7c0-7.8,0.1-15.7,0.2-23.5c0.2-12.2,0.6-24.3-0.4-36.5
	c-0.8-9.3-2.8-18.3-7.4-26.6c-1.5-2.8-2.1-5.7-1.5-8.8c0.5-2.5,1.1-5,1.8-7.5c2.3-8,4.6-16,5.6-24.3c0.6-5.3,0.6-10.5,0-15.8
	c-1.2-11.3-2.5-22.6-3.4-33.9c-1.3-15.3-2.5-30.6-3.5-45.9c-1.2-18.2-2-36.4-3.3-54.6c-0.8-11.5-1.8-23-3.2-34.4
	c-1.5-12.9-3.5-25.7-5.4-38.5c-0.7-5.1-1.7-10.1-2.5-15.1c-1.2-7.3-5.2-12.6-11.9-15.8c-7.7-3.6-15.4-7.2-23.1-10.6
	c-9.5-4.2-19.1-8.1-28.6-12.5c-11.8-5.5-22.9-12.1-33-20.4c-3.4-2.9-6.7-5.9-10-9c-7.3-7-14.9-13.6-23.4-19.1
	c-7.6-4.9-15.6-8.8-24.3-11.2c-3.2-0.9-6.3-0.9-9.5-0.2c-7.5,1.6-14.3,4.7-20.5,9c-7.4,5.2-13.7,11.4-19,18.8
	c-5.8,8.1-14.1,12.9-23.6,15.4c-2,0.5-4.1,0.5-6.1-0.3c-2.7-0.9-5.5-1.7-8.2-2.6c-0.9-0.3-1.9-0.5-2.8-0.6c-1.2-0.1-2.3,0.6-2.6,1.7
	c-0.3,1.2-0.5,2.5-0.6,3.8c-0.4,6.1-1.5,12-4,17.7c-3.7,8.7-7.3,17.4-11,26.1c-2.1,5-5,9.6-8.4,13.9c-7,9-13.2,18.5-19.4,28
	c-1.9,2.9-3.6,6.1-5.3,9.1c-2.1,4-4.7,7.6-7.7,11c-14.4,16-26.9,33.3-36.9,52.5c-6.7,12.9-12.2,26.4-16,40.5
	c-0.4,1.5-0.8,3.1-1.4,4.6c-0.5,1.3-1,2.9-2,3.8c-2.5,2.1-2.9,4.9-3.1,7.7c-0.3,5.7-0.7,11.5-0.8,17.2c-0.2,5.9-0.1,11.8-0.1,17.8
	c-0.1,6.4-1,12.7-2.6,19c-1.5,6-1.1,12.1,0,18.1c0.5,3.2,2.3,6,4.5,8.4c1.7,1.9,3.6,3.6,5.6,5.2c2.4,1.9,4.9,3.5,7.5,5.1
	c13.3,8.1,23.1,19.5,31,32.7c0.9,1.5,1.7,3.1,2.4,4.7c0.5,1,0.9,2.1,1.2,3.1c1.6,6.2-1,10.4-7.3,11.5c-1.9,0.3-3.8,0.4-5.7,0.1
	c-3.2-0.4-6.3-0.9-9.4-1.7c-7-1.8-14.2-2.5-21.3-3.3c-2.8-0.3-5.8-0.1-8.6,0.4c-6.5,1.1-12.7,0.3-18.7-2.5
	c-7-3.2-12.9-7.7-17.2-14.1c-2.7-4-4.1-8.3-3.7-13.1c0.2-2.3,0.6-4.5,2.4-6.1c1.2-1.1,1.4-2.4,1.4-3.9c-0.1-5.9-0.1-11.8-0.3-17.8
	c-0.4-15.2-0.9-30.4-1.3-45.6c-0.1-4.5-0.6-8.9-1.3-13.3c-2.5-17.1-4.9-34.2-7.3-51.3c-0.8-5.9-1.4-11.8-1.9-17.6
	c-0.5-5.1-0.3-10.2,0.7-15.3c0.8-3.8,2.1-7.4,4.2-10.6c7.3-11.5,14.6-23,22-34.3c6.3-9.6,12.8-19.1,19.2-28.7
	c3-4.5,5.8-9.2,7.8-14.3c3.2-8.1,3.9-16.4,1.9-24.9c-1.6-7.3-2.8-14.8-4.2-22.1c-0.6-2.8-1.3-5.6-2.2-8.3c-1.8-5.3-5.6-8.4-11.3-8.9
	c-5.9-0.5-11.8-1.1-17.7-1.7c-0.8-0.1-1.5,0-2.4,0c-0.4,0.9-0.7,1.6-1,2.4c-3.7,12.7-9.6,24.4-17.1,35.2c-5.5,7.9-11.4,15.4-17.3,23
	c-7.3,9.3-14.9,18.4-22.1,27.8c-13.3,17.5-24.9,36-34.5,55.8c-7.7,15.8-15.3,31.7-23.2,47.4c-5.3,10.6-10.8,21.1-16.6,31.4
	c-14.1,25-23.7,51.7-29.4,79.8c-5.6,27.6-7.5,55.4-7.2,83.5c0.1,7.8,0.3,15.7,0.4,23.5c0.1,8-2.1,10.6-9.9,12.1
	c-6,1.1-11.9,2.4-17.9,3.6c-0.9,0.2-1.9,0.4-2.8,0.5c-5.5,0.8-10.5-0.1-14.5-4.4c-3.7-3.9-7.6-7.8-11.5-11.6c-1.7-1.7-2.4-3.7-2.8-6
	c-0.7-4.8-0.5-9.5,0.7-14.2c3.6-13.9,6.2-28.1,8.7-42.3c2.3-13.1,5.2-26,9.3-38.7c6.2-19.5,10.8-39.5,13.9-59.7
	c1.3-8.4,2.4-16.8,3.5-25.2c1.5-11.5,4.7-22.5,9.6-33c3.2-6.8,6.6-13.5,10.2-20.1c5.2-9.7,10.6-19.3,15.9-29.1
	c6.8-12.7,12-26.1,15.9-40c13-47,25.7-94.1,37.6-141.4c2.8-11.2,5.3-22.4,6.8-33.8c1-7.6,2-15.3,2.1-22.9
	c0.3-14.8,3.8-28.8,9.4-42.3c1.8-4.3,3.7-8.5,5.6-12.7c3.6-7.8,7.4-15.6,11.1-23.4c5.5-11.6,12.1-22.5,19-33.3
	c2.8-4.3,5.6-8.6,8.3-12.9c3.4-5.6,4.4-11.6,2.8-18c-1.1-4.2-3.3-7.6-6.7-10.2c-1-0.8-2.1-1.5-3.1-2.3c-13.5-9.7-27-19.4-40.6-29.1
	c-5.3-3.7-9.9-8.1-13.9-13.1c-11.5-14.3-23.2-28.5-34.7-42.9c-7.5-9.4-14.2-19.3-19.7-30.1c-10.5-20.8-14.8-42.8-12.9-66
	c0.5-5.4,1.4-10.8,2.1-16.2c1.1-8.7,2.3-17.4,3.4-26.2c1.5-10.9,2.8-21.9,4.4-32.8c1.3-8.9,2.7-17.7,4.3-26.5
	c1.1-6.1,2.7-12.2,5.1-18c0.9-2,1.1-4.3,1.4-6.5c2.3-16.6,5.1-33.2,8.8-49.6c1.8-7.8,3.8-15.5,6.6-23c0.6-1.6,1.3-3.3,2-4.9
	c2.2-4.8,6.1-7.8,10.6-9.9c3.9-1.8,7.1-0.9,9.6,2.8c1.1,1.7,2.1,3.6,2.8,5.6c1.7,4.8,3.2,9.7,4.6,14.6c1.3,4.5,2.3,9,3.5,13.5
	c0.5,1.6,0.4,3.1,0.1,4.7c-0.8,3.3-1.4,6.6-1.8,9.9c-0.6,3.8-1.5,7.5-2.4,11.2c-1.5,5.6-2.5,11.2-3.7,16.9
	c-2.1,10.3-4.3,20.7-6.2,31c-1.3,7.1-2.3,14.2-3.6,21.3c-2.5,13.7-5.9,27.2-11.4,40c-1.2,2.7-1.6,5.5-2,8.4
	c-1.8,15.1-0.3,30,3.3,44.7c5.4,21.9,15.4,41.6,28.6,59.8c4.1,5.7,9,10.8,14.2,15.6c16.7,15.6,35.4,28.4,55.4,39.3
	c1.1,0.6,2.3,1.2,3.6,1.3c8.4,0.7,16.2,3.6,23.7,7.1c3,1.4,6.1,2.8,9.3,3.9c13.3,4.6,25.9,3.1,37.5-4.7c3.4-2.3,7.1-3.5,11.1-4.2
	c13.5-2.6,27-5.4,40.5-8.1c14.4-2.9,28.9-5.4,43.6-6.9c8.3-0.8,16.6-1.4,24.9-2c13.9-1,27.8-2.1,41.7-2.8
	c24.8-1.4,49.5-2.1,74.4-1.3c13.1,0.4,26.2,0.9,39.3,1.3c14.6,0.4,29.1,0.1,43.6-1.3c21.1-2.2,41.6-7,61-15.9
	c3.7-1.7,7.8-2.8,11.7-4.2c5.1-1.8,10.2-3.7,15.3-5.6c6.1-2.4,12-5.3,17.6-8.7c6.1-3.7,10.5-8.6,13.5-15.1
	c4.9-10.9,8.1-22.2,10.4-33.8c3.5-17.8,8.3-35.2,15.5-51.8c3.9-9.1,8.5-17.9,13.9-26.3C1675.1,505.7,1675.8,504.5,1676.9,502.8z"/>
</svg>
