<?xml version="1.0" encoding="utf-8"?>
<!-- Generator: Adobe Illustrator 22.0.0, SVG Export Plug-In . SVG Version: 6.00 Build 0)  -->
<svg version="1.1" id="Layer_1" xmlns="http://www.w3.org/2000/svg" xmlns:xlink="http://www.w3.org/1999/xlink" x="0px" y="0px"
	 viewBox="0 0 2880 1800" enable-background="new 0 0 2880 1800" xml:space="preserve">
<path d="M1130.4,628.8c-2.1,2.1-3.9,3.8-5.6,5.5c0.2,1.3,1,1.4,1.8,1.2c3.1-0.7,6.3-1.3,9.3-2.1c5.6-1.5,11.3-2.3,17.1-1.5
	c3.1,0.4,5.9,1.3,8.6,2.7c2.3,1.2,4.6,2.3,7,3.2c5.4,1.9,11,2.1,16.6,0.9c7.9-1.8,15.6-1,23.1,1.7c4.1,1.4,8,3.2,12.1,4.5
	c5,1.6,10.1,3.2,15.2,4.4c10.7,2.4,18.5,11.7,18.6,22.6c0,2.1-0.3,4.1-0.5,6.2c-0.1,1.1-0.3,2.2-0.3,3.3c0.1,2.3,1.1,4,3.4,4.7
	c1.1,0.4,2.2,0.6,3.2,0.9c4.2,1.2,8.4,2.2,12.4,3.5c9.5,3.2,14.6,10,15.5,19.9c0.3,3,0.4,6.1,0.3,9.1c-0.2,17.5,18.2,32,35.3,28.3
	c2-0.4,4.1-0.6,6.2-0.7c6.8-0.5,9.7,6.6,7.3,11.3c-1,2-2.3,3.9-3.9,5.4c-4.3,4.1-8.8,7.9-13.2,11.9c-0.8,0.7-1.5,1.5-2.5,2.4
	c2.1,1.6,4.2,2.3,6.3,2.8c7.3,1.6,14.7,3.2,22.1,4.6c1.7,0.3,3.5,0.2,5.2,0.1c2.9-0.2,5.7-0.6,8.6-1c3.6-0.5,7-0.1,10.4,0.9
	c6.1,1.8,12.3,3.4,18.4,5.3c5.1,1.6,10.3,2.1,15.6,1.9c20.8-0.8,41.6-1.5,62.3-2.2c2.4-0.1,4.8-0.1,7.2-0.1
	c5.9,0.1,11.3,1.8,16.1,5.4c3.7,2.8,7.7,5.2,12.1,6.7c8.9,3.1,16.7,1.4,23.3-5.3c2-2,3.8-4.3,5.4-6.7c1.8-2.7,3.3-5.5,4.7-8.3
	c3.3-6.9,6.5-13.9,9.6-20.9c3.4-7.8,6.6-15.6,9.7-23.5c1.1-2.7,2-5.4,2.8-8.2c2.4-7.8,4.6-15.6,6.9-23.4c2.3-7.7,5-15.2,8.2-22.5
	c4.9-11.2,8.4-22.8,10.9-34.7c2.7-12.7,8-24.3,16.4-34.3c4.8-5.7,8.6-12,11.6-18.7c1.9-4.4,3.9-8.8,5.7-13.2
	c6-14.7,15-27.4,26.4-38.5c4.8-4.7,9.5-9.5,13.8-14.7c6.9-8.2,15.7-12.3,26.1-13.6c7.9-0.9,15.9-2,23.8-3.2c2.4-0.3,4.7-0.7,6.6-2.5
	c0.6-0.6,1.7-1,2.6-1c7.7-0.1,15.3,0,23.2,0c0.8,1.6,1.6,3.2,2.4,4.7c1,1.8,1.9,3.7,3,5.5c1.2,2.1,3.1,2.7,5.3,2.4
	c0.6-0.1,1.3-0.2,1.9-0.5c6.4-2.2,12.9-2.1,19.5-1.4c9.2,0.9,18.4,2.2,27.6,3.2c3,0.3,6.1,0.4,9.1,0.6c2.4,0.2,4.8,0.3,7.2,0.6
	c5.4,0.6,10.1,2.8,14.4,6.1c4.8,3.7,9.6,7.4,14.6,10.8c7.1,4.8,13.3,10.5,18.6,17.2c4.2,5.3,8.2,10.7,12.3,16
	c2.7,3.5,5.5,7.1,8.3,10.5c5.5,6.5,11.6,12.4,18.8,17c1.5,0.9,2.9,2,4.2,3.2c3.6,3.4,4.2,6.8,2.2,11.3c-1.5,3.4-3.7,6.4-6.3,9
	c-4.1,4.2-8.4,8.3-12.6,12.5c-1.8,1.8-3.6,3.6-5.1,5.7c-2.8,4-2.7,7.1,0.4,10.9c1,1.2,2.1,2.4,3.4,3.4c9.1,7.4,18.6,14.1,29.1,19.4
	c7.9,3.9,16.1,7,24.8,8.6c4.9,0.9,9.6,2.4,14,4.7c1.4,0.7,2.8,1.6,3.9,2.8c3.1,3.2,1.6,9.5-2.9,10.4c-1.9,0.4-3.7,0.8-5.8,1.2
	c-1.1,2-0.4,3.9,0.6,5.7c0.7,1.3,1.7,2.3,2.4,3.6c3.7,5.6,3.6,10.5-0.3,16c-2.8,4.1-5.8,8.1-8.3,12.3c-5.3,8.6-9.1,18-12.5,27.5
	c-2.6,7.2-5.1,14.5-7.6,21.7c-0.5,1.4-0.9,2.7-1.5,4c-3.4,7.9-9.4,12.8-17.8,14.6c-6.9,1.5-14,1.5-21,1.7c-2.2,0.1-4.5,0-6.7,0.1
	c-4.6,0.1-7.9,2.4-9.8,6.5c-0.8,1.7-1.5,3.5-2.3,5.3c-3.7,8.4-9.6,15.1-17.3,20c-2.3,1.5-4.7,2.7-7.8,3c0-1-0.2-1.8,0-2.7
	c0.4-2.2,1.4-4.2,1.3-6.5c-0.6,0-1.1-0.1-1.4,0c-6.8,2.8-13.6,5.7-20.3,8.6c-0.9,0.4-1.7,0.8-2.5,1.4c-5.2,3.2-7.7,9-6.2,14.9
	c0.9,3.4,2.1,6.7,3.5,9.9c1.6,4,3.6,7.8,5.4,11.8c2.3,5.1,1.6,6.7-3.6,8.7c-2.1,0.8-4.2,1.5-6.3,2.4c-1.8,0.8-2.1,2.2-0.9,3.9
	c0.6,0.9,1.4,1.7,2.1,2.6c0.6,0.7,1.3,1.5,1.8,2.3c1.6,2.7,1,4.9-1.7,6.5c-0.5,0.3-1.2,0.6-1.7,0.8c-4.5,2.2-7.8,5.6-9.9,10.1
	c-1.2,2.6-2.3,5.3-3.2,8c-2.7,8.5-6.5,16.4-11.9,23.4c-8,10.7-12.9,22.5-16.3,35.4c-5.5,20.9-12,41.5-18,62.2
	c-1.8,6-3.5,12-5.3,17.9c-0.8,2.4-1.6,4.9-2.7,7.2c-2.1,4.5-5.4,8-10.1,9.7c-4.2,1.5-5.9,4.4-6.5,8.6c-0.8,6.3-1.7,12.7-3.6,18.8
	c-0.5,1.7-1.1,3.3-1.6,5c-0.6,2-1.9,3.3-3.7,4.1c-2.5,1.1-4.9,2.4-7.4,3.4c-2.5,1.1-4.3,2.6-5.4,5.2c-3.5,8.1-7.1,16.1-10.6,24.2
	c-1.6,3.7-1.4,7.5-0.8,11.3c0.2,1.4,0.5,2.8,0.9,4.2c2.6,8.6,1.8,17.1-0.8,25.5c-0.7,2.3-1.5,4.5-2.3,6.8
	c-2.1,5.9-1.1,11.3,2.8,16.2c4.1,5.1,8.2,10.2,12.2,15.4c4.1,5.3,6.8,11.2,7.3,18c0.8,9.6-2.5,17.6-10,23.7
	c-4.6,3.8-9.9,5.9-15.7,6.7c-5.1,0.7-10.1,1.4-15.2,1.8c-12.9,1.1-25.8,2-38.7,3.2c-9.6,0.9-19.1,2-28.6,3.2
	c-10,1.2-20.1,2-30.2,1.4c-3-0.2-6-0.6-9.1-0.9c-11.3-1-17.2-9.5-18.9-17.6c-0.5-2.6-1-5.3-1.5-8.3c-1,0.3-1.8,0.3-2.4,0.7
	c-2,1.1-3.8,2.3-5.8,3.4c-0.8,0.5-1.7,0.8-2.9,1.3c-0.3-1.9-0.7-3.4-0.9-4.9c-0.8-8.4,0.9-16.2,5.1-23.5c1-1.7,2-3.3,2.9-5
	c1.1-2.2,0.5-3.8-1.8-4.5c-2-0.6-4-0.9-6.1-1.3c-1.3-0.2-2.6-0.3-3.8-0.6c-2.5-0.6-3.8-2.2-3.9-4.8c0-1.3,0.3-2.5,0.5-3.8
	c1.5-6.6,3-13.1,4.4-19.6c0.5-2.3,0.8-4.7,0.7-7.1c-0.1-7.6-3.8-13-10.6-16.3c-1.9-0.9-3.9-1.5-5.9-1.9c-8.3-1.6-16.7-3-25-4.4
	c-8.5-1.5-16.6-0.1-24.3,3.6c-4.9,2.4-10,4.3-15.4,5.3c-8.3,1.6-16.6,1.2-24.8-0.5c-5-1.1-9.9-2.5-14.9-3.7
	c-6.4-1.6-12.8-2.8-19.3-3.7c-5.8-0.8-11.5-0.2-17.2,0.8c-3.3,0.6-6.6,1.2-9.9,1.4c-5.5,0.3-10.4-1.4-14.8-4.7
	c-2.7-2-5.3-4.1-7.7-6.5c-5.3-5.3-11.6-8.4-19.1-9.1c-1.3-0.1-2.5-0.3-3.8-0.5c-6.4-0.7-11.6-3.5-15.5-8.6c-4.3-5.6-9.8-8-16.7-7.7
	c-10.2,0.4-19.7-2-28.7-6.5c-8.3-4.2-17.1-7.1-25.9-10.1c-4.4-1.5-6.2-0.9-9.1,2.9c-3,4-6.4,7.5-10.6,10.3
	c-3.5,2.3-7.2,4.2-11.3,5.2c-7,1.8-11.3,6.3-13.5,13c-2.7,8.6-8.6,14-16.9,17c-3.4,1.2-6.8,2.8-10.1,4.3c-4.1,1.9-6.7,4.8-6.9,9.5
	c-0.2,3.9-2.1,7-4.7,9.7c-2.4,2.6-4.9,5.1-7.4,7.5c-4.2,4-8.4,7.9-12.6,11.8c-0.7,0.7-1.5,1.3-2.1,1.9c-3.2,3.1-3.5,5.1-1.2,8.9
	c4,6.9,8.2,13.7,12.1,20.7c3.3,5.8,5,12.1,5,18.8c0,8.1-3.6,14.1-10.4,18.2c-5,3-10.6,4.4-16.3,5.2c-10.2,1.4-20.1,0-29.6-4.1
	c-0.7-0.3-1.5-0.6-2.2-0.9c-5.5-2.2-10.9-1.9-16.2,1c-2.8,1.6-5.7,2.9-8.5,4.4c-10.6,5.3-21.6,6.6-33.1,3.7
	c-6.5-1.6-13.1-3.2-19.4-5.4c-14.8-5.2-29.7-5.5-44.9-2.2c-5.7,1.2-11.4,1.9-17.1,1.8c-3.4,0-6.7-0.2-9.9-1.3
	c-8.5-3-13.4-9.1-14.3-18.1c-0.7-6.6,0.2-13.3,2.5-19.4c3.7-9.8,3.6-19.7,2-29.8c-1.1-7.3-1.7-14.6-0.8-22
	c1.1-8.3,3.8-15.8,8.6-22.6c3.6-5.1,7.1-10.2,10.6-15.4c3.2-4.8,5.6-10,7.1-15.6c2.1-8,6.2-15.1,11.6-21.3c2.4-2.8,5-5.4,7.5-8.1
	c2.3-2.6,4.7-5.2,6.9-8c3.3-4.3,5.1-9.1,5.8-14.5c0.4-3.2-0.7-5.6-3.4-7.4c-0.7-0.4-1.3-0.9-2-1.3c-9.1-5.7-12.7-14.3-11.9-24.5
	c0.6-6.6-0.3-12.7-2.5-18.8c-1.3-3.6-2.6-7.2-3.8-10.9c-1.5-4.5-4.4-7.3-9.2-8.1c-6.9-1.2-10.7-5.5-11.8-12.1
	c-1.1-6.8-2-13.6-2.6-20.4c-1.1-12.9-2-25.8-2.8-38.8c-0.5-7.3-0.7-14.7,0.4-22c1.5-9.8,4.9-18.9,9.7-27.4c3.6-6.4,7.9-12.5,12.7-18
	c8.7-9.8,17.5-19.5,26.3-29.3c1.3-1.4,2.6-2.8,3.9-4.2c3.2-3.4,4.2-7.4,3.3-12c-0.5-2.7-1.2-5.3-1.7-8c-0.6-3.6-1-7.3-1.5-10.9
	c-0.8-5.6,0.5-10.8,3.4-15.6c0.8-1.4,1.8-2.7,2.6-4c2.4-4,3.5-8.1,2.4-12.8c-1-4-1.4-8.2-1.3-12.4c0-8.5,2.3-16.4,6-24
	c1.7-3.4,4.3-5.9,7.6-7.7c1.1-0.6,2.3-1.1,3.4-1.7c5.8-3,10.5-7.2,14.2-12.6c1.1-1.6,2.1-3.2,3-4.9c5.1-10.1,10.2-20.3,15.3-30.4
	c2.5-5,4.1-10.4,5.1-15.9c1.9-10.8,7.7-18.7,17.1-24.2c10.5-6.1,20.8-12.6,31.2-18.9c4.9-3,10.2-4.5,15.9-4.7
	c4.8-0.2,9.6,0.1,14.3,1.3C1128.2,627.6,1129.1,628.2,1130.4,628.8z M1207,744.2c-0.8,1.3-1.4,2-1.8,2.8c-1.4,2.3-2.6,4.8-4.2,7
	c-3.4,4.9-8,7.2-14.1,6c-2-0.4-4.1-0.8-6-1.5c-3-1-6-2.1-9.1-3.1c-3.2-1-6.4-2.2-9.6-2.9c-6.5-1.4-12.4,0.1-17.2,4.9
	c-2.7,2.7-3.1,5.4-1,8.6c1.5,2.2,3.3,4.4,5.2,6.2c6.9,6.5,15.3,10.4,24.4,12.7c5.9,1.5,11.4,0.4,16.5-2.8c3.9-2.5,7.8-5,11.6-7.6
	c2.1-1.5,4.1-3.1,5.8-4.9c4.1-4.2,5.4-9.3,4.3-15C1211.3,751,1209.8,747.7,1207,744.2z"/>
</svg>
