<?xml version="1.0" encoding="utf-8"?>
<!-- Generator: Adobe Illustrator 22.0.0, SVG Export Plug-In . SVG Version: 6.00 Build 0)  -->
<svg version="1.1" id="Layer_1" xmlns="http://www.w3.org/2000/svg" xmlns:xlink="http://www.w3.org/1999/xlink" x="0px" y="0px"
	 viewBox="0 0 2880 1800" enable-background="new 0 0 2880 1800" xml:space="preserve">
<path d="M1089.1,993.3c-1.2,0.6-2.2,0.9-3.1,1.5c-6.2,3.9-12.4,7.9-18.6,11.9c-4.4,2.9-8.8,5.9-13.2,8.7
	c-14.9,9.2-31.2,13-48.6,11.3c-7.7-0.7-15.2-2.5-22.4-5.1c-13.4-4.9-26.2-11.2-38-19.1c-5.7-3.8-11.1-8.2-15.9-13.1
	c-1.3-1.3-2.1-2.8-0.8-4.9c1.1,0.2,2.4,0.2,3.6,0.5c18,3.8,35.9,7.7,53.9,11.5c7.5,1.6,15.1,3,22.7,3.6c18,1.5,32.5-5,44.2-18.5
	c8.8-10.1,14.3-21.9,17.2-34.9c1.6-7.1,2.1-14.2,2.8-21.4c1.3-12.1,2.4-24.2,3.7-36.3c1.3-11.9,2.6-23.8,4.1-35.7
	c3.4-27.9,15.4-51.2,36.9-69.5c22.7-19.3,48.2-33.6,76.5-43c19.9-6.6,40.3-11.3,61-14.6c22-3.5,44.1-5.6,66.3-6.9
	c13.3-0.8,26.5-1.2,39.8-0.6c9.7,0.5,19.5,1.3,29.2,2.4c19.1,2.2,38.1,4.7,57.1,6.9c9.5,1.1,19.1,2.1,28.6,2.8c11,0.8,22,0.5,33-1.2
	c29.9-4.7,59.5-10.6,89.1-16.5c5.5-1.1,11-2.1,16.5-3.2c12.4-2.4,22.2-8.8,29-19.5c8.5-13.4,16.8-26.9,25.1-40.3
	c5.1-8.2,6.9-17.1,6.2-26.6c-0.5-7.3-3.6-13.2-9.3-17.7c-3.3-2.6-7-4.5-10.7-6.3c-5.3-2.6-10.6-5.2-15.8-8
	c-8.1-4.3-13.8-10.8-17.1-19.3c-1.2-3-2.5-5.9-3.5-8.9c-3-9.1-5.8-18.3-8.7-27.4c-2.1-6.7-3.1-13.7-4.2-20.7
	c-1.5-10.1-3.4-20.2-5.2-30.3c-0.4-2.5-0.9-5-1.2-7.6c-0.5-4.3,0.8-7.9,4-10.8c1-0.9,2-1.5,3.4-1.5c4.2,0,8.2,0.1,12.2,1.9
	c11.3,5.1,21.8,11.3,31.8,18.6c9.7,7.1,18.9,14.9,27.7,23c12.2,11.1,24.8,21.8,37.6,32.1c1,0.8,2,1.6,3,2.3c2.4,1.5,4.8,2.1,7.7,1.2
	c16-5,32.4-5.4,48.9-3.5c10.2,1.2,20.2,3.3,30.2,5.6c1.4,0.3,2.8,0.7,4.2,1c5.6,1.2,11.1,0.7,16.4-1.6c2.2-0.9,4.3-2.1,6.5-3.2
	c17.9-9.3,35.9-18.3,54-27.1c16.7-8.1,34.1-13.6,52.4-16.6c2.7-0.4,5.3-1.1,8-1.6c7.2-1.2,10.8,2.4,9.4,9.6
	c-1.7,8.6-4.6,17-7.9,25.1c-6.3,15.6-14.2,30.4-23.7,44.4c-4.7,6.9-9.1,13.9-12.3,21.6c-3.5,8.4-9.9,13.9-18.5,17
	c-6.4,2.3-13,3.2-19.7,3.7c-1.3,0.1-2.6,0.1-3.8,0.2c-4,0.6-6.9,2.6-8.2,6.4c-1.7,4.8-3.4,9.7-4.9,14.5c-1.8,5.7-1.2,11.4,0.1,17.1
	c1.1,4.7,2.8,9.2,5.1,13.4c1.8,3.2,3.6,6.4,5.3,9.7c2,3.8,3.5,7.9,4.4,12.1c1.8,9.1,0,17.5-4.6,25.4c-7,12.1-17.1,20.5-30.3,25.2
	c-7.8,2.8-15.8,3.8-24,4.5c-1.3,0.1-2.6,0.1-3.8,0.3c-5.3,0.7-9.2,3.4-11.3,8.5c-0.6,1.5-1.2,3-1.7,4.5
	c-5.7,17.3-11.4,34.6-17.2,51.9c-2,5.9-4.2,11.8-6.5,17.5c-5.6,13.6-10.6,27.4-13.2,42c-1,5.8-2,11.7-2.2,17.6
	c-0.7,15.5-5.1,29.9-12.9,43.2c-2.9,5-6.1,9.8-9.6,14.3c-7.2,9.4-14.6,18.7-22.3,27.7c-18.1,21.3-30,45.6-36,72.8
	c-2.6,11.9-4.4,23.9-5.8,36c-1.3,11-2.6,21.9-3.4,32.9c-0.8,10.8-1.2,21.7-1.5,32.6c-0.5,17.6,0,35.2,1.2,52.8
	c0.7,9.3,2.7,18.3,5.7,27.1c2.5,7.3,5.7,14.2,9.3,21c5.2,9.7,13.1,15.7,24,17.1c16.2,2.1,26.8,11.9,35.1,25c2.9,4.6,0.5,7.8-3.1,9.3
	c-2.1,0.8-4.2,1.4-6.4,2.1c-2.1,0.7-4.3,1.2-6.4,1.9c-1.2,0.4-2.4,0.8-3.5,1.5c-3,1.7-3.7,3.8-2.2,6.8c0.9,1.8,2.2,3.5,3.4,5.2
	c1.3,1.8,2.8,3.5,4,5.4c3.6,6,2.1,10.1-4.6,12c-4.5,1.3-9.1,1.9-13.7,1.9c-9.1-0.1-18.2-0.2-27.4-0.4c-5-0.1-9.9-0.3-14.9-0.6
	c-5.3-0.3-10.5-0.5-15.8-1.1c-10.9-1.1-18.8-6.7-23.2-16.8c-0.4-1-0.9-2-1.3-3.1c-2.8-8.4-6.8-16.2-11-23.9
	c-2.2-4.1-4.5-8.1-6.6-12.2c-1.2-2.4-2.8-4.2-5.3-5.3c-4-1.8-6.8-4.9-8.3-8.9c-1.2-3.1-2.2-6.4-2.9-9.6c-5.3-24-9.6-48.3-13.6-72.6
	c-5-30-12.3-59.5-21.5-88.5c-6.1-19.2-12.4-38.3-20.6-56.8c-2.3-5.3-4.8-10.5-7-15.8c-2-4.9-5.4-8.3-10.2-10.2
	c-5.2-2.1-10.4-4.2-15.6-6.1c-21.7-7.7-44-13.3-66.7-17.6c-30-5.6-60-11.3-90-17c-11.8-2.2-23.6-4.5-35.3-6.7
	c-2.7-0.5-5.4-0.7-8.1-0.9c-1.3-0.1-2.6,0.1-3.8,0.3c-2.8,0.3-4.8,1.8-5.8,4.4c-0.9,2.4-1.7,4.9-2,7.4c-1.3,9.5-4.5,18.3-9.2,26.6
	c-3.4,6-6.8,11.9-10.4,17.8c-4,6.4-8.9,12.1-14.5,17.2c-4.5,4.1-9.1,8-13.9,11.7c-10.7,8.2-21.4,16.2-32.2,24.2
	c-5.1,3.8-10.4,7.4-15.8,10.9c-10.6,6.9-19.2,15.8-26,26.5c-5.1,8.1-9.3,16.8-12.5,25.9c-5.1,14-5.4,28.2-1.5,42.5
	c3.7,13.6,10.6,25.7,18.5,37.2c1.8,2.6,4.4,4.2,7.3,5.3c5.2,2,10.5,3.9,15.8,5.7c3.2,1.1,6.4,1.9,9.7,2.8c2.1,0.6,4.3,1.4,6.4,2
	c8.1,2.5,9.6,8.9,8.5,15c-0.6,3.6-2.7,5.7-6.1,6.7c-1.2,0.3-2.5,0.5-3.8,0.5c-15.7,0.9-31.3,1.1-47,0.9c-9.9-0.1-17-4.9-21.3-13.7
	c-5.5-11.2-10.1-22.8-14.1-34.6c-8.7-25.6-17.3-51.2-25.9-76.8c-1.6-4.7-3.7-9.2-6.2-13.5c-0.5-0.8-1-1.7-1.5-2.4
	c-2.9-4-5.7-4.4-9.7-1.4c-0.5,0.4-1,0.8-1.5,1.2c-14.7,12.8-27.5,27.2-37.2,44.2c-10.3,18.1-16.2,37.5-18.1,58.2
	c-0.9,10.4-0.9,20.8,0.3,31.1c0.4,3.8,1.3,7.6,2.5,11.2c2.3,7.1,4.5,14.3,7.8,21.1c0.7,1.4,1,3,1.3,4.6c0.8,3.3,2.5,5.9,5.9,7
	c2,0.6,2.8,2,3.2,3.8c0.3,1.4,0.6,2.8,0.6,4.3c0.1,3.3-1.5,5.5-4.7,6.4c-0.6,0.2-1.3,0.3-1.9,0.3c-16.2,2-31.9,0.7-46.9-6.3
	c-2.5-1.1-4.9-2.5-7.1-4c-5-3.3-7.6-8.2-7.9-14.1c-0.2-3.7-0.2-7.4,0.3-11c1.9-15.2,4.1-30.4,6.1-45.6c3.4-25.5,6.7-51.1,7.2-76.9
	c0.1-3.5,0.3-7,0.6-10.5c0.5-7,3.4-12.9,8.6-17.6c1.7-1.5,3.4-2.9,5.1-4.3c10.6-8.8,20.7-18.2,30-28.3
	c13.2-14.4,24.1-30.3,31.9-48.2c5.2-11.9,10.1-23.9,15-35.8C1088.8,1000.3,1089.3,997,1089.1,993.3z"/>
</svg>
