<?xml version="1.0" encoding="utf-8"?>
<!-- Generator: Adobe Illustrator 22.0.0, SVG Export Plug-In . SVG Version: 6.00 Build 0)  -->
<svg version="1.1" id="Layer_1" xmlns="http://www.w3.org/2000/svg" xmlns:xlink="http://www.w3.org/1999/xlink" x="0px" y="0px"
	 viewBox="0 0 2880 1800" enable-background="new 0 0 2880 1800" xml:space="preserve">
<path d="M1013.3,1125.4c-4.2,1.5-7.8,2.8-11,4.9c-5.4,3.6-10.4,3.2-15.5-0.6c-2.2-1.6-4.6-2.9-7-4.2c-6.2-3.4-12.4-6.7-18.6-10.1
	c-5.6-3-11.3-6-17.3-8.2c-4.7-1.7-7.7-4.9-9.3-9.6c-1.2-3.5-2.5-6.9-3.9-10.3c-2.6-6.6-5.3-13-9.1-19c-1.8-2.9-2.7-6-2.6-9.5
	c0.1-5.6,0-11.2-0.1-16.8c0-2.6,0.4-5.1,1.1-7.6c2-6.4,3.8-12.9,5.7-19.3c1.7-5.7,4.1-11.1,6.8-16.4c1.6-3.2,3.9-5.9,6.6-8.1
	c4.2-3.4,9-4.7,14.4-3.7c3,0.6,6,1.2,9,1.6c3.7,0.5,7.4,0.1,10.9-1.2c3.8-1.4,7.6-2.4,11.6-2.9c4.8-0.7,8.1-3.2,10.3-7.5
	c3.3-6.5,5.4-13.4,5.8-20.6c0.3-4.8,1.7-9,4.3-13c3.1-4.6,4.6-9.8,5.9-15.1c0.8-3.4,1.3-6.9,2-10.4c0.6-3.1-0.2-5.7-2.5-7.9
	c-1-1-2-2.1-2.8-3.3c-2.4-3.5-2.6-7.2-0.6-10.9c1.1-2.1,2.7-4,4.3-5.7c1.2-1.3,2.2-2.7,2.8-4.4c3.1-7.7,6.5-15.3,8.8-23.3
	c0.9-3.3,2.7-6.2,5-8.7c4.4-4.9,7.1-10.6,8.1-17.1c0.7-4.4,2.3-8.6,4.1-12.7c1.1-2.3,2.1-4.6,3.1-7c1.3-3.1,1.6-6.2,0.1-9.3
	c-0.1-0.3-0.3-0.6-0.4-0.9c-1.4-3.4-1-6.6,1.3-9.5c2.2-2.8,4-5.8,5.5-9c1.3-2.8,3.2-5.2,5.5-7.2c1.8-1.6,3.6-3.3,5.6-4.5
	c4.6-2.8,7.6-6.7,9.8-11.5c1.5-3.2,3.2-6.3,5-9.3c3.1-5.5,7.5-9.5,13.9-10.9c3.3-0.7,5.5-2.9,6.6-5.8c1.8-4.6,5.1-6.3,9.8-5.9
	c1.4,0.1,2.9,0,4.3-0.1c3.8-0.3,6.6-2.2,8.2-5.8c0.6-1.5,1.2-3,1.8-4.5c1.2-2.9,3.2-4.6,6.7-4.2c5.1,0.6,9.8-0.9,14.3-3.1
	c0.9-0.4,1.7-0.9,2.5-1.4c6.1-3.7,12.5-6.4,19.4-8c3.1-0.7,5.6-2.2,7.6-4.6c2.5-2.9,5.2-5.6,7.8-8.5c3.4-3.9,7.6-6.2,12.7-7.1
	c6.6-1.2,13.1-2.8,19.7-4.2c1.7-0.4,3.5-0.7,5.2-1c5.2-0.8,9.8,0.5,13.9,3.8c1,0.8,1.9,1.8,2.9,2.5c1,0.7,2.2,1.4,3.4,1.8
	c2.1,0.7,3.8,0.1,4.9-1.8c0.7-1.2,1.3-2.6,1.9-3.8c1.5-2.9,4-4.2,7.2-3.7c6.9,1.1,13.9,2.4,20.7,3.9c2,0.4,3.9,1.5,5.8,2.3
	c1.5,0.6,2.9,1.4,4.4,1.8c3.6,1,6.1,0.1,8.3-3c0.5-0.6,0.9-1.4,1.3-2c2.6-3.9,6.3-5.9,11-5.3c2.5,0.3,5,0.9,7.5,1.6
	c2.6,0.7,5.2,1.7,7.7,2.6c3.3,1.1,6.6,1.3,9.9,0.3c4.9-1.4,9.5-0.8,13.6,2.5c0.4,0.3,0.8,0.6,1.2,0.8c2.6,1.9,5.3,2,8.1,0.3
	c0.8-0.5,1.6-1,2.5-1.5c1-0.6,1.9-1.1,2.9-1.6c3.8-1.7,7.5-1.8,11,0.6c7.5,5.4,15.7,4.4,24,3.2c0.9-0.1,1.8-0.7,2.6-1.2
	c3.6-2.1,7.2-2.4,10.9-0.1c0.7,0.4,1.4,0.8,2.1,1.1c2,0.8,4.1,0.8,6.1-0.1c0.7-0.3,1.4-0.7,2.1-1.1c3.3-1.7,6.7-2,10.2-0.9
	c1.5,0.5,3.1,0.9,4.6,1.4c5.8,2.1,11.6,2.1,17.3-0.4c4.5-2,9-2.1,13.4,0.1c2.1,1,4.3,1.4,6.5,1.4c10.4,0.3,20.8,0.7,31.2-0.1
	c6-0.4,11.8-0.2,17.5,1.9c2.9,1.1,6,1,9,0.1c2.9-0.8,5.7-2.1,8.6-3c2.3-0.8,4.5-1.7,6.9-2c4.9-0.5,9.4-1.9,13.6-4.3
	c6.7-3.8,14-5.6,21.6-5.5c10.3,0.2,17.5-5.1,23.3-13c1.8-2.4,3.2-5.2,4.6-7.8c1.6-3,3.5-5.8,6.1-8c0.6-0.5,1.2-1.1,1.7-1.7
	c4.5-6.1,10.8-9.9,17.1-13.7c6.7-4,13.5-7.9,20.2-11.9c3.2-1.9,6.3-3.8,9.4-5.8c3.4-2.1,6.9-4.1,10.7-5.3c3.8-1.3,7.2-3.5,10.1-6.3
	c2.1-2,4.1-4,6-6.2c3.5-4.1,6.9-8.4,10.4-12.6c1.8-2.2,3.4-4.7,4.1-7.5c0.8-3.3,1.1-6.6,0-9.9c-0.2-0.8-0.5-1.5-0.7-2.3
	c-0.7-3.6-0.2-7,2.3-9.9c3.4-4.1,7.2-7.7,11.4-11c1.6-1.3,3.3-2.6,4.8-3.9c3.2-2.9,5.1-6.5,5.4-10.9c0.2-3.4,1.3-6.6,3-9.5
	c5.6-9.4,9.8-19.4,12.4-30c1.3-5,3.3-9.7,6.1-14c1.4-2.1,2.4-4.5,3.7-6.7c0.7-1.3,1.3-2.6,2.2-3.7c2.2-2.8,5-3.8,8.5-2.8
	c3.6,1.1,6.8,2.9,9.4,5.5c2.3,2.2,4.5,4.6,6.3,7.2c6.9,9.7,13.1,19.7,17.5,30.8c1.1,2.7,2.2,5.3,3.6,7.8c1.1,2.1,2.5,4.1,4.1,5.9
	c2.3,2.7,5.1,3.1,8.2,1.3c3.4-1.9,6.4-4.3,8.6-7.5c2.3-3.3,4.6-6.6,6.8-9.9c7-10.7,14.1-21.4,21-32.1c1.4-2.1,2.5-4.4,3.8-6.7
	c0.6-1.1,1.2-2.3,1.9-3.3c1.8-2.5,4.3-3.1,7.2-2.6c2.8,0.5,4.5,2.3,5.3,5c0.4,1.4,0.6,2.8,0.8,4.2c1.3,11.5,2.1,22.9,1.9,34.5
	c-0.1,3.7-0.8,7.3-1.3,10.9c-0.4,3.6-0.9,7.3-1.3,10.9c-0.2,2.3,0.5,4.4,1.9,6.2c4,5.1,7,10.7,9,16.9c0.9,2.8,2.6,5.1,4.8,7.1
	c1.2,1.1,2.4,2.1,3.6,3.2c2.4,2.5,3.6,5.5,1.9,8.7c-2.4,4.6-1.4,8.6,1.6,12.5c1.7,2.3,3.2,4.8,4.7,7.2c2.8,4.4,5.6,8.9,7.5,13.9
	c1.1,2.8,2.7,5.4,4.1,8.1c0.9,1.9,1.9,3.7,2.7,5.6c1.9,4.7,1.9,9.3-0.4,13.9c-0.4,0.7-0.7,1.4-1,2.2c-1.7,3.8-1.5,7.5,0.4,11.1
	c0.8,1.5,1.9,3,2.9,4.4c6.6,8.5,14,16.2,22.5,22.9c11.3,9,21.5,19.1,31.9,29.1c1.2,1.1,2.2,2.3,3.2,3.6c2.3,2.9,2.7,6.1,1.3,9.5
	c-0.2,0.4-0.4,0.9-0.6,1.3c-4.4,6.9-8.9,13.7-14.7,19.5c-5.4,5.4-12,8.5-19.4,9.9c-1.3,0.2-2.5,0.4-3.8,0.7c-2.3,0.7-3,1.8-2.8,4.3
	c0.2,2.1,1.1,4,2.2,5.8c1.9,3.1,3.7,6.3,5.8,9.4c4.2,6,3.8,12.4,1.5,18.8c-1.9,5.2-7.3,7.6-12.6,6c-0.8-0.2-1.5-0.5-2.2-0.9
	c-5.8-3.1-11.9-3.5-18.2-2.4c-5.2,0.9-10.5,1.2-15.8,0.9c-3-0.2-6.1-0.4-9.1-0.4c-7.6,0-14.5-2.2-21-6c-1.2-0.7-2.4-1.5-3.7-2.3
	c-4.4-2.6-8.9-1.4-11.4,3.1c-0.5,1-0.9,2.1-1.1,3.1c-0.6,2.6-1.2,5.3-1.7,8c-0.9,4.1-1.3,8.2-2.7,12.1c-1.6,4.2-1.3,8.6,0.4,12.7
	c1.8,4.3,1.1,8.1-1.1,11.9c-2.2,3.9-4.5,7.8-6.8,11.6c-1.6,2.6-3.3,5.1-4.9,7.7c-2.8,4.5-5.2,9.2-6.6,14.3
	c-1.4,5.1-4.7,8.7-9.2,11.1c-2.1,1.1-4.4,1.9-6.6,2.8c-1,0.4-2.1,0.7-3.2,1c-3.9,1.1-6.4,3.6-7.1,7.6c-0.5,2.8-1.7,5.1-3.5,7.2
	c-3.3,4.1-4.6,8.9-3.2,14c1.3,5-0.2,8.8-3.5,12.2c-1.9,1.9-4,3.7-5.9,5.6c-2.5,2.4-5.2,4.8-7.5,7.4c-3.7,4.4-6,9.5-6.4,15.2
	c-0.3,4.4-1.6,8.4-3.5,12.4c-3.2,6.6-6.1,13.4-8,20.5c-1.2,4.5-3.6,8.5-6.6,12.1c-2.3,2.7-4.3,5.6-6.4,8.4
	c-3.2,4.2-6.5,8.3-9.8,12.5c-1.8,2.3-3.9,4.2-6.6,5.4c-2.5,1.1-4.1,3-5.4,5.2c-0.1,0.1-0.2,0.3-0.2,0.4
	c-5.3,10.7-12.3,20.1-20.4,28.9c-5.3,5.7-8.7,12.6-11.5,19.8c-1,2.5-1.9,5.1-2.8,7.7c-1.4,3.8-3.1,7.3-5.4,10.7
	c-1.2,1.8-2.1,3.9-2.9,6c-1.5,4.4-2.8,8.8-4.3,13.2c-1,2.9-2.1,5.7-3.6,8.4c-3.5,6.4-5.1,13.4-6,20.6c-0.5,4.3-1.1,8.6-2.1,12.8
	c-4.2,17.4-9.2,34.6-15.7,51.3c-2.8,7.1-4.2,14.4-4.3,22c-0.1,5.8-0.3,11.5,0.8,17.2c0.4,2.2,0.3,4.5,0.2,6.7
	c-0.1,5.5,2.2,10.3,5.3,14.6c1.3,1.8,3.2,3.1,5.4,3.9c1.8,0.7,3.6,1.3,5.5,1.7c10.5,2.2,18.5,8.4,25.7,15.9c1.7,1.8,2.6,4.1,3.1,6.4
	c1.4,5.5,1.9,11,2,16.6c0,2-0.5,3.8-1.5,5.5c-2,3.5-1.7,7,0.2,10.5c0.6,1.1,1.3,2.2,1.9,3.3c3,5.3,4,11.1,3.5,17.1
	c-0.5,5.9-3.8,9-9.6,9.3c-0.8,0-1.6,0-2.4,0c-21.3,0-42.6,0-63.8,0c-2.1,0-4.2-0.1-6.2-0.5c-8.3-1.9-14.4-6.8-18-14.5
	c-1-2.2-2.2-4.2-3.8-6c-2.7-2.9-4.1-6.5-4.8-10.3c-0.6-3.3-0.9-6.7-1.4-10c-0.9-6.2-2-12.3-2.9-18.5c-0.6-4.1-0.8-8.3,0.4-12.4
	c1.5-4.9-0.1-8.8-3.8-12c-3.3-2.8-5.5-6.2-6.4-10.4c-0.3-1.6-0.5-3.2-0.4-4.8c0.2-2.8-0.9-4.9-2.7-6.9c-3.2-3.3-6.4-6.8-9.5-10.1
	c-2.1-2.2-4.1-4.5-6.2-6.7c-2.4-2.4-3.5-5.3-3.6-8.6c-0.2-2.9-0.3-5.8-0.3-8.6c0-3.5,1.1-6.6,3.4-9.3c0.5-0.6,1.2-1.1,1.5-1.8
	c0.4-0.8,0.4-1.7,0.7-3.1c-1.4,0.2-2.2,0.4-3.1,0.5c-1.6,0.2-3.2,0.6-4.7,0.4c-3.9-0.5-6.6-3.8-6.4-7.7c0.1-1.8,0.3-3.5,0.4-5.3
	c0.3-5.4-0.5-10.5-2.9-15.4c-0.8-1.6-1.4-3.3-1.6-5c-0.4-2.9-1.8-5.1-3.7-7.1c-1-1.1-2-2.1-2.9-3.2c-2.2-2.6-3.1-5.6-2.6-8.9
	c0.3-1.7,0.7-3.4,1.2-5.1c0.4-1.4,0.9-2.7,1.5-4c1.1-2.6,0.4-4.6-1.6-6.4c-1.6-1.3-3.2-2.7-4.7-4.1c-1.1-1.1-2.3-2.3-3.1-3.6
	c-2-3-1.9-6,0.2-9c0.5-0.7,1-1.3,1.5-1.8c2.3-2.3,3.8-5.1,4.8-8.2c1.2-3.3,2.3-6.6,4.2-9.6c1.2-1.9,0.7-3.3-1.4-4.2
	c-1-0.4-2.1-0.6-3.2-1c-2.2-0.8-4.5-1.4-6.7-2.8c1.1-4.4,2.8-8.3,6.1-11.3c0.8-0.8,1.6-1.5,2.4-2.4c1.1-1.3,0.6-3-1.1-3.3
	c-2.2-0.4-4.4-0.5-6.6-0.6c-1.9,0-3.8,0.3-5.7,0.3c-3,0-5.9-0.8-7.9-2.9c-7.7-7.8-17.5-10.2-27.8-11.4c-8.8-1.1-17.3-3.3-25.4-6.7
	c-3.7-1.5-7.2-3.4-10.4-5.9c-4.4-3.6-9.4-6-15-7.2c-4.8-1.1-9.1-3.1-12.9-6.2c-4.5-3.6-9.6-5.6-15.5-5.6c-4.2,0-8.1-1.6-12.1-2.9
	c-3.6-1.2-7.2-2.5-10.9-3.6c-3-0.9-4.6-2.8-5.1-5.7c-0.3-2.1-0.6-4.1-1-6.2c-0.3-1.4-1.4-2.2-2.8-2.1c-1.3,0.1-2.5,0.5-3.7,0.8
	c-1.4,0.3-2.8,0.7-4.2,0.9c-3,0.3-5.7-0.5-8-2.5c-0.5-0.4-0.9-0.9-1.4-1.3c-3.8-3.8-4.4-3.9-9.1-1.2c-0.7,0.4-1.4,0.8-2.1,1.1
	c-3,1.4-5.7,0.8-7.8-1.6c-1.5-1.7-2.5-3.7-3.7-5.6c-0.6-0.9-0.8-2.1-1.5-2.9c-0.4-0.5-1.4-0.9-2.1-0.8c-0.6,0.1-1.3,0.9-1.5,1.6
	c-0.7,2.6-1,5.3-0.3,8.1c0.4,1.7,0.6,3.5,0.4,5.2c-0.3,3-1.9,4.9-4.1,5.3c-2.4,0.4-4.4-0.7-5.9-3.2c-0.5-0.8-0.9-1.7-1.4-2.5
	c-3.4-5.6-8.4-8.7-14.7-9.6c-2.4-0.3-4.8-0.2-7.2-0.2c-1.7,0-2.6,1.1-3.1,2.5c-0.3,0.7-0.3,1.6-0.4,2.3c-0.3,2.9-1.7,5.1-3.9,6.9
	c-3.9,3-7.8,6.1-11.8,9.1c-0.6,0.5-1.4,0.9-2.1,1.1c-2.8,0.8-4.5,2.8-6,5.2c-3.3,5.1-6.7,10.2-9.9,15.3c-2.3,3.7-4.4,7.4-6.4,11.2
	c-3.4,6.3-7.8,11.9-14,15.5c-9.1,5.3-17.5,11.9-26.4,17.5c-4.6,2.9-8.8,6.3-12.8,10.1c-5.8,5.4-12.5,9.5-19.6,12.8
	c-3.4,1.6-6.5,3.4-9.3,5.8c-6.7,5.6-12,12.3-16.1,20.1c-1.9,3.7-4.2,7.2-6.2,10.8c-5.1,9.3-10.2,18.5-15.1,27.8
	c-2.6,5-4.3,10.3-5.4,15.8c-0.6,2.9-1.6,5.9-2.8,8.6c-2.1,4.8-3.2,9.7-3.5,14.9c-0.4,6.7-0.6,13.4-1.1,20.1
	c-0.4,6.4,2.6,11.1,7.7,14.4c2.3,1.5,4.8,2.5,7.2,3.8c2.8,1.5,5.7,3,8.4,4.6c3.3,2,6,4.8,8.2,8c2,3,3.2,6.2,3.1,9.9
	c-0.1,6.1-0.1,12.2,0,18.2c0.2,10.5-10,20-22,17.4c-6.7-1.4-13.4-3.1-20.1-4.7c-1.4-0.3-2.7-1.1-4-1.5c-1.7-0.5-3.4-1-5.1-1.3
	c-2.2-0.4-3.6,0.7-4.6,2.7c-1.1,2.1-1.3,4.3-0.3,6.5c0.8,1.9,1.8,3.8,2.6,5.6c2.8,6.2,1.7,9.5-4.3,12.5c-4.9,2.5-10.1,4-15.6,4.5
	c-1.8,0.2-3.5,0.3-5.3,0.3c-12.5,0-25-0.1-37.4-0.2c-1.1,0-2.2,0-3.4-0.1c-5.3-0.6-9.4-3-12-7.7c-1.8-3.2-3.6-6.4-5.5-9.6
	c-3.7-6-4.1-12.3-2.1-18.9c0.6-1.8,1.4-3.6,2-5.4c0.6-1.5,1.1-3,1.6-4.5c1.5-4.8,0.6-9.1-2.3-13.1c-0.3-0.4-0.6-0.8-0.9-1.1
	c-2.7-3.1-3.1-6.6-1.6-10.3c2.1-5.2,4.2-10.4,6.3-15.5c0.5-1.3,1.2-2.6,1.8-3.9c1.9-4.5,3-9.1,2.6-14c-0.3-3.3,0.2-6.4,1.1-9.5
	c2.3-7.7,2.3-15.5-0.5-23.1c-1.3-3.6-1.2-7.2-0.2-10.8c0.3-0.9,0.5-1.8,0.8-2.8c1.2-3.7,1.4-7.5,0.3-11.3c-2.9-9.6-2.1-18.9,2-28.1
	c0.8-1.9,1.1-4,1.6-6C1013.9,1127.1,1013.5,1126.5,1013.3,1125.4z"/>
</svg>
