<?xml version="1.0" encoding="utf-8"?>
<!-- Generator: Adobe Illustrator 22.0.0, SVG Export Plug-In . SVG Version: 6.00 Build 0)  -->
<svg version="1.1" id="Layer_1" xmlns="http://www.w3.org/2000/svg" xmlns:xlink="http://www.w3.org/1999/xlink" x="0px" y="0px"
	 viewBox="0 0 2880 1800" enable-background="new 0 0 2880 1800" xml:space="preserve">
<path d="M1968.7,636.4c0,5.3,0.1,10.4-0.1,15.5c0,1.2-0.6,2.5-1.2,3.6c-1.7,3-2.5,6.2-3,9.5c-1,6.2-2.7,12.2-5.3,17.9
	c-5.2,11.6-13.9,19.3-26.1,23.1c-1.1,0.3-2.2,0.6-3.2,1c-3.6,1.3-6.1,3.6-6.3,7.6c-0.4,7.2-4.5,11.5-11,13.5
	c-4.7,1.5-9.6,2.6-14.4,3.7c-4.8,1.1-9.7,2.1-14.5,3.1c-1.1,0.2-2.1,0.6-3.4,1c0.1,1.2,0.1,2.3,0.4,3.3c2.2,9.8,4.5,19.6,6.7,29.5
	c0.9,4.1,1.6,8.2,2.2,12.3c0.8,5.3,0.3,10.5-1.1,15.7c-1.8,6.8-3.5,13.6-5.7,20.3c-2.3,7.1-3.7,14.2-3.8,21.6
	c-0.2,9.9-0.4,19.8-0.7,29.7c-0.2,8.2-1.6,16.2-3.9,24.1c-3.2,10.6-8.7,19.9-16.9,27.4c-2.7,2.5-4.6,5.3-6.1,8.5
	c-13.3,28.5-29.1,55.5-47.8,80.8c-4.2,5.7-8.5,11.2-12.9,16.7c-4.8,5.9-7.4,12.6-7.7,20.2c-0.2,3-0.3,6.1-0.3,9.1
	c-0.6,30.2-0.9,60.5-0.3,90.7c0.2,12,2.1,23.5,6.5,34.7c1.7,4.3,3.4,8.6,4.8,13c1,3,2.8,5,5.7,6c3,1,6.1,2,9.2,2.7
	c6.9,1.4,13.8,2.6,20.7,3.9c1.6,0.3,3.1,0.7,4.6,1.2c2.3,0.8,4.3,2,5.9,4c2.1,2.6,2.1,5.2,0,7.9c-0.1,0.1-0.2,0.2-0.3,0.4
	c-5,5.1-8.4,11.3-11.5,17.6c-1.5,3-3,6-4.5,9c-1.3,2.6-3.3,4.3-5.8,5.5c-2.8,1.3-5.6,2.4-8.7,2.6c-4,0.2-8,0.7-12,0.5
	c-12.6-0.5-25.2-1.2-37.9-1.9c-8.1-0.5-16.3-1-24.4-1.6c-4.2-0.3-8.3-0.5-12.4-0.8c-1.7-0.1-3.5-0.5-5.2-1c-4.5-1.3-7.4-4.3-8.8-8.7
	c-0.4-1.2-0.6-2.5-1-3.7c-0.6-1.8-1.8-2.9-3.8-3.1c-1.4-0.1-2.9-0.3-4.3-0.6c-4.6-1-7.2-4-7.9-8.5c-0.4-2.2-0.5-4.5-0.3-6.7
	c0.4-5.1-1.1-9.7-3.4-14.3c-6.6-13.2-12.7-26.5-18.1-40.2c-6.6-16.9-12-34.1-15.3-51.9c-2.1-11.3-3.4-22.8-3.5-34.3
	c0-4-0.7-7.9-1.7-12c-1.1-0.2-2.2-0.5-3.2-0.5c-22-1.5-44-3.1-66.1-3.9c-43-1.4-85.3-7.5-126.6-20c-10.1-3.1-20.1-6.5-30.1-9.7
	c-11.7-3.7-23.8-6.4-35.8-9c-5.8-1.2-11.1,0.2-15.8,3.8c-2.7,2-5.1,4.3-7.7,6.5c-25.1,20.7-52.6,37.5-81.7,51.7
	c-4,2-8.1,3.8-12.1,5.8c-6.5,3.1-12.7,6.8-18.3,11.4c-9,7.5-15.3,16.7-17.7,28.3c-2.5,12.2-1.7,24.2,2.6,35.9
	c3.9,10.5,11.2,18.1,21.2,23.1c1.7,0.9,3.5,1.7,5.3,2.3c4.9,1.7,8.5,5.1,11.1,9.4c3,4.9,4.6,10.2,4.3,16
	c-0.4,7.3-4.6,11.9-11.8,12.9c-2.2,0.3-4.5,0.4-6.7,0.2c-12.3-0.8-24.6-1.7-36.8-2.6c-4.8-0.4-9.6-0.9-14.3-1.3
	c-8-0.6-13.4-4.6-16.1-12.2c-1.2-3.5-2.3-7-3.5-10.5c-4.7-13.6-9.3-27.2-14-40.8c-0.3-0.7-0.6-1.5-0.9-2.2c-1.5-0.4-1.7,0.9-2.1,1.6
	c-4.6,8.6-9.1,17.2-13.7,25.9c-1.6,3.1-3.3,6.2-5,9.3c-2.9,5.3-2.3,10.1,1.6,14.6c1.3,1.6,2.7,3.1,4.1,4.7
	c6.4,7.6,11.8,15.9,16.8,24.5c0.4,0.7,0.8,1.4,1,2.2c1.8,4.7,0.6,8.5-3.7,11.1c-1.1,0.7-2.3,1.2-3.5,1.6
	c-17.8,5.8-35.7,6.7-53.7,0.9c-5.6-1.8-10.4-4.8-14.6-9c-2.5-2.5-4.2-5.5-4.8-9.1c-2.6-13.8-4.6-27.8-5.2-41.9
	c-0.8-18.2,1.2-36.1,7.3-53.4c2.3-6.7,5.2-13.1,8.8-19.1c10.7-17.7,16.5-36.9,19.4-57.3c1.8-12.6,2-25.2,1.6-37.8
	c0-0.3-0.2-0.6-0.2-0.9c-0.9-0.5-1.5,0.1-2,0.7c-3.4,3.4-6.2,7.3-8.7,11.4c-1.2,1.9-2.3,3.9-3.7,5.6c-3.9,4.9-9,7-15.3,5.6
	c-0.9-0.2-1.9-0.3-2.8-0.7c-4.5-1.9-8.8-1.1-13.1,0.5c-4.2,1.6-8.2,3.5-12.3,5.3c-5.2,2.2-10.3,4.3-15.8,5.4
	c-7.5,1.6-15,1.6-22.2-1.2c-3-1.2-5.5-0.9-8.2,0.7c-5.4,3.2-11.2,5.6-17.3,6.9c-10.8,2.3-21.4,1.6-31.6-2.3
	c-6.4-2.4-12.7-3.9-19.5-4.4c-4.1-0.3-8.2-1.6-12-3.1c-7.7-3.1-13.8-8-18-15.2c-1.8-3-3.3-6.2-4.6-9.5c-1.9-4.7-3.5-9.6-5.2-14.4
	c-0.4-1.3-0.6-2.8-0.6-4.2c0-15,0-30.1-0.1-45.1c0-2,0.5-3.7,1.4-5.5c4.8-8.6,10.7-16.3,17.6-23.3c6.3-6.4,13-12.4,20.3-17.6
	c15.5-11,30.7-22.5,46.8-32.8c13.6-8.7,27.4-17,42.1-23.8c11.8-5.4,24-9.8,36.6-12.7c6-1.4,10.4-4.6,13.2-10.1
	c4.2-8.3,9.5-15.9,15.8-22.8c5.7-6.3,11.6-12.3,17.6-18.3c5.1-5.1,10.5-9.8,15.7-14.8c4-3.9,8.2-7.7,12-11.8
	c13.2-14.5,29.3-24.6,47.4-31.7c12.7-5,25.8-8.5,39.1-11.4c18-4,36.1-7.2,54.3-9.4c16.4-2,32.8-3.4,49.2-4.2
	c28.8-1.5,57.6-1.4,86.4-0.6c20.9,0.6,41.9,1.8,62.8,2.9c12.5,0.7,24.9,1.5,37.4,1.7c32,0.6,60.3-9.8,86.1-28
	c3.5-2.5,6.9-5.2,10.4-7.8c3.2-2.3,6.5-4.7,9.9-6.8c4.3-2.8,9-4.9,13.9-6.4c2.1-0.7,4.3-1.3,6.4-2.1c3.9-1.4,7.5-3.5,10.7-6.2
	c6.3-5.5,12.6-10.9,18.9-16.3c7.9-6.8,15.7-13.6,23.6-20.4c1.3-1.2,2.7-2.3,3.9-3.6c2.9-2.9,4.2-6.5,3.7-10.5
	c-1-6.9,1.4-12.8,5.5-17.8c10.1-12.2,21-23.7,33.6-33.5c4.8-3.8,10.3-6.4,16-8.6c11.3-4.5,23-7.7,34.8-10.6c6-1.5,11.9-2.2,18-2.1
	c9.3,0.2,18.6,0.1,27.8,0c2.6,0,5,0.5,7.3,1.8c2.6,1.5,5.4,2.7,8.2,4c5.2,2.5,10.5,4.9,15.4,7.7c4.3,2.5,8.4,5.3,12.2,8.4
	c11.7,9.4,17.9,21.9,19.3,36.8c0.1,0.8,0.1,1.6,0.1,2.4c0.3,5.7,2.9,10.1,7.7,13.1c2.3,1.5,4.8,2.6,7.3,3.6
	c11.6,4.9,23.3,9.7,35,14.6C1967.1,635.5,1967.7,635.9,1968.7,636.4z"/>
</svg>
