<?xml version="1.0" encoding="utf-8"?>
<!-- Generator: Adobe Illustrator 22.0.0, SVG Export Plug-In . SVG Version: 6.00 Build 0)  -->
<svg version="1.1" id="Layer_1" xmlns="http://www.w3.org/2000/svg" xmlns:xlink="http://www.w3.org/1999/xlink" x="0px" y="0px"
	 viewBox="0 0 2880 1800" enable-background="new 0 0 2880 1800" xml:space="preserve">
<path d="M1887.1,830.8c0.1,1.2,0.2,2.1,0.4,3c2.8,13.9,5.7,27.9,8.5,41.8c0.4,1.9,0.7,3.8,0.8,5.7c0.3,4.5-1.4,6.2-5.8,6.1
	c-1,0-1.9-0.2-2.9-0.2c-4-0.1-5,0.8-5.4,4.9c-0.1,1.1-0.1,2.2-0.1,3.4c0.2,8.5,0.3,17,0.7,25.4c0.3,6.1,0.9,12.1,1.4,18.2
	c0.9,9.6,0.9,19.2-0.1,28.8c-2.3,22.7-7.1,44.8-13.2,66.7c-0.5,2-1,4.1-2.8,5.5c-1.4,0.3-2.3-0.8-3.3-1.5c-0.7-0.6-1.4-1.4-2.1-1.9
	c-0.9-0.7-2.4-0.5-3,0.4c-0.9,1.5-1.9,3-2.3,4.7c-1.1,4.2-3,8.1-5.1,11.9c-7.2,13.4-14.4,26.8-21.6,40.1c-2,3.7-4.4,7-7.4,10
	c-2.2,2.1-4.8,3.1-7.9,2.7c-2.4-3.2-2.5-7.2-3.3-10.6c-1.3-0.6-1.8,0.2-2.3,0.7c-1.8,1.9-2.9,4.2-3.7,6.7c-3,9.3-7.5,18-11.8,26.7
	c-0.2,0.4-0.4,0.9-0.7,1.3c-1.5,2.4-3.6,3-6.2,1.7c-0.8-0.4-1.6-1.1-2.4-1.6c-0.6-0.4-1.3-0.7-1.9-1c-1.8,0.9-1.8,2.4-2.2,3.7
	c-0.5,1.5-0.9,3.1-1.6,4.5c-0.8,1.5-2.2,2-3.7,1.1c-1.7-0.9-3.2-2.1-4.7-3.3c-4-3-6.2-2.5-7.9,2.1c-1.5,4.2-2.8,8.5-4.2,12.7
	c-0.4,1.4-0.8,2.8-1.3,4.1c-1.5,3.6-3.9,4.8-7.7,3.8c-1.8-0.4-3.6-1.1-5.8-1.7c-0.1,1.2-0.3,2.1-0.4,3c-0.4,9.1-0.5,18.2-1.3,27.3
	c-0.6,7-2,13.9-3.1,20.9c-0.4,2.4-0.9,4.7-1.2,7.1c-0.2,1.4-0.3,2.9-0.3,4.3c-0.1,6.3,2.2,11.5,7.1,15.6c4.3,3.6,8.6,7.1,12.7,10.9
	c3.4,3.1,6.7,6.5,9.6,10c6.7,7.9,9.6,17.2,10,27.4c0.1,3.2-0.8,5.6-3.3,7.5c-1.8,1.4-3.5,2.8-5.3,4.1c-6.1,4.5-12.9,7.2-20.5,6.8
	c-5.2-0.3-9.3,1.5-13,5c-1.4,1.3-2.9,2.5-4.5,3.5c-2.3,1.6-4.9,1.6-7.2,0.1c-1.6-1-3.1-2.2-4.6-3.4c-1.8-1.4-3.4-2.9-5.3-4.1
	c-3.5-2.4-7.4-3.9-11.7-3.9c-3.4,0-6.2-1.2-8.9-3c-2.7-1.8-4.9-4.1-7.1-6.5c-2.3-2.6-4.7-5.3-7.2-7.7c-4.2-4.1-9-7.2-14.6-8.9
	c-6.2-1.8-10.6-5.8-13.5-11.4c-2.3-4.5-4.6-9.2-6.6-13.9c-2.4-5.6-4.1-11.4-4.3-17.6c0-1.3-0.2-2.6-2.2-2.9
	c-0.2,0.5-0.6,0.9-0.7,1.5c-0.8,3.8-0.9,7.6-0.3,11.4c1.2,7.1,2.2,14.2,3.3,21.3c0.7,4.8,2.5,9.2,5,13.4c3.8,6.5,7.5,13,10.9,19.7
	c3.6,7.2,6.2,14.7,7.6,22.7c0.3,1.9,0.5,3.8,0.4,5.7c-0.5,6.6-4.8,10.8-11.4,11.4c-1.3,0.1-2.6,0.1-3.8,0c-1.1,0-2.2-0.1-3.4-0.1
	c-3.6-0.1-6.4,1.2-8.6,4.2c-3.2,4.4-5.8,4.8-9.9,1.3c-3.4-2.9-6.5-6.2-9.8-9.2c-1.7-1.6-3.4-3.4-5.3-4.8c-3.7-2.7-6.4-2.6-9.9,0.5
	c-1.5,1.4-2.9,3-4.2,4.6c-1.9,2.2-3.6,4.5-5.5,6.7c-1,1.2-2.2,2.4-3.4,3.4c-2.3,1.8-4.3,1.8-6.5,0c-1.2-1-2.3-2.2-3.3-3.4
	c-1.3-1.6-2.5-3.3-3.9-4.9c-2.4-2.9-3.8-3.2-6.9-1.1c-2.7,1.9-5.6,3-8.9,3.3c-2.6,0.2-5.1-0.1-7.5-1c-4.3-1.5-7.3-4.4-8.9-8.8
	c-2.3-6.5-4.7-12.9-6.9-19.4c-1.9-5.8-3.4-11.7-3.2-17.8c0-1.3,0-2.6-1.4-3.7c-0.7,0.3-1.6,0.5-2.2,1c-2.2,1.8-3.2,4.4-4.1,6.9
	c-0.7,1.8-1.3,3.6-3,4.8c-1.7,1.3-3.1,1.3-4.7-0.2c-1.5-1.3-2.5-2.9-2.8-4.9c-0.2-1.6-0.3-3.2-0.7-4.7c-0.8-3.3-2.1-6-6-6.6
	c-3-0.5-4.2-2.7-4.4-5.5c-0.1-1.3,0-2.6,0.1-3.8c0.3-7.5,0.7-15,1-22.5c0.1-2.2,0-4.5,0-6.7c0-0.6-0.3-1.1-0.6-2.2
	c-1,1.2-1.8,1.9-2.5,2.8c-1.8,2.2-3.6,4.5-5.4,6.8c-0.7,0.9-1.4,1.7-2.3,2.5c-1.4,1.2-3,2.1-4.8,1.4c-1.8-0.6-1.9-2.5-2.1-4
	c-0.2-1.4-0.1-2.9-0.2-4.3c-0.2-9.4-0.3-18.9-0.5-28.3c0-2.4-0.2-4.8-2.2-6.8c-2.4,0.3-4,1.8-4.8,4c-0.6,1.5-0.9,3.1-1.2,4.6
	c-1,4.2-1.7,8.5-2.8,12.6c-1.8,6.5-3.7,7-8.8,2.5c-5.8-5.1-11.1-10.6-15.9-16.6c-4.8-6-8.8-12.6-11.9-19.7c-1.7-4-2.3-4.7-5.5-7.4
	c-0.9,1.1-1.9,2.1-2.8,3.2c-1.1,1.4-2.1,2.9-3.2,4.2c-3.1,3.5-5.2,3.9-9.3,1.9c-1.6-0.8-3.1-1.6-4.5-2.7
	c-5.1-3.8-10.3-7.6-15.3-11.5c-2.3-1.8-4.4-3.7-6.6-5.6c-2.7-2.4-5.7-3.3-9.3-2.5c-1.5,0.4-3.1,0.6-4.7,0.9c-3.4,0.6-6.7,0-9.7-1.9
	c-10.1-6.1-19.1-13.4-25.8-23.3c-0.6-0.9-1.3-1.8-2.1-2.6c-1-1-2.4-1-3.5-0.1c-0.6,0.5-1.1,1.2-1.6,1.8c-0.8,1-1.6,2-2.4,3
	c-3,3.2-5.5,3.6-9.5,1.7c-1.6-0.8-3.1-1.7-4.5-2.7c-5.2-3.8-10.3-7.6-15.4-11.4c-1-0.8-2-1.6-3.1-2.3c-1.9-1.3-3.9-1.7-5.7-0.1
	c-3.5,3-7,2.4-10.7,0.5c-4.1-2.2-7.9-4.9-11.1-8.3c-3.6-3.8-7-7.9-10.5-11.9c-2.9-3.2-5.7-6.5-8.6-9.7c-0.5-0.6-1.2-1-1.7-1.4
	c-1.2,0.3-1.4,1.1-1.3,1.9c0.6,2.8,1.3,5.6,1.9,8.4c0.7,3.2,0.7,6.4-1.2,9.3c-3.6-0.1-6.4-1.7-8.7-4.3c-2.1-2.4-4.2-4.8-6.3-7.2
	c-3.7-4.2-7.5-8.3-11.2-12.5c-0.7-0.8-1.6-1.4-2.8-2.3c-0.5,1.2-1,2-1.2,2.8c-0.7,3.9-1.3,7.9-2.1,11.8c-0.4,1.9-1,3.7-1.7,5.5
	c-0.7,1.7-2.2,2.3-4,1.5c-2-0.9-4-2-6.2-3.1c-0.5,1.1-0.9,2.1-1.3,3.1c-1.3,4.3-2.6,8.6-4,12.8c-0.5,1.5-1,3-1.6,4.5
	c-1.3,3.3-3.6,5.8-7.1,6.5c-3,0.6-4.4,2.5-4.9,5.2c-0.9,4.4-1.8,8.8-2.5,13.2c-1.2,7-3,13.7-6.1,20.1c-1.4,2.8-1.8,5.8-1.5,8.9
	c0.4,3.5,1.7,6.5,4.4,8.8c1.6,1.3,3.3,2.5,5,3.7c2.4,1.6,4.9,3.1,7.3,4.6c5.4,3.4,8.8,8.2,10.9,14.1c1.5,4.3,2.4,8.6,2.7,13.1
	c0.3,3.8,0.5,7.7,0.5,11.5c0.2,7-2.7,9.6-9.8,8.9c-4.7-0.5-9-2-13.3-3.8c-2.4-1-4.7-2.1-7.1-3c-4.4-1.7-8.7-1.7-12.9,0.8
	c-0.8,0.5-1.7,0.9-2.7,1c-6.7,0.6-13.4,0.5-20-1.2c-5.6-1.5-11.1-2.9-16.8-4.1c-7.1-1.6-11.9-5.9-14.5-12.7
	c-6.3-16.7-11.3-33.6-13.1-51.4c-0.8-7.3-1.8-14.6-2.8-21.9c-0.1-1.1-0.4-2.2-0.8-3.2c-0.5-1.4-1.9-1.9-3.1-1.1
	c-0.7,0.5-1.4,1.3-1.7,2.2c-0.5,1.3-0.7,2.8-0.9,4.2c-1,5.1-3.3,9.6-5.6,14.3c-1.8-0.5-2.8-1.9-4-2.8c-1.2-1-2.4-2.1-3.6-3.2
	c-1.1-1-2-2.1-3.1-3c-2.3-1.8-4.4-1.5-6.1,1c-1,1.5-1.7,3.1-2.5,4.6c-1.1,2.1-2.1,4.3-3.3,6.4c-2.5,4.4-5.1,5.1-9.5,2.3
	c-2.5-1.6-4.8-3.6-7.2-5.5c-1-0.8-1.9-1.8-2.9-2.4c-1.7-1-3.5-0.7-4.7,0.8c-0.8,1-1.4,2.1-1.9,3.3c-4.4,10.1-7.9,20.6-9.4,31.6
	c-1.1,8.3-0.4,16.3,2.7,24c2.1,5.2,4.7,10.1,7,15.2c1.9,4.4,4,8.7,5.5,13.3c2.5,7.5,2.7,15.1,0.4,22.7c-0.7,2.3-1.6,4.5-2.8,6.6
	c-2.3,4-5.4,5.2-9.8,3.8c-3.2-1-6.3-2.4-9.3-3.8c-2.9-1.4-5.7-2.9-8.4-4.5c-2.4-1.4-4.8-1.7-7.3-0.6c-7.2,3.1-14.8,3.8-22.6,3.5
	c-3.7-0.1-7.4-0.1-11,0.1c-7.6,0.4-13.7-2.6-18.4-8.5c-3.7-4.5-6.4-9.6-8.2-15.1c-2.6-8.4-5.1-16.8-7.5-25.3
	c-3.2-11.9-6.3-23.8-9.4-35.7c-1.5-5.9-2.5-11.9-1.5-18c0.5-3.2,1.5-6.2,2.8-9.1c6.9-15.3,13.8-30.6,20.6-45.9
	c0.7-1.5,1.3-2.9,1.8-4.4c0.5-1.8,0.1-3.5-1.4-4.8c-0.6-0.5-1.2-1-1.9-1.5c-2.5-2-3.2-4.6-2.4-7.7c0.8-2.9,1.5-5.9,2.4-8.8
	c4.6-14.6,9.3-29.2,13.9-43.9c1.6-5.2,2.9-10.5,4.5-15.7c1-3.3,2-6.8,3.6-9.9c8.9-18.3,17.9-36.4,26.9-54.6c0.8-1.7,1.7-3.5,2.3-5.3
	c0.8-2.1,0.3-4.1-1.1-5.8c-0.5-0.6-1.1-1.2-1.6-1.8c-2.4-2.8-2.9-6-1.6-9.4c0.7-1.9,1.5-3.9,2.2-5.8c5.6-14.3,11.7-28.4,18.8-42
	c2.7-5.2,5.3-10.6,7.7-16c3.1-6.9,7.1-13.2,11.7-19.2c6.9-8.7,14.4-16.8,22.7-24.1c10.5-9.3,21.3-18.5,32.1-27.5
	c4-3.4,8.5-6.2,12.8-9.3c3.4-2.4,6.8-4.8,10.2-7.2c1.9-1.3,3.2-3.1,3.8-5.4c0.4-1.3,0.2-2.4-0.4-3.7c-2.7-5.5-2.3-7.1,2.5-10.9
	c1.4-1.1,2.8-2.1,4.1-3.3c4.3-4,5.4-8.9,4-14.4c-0.3-1.2-0.8-2.4-1.3-3.6c-1.5-3.6-1.3-7.2,0.2-10.7c0.5-1.2,1.1-2.3,1.7-3.5
	c2.7-5.2,4-10.8,3.9-16.6c0-2.6-0.2-5.1,0-7.7c0.4-5.3,2-10.3,4-15.3c1-2.5,2.8-4.1,5.6-3.5c4.4,0.9,5.9-1,6.5-5.5
	c0.6-4.1,1.2-8.2,1.8-12.3c0.4-2.9,1.7-5,4.9-5.7c3-0.6,4.5-2.8,4.9-5.8c0.5-3.2,1.1-6.3,1.5-9.5c0.9-6.3,3.3-12,6.7-17.3
	c2.1-3.2,4.4-6.3,6.7-9.4c3-4,6.1-7.8,9.1-11.7c0.5-0.6,1-1.3,1.5-1.8c2.6-2.4,5.9-1.9,7.6,1.3c0.5,1,0.9,2.1,1.2,3.1
	c3.1,11.3,6.1,22.5,7.6,34.1c0.5,3.9,1.6,7.5,3.4,10.9c6.4,12.4,9.7,25.6,11.3,39.4c0.9,8,1,16,1.2,24c0,1.9,0.1,3.8,0.5,5.7
	c0.4,2.3,1.7,3.3,4,3.4c1.1,0.1,2.2,0,3.3-0.2c2.9-0.3,5.7-0.8,8.6-1.1c10.2-1.1,20.2-0.3,29.8,3.3c14.3,5.4,29.1,7.3,44.3,7.1
	c7.7-0.1,15.4-0.4,23-0.7c5.6-0.2,11.2-0.4,16.8-0.6c17.1-0.4,34.2-0.6,51.3-1.2c13.7-0.5,27.5-1.6,41.2-2.5
	c5.1-0.3,10.2-0.8,15.3-1.2c6.2-0.5,12.4-1.4,18.4-3.1c3.4-1,6.8-2.1,9.8-3.8c8.1-4.3,16.6-7.4,25.2-10.5c12.3-4.4,24.7-8.9,37-13.3
	c0.9-0.3,1.8-0.7,2.7-1c18.1-6.7,29.1-19.6,33.7-38.2c1.1-4.5,2.1-9,3-13.6c0.4-2,0.6-4.1,0.6-6.2c0.1-2.8-0.6-5.2-2.8-7.3
	c-2.6-2.5-2.6-4.1-0.7-7.2c0.8-1.4,1.8-2.6,2.8-3.9c3.4-4.3,6.8-8.5,10.2-12.7c4-4.8,7.4-10,9.9-15.8c2.9-6.5,6.5-12.4,11.5-17.6
	c3.6-3.6,3.8-7.2,0.6-11.2c-6.4-7.7-6.9-16.7-5.8-25.9c1-8.6,5.5-15.6,12.3-21c3.1-2.4,6.5-4.7,10.1-6.4c16-7.4,27.9-18.9,36.6-34.1
	c2.7-4.7,5.8-9.2,9.7-13.1c7.2-7,15.7-10.9,25.8-11c5.1,0,10.2-0.6,15.2-1.7c5.7-1.3,11-3.5,15.6-7.1c7.1-5.6,15.2-7.9,24.2-7.7
	c8,0.2,16,0.3,24,0.2c4.5-0.1,8.9-0.5,13.4-1c4-0.5,7.8-1.6,11.5-3.3c5.3-2.3,10.6-2.1,15.8,0c2.2,0.9,4.4,2,6.6,2.9
	c4.9,2.1,9.9,3.4,15.3,3.4c7.5,0,14.5,2.3,21,6.1c5,2.9,9.4,6.6,13.5,10.7c1.6,1.6,2.7,3.5,3.2,6c-3,1.7-3.7,4.6-4,7.7
	c-0.2,2.1-0.8,4-2.1,5.8c-0.8,1.2-1.5,2.5-2.1,3.8c-1.9,4.4-1.2,7.6,2.7,10.6c1.5,1.2,3.2,2.2,4.9,3.1c7.9,4.2,16.3,6.5,25.1,7.7
	c9.2,1.3,18.5,1.3,27.8,0.5c3.2-0.3,6.4-0.3,9.6-0.5c5.2-0.2,8.8,2.3,11,6.9c2.9,6,3.2,12.3,2.2,18.8c-0.5,3-1.2,5.9-1.9,8.9
	c-1.7,7.7-2.9,15.4-2.5,23.3c0.2,4.5,0.8,8.9,1.4,13.3c1.6,11.8,0.6,23.4-4.5,34.2c-3.1,6.6-5.4,13.3-7.3,20.3
	c-0.7,2.6-1.4,5.2-2.3,7.8c-0.4,1.4-1,2.7-1.7,3.9c-1,1.8-2.7,2.7-4.8,2.3c-0.8-0.2-1.6-0.4-2.3-0.5c-3.2-0.3-5.1,0.9-6.4,3.9
	c-0.4,0.9-0.6,1.8-0.8,2.7c-1,4.4-2,8.7-2.9,13.1c-0.1,0.3-0.1,0.6-0.2,0.9c-1.2,4.8-2.5,5.7-7.4,4.7c-0.6-0.1-1.2-0.3-1.9-0.3
	c-1.6-0.1-2.8,0.7-3.4,2.1c-0.4,1-0.6,2.2-0.7,3.3c-0.6,4-1.1,7.9-1.6,11.9c-0.1,0.5-0.1,1-0.2,1.4c-0.8,4-2.5,5.2-6.4,4.2
	c-2-0.5-3.9-1.3-5.9-2c-3.8-1.3-7.6-2.6-11.4-3.8c-1.1-0.3-2.2-0.6-3.3-0.7c-5.8-0.4-10.2,4.9-8.3,10.5c2.7,8,5.9,15.9,10.8,22.9
	c5,7.2,10.2,14.4,15.3,21.5c2.2,3.1,4.5,6.2,6.7,9.3c1.4,2,2.5,4.1,3,6.5c0.8,3.6-1.3,6-5,5.6c-1.9-0.2-3.7-0.9-5.6-1.2
	c-2.5-0.4-5.1-0.8-7.6-0.8c-2.1,0-3.3,1.3-3.1,3.4c0.2,1.9,0.7,3.8,1.4,5.5c2.7,6.3,5.6,12.5,8.5,18.8c1.3,2.9,2.7,5.8,3.9,8.7
	c0.6,1.5,1.2,3,1.5,4.5c0.8,3,0.2,4.1-3,4.8c-2.6,0.5-5.4,0.5-8.1,0.7C1890.2,830.9,1888.8,830.8,1887.1,830.8z"/>
</svg>
