<?xml version="1.0" encoding="utf-8"?>
<!-- Generator: Adobe Illustrator 22.0.0, SVG Export Plug-In . SVG Version: 6.00 Build 0)  -->
<svg version="1.1" id="Layer_1" xmlns="http://www.w3.org/2000/svg" xmlns:xlink="http://www.w3.org/1999/xlink" x="0px" y="0px"
	 viewBox="0 0 2880 1800" enable-background="new 0 0 2880 1800" xml:space="preserve">
<path d="M1581.4,1309.1c-2,0.5-3.6,1.1-5.3,1.4c-2,0.5-3.3-0.2-3.5-2.2c-0.3-2.7-0.3-5.4-0.2-8.1c0.1-3.2,0.5-6.4,0.6-9.6
	c0.2-3.6-0.3-7-1.6-10.3c-1.6-4.2-3.1-8.4-4.5-12.6c-1.3-4.1-2.4-8.3-3.7-12.4c-1.2-4.1-1.1-8.2-0.6-12.4c1.4-11,1.8-22,0.4-33
	c-1.5-11.3-4-22.3-7.4-33.2c-1.1-3.5-2.4-6.9-3.9-10.3c-2.1-4.7-5.1-9-9.4-11.9c-5-3.4-6.1-8.3-6.6-13.7c-0.1-1.6,0.1-3.2,0.1-4.8
	c-0.1-2.1-0.2-4.1-0.3-5.8c-1.4-1.3-2.6-1.2-3.9-1.1c-2.1,0.2-4.1,0.4-6.2,0.5c-3.1,0.1-6.1-0.3-8.6-2.2c-0.4-0.3-0.8-0.5-1.2-0.7
	c-2.3-1.2-4.6-1.5-6.9-0.2c-3.9,2.2-7.9,4.3-11.7,6.6c-5.1,3.2-6.6,3.1-10.6-1.3c-1-1.1-1.9-2.1-2.9-3.2c-0.1-0.1-0.3-0.1-0.4-0.2
	c-5,2.4-10.1,4.6-15.3,6.4c-4.3,1.5-8.8,1.7-13.3,1c-5.4-0.8-10.7-1.7-16.1-2.8c-8.5-1.8-17-3.1-25.7-2.4c-1,0.1-1.9,0-2.9-0.1
	c-2.2-0.2-3.9-1.3-5-3.3c-0.3-0.6-0.6-1.1-0.8-1.7c-2.2-5.6-6.4-9.1-11.9-11.1c-3.3-1.2-6.7-2.2-10.1-3c-21.5-5.6-43-11.1-64.5-16.7
	c-0.9-0.2-1.8-0.6-2.8-0.8c-1.5-0.3-2.7-1.1-3.4-2.4c-3.2-5.3-8.2-7.9-13.9-9.4c-9.4-2.4-18.9-4.8-28.3-7.3
	c-6.2-1.7-12.4-3.3-18.4-5.5c-8.6-3.2-16.5-2.3-24.3,2.5c-7.5,4.5-14,10.1-19.6,16.7c-2.9,3.4-5.5,7-8.3,10.5
	c-6.5,8.1-12.9,16.4-19.6,24.3c-6.7,7.8-14.3,14.7-23.3,19.9c-5.3,3.1-9.9,6.9-14.4,11c-11.7,10.6-23.6,21.2-35.4,31.7
	c-4.2,3.7-8,7.8-11.2,12.5c-5.5,7.9-8.7,16.7-9.4,26.3c-0.2,2.2-0.4,4.5-0.8,6.7c-0.4,2.6-1.5,4.8-3.9,6.3
	c-4.2,2.7-5.5,6.9-5.4,11.6c0,1.3,0.3,2.5,0.3,3.8c0.1,2.5,0,5.1,0,7.6c-1.6,1.6-3.9,1.6-5.8,1.9c-4.3,0.6-6.5,3-7.5,7
	c-2.2,8.9-1.3,17.5,3.3,25.5c1,1.7,2.5,3.3,4.1,4.6c5.4,4.3,9.4,9.6,12.1,15.9c2.6,6.2,5,12.4,7.5,18.7c0.4,0.9,0.6,1.8,0.7,2.8
	c0.4,2.9-0.5,5.4-2.9,7.2c-1.3,0.9-2.7,1.8-4.3,2.1c-13.9,3-27.9,3.9-41.8-0.3c-3.6-1.1-7.1-2.8-10.6-4.4c-2.6-1.2-5.2-2.3-8.4-2.7
	c-0.2,1-0.4,1.9-0.4,2.7c0,2.4,0.1,4.8,0.1,7.2c0,2.7-0.2,5.4-0.3,8.2c-0.1,5.2-2.6,7.6-8,6.9c-0.9-0.1-1.9-0.1-2.9-0.1
	c-2.3,0-4.4,0.6-6,2.5c-4.3,4.8-9.6,5.4-15.3,3.5c-2.1-0.7-4.2-1.6-6.3-2.4c-9.9-4.2-20.2-7.1-30.9-8.5c-8.9-1.1-16.5-4.9-22.7-11.4
	c-2.4-2.5-4.5-5.4-6.7-8.1c-2-2.5-2.9-5.4-3-8.5c-0.2-5.6,0.2-11.1,2.5-16.4c3.5-8.4,6.7-16.9,10-25.4c0.4-1,0.8-2.1,1.1-3.2
	c0.6-2.4,0.1-4.4-1.9-6c-0.4-0.3-0.8-0.5-1.2-0.8c-2.8-2.1-3.5-4.8-2.3-8.1c0.5-1.5,1.2-2.9,1.8-4.4c1.5-3.9,3-7.7,4.4-11.7
	c0.9-2.5,0.9-5-0.3-7.4c-1.6-3.2-1.2-6.5,0.2-9.7c0.6-1.3,1.3-2.6,2-3.8c2.4-3.8,4-8,5.3-12.3c7.9-27,21.1-51,40-71.9
	c3.7-4.1,7.1-8.7,10.2-13.3c7.3-11,11.3-23.2,12.2-36.4c1-14.5,2-29,3.1-43.6c0.1-2.1,0.4-4.1,0.6-6.2c0.3-3.1-0.5-5.6-3.4-7.4
	c-1.2-0.7-2.2-1.9-2.9-3.1c-0.7-1.2-0.9-2.6-0.4-4.1c3-8.6,3.5-17.5,3.8-26.5c0.5-16.4,3.3-32.4,7.5-48.2c0.4-1.5,0.8-3.1,1.2-4.6
	c0.5-2.1-0.3-3.8-2-5c-0.9-0.6-1.9-1.2-2.9-1.7c-3.7-1.6-6.1-4.4-8-7.8c3.4-2.9,5.9-4,9.8-4.3c6-0.3,10.3-3.2,13-8.5
	c1.2-2.4,2.3-5,3.1-7.5c2.7-9,7.3-17,13.1-24.4c4.5-5.7,8.9-11.3,13.3-17c1-1.3,2-2.5,2.7-3.9c1.2-2.2,1.1-4.3-0.6-6.2
	c-4.4-5-8.6-10.3-13.5-15c-5.7-5.5-10.2-11.9-14.2-18.6c-2.1-3.4-4.1-6.8-7.2-9.5c-2.6-2.4-3.6-5.6-3.3-9.1c0.2-1.9,0.5-3.8,0.6-5.7
	c0.1-3.2-1-4.7-4-5.8c-1.7-0.6-3.4-0.8-5.1-1.3c-3.5-1.1-4.6-2.8-4.1-6.5c0.1-0.9,0.4-1.9,0.7-2.8c1.5-5.2,2.9-10.5,4.4-15.7
	c0.2-0.6,0.4-1.2,0.5-1.8c0.7-3.8-0.4-6.1-3.9-7.9c-1.1-0.6-2.4-1-3.5-1.5c-3.1-1.6-4.2-3.7-3.3-7.1c2.8-10.1,1.8-20-1.2-29.8
	c-1.1-3.8-2.4-7.6-3.6-11.4c-0.5-1.5-0.9-3.1-1.3-4.6c-0.6-2.4-0.4-4.7,1.2-6.8c3.5-4.9,3.6-10.1,1.4-15.5c-0.6-1.5-1.2-3-1.9-4.4
	c-3.8-6.9-3.9-14-1.2-21.3c1.1-3,1.7-6.2,2.3-9.3c1.2-6.9,0.3-13.7-0.6-20.5c-0.7-5.7-1.8-11.4-1.5-17.2c0.2-3,0.6-6,1.2-9
	c0.2-1.4,0.8-2.8,1.4-4.1c0.9-2.1,2.6-3.2,4.9-3.1c1.4,0.1,2.9,0.2,4.3,0.2c2.8-0.1,4.2-1.3,4.4-4c0.1-1.6-0.1-3.2-0.2-4.8
	c-0.6-7.2-1.3-14.3-1.8-21.5c-0.1-1.6,0-3.2,0.1-4.8c0.3-4.1,2.2-7.3,5.5-9.7c0.9-0.7,1.9-1.2,2.8-1.9c2.6-1.9,4.1-4.3,3.8-7.8
	c-0.4-4.7,0.8-9.2,2.9-13.4c1.7-3.4,3.7-6.7,5.7-10c2.6-4.3,4.9-8.6,6.3-13.4c0.3-1,0.9-2,1.7-2.8c3.2-3.6,6.6-7,9.6-10.7
	c2.3-2.8,4.4-5.9,6.3-9c5.4-8.9,11.4-17.4,19.2-24.4c1.9-1.7,3.6-3.7,5-5.8c3.8-5.5,7.5-11.1,11.1-16.8c1.8-2.9,3.7-5.6,6.1-7.9
	c1-1,2.2-1.9,3.4-2.6c4.5-2.5,9.6-0.4,11.2,4.5c0.3,1.1,0.4,2.2,0.5,3.3c1.6,13.5,0.5,26.8-2.4,40.1c-0.8,3.7-1.8,7.5-2.8,11.2
	c-1.7,6-3.8,11.9-6.7,17.4c-7.4,14.5-12.7,29.7-15.7,45.7c-1.3,6.8-2.2,13.6-3.1,20.4c-0.8,5.7-2.1,11.3-3.8,16.8
	c-2.9,9.4-4.1,19.1-3,28.9c0.5,5.1,1.3,10.2,2,15.2c1.8,13,3.6,26,5.5,38.9c2.7,18.3,7.3,36,14.2,53.2c5.6,13.9,15.4,23.3,29.4,28.4
	c4.3,1.6,8.9,2.7,13.4,3.8c4.2,1,8.3,2.2,12.3,4c10.6,4.8,21.5,5.7,32.8,2.8c11.3-2.9,22.8-5,34.4-6.3c11.2-1.3,22.3-1.2,33.5,0.3
	c17.1,2.3,34.3,4.3,51.6,4c9.3-0.2,18.5-0.8,27.8-1.3c9.4-0.5,18.9-0.5,28.3,0.1c18.9,1.2,37.7,0.4,56.3-4.1
	c6.1-1.5,12.3-2.2,18.5-2.3c4.3-0.1,8.6-0.1,13-0.1c13.1,0.1,25.9-1.7,38.3-5.7c18.5-6.1,37.4-11.1,56.2-16.2
	c10.3-2.8,20-6.7,28.7-12.8c3.3-2.3,6.8-4.1,10.2-6.2c5.7-3.5,11.5-6.9,17.1-10.7c11.4-7.9,21.2-17.5,29.3-28.8
	c10.3-14.4,21.8-27.6,34.9-39.5c4.1-3.8,8.4-7.4,12.8-10.8c11.1-8.8,19.9-19.5,25.7-32.4c5.5-12.2,14.1-21.6,24.4-29.7
	c10-7.7,21.2-13.2,33.1-17.2c7.6-2.5,15.3-4.7,23-6.7c5.9-1.5,11.9-2.3,18.1-1.4c5.6,0.8,10.6,2.8,14.5,6.7
	c4.6,4.5,9.9,7.5,15.9,9.5c5.8,1.9,11.6,3.7,16.8,6.9c1,0.6,2.5,0.7,3.7,0.6c6.7-0.6,13.4-1.3,20.1-2c2.4-0.2,4.8-0.4,7.2-0.4
	c2.3,0,4.5,0.7,6,2.5c2.2,2.8,5.2,3.5,8.6,3.2c1-0.1,1.9-0.2,2.9-0.2c2.3-0.1,4.5,0.2,6.3,1.6c-0.5,2.8-1,5.4-1.4,8.1
	c-0.3,2.2-0.3,4.5,1.2,6.5c0.3,0.4,0.5,0.8,0.6,1.3c0.8,2.4,0.4,3.9-1.7,5.4c-0.5,0.4-1.1,0.6-1.6,1c-2.7,2-3.1,4.8-0.9,7.4
	c7.7,9.4,16.5,17.3,27.2,23.2c6.3,3.4,12.8,6.5,19.5,9.1c6.5,2.6,13.1,5.1,19.7,7.6c1.6,0.6,3.2,1.3,4.7,1.9
	c0.5,4.1,0.6,34.9,0.1,39.7c-0.9,0.4-2,0.7-2.8,1.3c-0.7,0.6-1,1.6-1.4,2.5c-1.4,3.6-2.8,7.1-4.3,10.7c-1.5,3.5-3.1,7-4.6,10.5
	c-1.1,2.5-2,5-3,7.6c-0.7,1.8-1.2,3.7-2,5.4c-1.2,2.4-2.6,3-5.1,2.1c-1.5-0.5-2.9-1.4-4.3-2.1c-0.6-0.3-1.1-0.5-1.8-0.8
	c-1.7,1.4-1.4,3.3-1.4,4.9c0,7.5-0.1,15,0.1,22.5c0.2,6-0.6,11.8-2.8,17.4c-2.2,5.9-5.3,11.3-8.7,16.5c-2.1,3.2-4.8,3.9-8.3,2.6
	c-0.6-0.2-1.2-0.5-1.7-0.8c-5.1-2.7-10.5-2.8-15.8-1.2c-3.4,1-6.6,2.4-9.9,3.7c-4.2,1.7-8.3,3.2-12.9,3.4c-1.1,0-2.2,0.5-3.1,1
	c-2.6,1.4-5,0.8-7.1-1c-1.3-1.1-2.5-2.4-3.9-3.6c-4.3-3.8-6.7-3.3-9.3,1.8c-0.7,1.4-1.3,2.9-2,4.4c-2.1,4.2-3.7,4.9-8.1,3.4
	c-1.1-0.4-2.1-0.9-3.2-1.1c-2.9-0.7-4.5,0-6,2.6c-0.3,0.6-0.6,1.1-0.8,1.7c-5.1,13.8-10.5,27.5-15.2,41.4c-3.8,11.4-6.6,23-9.9,34.6
	c-0.7,2.5-1.4,4.9-2.1,7.4c-1.1,3.3-2.9,6-6.3,7.4c-4.3,1.8-6.2,5.2-6.8,9.7c-1.5,11.1-3.2,22.2-4.7,33.2c-0.6,4.6-0.8,9.2-1.2,13.9
	c-0.3,2.7-0.4,5.4-1,8.1c-0.6,3.1-2.2,5.6-5.8,6.1c-3.7,0.6-6,3-7.1,6.4c-1.2,3.6-2.3,7.3-3.4,11c-4.2,13.9-8.3,27.9-12.5,41.8
	c-0.7,2.3-1.5,4.5-2.5,6.7c-1.3,2.9-3.3,5.2-6.3,6.3c-2.8,1-4.4,3-5.7,5.4c-3.4,6.5-6.9,13-10.3,19.5c-0.7,1.3-1.3,2.6-2,3.8
	c-2.8,4.7-6.7,8.1-12.2,9.3c-3.1,0.7-5,2.5-6.1,5.5c-5.7,15.8-12,31.4-16.8,47.5c-4.3,14.4-7.3,29.2-9.9,44
	c-1.5,8.5-3.1,17-4.4,25.5c-1,7-1.6,14-2.3,21c-0.5,5.4-1.3,10.8-2.7,16.1c-3,11.5-4.5,23.2-5.1,35.1c-0.4,8.1-0.7,16.3-1,24.5
	c-0.1,1.6-0.1,3.2,0,4.8c0.3,4.2,2.4,7.3,6.4,8.8c2.2,0.8,4.6,1.4,6.9,1.7c6.4,0.7,12.7,1.2,19.1,1.8c2.2,0.2,4.5,0.6,6.6,1.2
	c4.6,1.3,7.5,4.4,8,9.1c0.8,7.3,1.4,14.6,2,22c0.1,1.6,0,3.3-0.4,4.7c-2.1,6.9-4.2,13.8-7.5,20.2c-1,2-2.3,3.8-3.9,5.4
	c-3.2,3.2-7.1,5-11.7,4.6c-4.6-0.3-9.2-0.8-13.8-1.3c-13.1-1.2-26.1-2.4-39.2-3.6c-2.4-0.2-4.8-0.5-7.1-1
	c-7.2-1.7-12.8-5.6-16.6-12.1c-1.3-2.2-2.5-4.4-4-6.6c-1.5-2.2-3.3-3.8-6.1-4.4c-5-1-7.5-4.5-8.6-9.3c-0.4-1.9-0.7-3.8-1.2-5.6
	c-0.8-2.4-2.2-3.3-4.7-3.3c-1,0-1.9,0.2-2.9,0.2c-3.2,0.1-4.4-0.9-5-3.9c-0.3-1.9-0.5-3.8-0.9-5.7
	C1582.3,1312.4,1581.9,1310.9,1581.4,1309.1z"/>
</svg>
