<?xml version="1.0" encoding="utf-8"?>
<!-- Generator: Adobe Illustrator 22.0.0, SVG Export Plug-In . SVG Version: 6.00 Build 0)  -->
<svg version="1.1" id="Layer_1" xmlns="http://www.w3.org/2000/svg" xmlns:xlink="http://www.w3.org/1999/xlink" x="0px" y="0px"
	 viewBox="0 0 2880 1800" enable-background="new 0 0 2880 1800" xml:space="preserve">
<path d="M1093.3,1045.1c4.3-4,8.4-7.5,12.2-11.3c3.8-3.8,7.5-7.9,11-12c3.5-4.1,6.7-8.5,9.5-13c-0.1-0.5-0.1-0.9-0.3-1.1
	c-3.6-2.7-4.6-6.5-4-10.7c0.3-2,0.7-4.1,1.4-6c1-2.7,2.2-5.4,3.7-7.8c11-17.9,22-35.7,34.1-52.8c9.6-13.6,19.7-26.8,30.9-39.1
	c0.6-0.7,1.2-1.5,2-2.4c-0.8-1-1.6-2-2.5-2.9c-7.2-7.3-13.6-15.3-19.6-23.6c-3.8-5.4-7.1-11-9.4-17.2c-2.8-7.6-4.1-15.4-2.4-23.5
	c0.9-4.3,2.3-8.3,4.8-11.9c0.6-0.9,1.2-1.8,1.7-2.6c-0.7-1.3-1.8-1-2.6-1c-18-0.8-35.8,1.3-53.1,6.3c-1.5,0.4-3.1,0.7-4.6,1.1
	c-0.1,0-0.3-0.1-0.8-0.2c-0.1-1.4-0.2-3-0.2-4.6c-0.1-6.4-0.1-12.8-0.2-19.2c0-1.4,0.2-2.9-0.8-4.4c-8.2,1.6-15.8,4.8-23,9
	c-7.1,4.1-13.3,9.4-18.7,15.3c-1.6-0.6-1-1.7-1-2.5c0.7-8.9,1.5-17.9,2.3-26.8c0.6-7.3,1.2-14.7,1.8-22c0-0.6-0.1-1.2-0.2-1.8
	c-1.7-0.4-2.6,0.7-3.6,1.4c-15.5,9.9-28.9,22.2-40.1,36.8c-0.9,1.1-1.8,2.3-2.7,3.4c-0.1,0.1-0.3,0.1-0.7,0.3
	c-0.3-0.4-0.7-0.9-0.8-1.4c-1.4-9.7-2.9-19.3-4.1-29c-2.3-18.4-3.2-37-3.6-55.5c0-0.8-0.2-1.6-0.2-2.3c-1.8-0.5-2.9,0.7-4,1.4
	c-15.4,9.5-28.5,21.6-39.3,36.2c-4.7,6.3-8.8,13-12.4,19.9c-0.5,0.9-0.5,2.2-2.1,2.7c0.1-7.5,1.1-14.7,2-21.9
	c0.9-7.5,1.9-14.9,3-22.3c1.1-7.3,2.4-14.5,3.6-21.8c1.2-7.2,3.1-14.3,4.2-22c-5,2.6-9.1,5.8-13.3,8.5c-4.4,2.9-8.8,5.9-13.2,8.8
	c-4.3,2.8-8.5,5.7-12.8,8.5c-4.2,2.7-8.2,5.8-13.2,8.5c0.3-1,0.3-1.4,0.5-1.8c12.7-18.9,25.8-37.4,41.6-53.8
	c7.9-8.2,16.4-15.8,25.7-22.2c13.2-9.1,27.5-15.6,43.4-18.4c9.6-1.7,19.4-2,29.2-1.8c66.3,1.5,130.5,32.9,173,80.7
	c20.7,23.3,36,49.6,44.8,79.6c2.7,9.4,4.7,18.9,7.2,28.4c1.6,6,3.7,11.9,5.6,17.8c0.5,1.5,1.2,2.9,1.9,4.4c2,0.2,3.6-0.4,5.3-0.8
	c12.7-3.1,25.5-4.6,38.5-4c9.3,0.4,18.5,1.5,27.6,3.1c12,2.1,23.9,4.3,35.9,6.4c12.1,2.1,24.4,3.6,36.6,4.8c19,1.8,38,2.8,57,2.4
	c17.9-0.3,35.8-1.9,53.2-6.5c15.8-4.1,30.5-10.5,43.7-20.2c10-7.4,18.6-16.1,25.3-26.7c3.5-5.6,6.3-11.5,8.3-17.8
	c1.2-3.9,1.1-7.5-0.5-12.3c-4.7,0.8-9.1,2.5-13.7,3.8c-4.4,1.3-8.9,2.6-13.7,4c-0.1-1.4-0.3-2.4-0.3-3.5c0.4-8,0.9-16,1.3-24
	c0.1-1.2,0-2.5,0-4c-1.2,0-2.1-0.1-3,0c-6.2,1.1-12.2,2.7-18.1,4.8c-1.2,0.4-2.4,0.8-3.8,1.2c-0.9-3.7-0.3-7.2-0.5-10.6
	c-0.1-3.5,0.1-7-0.2-10.7c-6.3,0.2-11.9,2.4-17.6,2.5c-1-0.8-0.6-1.6-0.4-2.4c0.6-3.3,1.2-6.6,1.8-9.9c0.3-1.7,0.9-3.4,0.3-5.4
	c-4.1-0.7-8.2,0.1-12.3,0.2c-4,0-7.9,0.3-12.2,0.2c-0.7-2.7-0.1-5.2,0.1-7.7c0.2-2.7,0.4-5.4,0.6-8.1c0.2-2.5,0.4-5.1,0.7-8
	c-1.1,0.2-1.9,0.2-2.5,0.4c-4.5,2-9,4-13.6,6c-1,0.4-2,0.7-3.5,1.2c1-9.6,2.9-18.7,2.5-28.2c-1.1-0.2-2-0.5-2.9-0.5
	c-2.9-0.1-5.8,0-8.6,0c-0.9,0-1.8-0.2-2.9-0.3c-0.5-4.9,0.7-9.4,1-14c0.2-4.4,1.4-8.8,0.9-13.6c-4.8,1.8-8.8,4.9-14.1,5.6
	c-0.1-1.2-0.4-2.2-0.4-3.3c0-8.3,0-16.6-0.1-25c0-1.6-0.1-3.1-0.2-4.8c-2.3-0.9-4.6-0.4-6.8-0.5c-2.4-0.1-4.8,0-7.2,0
	c-2.2,0-4.5,0-6.7,0c-2.2,0-4.5,0-6.5,0c-1-1.4-0.2-2.4,0.2-3.3c4.4-9.8,10.9-18,19.1-25c11.9-10,25.6-16.3,40.6-19.7
	c16.5-3.8,33-3.1,49.5,0.5c14.1,3.1,27.6,8.2,40.6,14.5c16.3,7.9,31.6,17.4,46.5,27.8c1,0.7,2.1,1.5,3.1,2.2
	c0.3,0.2,0.6,0.3,1.2,0.5c0.7-0.6,1.6-1.2,2.4-1.9c4.5-4.2,9.2-7.9,14.4-11.2c14.1-8.9,29.6-12.5,46.2-11.7
	c12.2,0.6,23.7,3.7,34.4,9.4c0.4,0.2,0.9,0.4,1.3,0.6c0.1,0.1,0.3,0,0.9,0c0.3-0.4,0.8-1,1.1-1.6c9.1-19.8,23.6-34.8,41.7-46.6
	c15.3-9.9,31.9-16,49.8-19c18.6-3.1,37.2-3.1,56-1.2c23,2.3,45.4,7.5,67.8,13c0.8,0.2,1.5,0.5,2.7,1c-1,0.6-1.6,1-2.2,1.3
	c-6.7,2.9-11.6,7.8-15.3,14.1c-3.6,6.2-5.6,12.9-6,20c-0.5,8.7,0.9,17.2,3.6,25.5c1.8,5.5,3.9,10.8,5.9,16.2
	c0.5,1.5,1.1,2.9,1.6,4.3c-1,1-1.7,0.3-2.3,0c-2.3-1.1-4.6-2.2-6.9-3.3c-0.7-0.3-1.4-0.5-2.5-0.8c-0.4,7.7,0.7,15,1,22.3
	c0.2,7.2,0.8,14.4,1.2,21.6c0.4,7.3,0.9,14.7,1.4,22c0.4,7.2,0.8,14.4,1.2,21.4c-1.5,0.9-2-0.3-2.5-0.9c-4.8-4.8-10.1-8.9-16-12.2
	c-0.9-0.5-2-0.8-3.3-1.3c-0.3,3.8,0,7.1,0,10.4c0,3.2,0.1,6.4,0.1,9.6c0,3.4-0.1,6.7-0.1,10.1c-0.1,3.4-0.1,6.7-0.3,10.1
	c-0.1,3.2-0.3,6.4-0.5,9.6c-0.2,3.3-0.5,6.6-0.7,9.9c-1.7,0.2-1.7-1-2-1.8c-3.2-6.7-7.3-12.7-12.5-18.1c-0.7-0.8-1.6-1.4-2.3-2
	c-1.3,0.4-1.2,1.4-1.3,2.1c-2.8,11.7-5.6,23.3-8.4,35c-0.3,1.2-0.7,2.3-1.3,4c-2.9-2.8-5.2-5.4-7.6-7.9c-2.4-2.5-4.8-5.1-7.3-7.7
	c-2.4-2.6-4.8-5.1-7.3-7.7c-2.4-2.5-4.7-5.1-7.2-7.4c-1.3,0.5-1.1,1.4-1.1,2.1c-0.5,10,0.1,19.8,2.4,29.5c0.3,1.2,0.9,2.4,0,3.8
	c-4.4-1.1-8.6-3.1-13-4.6c-4.3-1.5-8.5-3.3-13.6-4.9c2.5,6.2,5,11.5,7,17c2.1,5.7,4,11.5,5.4,17.4c1.5,5.7,2.5,11.6,3.4,17.4
	c0.9,5.8,1.7,11.7,1.6,18.4c-1.3-1.7-2-2.9-2.9-3.9c-1-1.1-2-2.1-3.1-3c-1.1-0.9-2.3-1.6-4.2-1.6c1.3,7.1,2.7,13.9,3.9,20.8
	c1.2,6.9,2.2,13.9,3,20.9c0.8,6.9,1.9,13.9,1.5,21.3c-6-2.5-11.5-5.6-18.2-5.6c0.2,13.5,0.5,26.7-0.5,40c-1,13.1-2.6,26.1-5.1,39
	c-2.5,13-5.7,25.8-10.1,38.8c-3.9-4.4-6.4-9.3-9.8-13.5c-1.9,1-1.7,2.9-2.1,4.3c-4.6,16.5-9.2,33-13.7,49.4
	c-0.5,1.7-0.9,3.4-1.5,5.1c-1.1,3.5-2.7,6.6-6.7,7.5c-1.8,5.8-3.5,11.4-5.2,17.2c-19.7,7.2-39.4,14.4-59.2,21.7
	c-0.4,1.2-1,2.3-1.3,3.5c-7.3,25.9-13.1,52.1-17.4,78.6c-2.7,16.6-4.7,33.2-6.3,50c-0.3,3.7-0.5,7.4-0.4,11
	c0.2,8.8,3.1,12.8,11.2,15.9c1.9,0.7,3.9,1.4,5.8,2.3c2.5,1.2,4.6,2.9,6,5.3c2,3.6,0.8,7.5-3,9.3c-2.2,1.1-4.6,1.5-7,1.3
	c-4.9-0.4-9.9-0.9-14.8-1.4c-3.8-0.4-7.6-0.9-11.4-1.3c-1.1-0.1-2.1,0-3.3,0c0.1,1.6,1.3,1.9,2.2,2.4c5.7,3.9,10.9,8.3,15.5,13.5
	c1,1.2,2,2.4,3.2,3.9c-1.1,0.5-1.7,0.9-2.5,1c-15.4,3.1-30.9,5.1-46.6,6c-12.6,0.7-25.3,0.6-37.9-0.3c-4.6-0.3-9.2-0.9-13.8-1.8
	c-6.3-1.3-11-5-14-10.8c-1.5-3-2.8-6.1-4-9.2c-17-46.4-33.9-92.8-50.8-139.2c-1.6-4.4-3.2-8.7-4.8-13.1c-0.4-1-0.8-2-1.3-3.3
	c-3.7,0.3-6.9,1.8-10.2,2.7c-3.4,0.9-6.7,2-10.2,3c-1.1-1.4-2.1-2.7-3-4c-3.7-5.1-7.7-9.8-12.5-13.8c-2.9-2.3-6-4.3-9.4-5.6
	c-5.4-2.1-10.6-1.9-15.8,0.5c-2,1-4,2.1-6,3.1c-4.6,2.3-9.3,2.3-13.9,0c-2.7-1.4-5.2-3.1-7.7-4.8c-2.9-2-5.5-4.4-8.4-6.4
	c-12.7-9.2-26.8-8.4-38.6,2c-0.5,0.4-1,0.8-1.4,1.1c-0.3-0.2-0.5-0.2-0.5-0.3c-0.5-5.4-4.1-8.1-8.7-9.7c-5-1.7-10-1.9-15,0.1
	c-3,1.2-5.9,2.5-8.9,3.6c-3,1.1-6,2.3-9.1,3c-5.6,1.4-10.8,0.2-15.2-3.7c-1.4-1.3-2.8-2.6-4.3-3.8c-2-1.7-4.1-3-6.9-3.4
	c-0.6,0.4-1.3,0.7-1.9,1.2c-12.9,9.8-26.8,18-41,25.7c-12.5,6.7-25.1,13.4-37.7,20.1c-9.4,5.1-18.6,10.6-27.5,16.6
	c-8.5,5.8-16.6,12-24,19.1c-14.4,13.8-25.5,29.9-31.8,49c-2.9,8.7-4.5,17.6-4.5,26.9c0,6.6,0.9,13.1,2.6,19.4c0.7,2.5,1.3,5,1.4,7.5
	c0.2,3.8-1.4,6-5,7.2c-5.1,1.7-10.1,1.3-15-0.5c-6.8-2.6-12-7.2-15.9-13.3c-3.1-4.9-5-10.3-6.4-16c-2-8.4-3-17-3.6-25.6
	c-0.6-8.8-0.8-17.6-1-26.4c-0.1-3.8,0.3-7.7,0.5-11.5c0.1-1.6,0-3.2,0-5c-0.9,0.2-1.7,0.3-2.3,0.7c-11.6,5.5-23.1,11-34.1,17.6
	c-12.9,7.7-24.3,17.1-33.6,29c-11.8,15.2-19.3,32.3-22.7,51.3c-0.2,1.1-0.3,2.2-0.6,3.3c-1.7,6.6-6,10.5-12.7,11.5
	c-6.5,1-11.7-1.5-15.1-7c-4.5-7.3-7.4-15.2-9.1-23.6c-3.6-18.1-2.4-36,2.4-53.7c5.2-19.2,14-36.7,25.4-52.9
	c11.2-15.9,24.2-30.2,38.4-43.5c12.3-11.5,24.9-22.6,37.3-33.8c1.5-1.4,3.1-2.7,4.5-4.3c1.2-1.3,2.3-2.7,3-4.3
	c2.2-4.3,1-8.1-3.2-10.6C1094.7,1045.7,1094.2,1045.5,1093.3,1045.1z"/>
</svg>
