<?xml version="1.0" encoding="utf-8"?>
<!-- Generator: Adobe Illustrator 22.0.0, SVG Export Plug-In . SVG Version: 6.00 Build 0)  -->
<svg version="1.1" id="Layer_1" xmlns="http://www.w3.org/2000/svg" xmlns:xlink="http://www.w3.org/1999/xlink" x="0px" y="0px"
	 viewBox="0 0 2880 1800" enable-background="new 0 0 2880 1800" xml:space="preserve">
<path d="M1829.6,428.5c2.4,2.9,3.3,5.9,3.6,9.1c0.2,3.3,0.3,6.7,0.4,10.1c0.1,3.7,0.2,7.4,0.3,11c0.1,5.2,2.1,9.5,5.6,13.4
	c19.6,21.7,39.2,43.5,58.7,65.3c2.6,2.9,5.1,5.7,7.7,8.6c2.1,2.4,3.3,5,3.1,8.3c-0.3,8.3-0.3,16.6-0.7,24.9c-0.2,4,1.2,6.6,4.5,8.7
	c11.3,7,22.4,14.2,33.6,21.4c1.2,0.8,2.5,1.5,3.6,2.4c3.2,3,6.8,5.1,11,6.5c4.3,1.4,6.5,5,7.5,9.3c1.3,5.7,1.3,11.4,0.6,17.2
	c-0.3,2.5-0.9,5-1.6,7.5c-2.5,9-5.8,17.6-10.4,25.7c-11.1,19.9-28.2,31.4-50.6,34.9c-8.2,1.3-16.5,2-24.8,2.8
	c-12.7,1.3-25.5,2.4-38.2,3.6c-8.9,0.8-17.8,1.5-26.8,2.3c-8.4,0.7-16.9,1.4-25.3,2.1c-0.6,0.1-1.3,0.1-1.9,0.3
	c-3.6,0.7-4.8,1.7-5.2,5.2c-0.5,3.7-2,7.1-3.5,10.4c-4.5,10.1-8,20.5-10.2,31.4c-2.3,11.4-2.3,22.9-1.5,34.4c0.5,7,1,14,1.5,21.1
	c0.7,10.4,1.9,20.7,3.7,31c2.9,16.9,0.8,33.2-6,48.8c-2.2,5.1-4.9,10.1-7.6,15c-4.3,7.9-8.4,15.8-11.5,24.2
	c-3.3,8.9-5.2,18.1-6.4,27.5c-1.9,16-1.1,31.9,0.5,47.9c1.2,12.4,1.7,24.9,1,37.4c-0.8,14.1-3.6,27.9-6.5,41.7
	c-4.2,20.2-8.5,40.4-12.6,60.6c-3.9,19.3-5.8,38.9-6,58.6c0,2.2,0.2,4.5,0.4,6.7c0.5,4.8,3.1,8.3,7.1,10.8c1.2,0.8,2.5,1.4,3.8,2
	c9.5,4.6,19,9.2,28.5,13.8c5.7,2.7,10,6.8,11.9,13c1.4,4.5,1.6,9.1,0.6,13.7c-0.8,3.6-2.7,6.5-5.7,8.7c-2.2,1.6-4.5,3-7,4.1
	c-7.3,3.4-15.1,5.2-23.2,5.7c-8.6,0.6-17.3,0.4-25.9-0.8c-6.2-0.8-11.1-3.9-14.6-9c-9.2-13.4-17.1-27.3-21.8-43
	c-2.7-9-7.9-16.4-14.9-22.6c-1.6-1.4-3.2-2.7-4.8-4c-6.2-5.5-9-12.3-8.3-20.5c0.5-5.9,1.1-11.8,1.5-17.7c0.9-11.3,1.7-22.6,2.7-34
	c0.6-7.3,1.6-14.6,2.2-22c0.4-5.1,0.4-10.2,0.4-15.3c-0.1-7.5-0.6-15-0.7-22.5c-0.1-23.8-0.1-47.7-0.2-71.5c0-1.9,0.2-3.8-0.3-6
	c-1.4,0.4-2.6,0.7-3.7,1.2c-6.3,2.8-12.5,5.6-18.8,8.5c-8.3,3.8-16.7,7.3-25.3,10.3c-2,0.7-3.9,1.5-5.8,2.4
	c-4.9,2.3-8.4,6.1-9.8,11.3c-3.1,11.3-7.2,22.2-9.3,33.7c-0.8,4.4-1.5,8.9-1.5,13.3c0,13,0.2,25.9,0.5,38.9c0.2,9.1,0.7,18.2,1,27.3
	c0.8,20,1.5,40,2.3,59.9c0.6,13.4,1.2,26.9,1.9,40.3c0.5,9.1,1.6,18.2,3.6,27.1c1.8,7.8,4.9,14.9,9.8,21.2
	c3.3,4.3,6.9,8.4,10.5,12.4c3.9,4.4,8,8.7,12,13.1c2.8,3.1,5.1,6.6,6.6,10.5c2,5.2,2.5,10.6,1,16c-2.6,8.9-8.6,14.6-17.6,16.5
	c-5.3,1.1-10.8,1.6-16.2,1.7c-15.2,0.3-30.4,0.3-45.6,0.3c-7.4,0-12.4-3.9-14.2-11.2c-1-4-1.3-8.2-1.7-12.3
	c-1.1-12.7-2.1-25.5-3.2-38.3c-0.6-7.6-3-14.7-7.4-21c-1.9-2.8-4.1-5.3-6.2-7.9c-3-3.7-5.1-7.7-5.7-12.5c-0.9-7.9-2-15.9-2.6-23.8
	c-0.8-10.2-1.3-20.4-1.8-30.7c-0.4-9.5-1.8-18.8-3.6-28.1c-3-16-5.9-32.1-7.9-48.3c-0.9-7.5-1.7-15-2-22.5
	c-0.9-18.9-1.5-37.7-2.1-56.6c-0.2-6.7-0.3-13.4-0.5-20.2c0-1.4-0.1-2.9-0.3-4.3c-0.4-3-1.6-4.2-4.7-4.4c-3.5-0.3-7-0.5-10.5-0.8
	c-10.1-0.9-19.9-2.8-29.5-6.1c-7.3-2.5-14.2-5.8-20.7-9.9c-18.8-11.8-37.6-23.7-56.5-35.4c-16.4-10.2-33.8-18-52.5-23
	c-2.5-0.7-5-1.2-7.5-1.8c-0.6-0.1-1.2-0.3-1.9-0.4c-8.3-1.2-13.1,1.3-16.6,8.9c-0.9,1.9-1.6,3.8-2.2,5.8
	c-7.3,24.3-20.6,45-38.5,62.7c-8.3,8.2-17,16-25.6,23.9c-6.7,6.2-13.4,12.3-20.1,18.5c-2.3,2.2-4.6,4.5-6.8,6.7
	c-9,9.2-14.2,20.3-16.6,32.9c-1.8,9.7-2,19.4-1.7,29.2c0.4,15.1,2.4,30,6.7,44.5c2.4,8.3,5.6,16.3,9.5,24c0.7,1.4,1.5,2.8,2.4,4.2
	c2,2.9,4.6,4.9,8.1,5.5c2,0.4,4.1,0.5,6.2,0.8c8.4,1,16.8,1.8,25.3,2.9c4.2,0.5,8,2,11.8,4c4.4,2.3,7.6,5.8,9.4,10.5
	c1.9,4.8,2.9,9.8,3.3,14.9c0.4,5.1-1.7,7.9-6.6,9c-2.6,0.6-5.4,0.9-8.1,1c-7.4,0.2-14.7,0.1-22.1,0.2c-10.4,0.1-20.8,0.3-31.2,0.5
	c-1.8,0-3.5,0.1-5.3,0c-8-0.3-14.5-3.6-19.2-10.2c-9.3-13.4-18.2-27.1-25.6-41.7c-8.5-16.7-15.2-34.1-20.3-52.2
	c-1.4-5.1-3-10.1-4.8-15.1c-1.1-3-2.5-5.9-3.9-8.7c-3.7-7.1-8.8-13-15.6-17.2c-3.4-2.1-5.3-5.1-6.1-8.8c-1-4.5-1.4-9.1-0.8-13.8
	c0.9-7.1,3.2-13.7,6.9-19.8c3.7-6,7.5-11.9,11.3-17.8c15.3-23.8,30.4-47.8,44.1-72.6c6.8-12.3,13.2-24.8,19.7-37.3
	c1.2-2.4,1.9-5.1,2.6-7.7c0.4-1.4,0.4-2.9,0.4-4.3c-0.1-3-2.3-4.2-5-2.7c-1,0.5-1.8,1.3-2.6,2.1c-1,1-1.8,2.2-2.7,3.3
	c-18.2,22.5-35,46.1-51.4,70c-28.7,41.8-57.4,83.6-86.3,125.2c-10.2,14.6-19,30-26.1,46.3c-3.8,8.6-7.6,17.3-11.3,25.9
	c-4.5,10.4-7,21.2-8.6,32.3c-2.2,15.9-2.7,31.9-2.5,47.9c0,3.7,1.3,6.8,3.8,9.5c4.7,5.2,9.5,10.4,14.1,15.7c2.8,3.2,5.6,6.6,8.3,10
	c2.3,2.8,3.4,6.1,3.3,9.8c-0.1,5-2.2,9-6.6,11.5c-1.9,1.1-4.1,1.9-6.2,2.4c-18.8,4.8-37.7,4.7-56.4-0.4c-3-0.8-6-2.1-8.8-3.7
	c-9.7-5.6-16.7-17.4-12.9-31.2c1.4-5.2,2.8-10.5,3.6-15.9c1.2-7.6,2.1-15.2,2.6-22.9c0.9-12,1.4-24,2.1-35.9
	c0.7-12.8,1.3-25.6,2.2-38.3c0.5-6.7,1.4-13.3,3.5-19.8c2.2-7,5.7-13.2,10.9-18.4c3.6-3.6,6.1-7.8,7.8-12.5
	c5.3-14.7,10.4-29.5,16-44.2c12.2-32.2,24.4-64.3,36.8-96.3c3.3-8.5,7.2-16.7,10.7-25.1c0.5-1.2,1.7-2.4,0.9-4.4
	c-1.1,1.4-2.1,2.6-3,3.9c-15.4,22-30.8,44.1-46.1,66.1c-1.5,2.1-2.9,4.3-4.5,6.2c-3,3.8-6.9,6.1-11.8,6.6c-0.8,0.1-1.6,0.1-2.4,0
	c-1.8-0.2-2.9-1.1-3.3-3c-0.2-0.9-0.3-1.9-0.2-2.9c0.7-14.9,2.4-29.7,7.8-43.7c2.2-5.8,4.9-11.5,8-16.9c4.7-8.4,9.7-16.6,14.9-24.6
	c10.2-15.7,19.3-32,26.7-49.3c6.7-15.6,11.6-31.8,16.4-48.1c6.3-21.5,13-42.8,19.7-64.2c5.6-18,14.5-34.4,24.7-50.2
	c6.5-10.1,13.6-19.8,22.1-28.3c14-14,30.3-24.5,48.6-31.9c16.1-6.5,32.7-11,49.8-13.7c12.2-1.9,24.5-2.7,36.8-3.5c15-1,30-2,45-2.6
	c13.6-0.6,27.2-1.2,40.8-1.1c21.8,0.2,43.4,2.6,64.8,6.9c18.1,3.7,36.4,5.3,54.9,4.3c10.2-0.5,20.4-2.1,30.4-4.3
	c15.9-3.4,31.9-6.9,47.8-10.4c10-2.2,19-6.6,27.2-12.7c3.5-2.6,6.9-5.3,10.1-8.1c20.4-18,40.8-36,60.9-54.3
	c17.3-15.7,34.4-31.7,51.5-47.5c13.5-12.5,27-25.1,41.9-35.9c4.5-3.3,7.5-7.1,8.9-12.5c0.8-3.2,2.1-6.4,3.1-9.6
	c2.6-8.5,6.3-16.4,11.1-23.8c4.3-6.6,8.8-12.9,13.3-19.4c3.1-4.4,7-8,11.7-10.5c7.1-3.7,14.3-7.2,21.5-10.7c0.8-0.4,1.8-0.6,2.8-0.7
	c1.9-0.2,3.5,0.5,4.4,2.3c0.8,1.7,1.5,3.5,2,5.4c2.3,7.8,4.6,15.7,6.7,23.5c1.7,6.3,8.7,10.8,15,10.5c3-0.2,5.2-1.2,6.6-4
	c1.4-2.9,3-5.7,4.5-8.5c3.6-6.8,7.1-13.6,10.8-20.4C1817.5,431.1,1823.2,429.2,1829.6,428.5z"/>
</svg>
