<?xml version="1.0" encoding="utf-8"?>
<!-- Generator: Adobe Illustrator 22.0.0, SVG Export Plug-In . SVG Version: 6.00 Build 0)  -->
<svg version="1.1" id="Layer_1" xmlns="http://www.w3.org/2000/svg" xmlns:xlink="http://www.w3.org/1999/xlink" x="0px" y="0px"
	 viewBox="0 0 2880 1800" enable-background="new 0 0 2880 1800" xml:space="preserve">
<path d="M1038.8,1177.5c-1.9,0.6-2,2.4-2.4,3.9c-0.9,4.1-1.7,8.1-2.6,12.2c-2.5,11.9-5.2,23.8-6.6,35.8c-0.6,5.1-1.2,10.2-1.4,15.3
	c-0.4,12.6-0.6,25.3-0.7,37.9c-0.1,6.9,0.7,13.7,1.7,20.5c0,0.3,0.1,0.6,0.2,0.9c1.5,7.1,4.5,10.2,11.6,11.6
	c3.8,0.7,7.6,1.2,11.4,1.8c4.3,0.7,8.5,1.4,12.8,2.1c4.4,0.7,8.2,2.7,11.3,5.9c2.5,2.6,4.2,5.7,4.4,9.4c0.2,2.9,0.3,5.8,0,8.6
	c-0.5,4.7-2.9,7.8-7.7,9.4c-5.6,1.9-11,4.3-16.5,6.6c-5.9,2.5-11.9,4.8-18.3,5.6c-1.3,0.2-2.5,0.3-3.8,0.4
	c-5.1,0.1-10.2,0.1-15.3,0.2c-3.7,0.1-7.4-0.4-10.9-1.4c-12.7-3.7-20.3-12.3-23.4-24.9c-0.6-2.6-1-5.4-1.1-8.1
	c-0.2-6.9-0.5-13.8-0.2-20.6c0.4-13.6-0.8-27.2-2-40.7c-1.4-15.1-3-30.2-4.4-45.4c-1.2-12.5-3.4-24.7-8.6-36.2
	c-2.9-6.4-3-13.1-1.5-19.8c0.7-3.1,1.7-6.2,3-9.1c3.1-7,6.3-14,9.6-20.9c13-27.6,24.7-55.8,35.9-84.2c2.5-6.3,3-13.1,3.8-19.7
	c1.6-13.7,3.2-27.3,4.9-41c0.6-4.6,1.5-9.2,2.1-13.7c1.2-9.2,0.9-18.5,0.2-27.8c-1.3-17.4-3.7-34.7-5.8-52
	c-1.7-14.3-3.3-28.6-3.7-43c-0.4-13.5,0.6-26.8,4.3-39.9c1.5-5.1,3.5-10,6.4-14.4c3.6-5.6,7.3-11.3,11-16.9c2.4-3.6,4.5-7.3,6-11.4
	c2.8-7.9,1.7-15.2-3.3-21.8c-2-2.7-4.3-5.2-6.8-7.4c-4.9-4.5-10.1-8.9-15.1-13.3c-5.1-4.4-10.2-8.7-15.3-13.1
	c-1.5-1.2-2.9-2.5-4.2-3.9C985.4,701,973.2,687,961,673.1c-11.5-13.1-18.8-28.5-23.4-45.2c-2.3-8.3-3.7-16.8-4.8-25.4
	c-0.3-2.1-0.7-4.1-0.8-6.2c-0.2-2.3-0.8-4.4-2.6-6c-1.3-1.2-1.6-2.7-1.6-4.3c0.1-4.3,0-8.6,0-13c0-22.2,0-44.5,0-66.7
	c0-1.7,0-3.5,0-5.4c2.3,0,3.4-1.1,3.8-3.1c0.4-1.9,0.8-3.8,1.4-5.6c2.8-9.2,7.3-17.4,14-24.3c3.3-3.4,6.9-6.8,10.7-9.6
	c12.4-9,26.1-15.4,41-19.4c6.1-1.6,12.3-2,18.6-1.8c2.5,0.1,4.7,0.8,6.7,2.2c1.1,0.8,1.8,1.9,1.8,3.2c0,4-0.9,7.7-4.4,10.1
	c-2,1.4-4,2.6-6.1,3.7c-2.1,1.1-4.4,1.9-6.6,2.9c-2.9,1.3-5.9,2.5-8.7,3.9c-19.6,10.1-31.6,26-36.4,47.4c-1.6,7.1-2.1,14.2-2.5,21.4
	c-0.9,15.2-0.3,30.4,2.3,45.4c3.3,18.7,10.4,35.8,21.4,51.4c10,14.2,21.5,27,34.8,38.3c6.7,5.7,13.6,11.2,20.4,16.7
	c5.9,4.7,11.9,9.2,17.7,13.9c9.3,7.5,19.9,11.4,31.7,12.4c17.4,1.4,34.5-0.1,51.1-5.9c3.2-1.1,6.4-2,9.6-3.2
	c11.6-4.2,23.7-6.5,35.9-8.4c13.5-2,27-3.6,40.5-4.4c14.4-0.8,28.8-0.8,43.2,0.1c13.1,0.8,26.1,2.5,39.1,4.5
	c6.7,1,13.4,1.4,20.1,1.2c10.5-0.4,21.1-1.1,31.6-1.9c9.7-0.7,19.5-1.3,29.2-0.8c15.5,0.7,30.9,2.1,46.4,3.9
	c7.8,0.9,15.6,1.4,23.4,1.9c9.7,0.7,19.1-1,28.5-3c16-3.4,31.7-7.8,47.5-11.5c5.1-1.2,10.4-2,15.6-2.9c2.9-0.5,5.7-0.4,8.6,0.1
	c6.2,1,12.4,1.3,18.6,0c8-1.7,15.1-5.4,21-10.9c5.4-5,11.3-9.3,17.8-12.9c6.5-3.6,12-8.5,16.7-14.3c2.9-3.6,5.6-7.4,8.2-11.2
	c5.8-8.7,11.3-17.4,17.1-26.1c4.6-6.9,9-14,12.5-21.6c2.7-5.8,6.1-11.2,10-16.3c16.1-20.9,32.2-41.8,48.2-62.8
	c5.8-7.6,13.1-13,21.9-16.7c2.7-1.1,5.4-2,8.1-3c2.7-1,5.4-2,8-3.1c6.9-3,14-5.5,21.3-7.4c10.2-2.5,20.5-3.3,31-2.6
	c3,0.2,5.9,1.2,8.8,2.2c3,1.1,5.8,2.6,8.7,4c9.4,4.4,19.2,8,29.5,9.6c6.9,1,13.7,1,20.6,0.2c12.9-1.5,25.7-3.1,38.6-4.6
	c3.3-0.4,6.7-0.8,10-1c1.4-0.1,2.9-0.2,4.3,0.1c5.1,1.3,10.1,2.9,15.3,4.4c0.3,4.2,0.8,8.1,0.9,12.1c0.1,2.7-0.7,5.5-2.5,7.6
	c-1.7,2-2.2,4.2-2.3,6.6c-0.1,4.3-0.2,8.6-0.4,12.9c-0.1,3.4-0.1,6.7-0.6,10.1c-1.4,9.6-6.3,17.3-14,23.2c-3.6,2.7-7.5,5-11.7,6.6
	c-10,3.9-19.9,7.8-30,11.5c-13.6,5.1-27.3,10-40.5,16.3c-6.9,3.3-13.7,7-20.4,10.6c-9.8,5.3-15.3,13.8-17.5,24.5
	c-0.7,3.3-1.1,6.6-1.6,9.9c-2.2,15.7-6,31.1-10.4,46.3c-5.6,19.4-12.4,38.3-21.6,56.3c-12.4,24.5-19.8,50.5-24.1,77.5
	c-0.7,4.6-1.4,9.2-2.2,13.7c-1.4,9.1-4.2,17.7-7.8,26.1c-2.1,4.8-4.3,9.6-6.7,14.3c-3.7,7.3-6.8,14.8-9.6,22.5
	c-9.9,27.2-19.6,54.5-30.5,81.3c-4.4,10.8-8.2,21.9-11.4,33.1c-5.2,17.9-7.8,36.2-7.6,54.9c0.3,25.3,0.3,50.6-0.1,75.8
	c-0.3,17.1-1.4,34.2-2.2,51.3c-0.3,7.4-0.8,14.7-1.2,22c-0.7,13.9-1.4,27.8-2,41.7c-0.1,1.6-0.1,3.2,0,4.8c0.3,4,2.3,6.9,5.9,8.7
	c1,0.5,2.1,0.9,3.1,1.3c9,3.4,15.7,9.7,21.4,17.2c0.5,0.6,0.9,1.4,1.2,2.1c1.6,3.6,0.9,6.5-2.3,8.9c-1.3,0.9-2.8,1.6-4.2,2.3
	c-1.7,0.9-3.5,1.6-5.2,2.5c-1.1,0.6-1,2.2,0.1,2.8c1.4,0.7,2.9,1.3,4.4,1.9c6.2,2.6,12.4,5.1,19.1,6.2c2,0.3,4,1.2,5.8,2.2
	c7.7,4.4,13.6,10.6,17.8,18.4c1.6,3,2.3,6.3,2,9.7c-0.3,3.7-2.1,5.9-5.8,6.6c-2,0.4-4.1,0.5-6.2,0.6c-12.3,0.5-24.6,0.8-36.9,1.3
	c-5,0.2-9.9,0.4-14.9,0.5c-2.9,0-5.8-0.1-8.6-0.4c-4.1-0.4-7.7-2.1-10.7-4.9c-2.6-2.5-5.6-4.3-8.9-5.6c-7.3-2.8-11.3-8.2-12.7-15.6
	c-0.8-4.1-1.2-8.2-1.8-12.3c-0.3-1.7-0.6-3.5-1.1-5.1c-1.3-3.8-3.6-6.7-7.7-8c-0.8-0.2-1.5-0.5-2.2-0.8c-5.3-2.3-8.7-6.4-10.1-12
	c-0.5-2.2-0.8-4.4-1-6.6c-0.4-5.4-0.7-10.9-0.9-16.3c-0.2-4.7-0.6-9.3-1.9-13.8c-2-7.2-4.1-14.5-6.3-21.6c-1.3-4.2-3.6-7.8-7.2-10.5
	c-1.1-0.8-2.2-1.9-3.1-3c-1.9-2.3-2.7-5.1-2.1-8.1c0.1-0.8,0.3-1.6,0.5-2.3c2.5-7.5,2.1-15.1,1.3-22.8c-0.5-4.1-1-8.2-1.5-12.4
	c-1-9.4-0.2-18.9,0.5-28.3c0.4-6.2,0.9-12.4,1.5-18.7c0.3-3-0.3-5.6-1.9-8.2c-5-8.3-4.1-5.2-4.1-14.8c0-7.7-1-15.3-2.1-22.9
	c-1.2-8.1-2.6-16.1-3.7-24.2c-0.7-4.9-0.9-9.9-1.3-14.8c-0.7-8-1.4-15.9-2.1-23.9c-0.4-4-0.7-8-1.2-11.9c-0.5-4.8-2.8-7.2-7.6-7.7
	c-6.8-0.7-13.7-1.3-20.5-1.9c-14.5-1.3-29-2.5-43.5-4.1c-6.5-0.7-12.9-2.1-19.4-3.1c-6.8-1-13.6-1.9-20.4-2.6
	c-12.5-1.3-24.6-4.4-35.8-10c-6-3-11.8-6.4-17.6-9.8c-3.7-2.3-7.6-4-11.8-5.3c-5.9-1.9-11.8-4.1-17.6-6.2c-3.8-1.4-7-3.6-9.8-6.7
	c-6.4-7.2-14.6-10.6-24.2-10.9c-6.9-0.2-13.7,0.6-20.6,1.5c-11.9,1.5-23.9,2.5-35.8,3.3c-7,0.4-13.7-0.5-20.2-2.9
	c-6-2.3-12.2-3.9-18.5-5c-4.6-0.9-9.3-1.1-13.8-0.2c-4.4,0.9-8.6,0.4-12.7-1c-2.7-0.9-5.4-2-8.1-3c-2-0.7-3.9-1.5-5.9-2
	c-3.9-0.9-6,0-8.1,3.4c-1.1,1.7-2.1,3.6-3,5.5c-5.4,11.1-11,22.1-16.1,33.3c-14.7,32.3-32.2,62.9-51.7,92.4
	c-15.8,23.9-29.9,48.8-43.4,74.1c-8.3,15.7-10.9,32.2-8.5,49.7c1.3,9.2,1.3,18.5,0.8,27.8c-0.2,4.5-0.4,8.9,0.4,13.4
	c1.1,6.3,4.1,11.4,9,15.3c3.4,2.7,7.2,4.7,11.2,6.5c1.9,0.8,3.9,1.6,5.7,2.4c9.2,4.2,15.3,11.4,18.7,20.8c2.3,6.3,0.1,12.3-5.9,15.5
	c-1.9,1.1-4.1,1.9-6.3,2.3c-4.8,1-9.8,1.8-14.6,2.5c-7.6,1.2-15,0.3-22.1-2.6c-5.9-2.4-11.8-4.9-17.7-7.3c-4.6-1.9-7-5.4-7.8-10.1
	c-0.5-2.7-1-5.3-1.5-8c-1.3-6.7-4.8-11.8-11.2-14.6c-3.2-1.4-4.6-3.8-5-7c-0.2-1.7-0.2-3.5-0.2-5.3c-0.2-16.6-0.3-33.3-0.5-49.9
	C1040.7,1182.6,1040.7,1179.8,1038.8,1177.5z"/>
</svg>
