<?xml version="1.0" encoding="utf-8"?>
<!-- Generator: Adobe Illustrator 22.0.0, SVG Export Plug-In . SVG Version: 6.00 Build 0)  -->
<svg version="1.1" id="Layer_1" xmlns="http://www.w3.org/2000/svg" xmlns:xlink="http://www.w3.org/1999/xlink" x="0px" y="0px"
	 viewBox="0 0 2880 1800" enable-background="new 0 0 2880 1800" xml:space="preserve">
<path d="M1761.7,1232.7c-4.7,2.9-8.8,5.6-13.1,8.2c-3.2,1.9-6.9,2.5-10.6,2.6c-6.9,0.2-13.7-0.6-20.6-1.3c-4-0.4-7.9-0.8-11.6-1.2
	c-2.6,2.2-2.7,4.6-2.1,7.2c1.1,5.3,2.2,10.7,3.1,16c0.3,1.9,0.4,3.8,0.3,5.7c-0.3,4.6-2.4,7.1-6.8,8.1c-2.3,0.5-4.7,0.9-7.1,0.9
	c-12.6,0.3-25.3,0-37.8-1.7c-0.9-0.1-1.9-0.4-2.8-0.5c-3.4-0.5-5.1-2.4-6.1-5.8c-3.6-11.8-6.9-23.6-9.7-35.6
	c-0.7-2.9-0.7-5.7-0.3-8.6c0.7-4.1-0.2-7.8-1.7-11.7c-4.1-10.3-6.2-21.1-7.3-32.2c-1.1-11.5-0.9-23-0.2-34.5
	c0.9-13.7,1.7-27.5,2.5-41.2c0.7-12.2-0.2-24.3-1.5-36.4c-0.6-5.9-1.1-11.8-1.4-17.7c-0.8-15.5-1.5-31-2.2-46.5
	c-0.1-1.9,0.1-3.8-0.7-5.6c-1.7-0.9-3.5-0.8-5.2-0.9c-17.7-0.8-35.4-2.3-53.2-2.4c-12.7-0.1-24.6-3.4-36-9.1
	c-8.2-4.1-15.7-9.2-22.9-14.9c-18.3-14.6-36.5-29.2-54.8-43.7c-9.8-7.7-19.7-15.3-29.5-23c-13.6-10.7-29-16.6-46.3-17.9
	c-4.3-0.3-8.6-0.5-12.9-0.6c-0.9,0-1.8,0.2-3,0.4c0.1,1.1,0.2,2.1,0.4,3c1.2,5.5,1.4,11.1,1.3,16.7c0,4.8-0.4,5.2-5,6.9
	c-6.5,2.4-13.1,3.2-19.7,1c-5.9-2-11.8-4-17.7-6.1c-2.7-1-5.4-2.1-8-3.1c-0.9-0.3-1.8-0.5-3-0.8c-0.5,1.7-1.1,3.1-1.5,4.7
	c-5.6,19-11.3,38-16.8,57c-9.7,33.6-27.8,62-53.4,85.7c-4.7,4.3-9.6,8.4-14.6,12.4c-7,5.7-13.5,11.7-19.2,18.7
	c-8.9,11-14.9,23.4-17.3,37.5c-1.3,7.4-1.8,14.9-1,22.5c0.9,8,1,16,0.5,24c-0.2,3.3-0.3,6.7-0.1,10.1c0.6,8.9,4.8,15.8,12.5,20.4
	c2.2,1.3,4.5,2.4,6.9,3.4c7.4,3.1,12.2,8.6,15.3,15.7c0.6,1.4,0.9,3.1,0.9,4.6c-0.1,4.2-1.4,8.2-3.6,11.8c-1,1.8-2.5,2.8-4.6,3
	c-3.2,0.2-6.4,0.6-9.6,0.5c-7.2-0.3-14.4-0.9-21.6-1.3c-3.5-0.2-6.5-1.6-9.1-3.9c-0.8-0.7-1.6-1.5-2.3-2.4
	c-4.4-5.5-8.9-10.9-13.2-16.5c-5.6-7.3-8.4-15.8-9-24.9c-0.5-7.2-0.1-14.4,0.4-21.6c0.4-5.7,0.9-11.5,0.9-17.2
	c0-4.3-0.6-8.6-1.1-12.9c-1-8.9-2.1-17.8-3.1-26.7c-0.7-5.9-1.2-11.7-1.8-18.1c-1.1,0.4-1.8,0.6-2.4,1c-7.5,5.6-14.2,11.9-19.9,19.4
	c-8.5,11.3-13.2,24-14.5,38c-1,9.9-0.6,19.8-0.4,29.7c0.1,6.4,0.1,12.8,0.2,19.2c0,1.6,0,3.2,0.2,4.8c0.5,7.8,4.4,13.6,11.1,17.4
	c1.5,0.9,3.2,1.6,4.8,2.3c1.6,0.7,3.2,1.4,4.8,2.1c4.4,1.8,7.4,4.8,9.1,9.3c2.4,6.3,4,12.8,5.8,19.3c-0.5,0.3-0.8,0.7-1.2,0.8
	c-6,1.6-12.1,3.2-18.1,4.6c-3.9,0.9-7.9,0.9-11.9,0.3c-4.6-0.7-9.2-1.3-13.8-1.9c-2.6-0.3-4.2-1.7-5.6-4c-2.3-3.8-5-7.4-7.6-11.1
	c-2.4-3.4-5.1-6.6-7.5-10c-4.9-7-7.3-14.8-7.1-23.5c0.3-16.5-1-32.9-2.6-49.3c-1.4-15-2.6-30-3.9-44.9c-0.5-5.3-0.2-10.5,1.6-15.6
	c1.3-3.7,3.2-7,6.2-9.5c4.2-3.5,8.3-7,12.6-10.4c4.8-3.8,9.7-7.4,14.5-11.1c22.7-17.4,36.4-40.4,42.6-68.1c2.1-9.2,3.2-18.6,4-28
	c1.3-14.5,2.7-29,4.4-43.4c1.7-14.3,3.9-28.5,6.1-42.7c0.9-5.8,1.9-11.7,3.1-17.5c1.5-7.4,4.1-14.4,7-21.4
	c2.9-6.9,5.8-13.9,8.6-20.9c1.1-2.8,2.1-5.7,2.8-8.7c0.5-1.8,0.7-3.8,0.6-5.7c-0.1-5-3-7.7-8-7.3c-2.5,0.2-5.1,0.8-7.5,1.6
	c-5.6,1.9-11.1,4-16.6,6.2c-25.6,10.2-50.1,22.7-73.5,37.3c-10.5,6.5-21,12.9-31.5,19.3c-11.6,7.1-24.2,11.6-37.7,13.5
	c-8.9,1.3-17.8,1.6-26.8,0.9c-13.6-1-26.9-3.5-40.2-6.4c-5.6-1.2-9.3-3-14.7-7c0-0.5-0.1-1.1,0-1.8c0.1-0.6,0.2-1.2,0.4-1.8
	c0.3-0.3,0.5-0.6,0.8-0.7c6.3-1.5,12.5-1.7,19-0.2c14.4,3.5,29.1,4.3,43.9,2.8c14.3-1.5,27.9-5.3,41.1-10.9
	c12.7-5.4,24.7-12.2,35.9-20.1c7.8-5.5,15.7-11.2,22.9-17.4c29-24.7,62.1-41.5,98.7-51.6c14.4-4,28.3-9.1,42.1-14.6
	c12.3-4.9,24.7-9.8,37.5-13.4c19.1-5.4,38.5-9.3,58.2-12.2c31.1-4.4,62.4-5.5,93.8-4.4c15.3,0.5,30.7,1.8,45.9,3.2
	c17.2,1.6,34.5,1.9,51.8,0.8c12.1-0.8,24.2-2.1,36.2-4c24.1-3.9,47.5-10.2,70.3-18.8c9-3.4,17.8-7.2,26.6-10.9
	c15.9-6.7,28.7-17.3,39.2-30.8c4.6-5.9,8.7-12.2,12.5-18.7c14.1-24,28.5-47.8,44-70.9c3.6-5.4,7.4-10.8,11.1-16.3
	c10.9-16.3,26-26.6,44.7-31.9c20.4-5.7,40.5-4.8,60.2,3.2c10,4.1,18.9,10,27.3,16.7c5.4,4.3,9.2,9.8,10.9,16.6
	c0.4,1.5,0.7,3.1,0.8,4.7c0.2,2.8,1.7,4.7,4,6.2c4,2.5,8.3,4.1,13,4.7c6.2,0.8,12.4,1.4,18.6,2c5.6,0.6,11.1,1.2,16.7,2
	c2.2,0.3,4.4,1,6.4,1.9c4.5,1.9,7.3,5.1,8.6,10.2c5.9,23.2-3.6,45.2-24.7,56.4c-4.5,2.4-9.3,4.2-14.3,5.4c-10,2.4-19.7,5.6-29.2,9.4
	c-4.6,1.9-9.3,3.4-14.2,4.3c-8.5,1.5-16.2-0.6-23.2-5.4c-1.5-1-2.7-2.2-4.2-3.1c-2.3-1.4-4.7-2.8-7.2-3.7c-4.5-1.5-8.8-0.7-12.7,2.2
	c-2.5,1.9-4.5,4.2-5.8,6.9c-1.7,3.4-3.4,6.9-4.7,10.5c-8.4,23-14.9,46.6-20.3,70.5c-4,17.6-6.8,35.5-9.7,53.3
	c-2.3,14.2-4.9,28.4-7.3,42.5c-1.7,10.1-5.6,19.4-11.2,27.9c-7.3,11-13.2,22.6-18.9,34.5c-3.2,6.8-6.6,13.5-10.2,20.1
	c-5.8,10.6-13,20.2-22.5,27.8c-1.8,1.5-2.9,3.4-3.5,5.6c-0.4,1.7-0.7,3.4-1,5.2c-1.7,13.6-3.4,27.3-5.1,40.9
	c-1.4,11.3-3,22.5-4.3,33.8c-1.5,13-2.9,26.1-4.3,39.1c-0.9,9.2-1.7,18.5-2.4,27.7c-1,12.2-0.8,24.3,1.1,36.4
	c2.3,14.7,4.8,29.3,7.3,44c1.4,8.5,6.4,14.1,14.6,16.8c1.5,0.5,3.1,0.7,4.7,1.1c2,0.6,4.1,1,5.9,1.9c7.1,3.5,13.4,8.2,18.4,14.3
	C1756.6,1224.9,1758.8,1228.6,1761.7,1232.7z M1670.4,1172.1c-0.2,1.3-0.3,1.7-0.3,2.2c-0.1,8.2,0.6,16.3,2,24.3
	c1.4,7.6,3.6,14.9,7.3,21.7c2.6,4.8,5.8,9.2,10.1,12.6c0.5,0.4,1.1,1.2,2,0.5C1690.3,1228.2,1672.5,1176,1670.4,1172.1z"/>
<path fill="#FFFFFF" d="M1670.4,1172.1c2,3.8,19.9,56.1,21.1,61.4c-0.9,0.8-1.4-0.1-2-0.5c-4.3-3.5-7.5-7.8-10.1-12.6
	c-3.7-6.8-5.9-14.1-7.3-21.7c-1.5-8-2.1-16.2-2-24.3C1670.1,1173.9,1670.2,1173.4,1670.4,1172.1z"/>
</svg>
