<?xml version="1.0" encoding="utf-8"?>
<!-- Generator: Adobe Illustrator 22.0.0, SVG Export Plug-In . SVG Version: 6.00 Build 0)  -->
<svg version="1.1" id="Layer_1" xmlns="http://www.w3.org/2000/svg" xmlns:xlink="http://www.w3.org/1999/xlink" x="0px" y="0px"
	 viewBox="0 0 2880 1800" enable-background="new 0 0 2880 1800" xml:space="preserve">
<path d="M1492.5,1190.9c-0.5-0.7-1-1.4-1.4-2c-8.6-17-17.3-33.9-25.8-50.9c-2-3.9-4.7-6.2-9.1-6.9c-6-0.9-12-1.7-18.1-1.8
	c-5.5,0-10.8,0.7-16.1,2.2c-1.8,0.5-3.7,1-5.6,1.2c-5,0.6-9.1-1.1-12.3-5c-0.9-1.1-1.7-2.3-2.5-3.5c-6.3-8.9-14.9-13.9-25.9-14.2
	c-4-0.1-8-0.1-12,0.6c-12.7,2-25.5,2.1-38.3,1c-12.7-1.2-25.5-2.5-38.2-3.6c-4.9-0.4-9.9-0.4-14.9-0.7c-2.5-0.1-5.1-0.3-7.6-0.7
	c-4.9-0.9-8.4-3.7-10.4-8.3c-0.5-1-0.8-2.1-1.3-3.1c-1.3-2.3-3.2-3.3-5.6-2.4c-2.2,0.8-4.4,1.9-6.4,3.2c-9.1,5.8-18.9,10.1-29.3,13
	c-3.1,0.9-6.2,1.5-9.4,1.6c-5.4,0.1-9.1-2.4-11.4-7.3c-0.7-1.4-1.2-2.9-1.9-4.5c-0.6,0.3-1.1,0.4-1.3,0.7
	c-9.3,10.3-18.7,20.7-27.9,31.1c-6,6.7-11.4,13.8-16.2,21.4c-2.8,4.5-5.1,9.3-6.4,14.4c-1.8,7.1-1.5,14.3,0.2,21.4
	c2.8,11.5,5.7,23,8.6,34.4c0.5,2.2,1.2,4.3,2,6.4c2.4,6.1,6.9,9.4,13.3,10.3c1.3,0.2,2.6,0.2,3.8,0.4c8.1,1,13.8,6.4,14.9,14.5
	c0.4,2.5,0.3,5.2-0.1,7.6c-1.3,7.5-6.9,12.7-14.6,13.9c-2,0.3-4.1,0.4-6.2,0.3c-12-0.1-24-0.2-36-0.4c-2.5,0-5.1-0.2-7.6-0.7
	c-5.7-1-9.8-4.4-12.5-9.5c-0.7-1.4-1.3-2.9-1.8-4.4c-3-10.4-6.2-20.9-8.9-31.4c-2.3-8.7-3.5-17.6-3.1-26.6c0.1-2,0.3-4,0.4-6.7
	c-1,0.8-1.5,1.1-1.9,1.5c-1.9,2.4-2.5,5.1-2.5,8.1c0.4,18.4,0.2,36.8,1.9,55.1c0.4,4.1,1.1,8.2,1.8,12.3c0.3,1.7,0.8,3.4,1.4,5.1
	c2.8,7.7,8.2,12.4,16.2,14.2c0.6,0.1,1.3,0.2,1.9,0.3c5.9,1.1,10.9,3.8,14.8,8.2c8.4,9.3,12.5,20.3,11.8,33c-0.1,2-0.6,4.1-1.3,6.1
	c-1.2,3.6-3.7,5.9-7.6,6.6c-1.9,0.3-3.8,0.5-5.7,0.5c-11.8-0.2-23.7-0.5-35.5-0.7c-6.9-0.1-13.8,0.1-20.6-0.1
	c-3.2-0.1-6.4-0.4-9.5-1c-5.3-1-8.9-4.2-10.5-9.4c-0.8-2.6-1.2-5.3-1.5-8c-1.5-13.8-3-27.7-4.4-41.5c-0.8-8.4-1.5-16.9-2.2-25.3
	c-0.9-11.6-1.8-23.3-2.5-34.9c-1.2-19.7-1.8-39.3-0.2-59c0.5-6.8,1.6-13.7,2.4-20.5c0.1-0.8,0.2-1.6,0.3-2.4
	c0.7-4.1-0.5-7.6-3.8-10.2c-3.6-2.9-5.2-6.8-5.9-11.2c-0.7-4.6-1.2-9.2-1.9-13.8c-0.2-1.4-0.6-2.8-1.1-4.2c-0.9-2.6-2.9-3.8-5.6-3.6
	c-1.6,0.1-3.2,0.4-4.7,0.8c-6.3,1.8-10.6-1.3-12.5-7.3c-0.4-1.4-0.7-2.8-0.8-4.2c-0.4-5.2-1.9-10-3.5-14.9c-2.2-6.5-4.6-13-5.6-19.8
	c-0.1-0.8-0.4-1.5-0.8-2.3c-1.2-2.5-3-3.5-5.8-3.1c-1.1,0.2-2.2,0.6-3.2,0.9c-4.7,1.2-7.2,0.1-9.5-4.2c-0.5-0.8-0.8-1.7-1.2-2.6
	c-3.3-7.3-6.7-14.5-10-21.8c-2.4-5.2-5.1-10.3-7.3-15.6c-3.8-8.9-6.6-18-7.1-27.7c0-0.5-0.1-1-0.1-1.4c-0.9-4.7-3.4-6.6-8.1-5.9
	c-0.9,0.1-1.9,0.5-2.8,0.6c-4.8,0.8-8.1-1.4-9.1-6.2c-0.3-1.5-0.5-3.2-0.5-4.8c0-7.8,0.1-15.7,0.2-23.5c0.1-6.6,0.2-13.1,1.2-19.6
	c1.6-9.7,5.1-18.4,11.2-26.2c1.3-1.6,2.6-3.3,3.6-5.1c2.7-4.9,1.5-8.2-3.6-10.2c-0.9-0.4-1.8-0.6-2.7-0.9c-1.8-0.7-2.6-1.8-2.5-3.6
	c0-0.9,0.2-1.9,0.6-2.8c2.8-7.5,5.5-15,8.6-22.4c1.7-4,3.8-7.8,6.1-11.4c5.1-8,12.2-13,21.8-13.9c0.6,0,1.1-0.4,2.1-0.8
	c-1.2-1.1-2.1-2-3-2.8c-2.1-2-4.3-3.9-6.1-6c-3.4-3.9-5-8.6-4.4-13.8c0.4-3.5,1.1-7,2-10.3c1.7-6.3,3.6-12.6,5.4-18.9
	c0.2-0.7,0.3-1.5,0.4-2.1c-0.9-0.9-1.7-0.5-2.4-0.3c-1.5,0.4-3.1,1-4.6,1.3c-1.4,0.3-2.8,0.6-4.2,0.7c-2.1,0.1-3.4-1.2-3.2-3.2
	c0.1-1.4,0.4-2.9,0.9-4.2c8.1-20.1,18.8-38.5,34.4-53.8c1.1-1.1,2.4-2.1,3.7-3.1c0.7-0.6,1.6-1.1,2.3-1.8c3.3-3.1,2.2-7.7-2.2-9
	c-1.1-0.3-2.2-0.4-3.3-0.5c-1.6-0.2-3.2-0.4-4.7-0.7c-3.1-0.7-3.7-2.7-1.8-5.3c0.5-0.6,1-1.2,1.6-1.8c6.1-6.6,13.8-9.7,22.6-10.1
	c3.8-0.2,7.7,0,11.8,0c-0.2-0.8-0.1-1.6-0.5-2.1c-2.2-3.7-4.5-7.4-6.9-10.9c-2.3-3.4-5-6.6-7.3-10.1c-1.2-1.8-2.3-3.9-2.9-6
	c-1.1-3.6,0.7-6,4.5-6.2c2.1-0.1,4.2,0.1,6.2,0.4c2.6,0.3,5.1,0.2,7.6-0.3c4-0.8,7.1-3,8.9-6.6c1.2-2.4,2.1-5,2.8-7.6
	c0.9-3.5,2.1-6.7,3.9-9.8c1.6-2.8,3-5.6,4.7-8.3c1.3-2.2,2.8-4.3,4.5-6.2c3.3-3.7,7.6-5.2,12.6-4.3c2.7,0.5,5.3,1.3,7.9,1.9
	c0.9,0.2,1.8,0.4,3.2,0.8c-0.8-1.8-1.3-3.1-1.9-4.3c-2.5-6.1-1.6-11.6,2.8-16.5c1.4-1.5,2.9-3,4.5-4.3c8.2-6.4,16.8-12.3,26.1-17
	c6.3-3.2,12.8-5.8,19.8-7.2c11.4-2.4,22.6-1.5,33.5,2.4c1.5,0.5,3,1.1,4.6,1.4c3.2,0.5,4.9-1.1,4.8-4.3c0-1.1-0.3-2.2-0.4-3.3
	c-0.1-1.1-0.4-2.2-0.3-3.3c0.2-2.4,1.4-3.8,3.7-4.4c1.2-0.3,2.5-0.6,3.8-0.5c7.2,0.1,14.4,0.2,21.5,1.5c5.2,1,10.1,2.9,14.6,5.9
	c1.6,1,3.2,1.9,4.9,2.9c1.2-0.9,2.2-1.7,3.3-2.4c1.2-0.8,2.4-1.7,3.7-2.2c2.8-1.2,5.1-0.5,6.6,2.2c1.2,2.2,2.3,4.6,2.8,7.1
	c1.4,6.5,5.4,9.5,11.8,9.9c4.1,0.2,8.3,0.5,12.5,0.6c3.2,0.1,6.4,0,9.6,0.2c2,0.2,4.1,0.6,6,1.3c2,0.7,2.8,2.6,2.2,4.7
	c-0.6,1.8-1.5,3.5-2.2,5.2c0.4,1.1,1.3,1,2,1c10.7,0.7,21.4,1.3,32.1,2.1c5.6,0.4,11.2,0.9,16.7,1.9c10.9,2.1,19.6,8.2,27.2,16.1
	c0.4,0.5,0.8,1,1.2,1.5c2.4,3.5,2.4,6.3-0.5,9.6c-1.7,1.9-3.7,3.5-5.7,5.1c-1.2,1-2.5,1.9-4,3.1c1,0.6,1.6,1.1,2.2,1.5
	c6.4,3.4,12.1,7.8,17.1,13c3,3.1,5.9,6.3,8.7,9.6c1.6,1.9,3.1,4.1,4.3,6.3c4,7.4,2.7,13.4-4.1,18.5c-1.8,1.3-3.8,2.3-5.7,3.5
	c-0.8,0.5-1.6,1-2.6,1.6c0.8,0.6,1.2,1.1,1.7,1.4c20,11.6,41.5,19,64.6,21.6c22.5,2.5,44.7,0.3,66.6-5.4
	c44.8-11.7,84.1-33.7,118.3-64.9c5.6-5.1,10.8-10.5,16.1-15.7c0.6-0.6,1.1-1.2,1.7-1.7c3.7-3.4,4.8-7.5,3.4-12.2
	c-0.8-2.6-0.4-5.1,0.7-7.4c0.5-1.1,1.2-2.2,2-3.3c2.8-3.7,5.5-7.5,8.4-11.1c1.2-1.5,2.8-2.6,4.3-3.8c1.5-1.2,3.2-2.2,4.6-3.5
	c3.2-2.9,3.8-5.5,2.4-9.4c-0.4-1-0.8-2-1.4-3.2c4.1-2.4,8.1-4.6,12.6-5.9c1.5-0.4,3.2-0.3,4.8-0.5c1.9-0.2,3.8-0.3,5.7-0.6
	c5.8-1,8.9-4.7,9.9-10.3c0.4-2.3,0.6-4.8,0.6-7.2c0.1-8.3,2.2-16.1,5.2-23.8c0.6-1.6,1.5-3.2,2.4-4.7c3.8-6.1,9.3-8.6,16.3-7.7
	c4.1,0.5,8.1,1.7,12,3.2c1.5,0.6,3,1,4.6,1.2c1.4,0.2,2.5-0.4,3-1.8c0.4-1.2,0.8-2.4,1-3.7c2.6-11.5,5.2-23.1,7.8-34.6
	c0.3-1.4,0.7-2.8,1.1-4.1c1.6-1.1,3.2-0.6,4.8-0.7c1.6-0.1,3.2,0,5.3,0c0.3,0.4,0.8,1.1,1.2,1.7c7.5,10.8,16.2,20.6,25.3,30.1
	c6.1,6.3,12.3,12.6,18.3,19c4.6,4.9,9.1,9.9,13.4,15.1c2.5,3.1,5.5,5.2,9.3,6.5c6.7,2.2,13,5.3,19.1,8.9c2.6,1.5,5.2,3.2,7.6,5
	c12.4,9,19.8,21.1,22.1,36.3c0.5,3.2,1.2,6.3,2.1,9.4c4,13.7,12.6,23.5,25.5,29.5c7.2,3.3,14.8,5.2,22.5,6.4
	c11.7,1.7,23.3,3.9,34.6,7.7c2.3,0.8,4.5,1.6,6.7,2.6c5.1,2.2,7.7,6.1,7.6,11.6c-0.5,18.3-6.8,33.7-21.9,44.8
	c-5.2,3.8-10.3,7.6-15.6,11.2c-8.4,5.7-17.5,10-27.5,12.1c-1.9,0.4-3.8,0.9-5.4,1.8c-4.6,2.3-9,4.9-13.5,7.3
	c-0.1,0.1-0.3,0.2-0.4,0.3c-7.5,5-11.1,11.5-7.3,22c0.7,1.9,1.3,3.9,1.8,6c0.9,3.8-0.3,6.9-3.4,9.3c-4,3.2-4,3.3-2.5,8
	c2.5,7.5,4.1,15.1,5.1,22.9c1,7.6,1.8,15.3,2,22.9c0.5,26.9-5.5,52.4-17.3,76.5c-4.6,9.3-8.8,18.8-13,28.3
	c-2.1,4.7-4.3,9.3-6.7,13.8c-3.2,6.1-7.2,11.7-12.2,16.5c-1.9,1.8-2.7,3.8-3,6.3c-2.3,24-10.8,45.6-26,64.5
	c-19.8,24.5-39.8,48.9-59.7,73.3c-0.9,1.1-1.8,2.2-2.9,3.2c-2.5,2.3-4.5,2.5-7.4,0.8c-1-0.6-1.8-1.3-2.8-1.9c-1.5-0.9-2.8-0.5-3.7,1
	c-0.2,0.3-0.3,0.5-0.5,0.8c-4.9,11.6-12,21.8-19.4,31.9c-2.8,3.7-5.7,7.4-8.6,11c-1.1,1.4-2.3,2.6-3.6,3.8c-2.6,2.3-5.6,2.9-8.9,1.9
	c-1-0.3-2.1-0.7-3.4-1.1c-0.4,2.6-0.8,4.9-1.2,7.3c-2.1,13.4-4.2,26.8-6.4,40.3c-2.1,12.6-3.6,25.3-4,38.1
	c-0.3,9.1,0.2,18.2,1.4,27.3c0.9,7.2,4.8,12.1,11.4,14.7c4,1.6,8.2,2.8,12.3,4.1c3.9,1.3,7.9,2.5,11.8,3.9c4.7,1.7,9,4.2,12.8,7.5
	c6.5,5.7,8.1,12.7,5.8,20.9c-1.4,4.7-4.4,8.1-8.8,10.2c-3.5,1.7-7.2,2.5-11.1,2.7c-5.6,0.4-11.2-0.4-16.7-1.4c-3-0.5-6-1-9-1.5
	c-0.8-0.1-1.6-0.1-2.4-0.1c-1.1,0-1.8,0.8-1.9,1.8c-0.1,0.9,0,1.9,0.2,2.8c2.3,9.7-0.5,18.1-6.8,25.3c-6.1,7.1-14.2,10.4-23.5,10
	c-15.8-0.7-31.1-3.8-45.6-10.1c-1.9-0.8-3.8-1.7-5.6-2.7c-8.4-4.6-13.9-11.6-16.7-20.7c-1.4-4.7-2.4-9.6-3.8-14.4
	c-1.7-5.8-3.6-11.6-5.6-17.3c-1.8-5.2-4.8-9.8-7.8-14.3c-0.4-0.7-0.9-1.3-1.5-1.9c-2.3-2.6-3.9-2.9-7.2-1.6c-1.3,0.5-2.7,1-4.1,1.3
	c-2.1,0.3-3.8-0.5-4.8-2.4c-0.7-1.3-1.3-2.6-1.6-4c-2.4-9-6.1-17.5-10-25.9c-3-6.4-6.1-12.7-8.9-19.1c-3.2-7.2-6-14.5-7.3-22.3
	c0-0.2-0.1-0.3-0.1-0.5c-1.5-6-3.5-7.3-9.6-6C1494.1,1190.8,1493.3,1190.8,1492.5,1190.9z"/>
</svg>
