<?xml version="1.0" encoding="utf-8"?>
<!-- Generator: Adobe Illustrator 22.0.0, SVG Export Plug-In . SVG Version: 6.00 Build 0)  -->
<svg version="1.1" id="Layer_1" xmlns="http://www.w3.org/2000/svg" xmlns:xlink="http://www.w3.org/1999/xlink" x="0px" y="0px"
	 viewBox="0 0 2880 1800" enable-background="new 0 0 2880 1800" xml:space="preserve">
<path d="M1847.7,782.9c2,1.2,3.3,2.1,4.6,2.9c23.6,14.4,36.1,35.5,38.5,62.9c0.3,3.5,0.5,7,0.6,10.5c0.2,7.1,2.5,13.5,6.3,19.4
	c1,1.5,2,2.9,3,4.4c13.7,21.8,14.1,43.9,0.9,66.1c-0.2,0.3-0.3,0.6-0.5,0.8c-4.1,5.4-4.7,11.3-3.1,17.7c1.9,7.5,2.3,15.2,1.1,22.9
	c-1.7,10.9-7.1,19.8-15.3,27c-2,1.8-4.2,3.4-6.4,5c-3.8,2.8-6.1,6.4-7,11c-0.7,3.6-1.5,7.2-2.7,10.7c-4.3,12.4-12.9,20.3-25.6,23.7
	c-0.8,0.2-1.6,0.3-2.3,0.5c-3.1,0.8-5.5,2.5-6.8,5.5c-0.2,0.4-0.4,0.9-0.6,1.3c-4,8.4-10.6,13.9-19.2,17.2c-1.6,0.6-3.3,1.1-5,1.8
	c-3.1,1.2-4.9,3.5-4.9,6.9c0,1,0,1.9,0,2.9c0.3,17.9,0.7,35.8,1,53.7c0.1,6.6,0.5,7.1,7.1,8.7c19.5,4.7,31.9,16.7,37.5,35.9
	c1.6,5.5,2.8,11.2,3.1,16.9c0.2,3.3,1.4,5.7,4.2,7.5c2,1.3,3.9,2.9,5.6,4.5c10,9,13.7,20.5,13.1,33.7c-0.2,3.7-0.6,7.3-1.3,10.9
	c-1.4,7.4-1.9,14.9-2,22.4c-0.1,4.9-0.3,9.9-0.9,14.8c-1.3,11.5-6.8,20.5-16.1,27.2c-0.4,0.3-0.8,0.5-1.2,0.9
	c-3.2,2.8-3.5,5.4-0.6,8.6c1.4,1.5,3,2.9,4.6,4.2c3,2.5,5.2,5.6,6.6,9.3c0.4,1,0.8,2.1,1,3.2c0.4,2.3-0.3,4.2-2.4,5.3
	c-2.1,1.1-4.4,1.9-6.7,2.5c-2.3,0.6-4.8,0.6-7.1,1c-2,0.3-4.1,0.7-6.1,1.3c-2.4,0.7-4.1,2.3-5,4.8c-3.9,10.9-11.4,18.3-21.7,23.1
	c-0.6,0.3-1.1,0.7-1.8,1.1c0.3,2.7,1.6,4.8,3.6,6.5c1.4,1.3,3,2.3,4.6,3.4c1.6,1.1,3.3,2,4.8,3.1c6.6,4.9,8.7,11.6,7.7,19.5
	c-0.4,3-2.1,4.9-4.9,5.9c-2.7,1-5.3,2.2-7.9,3.4c-2.5,1.1-5.1,1.9-7.9,1.8c-3-0.1-6.1-0.2-9.1-0.5c-3.4-0.3-6.7-0.4-10,0.3
	c-5,1-10.1,1.5-15.3,1.5c-6.8,0-12.1-2.8-15.7-8.5c-2.2-3.5-4-7.3-5.9-11c-1.3-2.6-2.3-5.3-3.8-7.8c-4.1-7.2-10.2-11-18.6-10.4
	c-9.9,0.7-18.2-2.9-25.2-9.5c-4.4-4.1-9.3-6.6-15.3-7.1c-2.4-0.2-4.7-0.9-7-1.6c-8.8-2.6-15.1-8.1-18.8-16.5c-1.3-2.9-2.3-6-3.1-9.1
	c-1.4-6-4-11.4-7.7-16.4c-2.7-3.6-5-7.4-6.8-11.6c-2.4-5.7-3.4-11.6-2.3-17.8c0.6-3.4,1.7-6.5,3.4-9.4c3-4.9,3.2-9.9,1.4-15.2
	c-1.5-4.2-2.4-8.6-2.8-13.1c-1.2-13,2.1-24.7,9.9-35.2c2.7-3.5,4.4-7.4,5-11.8c0.2-1.3,0.3-2.6,0.6-3.8c0.9-3.9,1.6-7.8,2.9-11.6
	c3-8.9,9.1-14.9,18.1-17.7c4-1.2,8.1-1.9,12.2-2.7c5.8-1.1,6.7-2.1,6-8c-1-8.3-2.1-16.5-3.2-24.7c-1.5-12.1-3-24.1-4.4-36.2
	c-0.2-2.1-0.4-4.1-1.2-6.3c-1.2,0.4-2.3,0.8-3.2,1.2c-6.8,3.1-13.9,4.8-21.3,5.6c-6.5,0.7-13.1,1.3-19.6,1.8
	c-9.8,0.7-19.4,2.2-28.4,6.2c-4.9,2.2-10,1.8-15,0.2c-2.4-0.8-4.9-1.7-7-3.1c-7.4-5-15.4-5.6-23.9-3.7c-5.1,1.2-10.3,2.1-15.6,2.9
	c-8.7,1.2-16.8-0.2-24.4-4.8c-11.6-7-24.4-11.2-37.4-14.7c-5.1-1.4-10.2-2.7-15.4-3.8c-6.3-1.3-11.7-4.1-16.6-8.2
	c-2-1.6-3.8-3.4-5.7-5.1c-1.9-1.8-3.7-3.6-5.5-5.4c-6.1-6.3-13.1-11.2-21.2-14.7c-3.1-1.3-6.1-2.9-9.2-4.2
	c-13-5.4-22.3-14.7-29.2-26.7c-5.9-10-9.7-20.9-12.3-32.1c-0.7-3-1.4-5.9-1.9-8.9c-0.8-4.6-3.5-7.2-8-8.4
	c-16.4-4.3-32.6-9.1-48.7-14.5c-2.6-0.9-5.3-1.3-7.9-1.8c-10-1.7-19,0.6-27.4,6.1c-5.7,3.8-10.3,8.7-14.4,14
	c-8.3,10.8-14.2,22.7-18.4,35.6c-2.6,8.1-4.5,16.4-5.6,24.8c-2.6,20.8-10.9,39-24,55.1c-3.4,4.2-7.1,8.2-10.8,12.2
	c-5.3,5.7-10.8,11.4-16.2,17.1c-1.2,1.3-2.3,2.7-3.2,4.1c-1.2,1.8-1,3.7,0.3,5.4c0.8,1,1.7,1.9,2.6,2.8c1.5,1.5,3.1,2.8,4.5,4.3
	c7.7,8.2,12.1,18,13,29.2c0.9,11.1-0.3,22.1-3.7,32.7c-1.5,4.6-1.6,9-0.6,13.7c1.7,9,2.6,18,1.7,27.2c-1.6,16.3-8.3,30-19.7,41.6
	c-1.2,1.2-2.5,2.5-3.7,3.8c-0.1,0.1-0.1,0.3-0.2,0.7c0.6,0.3,1.3,0.7,2,0.9c5.1,1.3,10.2,2.5,15.3,3.9c2.8,0.8,5.5,1.6,8.1,2.9
	c5.6,2.7,8.3,7.5,8.1,13.6c-0.2,7.4-3.2,13.6-9,18.4c-3.8,3.1-8.1,4.5-12.9,4c-11.2-1-22.4-0.2-33.4,2.1c-3.3,0.7-6.6,1.3-10,0.8
	c-5.6-0.8-9.4-3.8-11.6-8.9c-0.5-1.2-1-2.3-1.6-3.9c-1.4,1.4-1.8,2.9-2.5,4.2c-0.7,1.4-1.4,2.9-2.2,4.3c-0.7,1.4-1.5,2.8-2.3,4.2
	c-0.8,1.4-1.7,2.7-2.5,4.1c-0.9,1.3-1.8,2.7-2.7,4c-0.9,1.3-1.9,2.6-2.8,3.9c-0.9,1.1-1.8,2.3-2.7,3.4c-1,1.2-2,2.5-3.1,3.7
	c-1,1.2-2.1,2.4-3.2,3.6s-2.2,2.4-3.3,3.5c-1.1,1.2-2.2,2.3-3.4,3.4c-1.1,1.1-2.3,2.3-3.4,3.4c-1.1,1.1-2.2,2.3-3.3,3.5
	c3.1,2.5,6.4,3.5,9.8,4.4c4,1,8.1,1.8,12.1,2.9c2.3,0.6,4.6,1.5,6.7,2.6c3.5,1.8,5.6,4.7,6.5,8.5c0.8,3.4,1,7,0.7,10.5
	c-0.2,2.3-1.2,3.9-3.5,4.6c-0.6,0.2-1.2,0.5-1.8,0.7c-1.4,0.5-1.9,1.5-1.9,3c0,1.3,0,2.6-0.1,3.8c-0.5,4.3-2.6,6.6-7,7.3
	c-1.1,0.2-2.2,0.2-3.3,0.2c-7.5-0.1-15-0.3-22.5-0.4c-5.3-0.1-10.5,0.4-15.7,1.9c-3.9,1.1-7.8,1.9-11.8,1.8c-4.5,0-8-1.9-10.7-5.5
	c-2.2-3-3.7-6.4-5-9.8c-2.2-5.7-4.5-11.3-6.8-16.9c-0.5-1.2-1.1-2.3-1.6-3.5c-2.3-5-6.3-7-11.7-6.5c-3.8,0.4-7.6,0.6-11.5,0
	c-16-2.2-27.3-11-34.4-25.3c-1.1-2.1-2-4.4-2.6-6.7c-1.3-5.3-4.1-9.6-7.9-13.5c-7-7.3-11.6-16-13.9-25.9
	c-3.4-14.1-1.7-27.6,4.8-40.6c0.4-0.9,0.9-1.7,1.4-2.5c1.8-2.9,2.1-6,1.5-9.2c-0.5-2.7-0.9-5.4-1.2-8.1c-0.7-5.6-0.3-11.2,0.9-16.7
	c2-9.2,6.8-16.8,14-22.9c4.3-3.6,9-6.6,14.2-8.9c2.8-1.2,4.7-2.9,5.9-5.9c4.4-11.2,13.1-16.5,24.7-17.7c3.8-0.4,7.7-0.2,11.5-0.2
	c1.1,0,2.2,0.2,3.4,0.2c2.1-0.1,3.2-0.9,3.7-3c0.3-1.1,0.4-2.2,0.6-3.3c1.5-7.8,6-13.3,13-16.8c1.3-0.6,2.6-1.3,3.9-1.7
	c2.6-0.8,3.9-2.6,4.3-5.2c0.2-1.4,0.6-2.8,1-4.2c5.2-17.2,16.8-27,34.4-30c1.9-0.3,3.8-0.6,5.7-1c5.2-1.1,9-4,11.3-8.8
	c0.8-1.7,1.6-3.5,2.2-5.3c8.1-22.8,11.3-46.2,9.7-70.3c-1.3-19.3-5.5-37.9-11.7-56.2c-4.3-12.7-9.5-25.1-15.2-37.3
	c-1-2-1.8-4-1.9-6.4c0-1.2-0.5-2.5-0.9-3.7c-0.4-1-0.9-2.1-1.4-3c-5.1-8.9-8.7-18.5-12.3-28.1c-1-2.7-2-5.4-3.3-8
	c-3.4-7.3-5.4-15-6.1-23c-0.4-5.4-1.2-10.8-1.8-16.2c-1-8.9,0-17.6,2.5-26.1c4.3-14.5,12-27.1,21.9-38.5c0.3-0.4,0.7-0.7,1-1
	c2.2-2.6,2.3-4.5,0.1-7.3c-0.4-0.5-0.8-1-1.3-1.4c-9.5-9.8-15.1-21.7-18.3-34.9c-0.9-3.9-1.5-7.8-2.2-11.8c-0.3-1.6-0.5-3.2-0.8-4.7
	c-0.7-2.8-2.1-4-5.1-4.3c-1.1-0.1-2.2,0-3.4,0c-17.1,0.5-32-5.1-45.3-15.7c-6-4.8-11.5-10.2-16.4-16.2c-6.5-8.1-12.9-16.3-19-24.7
	c-6.4-8.8-9.2-18.9-9.8-29.7c-0.6-11,1.3-21.7,4.3-32.2c0.8-2.9,1.7-5.8,2.7-8.7c1.7-4.9,1.7-9.6,0.2-14.6
	c-2.3-7.4-3.4-14.9-3.5-22.7c-0.2-10.9,1.8-21.3,5.8-31.4c4.4-11.1,10.5-21.2,18.5-30.1c7.9-8.8,17.6-14.8,29.4-16.8
	c8.5-1.4,16.9-0.5,25.1,1.9c1.8,0.5,3.7,1.1,5.5,1.7c4.2,1.4,8.1,1.1,12-1c4.9-2.7,10-4.9,15.5-6.3c11.8-2.9,22.2-0.4,31.3,7.5
	c3.9,3.4,7.1,7.3,10.1,11.5c1.3,1.8,2.5,3.7,3.8,5.5c3.7,5.1,8.3,9.3,13.9,12.2c2.3,1.2,4.5,2.5,6.6,3.9
	c18.7,12.3,27.3,29.8,26.5,52.1c0,1.1-0.1,2.2-0.2,3.4c-0.9,7.4-0.2,14.7,1.2,21.9c1.8,9.8,2.8,19.6,2.4,29.6
	c-0.2,5.8-0.9,11.5-2.3,17.1c-3.2,13.2-10,24.1-20.3,33c-1.8,1.6-3.7,3.1-5.6,4.5c-2.9,2-4.7,4.5-5.8,7.9
	c-4.3,14.2-13.8,23.5-27.7,28.4c-4.1,1.4-8.3,2.6-12.5,3.3c-3.8,0.7-5.1,3.1-5.5,6.2c-1.3,13.4,8.7,27.1,21.8,29.9
	c2.9,0.6,5.7,0.6,8.6,0c7.5-1.5,15-3.1,22.6-4.4c11.4-2,22.8-3.1,34.4-2.6c5,0.2,7.9-1.5,10.1-6.1c7.2-15.5,19.8-23.8,36.7-25.8
	c10.5-1.2,21-2.4,31.4-3.7c4.4-0.6,8.8-1.6,13.2-2.3c11-1.9,20.5,0.9,28.3,9.3c3,3.3,6.4,6.2,9.8,9.2c3.9,3.3,8,6.4,11.9,9.7
	c5.3,4.5,9.6,9.8,12.2,16.4c1.3,3.5,3.5,5.5,8.7,5.2c1.7-0.1,3.5-0.4,5.2-0.8c1.9-0.5,2.6-1.9,1.9-3.7c-4-9.9-2.4-19.9,0.5-29.6
	c2.8-9.4,8.6-16.7,16.4-22.5c1.9-1.4,4-2.7,6-4c1.2-0.8,2.5-1.4,3.7-2.3c4.3-3,5.4-5.6,4.2-10.7c-0.5-2.2-1.2-4.3-1.8-6.5
	c-1.5-5.6-2.5-11.2-2.6-17c-0.3-14.5,4.5-27,14.1-37.7c1.4-1.5,2.9-3,4.3-4.5c2.3-2.5,3.2-5.5,2.5-8.9c-3.3-16.9-0.6-33.1,5.5-48.9
	c2.1-5.4,4.4-10.6,7-15.8c3-5.9,4.2-11.9,3.5-18.5c-0.9-8.7,0-17.3,2.5-25.6c2.6-8.7,7.3-15.9,14.8-21.3c6.8-4.8,12-11.1,15.7-18.5
	c2.2-4.4,4.2-9,6-13.6c4.8-12.2,10.1-24.2,16.2-35.8c9.6-17.9,21.6-34,37.1-47.3c18.1-15.5,39-25.5,62.3-30.4
	c17.2-3.6,34.6-4,52-2.3c18.4,1.8,36.2,6.4,53.5,12.8c7.4,2.7,14.3,6.3,20.4,11.4c10.9,9,16.9,20.7,18.5,34.7
	c0.5,4.6,0.8,9.2,0.3,13.9c-0.1,0.9-0.1,1.9-0.1,2.9c0.2,2.1,1.1,3.7,3.1,4.5c1,0.4,2.1,0.8,3.1,1.2c3,1.2,6,2.3,8.8,3.7
	c11.9,6,20.3,15.4,25,27.9c3,8,4.4,16.3,4.8,24.9c0.1,1.8,0.1,3.5,0.3,5.3c0.7,4.4,3.1,7.3,7.5,8.3c2.7,0.6,5.3,1.1,8,1.4
	c13.4,1.4,26.8,2,40.2,1.6c6.6-0.2,13.1-0.5,19.7-0.5c2.5,0,5.1,0.3,7.6,0.8c5,1.1,8.2,4.3,9.6,9.1c0.7,2.4,1.3,5,1.5,7.5
	c1.6,18.9-3.3,35.5-17.2,48.9c-1.4,1.3-2.9,2.5-4.5,3.6c-1.8,1.3-3,2.7-3,5.1c0,1.4-0.3,2.9-0.6,4.3c-1.1,7-4.6,12.5-10.2,16.8
	c-3.2,2.4-6.7,4.4-10.4,5.8c-5.1,2-10.2,3.8-15.3,5.7c-3.3,1.2-6.6,2.4-9.8,4c-6.5,3.2-7.7,6.5-5.1,13.2c0.9,2.2,2,4.4,3.1,6.5
	c3.7,7.1,7.8,13.9,12.5,20.5c7.3,10.3,14.8,20.5,22.1,30.8c5,7.1,9.8,14.2,14.5,21.5c3.2,5,5.9,10.3,7.7,16c1.1,3.3,2,6.8,2.4,10.2
	c1.2,8.9-1.1,17.1-5.9,24.7c-3.8,6.2-8.6,11.5-13.8,16.6C1850.6,780,1849.4,781.2,1847.7,782.9z"/>
</svg>
