<?xml version="1.0" encoding="utf-8"?>
<!-- Generator: Adobe Illustrator 22.0.0, SVG Export Plug-In . SVG Version: 6.00 Build 0)  -->
<svg version="1.1" id="Layer_1" xmlns="http://www.w3.org/2000/svg" xmlns:xlink="http://www.w3.org/1999/xlink" x="0px" y="0px"
	 viewBox="0 0 2880 1800" enable-background="new 0 0 2880 1800" xml:space="preserve">
<path d="M1175.4,980.3c-2.2,1.2-3.9,1.8-5.3,2.8c-12.2,8.5-24.4,17-36.6,25.6c-9.1,6.5-15.4,15.2-19.6,25.6
	c-1.5,3.7-2.8,7.5-4.4,11.1c-5,11.5-11.8,21.9-19.6,31.7c-5.9,7.4-12.3,14.3-18.9,21c-10.5,10.6-21,21.1-31.5,31.7
	c-5.6,5.7-11,11.6-15.8,18c-13.5,18.1-21.8,38.3-24.9,60.6c-0.9,6.6-1.4,13.4-1.8,20c-0.5,8.1-1,16.3-1.1,24.4
	c-0.1,5.3-0.1,10.6,0.6,15.8c1.8,13.3,8.4,24,18.8,32.4c5.3,4.2,9.8,9.1,13.6,14.8c0.5,0.8,1.1,1.6,1.6,2.4
	c3.1,5.5,2.1,11.3-3.1,14.8c-5.9,4-12.4,5.8-19.6,3.7c-1.1-0.3-2.1-0.7-3.2-1.1c-2.5-1.1-5-0.9-7.4,0.2c-1.7,0.8-3.5,1.6-5.3,2.3
	c-4.5,1.8-8.8,1.2-12.7-1.7c-1.3-1-2.5-1.9-3.7-3c-2.1-1.8-4.3-2.3-7.1-2.1c-14.1,1.1-25.2-4.6-33.3-16c-1-1.4-1.8-3-2.5-4.7
	c-0.9-2.1-1.6-4.2-3.3-5.8c-1.3-1.3-1.1-2.9-1.1-4.5c0-6.9,0-13.8,0-20.6c0-3.4,0-6.7,0-10.1c-0.1-3.5-0.1-7,2.2-10.1
	c0.8-1.1,1-2.7,1.4-4.1c1.2-4.8,2.4-9.6,3.7-14.4c1.3-4.6,2.5-9.3,4-13.8c4.2-12.7,5.4-25.6,4.2-38.8c-1-10.7-1.8-21.4-1.3-32.1
	c0.5-12,2.2-23.9,5.4-35.5c3.3-11.6,9-21.8,17.7-30.3c12.9-12.6,21.9-27.9,28.6-44.5c6.4-15.8,10.6-32.2,13.5-48.9
	c3.1-18,4.7-36.1,5.9-54.3c1.1-16.3,2.3-32.6,3.4-48.8c0.7-10.4,1.3-20.8,2.3-31.1c1-11.8,2.3-23.6,3.6-35.3c1.3-12.6,3.4-25,6-37.4
	c4.3-20.6,10.4-40.6,19.2-59.7c1.7-3.8,3.8-7.4,5.7-11.1c0.7-1.3,1.3-2.5,2-3.8c1.3-2.7,0.7-5-1.3-7c-1.3-1.2-2.6-2.4-4-3.4
	c-5-3.9-9-8.6-12.5-13.8c-1.4-2.1-2.7-4.3-3-7.1c2.7-0.4,5.3-0.1,7.8,0c8.3,0.2,16.6,0.5,24.9,0.7c1.8,0,3.5,0,5.3-0.2
	c6.4-0.9,10.1-4.3,11.4-10.6c0.4-2,0.7-4.1,0.9-6.2c1.1-10.7,2-21.3,3.1-32c1-9.2,3.1-18.3,6.6-26.9c4.3-10.5,10.6-19.7,19.1-27.3
	c10.1-9.1,22.1-13.9,35.6-15c7.6-0.6,15,0,22.3,2.5c7.9,2.7,14.7,7,20.3,13.2c10,11,15.9,23.9,18.1,38.5c0.6,4.1,0.9,8.3,1.1,12.4
	c0.4,6.5,1.6,7.8,8,8.2c13.1,0.7,26.2,1.3,39.3,2.2c14.8,1,29.7,2.1,44.5,3.5c18.3,1.8,36.5,4.1,54.8,6.2
	c13.3,1.5,26.7,3.1,40.1,4.3c11.1,1,22.3,1.5,33.5,2c9.5,0.4,18.8-1.3,27.9-4.1c9-2.7,18-5.8,26.9-8.6c5.8-1.8,11.6-3.5,17.6-4.5
	c6.1-1,12.1-1.1,18.1,0.3c5.8,1.4,10.7-0.3,15.1-4.1c1-0.8,1.9-1.7,2.9-2.5c5-3.8,10.7-6,17-5.4c5.4,0.6,9.7-1.3,13.5-4.8
	c3-2.7,6-5.3,9.1-7.9c3.3-2.8,7-5.1,11.1-6.6c3.2-1.2,6.5-1.8,9.9-1.7c2.2,0,4.5,0.1,6.7,0c4.7-0.2,8.2-2.4,10.6-6.5
	c1-1.8,1.9-3.7,2.6-5.7c2.6-7.4,5.1-14.8,7.7-22.2c1.2-3.3,1.2-6.5,0.1-9.8c-4.5-13.6-6.6-27.7-7.1-42c-0.4-12.6-0.1-25.3-0.3-37.9
	c-0.1-8.2,5.5-18.2,17.6-19.4c4.6-0.5,9.2-0.8,13.8-1.3c15.3-1.7,30.3-5,45.1-9.2c1.7-0.5,3.3-1.2,4.8-2.1c1.8-1.1,3.7-1.7,5.9-1.6
	c7.5,0.1,15,0,22.6,0c2,0,3.7,0.3,5.3,1.7c1.5,1.2,3.2,2.1,4.9,3c6.4,3,12.9,5.7,18.9,9.4c2.5,1.6,5.1,1.7,7.7,0.1
	c0.7-0.4,1.4-0.7,2.2-1.1c5.5-2.4,11.2-2.9,16.8-0.5c3.7,1.6,6.9,1.4,10.5-0.6c5.8-3.2,12.2-3.8,18.6-2.6c8.7,1.6,17.1,4.3,25,8.1
	c8.3,3.9,16.6,4.2,25.2,1.4c5.8-1.9,11.6-3.7,17.3-5.8c17.5-6.3,32.5,0.8,41.1,13.7c3.8,5.7,5.6,12.1,6.9,18.8
	c1.2,6.4,2,13,2.3,19.5c0.3,6.9,0.7,13.7,1.6,20.6c1.8,15.4,7.2,29.5,17.5,41.3c3.5,4.1,4.6,8.6,3.2,13.8c-0.7,2.5-2.1,4.3-4.6,5.2
	c-5.8,2.2-11.6,3.5-17.7,1.1c-5.5-2.2-7.2-0.9-8.1,4.7c-1,6.6-3.9,12.6-8.1,17.7c-3.5,4.3-4.3,9.1-3.7,14.4
	c0.6,5.3,2.1,10.3,4.4,15.1c1.3,2.7,2.7,5.4,4.1,8.1c5.5,10.8,6.4,22,3.2,33.6c-1.6,5.9-4.1,11.4-7.1,16.8c-0.4,0.7-0.8,1.4-1.3,2
	c-3.6,5-7.7,6.3-13.4,3.9c-1.8-0.7-3.4-1.7-5.1-2.7c-1.2-0.7-2.4-1.5-3.9-2.5c-0.8,0.9-1.6,1.6-2.2,2.4c-0.3,0.4-0.4,0.9-0.6,1.3
	c-3.6,8.9-10.3,14.5-19.2,17.6c-4.2,1.5-8.6,2.6-12.8,3.9c-4.4,1.3-8.9,2.6-13.3,4c-5.4,1.7-9,5.2-11.3,10.3c-2,4.4-3.2,9-3.8,13.8
	c-0.7,5.7-0.7,11.5-0.6,17.3c0.2,12.8,0.5,25.6,0.6,38.4c0,2.9-0.3,5.7-0.7,8.6c-0.9,5.7-3.4,10.6-7.1,15c-1,1.2-2.2,2.4-3.2,3.6
	c-9.3,10.6-13.4,22.9-11.6,36.8c1.1,8.6-1,16.1-5.3,23.3c-0.9,1.5-1.9,2.9-2.9,4.4c-5.4,7.9-8,16.6-7.7,26.2
	c0.1,2.2,0.1,4.5,0.5,6.7c1.5,9.6,0.7,19.2-0.6,28.7c-1,6.8-2.2,13.6-3.3,20.4c-1.8,10.9-6.3,20.4-14.3,28.2
	c-9.4,9.3-13.7,20.6-13.7,33.7c0,21.4,0.1,42.9-0.1,64.3c-0.1,11.4,0.8,22.7,3,33.9c1.2,6.1,2,12.3,2.5,18.5c0.9,11,1.6,22,2.3,33
	c0.7,10.4,1.1,20.8,1.8,31.1c0.7,9.9,2.8,19.6,6.1,29c4,11.7,11.4,20.6,22,27c5.4,3.2,10.8,6.3,16.1,9.5c3.7,2.2,7.2,4.8,10.2,8
	c2,2.1,3.7,4.4,4.4,7.3c1.9,7.1-2.2,13.8-9.4,15.1c-2.3,0.4-4.8,0.6-7.2,0.5c-5.1-0.2-10.2-0.6-15.3-1c-5.9-0.4-11.7-0.6-17.7,0.5
	c-18,3.4-34.2-1.1-49-11.6c-8.3-5.9-12.2-14.2-12.8-24.1c-0.3-4.5-0.2-9-0.2-13.4c0-5.3,0-10.6,0.1-15.8c0.1-7.3-2.3-13.4-8.4-17.9
	c-5.3-4-7.2-9.2-5.3-15.7c0.9-3.1,1.7-6.2,2.6-9.2c2-7.1,2.5-14.2,0.6-21.3c-1-3.9-2.8-7.5-5.1-10.8c-1.3-1.8-2.7-3.6-4.1-5.3
	c-5.5-6.4-7.9-13.8-7.5-22.1c0.5-9.2-1.7-17.8-6.1-25.8c-1.2-2.2-2.6-4.4-4-6.6c-5.5-8.8-11.2-17.5-16.6-26.4
	c-9.9-16.2-15.2-33.7-15.2-52.8c0-6.3-1.7-7.7-7.9-6.9c-4.4,0.6-8.9,1.1-13.3,1.8c-7.4,1.1-9.5,3.3-10.7,10.7
	c-0.3,1.7-0.5,3.5-0.5,5.2c-0.3,19.7-0.8,39.4-0.9,59c-0.1,10.2,0.3,20.5,0.4,30.7c0.2,9,1.8,17.8,3.5,26.6
	c2.5,12.8,3.8,25.6,3.7,38.6c-0.1,20.1,2.5,39.9,6.6,59.5c3.1,15.1,11.8,26,25.4,33.1c2.3,1.2,4.6,2.3,6.9,3.4
	c5.9,3,11.1,7,15.6,11.8c1.5,1.6,2.9,3.4,4.1,5.3c0.9,1.3,1.5,2.8,2,4.3c1.6,5.5-1,10.4-6.5,12c-1.8,0.5-3.8,0.8-5.7,0.9
	c-3.5,0.2-7,0.2-10.6,0.2c-6.2-0.1-12.5-0.5-18.7-0.5c-2.9,0-5.7,0.5-8.6,0.9c-14.1,1.9-27.8,0.6-40.5-6.4c-2.4-1.3-4.7-2.8-6.9-4.3
	c-8.6-5.9-13-14.3-14.4-24.5c-0.7-5.6-0.6-11.2-0.6-16.8c0.1-5.4-0.1-10.9-0.3-16.3c-0.2-5.2-2.4-9.5-6.2-13.1
	c-0.7-0.7-1.4-1.3-2.1-2c-3.2-3.3-4.8-7.2-4.6-11.7c0.1-2.4,0.5-4.8,0.9-7.1c0.8-3.9,1.8-7.8,2.8-11.7c2-8,0.8-15.6-3.5-22.6
	c-1.5-2.5-3.2-4.8-5-7.1c-6.5-8.1-9.7-17.2-9.2-27.6c0.4-7.4-1.5-14.3-4.9-20.7c-1.3-2.4-2.7-4.7-4.1-7.1c-6.6-11-13.1-22-19.8-32.9
	c-8.4-13.5-11.6-28.3-11-44c0.3-7,0.7-14.1,0.8-21.1c0.1-6.1-0.1-12.2-0.2-18.2c0-4.9-1.4-9.5-3.9-13.7c-5-8.7-11.2-16.3-19.1-22.6
	c-9.3-7.4-20-11.4-31.8-11.8c-29-1-55.7-9.4-80.3-24.5c-6.9-4.2-14.1-7.4-22-9.1c-13.3-2.8-26.6-5.7-39.9-8.5
	c-2.9-0.6-5.7-0.8-8.3,1.1c-1.5,1.1-2.6,2.3-3.4,3.9c-3.8,7.6-7.3,15.2-8.9,23.7c-2.6,13.4-7.9,26-14.5,38
	c-5.2,9.4-11.1,18.4-17.3,27.1c-11.1,15.6-22.3,31.2-33.4,46.9c-7.9,11.2-13.7,23.5-17.5,36.6c-3.3,11.3-4.9,22.8-5.2,34.5
	c-0.2,12.2-0.2,24.3,0.9,36.4c0.9,10,2.5,20,5.2,29.7c3.5,12.5,10.4,22.5,21.1,29.9c4.9,3.4,9.5,7.1,14.2,10.7
	c1.5,1.2,2.9,2.5,4.2,3.9c5.8,6.6,4.6,15.9-2.7,20.9c-2.6,1.8-5.4,2.8-8.5,2.9c-2.7,0.1-5.4-0.2-8.1-0.2c-1.9,0-3.8,0-5.7,0.1
	c-1.8,0.1-3.4,0.8-4.8,1.9c-0.5,0.4-1,0.8-1.5,1.1c-5.7,4.1-11.6,4.5-17.4,0.7c-3.4-2.3-6.8-2.8-10.9-2
	c-14.3,2.7-32.7-5.6-38.8-20.3c-4.4-10.8-7-21.9-7.6-33.5c-0.6-12,0.1-24,1.6-35.9c1.2-9.4,2.3-18.7,3.2-28.1
	c0.9-9.6-0.3-19.1-2.4-28.6c-1.8-7.8-3.5-15.6-4.7-23.5c-1.9-11.6-2-23.3-1.1-34.9c0.3-4.5,1-8.9,1.4-13.4
	c0.7-6.7,2.8-12.9,6.8-18.2c13.4-17.8,21.4-38.1,27.7-59.2c1.3-4.4,2.4-8.9,3.6-13.4C1175.3,982.6,1175.3,981.9,1175.4,980.3z
	 M1137,650.1c0.5,0.2,0.8,0.4,1.1,0.4c5.3-1.1,10.7-2.1,16-3.3c2.2-0.5,3.5-2.1,4.4-4.1c1.6-3.7,1.8-7.4,0.6-11.2
	c-1-3.3-3.4-4.9-6.9-4.7c-3.9,0.2-7,2-9.6,4.8c-3,3.3-4.6,7.3-5.3,11.6C1136.8,645.8,1136.2,648,1137,650.1z"/>
</svg>
