<?xml version="1.0" encoding="utf-8"?>
<!-- Generator: Adobe Illustrator 22.0.0, SVG Export Plug-In . SVG Version: 6.00 Build 0)  -->
<svg version="1.1" id="Layer_1" xmlns="http://www.w3.org/2000/svg" xmlns:xlink="http://www.w3.org/1999/xlink" x="0px" y="0px"
	 viewBox="0 0 2880 1800" enable-background="new 0 0 2880 1800" xml:space="preserve">
<path d="M1021.2,1304.4c-0.5,1-0.9,1.8-1.3,2.7c-1.2,3.5-2.3,7-3.6,10.4c-3.5,9.4-10,15.8-19.2,19.7c-6.7,2.8-6.7,2.8-13.8,2.8
	c-8.5,0-8.5,0-16.2-3.3c-5.3-2.3-10.6-4.5-15.9-6.8c-3.4-1.5-6.8-2.8-10.4-3.6c-4.3-0.9-6-2.9-6.4-7.2c-0.3-2.7-0.2-5.4-0.3-8.1
	c-0.1-5.4-0.1-10.9-0.2-16.3c-0.1-3.2-0.2-6.4-0.3-9.6c-0.4-15.4-0.7-30.7-1.3-46.1c-0.4-9.9-0.9-19.8-1.8-29.7
	c-0.7-7-2.1-13.9-3.3-20.8c-0.6-3.8-1.5-7.5-2.2-11.3c-0.3-1.9-0.4-3.8-0.5-5.7c-0.1-2.7,0.2-5.5-0.1-8.2c-0.6-6.8,1.7-12.9,4.1-19
	c2.4-6,5.8-11.4,10.6-15.8c3.4-3.1,6.8-6.3,10.2-9.4c5.9-5.5,11.4-11.2,16.3-17.6c5.8-7.6,10.1-15.9,11.6-25.5
	c0.8-5.4,1.6-10.8,2.1-16.2c1.6-17.4,3.2-34.7,4.6-52.1c0.9-10.7,0.9-21.4-0.4-32.1c-1.8-15.1-3.8-30.1-5.7-45.2
	c-1.5-12.1-3.1-24.1-2.6-36.3c0.7-16.6,4.9-32.2,12.4-46.9c2.1-4.1,4.5-8.1,7-12c14.2-22.3,27.1-45.3,40.2-68.2
	c2.4-4.2,3.2-8.7,2.7-13.4c-1.4-14.3-2.8-28.6-4.2-43c-1.2-12.9-2.4-25.8-2.8-38.8c-0.3-11.7,0.3-23.3,1.2-35
	c1-11.8,2.5-23.5,5-35.1c4.1-19,10.6-37.2,19.9-54.3c15.9-29.5,35.5-56.2,58.1-80.8c3.5-3.8,3.5-3.8,8.7-3.5c0.5,0,0.9,0.2,1.7,0.3
	c6.7,10.2,8.9,21.2,5.1,33.2c-0.9,2.9-2.2,5.6-3.6,8.4c-6.9,14.1-13.5,28.3-19.2,42.9c-7.3,19-12.1,38.7-14.8,58.9
	c-1.8,13.7-2,27.4-1,41.2c0.8,10.4,2.9,20.6,5.1,30.7c1.8,8.3,3.6,16.6,5.4,24.8c1.4,6.3,2.4,7.1,9,7.6c19.5,1.4,38.9,2.9,58.4,4.4
	c13.9,1.1,27.7,2.2,41.6,3.3c17.9,1.4,35.7,3,53.6,4.4c12.1,0.9,24.3,1.6,36.4,2.3c14.7,0.8,29.4,1.5,44.1,2.2
	c3.4,0.2,6.7,0.3,10.1,0.2c16.6-0.4,33.3-0.7,49.9-1.2c10.7-0.3,21.4-0.7,32.1-1.1c12.3-0.4,24.6-0.8,36.9-1.3
	c14.7-0.6,29.4-1.1,44.1-2c11.3-0.7,22.6-1.8,33.9-2.9c8.3-0.8,15.8-3.9,22.3-9.2c5.2-4.2,11-7.1,17.5-8.5
	c5.8-1.3,11.7-1.5,17.7-0.8c2.5,0.3,5.1,0.7,7.6,1c5.1,0.6,9.9-0.4,14.3-3c1.2-0.8,2.4-1.5,3.7-2.3c4.6-2.8,9.4-4.8,14.8-5.1
	c3.4-0.2,6.2-1.4,8.5-3.9c2.5-2.8,4.2-6,4.6-9.8c0.1-0.6,0-1.3-0.2-1.9c-0.4-1.8-2.5-2.8-4.1-1.7c-1.1,0.7-2,1.6-3,2.4
	c-2.9,2.1-4.5,2-7.3-0.2c-2.8-2.2-4.5-5-4.2-8.7c0.4-5.5-1.2-10.4-3.9-15.1c-8.1-14.3-16.1-28.7-24.1-43.1
	c-2.1-3.8-4.2-7.5-6.1-11.4c-1.1-2.3-1.9-4.8-2.3-7.3c-0.8-4.5,0.6-8.6,3.9-11.8c1.6-1.6,3.3-3.1,5.2-4.2c3.8-2.4,7.7-4.7,11.6-6.7
	c13.4-6.7,26.9-13.4,40.5-19.9c4.7-2.3,8.8-5.1,12.4-8.9c5.7-6.2,12.9-9.9,20.8-12.3c4.7-1.4,9.6-2.5,14.4-3.8
	c8.9-2.3,17.3-5.6,24.9-10.8c6.4-4.4,13.6-6.3,21.1-7.4c6-0.9,11.9-2.1,17.8-3.7c6.5-1.8,13.2-2.2,20-1.7c7.7,0.6,15.3,1.8,22.7,3.5
	c8.2,1.9,16.2,1.3,24.2-0.6c1.6-0.4,3.1-0.7,4.7-1.1c5.4-1.6,10.7-1.3,16,0.4c11.6,3.8,23.5,6.3,35.2,9.3c9.5,2.4,19.1,3.9,28.9,4.1
	c3.7,0.1,7.3,0.6,10.9,1.2c1.9,0.3,3.7,1.1,5.4,1.8c5.2,2.3,8.3,6.3,9.7,11.8c1,4.1,0.9,8.2-0.2,12.3c-1.9,7.6-3.7,15.2-5.7,22.8
	c-3.5,13.1-7,26.3-10.5,39.4c-1.6,5.7-2.9,11.4-2.1,17.5c0.2,1.6-0.4,3.4-0.7,5.2c-3.3-0.1-5.3-1.6-7-3.9
	c-5-6.6-10.1-13.2-15.2-19.8c-0.9-1.2-1.7-2.6-3.3-3.6c-0.8,1.5-0.3,2.7,0,3.8c2,9.9,4,19.7,5.9,29.6c0.6,3.1,1,6.3,1.3,9.5
	c0.7,7.2-0.7,14-3.1,20.7c-3.8,10.5-7.7,21-11.6,31.5c-2.2,6-4.5,12-6.9,17.9c-2.9,7.3-3.8,14.8-2.5,22.6c1.5,9.6,0.2,18.8-3.8,27.7
	c-2.6,5.8-5.3,11.7-8.1,17.4c-2,4.1-2.9,8.3-2.3,13c0.9,7.3-0.6,14.3-3.3,21.1c-2.5,6.2-5,12.5-7.5,18.7
	c-17.9,44.2-35.8,88.3-53.6,132.5c-4.3,10.7-8.1,21.5-12.1,32.3c-0.8,2.1-1.6,4.2-2.4,6.3c-1.2,3.6-3.3,6.6-6,9.1
	c-2.2,2.1-4.4,4.2-6.6,6.3c-7.8,7.2-15.5,14.4-23.3,21.4c-2.8,2.5-4.1,5.4-4.2,9.2c-0.8,22.9-2.6,45.7-5.9,68.3
	c-2.3,16-5.2,31.9-8,47.8c-4.3,24.4-8.7,48.8-13.2,73.2c-0.7,3.9-0.3,7.7,0.5,11.4c0.7,3.3,1.8,6.5,2.5,9.8c0.4,1.8,1.4,2.8,3,3.4
	c0.8,0.3,1.5,0.6,2.2,0.9c19.3,7.6,34,20.6,45.3,37.8c3,4.6,4.6,9.8,6.1,15.1c0.1,0.5,0.2,0.9,0.2,1.4c0.5,5.4-2,9-7.4,9.9
	c-2.8,0.5-5.7,0.8-8.6,1c-6.5,0.4-13.1,0.8-19.6,1c-3.1,0.1-6,0.7-8.8,2.1c-3.4,1.8-7.1,3-10.9,3.5c-7,0.9-13.3-0.6-19.1-4.7
	c-4.2-3-7.8-6.7-10.7-10.9c-2.4-3.5-5.4-6.3-9.3-8.1c-4-1.9-6.5-5-7.8-9.2c-3.7-11.7-7.4-23.5-11-35.2c-0.6-1.8-1.1-3.7-1.9-5.4
	c-1.5-3.5-4.2-5.5-8-6.1c-7.7-1.2-9.8-3.3-10.9-11c-1.1-7-2-13.9-2.9-20.9c-1.8-13.8-4.6-27.4-7.3-41.1
	c-7-35.5-15.7-70.5-25.5-105.3c-1.7-6-3.9-11.8-6-17.7c-2.3-6.3-4.6-12.6-5-19.4c0-0.6-0.2-1.3-0.3-1.9c-0.6-2.9-1.1-3.4-4.1-3.8
	c-1.1-0.2-2.2-0.3-3.3-0.3c-16.3-1.1-32.6-2.1-48.8-3.3c-12.9-1-25.8-2.1-38.7-3.3c-10.5-1-21-2-31.5-3.2
	c-52.7-6.2-103.8-18.3-152.4-40.2c-9-4.1-18-8.3-27.2-12c-12.4-5.1-25.3-8.9-38.6-11.4c-12.7-2.4-25.4-2.3-38.2-0.1
	c-3.5,0.6-6.9,1.6-10.3,2.2c-2.7,0.5-4.7,2-6.2,4.2c-1,1.4-1.9,3-2.5,4.6c-4.9,12-11.8,22.7-20.2,32.5c-5.6,6.6-11.4,13-17.5,19.1
	c-24.1,24.6-48.3,49-72.5,73.4c-4.1,4.1-8.3,8-12.7,11.7c-7.9,6.6-15.1,13.8-21.8,21.6c-6.4,7.4-12.7,14.9-19,22.3
	c-4.3,5-6.8,10.8-7.9,17.2c-0.7,4.1-1.2,8.2-1.7,12.3c-1.6,13.7-3.1,27.3-4.6,41c-0.5,4.1-0.5,8.3,0.5,12.4c0.9,3.8,2.7,7.2,5.8,9.7
	c8.1,6.6,16.5,12.6,25.6,17.7c2.2,1.3,4.5,2.5,6.6,4c2.8,1.9,3.8,4.7,3.2,8c-3.5,18.9-16.6,29-29.7,31.4c-6,1.1-11.8,0.7-17.6-0.6
	C1027.2,1305.9,1024.3,1305.1,1021.2,1304.4z"/>
</svg>
