<?xml version="1.0" encoding="utf-8"?>
<!-- Generator: Adobe Illustrator 22.0.0, SVG Export Plug-In . SVG Version: 6.00 Build 0)  -->
<svg version="1.1" id="Layer_1" xmlns="http://www.w3.org/2000/svg" xmlns:xlink="http://www.w3.org/1999/xlink" x="0px" y="0px"
	 viewBox="0 0 2880 1800" enable-background="new 0 0 2880 1800" xml:space="preserve">
<path d="M1636.4,1440.5c-7.7,0-15.4,0-23,0c-4.7,0-9.3-0.6-13.7-1.9c-9.9-3-15.5-9.9-16.2-20.2c-0.3-4.1-0.2-8.4,0.4-12.4
	c1.3-9,0.6-17.9-1.8-26.6c-1.7-6.2-3.8-12.2-5.9-18.2c-3-8.4-6.2-16.8-8.3-25.5c-1.7-7.4-2.7-14.8-2.4-22.3c0-1.1,0.1-2.2,0-3.4
	c-0.1-3.9-1.8-7.1-4.9-9.5c-0.5-0.4-1-0.8-1.6-1.1c-3.8-2.5-5.1-6-4.4-10.4c0.2-0.9,0.2-1.9,0.5-2.8c1.4-4.6,1.8-9.4,1.8-14.2
	c0-6.7,0.2-13.4-0.8-20.1c-0.2-1.1-0.2-2.3-0.1-3.3c1.1-8.6,2.4-17.1,6.5-24.9c0.4-0.8,0.8-1.8,1.1-2.6c1.2-2.8,0.4-5-1.8-6.9
	c-1.2-1-2.6-1.9-3.9-2.8c-2-1.6-4.1-3.1-5.9-4.9c-2.7-2.7-3.6-5.9-2.5-9.7c1.1-3.9,2.6-7.5,4.8-10.9c3.3-4.9,3.7-10.2,0.6-15.3
	c-3.6-6-4.2-12.3-2.3-18.9c0.7-2.4,1.6-4.9,2.7-7.2c3.7-7.8,7.6-15.5,11.3-23.3c1.3-2.7,2.6-5.5,3.5-8.4c2.1-6.2,0.8-11.7-3.6-16.4
	c-1.1-1.2-2.2-2.3-3.5-3.3c-2.7-2.1-4.8-4.7-7-7.2c-4.4-5.1-9-10-13.6-14.8c-3.3-3.4-7.3-5.7-11.7-7.4c-4.6-1.8-9.3-3.3-14.1-4.8
	c-4.4-1.4-8.9-2.6-13.3-4c-5-1.6-9.9-3.7-14.2-6.8c-2.6-1.9-5.1-2-8.1-0.7c-7.2,3.2-14.4,2.7-21.4-0.5c-2.9-1.3-5.6-3.1-8.4-4.6
	c-3.6-2-7.2-4.2-10.9-5.9c-5.6-2.7-11.4-5.1-17.1-7.6c-16-6.8-31.7-14.5-47.4-22.1c-7.1-3.4-14.1-6.8-21.2-10.1
	c-13.8-6.4-28.3-10.2-43.3-11.7c-8.4-0.8-16.9-1.2-25.4-1.6c-2.4-0.1-4.8,0.2-7.2,0.5c-5.6,0.7-10.4,3.1-14.4,7
	c-1.7,1.6-3.3,3.5-4.8,5.4c-8.5,11-16.9,22.1-25.3,33.2c-9,11.8-17.7,23.9-25.3,36.7c-4.9,8.3-9.2,16.8-11.9,26.1
	c-0.9,2.9-2,5.7-3.1,8.6c-2,5-4.8,9.4-8.8,13c-2.1,1.9-3.4,4.2-4.8,6.5c-6.5,10.6-13.1,21.3-19.7,31.8c-1.4,2.2-2.9,4.2-4.6,6.1
	c-4.9,5.4-11,7.4-18.2,5.9c-1.6-0.3-3.2-0.6-4.7-0.6c-2.4,0-3.8,1.4-4,3.9c-0.1,0.9-0.1,1.9,0.1,2.9c0.5,2.2,0.8,4.4,1.7,6.5
	c1.6,4.1,1.4,8.1,0.2,12.2c-2.5,8.5-7,15.8-14,21.3c-2.9,2.3-6.1,4.1-9.2,6c-3.8,2.3-7.8,4.4-11.7,6.7c-4.7,2.8-8.7,6.4-12.3,10.6
	c-14,16.3-26.5,33.7-36.3,52.9c-5.4,10.6-9.8,21.5-13.4,32.8c-7.3,23.2-6.3,46,2.7,68.6c1.2,3,2.5,5.9,3.8,8.8
	c1.9,4.3,2.8,8.8,2.6,13.5c-0.3,6.6-3.3,11.6-8.8,15.2c-3.4,2.2-7.2,3.5-11.2,4c-17,2.3-33.8,1.6-50.6-2c-1.9-0.4-3.7-1-5.5-1.7
	c-7.6-3.1-12.6-8.6-14.5-16.7c-1.4-5.9-2.5-11.9-3.6-17.9c-3.7-19-7.5-38-11.2-56.9c-1.1-5.6-2.1-11.3-2.8-17
	c-1.1-8.5,0.3-16.6,4.7-24c2.6-4.3,4.5-8.8,5.6-13.7c1.6-7.2,0.6-14-2.4-20.6c-0.8-1.7-1.8-3.4-2.8-5c-6.2-9.7-12.5-19.3-18.8-29
	c-0.3-0.5-0.7-1.1-1.1-1.6c-2.8-4.1-2.8-7.9,0.4-11.9c6-7.7,11.8-15.5,18-23.1c3.3-4.1,7.2-7.7,10.9-11.5c2.4-2.6,4.9-5,7.2-7.7
	c3-3.7,4.8-7.9,5-12.7c0.2-3.9,1.5-7.5,3.5-10.8c3.7-6.2,7.5-12.3,11.2-18.5c1.9-3.1,3.9-6.3,5.7-9.4c2.5-4.2,2.5-8.5,0.3-12.8
	c-1-2.1-2-4.3-2.8-6.6c-1.1-3-1-5.9,0.1-8.9c1.8-4.8,3.4-9.6,5.4-14.4c5-12.3,9.4-24.8,13.3-37.5c2.8-9.1,4.3-18.3,5.3-27.8
	c2.1-20.4,2.6-40.9,1.9-61.4c-0.4-11.8-1.5-23.6-2.4-35.4c-1.1-14.2-2.3-28.4-1.6-42.6c0.6-12.1,2.7-23.8,6.5-35.3
	c2.1-6.2,4.2-12.4,6.4-18.6c0.8-2.2,1.8-4.5,3.1-6.5c3.5-5.3,5.6-11.1,6.8-17.3c1-4.9,2.1-9.7,3.1-14.5c0.3-1.7,0.6-3.5,0.7-5.2
	c0.4-4.5-0.7-8.7-4-11.9c-1.9-1.8-2.6-3.8-2.4-6.4c0.7-8.6-0.6-16.9-3.5-25c-2.3-6.3-4.8-12.6-7.5-18.7c-1.6-3.5-3.8-6.6-5.8-9.9
	c-1.4-2.3-2.9-4.6-4.2-7c-2.1-4.1-2.3-8.3-0.1-12.4c1.4-2.7,1.8-5.4,1.4-8.3c-0.2-1.3-0.2-2.6-0.1-3.8c0.4-5.1,2.6-9.2,7.1-11.9
	c1.2-0.7,2.5-1.3,3.8-2c1-0.5,2-1.1,2.8-1.8c2.2-1.8,2.6-4,0.9-6.4c-0.9-1.3-2.1-2.4-3.2-3.5c-3.8-3.5-4.7-7.8-3.4-12.7
	c2.6-9.6,5.3-19.1,7.7-28.7c2-7.8,6.5-13.8,12.7-18.7c8.6-6.7,18.1-8.2,27.9-3.4c6.8,3.4,13.3,2.2,20,0.6c1.1-0.3,2.1-0.9,3.1-1.2
	c2-0.5,4-1.2,6.1-1.4c5.9-0.6,8.6,1.5,9.6,7.4c0.3,2.1,0.4,4.1,0.7,6.2c1.1,6.9,4.2,6.9,9,4.9c1.3-0.5,2.5-1.5,3.6-2.3
	c6-4.4,12.4-4.7,19-1.4c1.1,0.6,2.3,1.2,3.4,1.8c5,2.4,9.9,2.1,14.6-0.8c2-1.3,4-2.7,6-3.9c1.6-1,3.4-1.8,5.2-2.4
	c2.6-0.8,4.4,0.2,5.3,2.8c0.5,1.5,0.8,3.1,1.1,4.7c2.3,11.1,7.3,20.8,15.5,28.7c9.2,8.9,20.2,13.3,33,13.1c2.6,0,5.1-0.1,7.6-0.6
	c7.2-1.3,13.7,0.5,19.7,4.3c3.2,2,6.4,4.3,9.4,6.7c4.1,3.3,8.1,6.8,12.2,10.1c2.1,1.7,3.4,3.7,4.1,6.3c0.6,2,1.2,4,2,5.9
	c1.9,4.2,5.2,6.3,9.8,6.5c4.7,0.2,9.2-0.8,13.8-1.5c7.1-1.1,14.2-2.5,21.4-2.7c3-0.1,6.1-0.2,9.1,0c15.1,0.6,30.1,0.1,45.1-1.3
	c11.9-1.2,23.8-2.6,35.8-3.8c8.3-0.8,16.6-1.4,24.9-2.1c3.2-0.3,6.4-0.6,9.6-0.7c5.7-0.3,11.5-0.8,17.2-0.6
	c23.8,0.7,46.8-3.7,69.1-11.7c14.2-5.1,27.8-11.3,41-18.7c4.2-2.4,8.4-4.7,12.7-6.8c7.9-3.9,16.1-6.1,25-5.6
	c5.3,0.3,9.2-2.2,12.1-6.4c0.7-1.1,1.3-2.2,1.9-3.3c5.2-10.4,12.8-18.7,22.3-25.3c2.2-1.5,4.5-3,6.8-4.5
	c9.5-6.3,18.4-13.3,26.5-21.3c7.2-7.1,13.4-15,18.8-23.6c1.4-2.3,2.8-4.7,3.8-7.2c2-5,0.9-8.3-3.7-11c-2.7-1.6-5.8-2.8-8.7-4
	c-2.7-1.1-5.4-1.9-8.1-3c-8.3-3.5-15.3-8.7-20.8-15.8c-6-7.8-10.8-16.2-12.8-26c-4.4-21.3,8.3-41.3,29.2-46.6
	c2.3-0.6,4.7-0.9,7.1-1.3c15.3-2.6,29-8.9,41.3-18.1c1.8-1.3,3.5-2.8,5.3-4.1c2.4-1.6,4.7-3.3,7.2-4.7c4.7-2.5,9.8-3,14.8-1
	c5.1,2,10.4,3.1,15.7,4.3c2.6,0.6,5.3,1.3,7.9,2.2c8,2.8,13.8,8,16.4,16.3c1.3,4.1,3.9,7.3,6.7,10.4c1.3,1.4,3,2.4,4.9,2.8
	c3.8,0.8,7.3-0.7,9.5-4.1c0.8-1.2,1.3-2.6,1.9-3.9c3.7-7.6,9.9-11.4,18.2-10.7c7,0.5,12-1.9,15.8-7.6c3.9-5.8,9-10.4,14.8-14.2
	c4.2-2.7,8.4-5.3,12.6-7.9c6-3.7,12-7.4,17.8-11.3c5.9-3.8,12.2-6.2,19.2-6.9c3.4-0.3,6.7-0.1,10,0.6c1.8,0.4,3.5,1.4,5.1,2.5
	c2.5,1.8,4.2,4.3,5.7,7c2.2,3.9,4.4,7.8,7,11.5c4.2,6,9.8,10.5,16.5,13.6c2.3,1.1,4.6,2.3,6.8,3.5c5.3,3.1,7.9,7.6,7.5,13.9
	c-0.4,6.9-1.1,13.7-3,20.4c-2.8,9.7-8.1,17.6-16.6,23.4c-2,1.3-3.9,2.8-5.7,4.4c-10.1,9.2-13.9,20.8-12.1,34.2
	c0.6,4.8,1.8,9.4,3.6,13.9c1.8,4.5,2.7,9.1,2.6,14c-0.3,9,2.3,17.4,6.4,25.3c2.9,5.6,6.6,10.6,10.6,15.4c3.2,3.8,6,7.9,8.2,12.4
	c3.5,7,5.2,14.4,4.7,22.3c-0.2,4.2-1.1,8.2-2.5,12.2c-1.5,4.2-2.9,8.5-4.6,12.6c-4.5,11.5-11.7,21.3-21,29.4
	c-9.3,8-20.3,11.9-32.6,12.3c-4.5,0.1-8.9,0.4-13.4,1c-2.4,0.3-4.7,1-6.9,1.8c-4.4,1.6-7.1,4.8-8.2,9.3c-0.6,2.5-1,5-1.1,7.6
	c-0.1,4.3,0.1,8.6,0.5,12.9c0.5,5.3,0.2,10.6-0.9,15.8c-1.8,8.6-6.1,15.8-12.8,21.4c-2.8,2.3-5.9,4.4-9.1,6.3
	c-9.5,5.8-15.6,14-18.2,24.8c-2.6,10.9-4.2,22-4.6,33.2c-0.4,10.1-0.3,20.2-0.3,30.2c0,8.2,0.2,16.3,0.1,24.5
	c-0.3,10.6-1.6,21-4.6,31.2c-1.5,5.1-3.3,10-5.8,14.7c-3.2,5.8-5.1,12-6.7,18.4c-2.2,9.3-4.5,18.6-6.8,28
	c-2.3,9.3-5.7,18.3-8.9,27.4c-6.6,18.7-13.4,37.3-20.1,56c-3.1,8.6-7.7,16.1-14.2,22.5c-7.4,7.2-13.3,15.6-17.1,25.2
	c-4.6,11.6-5.4,23.6-3.6,35.9c0.6,4.3,0,8.3-1.4,12.2c-1,2.9-2.5,5.5-4.8,7.7c-1.3,1.2-2.5,2.5-3.6,3.8c-5.4,6-8.6,13-9.6,21.1
	c-0.4,3-1.1,6-1.7,8.9c-1.1,6-2.3,11.9-3.4,17.9c-0.9,4.4-0.7,8.9-0.4,13.4c1.2,17.6-0.6,34.8-7.3,51.3c-1.7,4.3-3.9,8.4-5.9,12.6
	c-1.8,3.7-3.6,7.5-4.5,11.6c-2.4,10.6-0.2,20.3,6.3,29c3.6,4.8,8.1,8.6,13.1,11.9c2.8,1.8,5.7,3.5,8.5,5.4c4.1,2.7,7.4,6.1,10,10.2
	c1.9,3,3.2,6.3,3.8,9.8c1,6.2-0.8,11.4-5.6,15.5c-2.5,2.1-5.4,3.5-8.4,4.5c-10.1,3.4-20.4,6.5-30.9,8.9c-3,0.7-5.9,1.3-8.8,2.2
	c-8,2.5-10.4,6.6-8.9,14.9c0.6,3.5,1.7,6.8,3.2,10c2,4.2,3.5,8.6,4.5,13.1c0.8,3.5,1,7,0.7,10.5c-0.6,7.7-4.4,13.2-11.4,16.4
	c-4.1,1.9-8.5,2.8-13,2.8C1653.4,1440.6,1644.9,1440.5,1636.4,1440.5C1636.4,1440.5,1636.4,1440.5,1636.4,1440.5z"/>
</svg>
