<?xml version="1.0" encoding="utf-8"?>
<!-- Generator: Adobe Illustrator 22.0.0, SVG Export Plug-In . SVG Version: 6.00 Build 0)  -->
<svg version="1.1" id="Layer_1" xmlns="http://www.w3.org/2000/svg" xmlns:xlink="http://www.w3.org/1999/xlink" x="0px" y="0px"
	 viewBox="0 0 2880 1800" enable-background="new 0 0 2880 1800" xml:space="preserve">
<path d="M1074.1,767.8c1.4-1.1,2.5-1.9,3.6-2.8c15.7-12.7,33-22.6,51.9-29.5c12.3-4.5,24.7-8.8,37.3-12.3
	c10.5-2.9,21.3-4.5,32.1-5.5c17.8-1.7,35.8-2.3,53.7-3c15.7-0.6,31.3-1.9,46.9-3.4c9.7-0.9,19.5-1.6,29.2-2.1
	c11-0.6,22.1-1,33.1-1.2c12.8-0.3,25.6-0.7,38.3-2c12.4-1.3,24.7-3.4,36.8-6.4c23.8-5.9,47.2-12.7,70.6-20
	c15.6-4.9,30.7-11.1,45.8-17.3c4.3-1.7,8.4-4,12.2-6.5c16.4-10.6,32.3-21.9,47.9-33.6c15.3-11.4,28.9-24.8,41.7-38.9
	c13.7-15,26.4-30.9,39.2-46.7c8-9.8,16.1-19.5,24-29.3c9.2-11.5,21.4-18,35.6-21.1c12.4-2.8,24.8-2.2,37.1,0.5
	c16.9,3.8,33.3,9.2,48.8,17c7.3,3.7,14.3,7.8,20.6,13c10.1,8.4,17.5,18.6,21.9,31c0.5,1.4,0.9,2.7,1.5,4c1.9,4.6,5,8.2,9.2,10.8
	c1.5,0.9,3.1,1.7,4.6,2.6c17.9,9.3,35.8,18.5,53.7,27.8c2.1,1.1,4.3,2.2,6.2,3.6c4.9,3.3,6.7,8.1,5.5,13.8c-0.6,2.6-1.5,5.3-2.7,7.6
	c-1.9,3.7-4.1,7.3-6.4,10.7c-7.3,10.6-17.4,17.2-29.7,20.8c-3.4,1-6.8,1.6-10.3,2.2c-3.9,0.7-7.8,1.5-11.7,2.7
	c-3.5,1-7.1,1.8-10.8,2.3c-5.3,0.7-10.5,0-15.6-1.7c-7.7-2.6-15.5-5-23.6-6.5c-7.7-1.5-15.5-2.5-23.4-2.1
	c-9.1,0.5-17.8-1.2-26.2-4.7c-2.4-1-4.7-2.1-7-3.1c-5.3-2.1-8-1.4-11,3.3c-9.8,15.6-19.9,30.9-28.8,47.1c-3.1,5.7-6.1,11.6-8.5,17.7
	c-4.6,11.4-8.9,22.9-13.1,34.5c-4.9,13.6-7.6,27.7-10,41.9c-2.9,16.9-5.7,33.7-8.5,50.6c-2,11.5-5.4,22.7-9.1,33.8
	c-6.8,20.3-14.3,40.4-23.3,59.9c-5.6,12.2-10.6,24.7-15.3,37.3c-6,15.9-10.3,32.3-12.7,49.1c-2.3,15.7-5,31.3-8.1,46.8
	c-2.4,11.9-3.9,24-3.7,36.2c0.1,4.3-0.6,8.6-1.2,12.9c-2.1,14.7-2,29.4-1.2,44.1c0.7,12.5,1.4,24.9,2.6,37.3
	c1,10.3,2.6,20.6,4.1,30.9c1,7,2.2,13.9,3.4,20.8c0.1,0.8,0.2,1.6,0.4,2.4c0.7,2.9,2.5,4.8,5.4,5.5c1.7,0.4,3.5,0.7,5.2,1
	c15,2.9,27.6,10,37.2,21.9c4.4,5.4,7.6,11.5,9,18.4c0.2,1.1,0.4,2.2,0.4,3.3c0,3-1.4,4.8-4.4,5.3c-2.7,0.4-5.4,0.7-8.1,0.8
	c-4.8,0.3-9.6,0.4-14.4,0.6c-1.8,0.1-3.5,0.2-5.3,0.4c-1.6,0.2-2.6,1.3-2.8,2.8c-0.2,1.6-0.2,3.2-0.3,4.8c0,1.6,0.1,3.2,0,4.8
	c-0.2,2.3-1.3,3.5-3.6,3.8c-1.1,0.2-2.2,0.1-3.4,0.1c-19.2,0-38.4-0.1-57.6-0.1c-5.8,0-11-1.7-15.7-5c-4.4-3.1-8-6.9-10.7-11.5
	c-1.8-3.1-3-6.3-3.5-9.9c-1.9-14.8-3.8-29.5-5.8-44.2c-0.3-2.2-0.9-4.4-1.6-6.5c-1-3.1-3.2-5.2-6.3-6.1c-8.8-2.6-12.4-9.1-13-17.6
	c-0.3-5.2-0.2-10.6,0.4-15.8c1.6-13.1,1.7-26.1,0.9-39.3c-1-16.6-1.8-33.2-2.4-49.9c-1.1-28-1.9-56-2.9-83.9
	c-0.5-12.5-1.3-24.9-1.8-37.4c-0.2-4.4-1.6-7.2-7.2-6.1c-5,0.9-10.1,1.7-15.1,2.6c-0.8,0.1-1.6,0.3-2.4,0.3
	c-13.3,0.7-26.5,0.7-39.8-1.1c-14-1.9-27.4-6-40.4-11.7c-12.7-5.6-25.8-10.5-38.5-16.1c-24.3-10.7-48.4-21.7-72.7-32.6
	c-9.5-4.3-18.9-8.6-28.4-12.8c-5.3-2.3-10.7-4.3-16.4-5.3c-5.6-1-11.2-0.7-16.7,0.5c-22.5,5.2-41,16.8-55.2,34.9
	c-9,11.4-16.1,23.8-20.7,37.7c-1.7,5.1-3.7,10.2-5.8,15.2c-4.9,12.1-11.6,23.1-19,33.8c-6.7,9.6-14.2,18.5-23.3,26
	c-8,6.6-16,13.3-24,19.9c-1.5,1.2-3.3,1.9-4.9,2.9c-1.2,0.7-2.6,1.3-3.7,2.2c-14.3,10.8-28.6,21.6-42.7,32.6
	c-10.8,8.4-20,18.5-27.6,29.8c-8.7,12.8-14.3,26.8-16.2,42.1c-0.5,4-0.8,8-1,12c-0.7,13.1-1.3,26.2-1.9,39.3
	c-0.2,4.8,1.5,8.8,5.4,11.7c1.9,1.5,3.9,2.8,5.9,4.2c7.3,4.9,13.1,11.2,18.2,18.3c3.3,4.6,5.3,9.8,6.4,15.4c1.5,7.9-1.1,11.6-9,12.6
	c-5.7,0.8-11.5,1.2-17.2,1.7c-4,0.4-8,0.7-11.9,1c-2.7,0.3-3.5,1.2-3.7,4c0,0.3,0,0.6,0,1c-0.3,5.1-1.9,7.3-6.9,8.3
	c-17.8,3.4-35.6,4-53.2-1c-3.7-1-7.3-2.4-10.6-4.4c-8.4-5.2-12.8-12.7-13-22.6c0-1.1,0-2.2,0-3.4c0-38.6,0-77.1,0.1-115.7
	c0-4.5-0.5-8.9-1.8-13.3c-0.6-2-1.2-4-1.6-6c-1.1-5.1-1-10.2,1-15.1c2.6-6.3,5.7-12.2,10.9-16.7c4.3-3.8,8.5-7.7,12.9-11.5
	c5.9-5,11.3-10.5,16-16.6c12-15.5,22.9-31.6,32.1-48.8c4.2-7.8,7.8-15.8,10.6-24.1c4.9-14.5,9.7-29.1,14.4-43.7
	c1.2-3.6,1.7-7.5,2.5-11.2c0.5-2.5-0.1-4.7-1.4-6.9c-6.7-12.2-12.8-24.7-18.4-37.4c-9.9-22.6-17.8-45.9-23.1-70
	c-1.8-8.2-3-16.3-2.4-24.7c0.7-9.2,2.5-18,6.2-26.5c6.9-16,18.8-26.7,34.9-33.1c7.7-3,15.4-3.7,23.5-2.5
	C1058.3,761.5,1066.3,763.7,1074.1,767.8z M1061.9,778.6c-0.6-0.5-0.9-0.9-1.3-1c-5.6-1.7-11.2-2.6-17-2c-8.7,0.8-16.4,4-23.3,9.2
	c-2,1.5-3.5,3.2-4.8,5.3c-4.3,6.9-7.1,14.3-8.9,22.2c-0.5,2.2-0.6,4.4-0.6,6.7c0.2,14.7,3.4,28.8,8.9,42.5c0.2,0.5,0.2,1.3,1.5,1
	c0.2-1.1,0.4-2.3,0.5-3.6c0.5-7.8,2-15.5,4.1-23.1c4.4-16.2,12.3-30.5,24.8-42c4.4-4,8.7-8,13-12.1
	C1059.9,780.6,1060.9,779.6,1061.9,778.6z M991.9,1156c-3,1.3-4.8,3-5.8,5.4c-0.8,1.9-1.5,3.9-2.2,5.8c-4.1,11.7-6.9,23.6-7,36.1
	c-0.2,16.1-0.1,32.3-0.2,48.4c0,3.4,0.8,6.6,2,9.8c0.2,0.6,0.5,1.2,0.9,1.7c0.8,0.9,1.9,1.5,3,1.1c0.7-0.3,1.3-1.3,1.7-2.1
	c0.3-0.7,0.2-1.6,0.3-2.4c1.2-16.7,2.4-33.5,3.7-50.2c1.1-14.5,2.5-29,3.7-43.4C992.1,1163,992.6,1159.9,991.9,1156z"/>
</svg>
