<?xml version="1.0" encoding="utf-8"?>
<!-- Generator: Adobe Illustrator 22.0.0, SVG Export Plug-In . SVG Version: 6.00 Build 0)  -->
<svg version="1.1" id="Layer_1" xmlns="http://www.w3.org/2000/svg" xmlns:xlink="http://www.w3.org/1999/xlink" x="0px" y="0px"
	 viewBox="0 0 2880 1800" enable-background="new 0 0 2880 1800" xml:space="preserve">
<path d="M1641.1,1045.2c-0.9,0.1-2,0.3-3.1,0.5c-2.6,0.5-3.2,1.1-3.5,3.7c-0.4,3.7-0.7,7.3-1,11c-1.8,28.1-2.7,56.3-1.9,84.4
	c0.4,15.2,1.5,30.4,2.4,45.5c0.6,9.4,1.4,18.8,2.2,28.2c1.1,11.6,2.3,23.2,3.5,34.9c0.4,4.5,1,8.9,1.4,13.4
	c0.4,4.7,1.5,9.1,3.6,13.3c7.1,14.5,14.1,29.1,21.1,43.6c1.6,3.2,3.6,6,6.5,8.2c6,4.8,12,9.6,17.9,14.4c2,1.6,4,3.2,5.8,5
	c2.8,2.9,2.5,6.4-0.9,8.5c-6.6,3.9-13.3,7.7-20,11.4c-2.4,1.3-5.1,1.9-7.9,1.8c-10.5-0.5-21.1-1.1-31.6-1.8c-2.9-0.2-5.6-1.3-8-2.9
	c-7.9-5.2-15.7-10.5-23.5-15.8c-3.9-2.6-6.2-6.3-7.2-10.9c-1.7-8.9-3.7-17.8-5.4-26.8c-1-5.4-2.7-10.5-5.1-15.4
	c-1.7-3.4-3.3-6.9-5-10.4c-1.6-3.2-2.5-6.6-2.7-10.1c-0.2-3.4-0.4-6.7-0.6-10.1c-0.6-14.4-2-28.7-3.8-43
	c-1.8-13.6-3.4-27.3-5.3-40.9c-1.2-8.2-2.8-16.4-4.1-24.6c-1.8-10.9-3.6-21.8-5.3-32.7c-1.4-8.9-3.5-17.5-5.6-26.3
	c-4-17-7.8-34-11.7-51c-0.2-0.8-0.4-1.5-0.6-2.3c-0.5-3.2-2.3-5.5-4.9-7.4c-2-1.4-3.9-2.8-5.8-4.2c-24.4-17.1-26.7-20-64.3-35.9
	c-11.7-4.9-23.7-8.6-35.8-12.5c-31.7-10.1-63.7-19-95.8-27.9c-12.5-3.5-24.9-7.3-37.3-10.9c-1.4-0.4-2.7-0.7-4.2-1.1
	c-0.4,0.8-0.8,1.3-0.9,1.9c-1,3.5-2,7.1-2.8,10.7c-2.3,10.3-5.8,20.3-10.1,29.9c-3.2,7.2-6.3,14.3-9.6,21.4
	c-5.7,12.3-13.2,23.4-22.1,33.5c-10.6,12-21.4,23.8-32.2,35.6c-8.2,9-16.5,17.8-24.9,26.7c-2.5,2.7-5.2,5.2-8,7.6
	c-4.3,3.7-7.8,8-10.8,12.8c-3.5,5.8-6.5,11.8-8.6,18.2c-1.8,5.6-3.7,11.2-5.6,16.8c-4.2,12.9-6.1,26.1-6.3,39.6
	c-0.3,21.5,3.5,42.3,11.8,62.2c1.9,4.6,4.6,8.2,9,10.7c7.4,4.2,14.5,8.7,21.8,13.1c1,0.6,2,1.1,2.9,1.7c3.2,2.2,3.9,4.8,2.1,8.3
	c-0.6,1.3-1.5,2.5-2.5,3.5c-5.8,5.4-12.5,8.1-20.6,6.9c-11.7-1.8-23.2-4.5-34.6-8c-4.7-1.4-9.4-3-14.2-4.4c-4.5-1.4-7.3-4.3-8.8-8.7
	c-3.4-10.2-6-20.6-7.8-31.1c-4.5-25.3-8.9-50.7-13.6-76c-2.1-11.5-4.5-22.9-7-34.3c-1.4-6.6-0.6-12.5,3.2-18.3
	c7.9-11.8,15.5-23.9,23.3-35.8c4.4-6.7,9.2-13.1,14.6-19.1c1.3-1.4,2.4-3,3.6-4.5c3.6-4.7,5.7-9.9,6.4-15.8
	c1.1-9.4,2.2-18.7,3.5-28.1c1.1-8,1.1-16,0.4-24c-0.6-7.8-1.7-15.6-2.5-23.4c-0.1-1.4-0.4-2.6-2.2-2.6c-0.3,0.2-0.6,0.3-0.8,0.5
	c-12.7,19.9-27.5,38.1-43.6,55.4c-7.7,8.3-15.7,16.4-23.7,24.5c-15.1,15.2-29.9,30.7-43.4,47.4c-15.9,19.6-29,40.9-38.4,64.4
	c-8.1,20.3-11.9,41.4-11.5,63.3c0.3,15.3,2.1,30.3,6.9,44.9c3.5,10.9,8.2,21.2,15.1,30.4c2.5,3.3,4.7,6.8,7.2,10.2
	c2.4,3.2,2.4,6.5,0.6,9.9c-1.7,3.3-4.2,6-7.4,8c-1.8,1.2-3.7,1.8-5.9,1.7c-12.3-0.5-24.6-1.3-36.6-4.3c-8.4-2.1-16.7-4.6-25-6.9
	c-0.8-0.2-1.5-0.5-2.3-0.8c-3-1.1-4.7-3.4-4.9-6.5c-0.2-2.4,0-4.8,0.2-7.2c0.1-2.1,0.5-4.1,0.5-6.2c-0.1-19.7,0.3-39.4-0.9-59
	c-0.3-4.6-0.7-9.3-1-13.9c-2-30.2-2.3-60.4-2.9-90.7c-0.1-6.2,1.6-11.6,5.4-16.5c5.6-7,11.1-14.1,16.7-21
	c8.2-10.1,16.1-20.3,22.5-31.6c0.3-0.6,0.6-1.1,1.1-1.6c4.7-5.7,7.1-12.4,8.9-19.5c2.8-11,5.8-22,8.5-33c3.3-13.2,8-25.9,14.3-38.1
	c6.3-12,12.2-24.3,18-36.6c4.5-9.4,8.1-19.1,10.5-29.3c1.4-6.3,2.1-12.6,2.5-19c0.6-10.2,0.2-20.5,0-30.7c-0.3-13,0.6-25.9,3.9-38.5
	c2.1-8.2,5-16.2,7.9-24.2c1-2.8,2.6-5.5,4.2-8.1c7.1-11.8,15-23.1,23-34.3c1.9-2.7,3.9-5.5,5.7-8.3c2.3-3.6,3.6-7.4,3.7-11.7
	c0.2-12.1,6.3-21.2,15.4-28.5c2.1-1.7,4.5-3,6.8-4.5c2.3-1.5,4.6-2.9,6.7-4.6c2-1.6,4.1-2.5,6.5-2.6c7.3-0.4,14.7-1.1,22-1
	c5.8,0.1,10.5-1.5,15-5.1c14.4-11.6,30.7-19.6,48.9-23.4c8.4-1.8,17-3,25.5-4.2c11.7-1.7,23.5-2.7,35.3-3.5c3.2-0.2,6.4-0.4,9.6-0.4
	c12.2,0.1,24.3,0.3,36.5,0.5c6.4,0.1,12.8,0.3,19.2,0.3c32.2,0,64.3,0,96.5,0c9.8,0,19.5-0.7,29.2-1.6c6.4-0.6,12.8-0.8,19.1-1.4
	c3.3-0.3,6.7-0.5,9.9-1.5c12-3.5,23.9-7.1,35.8-10.9c18.6-6,37.1-12.1,55.6-18.3c11.7-3.9,22.9-9.1,33.6-15.2
	c9.2-5.3,17.7-11.5,25.4-18.8c0.7-0.7,1.4-1.3,2.1-2c16.1-13.9,27.4-31.5,38-49.7c1.5-2.6,1.7-5,0.1-7.6c-2.6-4.4-5.1-8.9-7.6-13.3
	c-0.7-1.3-1.5-2.5-2-3.8c-1.5-3.6-1.1-6.9,1.7-9.7c0.9-0.9,1.9-1.8,2.8-2.6c9.5-8.5,19.2-17,28.6-25.6c4.1-3.8,8.1-7.7,12-11.8
	c5.9-6.3,11.9-12.6,18.6-18.1c2.6-2.1,5.3-4.1,8-6.2c6.6-5,13.8-8.4,22.1-9.9c9.9-1.9,19.8-3.4,30-3.4c7.8,0,15.7-0.5,23.5-1
	c6-0.4,11.8,0,17.3,2.8c1.4,0.7,3.1,0.7,4.6,0.9c3.2,0.4,6.4,0.6,9.5,1.3c5.4,1.1,10.5,3,14.9,6.4c4.8,3.7,9.7,7.4,14.2,11.4
	c7.5,6.8,14.7,13.8,22,20.8c2.2,2.1,4.5,4.1,6.5,6.4c3.4,3.9,7.7,5.4,12.8,5.5c8.2,0.3,16.3,0.7,24.4,1.1c0.8,0,1.6,0,2.4,0.1
	c5,0.4,7.5,2.4,9,7.2c0.5,1.7,0.9,3.4,1.4,5.1c1.6,5.2,3,10.5,4.8,15.6c5.2,14.8,7.7,30,6.8,45.7c-0.2,3.5-0.8,7-1.7,10.4
	c-1.6,6.6-5.2,12-10.7,16.1c-6.5,4.8-12,10.4-17,16.8c-6,7.7-13.7,12.9-23.1,15.6c-2.2,0.6-4.3,1.3-6.4,2c-4.3,1.4-8.2,3.5-11.9,6
	c-5.9,4.1-11.8,8.3-17.9,12.1c-6.2,3.9-12.6,7.5-19.2,10.9c-3.2,1.6-4.8,3.8-5.5,7.2c-2.4,11.4-4.7,22.9-7.6,34.2
	c-4.6,18.1-12,35.1-21.4,51.2c-5.8,9.9-11.4,20-17.1,30c-2.4,4.3-4.3,8.9-5.7,13.7c-0.5,1.7-1,3.4-1.7,5c-3.6,7.5-4.7,15.6-4.9,23.8
	c-0.2,7.5-0.5,15.1-0.1,22.5c1.6,26.3-3.7,51.3-14.3,75.2c-9.8,22.2-16.8,45.2-24.1,68.2c-2.8,8.7-4.3,17.7-5.7,26.7
	c-2.8,18.5-5.4,37-7.9,55.6c-1.8,13-3.6,26-5.3,39c-0.9,7.1-1.6,14.3-2.2,21.5c-1.2,14.7-2.4,29.3-3.5,44
	c-0.8,10.1-0.8,20.2-0.1,30.2c0.8,12,2.1,23.9,3.3,35.8c2.1,19.5,7.4,38.3,14.9,56.4c3.3,7.8,7.2,15.3,10.7,23.1
	c1.9,4.2,5.1,6.3,9.5,7.3c3.6,0.8,7.1,1.7,10.7,2.6c13.1,3.3,24,10.3,33.2,20.1c1.9,2,3.6,4.1,5.4,6.1c1.1,1.3,1.5,2.8,1.4,4.5
	c-0.1,1.9-0.9,3.4-2.8,4c-4.1,1.3-8.2,2.6-12.4,3.8c-2.8,0.8-5.7,0.5-8.6-0.1c-11.6-2.4-23.3-3.8-35.1-5.2
	c-10.2-1.2-20.3-2.6-30.4-3.9c-5.5-0.7-9.5-3.3-12-8.4c-6.5-13.2-13.2-26.3-19.9-39.4c-1.5-3-3-6-4.7-8.9c-2.9-5-6.6-9.5-11.4-12.8
	c-4.8-3.3-6.4-7.7-5.4-13.3c0.5-2.7,0.7-5.4,1-8.1c0.5-4-0.3-8-1.1-11.9c-1.2-5.8-2.7-11.5-3.7-17.3c-3.3-19.1-5.9-38.2-6.5-57.6
	c-0.4-13.8-1.7-27.5-3.3-41.1c-0.7-5.7-1.2-11.5-1.8-17.2c-0.9-8.6-2.6-17.1-4.3-25.5c-2.8-13.5-5.7-26.9-8.5-40.4
	C1643.8,1048.1,1643.3,1046.2,1641.1,1045.2z"/>
</svg>
