<?xml version="1.0" encoding="utf-8"?>
<!-- Generator: Adobe Illustrator 22.0.0, SVG Export Plug-In . SVG Version: 6.00 Build 0)  -->
<svg version="1.1" id="Layer_1" xmlns="http://www.w3.org/2000/svg" xmlns:xlink="http://www.w3.org/1999/xlink" x="0px" y="0px"
	 viewBox="0 0 2880 1800" enable-background="new 0 0 2880 1800" xml:space="preserve">
<path d="M1170.1,1121.1c-0.7,1.2-1.5,2.2-2,3.3c-10.1,22.3-25.5,40.1-44.9,54.6c-21.3,16-40.3,34.5-57,55.4
	c-11.4,14.3-21.8,29.2-30.2,45.5c-9.7,18.6-16.4,38.2-19.5,58.9c-1.4,9.5-2.4,19-1.5,28.7c1.1,11.3,4.7,21.5,11.4,30.6
	c2.3,3.1,4.4,6.3,5.4,10.1c0.6,2.3,1.2,4.7,1.1,7c-0.2,5.2-2.7,9.2-7.4,11.5c-2.6,1.3-5.3,2.3-8.1,3c-6.8,1.8-13.6,3.3-20.6,4.2
	c-1,1.5-0.7,3.1-0.9,4.7c-0.3,2.7-0.6,5.4-1,8.1c-0.2,1.6-0.4,1.7-3.1,1.8c-0.7-1.2,0.3-2.1,0.5-3.1c0.3-2.4,0.9-4.7,1-7.1
	c0.2-2.7-1.3-4.6-3.8-5.5c-1.5-0.6-3.1-0.9-4.6-1.3c-3.7-1.2-7.3-2.2-10.9-3.6c-2.9-1.1-5.4-2.8-7.6-5c-4.4-4.3-6.2-9.6-5.5-15.7
	c0.4-4.2,1.9-8.1,3.6-11.9c3.9-8.8,7.4-17.7,9.8-27c2.1-8.2,3.6-16.6,3.4-25.1c-0.1-3.7-0.4-7.4-1-11c-1.2-6.4-0.9-12.8,0.5-19.1
	c3.3-14.9,5.1-29.9,7-45c0.6-4.8,1-9.6,1.2-14.3c0.5-11.5,4.7-21.1,13.7-28.5c3.1-2.5,6.1-5.2,9.5-7.3c20-12.7,34.8-30,45-51.2
	c7.4-15.2,12.2-31.2,15.4-47.8c3.2-16.6,4.3-33.3,3.7-50.1c-0.4-11.4-1.6-22.6-3.2-33.9c-2.4-17.1-4.9-34.2-7-51.3
	c-1.8-15.4-2.6-30.9-2.1-46.5c0.5-14.1,2-28.1,5.6-41.8c2.7-10.3,6.6-20,11.7-29.3c0.6-1.1,1.2-2.2,1.9-3.5
	c-0.9-0.8-1.6-1.6-2.5-2.2c-16-12.4-27.9-28-36.2-46.5c-7.4-16.4-13.2-33.3-16.5-51c-3.4-18.1-4-36.2-1.8-54.4
	c1.8-15.4,5.9-30.1,13-43.9c1.8-3.4,3.4-6.9,5.2-10.3c6.1-11.8,12.3-23.5,18.4-35.3c1.9-3.7,4.4-7,7.1-10.2c2.1-2.4,4.6-3.9,7.9-4.2
	c0.7,2.4,0.3,4.7-0.6,7c-0.6,1.5-1.4,2.9-2.2,4.3c-8.1,14.7-15.3,29.9-22.1,45.3c-5.3,12.1-8.9,24.7-10.8,37.7
	c-3.7,25.1,0,49.1,11.9,71.7c9.2,17.5,21.7,32.4,36.8,45.1c5.1,4.3,10.5,8.3,15.7,12.7c3.4,2.9,6.7,2.7,10,0.4
	c21.9-14.7,46.2-23.2,72-27.7c25.1-4.4,50.5-6.1,76-5.3c32.2,0.9,64.1,5.2,95.4,12.7c15.9,3.8,31.6,8.2,47.3,12.4
	c12.2,3.2,24.5,6.1,37,7.9c13.8,2,27.7,2,41.7,0.9c5.7-0.5,11.4-1.2,17.5-1.8c-0.2-0.9-0.3-1.6-0.6-2.2c-0.7-1.2-1.6-2.4-2.4-3.6
	c-20.3-29.4-33.5-61.7-40-96.8c-4.8-26.3-5.7-52.7-4.1-79.3c0.1-0.9,0-1.9,0-2.7c-0.9-1.5-2.3-1.2-3.5-1.4
	c-11.1-1.3-22.1-3.3-32.9-6.6c-12.6-3.9-24.5-9.3-35.6-16.5c-3.4-2.2-6.5-4.7-9.6-7.2c-1.3-1.1-2.5-2.5-3.5-3.9
	c-1.8-2.6-1.6-5.2,0.7-7.3c1.6-1.5,3.6-2.6,5.4-3.9c2.1-1.5,4.3-2.8,6.2-4.5c5.3-4.8,6.6-10.7,4.1-17.4c-0.5-1.3-1.1-2.7-1.8-3.9
	c-4.9-8.7-10.7-16.6-18.3-23.3c-11.1-9.6-18.5-21.6-21.7-35.9c-2-8.6-2.5-17.4-1.9-26.2c0.5-6.9,1.5-13.7,2.8-20.4
	c2-10.5,2.1-21,1-31.5c-1.1-11-2.6-21.9-3.8-32.9c-1.2-11.6-1.6-23.3,0.5-34.9c0.4-2,0.9-4.1,1.6-6c2.3-6.6,7.1-10,14.1-10.4
	c5.3-0.3,10.5,0.5,15.7,1.4c11.1,2,21.6,5.7,31.8,10.5c20.5,9.7,39,22.6,56,37.6c20.8,18.4,39.3,38.9,56.5,60.7
	c11.5,14.6,22.1,29.8,32.2,45.4c1,1.5,1.9,2.9,3,4.4c1.3,1.8,3.2,2.7,5.4,2.5c1.6-0.2,3.2-0.4,4.7-0.8c13.3-3,26.6-5.5,40.2-6.8
	c34.1-3.5,67.7-1.4,100.6,9.1c5,1.6,5.6,1.4,8.8-3.1c12.2-16.8,24.3-33.7,36.7-50.4c12.5-16.9,25.8-33,40.8-47.7
	c18.2-17.9,38.3-33.5,60.8-45.8c11.6-6.3,23.6-11.5,36.5-14.4c6.2-1.4,12.5-2.7,19-2.5c2.2,0.1,4.5,0.4,6.6,0.9
	c4.5,1.1,7.7,3.9,9.2,8.3c0.9,2.5,1.6,5.2,1.7,7.9c0.7,11.3,1.4,22.7,0.2,34c-0.7,6.4-1.5,12.7-2.4,19c-1.3,9.7-1.8,19.4-1.2,29.2
	c0.6,10.1,1.6,20.1,3.2,30c1.7,10.5,1.7,21-0.7,31.5c-2.8,12.7-8.9,23.5-17.9,32.9c-2.8,2.9-5.6,5.7-8.3,8.6
	c-4.6,4.9-9,10-12.5,15.7c-1.5,2.4-2.9,5-3.9,7.7c-2.2,6.1-1.1,11.7,3.7,16.3c2.1,2,4.5,3.5,6.8,5.2c1.5,1.1,3.3,2,4.7,3.3
	c3.1,2.7,3.4,5.7,0.8,8.8c-1.4,1.7-3.1,3.2-4.9,4.6c-9.7,7.8-20.4,13.7-32,18.2c-14.7,5.7-29.9,9.2-45.6,10.6
	c-1.9,0.2-3.8,0.5-5.9,0.8c-0.1,1.3-0.4,2.3-0.4,3.4c0.1,7.4,0.3,14.7,0.4,22.1c0.8,39.2-6.1,77-21.5,113.2
	c-10.9,25.6-26.2,48.3-45.9,68c-11.6,11.6-24.7,21.4-39.6,28.4c-3.6,1.7-5.2,4.2-5.8,8c-2.7,17.1-5.6,34.1-8.2,51.1
	c-2.2,14.4-3.9,28.8-4.4,43.4c-0.4,13.4-1.2,26.9-2.8,40.2c-1.8,14.4-4.1,28.8-7.1,43.1c-2.5,12-5.3,24-7.6,36.1
	c-2.1,11-3.4,22.1-4.4,33.3c-2.3,24.1-2.9,48.2-3.9,72.3c-0.7,16-1.6,32-2.4,47.9c-0.5,9.4-1,18.8-1.4,28.3
	c-0.5,12.8,1.4,25.2,5.8,37.2c2.3,6.3,5.4,12.3,9.1,17.9c2.1,3.2,4.5,6.2,7.5,8.7c6.1,5.1,13.1,7.2,20.9,6.4
	c5.2-0.6,10.5-1.2,15.7-1.6c2.5-0.2,5.1-0.1,7.7,0.2c6.1,0.7,9.7,3.9,10.6,10c1.4,10.2-2.1,22.9-15.5,27.7c-5.5,2-11.1,2.9-16.8,3.6
	c-15.2,1.9-30.3,1.2-45.5-0.5c-1.1-0.1-2.2-0.2-3.3-0.3c-6.8-0.7-12.1-3.9-16.1-9.3c-2.1-2.8-3.7-6-4.7-9.4c-1.1-3.5-2-7.1-2.9-10.6
	c-2.9-10.8-5.6-21.7-8.7-32.4c-1.5-5.2-3.5-10.3-5.7-15.2c-5.6-12.3-9.6-25.1-11.2-38.5c-0.9-7.6-1.5-15.3-0.9-23
	c1.3-18.2,1.8-36.4,1.7-54.7c-0.1-23.2-0.1-46.4-0.3-69.6c-0.1-11.4-0.5-22.7-0.8-34.1c0-1.2-0.2-2.5-0.4-4c-0.9,0.2-1.5,0.3-2,0.5
	c-14.2,6.3-28.3,12.6-42.5,18.9c-1,0.5-2.1,0.8-3.1,1.2c-3.9,1.6-6.6,4.3-8.1,8.3c-6.3,16-10.9,32.4-13.2,49.5
	c-1.1,8.3-1.7,16.5-1.7,24.9c0.1,37.8,0.1,75.5,0.3,113.3c0,6.4,0.2,12.8-0.4,19.2c-1.3,15.1,1.2,29.6,6.2,43.9
	c3.6,10.3,8,20.2,13.1,29.8c1.7,3.1,3.6,6.1,5.6,8.9c2.4,3.4,5.7,5.2,9.9,4.7c3.6-0.4,7.3-1,10.9-1.6c4.7-0.9,9.4-2,14.1-2.8
	c3-0.5,6.1-0.6,9.1-0.4c6.7,0.5,10.8,4.3,12.2,10.9c2.6,12.5-3,23.5-14.8,28.5c-5.2,2.2-10.6,3.5-16.2,4.4
	c-7.4,1.2-14.9,1.9-22.4,1.9c-7.7,0-15.4,0.5-23-0.8c-4.9-0.9-9.7-1.9-14.5-3.2c-3.7-1-6.6-3.3-8.4-6.7c-1.1-1.9-2-4-2.8-6.1
	c-7.9-20.6-15.8-41.2-23.8-61.8c-4-10.5-6.5-21.4-7.9-32.5c-1.2-9.4-1.7-18.8-2.1-28.2c-0.7-16.1-1.6-32.3-2.4-48.4
	c-0.4-7-0.7-14.1-1.1-21.1c-1.1-21.7-2.2-43.5-3.3-65.2c-0.9-17.1-1.6-34.2-2.9-51.3c-0.8-10.4-2.4-20.6-3.7-30.9
	c-0.4-3-1.8-5.3-4.6-6.9c-30.8-18.2-62.5-34.3-96.6-45.4c-6.2-2-12.6-3.7-18.9-5.6c-1.5-0.4-3.1-1-4.9-0.2c-1.2,2.4-1.1,5.1-1.5,7.7
	c-3.6,24.8-7.8,49.6-12.6,74.2c-4.2,21.6-12.9,41.1-26.3,58.5c-9.3,12.1-17.7,24.7-26,37.5c-5.9,9.1-10,18.9-12.1,29.6
	c-2.5,12.8-1.8,25.5,1.5,38c2.5,9.8,6.2,19.2,10.5,28.3c7.4,15.8,19.9,24.6,37.2,26.5c8.3,0.9,16.4,2.6,24.4,4.9
	c9.2,2.6,16.2,8.1,20.6,16.7c1.8,3.6,2.9,7.5,2.4,11.6c-0.6,4.8-3,8.7-6.6,11.9c-7.1,6.1-15.4,9.5-24.8,10.4
	c-15.2,1.4-30-0.3-44.5-4.9c-2.9-0.9-5.7-2.2-8.3-3.7c-4.5-2.5-7.8-6.1-9.7-10.9c-5.4-13.5-13-25.7-22-37
	c-11.2-14.2-22.6-28.2-34-42.3c-1.5-1.9-3-3.7-4.6-5.6c-0.6-0.7-1.2-1.5-1.8-2.3c-6.6-8.8-7.5-18.2-2.4-27.9c2.4-4.5,5.2-8.8,8.1-13
	c3.2-4.6,6.3-9.2,8.8-14.3c9.8-19.8,10.5-39.9,2.3-60.3c-3-7.5-7.1-14.3-11.8-20.8c-8.1-11-17.6-20.7-28.1-29.5
	C1171.9,1122.3,1171.1,1121.8,1170.1,1121.1z"/>
</svg>
