<?xml version="1.0" encoding="utf-8"?>
<!-- Generator: Adobe Illustrator 22.0.0, SVG Export Plug-In . SVG Version: 6.00 Build 0)  -->
<svg version="1.1" id="Layer_1" xmlns="http://www.w3.org/2000/svg" xmlns:xlink="http://www.w3.org/1999/xlink" x="0px" y="0px"
	 viewBox="0 0 2880 1800" enable-background="new 0 0 2880 1800" xml:space="preserve">
<path d="M1574.9,1241.6c1.1-1.4,2-2.6,3.1-4.1c-3.7-1.9-7.7-2-11.5-3.7c0.9-0.7,1.5-1.3,2.3-1.7c1.8-1,3.7-1.8,5.5-2.9
	c1-0.5,1.8-1.3,2.6-2.1c0.8-0.8,0.8-2.2-0.1-3c-1-1-2.2-1.8-3.4-2.6c-2.6-1.7-5.4-3.3-8.1-5.3c1.6-1.9,4.1-1.6,5.5-3
	c0.3-1.2-0.6-1.5-1.3-1.8c-2.6-1.6-5.3-3-7.9-4.6c-0.8-0.5-1.4-1.1-2.4-1.8c2.5-1.8,5.2-1.2,7.9-2.2c-0.5-0.8-0.7-1.5-1.2-2.1
	c-2.7-3-5.4-5.9-8-8.9c-0.7-0.8-1.3-1.7-2.2-2.9c2.8-1,5.4-1.9,8.2-2.9c-0.9-2.1-2.7-2.9-3.9-4.2c-1.3-1.3-3-2.3-4-4.2
	c1.6-0.9,3.1-1.8,4.9-2.9c-0.6-0.6-1-1.3-1.6-1.6c-1.7-1.1-3.5-2.1-5.6-3.3c1.3-1.6,2.4-2.9,3.6-4.3c-3.2-3-7.1-4.7-10.1-7.6
	c2.3-1.9,5.4-1.8,7.5-3.9c-3.6-3.4-7.9-5.6-11.5-8.9c2.1-2.1,5.1-2.1,7.3-4.1c-1.6-2.8-4.7-4.3-6.6-7.2c1.3-1,2.5-1.9,3.9-3
	c-0.5-2.1-1.8-3.7-2.7-5.5c-0.9-1.8-2.4-3.4-1.6-5.7c-8.7-5.3-17.6-9.5-27.6-11c-2.4-0.4-4.8-0.5-7.2-0.5
	c-13.6-0.5-27.1-1.9-40.5-4.7c-7.4-1.5-14.6-3.7-21.2-7.3c-23.3-12.6-47.8-22.2-73-30.3c-19-6.1-38-12.5-56.9-18.9
	c-15.3-5.3-30.1-11.6-44.7-18.7c-6.5-3.2-13.1-5.9-20.1-7.7c-8.8-2.3-17.7-2.6-26.6-1c-6.3,1.1-12.6,2.4-18.7,4.3
	c-10.6,3.4-19.5,9.2-26.9,17.7c-29.2,33.5-60,65.7-90.6,97.9c-4.1,4.3-8,8.8-11.7,13.4c-4.7,5.9-8.4,12.5-11.2,19.5
	c-4.1,10.1-8.3,20.1-12.6,30.1c-2.9,6.8-4.1,13.8-3.2,21.1c0.4,3.5,1.2,6.9,2.1,10.3c2.8,10.7,5.7,21.3,8.6,32
	c1.3,4.8,3.1,6.3,8.2,6.5c6.3,0.2,12.4,1.1,18.4,3c6,2,11.5,4.9,16.5,8.7c1.5,1.2,3,2.5,4.1,4c2.6,3.4,2.2,6.9-0.9,9.8
	c-0.9,0.9-2,1.6-3.1,2.3c-4.1,2.8-8.3,5.4-12.2,8.4c-2.9,2.2-5.9,3.5-9.6,3.6c-13.3,0.3-26.5,0.9-39.8,1.3c-1.8,0.1-3.5,0.1-5.3,0.2
	c-2.3,0.1-3.9,1.4-4.7,3.5c-0.4,1-0.8,2.1-1.2,3.1c-2.8,6.4-7.7,10.1-14.6,11c-2.4,0.3-4.8,0.4-7.2,0.3c-4.6-0.2-9.3-0.7-13.9-0.9
	c-3.3-0.1-6.7-0.2-10.1,0.1c-11.7,1.2-23.4,0.5-34.9-1.8c-7.9-1.5-13.8-6.5-17.7-13.6c-0.9-1.6-1.4-3.6-1.6-5.5
	c-1.7-14-4-27.9-4.5-42c-0.1-3.2-0.3-6.4-0.2-9.6c0.2-16.5,0.8-32.9,2.2-49.4c0.7-8.3,1.2-16.6,2.2-24.8
	c1.6-13.7,6.1-26.4,13.6-38.1c3-4.7,6.1-9.4,9-14.2c2.9-4.8,4.9-10,5.8-15.6c0.1-0.9,0.1-1.8,0.1-2.7c-2.1-0.9-3.6,0.4-5.3,0.5
	c-0.4,0-1-0.2-1.2-0.5c-0.2-0.3-0.3-1-0.1-1.3c0.7-1.3,1.5-2.5,2.3-3.7c1.6-2.5,3.4-5,5.1-7.8c-2.1-1.1-4,0.5-6-0.5
	c1.8-4.3,4.8-8.1,6.8-12.5c-2.5-1.2-4.9,0.3-7.4-0.8c1.2-3.3,4.2-5.5,5.7-8.9c-1.8-0.6-3.3,0-4.8,0.3c-1.6,0.3-3.1,0.5-5.2,0.8
	c0.5-1.1,0.6-1.8,1-2.4c2.5-4.1,5.1-8.1,7.7-12.2c0.7-1.1,1.2-2.2,2-3.6c-3.3-1.4-6.8-0.9-10.2-2c0.4-0.9,0.5-1.7,1-2.1
	c2.2-1.9,4.5-3.6,6.8-5.4c0.8-0.7,1.5-1.5,2.7-2.5c-3.5-1.6-6.6-3.1-10-4.7c1-1.9,2.7-2.6,3.9-3.7c1.3-1.2,2.8-2.2,4.1-3.3
	c1.3-1.1,2.9-1.9,4-3.9c-1.6-0.1-2.8-0.3-4-0.3c-5,0-9.9,0-14.9,0c-0.9,0-2,0.1-2.5-1.5c4.9-4.5,11.1-7.5,16.3-12.2
	c-1.8-2.1-4.7-1.5-6.7-3.4c1.4-2.1,4.3-2.3,6-4.5c-4.2-1.8-8.5-2.6-12.5-3.9c-3.9-1.2-7.9-2.1-12.2-3.8c5-5.1,9.9-9.4,14.3-13.9
	c-0.1-1.7-1.3-1.6-2.1-1.9c-4.5-1.7-9-3.2-13.9-5c0.5-1,0.8-1.9,1.3-2.6c1.5-2.3,3.1-4.5,4.6-6.7c0.4-0.6,0.6-1.4,0.9-2.1
	c-2.4-1.1-5-0.1-7.5-1.6c1.3-2,2.6-4,3.9-6.1c-2.5-1.7-5.4-0.9-8.1-2.3c0.9-2.3,2.7-3.6,4.1-5.3c1.3-1.6,2.7-3.1,4.3-4.9
	c-0.8-0.5-1.4-1-2-1.3c-0.6-0.4-1.3-0.7-2.3-1.3c5.1-6.3,9.9-12.4,14.9-18.6c-4.7-3.1-9.9-4.4-14.3-7.1c-0.2-1.4,0.9-1.7,1.5-2.2
	c2.4-1.9,4.8-3.7,7.2-5.6c0.7-0.6,1.3-1.2,1.9-1.7c-0.2-1.6-1.1-1.8-2.1-1.9c-3-0.4-6-0.8-9-1.2c-0.3-0.7-0.8-1.4-0.7-1.9
	c0.1-0.7,0.7-1.4,1.2-1.9c2.4-1.8,4.9-3.5,7.4-5.3c1-0.7,2-1.5,3.3-2.6c-1.9-1.1-3.4-2.1-5.2-3.1c0.4-0.9,0.7-1.8,1.2-2.5
	c3.4-5,6.9-10,10.4-15c0.7-1,1.3-2.1,2-3.4c-2.5-1-4.7-1.9-7.2-3c0.8-0.8,1.4-1.5,2.1-2.1c2.5-1.8,5-3.5,7.5-5.2
	c0.9-0.6,1.7-1.4,2.7-2.1c-1.4-2.1-3.9-2.4-5.6-4.2c0.5-0.7,0.9-1.5,1.5-2.2c3.2-3.4,6.4-6.8,9.5-10.1c0.9-0.9,1.6-1.9,2.6-3
	c-1.4-1.3-2.6-2.4-4.2-3.9c6.3-4.5,12.4-8.8,18.8-13.2c-1.2-1.3-2.3-2.4-3.5-3.7c0.3-1.3,1.6-1.8,2.5-2.5
	c7.7-5.7,15.4-11.4,23.2-17.1c1.2-0.9,2.3-1.7,3.3-2.7c1.2-1.1,2.1-2.4,1-4.2c-0.9-1.5,0.1-2.7,1.3-3.7c4-3.4,8.1-6.8,12-10.3
	c2.8-2.6,5.5-5.4,8-8.2c2.6-2.9,4.7-6,6.3-9.4c-0.5-2.5-3.3-2.7-4.1-5c1.4-1.6,3.6-2.4,5.4-3.6c1.9-1.2,3.8-2.3,5.5-3.4
	c0.2-1.5-0.8-1.5-1.4-1.8c-4.1-1.7-8.3-3.4-12.4-5.2c-0.8-0.4-1.5-1-2.7-1.7c4.3-2.7,9.1-3.1,13.1-5.1c0.2-1.3-0.7-1.5-1.3-1.8
	c-3.4-1.8-6.9-3.5-10.2-5.2c-0.7-0.4-1.3-1.1-2.3-1.9c2.4-1.4,4.5-0.7,6.4-0.8c2.1-0.1,4.2,0,6.2,0c2,0,4,0.2,6.8-0.4
	c-1.6-0.9-2.5-1.5-3.4-2c-2.9-1.4-5.8-2.8-8.6-4.3c-2.8-1.5-5.3-3.5-7.2-6.2c-0.4-0.6-0.7-1.4-1.3-2.6c1.7,0.3,3,0.4,4.2,0.7
	c3.3,0.8,6.5,1.7,9.7,2.6c2.9,0.8,5.9,0.7,9.7,0.4c-1-0.9-1.3-1.4-1.8-1.7c-3.1-2-6.3-3.8-9.3-6c-2.9-2.1-5.2-4.7-6.9-7.9
	c-0.3-0.5-0.4-1.3-0.1-1.7c0.5-0.9,1.3-0.5,2.1-0.1c3.5,1.9,7,3.8,10.6,5.7c1.4,0.7,2.8,1.4,4.3,2.2c0.6-1.5-0.5-2.3-1-3.2
	c-0.5-1-1.2-1.9-1.7-2.9c-0.7-1.1-1.3-2.2-2-3.3c-0.6-1-1.2-1.9-1.8-2.9c-0.6-1-1.2-1.9-1.8-2.9c-0.5-0.9-1-1.9-1.7-3.1
	c2.9-0.9,4.7,1.5,7.1,1.5c0.7-0.7,0.1-1.4-0.3-2c-3.2-5.6-6.4-11.1-9.5-16.7c-0.8-1.4-1.5-2.8-2.3-4.3c2.9-1.1,4.9,0.8,7.1,1.4
	c2.1,0.5,4,1.9,6.2,2c0.7-1.1,0-1.7-0.6-2.2c-3.9-4-7.8-8.1-11.6-12.1c-0.7-0.8-1.3-1.6-2.4-3c5.9-0.5,10.5,2.9,16,2.7
	c-1.1-3-3.1-4.8-4.7-6.9c-1.6-2.2-3.3-4.3-5-6.5c-1.6-2.1-3.4-4.1-5.1-6.9c4.7-0.2,8.8,1.4,13.6,1.4c-2.7-4.5-6.7-7.3-9.3-11.2
	c1.6-1,2.8-0.2,4,0.2c6.8,2.2,13.7,4.5,20.5,6.7c1,0.3,2.1,0.5,3.8,1c-0.6-1.2-0.8-1.9-1.2-2.5c-1.7-2.5-3.4-5-5.1-7.5
	c-1.7-2.5-3-5.3-3.6-8.3c-0.2-0.7-0.1-1.5-0.1-2.7c4.2,1.1,7.6,3.2,11.2,4.8c3.6,1.6,7.2,3.4,10.9,5.1c0.7-0.8,1.2-1.4,1.8-2.1
	c-1-1.4-1.8-2.7-2.8-4c-3.7-5-7.4-10-11.1-15.1c-0.6-0.8-0.9-1.7,0.3-2.6c3.8,1.2,7.5,3,11.4,4.6c3.8,1.5,7.5,3.3,11.7,4.7
	c0.1-7-2-13.4-1.9-20.4c1,0.4,1.8,0.5,2.2,1c1,0.9,1.9,2,2.9,3.1c1.1-1.2,0.7-2.3,0.6-3.4c-0.7-7.3-1.5-14.6-2.3-21.9
	c-0.4-3.5-0.8-7-1.1-10.5c0-0.3-0.1-0.7,0-0.9c0.2-0.4,0.5-0.9,0.8-1c0.3-0.1,1,0,1.2,0.3c0.6,0.8,1,1.6,1.4,2.5
	c1.8,3.6,3.5,7.2,5.4,10.7c2.8,5.3,5.9,10.2,9.8,14.7c0.5,0.6,1.1,1.1,2,2c0.4-1,0.8-1.7,0.9-2.3c0.5-3.5,0.8-7,1.3-10.5
	c0.2-1.7,0.2-3.5,1.5-5.3c0.8,0.6,1.7,1,2.2,1.7c1.7,2.5,3.3,5.1,5,7.6c0.7,1,1.4,2.1,2,3c1.7-0.3,1.4-1.5,1.5-2.3
	c0.5-5.6,0.8-11.2,1.3-16.7c0.1-1.3-0.3-3.2,1.5-3.6c1.6-0.3,1.9,1.4,2.7,2.4c1.5,2,3,4.2,4.5,6.2c0.1,0.1,0.3,0,0.8,0
	c0.6-2.2,0-4.6,0.5-6.8c0.5-2.2,0.9-4.4,1.6-6.5c0.8-2.2,2.1-4.3,4.2-6c0.5,1.4,0.9,2.4,1.2,3.5c1.9,7.6,3.8,15.2,5.8,22.8
	c0.2,0.8,0.8,1.5,1.6,2.8c0.6-1.4,1.1-2.2,1.3-3.1c1-3.7,1.8-7.5,2.9-11.1c1.4-4.4,3.5-8.6,6.1-12.5c0.4-0.6,1-1.2,1.4-1.7
	c1.4,0.3,1.1,1.2,1.2,1.9c1,7.1,1.8,14.3,2.8,21.4c0.1,0.9,0.5,1.7,0.9,2.8c2.3-1.7,2.6-4,3.7-5.9c1-2,1.9-4.1,2.9-6.1
	c1-1.9,1.5-4.1,3.4-6c0.9,1.5,0.6,2.8,0.6,4c0,1.1,0,2.2,0,3.4c0,1.3,0,2.6,0,3.8c0,1.1,0,2.2,0,3.4c0,1.2,0.1,2.4,0.2,3.6
	c1.4,0.3,1.6-0.6,2-1.2c3.1-4.8,6.2-9.7,9.3-14.5c0.6-0.9,1.1-1.9,2.5-2.5c0.8,3.5-1.4,6.3-1.3,9.4c0.9,0.6,1.4-0.2,1.9-0.6
	c4.6-3.9,9.2-7.9,13.8-11.9c0.8-0.7,1.8-1.2,2.6-1.7c1.2,1.3,0.6,2.3,0.3,3.4c-1.3,3.8-2.8,7.5-4.1,11.3c-0.4,1-0.5,2.1-0.9,3.6
	c3.9-0.7,6.2-3.3,8.9-5c2.8-1.7,5.5-3.7,8.9-6c-0.3,1.5-0.2,2.3-0.6,2.9c-1.6,3.3-3.3,6.6-5,9.8c-1.3,2.3-1.9,4.7-1,7.6
	c2.3,0.5,4.3-0.5,6.2-1.5c4.7-2.5,9.3-5,14-7.4c0.9-0.5,1.9-0.9,3.3-1.6c-0.2,1.8-1.1,2.7-1.7,3.7c-0.6,0.9-1.2,1.9-1.9,2.8
	c-0.7,1.1-1.5,2.1-2.1,3.2c-0.6,0.9-1.5,1.8-0.2,2.9c1.8,0,2.8-1.4,4.1-2.3c5.2-3.6,10.7-6.4,16.9-7.8c3.9-0.9,7.8-1.5,12.4-1.2
	c-0.7,0.8-1,1.4-1.5,1.6c-3.3,1.9-6.7,3.8-10,5.7c-0.8,0.5-1.5,1.1-2.6,1.9c4.7,1.9,9.5,1.4,14.4,3.1c-5.3,4.3-11.2,6.7-16.1,10.5
	c0.4,1.3,1.3,1,2,1c6.6,0.3,13.1,0.5,19.7,0.8c5.8,0.2,11.4,1.2,17,3c1,0.3,2,0.8,3.5,1.5c-2.6,1.4-4.8,2.6-7.4,4
	c4.7,2,9.3,2.8,13.7,4.1c4.4,1.3,8.9,2,13.7,4.2c-1.3,0.7-2,1.3-2.8,1.5c-4.6,1.3-9.2,2.6-13.9,3.9c-0.7,0.2-1.3,0.7-2.5,1.3
	c1.5,0.8,2.4,1.3,3.4,1.7c5.8,1.9,11.5,3.8,17.3,5.7c0.7,0.2,1.3,0.6,2.5,1.2c-3.9,2.1-8.1,2.1-11.3,4c0.1,1.8,1.3,2,2.3,2.5
	c5.8,2.6,11.7,5.2,17.5,7.8c1.4,0.6,2.8,1.4,4.7,2.4c-1,0.6-1.4,1.1-1.9,1.1c-2.9,0.2-5.8,0.3-8.6,0.5c-1.2,0.1-2.4,0.4-4.3,0.7
	c0.9,1,1.3,1.6,1.9,1.9c4.9,2.3,9.9,4.5,14.8,6.8c3.5,1.6,7,3.1,10.5,4.8c0.8,0.4,1.4,1,2.5,1.9c-4,1.6-7.7,1-11.2,1.6
	c-3.6,0.6-7.3,0.2-11.2,1.2c0.4,1,0.5,1.7,0.9,2c1,0.8,2.1,1.4,3.2,2.1c5.9,3.5,11.8,7,17.8,10.5c1.4,0.8,2.7,1.7,3.9,2.5
	c0.1,1.1-0.6,1.2-1.2,1.3c-3.8,0.6-7.5,1.3-11.8,2c2.1,2.4,4.4,3.4,6.5,4.8c2,1.4,4.1,2.6,6,3.9c2.1,1.4,4.5,2.4,6.4,4.7
	c-0.6,0.4-1.1,1-1.6,1c-2.2,0.4-4.4,0.6-6.6,0.9c-1.9,0.3-3.8,0.6-6.2,0.9c0.8,0.9,1.2,1.5,1.7,1.9c2.4,1.8,4.9,3.6,7.3,5.5
	c0.9,0.7,1.7,1.4,2.4,2c-0.2,1.4-1.2,1.1-1.8,1.4c-0.6,0.3-1.2,0.4-1.8,0.6c-2.5,0.7-4.9,1.3-7.4,2.1c-1.1,0.4-1.2,1.3-0.5,2.6
	c1.5,0.2,3.2,0.6,4.9,0.8c21.3,2.8,42.6,4.2,64.1,3.5c16.8-0.6,33.6-0.7,50.4-1.3c18.4-0.7,35.6-5.7,51.1-15.9
	c18.5-12.1,37-24.1,55.6-36c10.1-6.5,18.7-14.5,25.6-24.3c11.1-15.7,22-31.5,32.8-47.3c4.9-7.1,9.3-14.6,13.1-22.4
	c4.6-9.4,8-19.1,9.5-29.6c1.1-8.2,0.8-16.3-0.5-24.4c-0.2-1.4-0.5-2.9-0.4-4.3c0.2-2.8,1.7-4.5,4.4-4.8c1.6-0.2,3.2,0,4.8,0.2
	c2.4,0.3,4.7,0.7,7.2,1.1c1.1-2.3,1.3-4.7,1.5-7.1c0.5-6.9-0.1-13.7-0.5-20.6c-0.5-8.1-0.9-16.3-1.4-24.4c-0.1-2.3,0.2-4.5,1.1-6.6
	c1.3-2.9,3-3.8,6.1-3.2c2.1,0.4,3.9,1.4,5.3,3c5.5,6.1,10.6,12.4,14,20c2.5,5.4,4.7,10.9,7,16.3c2.1,4.8,4,9.8,6.5,14.4
	c6.7,12.7,16.9,21.1,30.8,25c0.9,0.3,1.8,0.5,2.8,0.8c19.4,5.5,38.6,11.5,57.6,18.2c6.9,2.5,13.7,5.4,20.2,8.8
	c5.7,3,11.1,6.3,16.2,10.3c9.6,7.5,17.4,16.6,22.4,27.8c3.7,8.1,9.7,12.9,18.1,15c16.3,4,32.5,8.6,49,11.5
	c7.7,1.4,15.5,2.4,23.3,3.3c6.9,0.8,12.9,3.7,18.3,7.9c3.7,2.9,5.6,7,4.2,11.9c-1.6,5.7-3.2,11.4-5.2,17
	c-2.6,7.3-6.6,13.9-11.9,19.5c-1.8,1.9-3,4.1-3.7,6.6c-4.3,14.4-13.4,24.4-27.4,30.2c-12,4.9-24.1,9.4-36.6,12.9
	c-5.2,1.5-10.4,3.2-15.2,5.9c-7,3.9-11.8,9.7-14.2,17.4c-0.6,2-1.1,4-1.6,6c-3.2,16.3-6.3,32.6-9.7,48.9
	c-3.8,18.3-7.5,36.7-12.4,54.7c-2.9,10.9-7.1,21.2-13.1,30.8c-5.1,8.1-8.1,17-9.8,26.4c-1.5,8.3-2.6,16.7-3.9,25.1
	c-1.8,11.7-3.5,23.4-5.5,35.1c-2,11.5-6.5,22.1-12.3,32.1c-5.4,9.3-11.9,17.8-19.3,25.7c-5.7,6.1-11.7,11.8-17.5,17.7
	c-1.5,1.5-3,2.9-4.4,4.4c-3.6,3.9-5.7,8.4-6.1,13.8c-0.9,11.4-4,22.3-8.3,32.9c-3.3,8.2-7.4,16-11.7,23.6c-1.3,2.2-2.6,4.4-3.8,6.7
	c-5.1,9.3-7.4,19.3-6.8,30c0.5,8,0.7,16,0.6,24c-0.1,10.1-1.3,20.1-3.9,29.9c-1.1,4-2.5,7.9-3.5,12c-2.3,9.3-2.6,18.7-1.7,28.1
	c0.8,8.9,2.5,17.7,4.2,26.5c1.4,7.1,4.3,8.2,10.4,7.6c9.4-0.9,18.5,0.7,27.2,4.2c5.9,2.3,11,5.8,15.2,10.6c2.5,2.8,4.1,6.1,4.3,9.9
	c0.1,3.5-1,6.6-3.4,9.2c-2.4,2.7-5.5,4.4-8.9,5.5c-2.1,0.7-4.3,1.3-6.4,2c-2.6,0.8-4.4,2.5-5.1,5.2c-0.2,0.8-0.5,1.5-0.8,2.3
	c-2.8,7.1-8.1,11.3-15.6,12.8c-1.7,0.3-3.5,0.6-5.2,0.7c-14.5,1.1-29.1,1.6-43.6,0.6c-9.9-0.7-19.8-1.4-29.7-2.2
	c-9-0.8-15.8-5.2-19.6-13.4c-5.7-12.5-11.3-25.1-15.6-38.2c-3.8-11.6-6.2-23.5-6.6-35.7c0-1.4-0.1-2.9-0.3-4.3
	c-0.6-5.5-2.8-10.1-7.8-13.1C1579.5,1246.7,1577.3,1244.2,1574.9,1241.6z M1005.1,1292.3c0-0.3,0.2-0.6,0.1-0.9
	c-1.8-10.2-3.5-20.4-5.4-30.6c-1.7-9.3-4.1-18.3-7.7-27.1c-0.6-1.4-1.3-2.8-2.2-4.7c-0.7,1.1-1.2,1.6-1.5,2.3
	c-2.2,4.8-3.5,9.9-4,15.2c-0.6,6.5-0.4,13.1,0.3,19.6c0.5,4.9,1.2,9.8,2.4,14.6c1.9,7.9,9.1,12.7,17.2,12.1
	C1004.6,1292.7,1004.9,1292.4,1005.1,1292.3z"/>
</svg>
