<?xml version="1.0" encoding="utf-8"?>
<!-- Generator: Adobe Illustrator 22.0.0, SVG Export Plug-In . SVG Version: 6.00 Build 0)  -->
<svg version="1.1" id="Layer_1" xmlns="http://www.w3.org/2000/svg" xmlns:xlink="http://www.w3.org/1999/xlink" x="0px" y="0px"
	 viewBox="0 0 2880 1800" enable-background="new 0 0 2880 1800" xml:space="preserve">
<path d="M1946.8,708.9c-4.8,0.7-9.2,1.4-13.9,2.1c0,2-0.1,3.7-0.1,5.5c-0.2,6.1-0.2,12.2-0.6,18.2c-1.2,17.3-6.4,33.5-14.7,48.8
	c-3.6,6.6-7.7,12.9-12.2,18.9c-1.6,2.2-3.5,4-6.1,5.3c-1.9-2.9-2.1-5.8-2-8.9c0.2-5.4,0.4-10.9,0.7-16.3c0.2-4-0.3-7.9-1.9-11.5
	c-1.2-0.3-1.8,0.1-2.1,0.9c-0.5,1.2-0.9,2.4-1.3,3.6c-5.4,14.9-10.8,29.7-16.3,44.6c-0.6,1.6-1.3,3.3-2,5.3
	c-0.9-0.8-1.7-1.3-2.2-1.9c-1.5-1.8-3-3.7-4.5-5.6c-0.7-0.9-1.4-1.7-2.3-2.5c-1.7-1.5-3.4-1.6-5.2-0.3c-1,0.8-1.9,1.7-2.8,2.6
	c-5.4,6.2-11.5,11.5-18.2,16.2c-5.1,3.6-9.9,7.6-14.3,12c-6.3,6.3-11.2,13.5-14.5,21.9c-0.6,1.6-1.4,3.2-2.4,4.7
	c-1.2,1.7-2.9,2-4.6,0.8c-1.5-1.1-3-2.4-4.2-3.8c-15.7-17.5-28.5-36.9-38-58.5c-1.9-4.4-3.6-8.9-5.4-13.3c-0.7-1.8-1.5-3.6-2.4-5.2
	c-0.3-0.5-1.3-0.6-2.2-1c-0.8,2.9-1.5,5.5-2.2,8.1c-0.6,2.5-1.7,4.8-3.5,6.8c-3.7-1.6-5.9-4-7.1-7.9c-4-13.7-8.3-27.2-12.5-40.8
	c-0.8-2.7-1.9-5.1-4.5-6.7c-2.4,1.6-3.8,3.8-4.3,6.6c-1.1,6.6-2.4,13.2-3.5,19.8c-2.1,12.5-3.5,25-3.2,37.7
	c0.4,13.2,2.2,26.1,6.6,38.6c1.5,4.2,3.3,8.3,5.4,12.3c5.1,9.6,12.4,17,21.9,22.2c2.9,1.6,5.9,3.1,8.9,4.7c0.7,0.4,1.4,0.8,2,1.3
	c0.5,0.4,0.4,1.8-0.1,2.2c-0.7,0.4-1.4,0.8-2.1,1.1c-3.1,1.3-6.2,2.6-9.3,3.9c-5,2.1-5.6,3.7-2.6,8.3c5.7,8.6,10.3,17.6,13.6,27.4
	c5.5,16.5,7.2,33.4,6,50.6c-0.3,4-0.9,7.9-1.2,11.9c-0.5,5.5-2.8,10.5-4.9,15.5c-0.2,0.4-0.4,0.8-0.7,1.2c-0.8,1.1-2.4,1.3-3.3,0.2
	c-0.9-1.1-1.7-2.3-2.3-3.6c-1.2-2.8-2.2-5.7-3.4-8.5c-2-5-4.1-10.1-6.1-15.1c-1.3-3.4-3.7-5.9-6.9-8c-2,2.6-3.3,5.2-3.1,8.4
	c0.5,8.5,0.9,16.9,3.3,25.2c3.5,12.1,6.8,24.3,10.3,36.4c0.8,2.9,1,5.6,0.2,8.6c-2.8,0.3-4.9-0.9-6.9-2.6
	c-4.4-3.7-8.8-7.4-13.2-11.1c-1.2-1-2.4-2.1-3.7-3c-1.6-1-3.3-1.8-5.1-2.7c-1.8,2-2.1,4.2-2.4,6.4c-0.7,4.4-1.3,8.9-1.8,13.3
	c-0.6,5.4-1.8,10.7-3.7,15.8c-5.3,14.8-7.8,30-6.9,45.7c0.1,2.4,0.3,4.8,0.1,7.2c-1,16.3,1.3,32.2,5.2,48c2.3,9.1,4.9,18.2,7.3,27.3
	c0.4,1.5,0.9,3.1,1.2,4.6c0.9,4.1,0.5,8.1-1.7,11.6c-1.4,2.2-1.4,4.2-1,6.8c1.3,6.9,2.1,13.9,3.1,20.9c1.1,8.1,2.3,16.1,3.4,24.2
	c0.3,2.4,0.7,4.8,0.8,7.1c0.2,3.7-0.8,5.1-4.3,6.6c-4.2,1.8-4.6,2.8-2.5,6.8c1.4,2.7,3,5.3,4.6,7.9c3.9,6.4,6.4,13.2,7.2,20.7
	c0.4,4.2,0.1,8.3-0.9,12.4c-1.5,6.5-5.5,10.7-12.2,12.1c-9.7,1.9-19.5,3.6-29.5,3.5c-16.8-0.2-33.6-0.9-50.4-1.8
	c-1.9-0.1-3.8-0.2-5.8-0.1c-3.5,0.2-5.2,1.7-6.2,5c-0.3,0.9-0.4,1.9-0.6,2.8c-1.6,6-5.4,10.1-11.3,12.1c-2.3,0.8-4.6,1.4-7,1.7
	c-15,1.9-30,2.6-45,1.8c-15.5-0.8-30.9-2.6-46.2-5.5c-3.6-0.7-7.2-1.4-10.7-2.6c-10.9-3.5-18.3-10.7-22.5-21.4
	c-0.5-1.3-0.9-2.7-1.5-4.1c-1.3-3.1-3.5-4.9-7-4.9c-0.6,0-1.3,0.1-1.9,0c-2.5-0.3-4.4-1.5-5.7-3.9c-3.4-6.8-5.8-13.8-6.2-21.5
	c-0.5-9.3-1.1-18.5-1.7-27.8c-0.1-1.3-0.1-2.6-0.4-3.8c-0.3-1.6-1.5-2.4-3.2-2.2c-0.8,0.1-1.6,0.3-2.3,0.5c-1.1,0.3-2.2,0.6-3.3,0.8
	c-3.3,0.6-5.5-1-5.3-4.3c0.2-4.1,0.7-8.3,1.2-12.4c1.2-10.1,4.5-19.6,7.7-29.1c2.5-7.3,5-14.5,7.5-21.8c0.4-1.1,0.7-2.1,1-3.2
	c1-3.3,0.4-6.1-2.2-8.8c-5.7-5.8-5.9-7.5-2.5-14.9c9.7-20.9,19.4-41.8,29.1-62.6c1.7-3.6,3-7.4,3.8-11.3c0.3-1.3,0-2.2-1.4-2.8
	c-3.4,1.1-6.6,2.9-9.7,4.9c-2.7,1.7-5.3,3.5-8.1,5.1c-2.8,1.6-5.8,2.6-9.2,2.4c-3.4-0.2-4.7-1.3-5-4.5c-0.3-3.8-0.3-7.7,1.6-11.2
	c1.6-2.9,1.8-6.1,1.5-9.3c-0.1-1.2-1.6-1.9-2.5-1.1c-1,0.8-1.9,1.7-2.8,2.6c-2.9,2.8-5.7,5.7-8.6,8.3c-1.4,1.3-3.1,2.2-4.8,3.2
	c-1.1,0.6-2.3,0.3-2.9-0.8c-1-1.8-1.9-3.7-2.4-5.7c-0.9-3.6-1.3-7.2-2.1-10.8c-0.4-1.7-0.8-3.4-1.6-5c-1.6-3.4-4.2-4.1-7.5-2.2
	c-1,0.6-1.8,1.3-2.8,1.8c-1.3,0.6-2.6,0.4-3.4-0.8c-0.9-1.1-1.6-2.4-2.3-3.6c-4.7-7.8-9.4-15.6-14.1-23.5c-0.7-1.2-1.5-2.4-2.5-3.5
	c-2.2-2.5-4.8-3-7.8-1.7c-0.9,0.4-1.7,1-2.5,1.4c-2.6,1.4-5,1-7-1c-1.5-1.5-2.6-3.2-3.8-4.9c-2.2-3.1-4.3-6.3-6.5-9.5
	c-0.4-0.6-1.1-1.2-1.8-2c-3.2,2.8-6.2,5.5-7.5,9.6c-1.6,5-3.7,5.9-8.7,4.2c-1.5-0.5-3-0.9-4.6-1.5c-1.2,2.1-0.9,4-0.6,5.8
	c2.5,15.1,3.3,30.2,2.6,45.4c-0.5,10.9-2.2,21.6-4.9,32.2c-0.4,1.4-0.8,2.8-1.5,4.1c-1,2.1-2.6,2.6-4.8,1.7
	c-0.7-0.3-1.4-0.8-2.1-1.2c-0.8-0.5-1.6-1.1-2.4-1.5c-2.4-1.3-3.7-0.9-5.1,1.5c-0.5,1-0.9,2-1.4,3.1c-1.6,3.7-3.1,7.4-4.7,11
	c-3.3,7.7-7.7,14.8-13.2,21c-4.1,4.7-8.4,9.2-12.6,13.9c-0.4,0.5-0.9,0.9-1.4,1.3c-1.9,1.6-3.7,1.6-5.6,0c-0.9-0.7-1.6-1.6-2.4-2.3
	c-2.7-2.2-4.9-1.8-6.9,1.1c-0.3,0.4-0.5,0.8-0.7,1.2c-2.6,5.8-5.3,11.6-7,17.8c-1.3,4.7-1.5,9.5-0.9,14.3c0.1,0.8,0.3,1.6,0.4,2.4
	c0.2,2.9-1.1,4.1-4,3.8c-5.1-0.5-5.9,0-6.4,5c-1,10.1-1,20.1-0.2,30.2c0.8,10.2,2.7,20.3,6.2,30c2.2,6,4.9,11.8,8.1,17.4
	c2,3.5,3.4,7.2,4.1,11.2c0.7,4,0.4,8-0.9,11.8c-2.6,7.7-8.3,11.9-16,13.6c-2.6,0.6-5.4,0.8-8.1,0.9c-18.7,0.4-37.4,0.1-56.1-1
	c-4.3-0.2-8.6-0.8-12.8-1.8c-7.3-1.7-12.8-6-16.8-12.6c-7.3-12.3-12.1-25.3-14.7-39.3c-1.8-10.1-3.8-20.1-5.7-30.2
	c-0.3-1.4-0.6-2.8-0.8-4.2c-0.5-3-1.8-5.3-4.5-7c-3.5-2.1-5-5.4-4.4-9.4c0.4-2.7,1.1-5.3,1.9-7.9c1.1-3.7,2.3-7.3,3.4-11
	c0.8-2.7,0.3-5.4-0.7-8c-0.5-1.1-1.3-2.2-2.2-3.1c-1.3-1.3-3-1.2-4.2,0.1c-0.6,0.7-1.2,1.5-1.7,2.3c-4.6,6.3-9.2,12.7-13.9,19
	c-0.8,1-1.6,2-2.5,2.9c-1.4,1.4-3.1,2.3-5.2,1.9c-4.3-0.8-7,1.3-9,4.8c-0.4,0.7-0.8,1.4-1.2,2.1c-6.9,13.4-13.8,26.7-20.6,40.1
	c-2.8,5.4-5.1,11-6.4,17c-2.1,9-1.7,17.8,1.8,26.4c2.2,5.3,2.4,10.9,1.3,16.5c-1.3,6.2-5.1,10.2-11.1,12.1c-1.5,0.5-3.1,0.8-4.7,1
	c-16.3,1.6-32.5,2.5-48.9,1c-10.9-1-21.6-2.9-32-6c-4.2-1.2-8.1-3-11.6-5.6c-7.1-5.2-11.1-12.2-12-21c-0.6-6.4-0.7-12.8-0.4-19.2
	c0.1-3.4,0.2-6.7,0.3-10.1c0-1.1,0-2.2-0.1-3.4c-0.4-3.2-1.8-4.5-5-4.8c-1.1-0.1-2.2,0-3.4-0.1c-1.8-0.1-3.4-0.9-4.7-2.1
	c-2.2-2-2.6-4.2-1.3-6.9c0.5-1,1-2,1.5-3c6.4-11.8,12.8-23.6,19.2-35.4c0.8-1.5,1.7-3.1,2.4-4.7c1.3-3.1,0.7-4.3-2.7-5
	c-0.8-0.2-1.6-0.2-2.4-0.4c-1.1-0.2-2.2-0.4-3.3-0.7c-1.5-0.5-2.9-1.2-4.5-1.9c0.3-3.4,1.6-6.3,3.4-9c4.3-6.4,8.6-12.7,12.9-19.1
	c2-2.9,4-5.8,5.8-8.8c0.7-1.2,1.2-2.6,1.7-3.9c0.7-1.9,0.3-3.4-1.4-4.6c-0.5-0.4-1-0.8-1.4-1.3c-1.8-2.1-2.2-4.7-0.8-7.1
	c1.1-1.8,2.4-3.4,3.9-4.9c9.4-9.6,19-19,29.1-27.9c1.3-1.2,2.7-2.3,3.9-3.6c2.8-3,3-5.7,0.8-9.1c-0.6-0.9-1.4-1.8-1.9-2.7
	c-2-3.2-1.6-6,1.3-8.6c1.2-1.1,2.6-1.9,3.9-2.8c14.6-9.6,29.2-19.1,43.7-28.7c1.1-0.7,2.1-1.4,3.2-2.1c2.7-1.8,3.9-4.5,2.8-7.5
	c-2-5.6-0.3-10.3,2.8-14.8c1.2-1.7,2.1-3.6,2.9-5.5c5.4-11.9,9.1-24.2,11.5-37c1.9-10.4,3.4-20.8,4.9-31.3
	c2.6-18.2,5.1-36.4,8.8-54.5c1.3-6.6,3.3-13,5.9-19.2c2.8-6.4,5.8-12.8,8.9-19.1c2.4-4.9,5.7-9.3,9.7-13.1
	c3.9-3.7,8.1-7.3,12.2-10.8c2.7-2.3,5.5-4.3,8.3-6.6c5.7-4.6,6.4-7.5,3.6-14.2c-3.2-7.5-5.5-15.3-6.8-23.4
	c-1.5-9.9-1.6-19.8-0.2-29.6c0.9-6,2.1-12,3.6-17.9c2.2-8.8,6.6-16.2,13.6-22.1c3.1-2.6,6.5-4.6,10.6-5.2c6.3-1,11.3,1.1,15,6.3
	c2.2,3.1,3.2,6.6,3.7,10.3c1.7,12.4,5,24.4,10.2,35.9c1.8,4.1,4.1,8,6.4,11.8c3.2,5.3,7.9,7.5,14.2,6.6c15.2-2.4,30.3-4.6,45.5-6.8
	c10.8-1.5,21.6-2.9,32.3-4.2c19.4-2.4,38.8-4.6,57.7-9.7c11.6-3.1,23-6.8,34.4-10.5c23.7-7.7,47.4-15.7,70.2-25.8
	c13.9-6.2,27.6-12.6,41.4-19c1.9-0.9,3.7-1.9,5.5-2.9c5.3-2.9,9.6-6.8,12.5-12.3c4.2-7.9,8.6-15.7,12.6-23.7
	c14.4-29.3,28.5-58.7,43-87.9c9.6-19.3,19.6-38.5,29.4-57.7c0.7-1.4,1.5-2.8,2-4.3c1-2.7,0.6-5.3-1.2-7.7
	c-12.8-16.1-19.9-34.9-25.2-54.4c-1.4-5.4-2.4-10.9-3.4-16.4c-0.4-2.3-0.5-4.8-0.3-7.2c0.5-5.3,3.7-8.4,9-9c1.4-0.2,2.9-0.2,4.3-0.1
	c15.1,1,29.7-1.6,43.8-6.7c9.5-3.4,18.7-7.4,28-11.2c1.9-0.8,3.5-2.2,5.1-3.4c0.9-0.7,1.7-1.5,2.4-2.4c2.2-2.9,5-3.8,8.6-2.6
	c5.5,7.6,11.5,15.2,15.2,24.1c2,4.7,3.7,9.5,4.6,14.6c1.1,6.1,0.7,12.1-1.1,18c-0.5,1.5-0.9,3.1-1,4.7c-0.1,1.8,1,3.1,2.7,3.5
	c1.2,0.2,2.5,0.3,3.8,0.3c3.2-0.1,6.4-0.4,9.6-0.5c3.4-0.2,6.7-0.4,10.1-0.6c1.1-0.1,2.2,0,3.4-0.1c4.6-0.4,6.9-2.4,7.7-7
	c0.5-2.7,0.6-5.4,1-8.1c1.4-10.6,2.7-21.3,4.1-31.9c0.5-4.2,2.9-7.4,5.5-10.4c1.6-1.9,3.8-2.4,6.1-1.7c1.7,0.5,3.3,1.3,4.9,2
	c6.9,3.2,14,5.5,21.4,6.7c7.2,1.1,14.3,1.1,21.5,0.1c4.6-0.7,9.2-1.4,13.8-1.9c2-0.2,4.2-0.1,6.2,0.2c6.2,0.7,10.2,4.3,12.4,9.9
	c2.4,6.3,2.7,12.8,1.6,19.4c-1,6.4-3.6,12.2-7,17.7c-2.3,3.7-4.5,7.4-6.7,11.1c-0.5,0.8-1,1.7-1.3,2.5c-0.2,0.4-0.2,1.1,0.1,1.3
	c0.4,0.4,1.1,0.6,1.7,0.6c0.8-0.1,1.5-0.4,2.3-0.7c2.9-0.9,5.8-1.8,8.7-2.8c3.8-1.4,7.5-1.6,11.4,0.2c0.1,2.4-1.4,4-2.9,5.6
	c-1.2,1.2-2.7,2.2-4.1,3.4c-1.2,1-2.5,2.1-3.5,3.3c-1.6,1.9-1.5,3.9,0.3,5.6c1.5,1.4,3.2,2.7,4.9,3.8c8.2,5.3,16.1,11.1,23.8,17
	c4.6,3.5,6.8,8.3,9,13.5c-3.3,0.9-6.2,0.8-9.1-0.4c-4.8-1.9-9.6-3.7-14.4-5.4c-2.7-1-2.7-0.9-6-0.1c-0.6,2.2,0.2,4.1,1.3,5.9
	c2.1,3.2,4.2,6.4,6.4,9.9c-0.5,0.6-1,1.2-1.5,1.8c-6.2-2.3-11.5-6.7-18.5-7.2c-1.5,2.5-1.7,5-0.4,7.7c2.2,4.6,4.6,9.1,7.8,13.2
	c4.2,5.3,9.5,9.1,16.1,10.7c12.3,2.9,24.2,7.3,36.1,11.5c6.2,2.2,12.4,4.3,18.8,5.7c11.1,2.4,19,8.9,23.9,19
	c3.1,6.5,6,13.1,8.8,19.7c5.1,12.6,10,25.2,15,37.9c1.1,2.8,2,5.7,4.8,7.5c0.6,0.4,1,1.3,1,2
	C1947.1,699.1,1947.3,703.8,1946.8,708.9z"/>
</svg>
