<?xml version="1.0" encoding="utf-8"?>
<!-- Generator: Adobe Illustrator 22.0.0, SVG Export Plug-In . SVG Version: 6.00 Build 0)  -->
<svg version="1.1" id="Layer_1" xmlns="http://www.w3.org/2000/svg" xmlns:xlink="http://www.w3.org/1999/xlink" x="0px" y="0px"
	 viewBox="0 0 2880 1800" enable-background="new 0 0 2880 1800" xml:space="preserve">
<path d="M1662.5,1255.3c-0.6,1.3-1.2,2.4-1.7,3.6c-0.7,1.9-0.7,3.7,0.1,5.6c3,6.6,5.8,13.2,8.9,19.7c2.1,4.4,4.9,8.2,8,11.9
	c2.2,2.7,4.1,5.7,6.1,8.6c0.6,0.9,1.1,2,1.7,2.9c4.6,6.9,11.1,10.4,19.5,10c1.3-0.1,2.6-0.2,3.8-0.3c7.9-0.4,15.2,1.6,21.7,6.2
	c2.6,1.8,5.1,3.9,7.3,6.2c6.2,6.3,12.2,12.7,18.3,19c1.6,1.6,2.9,3.4,3.1,5.8c0.2,3.4-1.2,5.9-4.3,7.3c-1.3,0.6-2.7,1-4.1,1.1
	c-8.9,0.4-17.4,2.3-25.8,5.1c-4.7,1.6-9.4,2-14.2,1.1c-9.2-1.7-18.5-1.6-27.7-0.9c-4.3,0.3-8.6,0.1-12.9-0.9c-4-1-8.1-1.7-12.3-1.6
	c-1.3,0-2.5-0.2-3.8-0.5c-7.5-1.8-11.2-6-12-13.6c-0.2-1.7-0.4-3.5-0.7-5.2c-1-5.1-3.2-9.7-6-14c-5-7.4-10.2-14.7-15.2-22.2
	c-2.6-3.9-6.2-5.3-10.8-4.5c-0.8,0.1-1.6,0.3-2.4,0.4c-1.3,0.2-2.5-0.1-3.6-1c-4.8-3.8-8.5-8.1-8.7-14.8c-0.1-2.5-1.2-4.9-2.2-7.3
	c-2.1-5-4.4-9.9-6.5-14.9c-3.6-8.4-5-17.1-3-26.2c0.6-2.6,0.4-5.4,0.1-8.1c-3.4-26.2-7-52.3-11.9-78.2c-4.8-25.4-9.2-51-13.9-76.4
	c-1.2-6.8-2.3-13.6-4.6-20.1c-0.4-1.1-0.7-2.1-1.1-3.2c-1-2.7-2.9-4.1-5.8-4.1c-1.4,0-2.9,0-4.3,0c-8.8,0.2-17.6,0.1-26.4-1
	c-7.8-1-15.4-2.6-23.1-4.1c-6.3-1.2-12.5-2.7-18.7-4.3c-9.3-2.3-18.9-3.4-28.4-4.7c-14.4-2-28.6-5.1-42.8-8.2
	c-26.9-6-52.9-14.8-78.8-24.1c-11-3.9-21.9-8-32.9-12c-3-1.1-6-2.3-8.9-3.6c-9.3-4.2-18.9-7.8-28.7-10.9c-2.9-0.9-5.8-1.9-8.6-2.9
	c-13.3-4.4-25.9-10.1-37.7-17.6c-6.1-3.8-12.3-7.5-18.5-11.1c-1.4-0.8-2.8-1.5-4.4-1.9c-2.1-0.5-3.5,0.4-3.9,2.4
	c-0.3,1.4-0.4,2.9-0.5,4.3c-0.3,8.8-0.7,17.6-0.9,26.4c-0.2,6.2-0.7,12.5-1.9,18.6c-0.4,2.2-0.9,4.4-1.5,6.5
	c-2.2,7.5-4.6,15-6.8,22.5c-1.2,3.9-2.8,7.5-4.8,11c-4.6,8.2-8.3,17-11.9,25.7c-0.4,0.9-0.7,1.8-0.9,2.7c-0.9,5.4-3.1,10.4-5.4,15.3
	c-3.9,8.4-7.8,16.8-11.7,25.3c-2.6,5.7-5,11.4-6.4,17.5c-1,4.6-1.5,9.2-1,13.8c0.5,5,0.4,9.9-0.5,14.8c-0.5,2.8-0.7,5.7-0.9,8.6
	c-0.5,8.9-3.1,17.3-6.9,25.3c-0.4,0.9-0.8,1.8-1.3,2.6c-4.5,7.3-5.4,15.2-4.4,23.6c0.4,3.3,0.6,6.7,0.8,10c0.2,3.9,0.8,7.6,2,11.3
	c1.9,5.8,3.6,11.6,5.7,17.3c1.6,4.3,3.6,8.5,5.7,12.6c1.2,2.4,3,4.5,4.6,6.7c1.7,2.3,4.1,3.4,7,3.5c2.5,0.1,5.1,0.4,7.6,0.7
	c3.1,0.4,5.8,1.7,8.2,3.7c7.3,5.7,14.6,11.5,21.9,17.2c1.9,1.5,3.6,3.2,4.6,5.4c2,4.2,1,7.3-3.3,8.9c-2.8,1.1-5.8,1.7-8.8,2.3
	c-3.6,0.7-7.2,1.4-10.5,3c-4.1,1.9-8.5,2.9-13,2.9c-6.2,0.1-12.5,0.1-18.7-0.2c-10.2-0.4-20.4-1.4-30.4-3.7
	c-5.7-1.3-8.5-4.4-8.6-10.4c-0.1-5.7-1.3-11.1-3.7-16.3c-3.2-7.1-6.4-14.3-10.2-21.2c-5.8-10.7-11.1-21.6-15.4-33
	c-2.8-7.3-6.1-14.4-9.4-21.5c-3.3-7-7.5-13.4-12.6-19.2c-4.2-4.9-5.7-4.6-7.9,1.5c-1.3,3.5-2.3,7-3.5,10.4
	c-1.5,4.3-1.9,8.7-1.5,13.2c0.3,3.2,0.2,6.4,0,9.6c-0.4,6.7-2.8,12.8-7.3,17.9c-3.8,4.3-5.6,9.1-5.8,14.8c-0.1,3.8-0.6,7.6-1.1,11.5
	c-0.5,4.2-0.5,8.3,0.1,12.4c1.3,8.7,2,17.5,2.3,26.3c0.1,1.4,0.2,2.9,0.1,4.3c-0.2,4.5,1.7,7.6,6.1,9.2c3,1.1,5.9,2.6,8.9,3.6
	c4.9,1.6,9,4.2,12.5,7.8c5.4,5.6,10.8,11.4,16.2,17c4,4.2,4.6,9,2.9,14.2c-1.2,3.8-3.8,6.2-7.9,6.9c-2.8,0.5-5.7,0.8-8.6,1.1
	c-13.7,1.6-27.3,3.2-41,4.6c-8.5,0.9-16.5-0.8-24.3-4.1c-6.1-2.6-9.9-6.9-11.2-13.4c-1.3-6.9-2.6-13.8-3.6-20.8
	c-2-13.1-3.7-26.3-5.6-39.4c-1.1-7.9-1.9-15.9-3.2-23.8c-2.2-14.1-4.7-28.1-7.1-42.1c-0.4-2.4-1.3-4.6-2.4-6.7
	c-4.2-7.9-7-16.5-10-24.9c-0.5-1.3-0.6-2.8-0.5-4.2c0.7-9.3,1.8-18.5,4.6-27.4c1.8-5.7,4.1-11.1,7.4-16.1
	c6.5-9.7,10.4-20.5,13.3-31.7c0.4-1.4,0.5-2.8,0.5-4.3c-0.1-7.1,0.7-14,1.7-21c0.3-2.4,0.9-4.7,1.5-7c2.6-9.7,3.3-19.5,0.8-29.4
	c-0.3-1.1-0.4-2.2-0.4-3.3c-0.4-13.1-0.8-26.2-1.1-39.3c-0.3-12.2-0.3-24.3-0.7-36.5c-0.1-5.3-0.5-10.6-1.2-15.8
	c-0.4-3.2-1.3-6.3-2.1-9.3c-5.8-20-11.1-40.1-14.9-60.5c-1.3-6.8-2.1-13.6-3.1-20.4c-1.3-8.6-0.4-17.3,0.6-25.8
	c1-8.3,2.1-16.5,3.4-24.7c0.6-3.6,1.5-7.2,2.5-10.7c1.1-3.7,1.8-7.4,2.4-11.2c0.8-4.7,2-9.4,3.2-14c1.3-4.9,2.8-9.9,4.4-14.7
	c1.2-3.6,2.5-7.3,4.3-10.7c3.3-6.4,6.9-12.6,10.4-18.9c2.3-4.1,4.5-8.1,6.7-12.2c1.7-3.2,2.3-6.6,2.5-10.2
	c0.4-8.9-1.1-17.5-4.4-25.8c-3.1-7.7-5.8-15.6-7.5-23.7c-1.3-6.3-2.2-12.6-2.5-19c-0.6-13.9,0.1-27.8,2.1-41.6
	c1.2-8.1,4-15.8,7.8-23.1c9.3-17.9,22.4-32.2,40.2-42c6.2-3.4,12.3-6.8,19-9c6.6-2.2,13.4-3.2,20.3-2.5c11,1.1,21.8,3.2,32.1,7.5
	c10.7,4.5,20.3,10.8,28.6,19c9.1,9,15.2,19.7,18.2,32.1c2.6,10.9,5.1,21.8,7.8,32.7c1.5,6.3-0.4,11.6-4.3,16.5
	c-0.2,0.2-0.4,0.5-0.7,0.7c-4.7,4.5-10.9,3.4-13.1-2.8c-2.2-6-3.6-12.2-5.4-18.4c-0.3-1.1-0.4-2.2-0.8-3.2
	c-3.5-8.8-7.7-17.2-13.5-24.8c-5.8-7.5-12.8-13.4-21.4-17.4c-9.6-4.5-19.6-5.8-29.9-3.5c-10.4,2.3-19.4,7.3-26.9,14.9
	c-3,3-4.4,6.6-4.3,10.8c0.2,5.3,0.8,10.5,3.1,15.4c0.4,0.9,0.8,1.8,1.2,2.6c1.5,3.4,1.7,6.8,0,10.2c-0.4,0.9-0.8,1.7-1.1,2.6
	c-0.8,2.4-0.6,4.7,1.1,6.8c0.8,1,1.7,1.9,2.6,2.8c2.5,2.6,4.2,5.6,5.3,9c0.5,1.5,0.9,3.1,1.7,4.5c2.1,3.9,5.3,5.9,9.8,5.7
	c1.4-0.1,2.8-0.4,4.3-0.6c1.7-0.2,3.5-0.5,5.2-0.6c3.9-0.2,7.4,1,9.9,4c2.7,3.3,5.9,3.9,9.9,3.1c6.6-1.3,13.2-2.4,19.8-3.5
	c5.2-0.9,10.4-1.5,15.7-1.6c13.4-0.2,26.9-0.2,40.3,0.7c12.1,0.8,24.3,1.3,36.4,2.4c11.6,1.1,23.2,2.7,34.8,4.1
	c5.4,0.6,10.8,1.4,16.2,1.9c8.6,0.9,17.1,2.1,25.7,3.3c8.5,1.2,17.2,2,25.8,2.7c10.2,0.9,20.3,2.2,30.4,4c5.8,1.1,11.7,1.5,17.6,2.4
	c8.4,1.2,16.8,2.5,25.1,3.7c3,0.4,6,0.8,9,1.1c5.6,0.5,11.1,1.1,16.7,1.5c5,0.3,9.9-0.1,14.7-1.8c2.5-0.9,5-1.1,7.6-0.4
	c2.2,0.6,4.4,1,6.5,1.6c6.6,1.7,12.7,0.9,18.1-3.6c0.5-0.4,1-0.8,1.5-1.2c5.2-3.9,10.7-4.7,16.7-2.1c3,1.3,6.1,1.8,9.3,2.3
	c2.5,0.5,4.4-0.5,5.7-2.7c0.7-1.1,1.2-2.3,1.7-3.4c3.9-8.4,10.7-13.4,19.2-16.2c3.3-1.1,6.6-1,9.8,0.6c0.7,0.4,1.4,0.7,2.2,0.9
	c1.3,0.3,2.5,0.3,3.6-0.7c3.2-2.8,7.1-4.2,11.2-5.3c1.1-0.3,2.1-0.6,3.2-1c3.2-1.1,6.1-2.5,8.2-5.4c1.4-2,3.7-3.5,5.6-5.2
	c1.9-1.7,4-3.2,5.9-4.9c2.8-2.5,5-5.4,6.2-9c1.8-5.6,5.7-9.2,10.8-11.6c1.2-0.5,2.3-1,3.5-1.5c3.3-1.4,5.4-3.8,6.6-7.2
	c0.4-1.2,0.7-2.5,1.2-3.7c1.3-3.3,2.5-6.6,4-9.7c2.3-4.7,5.7-8.5,10-11.4c1.6-1.1,3.1-2.2,4.6-3.4c7.6-6.2,12.4-14.2,13.9-23.9
	c0.8-5.2,2.8-9.8,5.9-14c2.3-3.1,4.9-5.9,7.3-8.9c3-3.7,6-7.5,8.9-11.3c2.8-3.7,3.9-8,3.9-12.6c0-3.2,0.1-6.4,0.5-9.6
	c1.5-10.3,6.3-19,13.3-26.6c3.9-4.2,8.3-8,13.2-11.1c11.5-7.2,23-14.5,34.8-21.3c5.1-2.9,10.7-5,16.2-7.2c6.8-2.7,13.7-5.4,20.2-8.8
	c8.5-4.4,17.7-5,27.1-4.3c8.7,0.7,17,2.8,25.1,6.1c4.4,1.8,9,3.3,13.6,4.6c5.1,1.5,10.3,2.3,15.6,2.1c8.3-0.3,15.4,2.6,21.2,8.5
	c7.1,7.2,13.7,14.8,17.5,24.4c1.6,4.1,4.7,6.4,8.8,7.5c2.5,0.7,5,1.1,7.5,1.5c8.7,1.5,17.3,3,26,4.6c1.3,0.2,2.5,0.5,3.8,0.6
	c6.2,0.5,11.9,2.7,17,6.1c4,2.6,7.8,5.6,11.7,8.4c2.1,1.5,4.1,3,6.4,4.2c4.3,2.4,7.3,5.8,8.9,10.3c1.3,3.8,2.6,7.6,3.6,11.4
	c1.3,5,3.1,9.7,5.5,14.3c1.7,3.3,3.3,6.6,4.7,10c5,12.2,5.8,24.8,2.5,37.6c-2.6,10.1-8.2,18.3-16.4,24.8c-3.9,3.1-8.2,5.6-12.8,7.6
	c-1.6,0.7-3.2,1.4-4.8,2.1c-3.4,1.6-6.2,3.8-8.3,7c-3.2,4.8-6.5,9.5-9.9,14.2c-1.8,2.4-3.7,4.8-5.9,6.9c-4,3.9-8.9,6.2-14.6,6.6
	c-1.3,0.1-2.6,0.2-3.8,0.3c-10.4,1-17.9,6.3-22.9,15.4c-1.5,2.8-3.2,5.5-5.1,8.1c-1.3,1.6-2.4,3.4-3.5,5.1
	c-6.5,10.2-14.8,18.4-25,24.9c-2,1.3-4.1,2.6-6,4c-10.4,7.4-17.5,17.2-21.5,29.3c-2.9,8.8-5.7,17.6-8.7,26.4
	c-2.8,8.2-4.4,16.7-5.7,25.2c-0.3,2.1-0.7,4.1-0.9,6.2c-0.1,0.9-0.2,2.2,0.4,2.7c1.1,1.1,1.1,2.2,0.9,3.5c-0.8,7.5-1.5,15-2.2,22.4
	c-1.4,14.7-4.2,29.1-7.3,43.5c-1.3,6.1-3.4,12-6.1,17.6c-4.8,10.3-9.5,20.6-14.1,31c-1.7,3.8-3.3,7.6-4.6,11.6
	c-3.9,11.6-9,22.6-14.7,33.3c-3.3,6.1-6.1,12.3-8.5,18.8c-3.7,10-5.7,20.3-6,30.9c-0.3,12.3-1.7,24.6-2.7,36.8
	c-0.4,4.9-0.9,9.9-1,14.8c-0.3,10.3-2.1,20.3-3.6,30.5c-0.9,6-1.6,12-2.2,18.1c-0.6,6.7,0.3,13.4,1.1,20.1c1.2,11.1,2.7,22.2,4,33.3
	c0.7,5.9,0.2,11.8-1,17.7c-1.6,7.9-2.7,15.8-2.6,23.8c0.1,8.8,1.9,17.1,6.3,24.8c3.9,6.8,7.4,13.8,11.1,20.7
	c0.7,1.3,1.4,2.5,2.2,3.7c1.9,3.1,4.8,4.6,8.4,4.8c2.6,0.1,5.1-0.1,7.7,0.1c8.6,0.4,16.2,3.4,22.6,9.3c4.4,4,8.6,8.1,12.8,12.3
	c1.4,1.3,2.6,2.8,3.6,4.5c1.4,2.4,1,4.5-0.8,6.6c-0.2,0.2-0.4,0.5-0.7,0.7c-3.3,2.3-6,5.1-7.9,8.8c-1.4,2.7-4.3,3.7-7.3,4
	c-2.4,0.3-4.8,0.4-7.2,0.6c-5.9,0.5-11.8,1-17.7,1.5c-5.4,0.4-10.9,0-16.3-0.7c-4.9-0.6-9.9-1-14.8-1.4c-4.5-0.3-8.9-1-12.6-4
	c-0.6-0.5-1.4-0.8-2.1-1.1c-6-2.2-9-7-10.4-12.8c-0.6-2.5-0.7-5.1-0.6-7.6c0-3.1-0.7-6-2.3-8.7c-3.3-5.5-6.4-11.1-9.6-16.6
	C1666.7,1258.1,1665.3,1256.3,1662.5,1255.3z"/>
</svg>
