<?xml version="1.0" encoding="utf-8"?>
<!-- Generator: Adobe Illustrator 22.0.0, SVG Export Plug-In . SVG Version: 6.00 Build 0)  -->
<svg version="1.1" id="Layer_1" xmlns="http://www.w3.org/2000/svg" xmlns:xlink="http://www.w3.org/1999/xlink" x="0px" y="0px"
	 viewBox="0 0 2880 1800" enable-background="new 0 0 2880 1800" xml:space="preserve">
<path d="M1600.7,613.2c-4.2-0.5-8,1.8-12,1.8c-0.9-1-0.2-1.6,0.1-2.3c8.6-14.5,21.1-23.8,37.6-27.6c1.8-0.4,3.7-0.8,6.1-1.4
	c-1-0.8-1.5-1.4-2.2-1.7c-2.2-0.9-4.5-1.8-6.7-2.6c-1.9-0.8-3.9-1.4-5.7-2.4c-2.5-1.3-4.3-3.2-5.1-6.4c0.7-0.3,1.4-0.8,2.1-1
	c2.6-0.7,5.2-1.5,7.9-2.1c6.1-1.5,11.9-3.8,17.2-7.2c3.6-2.3,7.1-4.9,10.7-7.3c7.9-5.5,15.7-11.1,23.6-16.4c3.5-2.4,5.9-5.1,6.6-9.5
	c0.9-5.4,3.7-9.9,7.8-13.4c3.4-2.9,7-5.5,10.7-8.2c2.6-1.9,5.3-1.9,7.9,0.2c1.1,0.9,2.3,1.7,3.7,2.7c0.6-0.9,1.2-1.5,1.7-2.3
	c0.5-0.8,0.7-1.8,1.1-2.6c3.7-7.8,9.9-12.1,18.5-12.5c7.2-0.3,14.4-0.1,21.6,0c1.1,0,2.2,0.3,3.3,0.6c1.7,0.5,2.8,1.6,3.2,3.3
	c0.4,1.7,0.7,3.5,0.8,5.2c0.2,2.2,0.1,4.5,0.2,6.7c0.1,1.6,0,3.2,1,5c0.7-0.6,1.3-0.9,1.8-1.5c5.2-5.9,10.3-11.8,15.5-17.7
	c1.9-2.2,4.2-3.8,6.9-5c2.3-1,4.3-2.6,6.8-4.2c2.8,0,6.1,0,9.8,0c0.1,1.5,0.2,2.8,0.3,4.3c1.6,0.3,2.9,0.7,4.3,1
	c10.5,1.7,20.2,5.8,29.9,10.1c5.6,2.5,9.3,6.7,11,12.5c1,3.2,1.8,6.5,2.6,9.7c0.6,2.3-0.9,4.2-3.4,3.9c-3.2-0.3-6.3-1-9.4-1.6
	c-1.1-0.2-2.1-0.7-3.2-0.8c-1.5-0.3-2.4,0.3-2.9,1.8c-1.7,4.9-1.2,9.5,2.7,13.2c1.7,1.6,3.7,3.1,5.6,4.5
	c12.1,9.3,20.2,21.2,23.7,36.2c0.4,1.5,0.5,3.2,0.4,4.7c-0.5,4.6,1.2,8.1,4.6,11c1.2,1,2.5,2,3.8,2.9c21.6,15.1,43.3,30.2,64.9,45.3
	c6.4,4.5,13,8.7,20,12.4c1.8,1,3.6,2,5.5,3.1c0.1,0.8,0.3,1.6,0.3,2.4c-0.1,8,1.1,5.9-5,10.7c-2.4,1.9-4.7,3.8-6.4,6.4
	c-2.7,4.2-6.4,7.6-10.4,10.5c-2.3,1.7-4.8,3.2-7.1,4.9c-2.4,1.8-5,3.5-7.2,5.6c-4.8,4.5-10.6,6.5-17,6.7c-3.8,0.1-7.7-0.2-11.5-0.5
	c-5.3-0.4-10.5-1-15.8-1.4c-1.6-0.1-3.2-0.1-4.8,0c-6.2,0.6-10.6,5.2-10.7,11.5c0,2.2,0.2,4.5,0.9,6.6c2.3,6.7,4.5,13.3,7.3,19.8
	c4.9,11.1,10.2,22.1,15.3,33.1c4.2,9,8.4,17.9,12.6,26.9c3.7,8.1,5.4,16.7,5.1,25.6c0,1.1-0.3,2.1-0.5,3.1c-2.1,0.6-3.7-0.3-5.4-0.6
	c-5.3-1.2-6.7,0-6.3,5.5c0.4,4.8,1.6,9.5,4,13.7c2.7,4.7,5.8,9.2,8.7,13.8c0.7,1.1,1.4,2.1,2,3.2c0.6,1.3,0,2.5-1.5,3
	c-1.8,0.6-3.5,0.2-5.2-0.1c-2-0.4-4-0.8-6.1-1.3c-1.6,2-1.9,4.2-2.1,6.4c-0.4,4.4,0.5,8.6,2.4,12.6c1.7,3.4,3.6,6.8,5.5,10.1
	c2,3.4,4.1,6.8,6.1,10c-0.5,1.5-1.3,1.7-2.3,1.3c-3.4-1.4-6.8-2.8-10.2-4.2c-1.3-0.5-2.7-0.9-4.1-1.4c-0.9,3.5,0.6,6.6,0.4,9.7
	c-1.1,1-1.9,0-2.6-0.4c-3.2-1.8-6.3-3.7-9.5-5.7c-2.2,1.4-3.3,3.3-3.9,5.5c-3.3,10.9-2.6,21.2,4.2,30.6c0.7,0.9,1.3,1.8,1.8,2.8
	c1.6,3.2,0.7,5.1-3.1,5.6c-2.7,0.3-5.4,0.4-8.1,0.3c-3.8-0.1-7.6-0.5-11.7-0.9c-0.2,1.1-0.5,2.2-0.6,3.2
	c-0.9,11.6-1.7,23.3-2.5,34.9c-0.1,0.8-0.2,1.6-0.3,2.4c-1.9,0.6-3.1-0.7-4.4-1.4c-3.2-1.6-5.3-2.3-5.8,3.4
	c-0.2,1.7-0.1,3.5,0.1,5.3c0.9,5.6,3.9,9.3,9.6,10.6c1.5,0.3,3.3,0.2,4.1,2c-6.8,7.1-20.8,9.3-30.6,2.7c-1.6-1.1-3.1-2.3-4.7-3.2
	c-2-1.2-3.2-1-4.4,1c-2.5,3.9-4.7,8-6,12.5c-1.3,4.4-1.3,8.8,0.4,13.2c0.7,1.8,1.3,3.6,0.9,5.7c-2.3,0.8-4.4,0.5-6.6-0.1
	c-2.8-0.8-5.2-2.4-7.5-4.1c-1.5-1.1-3-2.3-4.7-3.5c-1.7,1.9-2.4,3.9-2.9,6.1c-1.2,5.6-2.4,11.3-3.5,16.9c-0.4,1.9-0.8,3.7-1.9,5.2
	c-2.7,0-4.3-1.3-5.6-3.3c-1.4-2.1-2.9-4.2-4.4-6.2c-0.3-0.4-0.9-0.7-1.7-1.2c-1.3,4.3-0.5,8.2,0.2,12.1c0.7,3.7,2.3,7.2,3.1,11.2
	c-2.8,0.3-4.4-1-5.8-2.4c-1.2-1.3-2.2-2.8-3.2-4.2c-1.1-1.4-2.1-2.8-3.2-4.2c-0.3-0.3-0.8-0.5-1.2-0.6c-0.3-0.1-0.6,0.2-0.9,0.3
	c-0.6,1.6,0,3.1,0.4,4.6c2,8.9,4,17.8,6,26.7c0.3,1.4,0.4,2.8,0.7,4.5c-1,0-1.8,0.2-2.5,0c-3.7-0.7-7-2.3-9.6-5.1
	c-2-2.1-3.7-4.4-5.5-6.7c-1-1.2-1.8-2.6-2.6-3.7c-1.3,0.1-1.4,1-1.7,1.7c-1.8,4.5-2.3,9.3-2,14.1c0.2,2.9,0.7,5.7,1,8.6
	c0.1,0.9-0.1,1.7-0.2,3c-4.2-1.6-6.9-4.7-10.8-6.3c-0.4,1.2-0.9,2.2-1.2,3.2c-1.5,7.1-2.3,14.2-2.8,21.4c-0.9,13.4-1,26.8-0.4,40.3
	c0.6,13.1,0.8,26.2,1.4,39.3c0.5,10.9,1.1,21.7,1.9,32.6c0.2,3.1,1.3,6.3,2.2,9.3c0.7,2.4,1.9,4.7,2.8,7.1c1.7,4.7,5.3,7,10.1,7.6
	c4.6,0.5,9.2,1.2,13.8,1.9c1.7,0.3,3.4,0.7,5.1,1.3c2.8,0.9,5.2,2.5,7.1,4.7c5,5.9,9,12.4,13,19c1.2,1.9,0.8,3.4-1.2,5
	c-4,3.4-8.6,5.4-13.7,6.5c-6.3,1.4-12.7,1.1-19.1,0.5c-4.6-0.4-9.2-0.8-13.8-1.4c-3.1-0.4-5.6,0.5-7.7,2.9c-2.3,2.6-5.2,4.3-8.4,5.5
	c-3.7,1.4-7.5,2.7-11.3,3.8c-1.6,0.5-3.5,0.4-5.2,0.5c-1,0-1.9-0.1-2.9-0.2c-3-0.3-5.5,0.3-6.6,3.6c-9.6,0-19.2,0-29.2,0
	c-1.3-1.9-3.3-3.2-5.7-4.3c-3.7-1.8-6.6-4.6-8.8-8c-1.9-3-3.4-6.1-5-9.2c-0.7-1.3-1.1-2.6-1.8-3.9c-0.9-1.6-1.9-2-3.6-1.3
	c-1.3,0.6-2.5,1.5-3.8,2c-2.4,1-4.8,1.8-7.2,2.6c-0.4,0.1-0.9-0.1-1.7-0.2c0.4-1.3,0.7-2.5,1.2-3.7c1.8-5,3.6-9.9,5.4-14.9
	c0.2-0.6,0.5-1.2,0.6-1.8c0.3-1.2-0.7-2.2-2-1.9c-1.6,0.3-3.1,0.8-4.6,1.2c-1.1,0.2-2.1,0.4-3.7,0.7c0.5-1.2,0.7-1.9,1-2.6
	c1.5-3,3.1-6,4.5-9c0.5-1,0.9-2,1.2-3.1c0.3-1.2,0.5-2.6-0.6-3.6c-1.1-0.9-2.5-0.7-3.7-0.2c-0.9,0.3-1.7,0.9-2.5,1.4
	c-0.8,0.5-1.5,1.2-2.2,1.8c-1.1,0.9-2.3,2.1-3.8,1.2c-1.4-0.8-1.5-2.4-1.5-3.8c0.2-4.3,0.4-8.6,0.6-12.9c0.1-1.1,0.2-2.2,0.3-3.4
	c-2.7-1.5-5.4-1-7.9,0.1c-2.3,1-4.6,2.3-6.9,3.3c-1.8,0.8-3.6,2-6.1,1.5c0-3.7,1.1-7.3,1.5-10.9c0.4-3.6,1.7-7.1,1.2-11
	c-4.3,0.7-7.5,3-10.3,6c-0.9,0.9-1.7,1.9-2.6,2.8c-0.3,0.3-0.8,0.5-1.4,0.8c-2-1.1-2.7-3.1-2.6-5.2c0.2-3.8,0.4-7.7,1-11.4
	c0.8-4.6,2.6-8.9,4.6-13.1c1.1-2.3,2.1-4.7,3.1-7c0.3-0.6,0.4-1.2,0.7-1.8c0.3-0.8,0.5-1.6-0.2-2.2c-0.8-0.6-1.5-0.1-2.1,0.4
	c-2,2-4.1,4.1-6.1,6.1c-0.8,0.7-1.7,1.4-2.8,2.3c-0.4-0.9-0.8-1.4-0.8-1.9c-0.7-8.8-1.5-17.5-1-26.3c0.3-5.3,1.3-10.5,3.1-15.5
	c0.3-0.7,0.4-1.5,0.6-2.2c-0.8-1-1.6-0.5-2.3-0.3c-4,0.9-7.2,3.3-10.4,5.8c-1.8,1.5-3.4,3.4-5.8,4.3c-2.2-1.4-2.7-3.6-2.7-5.8
	c-0.1-5.1-0.2-10.2,0.1-15.3c0.3-4.6,1.3-9.2,2.8-13.6c0.4-1.2,0.9-2.4,0.2-3.8c-3.1,0.1-5.6,1.4-7.6,3.6c-1.6,1.7-3,3.7-4.4,5.7
	c-1.4,1.9-2.8,3.9-4.4,6.2c-0.6-1.1-1.2-1.6-1.3-2.3c-2.7-9-3.7-18.2-3.3-27.5c0.1-2.5,0.3-5.1,0.4-7.5c-1.1-0.8-1.7-0.1-2.2,0.4
	c-1.7,1.4-3.4,2.9-5.2,4.3c-1.5,1.1-3.1,2.3-5,2.5c-1.7-1.1-1.8-2.7-2.2-4.2c-1.9-9.1-3.8-18.2-5.7-27.2c-0.3-1.2-0.6-2.5-1.1-3.6
	c-0.6-1.3-2.1-1.6-3.2-0.6c-0.9,0.9-1.7,1.9-2.4,2.9c-1.5,2.3-2.8,4.6-4.3,6.9c-0.5,0.8-1.2,1.4-1.8,2.2c-1.9-2.1-2.3-4.4-2.4-6.9
	c0-2.4,0-4.8,0-7.2c0-1.6-0.1-3.2-1.5-4.5c-2.8,0.6-4.5,2.4-5.2,5c-0.5,1.7-0.7,3.5-0.7,5.2c0,5.4,0.3,10.9,0.4,16.3
	c0.1,2.7,0.5,5.4-0.1,8c-1.4,0.8-2.6,0.3-3.8-0.2c-2.7-1-5-2.8-7.1-4.8c-5.1-4.9-9.4-10.5-12.4-17c-2.7-5.8-4.9-11.8-7.4-17.7
	c-0.4-0.9-0.3-2.3-2-2.6c-0.7,3.2-1.6,6.4-2.1,9.7c-0.5,3.8-2.5,6.4-5.6,8.9c-0.5-0.7-1-1.3-1.3-2c-1.9-5.4-3.8-10.9-5.7-16.3
	c-0.5-1.5-1.2-3-1.9-4.4c-1-1.8-2.8-2.1-4.4-0.8c-1.2,1-2.3,2.2-3.5,3.3c-0.7,0.6-1.6,1-2.6,1.7c-3-3.1-4.7-6.8-5.6-11.2
	c-3.6,2-5.8,4.2-5.9,8c0,4.5-0.2,9-0.2,13.4c0,1.7,0.6,3.4,0.9,5.6c-1-0.3-1.7-0.4-2.3-0.8c-6.9-4-12.6-9.3-16.8-16.1
	c-2.8-4.6-5.3-9.5-7.9-14.3c-0.7-1.3-1.2-2.9-2.8-4.1c-1.3,1.4-1.6,3.2-2.2,4.7c-0.6,1.5-1,3-1.7,4.5c-0.7,1.6-0.8,3.4-2.2,4.6
	c-1.6-0.3-1.6-1.6-1.9-2.6c-1.8-6-3.6-11.9-5.4-17.9c-1.6-5.2-3.1-10.4-4.7-15.6c-0.3-0.9-0.7-1.7-1.2-2.8c-4.1,3.1-6.4,7-7.8,11.5
	c-1.4,4.6-0.5,9.1,0.2,14c-3.8-0.9-5.7-3.4-6.6-6.6c-0.6-2.1-0.9-4.4-0.9-6.6c-0.2-6.9-0.1-13.8-0.2-20.6c0-0.9,0-1.9,0-3.3
	c-0.9,0.4-1.6,0.5-1.8,0.8c-1.3,2.5-2.7,5.1-3.8,7.7c-2.8,6.6-7,12.2-12.3,16.9c-1.3,1.2-2.6,2.4-4.8,2.5c-0.4-0.7-1-1.5-1.1-2.4
	c-0.4-2.7-0.7-5.4-1-8.1c-0.4-3.9-1.9-7-5.6-8.7c-1.2,0.4-1,1.3-1.1,2c-0.8,7-1.8,14-3.8,20.7c-2.3,7.4-5.7,14.2-11,20
	c-0.6,0.7-1.4,1.3-2.3,2.2c-0.5-0.9-0.9-1.5-1.1-2.2c-1.3-5.8-2.6-11.5-3.8-17.3c-0.2-0.9-0.4-1.9-0.8-2.8c-0.2-0.5-0.9-1-1.4-1.1
	c-0.5,0-1.2,0.4-1.6,0.8c-0.5,0.6-0.9,1.3-1.2,2c-1.3,2.6-2.6,5.1-3.8,7.8c-3.6,7.9-7.5,15.6-12.4,22.7c-3.1,4.5-6.5,8.7-10.3,12.6
	c-1.1,1.1-2.2,2.2-4,2.8c-0.5-2.2,0-4,0.2-5.8c0.3-3.3,0.7-6.7,0.9-10c0.1-1.4,0.1-3.1-1.6-3.6c-1.4-0.4-2.4,0.6-3.2,1.7
	c-7.8,10-17,18.7-25.6,27.9c-5.1,5.5-10.2,11.1-14.8,17c-11.4,14.8-18,31.6-20.1,50.1c0,0.3-0.1,0.6-0.1,1
	c-0.3,16.8-1.2,33.6,1.8,50.3c1.1,6.3,2.9,12.5,4.6,18.6c1.4,5,2.7,5.6,8.1,5.5c4.2-0.1,8.3-0.4,12.5-0.3c2.9,0.1,5.8,0.3,8.5,1
	c5.8,1.4,9.9,5,12.6,10.3c2.9,5.7,4.6,11.9,5.9,18.2c0.7,3.4-1.1,5.5-4.6,5.8c-2.4,0.2-4.8,0.3-7.2,0.4c-3.4,0.2-6.7,1-9.6,2.7
	c-3.1,1.7-6.4,1.9-9.8,1.5c-4.9-0.6-9.8-1.3-14.7-2.1c-6.5-1.1-12.9-2.3-19.3-3.6c-12-2.3-20-9.4-24.5-20.7
	c-2.5-6.3-3.8-12.9-4.6-19.6c-1.5-11.9-1.9-23.9-1.5-35.9c0.2-4.6,0.3-9.3,0.4-13.9c0-1.2,0.3-2.6-1.1-3.6c-2.2,0.8-3.3,2.6-4.1,4.7
	c-1.7,4.5-3.3,9-4,13.8c-1.8,12-2.7,24.1-1.7,36.3c0.7,7.5,1.6,14.9,3.3,22.3c0.5,2.3,1.2,4.7,2,6.9c1,2.8,3.1,4.4,6,4.8
	c2.4,0.3,4.8,0.6,7.2,0.7c9.5,0.6,16.4,5.1,20.2,13.9c2.7,6.3,4.9,12.8,7.3,19.3c0.2,0.4,0.3,0.9,0.4,1.4c0.6,3.1-0.5,5.1-3.7,5.6
	c-2.3,0.4-4.8,0.2-7.1,0.1c-1.8-0.1-3.5-0.5-5.2-0.6c-4.1-0.3-7.9,0.5-11.6,2.2c-1.6,0.7-3.3,1.4-5,1.4c-11.4,0.4-22.7-0.2-33.7-3.8
	c-3.3-1.1-6.6-2.4-9.7-4c-6.9-3.6-10.7-9.4-11.2-17.2c-0.2-2.9-0.4-5.7-0.5-8.6c-0.5-13.8-0.8-27.5-1.3-41.3
	c-0.8-20.3-1.6-40.6-2.5-60.9c-0.2-5.1-0.3-10.2-0.5-15.3c-0.2-4.3-0.6-8.6-1-12.9c-0.1-0.8-0.7-1.6-1.2-2.8c-1,0.8-1.8,1.3-2.5,1.9
	c-2.6,2.6-5.1,5.3-7.6,8c-1.2,1.2-2.4,2.6-4,3.2c-3-2.6-2.7-6.4-4-10.2c-1.2,2-2.1,3.3-2.9,4.6c-5.1,8.4-11,16.1-18,23
	c-10.3,10.2-22.3,17.6-36,22.3c-0.9,0.3-1.8,0.5-3.1,0.9c0.1-1,0-1.8,0.2-2.5c1.9-7.4,3.8-14.9,5.7-22.3c0.4-1.5,0.9-3,0.7-5
	c-0.8-0.1-1.7-0.4-2.2-0.1c-1.6,1-3.3,2.1-4.5,3.5c-15.3,17.2-34.7,27.5-56.9,32.6c-1.4,0.3-2.8,0.5-4,0.6c-1-1.4,0-2.1,0.6-2.7
	c4.2-5.1,8.4-10.1,12.6-15.2c0.6-0.7,1.2-1.5,1.6-2.4c0.2-0.4-0.3-1.1-0.6-2c-1.2,0.8-2.1,1.4-3,2.1c-5,3.7-10,7.5-15.1,11
	c-6.2,4.1-13,6.9-20.2,8.6c-0.9,0.2-1.9,0.3-2.8,0.4c-0.3,0-0.6-0.2-1.1-0.5c1.5-2.8,2.9-5.7,4.4-8.5c0.8-1.6,1.6-3.1,2.5-4.7
	c0.4-0.7,0.7-1.6-0.1-2.1c-0.4-0.3-1.3-0.3-1.7-0.1c-1.9,0.9-3.7,1.9-5.4,3c-5.3,3.1-10.8,5.7-16.9,6.5c-3.1,0.4-6.4,0.4-9.6,0.3
	c-2.4,0-4.3-1.1-5.8-3.1c0.9-1.7,2.6-2.2,4.2-2.9c2.8-1.2,5.7-2.2,8.4-3.6c9.2-4.6,16.8-11.1,22.1-20c0.8-1.3,1.9-2.6,1.3-4.7
	c-0.7,0.1-1.5,0-2.2,0.2c-2.8,0.7-5.6,1.4-8.4,2.1c-1.1,0.3-2.2,0.4-3.3,0.5c-2.2,0.1-3.2-1.1-2.9-3.3c0.1-0.6,0.2-1.3,0.4-1.9
	c2.6-10.9,5.4-21.7,9.2-32.3c4.8-13.2,12.1-25,21-35.9c5.6-6.8,11.7-13.1,18-19.3c7.2-7.1,14.4-14.1,21.4-21.4
	c6.5-6.7,12.4-13.8,17.8-21.4c2.9-4,4.6-8.3,4.4-13.4c-0.6-20,3-39.5,9-58.5c8.1-25.8,19.3-50.1,33.4-73.1c1.3-2.2,2.8-4.3,3.3-7.2
	c-1,0-1.8,0-2.7-0.1c-1.6-0.1-3.2-0.1-4.7-0.5c-1.9-0.5-2.6-2.5-1.6-4.2c0.4-0.7,0.9-1.3,1.4-1.9c5.6-6.3,10-13.3,13.8-20.7
	c2.5-4.7,4.9-9.4,7.3-14.1c14.4-28.3,34.5-51.8,60.5-70.2c17-12,34.4-23.4,52.2-34.1c10.4-6.3,21.7-10.2,33.4-12.9
	c13-3,26.1-4.6,39.3-5.9c19.8-2,39.6-2.2,59.4-1.8c14.6,0.3,29.1,1.2,43.6,2.5c14,1.3,28,2.5,42.1,3.8c3.3,0.3,6.3-0.3,9.4-1.3
	c15.5-5,31-10,46.6-15c9.1-2.9,18.3-5.7,27.4-8.6c8.6-2.8,17.4-4.6,26.3-5.2c7.5-0.6,13.4-3.8,18.4-9.2c7.6-8.3,14.5-17,20.5-26.6
	c3.2-5.2,6.4-10.4,9.7-15.5c5-7.8,10.6-15.2,17.5-21.5C1600.4,616.1,1600.3,616,1600.7,613.2z M1707.1,1278.1c0-0.7,0.1-1,0-1.3
	c-0.2-0.4-0.4-0.9-0.7-1.3c-4.9-6.9-7.5-14.8-8.8-23.1c-1.1-6.6-1.9-13.3-3-19.9c-2.9-17.3-6.4-34.5-8.7-52
	c-0.4-2.8-1.2-5.6-1.9-8.4c-0.1-0.5-0.7-0.9-1.4-1.8c-0.2,1.3-0.5,2.1-0.5,2.8c-0.4,7.5,0,15,0.8,22.5c0.9,8.3,1.8,16.5,1.6,24.8
	c-0.1,4.7,0.5,9.2,1.4,13.8c1.6,8.2,4,16.1,6.8,23.9c1.7,4.6,3.8,9.1,5.9,13.6c1.3,2.8,3.3,5.1,6.4,6.1
	C1705.6,1278.3,1706.4,1278.1,1707.1,1278.1z"/>
</svg>
