<?xml version="1.0" encoding="utf-8"?>
<!-- Generator: Adobe Illustrator 22.0.0, SVG Export Plug-In . SVG Version: 6.00 Build 0)  -->
<svg version="1.1" id="Layer_1" xmlns="http://www.w3.org/2000/svg" xmlns:xlink="http://www.w3.org/1999/xlink" x="0px" y="0px"
	 viewBox="0 0 2880 1800" enable-background="new 0 0 2880 1800" xml:space="preserve">
<path d="M1782.8,471.1c2.2,0,4.1,0,6.1,0c2.7,5.6,4.1,11.4,4.9,17.5c1.3,9.8,0.2,19.5-1.2,29.1c-0.1,0.5-0.2,0.9-0.3,1.4
	c-0.7,4.5,0.2,6.1,4.4,7.8c3.9,1.5,7.8,2.9,11.6,4.5c22.7,9.8,41.5,24.4,56.1,44.5c1.6,2.2,3.3,4.3,5.1,6.3
	c5.6,6,12.5,9.9,20.6,11.5c11.9,2.3,23.9,4.5,35.8,6.7c6,1.1,12,2,18,3.1c7,1.2,13.7,3.3,19.6,8.5c0,3.6,0,7.8,0,11.9
	c0,0.8-0.2,1.6-0.6,2.3c-1.5,2.4-2,5-2.6,7.7c-2.1,8.6-5,16.8-9.1,24.7c-3.6,7-8,13.4-13.2,19.4c-8.2,9.5-18.7,14.9-31,16.5
	c-6.6,0.9-13.4,1.2-20,1.9c-8,0.9-15.8,2.6-23.3,5.3c-8.3,3-15.4,7.8-21.5,14c-10.2,10.4-19,22.1-26.4,34.7
	c-7.9,13.4-13.8,27.7-19.1,42.4c-7,19.8-12.5,40-16.1,60.7c-1.2,6.8-2.1,13.6-3,20.4c-2.3,17.8-7,35.1-12.8,52.1
	c-9.6,27.9-24.1,52.9-43.2,75.3c-1.2,1.5-2.5,3-4,4.1c-4.5,3.3-6.9,7.9-8.2,13.1c-0.3,1.4-0.6,2.8-0.9,4.2
	c-1.5,8.8-3.1,17.6-4.5,26.5c-1.3,8.5-2.4,17.1-3.5,25.7c-1.6,13.2-3,26.4-4.5,39.6c-1.4,13-2.9,26.1-4.2,39.1
	c-1.2,11.6-2.4,23.2-3.4,34.9c-0.8,8.6-1.5,17.2-2.2,25.8c-0.8,10.2-1.7,20.4-2.3,30.6c-0.4,7.7-0.7,15.3-0.5,23
	c0.1,8.6,4.3,14.9,12.4,18.3c1.5,0.6,3,1.2,4.4,1.9c8.5,4.4,13.3,11.3,14.1,20.8c0.5,6-0.6,11.8-2.2,17.5c-0.8,2.9-2.8,4.6-5.9,4.7
	c-2.2,0.1-4.5,0.3-6.7,0.3c-13.1,0-26.2,0-39.4,0c-0.2,0-0.3,0-0.5,0c-6.2-0.1-6.6-0.3-8.9-5.9c-2-5-4-10.1-5.9-15.2
	c-5.4-13.8-8.2-28.2-9.3-43c-1.1-15.3-2.2-30.6-3.2-46c-1.4-22.5-2.6-45-3.9-67.6c-1-18.8-1.9-37.7-2.9-56.6
	c-0.2-3.7-0.5-7.3-0.8-11.1c-1.6,0.4-1.5,1.7-1.7,2.6c-2,9.5-4.1,19.1-6,28.6c-1.8,8.9-3.7,17.9-5,26.9c-1.5,10.1-2.8,20.3-3.4,30.5
	c-1.6,24.3-2.8,48.5-4.2,72.8c-0.3,5.1-0.7,10.2-0.7,15.3c0,4,0.3,8,0.8,11.9c0.6,4.6,3.1,8,7.1,10.3c3,1.8,6.1,3.4,9.2,5.1
	c11.8,6.4,15.8,15.4,12.5,28.4c-0.7,2.6-1.7,5.2-2.5,7.7c-1.1,3.4-3.4,4.7-6.9,4.7c-9.1,0-18.2,0.2-27.4,0.2c-9,0-17.9-0.1-26.9-0.2
	c-1.3,0-2.6,0-3.8-0.4c-2.2-0.6-3.3-2.3-4.3-4.2c-3.8-7.4-6.9-15.1-9.5-23c-4.2-13.1-6.7-26.6-8-40.4c-1.1-12.6-1.5-25.2-2-37.9
	c-0.6-15.7-1.5-31.3-2.3-47c-0.4-7.2-0.8-14.4-1.1-21.6c-0.8-18.4-1.6-36.8-2.3-55.1c-0.5-12.6-0.9-25.3-1.5-37.9
	c-0.2-5.7-0.8-6.2-6.5-6.5c-9.4-0.6-18.9-1-28.2-1.9c-11.6-1.1-23.2-2.4-34.8-4c-17.7-2.5-35.3-5.8-52.7-10.2
	c-31.4-8-61.9-18.5-90.8-33.2c-17.4-8.8-34.8-17.7-52.1-26.6c-1.4-0.7-2.9-1.4-4.3-2c-1.4-0.6-2.6-0.2-3.4,0.9
	c-0.9,1.3-1.7,2.7-2.5,4.1c-5.3,9.1-10.4,18.4-15.9,27.4c-9.8,16.2-21.4,31.1-34.5,44.8c-9.7,10.2-19.7,20.1-29.9,29.9
	c-14,13.4-28.2,26.5-42.2,39.9c-12.5,11.9-24.5,24.3-35.8,37.5c-5.1,6-9.6,12.4-13.9,18.9c-4.3,6.5-5.7,13.9-5.5,21.5
	c0.6,17.1,1.6,34.2,3.4,51.2c0.5,5.2,1.4,10.5,2.3,15.6c1.3,7.4,5.5,12.8,12.2,16.2c3.3,1.6,6.7,3.1,10,4.7c2.1,1.1,4.3,2.2,6.2,3.7
	c4.7,3.6,7.2,8.5,7.8,14.3c0.6,5.7-0.5,11.1-2.1,16.5c-0.9,2.9-2.8,4.6-5.9,4.7c-2.2,0.1-4.5,0.3-6.7,0.3c-18.7,0.1-37.4,0-56.2,0.1
	c-6.9,0-7.8-1.6-9-7.3c-2.5-12.9-5.5-25.6-7.9-38.5c-2.6-14.1-4.9-28.3-7.3-42.5c-1.5-9.3-2.9-18.6-4.2-28
	c-0.7-5.2-1.1-10.5-1.6-15.8c-0.1-1.3-0.1-2.6-0.3-3.8c-1.3-7.8-0.1-15.3,1.8-22.8c2.2-8.4,4.4-16.7,6.6-25c0.3-1,0.3-2.1,0.5-3.7
	c-1.2,0.7-1.9,0.9-2.5,1.4c-2.3,2-4.6,4-6.8,6.1c-8,7.9-15.9,15.8-23.9,23.7c-5.3,5.2-8.9,11.3-11.3,18.2
	c-4.4,12.7-7.7,25.7-9.4,39.1c-1,7.8-1.6,15.6-2.2,23.4c-0.4,5.1,0,10.2,1,15.3c0.8,3.9,2.4,7.3,5.4,9.9c2.4,2.1,5,4,7.7,5.7
	c3.2,2,6.7,3.7,10,5.7c2.4,1.5,4.8,3.1,7,5c4.5,3.9,6.4,9.1,6.2,15c-0.2,4.5-1.1,8.9-2.3,13.2c-1,3.3-3,5.2-6.5,5.4
	c-2.1,0.1-4.2,0.3-6.2,0.3c-19.8,0.1-39.7,0-59.5,0.1c-5.1,0-7.9-0.8-8.9-7.5c-2.5-16.6-4.9-33.2-6.1-50c-0.4-6.2-0.3-12.5-0.5-18.7
	c0-1.4,0-3.2-0.8-4.1c-1.7-1.9-1.6-4.1-1.6-6.3c0-18.6,0-37.1,0-55.7c0-2.4,0.5-4.7,1.2-7c1.3-4.4,2.3-9,3.2-13.5
	c1.1-5.5,2.6-10.9,4.9-16c9.8-21.4,19.5-42.8,29.3-64.1c4-8.7,7.9-17.5,10.9-26.6c3-9.3,4.5-19,5.8-28.6c2-14.3,3.9-28.5,5.5-42.8
	c1.4-13,2.5-26.1,3.3-39.2c0.9-15.5,1.3-31,2-46.5c0.7-15.7,1.8-31.3,4.6-46.7c7.4-39.9,26.7-72.6,59.3-97.1
	c1.4-1.1,2.8-2.1,4.1-3.4c1.1-1.1,1.1-2.2,0.2-3.5c-0.2-0.3-0.4-0.5-0.6-0.8c-13.1-16.9-20.4-36.1-22.9-57.1
	c-2.6-21.3,0.4-41.9,8.8-61.5c13.3-30.9,37.3-48.7,70-55.3c28.6-3.8,54.4,2.7,76.5,21.6c11.7,10,19.8,22.6,23.9,37.5
	c1.3,4.8,2.1,9.7,2.3,14.7c0.4,9,0.4,17.9-0.6,26.8c-1.3,11.3-4.7,21.8-11.2,31.3c-0.4,0.5-0.6,1.1-0.9,1.7c-0.1,0.1,0,0.3-0.1,0.7
	c0.7,0.2,1.4,0.6,2.1,0.6c3.2,0,6.4,0.2,9.6-0.1c14.8-1.2,29.7-1.8,44.6-1.3c17.7,0.6,35.5,1.5,53.2,2.3c6.4,0.3,12.8,0.7,19.2,1.2
	c10.2,0.8,20.4,1.8,30.6,2.6c6.5,0.5,13.1,0.9,19.6,1.1c10.9,0.4,21.7,0.7,32.6,0.9c18.2,0.3,36.5-0.2,54.7-1.8
	c18.8-1.6,37.5-4.4,55.7-9.4c5.4-1.5,10.7-3.4,15.7-5.8c5.8-2.8,11.1-6.3,15.8-10.7c5.5-5.1,11.1-10.1,16.5-15.4
	c4.3-4.3,8.6-8.6,12.5-13.3c5.1-6,8.7-13,11-20.6c0.6-2.1,1.6-4.2,2.6-6.1c3.7-6.8,8.6-12.7,14.6-17.7c4.2-3.5,8.6-6.6,13-9.9
	c2.3-1.7,4.7-3.3,6.9-5.1c4.1-3.3,6.6-7.6,8-12.8c4.9-18.7,13.9-35,28.6-47.9c10.8-9.4,23.2-15.8,36.8-20c6.7-2.1,13.6-3.7,20.5-4.9
	c1.3-0.2,2.5-0.5,3.8-0.7c3.4-0.6,6.4-2.1,8.9-4.5c14.4-13.4,28.7-26.9,43.1-40.4C1781.1,473.3,1781.8,472.3,1782.8,471.1z
	 M1120,691.6c1-0.3,1.5-0.3,1.6-0.5c2.1-3,4.2-6,6.2-9c0.3-0.5,0.5-1.2,0.6-1.8c0.2-1-1-1.9-1.9-1.5c-0.6,0.3-1.2,0.5-1.6,1
	c-2,2.5-3.8,5.1-4.6,8.2C1120,689.1,1120.1,690.2,1120,691.6z"/>
</svg>
