<?xml version="1.0" encoding="utf-8"?>
<!-- Generator: Adobe Illustrator 22.0.0, SVG Export Plug-In . SVG Version: 6.00 Build 0)  -->
<svg version="1.1" id="Layer_1" xmlns="http://www.w3.org/2000/svg" xmlns:xlink="http://www.w3.org/1999/xlink" x="0px" y="0px"
	 viewBox="0 0 2880 1800" enable-background="new 0 0 2880 1800" xml:space="preserve">
<path d="M1927.4,699c1.9,0.1,3.1,0.2,4.2,0.3c3.5,0.2,6,2.1,6.9,6.2c1.1,4.5,0.4,10.1-5.6,13.6c-4.8,2.7-9.9,3.6-15.3,2.9
	c-3.6-0.5-7.2-1.2-10.9-1.8c-1.3-0.2-2.5-0.5-3.8-0.4c-5.6,0.4-11.2,0.8-16.7,1.3c-2.3,0.2-3.8,1.4-4.3,3.8
	c-1.8,8.7-7.4,14.3-14.8,18.5c-7.4,4.1-14.7,8.4-22.1,12.5c-4.3,2.4-8.8,4.6-13.6,6c-2,0.6-3.8,1.7-5.4,3.1
	c-6.9,6.1-12.8,13-17.8,20.7c-1.7,2.6-2.8,5.4-2.8,8.5c-0.1,5.3-2,10-5.1,14.2c-4.5,6.2-9.1,12.4-13.6,18.6c-1,1.4-2.1,1.7-3.9,1.4
	c-0.4,2-0.8,4-1.2,6c-1.2,7.4-2.4,14.8-3.6,22.2c-0.5,3-0.3,6.1,0.5,9c1.7,6,1,11.7-0.9,17.4c-1.6,4.9-4.2,9.4-7.3,13.4
	c-3.4,4.3-6.9,8.4-10.5,12.5c-4.6,5.1-9.4,10.1-14.1,15.1c-3.2,3.4-6,7.1-7.7,11.5c-0.9,2.5-1.6,5.2-2.1,7.8
	c-1.6,8.4-4.3,11.1-12.9,12.2c-1.7,0.2-3.5,0.5-5.2,0.9c-4.7,1.1-8.1,3.9-9.7,8.5c-1.2,3.3-2,6.7-2.8,10.2c-0.7,3.3-1.2,6.6-1.8,9.9
	c-0.9,5.2-3.8,8.7-8.7,10.5c-1.6,0.6-3.3,1.3-4.8,2.2c-4.9,2.8-10.2,3.7-15.7,3.9c-5.8,0.2-11.5,0.5-17.3,0.7
	c-6,0.2-10.6,2.7-14.6,7.2c-7.9,8.8-14,18.6-18,29.8c-3.4,9.6-7.1,19.2-10.6,28.8c-3.7,10-6,20.2-6.7,30.8
	c-0.4,5.4-0.7,10.9-0.8,16.3c-0.2,11-1.9,21.6-6,31.9c-1.9,4.6-3.1,9.4-3.6,14.4c-0.4,4.4-1.7,8.5-4,12.2c-2.4,3.9-3.1,7.9-2.8,12.4
	c0.5,7.7,2,15.2,3.9,22.7c0.9,3.7,1.8,7.5,2.9,11.1c3.7,12.3,11.4,21,23.6,25.2c9.8,3.3,16.8,9.7,21.6,18.7c1.3,2.4,2.6,4.8,3.6,7.3
	c0.7,1.7,1.1,3.7,1.3,5.6c0.5,4.2-4.8,6.9-7.6,4.7c-0.6-0.5-1.3-0.9-2-1.2c-2.8-1.5-4-0.8-4.4,2.5c-0.1,0.6-0.1,1.3-0.1,1.9
	c-0.1,0.6-0.2,1.2-0.2,1.8c-2.9,1-2.9,1.1-5.2,3.2c-5.4,5-11.9,6.7-19.1,5.8c-2.7-0.3-5.4-1-7.9-1.8c-3.5-1.1-6.9-1.1-10.3,0.3
	c-4.8,1.9-9.8,2.9-15,2.8c-1.9-0.1-3.8,0.5-5.7,0.7c-2.7,0.3-5.4,0.5-8.1,0.6c-2.5,0.1-4.3-1-5.1-3.5c-0.1-0.5-0.3-0.9-0.4-1.4
	c-0.9-3.2-2.9-5.7-5.6-7.6c-1.6-1.1-3.2-2.2-4.7-3.3c-3.9-2.7-7.2-5.9-7.3-11.3c-2.6,0.7-4.5,1.9-6,3.6c-2.7,3-6,3.9-9.9,3.8
	c-8.6-0.3-17.3-0.5-25.9-0.6c-2.2,0-4.1-0.6-5.8-1.9c-4.7-3.4-9.4-6.7-14-10.1c-3.4-2.6-3.6-3.8-2-7.8c0.1-0.3,0.2-0.6,0.4-1.2
	c-0.6-0.7-1.3-1.6-2.1-2.3c-2.3-2.3-4.6-4.4-6.8-6.7c-2.8-2.9-3.7-6.3-2.8-10.2c1.2-5,2.4-9.9,3.6-14.9c0.5-2,1-4.1,1.2-6.1
	c0.2-2.5,0-5.1-0.1-7.6c0-0.4-0.5-0.7-1-1.3c-2.7,3.8-3.1,8.4-5.1,12.2c-1.2,0-1.1-0.7-1.1-1.3c0.1-7.1,0.8-14,2.5-20.9
	c1-4.1,2.4-7.9,4.7-11.4c2.9-4.5,1.2-9.8-3.6-11.9c-1.7-0.8-3.6-1.4-5.3-2.3c-1.4-0.8-2.7-1.7-3.8-2.8c-1.9-1.9-2.7-4.4-1.8-7
	c0.6-1.8,1.4-3.6,2.3-5.2c2.1-3.4,4.4-6.7,6.6-10c2.9-4.2,5.8-8.4,8.7-12.7c0.5-0.8,0.8-1.6,1.4-2.7c-3.9-2.3-8.2-3.3-11.7-5.5
	c-0.6-1.7,0.2-3,0.7-4.3c1.4-3.5,3.6-6.4,6.4-8.9c2.3-2,4.7-3.8,7.1-5.7c1.2-1,2.5-1.9,4.2-3.1c-0.8-0.5-1.2-0.9-1.7-1
	c-3.2-0.6-6.2-1.5-9.1-2.9c-3.2-1.6-6.6-2.4-10.2-2c-0.4,0-0.8-0.2-1.3-0.3c0.6-1.5,1.9-1.8,3-2.4c6.7-3.8,13.4-7.5,20.1-11.3
	c1.5-0.8,3.2-1.5,4-3.3c-0.1-1.5-1.1-2.4-2.2-2.8c-1-0.3-2.3-0.4-3.2,0c-1.6,0.6-3.1,1.6-4.5,2.6c-1.1,0.8-2.1,1.9-4,1.6
	c0.2-0.7,0.2-1.4,0.5-1.9c4.6-7.9,9.3-15.7,16.6-21.5c2.1-1.6,3.4-3.8,4.2-6.3c2.2-6.8,4.5-13.7,6.7-20.5c0.1-0.3,0-0.6,0-1.3
	c-0.7-0.1-1.4-0.3-2.1-0.2c-2.1,0.1-4.1,0.4-6.2,0.4c-3,0.1-5.2,1.3-6.7,3.9c-0.4,0.7-0.9,1.3-1.3,1.9c-1.5-1-1.2-2.4-1.4-3.6
	c-0.4-2.4-0.6-4.8-1.1-7.1c-0.6-2.6-2-3.4-4.6-2.9c-0.6,0.1-1.2,0.4-1.8,0.6c-3.1,1.2-6,0.9-8.7-0.8c-3-1.9-4.6-2.5-6.7,1.8
	c-0.2,0.4-0.6,0.7-1.1,1.2c-1.5-1.2-1.9-3-2.8-4.4c-0.9-1.5-1.7-3.1-2.6-4.8c-1.2,0.7-2.3,1.4-3.4,1.9c-1.5,0.7-2.9,0.4-3.8-0.9
	c-0.7-1-1.3-2.2-1.8-3.4c-1-2.1-2.7-3.2-5-3c-5.2,0.4-10.2-0.6-15.1-2c-3.6-1-7.2-0.8-10.8,0.4c-5,1.8-10.1,2.9-15.5,3.1
	c-5.5,0.2-10.9-0.6-16.1-2.3c-5.2-1.7-10.5-2.8-16-3.1c-4-0.2-8-0.1-12,0.2c-5.1,0.4-10.3,0.6-15.3-0.8c-4-1.1-7.5-0.2-11.2,1.7
	c-0.2,1.8-0.4,3.5-0.7,5.5c-0.8-0.3-1.6-0.5-2.2-0.9c-1.5-1-2.8-2.1-4.3-3c-1.5-0.9-3.1-1.6-5.3-1.2c-0.2,1.4-0.5,2.9-0.8,4.5
	c-4,0-6.1-3.8-10-4.1c0.3,2.3,0.5,4.5,0.7,6.7c-1.9,0.1-2.8-1.2-3.9-2c-2.6-1.9-5.3-2.2-8.2-1c-1.3,0.5-2.6,1-4.2,1.6
	c-0.3-1-0.8-1.7-0.8-2.4c-0.2-2.3-1.5-3.8-3.1-5.2c-3.3-2.8-7-4.5-11.4-4.3c-5.3,0.2-10.1-1.2-14.8-3.5c-4-2-8.1-3.8-12.1-5.9
	c-3.8-2.1-7.5-2.6-11.3,0c-0.4,0.3-0.9,0.3-1.4,0.4c-0.1,0-0.3,0-0.8,0c-0.3-1.3-0.7-2.6-1-4c-0.3-1.2-0.4-2.5-0.9-3.7
	c-0.7-2-1.8-2.3-3.7-1.2c-1.8,1-3.6,2.1-5.4,3.1c-2.4,1.3-4,3.1-4.8,5.7c-0.3,1.1-0.6,2.5-1.9,3.6c-1.8-2.6-3.5-5-5.5-7.7
	c-1.7,2.2-2.4,4.5-3.4,6.6c-1,2-1.9,4-2.8,6.1c-2.1-0.3-2.4-2.2-3.4-3.3c-1.1-1.1-1.8-3.1-3.7-2.2c-1.6,0.7-0.9,2.5-1,3.9
	c0,0.6,0,1.3,0,2c-1.3,0.1-2.7-0.1-3.7,0.5c-1,0.6-1.7,1.8-2.4,2.9c-1.9,2.9-4.2,5.6-6.8,8.2c-0.8-0.5-1.4-1-2.1-1.3
	c-1.9-1-2.9-0.6-3.8,1.4c-0.7,1.6-1.1,3.3-1.7,5c-0.3,1.1-0.5,2.2-1,3.2c-1.3,2.6-3.4,3.4-6.3,2.5c-0.5-0.1-0.9-0.3-1.5-0.4
	c-1.6,1.1-2.7,2.7-3.7,4.3c-1.7,2.8-4,4.6-7.2,5.2c-4.7,0.9-8.6,3.2-12.3,6.2c-5.2,4.3-10.4,8.5-15.7,12.7
	c-5.7,4.6-9.4,10.3-11,17.5c-1.7,7.5-3.7,14.9-5.7,22.3c-0.3,1-0.2,2.3-1.7,2.7c-0.8-3.4,0.1-7.1-1.7-10.3c-0.1-0.3-0.5-0.4-0.9-0.8
	c-0.6,0.4-1.3,0.7-1.8,1.3c-0.7,0.8-1.3,1.8-1.9,2.8c-7.7,12.2-15.1,24.5-23.1,36.5c-3.6,5.5-5.5,11.4-6.3,17.9
	c-1.2,9.1-1.2,18.2-1,27.3c0.1,4.1,1.4,7.7,4.2,11c5,5.9,10.8,10.9,17.4,15c3.7,2.3,7.4,4.5,11,6.8c4.2,2.7,8,5.8,11.2,9.7
	c2.5,3,4.5,6.2,5.5,10c0.2,0.9,0.5,1.9,0.6,2.8c0.6,6.2-2.1,10.1-8.1,11.8c-1.2,0.3-2.2,0.1-3.2-0.6c-0.5-0.4-1-0.8-1.5-1.2
	c-0.5-0.4-1-0.7-1.8-1.2c-0.8,0.9-1.5,1.6-2.1,2.5c-1.9,3.1-4.7,4.7-8.3,5c-1.4,0.1-2.9,0.3-4.3,0.3c-7.8,0-15.7,0-23.4-1.5
	c-2.8-0.5-5.7-0.7-8.6-0.2c-3.8,0.7-7.3,0-10.5-2.1c-3.2-2.1-6.4-4.2-9.5-6.5c-3.1-2.3-4.9-5.4-5.1-9.4c-0.2-3.5-0.5-7-0.8-10.5
	c-0.3-3.2-0.5-6.4-0.9-9.5c-0.2-1.5-0.7-3.2-1.5-4.5c-1.8-2.9-2.2-6-1.6-9.2c0.5-2.7,1.1-5.3,2-7.9c1.4-4,2-8,1.5-12.3
	c-0.4-3-0.6-6-0.8-9.1c-1.1-0.4-1.4,0.4-1.6,1.2c-0.7,3.1-1.5,6.2-1.8,9.4c-0.5,5.4-0.7,10.9-1.1,16.3c-0.2,2.5-0.6,5.1-1,7.6
	c-0.6,4-0.4,8,0.5,11.9c1.6,7.3,3.3,14.7,4.9,22c1.1,5.2,4,9,8.5,11.7c2.3,1.4,4.7,2.7,7.2,3.9c4.8,2.3,9,5.5,12.3,9.8
	c2.2,2.9,4.5,5.8,6.5,8.9c2.3,3.5,3.6,7.5,3.8,11.7c0.1,1.2-0.2,2.5-0.3,4c-1.6,0.4-2.9,0.8-4.3,1c-2.4,0.2-4.7,0.7-6.8,2
	c-2.4,1.5-5,2-7.8,1.3c-2.3-0.6-4.7-0.8-7.2-1.2c-0.7,1-1.3,1.8-2,2.7c-1.4,2-3.2,3.1-5.7,3c-7.7-0.4-15.2,1.6-22.9,2.3
	c-3.3,0.3-6.7,0.5-10,0.6c-4.9,0.1-9.5-1.2-13.5-4.1c-0.4-0.3-0.8-0.5-1.5-0.8c-0.8,0.7-1.6,1.4-2.6,2.2c-3.1-0.7-6-2.3-9.1-4.2
	c0.4-1.1,0.7-2.2,1.1-3.2c1.2-3,2.5-5.9,3.6-8.9c0.6-1.5,1.2-3-0.2-4.7c-1.3,0.2-2.7,0.4-4.3,0.6c-0.4-1.7,0.7-2.8,1.1-4.1
	c0.5-1.3,1.1-2.6,1.7-3.8c-1.6-2.3-3.5-2.9-5.9-2.1c-3.4,1-6.7,2.1-9.4,4.5c-0.3,0.3-0.8,0.3-1.9,0.8c1.9-2.6,3.3-4.7,4.8-6.7
	c5.1-6.4,7.5-13.7,7.6-21.8c0.1-6.2,0.3-12.5,0.2-18.7c0-2.7-0.3-5.4-0.8-8.1c-1.2-5.9-0.1-11.1,3.6-15.8c1.9-2.4,3.5-5,4.4-7.9
	c0.4-1.4,0.5-2.8,0.6-4.2c0.1-1-0.9-1.8-1.9-1.6c-0.9,0.2-1.9,0.4-2.8,0.7c-4,1.1-4.9,0.6-6.9-3.6c0.8-1.6,2.6-1.8,4-2.2
	c2.7-0.8,4-2.6,4.3-5.2c0.2-2.7,0.5-5.4,0.3-8.1c-0.5-7.5-1.3-15-0.8-22.5c0-0.4-0.2-0.9-0.4-1.6c-1.1-0.1-2.1-0.2-3.2-0.4
	c-4-0.6-7.9-1-11.8-1.8c-5.7-1.1-10.2-4-14-8.6c-8.7-10.5-15.2-22.1-19.1-35.2c-3-9.8-5.7-19.6-6.8-29.9
	c-1.4-12.5-0.9-24.9,1.9-37.2c3.7-16.2,7.6-32.4,11.4-48.6c1.4-6.1,2.6-12.2,2.9-18.5c0.1-2.2,0.3-4.5,0-6.7
	c-1.2-11.1-0.3-22,2-32.9c1.3-6.4,2.6-12.8,3.8-19.3c0.3-1.5,0.2-3.1,0.3-5.4c3.1-3.5,3.1-8.7,3.1-14c-1.2-0.6-2.4-1.2-3.6-1.7
	c0-0.4-0.1-0.8,0.1-1c0.8-1,1.7-1.9,2.6-2.8c3.4-3.3,3.5-3.8,1.6-7.8c-0.5-1.2-1.1-2.3-1.5-3.5c-0.2-0.6-0.1-1.2-0.2-2.2
	c1.3,0.6,2.2,1.1,3.1,1.6c2.2-3.5,2.1-5.8-0.5-8.5c-1.3-1.3-2.8-2.4-4.7-4c1.4-0.4,2.2-0.7,3.1-0.9c1.2-0.3,2.5-0.4,3.7-0.9
	c2-0.8,2.2-3.8,0.4-5.1c-1.1-0.8-2.8-1-2.9-2.9c0.6-1.2,1.9-0.7,2.9-1c2.6-0.8,3.2-2.7,1.2-4.6c-0.9-0.9-1.9-1.7-2.7-2.7
	c-0.4-0.4-0.5-1.1-0.9-1.9c1.2-0.1,2.2-0.2,3.1-0.3c2.3-0.4,3.5-1.8,3.1-4c-0.3-1.4-1-2.6-1.7-4.1c0,0,0-0.5,0.2-0.6
	c2.9-1.3,3.5-3.5,2.4-6.3c-0.3-0.7-0.3-1.6-0.5-2.6c2-2.5,2.6-5.6,3.1-8.7c0.5-3.6,1.2-7.3,1.8-10.9c1-5.3,3-10.1,6.3-14.4
	c1.9-2.5,3.1-5.1,3.7-8.2c1.5-7.8,5.4-14.3,11.2-19.7c2.1-2,4.4-3.7,6.7-5.5c8.3-6.4,16.2-13,22.6-21.4c0.7-0.9,1.5-1.6,2.3-2.4
	c1.7-1.6,3.7-2.6,6.1-2.3c3.7,0.5,6.8-0.7,10-2.5c14.7-8.2,30.4-14.1,46.6-18.6c14.3-4,28.6-8,42.9-12.1c8.7-2.5,17.4-3.6,26.5-2.9
	c6.7,0.5,13.4,0.3,20.1,0c11.7-0.4,23.4-0.5,35,0.6c5.4,0.5,10.8,1.3,16.2,1.9c4.8,0.5,9.5,1.1,14.3,1.4c4.9,0.3,9.5,1.3,13.9,3.4
	c8.3,4,17.2,5.9,26.4,6.5c14.7,1,29.4-0.1,44-2.3c7.6-1.2,15.1-2.6,22.7-3.7c9.4-1.5,18.8-1.4,28,1.7c5.4,1.8,11,1.9,16.6,1.2
	c4.2-0.5,8-2.3,11.3-4.8c2.3-1.7,4.5-3.6,6.8-5.4c8.9-6.9,19-10.5,30.2-10.5c1,0,1.9,0,2.9,0.1c8.6,1.2,16.5-1.1,24-5.1
	c5.1-2.7,10.3-5.1,15.7-7.2c4.4-1.7,8.9-2.7,13.6-2.4c3.4,0.2,6.7-0.7,9.9-1.6c11.3-3.1,22.7-5.5,34.2-7.3c2.7-0.4,5.4-0.5,8.1-0.7
	c1.8-0.1,3.5-0.3,5.3-0.4c2.5-0.3,4.6-1.1,5.8-3.6c1.2-2.4,3.5-3.7,5.9-4.6c9.2-3.3,18.4-6.6,27.6-9.7c3.5-1.2,6.9-2.5,10-4.6
	c8.2-5.3,16.4-10.5,24.6-15.9c2.4-1.6,4.6-3.5,6.5-5.6c4-4.3,7.8-8.9,11.8-13.3c4.2-4.6,8.4-9.2,12.8-13.6
	c7.1-7.1,15.3-12.5,24.9-15.8c9.5-3.3,18.9-6.8,28.5-10.1c4.6-1.6,8.7-3.9,12.1-7.5c3.1-3.2,6.5-6.2,9.7-9.3
	c5.9-5.5,12.8-8.8,20.8-10c7.1-1.1,14.1-2.8,21.2-4.1c6.4-1.2,12.9-2.4,19-5c0.9-0.4,1.9-0.4,2.8-0.6c2.2-0.5,4.4-1,5.9-2.8
	c1.5-1.7,3.5-2.2,5.7-2c10.9,1.4,22,2,32.7,4.9c1.4,0.4,2.8,0.7,4.2,1.2c3,0.9,5.5,2.4,6.8,5.6c1.2,2.9,3.6,4.4,6.5,5.3
	c3.4,1,6.7,2.1,10,3.3c4.6,1.5,8.6,3.9,11.7,7.9c3.1,4,7.2,6.8,12.1,8.4c4.7,1.5,7,4.7,7.1,9.6c0.2,5.9,0.3,11.8,0.5,17.7
	c0.1,1.6,0.1,3.2,0.5,4.7c1,3.7,3.6,5.6,7.4,5.5c1.1,0,2.3-0.1,3.3-0.5c4.4-1.5,8.8-1,13.3-0.2c6.3,1.1,12.6,2.1,18.9,3
	c2.3,0.3,4.8,0.4,7.1,0.1c5.6-0.8,10.1,1.2,13.8,5.1c2.6,2.7,4.4,5.9,4.9,9.7c0.3,2.4,0.1,4.8-0.9,7c-2,4.3-2.3,8.7-1.4,13.5
	c2,10.2,1.1,20.4-0.8,30.5c-0.5,2.6-1.6,5.2-2.8,7.6c-1.5,3.2-3.3,6.2-5.2,9.2c-7.1,10.5-14.2,20.9-21.4,31.3
	C1928.8,696.6,1928.3,697.6,1927.4,699z"/>
</svg>
