<?xml version="1.0" encoding="utf-8"?>
<!-- Generator: Adobe Illustrator 22.0.0, SVG Export Plug-In . SVG Version: 6.00 Build 0)  -->
<svg version="1.1" id="Layer_1" xmlns="http://www.w3.org/2000/svg" xmlns:xlink="http://www.w3.org/1999/xlink" x="0px" y="0px"
	 viewBox="0 0 2880 1800" enable-background="new 0 0 2880 1800" xml:space="preserve">
<path d="M1092.2,1232.9c1.1,6.4,4,8.8,9.7,8.2c2.1-0.2,4.1-0.7,6.2-1c4-0.6,7.9-0.8,11.9,0.4c4.5,1.3,8,4,10.2,8.2
	c2.9,5.6,4.9,11.5,6,17.6c1.4,7.5-2.7,13.7-10.2,15.4c-7.5,1.8-15.1,2.7-22.8,3.1c-17.6,0.9-35.2,1.8-52.7,2.6c-0.3,0-0.6,0-1,0.1
	c-7.6,0.2-13.3-2.9-16.6-9.9c-2.7-5.8-5.5-11.6-7.8-17.5c-1.6-3.9-3.8-6.9-7.7-8.7c-4-1.8-7.2-4.8-10.2-7.9c-2.9-3-4.7-6.5-5.3-10.5
	c-0.4-2.7-0.8-5.4-0.9-8.1c-0.4-11.7-0.7-23.3-1.2-35c-0.5-12.8-1.1-25.6-2-38.3c-0.8-11-2.7-21.9-6.1-32.5c-1.9-5.9-3.5-12-5.2-18
	c-3.4-12.6-5-25.4-5.1-38.4c-0.1-14.4,0.4-28.8,1.9-43.1c1-9.5,1.9-19.1,3-28.6c1.2-10.2,0.2-20.1-2.2-30
	c-3.6-15.2-7.1-30.5-10.6-45.8c-2.7-11.8-5.2-23.7-6.8-35.8c-1.5-11.4-2.4-22.9-1.7-34.5c0.6-8.9,0.8-17.9,1.3-26.8
	c0.5-8.8,1.3-17.6,3.2-26.2c2.5-11.5,6.9-22.3,12.6-32.5c0.9-1.7,1.9-3.3,2.6-5.1c2.3-5.7,0.6-10.7-5-13.2
	c-4.1-1.8-8.5-2.9-12.7-4.2c-1.8-0.6-3.8-0.8-5.6-1.3c-12.1-3.3-19-11.5-20-24c-0.4-5.1-0.5-10.2-0.7-15.3c-0.1-3.5-0.2-7-0.4-10.6
	c-0.2-3.9-1-7.6-2.9-11c-3.9-7.2-7.7-14.4-11.7-21.5c-1.2-2.2-1.9-4.3-1.8-6.8c0.1-3.4-0.4-6.8,0.2-10.1c0.6-3.2,2.3-6.2,3.5-9.4
	c2.4-6.5,5-12.8,8.9-18.5c2.9-4.3,6-8.3,9.7-11.9c6.8-6.6,14.8-11.1,24.1-13.3c0.6-0.2,1.2-0.3,1.9-0.5c7.5-1.7,13.5-5.6,18.4-11.4
	c3.5-4.2,6.9-8.4,10.4-12.5c2.4-2.8,4.8-5.6,7.4-8.2c4.5-4.5,9.8-7.5,16.1-9c21.1-5.2,41.9-4.5,62.3,3.1c10.6,4,21.5,5.9,32.7,6.9
	c11,0.9,22,1.8,33,2.9c6.5,0.7,13,1.8,19.3,3.7c9.2,2.7,16.6,7.7,22.7,15.2c15.2,18.8,23.9,40.3,27.9,63.9
	c1.4,8.5,1.7,17.2,0.5,25.8c-0.1,0.8-0.1,1.6-0.2,2.4c-0.2,1.8,0.6,3.2,2.1,4.1c1.5,0.9,3.1,1.6,4.8,2.2c6.8,2.3,13.9,3.7,21.1,4.5
	c15.3,1.7,30.7,1.3,46,0.5c12.6-0.6,25.2-1.5,37.8-2.5c9.4-0.7,18.8-1.6,28.2-2.4c9.2-0.8,18.5-1.5,27.7-2.3
	c9.9-0.8,19.8-1.7,29.6-2.6c4.8-0.4,9.6-0.8,14.3-1.3c6.9-0.6,13.6-2,20.1-4.4c30.8-11.4,59.6-26.4,86.6-45
	c9.2-6.4,18.3-12.9,27.4-19.4c5-3.5,9.9-7.1,14.9-10.5c6-4,12.4-7.3,19-10.2c5.4-2.4,10.6-5.2,15.9-7.9c3.4-1.8,6.7-3.8,9.9-5.9
	c14-8.8,28.6-16.4,43.6-23.3c6.8-3.1,13.7-6.2,20.5-9.5c5.4-2.7,11-4.1,16.9-5c11.5-1.7,23.1-3.6,34.6-5.6c3.6-0.6,7.2-1.6,10.6-2.8
	c4.9-1.7,9.8-1.1,14.7-1c1.1,0,2.1,0.7,3.1,1.1c5.1,2.2,10.3,4.4,15.4,6.7c6.3,2.8,12.9,4.7,19.9,5c10.2,0.4,18.8,4.6,26.3,11.4
	c2,1.8,3.9,3.8,5.8,5.8c14.8,15.7,29.7,31.4,45.3,46.4c1.4,1.3,2.7,2.7,4,4.1c2.3,2.4,3.6,5.2,3.9,8.6c1.3,12.9,2.7,25.8,4.1,38.6
	c0.2,2.1,0.4,4.1,0.8,6.2c1.2,7.4,4.8,13.1,11.5,16.7c7.5,4,14.8,8.3,22.2,12.4c5.4,3.1,10.8,6.2,15.7,10.2
	c4.5,3.7,8.4,7.9,11.4,12.9c1.3,2.1,2,4.3,1.9,6.8c-0.1,6.4,0,12.8,0,19.2c0,8.2-3.5,14.8-9.7,20c-2.7,2.3-5.9,3.9-9.2,5.1
	c-1.7,0.6-3.3,1.1-5,1.7c-5.5,1.9-9.7,5.5-12.6,10.5c-0.6,1.1-1.2,2.3-1.8,3.4c-4.2,8.3-11.2,12.5-20.4,13
	c-4.9,0.2-9.9-0.1-14.9-0.3c-5.1-0.2-10.2-0.6-15.3-0.9c-5.4-0.3-7.2,0.8-9.2,5.7c-4.2,10.4-8.4,20.7-12.5,31.2
	c-3.3,8.3-6.4,16.7-9.6,25.1c-1.2,3-2.4,5.9-3.7,8.9c-2.1,4.6-5,8.5-8.6,12.1c-8.4,8.2-17.2,15.8-26.5,22.9
	c-5,3.8-9.9,7.6-14.7,11.5c-6.4,5.2-12.1,11-16.6,17.9c-1.8,2.7-4.2,4.8-6.8,6.7c-5.9,4.1-11.8,8.3-17.8,12.2
	c-7.9,5-13.2,11.8-16.5,20.6c-4.5,12.1-12.1,22.1-22.2,30.1c-4,3.2-8.4,5.9-12.7,8.6c-3.2,2-6.7,3.8-10,5.6
	c-16.2,8.8-27.8,21.8-34.7,38.9c-5.3,12.9-8.6,26.4-10.7,40.2c-1.8,11.9-2.3,23.9-2.4,35.9c-0.2,17.3-0.1,34.6-0.1,51.8
	c0,1.1,0,2.2,0.2,3.4c0.5,3.9,1.5,5,5.3,5.6c2.2,0.4,4.4,0.7,6.7,0.8c6.5,0.4,12,3,16.8,7.4c5.6,5,9.7,11.1,12.3,18.1
	c2.7,7,0.9,12.5-5.2,16.7c-1.8,1.3-3.9,2.2-5.8,3.3c-2.1,1.2-4.3,2.2-6.2,3.6c-3.9,2.7-3.5,6.1,0.7,7.9c3.6,1.5,7.4,2.1,11.2,2.7
	c2.8,0.5,5.7,1,8.4,1.8c7.7,2.4,12.9,7.5,15.5,15.2c1.6,4.6,2.4,9.3,2.4,14.1c0,4.6-2.1,8-6.2,10c-2.1,1.1-4.4,2-6.6,2.7
	c-11.8,3.8-23.8,6.3-36.1,7.7c-3.5,0.4-7,0.3-10.5,0.3c-7.5,0-14.2-2.4-20-7c-3.1-2.5-6-5.3-8.7-8.2c-2.4-2.6-4.4-5.5-6.5-8.3
	c-8.5-10.9-16.9-21.7-25.4-32.6c-3.6-4.5-7.2-9-10-14c-3.7-6.5-6.1-13.3-6.5-20.9c-0.4-7.3-2.1-14.2-5.2-20.8
	c-2.1-4.5-4.4-8.9-6.6-13.3c-1.6-3.1-3.4-6.2-5-9.3c-3.3-6.6-5.6-13.6-7-20.8c-2.5-12.7-5.3-25.3-9.5-37.6
	c-1.3-3.8-2.6-7.6-4.1-11.3c-3-7.3-3.6-14.9-2.1-22.6c0.6-3,1.2-6,1.7-8.9c0.2-1.4,0.4-2.9,0.4-4.3c0-2.3-1.2-3.6-3.4-3.8
	c-1.7-0.2-3.5-0.1-5.3,0c-18.9,0.3-37.8,0.6-56.6-1.1c-9.2-0.8-18.4-2.3-27.5-4c-18.3-3.2-36.5-6.8-54.7-10.1
	c-25.5-4.6-50.8-10.1-76-16.1c-26.4-6.3-52.9-12.6-79.3-18.9c-1.4-0.3-2.8-0.6-4.2-0.8c-1.8-0.2-3.1,0.6-3.9,2.2
	c-0.7,1.4-1.3,2.9-1.9,4.4c-4.2,10.4-9.2,20.4-14.8,30.1c-10.8,18.7-23.6,35.7-39.2,50.7c-4.3,4.1-8.6,8.1-12.9,12.2
	c-1.7,1.6-3.5,3.3-5.2,5c-7.2,7-11.6,15.4-13.1,25.5c-2.5,16.8-3.3,33.7-2.4,50.7c0.3,4.9,2.7,8.4,6,11.6c1.2,1.2,2.8,1.5,4.4,1.3
	c1.9-0.3,3.8-0.6,5.7-0.9c4.4-0.6,7.8,0.8,10.3,4.5c4,5.9,7.1,12.2,8.1,19.3c0.2,1.7,0.4,3.5,0.3,5.3c-0.2,7.1-3.6,11.5-10.4,13.1
	c-3.9,0.9-7.8,1.7-11.8,2.1c-8.3,0.8-16.6,1.4-24.9,2c-5.3,0.4-10.5,0.6-15.8,0.9C1094.2,1232.2,1093.2,1232.7,1092.2,1232.9z"/>
</svg>
