<?xml version="1.0" encoding="utf-8"?>
<!-- Generator: Adobe Illustrator 22.0.0, SVG Export Plug-In . SVG Version: 6.00 Build 0)  -->
<svg version="1.1" id="Layer_1" xmlns="http://www.w3.org/2000/svg" xmlns:xlink="http://www.w3.org/1999/xlink" x="0px" y="0px"
	 viewBox="0 0 2880 1800" enable-background="new 0 0 2880 1800" xml:space="preserve">
<path d="M956,652.1c4.7-0.4,8.5,1.4,11.6,4.6c1.7,1.7,3.3,3.4,4.9,5.3c22,25.8,48.4,46,78.7,61c18.2,9,36.1,18.6,53.8,28.5
	c4.3,2.4,8.7,4.7,13,7.2c8.9,5.2,18.2,9.3,27.7,13.3c18.1,7.5,36.6,8.5,55.5,3.5c13.6-3.6,27.1-7.5,40.7-11.3
	c25.6-7,51.4-13.4,77.4-18.4c14-2.7,28.1-4.4,42.3-5.2c16.9-1,33.9-1.8,50.8-3c12.4-0.9,24.9-2.2,37.3-3.3c8-0.7,15.9-1.4,23.9-2.3
	c12.2-1.3,24.5-2.7,36.7-4.2c7.3-0.9,14.4-3.1,21.2-6c9-3.8,18-7.6,26.9-11.6c16.9-7.7,33.7-15.5,50.6-23.2c5.4-2.5,10.6-5.3,15.3-9
	c6.2-4.8,11.2-10.5,14.3-17.7c12.4-28,28.3-54.1,45.5-79.4c4.9-7.1,9.8-14.2,14.8-21.3c5.6-7.8,8.6-16.3,8.8-25.9
	c0-2.7,0.4-5.4,0.9-8.1c1.6-7.5,5.4-13.7,12-17.8c4.9-3,10-5.8,15.1-8.3c5.8-2.9,11.9-4.3,18.4-4.8c12.6-1.1,25.2-1.3,37.9-0.7
	c13.8,0.7,27.3,3.1,40.4,7.5c3.5,1.2,6.9,2.6,10.2,4.1c7.9,3.8,14.7,9,20,16c2.8,3.7,6.3,6.4,10.5,8.2c4,1.6,8,3.1,12.2,4.3
	c19.4,5.5,39,9.9,58.7,14.5c2.5,0.6,5,1.1,7.5,1.8c1.4,0.4,2.8,0.9,4,1.5c3.6,1.9,5.6,4.8,5.5,8.9c-0.1,3-0.5,6.1-1,9
	c-1.6,9.5-4.5,18.6-9.4,27c-7.1,12.1-17.3,20.8-30,26.7c-2,0.9-4.2,1.4-6.4,2c-3.5,1-7.1,1.9-10.6,3c-3.5,1.1-6.7,2.9-9.4,5.5
	c-1.4,1.3-2.9,2.5-4.5,3.6c-4.1,2.9-8.3,3.1-12.6,0.5c-1.5-0.9-3-1.9-4.4-3c-6.2-4.8-13.4-6.7-21.1-6.2c-3,0.2-6,0.7-9,1.1
	c-6.6,1-13.3,2-20.5,3.1c-0.3,0.3-1,1.1-1.7,2c-3.9,5.9-7.7,11.8-11.6,17.6c-2.2,3.2-3.8,6.6-4.5,10.5c-0.2,1.1-0.6,2.1-1.1,3.5
	c-0.9-0.4-1.8-0.7-2.6-1.2c-2.5-1.7-4.9-3.5-7.4-5.4c-1.5,1.1-1.5,2.7-1.8,4c-3.3,11.7-6.6,23.4-9.9,35.1c-2.1,7.6-5,14.8-8.5,21.9
	c-6.5,12.9-11.9,26.2-15.7,40.1c-3.6,13.7-5.4,27.6-4.8,41.8c0.1,2.7,0.2,5.4,0.3,8.2c1.3,30.7-4.9,59.7-17.9,87.5
	c-2.3,4.9-4.4,10-6.6,14.9c-3.4,7.4-6.6,14.9-10.3,22.2c-7.4,15-12.2,30.9-15.3,47.3c-2.6,13.9-3.8,27.9-4.9,41.9
	c-0.7,8.9-1.5,17.8-2.3,26.8c-0.8,9.4-1.7,18.8-2.4,28.2c-0.7,9.3-1.4,18.5-1.6,27.8c-0.3,9.6-0.2,19.2,0.1,28.8c0.5,16,1,32,0.3,48
	c-0.3,7.2-0.8,14.4-0.9,21.6c-0.2,9.3-0.3,18.6,0.9,27.8c1,7.4,2.2,14.9,3.4,22.3c0.4,2.5,0.9,5,1.5,7.5c0.4,1.7,0.9,3.4,1.6,5
	c1.8,4,4.9,6.7,9.2,7.8c1.2,0.3,2.5,0.5,3.8,0.8c3.7,0.7,7.1,2,10.1,4.2c5.8,4.3,9.4,10.2,12.8,16.7c-0.9,0.4-1.5,0.8-2.1,0.8
	c-5.9,0.8-11.7,1.5-17.6,2.4c-7.9,1.2-15.6,0.3-23.3-1.4c-4.1-0.9-8.1-1.8-12.2-2.8c-1.1-0.3-2.2-0.6-3.2-0.9
	c-5.5-1.9-8.8-5.7-9.8-11.4c-0.3-1.9-0.6-3.8-0.7-5.7c-0.4-10.1-2.1-20-3.5-30c-0.4-3.2-1-6.3-1.5-9.5c-0.7-4.9-2.7-8.8-7.8-10.5
	c-1.5-0.5-2.3-1.6-3-3c-1-2.2-1.7-4.5-1.7-6.9c-0.1-2.2-0.1-4.5-0.2-6.7c-0.8-23.3-1.6-46.7-2.5-70c-0.7-18.4-1.5-36.8-2.3-55.1
	c-0.2-3.6-0.3-7.3-0.8-11.1c-1.3,0-2.3,0-3.2,0c-0.3,0.6-0.5,0.8-0.5,1.1c-0.4,4.1-0.8,8.3-1,12.4c-1.1,19.3-2.1,38.7-3.2,58
	c-0.9,15-1.9,30-2.8,45c-0.2,3.5-0.6,7-1,10.5c-1.9,13.6-0.1,26.8,3.6,39.8c2.9,10,6.9,19.6,11.1,29.1c1,2.3,2.6,4,4.4,5.6
	c6.1,5.4,10.2,12.3,14.1,19.2c1.3,2.4,0.1,6.6-2.2,8.1c-0.5,0.3-1.2,0.5-1.8,0.6c-6,0.8-12,1.7-18.1,2.4c-9.2,1-17.4-1.5-24.9-6.8
	c-6.3-4.5-9.7-10.9-11-18.4c-1-6-2-12-2.7-18c-1.5-11.8-4.7-23.2-9.5-34.1c-1.8-4.1-3.7-8.2-5.4-12.3c-1.1-2.8-2.2-5.7-3-8.6
	c-1.1-4.1-1.2-8.2,0.1-12.3c1-3.4,1.3-6.9,1.2-10.4c-0.5-12.5-1-24.9-1.5-37.4c-0.4-9.4-0.7-18.9-1-28.3
	c-0.5-12.9-0.9-25.9-1.3-38.9c-0.7-19-1.4-38-2.1-57.1c-0.4-9.4-3.1-18.2-6.2-27c-1.9-5.3-5.8-8.4-11.2-9.4
	c-3.6-0.7-7.2-1.3-10.9-1.7c-21.1-1.9-41.6-7-61.7-13.4c-16.1-5.1-32.2-10.6-48.3-15.9c-19.9-6.6-40.2-11.6-61-14.9
	c-21.6-3.4-43.3-4.3-65.1-3c-5.3,0.3-10.5,1-15.7,1.7c-2.5,0.3-5,1-7.4,1.8c-5.5,1.8-9.2,5.6-11.3,11c-0.3,0.9-0.7,1.8-0.9,2.7
	c-3.2,13.1-7.7,25.7-11.8,38.5c-1.4,4.4-2.7,8.9-4,13.3c-5.8,19.5-16.1,36.1-32.1,49c-25.4,20.5-50.8,41-76.2,61.5
	c-2.2,1.8-4.7,3.3-6.9,5.1c-2.2,1.8-4.5,3.7-6.2,5.9c-9.8,13.1-19.1,26.5-27.1,40.7c-7.3,13-13.3,26.6-17,41.1
	c-4,16-4.6,32.2-2.2,48.6c0.3,2.2,1,4.4,1.6,6.5c1.7,5.3,5.4,8.6,10.8,9.8c0.3,0.1,0.6,0.2,0.9,0.2c5.9-0.1,9.8,3.3,12.9,7.8
	c0.8,1.2,1.7,2.3,2.5,3.4c-2.9,3.5-7.3,6.5-11.1,7.2c-4.7,0.9-9.4,1.8-14.1,2.9c-5.1,1.3-10.2,0.4-15.1-1.4
	c-4.5-1.6-8.6-4.1-12.7-6.7c-2-1.3-3.4-3.1-3.9-5.3c-0.8-3.4-1.7-6.9-1.9-10.3c-0.8-13.7-1.2-27.5-1.8-41.2
	c-0.4-9.6-0.6-19.2-1.3-28.8c-0.7-9.1-2-18.1-3.2-27.2c-0.6-4.6-1.5-9.1-2.1-13.7c-0.3-2.4-0.4-4.8-0.4-7.2
	c-0.1-5.6,2-10.3,5.9-14.2c1.1-1.1,2.3-2.2,3.6-3.2c6.7-5.2,12.9-11,18.8-17.1c5.7-5.9,11.3-11.8,16.9-17.7c0.4-0.4,0.7-1,1.2-1.6
	c-0.6-0.7-1.1-1.2-1.7-1.9c-1.5,0.8-2.9,1.6-4.3,2.3c-7.4,4.1-14.8,8.2-22.3,12.2c-16.7,9-32.5,19.1-46.9,31.6
	c-15.7,13.7-28.7,29.6-38.5,48c-7.2,13.6-13.2,27.7-18.8,42c-3.2,8.2-6.2,16.5-9.4,24.6c-3.3,8.4-1.6,15.7,4.4,22.1
	c2.3,2.4,5,4.4,7.7,6.5c2.8,2.2,5,4.8,6.1,8.4c1.5,4.9,0.4,7.3-4.4,8.8c-1.5,0.5-3.1,0.7-4.7,0.7c-6.7,0-13.4,0.2-20.2-0.1
	c-4.8-0.2-9.5-1.1-14.3-1.8c-1.1-0.2-2.2-0.5-3.2-0.9c-7-2.5-10.9-7.9-11-15.3c0-2.8,0.4-5.8,1.2-8.5c3.5-12.8,7.3-25.5,12-37.9
	c9.6-25.3,16.6-51.4,21.3-78.1c1.7-9.7,6.1-18.1,12.8-25.3c9.2-9.8,19.5-18.5,30.4-26.4c9.6-6.9,18.9-14.2,27.9-22
	c17.1-14.8,32.8-31,46.5-49c11.9-15.6,21.5-32.6,27.6-51.3c4.3-13.2,6.7-26.6,7.3-40.5c2-40.3,10.1-79.2,25.7-116.5
	c1.9-4.4,3.7-8.8,4.3-13.7c0.8-6.1-0.9-11.4-5-15.9c-2.9-3.2-6.4-5.8-10.2-7.9c-6.2-3.6-12.5-7.1-18.8-10.6
	c-13.1-7.3-26.4-14.5-39.4-21.9c-20.7-11.8-40.5-25.1-58.8-40.6c-15.6-13.2-29.5-27.9-41.5-44.4c-4.2-5.9-7.6-12.2-10.5-18.8
	C954.6,658.5,954.5,655.3,956,652.1z"/>
</svg>
