<?xml version="1.0" encoding="utf-8"?>
<!-- Generator: Adobe Illustrator 22.0.0, SVG Export Plug-In . SVG Version: 6.00 Build 0)  -->
<svg version="1.1" id="Layer_1" xmlns="http://www.w3.org/2000/svg" xmlns:xlink="http://www.w3.org/1999/xlink" x="0px" y="0px"
	 viewBox="0 0 2880 1800" enable-background="new 0 0 2880 1800" xml:space="preserve">
<path d="M985.2,1182.4c-0.6,0.4-0.9,0.5-1.1,0.7c-6.6,7.7-12.4,15.9-16.7,25.1c-3.2,6.9-4.5,14.4-4.8,21.9
	c-0.8,15.9,0.4,31.6,3.5,47.2c0.9,4.6,3.1,7.8,7.4,9.8c11.5,5.5,18.1,14.9,20.6,27.2c0.5,2.4,1.1,4.7,1.6,7c0.5,2.9-0.2,4.6-2.9,5.2
	c-11.8,2.8-23.3,7.1-35.7,6.7c-6.9-0.2-13.7-1.3-20.4-2.6c-2.8-0.5-4.5-2.1-5.5-4.7c-2.2-5.9-3.9-11.8-5.2-18
	c-2.7-13.1-3.6-26.3-2.8-39.6c0.4-6.2,1.3-12.4,2.1-18.6c2-16,3.8-32.1,4.5-48.2c0.6-13.3,1.3-26.5,2.1-39.8
	c0.3-5.3,1-10.5,2.3-15.6c1-4.2,2.1-8.4,3-12.6c0.5-2.2,1.4-3.8,3.1-5.2c5.5-4.7,11.4-8.8,18.1-11.7c13.1-5.7,25.4-12.9,36.7-21.7
	c10.9-8.4,21.5-17.1,32.3-25.7c13.8-10.9,24.4-24.4,32.2-40.1c6.1-12.3,12.1-24.7,17.8-37.2c4.8-10.7,7.7-22,10-33.5
	c3.6-18.4,7.2-36.7,11.3-55c3.7-16.4,8.9-32.3,15.6-47.8c1.9-4.4,4.1-8.7,7-12.5c6.8-9,12.2-18.8,17.8-28.4c2.9-5,3.1-10,0.6-15.1
	c-1.3-2.7-2.8-5.4-4.3-8c-5-8.8-10-17.5-15.1-26.2c-1.4-2.5-3.2-4.7-4.9-7.1c-3.2-4.6-6.5-9.1-9.5-13.8c-3.5-5.6-6.7-11.3-9.9-17
	c-5-9-9.3-18.2-11-28.5c-0.1-0.5-0.3-0.9-0.3-1.4c-0.6-3.6,0.6-4.8,4-4.3c3.9,0.6,7.5,1.9,10.7,3.9c2.2,1.4,4.2,2.9,6.2,4.5
	c7.6,6.4,14.5,13.6,20.7,21.3c5.7,6.9,11.2,14,16.6,21.1c3.7,4.9,7.9,9.3,12.9,12.8c5.8,4,11.7,7.8,17.7,11.5
	c5.4,3.3,11.4,4.8,17.8,5c5.3,0.2,10.5-0.5,15.8-1.3c8.1-1.1,16.2-2,24.3-2.8c8.1-0.8,16.3-1.2,24.4-1.9c2.5-0.2,5.1-0.6,7.6-1
	c7.6-1.3,15.3-1.3,23-1.6c4.8-0.1,9.6-0.2,14.4-0.2c9.8,0,19.5-0.8,29.1-2.3c9.8-1.5,19.6-3,29.4-4.5c19.4-3,38.7-6.8,58-11
	c17.5-3.8,35-7.6,52.5-11.1c13.1-2.6,24.2-8.9,34.1-17.5c1-0.8,1.9-1.7,2.8-2.7c3.5-3.6,7.7-6.2,12.4-8c10.6-4,21.2-8.2,31.8-12.2
	c20.3-7.6,39.2-17.9,57.1-30.3c15.1-10.5,26.7-23.8,34.4-40.4c7.7-16.7,15.3-33.4,23-50.1c2.8-6.1,5.7-12.2,8.5-18.3
	c1.6-3.5,3.6-6.8,6.1-9.7c15.2-17.9,30.4-35.9,45.6-53.8c2.8-3.3,5.9-6.3,8.9-9.4c2.9-3,6.3-5.4,9.9-7.5c6-3.4,12.5-4.9,19.3-4.8
	c1.7,0,3.5,0,5.2-0.3c9.4-1.6,18.8-2,28.2-1.4c5.3,0.3,10.6,0.5,15.8,0.5c9.4,0,18,2.6,25.8,7.7c5.4,3.5,11,6.6,16.9,9.1
	c7.6,3.2,12.9,8.8,16,16.4c1.4,3.6,2.9,7.1,4.5,10.6c5,11.4,13.3,19.4,24.7,24.3c12.8,5.5,25.5,11,38.4,16.4c7,2.9,13.3,7,19.2,11.7
	c2.3,1.8,3.2,3.9,2.6,6.6c-0.6,2.8-1.3,5.6-2.3,8.3c-4.8,13.5-12.6,25.1-22.7,35.2c-7.2,7.2-16.1,10.9-26.3,11.2
	c-4,0.1-8-0.4-12-0.6c-1.6-0.1-3.2-0.4-4.8-0.3c-7.1,0.8-14.1-0.2-20.9-1.9c-13.4-3.1-27.1-4.8-40.7-6.2c-8.3-0.8-16.5-1.9-24.8-2.9
	c-0.6-0.1-1.3-0.2-1.9-0.2c-3.1-0.4-5.3,0.8-6.7,3.6c-0.3,0.7-0.7,1.5-1,2.2c-6.7,12.4-10.7,25.6-13.6,39.3c-2.7,13-5.1,26-7.7,39.1
	c-1.4,7.4-3,14.7-4.4,22.1c-1.2,6.5-1.8,13-1.8,19.6c0,7.4,1.9,14.2,5.6,20.6c3.7,6.4,7.1,12.9,10.6,19.3c3.4,6.4,4.8,13.2,4.4,20.4
	c-0.5,8.6-1,17.2-1.5,25.9c-0.1,1.9-0.4,3.8-0.4,5.7c-0.1,9.5-1.7,18.8-4.1,27.9c-2.5,9.3-5.1,18.5-7.5,27.8
	c-1.1,4.1-3,7.8-5.9,10.8c-5.2,5.4-9.4,11.7-14,17.6c-7.4,9.6-15.1,19.1-22.8,28.5c-2.2,2.7-4.9,5.1-7.6,7.3
	c-4.3,3.5-6.8,7.9-8.3,13.2c-1.7,6-2.6,12.2-3.6,18.3c-3.2,19.6-6.4,39.1-10.1,58.6c-2.8,14.8-4.7,29.7-5.6,44.7
	c-0.8,13.1-2.1,26.1-3.9,39.1c-0.9,6.8-1.2,13.7-1.4,20.6c-0.2,7.2,0.1,14.4,0,21.6c-0.1,5.9-0.4,11.8-0.9,17.7
	c-0.5,6-0.1,11.7,2.1,17.4c3.5,8.9,6.7,18,9.7,27.1c2.1,6.3,6.4,9.7,12.7,11c1.3,0.3,2.5,0.4,3.8,0.7c12.4,2.6,23,8.6,31.8,17.7
	c3.3,3.4,6.4,7.2,9.6,10.8c0.4,0.5,0.8,1,1.1,1.5c1.3,2.1,1.4,4.1-0.4,5.7c-5.4,5.2-11,10.3-18.6,12.3c-2.3,0.6-4.7,0.7-7.1,0.8
	c-2.1,0.1-4.1,0.4-5.9,1.6c-2.1,1.3-2.7,2.6-1.7,4.8c1.2,2.9,2.7,5.8,4.2,8.6c1.1,2.1,2.5,4.1,3.6,6.2c1.1,2.2,0.6,3.6-1.5,4.8
	c-0.3,0.2-0.6,0.3-0.9,0.4c-8.3,2.9-16.5,6.2-25.1,8c-4.8,1-9.8,1.5-14.7,1.7c-4.6,0.2-9.3-0.3-13.9-0.4c-4,0-7.5-1.6-10.6-4
	c-5.4-4.2-8.8-9.7-10.2-16.3c-1.4-6.9-2.5-13.8-3.9-20.7c-2.1-10.8-4.3-21.6-6.7-32.4c-0.9-3.9-2.3-7.7-3.9-11.3
	c-1.1-2.6-2.8-5-4.3-7.4c-1.5-2.3-3.6-3.3-6.2-2.1c-3,1.4-5.2,0.4-7.3-1.7c-0.1-0.1-0.2-0.2-0.3-0.3c-3.2-2.3-3.7-5.2-2.3-8.8
	c2.7-7.7,5.1-15.5,6.5-23.5c0.7-4.1,1.2-8.2,1.6-12.4c0.8-7.5,1.6-14.9,2.3-22.4c0.3-3.2,0.7-6.4,0.7-9.6c-0.1-12-0.4-24-0.5-36
	c-0.1-8.2-0.9-16.3-2.1-24.4c-2-14.1-3.5-28.3-4.3-42.5c-0.4-7.5-0.7-15-1-22.5c-0.2-5.5-1.6-10.8-3.8-15.8
	c-2.4-5.6-5.1-11-7.7-16.5c-1.3-2.8-3.3-4.1-6.4-4.1c-8.2-0.1-16.3-0.4-24.5-0.4c-13-0.1-25.9-1.5-38.6-4.2
	c-14.2-3-28.4-6.2-42.6-9.4c-3.9-0.9-7.7-2-11.5-3.3c-9.6-3.4-19.5-5.1-29.5-6.3c-6.2-0.8-12.4-1.4-18.6-2.2
	c-8.1-1-16.2-1.8-24.4-1.5c-12.3,0.4-24.6-0.8-36.9-1.5c-8-0.5-16-1-24-1.5c-6.7-0.4-13.4-0.6-20.1-0.9c-1.7-0.1-3.5-0.2-5.2-0.7
	c-5.3-1.4-10.7-2-16.1-2.1c-14.9-0.3-29.8-0.7-44.6,0.6c-2.2,0.2-4.4,0.5-6.6,1c-7.4,1.5-13.2,5.2-17.7,11.3
	c-10.6,14.5-21.4,28.8-31.9,43.3c-10.6,14.6-22.7,27.7-36.7,39c-9.5,7.7-19.5,14.5-30,20.6c-4.3,2.5-8.6,5-12.7,7.8
	c-18.1,12.4-36.8,23.7-55.5,35.3c-7.5,4.6-14.8,9.5-22.2,14.2c-5.9,3.7-11.1,8.2-15.3,13.7c-4.8,6.4-9.5,12.8-14.1,19.4
	c-1.3,1.9-2.3,4.2-2.9,6.5c-2.1,8-4.3,16.1-6,24.2c-1.7,8.2-1.5,16.5-1.4,24.9c0,2.2,1.1,3.6,3.3,4.1c0.5,0.1,0.9,0.3,1.4,0.4
	c5.9,1.3,11.1,4.1,15.9,7.6c10.9,7.9,19.7,17.7,26.1,29.7c1.2,2.2,0.8,3.9-1.4,5.3c-6.4,3.8-13.2,6.7-20.8,6.5
	c-12.2-0.2-24.3-0.7-36.5-1c-1,0-1.9-0.2-2.9-0.2c-4-0.3-6.5-2.6-7.3-6.5c-1-4.7-2.1-9.4-2.7-14.1c-1.2-10-2.3-20-3.1-30.1
	c-1-12.1-2.5-24.2-5.8-35.9c-0.3-0.9-0.6-1.8-1-2.7C986.2,1183.3,985.7,1183,985.2,1182.4z"/>
</svg>
