<?xml version="1.0" encoding="utf-8"?>
<!-- Generator: Adobe Illustrator 22.0.0, SVG Export Plug-In . SVG Version: 6.00 Build 0)  -->
<svg version="1.1" id="Layer_1" xmlns="http://www.w3.org/2000/svg" xmlns:xlink="http://www.w3.org/1999/xlink" x="0px" y="0px"
	 viewBox="0 0 2880 1800" enable-background="new 0 0 2880 1800" xml:space="preserve">
<path d="M1879,509.3c6.8,2.9,8,4,11.6,10.4c0.4,0.7,0.8,1.4,1.2,2.1c1.6,3.3,4,5.6,7.2,7.5c4.3,2.5,8.4,5.3,12.6,8
	c2.4,1.6,4.4,3.6,5.9,6.2c-4.5,1.9-9.3,1.4-13.9,3.6c2.7,2.1,5.1,3.9,7.6,5.9c-0.4,1.7-0.8,3.4-1.2,5.3c3.1,3.9,6.7,7.5,10.2,11.2
	c3.4,3.8,6.9,7.5,10.6,11.5c-1,0.7-1.7,1.3-2.5,1.7c-2.8,1.3-5.6,2.4-8.7,3.8c1.1,1.1,1.9,2.1,2.8,2.9c2.7,2.1,4.1,4.9,4.6,8.1
	c0.4,2.5,0.9,5.1,1,7.6c0.2,3.5,1.2,6.6,2.9,9.5c1.8,3,3.5,6.1,5.3,9.1c2.3,3.7,1.6,6.9-1.2,10.1c-4.1-0.2-7.5-2.5-11.4-3.7
	c-0.8,3.7,1.3,6.8,0.9,10.1c-0.6,0.8-1.4,0.4-2.1,0.1c-4.4-1.8-8.9-3.6-13.3-5.4c-0.9-0.4-1.8-0.7-2.7-0.9c-0.6-0.2-1.6,0.9-1.5,1.5
	c0.1,0.6,0.3,1.3,0.6,1.8c1.5,2.8,3,5.6,4.6,8.4c0.9,1.5,2,2.9,2.8,4.5c1.6,2.9,1.1,4.2-2.1,5.6c-1.3,0.6-2.8,0.9-4.1,1.4
	c-0.8,0.4-1.7,1-2.3,1.6c-0.8,0.9-0.5,2.2,0.5,2.9c0.5,0.4,1.1,0.7,1.6,1c2.6,1.3,4.1,3.2,4.4,6.3c0.4,3.7,2.1,7,4.4,10
	c1.7,2.3,3.5,4.6,5.5,6.6c12.9,13.4,22.7,28.9,30.3,45.8c2.6,5.8,4.9,11.8,7.2,17.8c5,13.3,5,26.5-0.1,39.8c-3,7.9-5.6,16-8.3,24
	c-1.1,3.2-2.8,6-5.4,8.6c-1.8-1.6-2.6-3.7-3.8-5.5c-1.2-1.9-2.4-3.8-3.7-5.9c-1.1,0.4-2.2,0.7-3,1.2c-1.2,0.8-2.2,1.9-3.2,2.9
	c-12,11.8-24,23.6-35.9,35.3c-1.5,1.5-3,2.9-4.9,3.8c-1.1,0.5-2.1,1.5-3,2.4c-3.6,3.6-7,7.4-9.2,12.5c-2.5-1.6-4.8-3.1-7.2-4.6
	c-3.1,1.2-5.3,4-8.7,5.5c-0.4-0.9-0.7-1.5-0.9-2.2c-1.2-4.5-2.4-9-3.6-13.4c-0.2-0.8-0.3-1.6-0.7-2.3c-0.3-0.5-0.9-1-1.5-1
	c-0.5,0-1.3,0.4-1.5,0.8c-0.6,1.3-0.9,2.7-1.4,4.1c-0.9,2.5-1.9,5.1-3.7,7.4c-3.7-0.6-6.1-2.5-6.6-6.4c-0.7-5.1-1.8-10.1,0-14.8
	c-1.2-1.5-2.4-1.2-3.4-0.8c-1.2,0.4-2.3,1.2-3.4,1.8c-6.6,4-13.2,7.9-19.7,11.9c-2.9,1.8-5.7,2.7-9.1,1.8c-1.5-0.4-3.2-0.4-4.8-0.3
	c-4.8,0.3-8.1,2.6-9.8,7.2c-0.4,1.2-0.8,2.4-1,3.7c-1,6.5-2,13-2.8,19.5c-1,8.3-1.9,16.5-2.8,24.8c-0.3,2.8-1.1,5.3-3,7.4
	c-2.6,3-2.7,6.4-1.3,9.9c1.1,2.7,2.4,5.2,3.7,7.8c8.6,17.6,15.7,35.7,21.9,54.2c0.9,2.6,1.6,5.2,1.6,8c-0.1,4-1.7,6.3-5.6,7.3
	c-1.8,0.5-3.8,0.5-5.7,0.8c-1,0.2-2.1,0.4-3.4,0.7c0.4,1.4,0.5,2.4,0.9,3.4c2.2,5.7,4.5,11.3,6.6,17c0.9,2.5,1.8,5.1,2.3,7.8
	c1.1,5.5-0.1,8-5,10.7c-2.4,1.3-4.9,2.3-7.4,3.5c-7.2,3.4-12,9-14.1,16.7c-0.7,2.4-0.8,5-1.1,7.6c-0.2,1.6-0.3,3.2-0.6,4.7
	c-0.7,3.2-2.7,5.4-6,6.2c-1.2,0.3-2.4,0.6-3.9,1c0.4,1.7,0.8,3.2,1.2,4.7c1.3,4.6,2.7,9.2,4,13.8c0.7,2.5,1.1,5,0.2,7.5
	c-4.2,0.4-6.7-1.6-8.4-5.1c-0.8-1.7-1.4-3.6-3-5.2c-1.3,1-2.5,1.9-3.8,3c0.8,2.2,1.5,4.1,2.1,6.1c1.6,4.7,3.1,9.4,4.8,14.1
	c1.2,3.5,1.2,6.9-0.6,10.5c-2.6-0.6-5-1.6-7.1-3.4c-1.6-1.4-3-2.8-4.5-4.3c-1.3-1.2-2.5-2.4-3.8-3.8c-1,0.4-1.8,0.8-2.8,1.2
	c-0.1,3.3,0.7,6.4,1.1,9.5c0.8,6.2,1.9,12.3,1.4,18.6c-0.1,1.4-0.2,2.9-0.5,4.3c-0.1,0.8-0.3,1.6-0.7,2.3c-1,2.2-3.4,2.7-5.2,1
	c-1-1-1.9-2.2-2.5-3.5c-0.8-1.7-1.2-3.6-1.9-5.4c-0.3-0.7-0.7-1.3-1.2-2.1c-2.5,2.6-3.6,5.6-4.4,8.7c-1.2,4.3-2.4,8.6-3.5,13
	c-0.9,3.3-3,5.5-5.9,7.2c-2.8-3.3-4.2-6.9-4.3-11.1c-0.1-1.9-0.4-2-3-1.8c-1.5,3.8-2.7,7.7-2.8,12c-0.3,13.8-0.4,27.5,0.1,41.3
	c0.3,7.6,1.8,14.9,4,22.1c2.2,7.1,7.2,10.7,14.4,11.5c2.2,0.2,4.5,0.2,6.7,0.3c4.5,0.3,8.2,1.9,11.2,5.6c4.3,5.2,8.5,10.4,11.3,16.6
	c2.8,6,4.5,12.3,4.4,19c-0.1,4.6-1.6,6.4-6.2,7c-2.4,0.3-4.8,0.4-7.2,0.5c-4.3,0.2-8.1,1.3-11.7,3.6c-10.6,6.7-22.2,10.5-34.6,12.1
	c-10,1.2-20,2.2-30.1,1.8c-14.3-0.5-26.9-5-37.5-14.8c-0.5-0.4-0.9-0.9-1.4-1.3c-3.1-2.4-5.6-1.9-7.4,1.7c-1,2.1-1.8,4.5-2.1,6.8
	c-0.9,9.1,0.9,17.8,5.1,26c1.4,2.7,3.3,5.1,5.7,7c3.8,2.9,6.2,6.9,7.3,11.5c0.7,2.8,1.1,5.6,1.7,8.4c0.5,2.5,0.9,5.1,1.8,7.5
	c1.1,3.2,0.4,5.8-2.3,7.6c-3.7,2.5-7.6,4.8-11.6,6.8c-2.1,1-4.6,1.5-6.9,1.7c-11,1.1-22,1.9-33,2.9c-9.2,0.8-18.5,1.7-27.7,2.6
	c-4.9,0.4-9.9,0.8-14.8,1.2c-5.4,0.4-10.5-0.7-15.4-2.8c-9.6-4.1-17.7-10.2-24.1-18.4c-1.7-2.1-3-4.5-4.3-6.9
	c-1.4-2.4-1.9-5-1.6-7.8c0.7-5.1-0.8-9.8-3.6-14.1c-1.4-2.1-2.9-4.2-4.5-6.2c-3.6-4.7-6.9-9.6-9.5-14.9c-4.5-9-6.9-18.5-6.5-28.7
	c0-1.3,0-2.6,0-3.8c0-0.1-0.1-0.3-0.3-0.6c-1-0.9-2.3-0.5-3.5-0.5c-8,0.4-13.8-3.1-17.7-10c-1.7-3.1-3.5-6.1-5.4-9.2
	c-1.5,0.2-2.9,0.4-4.3,0.6c-4.6,0.8-5.6,0.1-6.4-4.6c-0.3-1.7-0.4-3.5-0.7-5.2c-0.4-3.5-0.9-7-1.4-10.5c0-0.3-0.3-0.5-0.5-0.8
	c-1-0.4-1.4,0.4-1.9,0.9c-1.8,2-3.6,4.1-5.4,6.1c-1,1.1-1.9,2.2-3,3.1c-2.5,1.9-4.9,1.5-6.5-1.1c-1-1.6-1.8-3.4-2.2-5.3
	c-0.9-4.2-1.4-8.5-2.1-12.8c-0.3-1.7-0.5-3.5-1-5.2c-0.8-2.3-2.5-3.2-4.9-2.6c-1.5,0.4-3,1.1-4.4,1.9c-2.1,1.2-4,2.7-6.2,3.7
	c-2,0.9-4.1,1.7-6.3,2.1c-2.4,0.4-4.6-0.2-6.4-2.4c-2.6-3.1-4.4-3.2-7.9-1c-2.7,1.7-5.3,3.5-8.1,5.2c-1.1,0.6-2.3,1-3.5,1.6
	c-1-1-1.9-1.9-2.9-2.7c-3-2.9-6.6-3.9-10.6-2.4c-1.7,0.6-3.3,1.3-4.9,2c-1.5,0.7-3.1,0.8-4.7,0.4c-5.2-1.3-9-4.2-10-9.8
	c-0.5-3-2.1-5.3-4.2-7.5c-1.4,0.5-2.7,1.1-4,1.6c-2.4,0.8-4.8,1.7-7.3,2.2c-4.7,0.9-8.5-0.8-11.1-4.8c-2.1-3.1-3.2-6.6-4-10.2
	c-0.6-2.9-1.7-5.4-4.2-7.5c-2.9,0.6-4.8,2-5.6,5.1c-1,4-1.1,7.9,0.6,11.7c1.7,4,3.5,7.9,5.4,11.8c1.5,3.2,2.8,6.4,3.4,10
	c0.6,3.6-0.1,7-2,10.1c-2.3,3.8-5.7,6-10.2,6.1c-2.4,0-4.8-0.3-7.1-0.6c-1.6-0.2-3.1-0.7-4.7-1c-2-0.4-3.8-0.1-5.4,1.2
	c-0.4,0.3-0.8,0.6-1.2,0.9c-10.1,7.4-21.3,9-33.3,5.8c-3.7-1-7.4-2.2-10.8-3.8c-4.5-2-9.1-3-13.9-3.1c-4.5-0.1-9,0.1-13.4,0.2
	c-3.2,0.1-6.4,0.3-9.6,0.4c-9.3,0.4-15.9-6.1-17.4-14.6c-1.1-6-1.9-12-2.9-18c-1.2-7.3-2.6-14.5-3.8-21.7c-0.3-1.8-0.8-3.4-2.2-4.7
	c-0.7-0.6-2.2-0.3-2.4,0.6c-0.5,2-0.9,4.1-1.3,6.1c-0.8,4.1-2.2,8-4.7,11.7c-1.1-0.4-2.1-0.8-3.1-1.1c-4-1.3-6.3-0.4-8.4,3.3
	c-0.8,1.4-1.4,2.9-2,4.4c-0.6,1.6-1.4,2.8-3.1,3.3c-4,1.2-5.9,4.3-6.4,8.2c-0.3,2.7-1.7,4.3-4.1,5.6c-1.9-1.1-3-2.8-3.8-4.7
	c-0.7-1.9-1.3-3.9-2-5.9c-0.2-0.5-0.6-1.3-1.1-1.4c-0.7-0.2-1.5,0.1-2.4,0.2c-0.3,2.6,0,5,0.2,7.3c0.2,2.7,0.5,5.4,0.6,8.1
	c0.1,3-0.7,4.2-3.6,4.8c-4.1,0.8-6.9,3.1-9,6.6c-2.2,3.7-4.3,3.8-6.8,0.1c-1.4-2-3.3-3.4-5.7-4.1c-2.7,2.1-3.5,4.7-2.9,8.1
	c1.1,6.2,2.4,12.2,5.3,17.9c2.4,4.6,3.7,9.5,3.7,14.7c0,5.5-2,9.8-6.2,13.4c-9.9,8.2-21.1,13.1-33.7,15.3c-7.1,1.3-14.3,2-21.5,1.9
	c-11.7-0.1-23.4-0.4-35-0.6c-2.6,0-4.7-0.8-6.5-2.5c-1.6-1.5-3.2-3.2-4.5-5c-2.5-3.3-4.8-6.8-7.2-10.2c-3.3-4.7-7-9.1-11.8-12.6
	c-1.4-1-2.7-2.3-3.8-3.6c-3-3.3-3.4-7.1-1.6-11.1c0.5-1.2,1.2-2.3,1.7-3.4c0.4-0.9-0.5-2-1.5-1.9c-0.9,0.1-1.8,0.5-2.8,0.7
	c-2.2,0.6-4.3,1.2-6.5,1.6c-1.2,0.2-2.6,0.2-3.8-0.1c-3.4-0.6-5.4-2.9-5.6-6.2c-0.1-1.6-0.1-3.2,0.2-4.8c1.1-4.8,1.7-9.8,4-14.3
	c1.4-2.9,0.8-5.9,0.7-9.1c-2.3,0.3-3.6,1.9-5,3c-2.9,2.2-5.9,3-9.6,1.7c-3-9.7-5-19.5-1.7-29.6c1.4-4.2,2.5-8.6,3.8-12.7
	c-0.8-1-1.6-0.5-2.3-0.2c-3.9,1.9-6.8,4.7-9,8.4c-1.5,2.6-2.9,5.3-4.4,8c-1.4,2.6-3.1,4.8-5.9,6.3c-3.9-5.3-3.5-11.1-2.5-17
	c1-6,4.5-10.4,8.6-14.4c-0.3-1.3-1.3-1-2-1.3c-0.6-0.3-1.2-0.4-1.8-0.7c-3.7-1.6-5-4-4.4-8c0.1-0.6,0.3-1.2,0.5-1.9
	c2.6-9.4,5.2-18.8,8.4-28c3.9-11.5,7.6-23.1,11.3-34.6c0.5-1.5,0.9-3.1,1.1-4.7c0.2-2.4-0.2-4.8-2-6.7c-3.1-3.5-3.5-7.4-1.5-11.6
	c1.3-2.8,1.7-5.7,2-9.1c-6,1.9-11,4.7-16.5,6.7c-1.3-1.9-1.6-3.9-1.7-6c-0.2-4.4,0.7-8.6,2.4-12.6c1.5-3.3,3.3-6.6,5.1-9.8
	c2.1-3.8,4.4-7.4,6.6-11.1c2.3-3.9,3.7-8.1,4.3-12.6c0.9-7.2,3.5-13.9,7.2-20.2c2.8-4.9,6.1-9.4,9.8-13.6c4.1-4.5,8.3-8.9,12.4-13.4
	c5.2-5.7,10.4-11.3,15.4-17.1c4.9-5.6,8.6-11.9,11.5-18.8c2.2-5.3,4.4-10.6,6.7-16c-0.9-0.9-1.6-1.7-2.4-2.5c-2.6-2.7-3-6-1.7-9.4
	c0.8-2.1,2-4,3-6c1-2,2.1-4,2.9-6c0.4-1.1,0.4-2.4,0.6-3.7c-3.4-1.1-6.7-0.1-10-0.9c0.1-0.8,0.1-1.6,0.5-2.2
	c1.3-2.5,2.6-5.2,4.2-7.5c7.4-10.4,15-20.7,22.5-31.1c1.2-1.7,2.3-3.5,3.3-5.3c1.8-3.4,2.2-6.9,1.1-10.7
	c-3.9-13.7-8.1-27.3-12.8-40.7c-1.9-5.4-4.7-10.2-8.8-14.1c-5.5-5.3-11.2-10.5-16.9-15.6c-1.8-1.6-3.6-3.1-5.2-4.5
	c0-1.5,0.9-1.6,1.6-1.8c1.7-0.5,3.4-1,5-1.6c3.5-1.3,5.1-2.7,7.7-6.4c-2.4-1.8-4.7-3.7-7.2-5.5c-2.9-2.1-5.2-4.7-6.4-8.1
	c-1.1-2.8-2.3-5.6-3.5-8.4c-2.2-5-4.5-9.9-6.8-14.8c-0.7-1.5-1.4-2.9-2.1-4.3c-1.8-3.8-1.4-7.1,1.7-10c1-1,2.1-2,3.1-3
	c0.8-0.8,1.7-1.5,2.5-2.2c3.3-3.3,3.4-5.5,0.2-9.1c-1.2-1.3-2.5-2.5-3.7-3.8c-3.4-3.4-6.3-7.2-8.7-11.4c-4.9-8.6-9.8-17.3-13.8-26.3
	c-0.6-1.3-1.2-2.6-1.5-4c-0.8-4.2-0.5-8.3,2.4-11.8c0.2-0.2,0.4-0.5,0.6-0.8c2.6-3.2,2.7-6.7,0.8-10.3c-2.1-4-3.8-8.1-4.8-12.5
	c-2.2-9.9-1.5-19.7,1.6-29.4c0.7-2.3,1.5-4.6,2.6-6.7c1.9-3.8,5-5.8,9.3-5.4c1.7,0.2,3.5,0.3,5.2,0.8c17.1,4.1,31.7,12.6,44.2,24.8
	c7.2,7.1,13.4,15,19,23.5c13,19.8,26,39.5,39.1,59.3c10.8,16.4,10.8,16.4,26.3,28.1c10,7.5,20,14.9,30.1,22.3
	c14.2,10.3,30.1,16.9,47,21c11.2,2.7,22.6,4.2,34.1,5c21.8,1.6,43.5,1,65.2-0.9c19.9-1.8,39.8-3.8,59.7-5.7
	c7.6-0.7,15.3-1.4,22.9-2.1c4.3-0.4,8.5-1.4,12.6-2.9c6-2.1,11.4-5.3,15.5-10.1c2.4-2.7,5.2-4.1,8.6-4.7c11.3-2.1,22.6-4.3,33.9-6.3
	c9.4-1.7,18.9-3.1,28.4-4.7c15-2.5,28.3-8.8,40.4-17.8c4.1-3.1,7.7-6.8,10.7-10.9c2.7-3.7,5.3-7.6,7.8-11.5
	c4.5-7.2,8.8-14.5,13.3-21.7c8.3-13.2,14.6-27.3,19.3-42.2c2.5-7.8,5-15.5,7.4-23.3c0.9-2.8,2.1-5.3,4.2-7.4c6.1-6,10.9-13,15.6-20
	c6.7-9.9,13.7-19.7,21.5-28.8c7.3-8.6,12.8-18.3,16.1-29.2c2.3-7.7,5.7-14.9,9.6-22c5.9-10.6,11.9-21.2,17.9-31.8
	c2.9-5.1,6.3-10,10.3-14.5c4.6-5.2,10-9.5,16.3-12.4c1.3-0.6,2.6-1.2,4-1.6c4.8-1.5,7.9-0.7,11,3.4c2,2.7,3.8,5.6,5.1,8.6
	c3.2,7.3,6,14.8,9,22.2c0.7,1.8,1.4,3.6,2.4,5.2c1.3,2.2,3.2,3.7,5.7,3.9c4.9,0.4,9.9,0.8,14.8,1c3.9,0.1,7.2-1.3,9.8-4.2
	c0.4-0.5,0.8-1,1.3-1.4c0.3-0.3,0.8-0.5,1.4-1c3.7,1.3,7.7,1.1,11.7,1.1c3.8,0.1,7.3,1,9.4,4.6c1,1.8,2.6,2.2,4.7,1.9
	c1.3-3.4,2.6-7,3.9-10.7c3.1,0.7,5.7,1.8,8.1,3.5c2,1.4,3.9,2.8,5.9,4.1c2.5,1.8,5.3,2.8,8.7,2.8c1.6-2.2,1.3-4.8,1.1-7.3
	c-0.3-3.5-0.8-7-1.3-10.5c-0.2-1.6-0.4-3.2-0.5-4.8c-0.1-1.1,0.3-1.9,1.5-2.1c1-0.2,1.9-0.1,2.5,0.8c1.6,2.4,3.2,4.8,4.8,7.1
	c0.9,1.3,1.8,2.7,2.8,3.9c1.6,1.8,3.2,1.8,4.9,0.1c1.2-1.2,2.3-2.7,3.3-4.1c2-2.9,4-5.8,5.9-8.7c3.1-4.5,6.8-8.4,11.1-11.8
	c16.1-12.7,32.7-24.6,49.3-36.6c2.1-1.6,4.3-2.1,6.7-1.3c1.4,0.4,2.6,1.2,3.3,2.6c2,4.2,4.2,8.3,6.1,12.5c1.3,2.9,1.9,6.1,2,9.3
	c0.4,10.6,0.9,21.1,0.3,31.7c-0.4,7.1-1.7,14-3.9,20.7c-1.5,4.7-3.6,9.2-6.2,13.5C1878.4,502.9,1878.2,504.3,1879,509.3z"/>
</svg>
