<?xml version="1.0" encoding="utf-8"?>
<!-- Generator: Adobe Illustrator 22.0.0, SVG Export Plug-In . SVG Version: 6.00 Build 0)  -->
<svg version="1.1" id="Layer_1" xmlns="http://www.w3.org/2000/svg" xmlns:xlink="http://www.w3.org/1999/xlink" x="0px" y="0px"
	 viewBox="0 0 2880 1800" enable-background="new 0 0 2880 1800" xml:space="preserve">
<path d="M1612.9,1063.8c-0.3,0.7-0.6,1.3-0.7,2c-1.9,9.2-4,18.4-5.6,27.7c-2.3,13.4-4.3,26.8-6.3,40.3c-3.6,23.4-6.3,46.9-6.3,70.7
	c0,9.1-0.4,18.2-0.6,27.3c0,1.6-0.1,3.2,0,4.8c0.1,3.3,1.5,5.9,4.5,7.3c2,1,4,1.9,6.1,2.8c2.9,1.3,5.9,2.4,8.8,3.8
	c11,5.1,16.8,13.8,17.9,25.8c0.2,2.1,0.2,4.2,0.3,6.2c0,0.5-0.2,0.9-0.3,1.6c-0.9,0.1-1.8,0.4-2.7,0.4c-13,0-25.9,0-38.9,0
	c-2.3,0-4.5-0.4-6.4-1.7c-2.6-1.8-5.4-3.5-7.7-5.6c-4.7-4.2-8.2-9.4-11.3-14.8c-2-3.5-3-7.4-3.2-11.5c-0.6-12.1-1.3-24.3-1.9-36.4
	c-0.5-10.7-1.6-21.4-4.8-31.7c-1.9-6-1.7-11.9-0.3-18c1.2-5.5,2.6-10.9,3.3-16.5c0.9-7.3,1.4-14.6,1.8-22
	c1.2-27.2,2.2-54.3,3.3-81.5c0.6-15.3,1.3-30.7,1.8-46c0.2-6.9,0.1-13.8,0.1-20.6c0-0.9-0.2-1.9-0.2-2.9c-2.1-0.9-4.2-0.7-6.2-0.9
	c-2.1-0.3-4.1-0.4-6.2-0.5c-4.1-0.3-8.3-0.5-12.4-0.8c-21.7-1.8-42.2-7.8-61-18.7c-26.1-15-51.6-30.9-75.6-49.2
	c-9.9-7.6-19.4-15.6-28.5-24.2c-14.3-13.6-31.1-22.9-50-28.3c-3.5-1-7.1-1.7-10.7-2.5c-0.6-0.1-1.2,0-2.1,0c-0.5,1-0.9,2-1.4,3
	c-0.6,1.5-1.3,2.9-1.9,4.4c-1.8,4.1-5,6.6-9.3,7.6c-3.9,0.9-7.9,1.5-11.8,2.2c-2.2,0.4-4.4,0.7-6.8,1c-0.3,2-0.7,3.9-0.9,5.8
	c-1.7,14.8-3.2,29.6-5.1,44.3c-2.4,19.3-6.9,38-15,55.8c-3.2,7-6.9,13.7-11.1,20.2c-10.6,16.4-21.1,32.8-31.7,49.2
	c-4.9,7.7-9.8,15.3-14.8,23c-7.9,12.2-13.7,25.3-16.9,39.5c-1.4,6.3-2.2,12.6-2.5,19c-1,21.3-0.2,42.5,0.6,63.8
	c0.2,6.1,0.3,12.2,0.5,18.2c0,1.3,0,2.6,0.1,3.8c0.5,5.1,2.9,7.3,8,7.7c3.7,0.2,7.3,0.7,11,0.9c9,0.5,15.7,4.6,20.6,12.2
	c4.2,6.5,7.5,13.4,9.9,20.7c1.4,4.4,0.4,6-4.2,6.3c-3.2,0.3-6.4,0.4-9.6,0.3c-5.1-0.1-10.2-0.4-15.3-0.6c-3.2-0.1-6.4-0.2-9.6,0
	c-8,0.5-15.6-1-22.7-4.8c-3.9-2.1-7.7-4.6-11.4-7.1c-3.2-2.2-5-5.3-5.6-9.2c-2-12.8-3.8-25.6-5.9-38.4c-2.4-15-4.9-30-7.6-44.9
	c-1.5-8.2-4.2-16.1-7.6-23.7c-1.9-4.2-3.4-8.6-4.1-13.2c-1.2-7.7,0.1-15,3.8-21.8c3.6-6.6,7.3-13.1,11-19.7
	c2.5-4.3,4.8-8.7,7.5-12.8c3.6-5.6,5-11.7,4.5-18.3c-0.4-4.6-0.9-9.2-1.4-13.8c0-0.4-0.4-0.8-0.7-1.7c-0.8,1.3-1.6,2.3-2.1,3.4
	c-1.9,3.9-4.3,7.5-7,10.9c-20.1,25.3-40.2,50.6-60.2,75.9c-3.9,4.9-7.7,9.8-11.2,15c-3.1,4.6-5.9,9.5-8.5,14.4
	c-3.6,6.6-5.3,13.7-5.4,21.2c-0.4,18.6-0.9,37.1-1.3,55.7c0,1.4,0.2,2.8,0.2,4.1c1.9,1.3,3.9,1.2,5.8,1.5c3,0.5,6,0.9,8.9,1.8
	c6,1.9,10.3,5.9,12.6,11.7c2.6,6.7,4.8,13.5,7.1,20.4c0.5,1.5,0.8,3.1,0.9,4.7c0.1,2.4-1,4-3.4,4.6c-1.9,0.4-3.8,0.7-5.7,0.8
	c-12.3,0.5-24.6-0.3-36.9-0.8c-3.7-0.1-6.8-1.7-9.2-4.6c-1.3-1.6-2.6-3.3-3.8-4.9c-3-4-5.9-8-8.9-11.9c-4-5.2-5.8-11-5.7-17.4
	c0-4.1,0.6-8.3,0.9-12.4c0.6-6.8,1.5-13.7,2-20.5c0.3-4.1,0.5-8.3,0.4-12.5c-0.3-15.5-1.1-31-3.4-46.4c-0.9-6-1-12.1,0.2-18.2
	c1.5-7.5,5-14.1,9.6-20.2c6-7.9,12.1-15.7,18-23.7c7.2-9.8,14.3-19.7,21.5-29.5c4.5-6.2,7.6-12.9,9.3-20.3
	c2.9-12.3,5.2-24.7,6.6-37.3c1.5-13.5,3-27,4.4-40.5c0.2-1.7,0.6-3.4,0.1-5.1c-1.5-0.1-1.6,1-1.9,1.9c-3.8,8.8-7.6,17.6-11.5,26.4
	c-4.6,10.2-9,20.5-14,30.5c-9.6,19.3-24.8,32.7-44.8,40.7c-8,3.2-16.2,4.8-24.8,4.8c-12.8-0.1-24.1-4.2-34.2-12.1
	c-5.5-4.3-10-9.4-13.9-15.1c-3.7-5.5-7-11.1-9.3-17.3c-3.3-8.9-8.4-16.5-15.1-23c-1.3-1.3-2.3-2.6-2.1-4.6c0.1-1.4,0.7-2.4,1.8-3.2
	c3.7-2.6,7.5-2.5,11.3-0.6c6.1,3.1,11.4,7.2,15.3,12.9c1.8,2.6,3.5,5.4,5.2,8c2.8,4.3,5.9,8.4,9.6,12c8.1,7.9,17.9,12.3,29,13.7
	c7.7,1,15-0.9,21.3-5.4c2.2-1.6,4.3-3.3,6.2-5.3c9.3-9.9,17.7-20.6,24.8-32.3c7.2-11.9,11.9-24.7,15.6-38
	c5.8-20.8,10.5-41.9,14.4-63.1c3.3-17.6,6.4-35.2,9.6-52.9c5.1-28.3,17.8-52.9,35.8-74.9c12.8-15.6,28.9-27,47.8-34.4
	c25.1-9.8,50.9-17.2,77.5-21.5c15.2-2.4,30.4-4,45.8-4.2c19.2-0.3,38.4,0.5,57.6,1.7c12.6,0.8,25.2,1.5,37.8,2.4
	c10.9,0.7,21.7,1.7,32.5,2.4c12.3,0.9,24.6,1.6,36.9,2.5c13.9,1,27.8,1.8,41.7,1.8c10.2,0,20.5,0.1,30.7-0.3
	c17.3-0.7,34.5-2.3,51.3-6.6c13.4-3.4,26.1-8.5,37.9-15.8c11.3-7,22.6-13.9,34-20.8c9.4-5.7,17.5-12.8,24.5-21.3
	c4.7-5.7,9.6-11.2,14.3-16.8c4.1-4.9,8.2-9.8,12.1-14.9c15.4-20.1,34.4-36.1,56.8-47.8c2.1-1.1,4.2-2.3,6.2-3.6
	c0.5-0.3,0.8-0.8,1.5-1.4c-4.7-1.6-9.5-1-13.7-2.6c0.1-0.5,0.1-0.9,0.3-1.1c4.7-6.5,9.2-13.1,14.2-19.4c2.8-3.5,6.2-6.4,9.4-9.6
	c3.2-3.1,7-2.4,10.8-1.6c0.6,0.1,1.1,0.6,1.7,0.9c6.2,3,12.8,4,19.6,3.6c3.5-0.2,7-0.4,10.5-0.5c4.5-0.1,7.7,2,9.3,6.2
	c1,2.4,1.9,4.8,2.6,7.2c0.9,3.2,2.8,5.3,5.7,6.7c2.3,1.1,4.6,2.1,7,3.1c4.5,1.9,8.5,4.4,12.1,7.7c11.3,10,22.2,20.3,32.6,31.2
	c3.5,3.7,7.1,7.4,10.7,11c8,8.1,16.7,15.3,26,21.9c8.1,5.8,16,11.7,23.8,17.8c6.4,5,12.4,10.6,17.8,16.7c2.9,3.2,3.1,6.9,0.6,10.4
	c-4.8,6.6-11.4,10.3-19.5,10.7c-11.5,0.6-23,0.8-34.5,1.1c-8.5,0.2-16.5-1.7-24.2-5.2c-5.4-2.5-10.6-5.3-15.9-8
	c-4.8-2.5-9.6-5-14.5-7.6c-4-2.1-8.3-3.2-12.9-3.4c-9.6-0.6-19.2-1.2-28.7-2.1c-13.3-1.2-22.9,4.1-29.2,15.8
	c-9.3,17.1-18.7,34.2-28,51.4c-12.2,22.5-21.5,46-27.9,70.8c-2.2,8.2-3.5,16.6-4.3,25c-1.5,15.4-2.6,30.9-4.8,46.3
	c-1.6,10.8-3.8,21.4-7.4,31.7c-2.7,7.7-6.2,15.1-10.6,22c-5,7.8-10,15.6-15,23.4c-1.3,2-2.5,4.1-3.6,6.2c-1.5,2.7-2.4,5.5-2.9,8.6
	c-3.2,19.9-6.4,39.8-9.6,59.7c-3.5,22.3-6.9,44.6-10.2,66.9c-2.1,14.2-4,28.5-5.7,42.8c-1.3,11.9-2.1,23.9-2.2,35.9
	c-0.1,18.7-0.3,37.4-0.4,56.2c0,1.4,0,2.9,0.2,4.3c0.4,3.7,2.4,6.2,5.9,7.4c2.4,0.8,4.9,1.3,7.4,1.9c3.9,1,7.7,2,11.6,3.1
	c2,0.6,3.9,1.5,5.2,3.3c4.4,5.9,8.8,11.8,13.2,17.7c0.7,1,1.4,2.2,1.8,3.4c1.1,2.8,0.2,4.7-2.5,5.8c-0.9,0.3-1.8,0.5-2.8,0.7
	c-3.6,0.6-7.3,1.1-10.9,1.6c-5.6,0.7-11.1,1.3-16.7,1.9c-1.4,0.2-2.9,0.3-4.3,0.4c-5.3,0.4-10.1-1.2-14.4-4.4c-1-0.8-2.1-1.5-3-2.4
	c-3.2-3.4-6.9-6.3-10.8-8.7c-4.1-2.6-6.4-6.1-7.1-10.9c-0.3-2.1-0.7-4.1-1.2-6.1c-0.9-3.4-1.7-6.8-3-10.1c-1.6-3.9-2.3-7.9-2.7-12.1
	c-0.5-5.1-1.2-10.2-2.2-15.2c-0.9-4.9-2.5-9.6-4.7-14.1c-2.8-5.7-3.4-11.6-1.9-17.7c0.8-3.3,1.6-6.5,2.5-9.8
	c1.6-6.1,2.5-12.2,2.4-18.5c-0.4-21.8-0.7-43.5-1.1-65.3c0-0.9-0.1-1.9-0.2-2.8C1613.5,1064,1613.2,1063.9,1612.9,1063.8z"/>
</svg>
