<?xml version="1.0" encoding="utf-8"?>
<!-- Generator: Adobe Illustrator 22.0.0, SVG Export Plug-In . SVG Version: 6.00 Build 0)  -->
<svg version="1.1" id="Layer_1" xmlns="http://www.w3.org/2000/svg" xmlns:xlink="http://www.w3.org/1999/xlink" x="0px" y="0px"
	 viewBox="0 0 2880 1800" enable-background="new 0 0 2880 1800" xml:space="preserve">
<path d="M1706.5,1112.4c-2.1,2.8-2.5,5.5-3,8.1c-1.7,9.4-3.2,18.9-4.8,28.4c-2.4,14.8-4.8,29.7-7.3,44.5c-2.9,17.1-4.5,34.2-5,51.5
	c0,0.8-0.1,1.6,0,2.4c0.5,3.9,2.1,7,6.2,8.3c5.4,1.6,9.1,5.1,11.8,9.9c1.5,2.6,2.9,5.3,4.1,8.1c1.3,3.1,0.1,4.9-3.3,5.2
	c-0.2,0-0.3,0-0.5,0c-7.5-0.4-15-0.7-22.5-1.2c-6.3-0.5-10.2-4.3-12.2-10c-1.2-3.5-2.1-7.1-2.9-10.6c-3.1-14.1-5-28.3-6.1-42.7
	c-1.5-21.7-1.9-43.5-1.1-65.2c0.5-13.6,0.7-27.2,1.3-40.8c0.5-12.1,1.4-24.3,2.2-36.4c0.4-6.5,0.9-13.1,1.3-19.6
	c0.8-13.6,1.6-27.1,2.4-40.7c0.1-1,0.2-1.9,0.2-2.9c-0.1-2.7-2.1-4.8-4.9-4.9c-1.4-0.1-2.9,0.1-4.3,0.4c-19.9,3.8-40,5-60.2,3.7
	c-12.9-0.8-25.8-2-38.6-4.6c-21-4.3-40.6-12.4-59.1-23.2c-9.7-5.6-18.9-12-27.9-18.7c-20.4-15.2-42-28.6-65-39.8
	c-14.5-7.1-29.5-13.2-44.8-18.4c-2-0.7-4-1.2-6-1.5c-2.5-0.4-4.4,0.6-5.6,2.8c-0.8,1.6-1.4,3.2-2,4.9c-6.7,19-13.3,38-20.2,57
	c-6.4,17.7-13.9,35.1-22.1,52.1c-7.1,14.6-17,26.7-29.7,36.5c-6.6,5.1-13.3,10-20.1,14.7c-26.9,18.5-53.9,36.8-80.8,55.3
	c-1.2,0.8-2.4,1.6-3.6,2.4c-4.2,2.8-6.8,6.7-7.6,11.7c-1.3,7.4-2.7,14.8-4.1,22.2c-3.3,16.7-5.2,33.5-6.8,50.4
	c-1.1,11.5-2.3,22.9-3.5,34.4c-0.2,1.6-0.3,3.2-0.2,4.8c0.1,2.3,1.3,3.9,3.5,4.7c0.6,0.2,1.2,0.4,1.8,0.6c5.1,1.2,8.8,4.4,11.5,8.8
	c1.6,2.6,3,5.3,4.2,8.1c1.7,4,0.5,5.9-3.9,6.5c-6.1,0.8-12.1,0.8-18.2-0.1c-1.4-0.2-2.8-0.6-4.2-1c-6.4-2-10.9-6.1-12.9-12.5
	c-1-3.3-1.8-6.8-2-10.3c-0.8-15.2-1.4-30.4-2-45.5c-0.7-17.1-1.2-34.2-2.1-51.3c-0.4-8-1.1-15.9-1-24c0.1-7.7,1.1-15.3,3-22.8
	c2.6-9.9,6.9-18.9,12.9-27.1c1-1.4,2-2.9,2.8-4.4c0.3-0.5-0.2-1.3-0.3-2.5c-1.2,0.6-2.1,1-2.8,1.5c-13.4,8.9-26.8,18-40.4,26.8
	c-3.1,2-4.5,4.7-4.9,8.3c-2.4,21.6-5,43.2-7.4,64.8c-2,18.1-3.9,36.3-5.8,54.4c-0.2,2.1-0.4,4.1-0.5,6.2c-0.1,3.4,0.9,5,4.2,6.1
	c4.8,1.6,8.3,4.8,10.7,9.1c1.3,2.4,2.5,4.8,3.7,7.3c0.4,0.8,0.7,1.8,0.9,2.7c0.3,2.1-0.6,3.4-2.6,3.9c-0.6,0.2-1.3,0.3-1.9,0.3
	c-6.9,0.4-13.8,0.6-20.6-0.6c-9.3-1.6-14.3-7.6-15.5-15.4c-1.5-10.3-2.7-20.6-2.7-31c0-11.7-0.4-23.3-0.6-35
	c-0.4-18.9-0.4-37.8,0.9-56.6c0.6-8.3,1.4-16.6,2.5-24.8c1.8-13.3,7.3-25.2,15.8-35.5c3.6-4.4,7.7-8.6,11.8-12.6
	c9.8-9.7,19.4-19.5,28.2-30.2c4.1-4.9,8-10,12-15c2-2.5,3.8-5.2,5.6-7.8c6.8-9.9,11.5-20.6,13-32.6c1.4-10.9,2.9-21.9,4.2-32.8
	c1.3-11.4,2.3-22.9,3.5-34.4c0.7-7.5,1.4-15,2.2-22.4c1-8.9,3.2-17.6,7.1-25.8c5.7-12,11.6-23.9,17.5-35.8c2.1-4.3,4.4-8.5,6.5-12.8
	c0.4-0.8,0.7-1.7,1.3-3.2c-1.7,0.7-2.7,1-3.6,1.5c-9.7,5.2-19.4,10.5-29.2,15.7c-17,9-33.9,18.1-50.9,26.8
	c-19.9,10.3-40.6,18.8-62.3,24.8c-21.5,6-43.5,9.2-65.8,9c-10.9-0.1-21.7-0.9-32.4-3.6c-8.4-2.1-16.5-5.2-24-9.6
	c-1.5-0.9-3-1.9-4.3-3.1c-2.4-2.3-2.6-5.2-0.9-8.3c1.7-3.1,4.3-4.5,7.6-3.6c2.3,0.6,4.5,1.6,6.6,2.7c8,4.2,16.6,6.6,25.5,8.1
	c10.6,1.7,21.3,1.8,32.1,0.8c32.2-3.1,62.5-12.9,91.5-26.9c15-7.3,29.4-15.5,43.8-23.9c19.9-11.7,39.6-23.5,59.9-34.4
	c16.9-9.1,34.3-17.2,52.6-23.2c16-5.3,32.3-9,49.1-10.8c6.2-0.7,12.4-1,18.7-1.2c20.3-0.5,40.6-0.1,60.9,1.1
	c19.3,1.1,38.6,2.3,57.9,3.9c17.4,1.4,34.7,3.4,52,5.2c15.3,1.6,30.5,3.5,45.8,4.8c18.7,1.6,37.4,1.9,56.1,1.6
	c6.2-0.1,12.5-0.2,18.7-0.4c14-0.3,27.1-3.6,39.5-10.5c21.6-12.1,39.4-28.3,53.7-48.4c5.5-7.8,10.7-16,15.9-24
	c6.3-9.8,12.4-19.8,18.8-29.5c7-10.7,14.8-20.8,24-29.9c12.1-12,25.8-21.4,41.9-27.2c3-1.1,5.2-2.8,7.1-5.4
	c4.4-6.3,9-12.4,13.5-18.6c6.9-9.5,13.1-19.3,17.5-30.2c1.1-2.8,2.8-5.4,4.4-8c2.5-4,3.4-4.5,8.7-6.1c0.9,0.5,0.6,1.3,0.6,2.1
	c0,5.6-1.2,11.1-2.3,16.6c-1.9,9.4-3.7,18.8-5.7,28.2c-0.6,2.7-0.2,5,1.5,7.1c2.7-0.3,4.4-1.8,5.6-4c3.7-6.7,7.4-13.4,11.1-20.2
	c1.6-2.9,3.3-5.9,4.8-8.9c1.8-3.5,4.8-5.4,8.8-6.5c0.1,1.6,0.3,3,0.3,4.4c0,2.1-0.1,4.2-0.5,6.2c-1.9,9.9-3.9,19.8-5.9,29.6
	c-0.1,0.5-0.3,0.9-0.3,1.4c-0.9,4.8-0.1,6.6,4.1,9.2c5.2,3.2,10.4,6.2,15.6,9.5c3,1.9,5.9,3.8,8.6,6c5.8,4.8,9.3,10.9,10.2,18.4
	c0.2,1.9,0.4,3.8,0.6,5.7c1.3,10.9,6.1,19.9,15.5,25.8c13,8.1,26.2,16,39.3,23.9c3,1.8,6.1,3.6,8.9,5.7c1.9,1.4,3.7,3.1,5.1,5
	c2.9,3.7,3.3,7.9,1.1,12.2c-0.9,1.8-2.1,3.6-3.5,5.1c-10,11.2-22.4,17.3-37.4,17.8c-23.4,0.9-46.3-1.8-68.8-8
	c-0.6-0.2-1.2-0.3-1.8-0.5c-5.1-1.5-9.5-0.6-14.2,2.1c-10,5.8-16.9,14-21.3,24.5c-3,7.3-5,14.8-6.5,22.5
	c-2.3,12.3-4.4,24.6-6.7,36.8c-2.6,13.9-6.3,27.4-12.3,40.3c-2.6,5.6-4.1,11.4-4.8,17.5c-1.4,10.9-2.7,21.9-4,32.9
	c-1.7,13.7-5,27-10.9,39.6c-5.2,11.1-12.2,21-20.9,29.7c-1.2,1.2-2.5,2.5-3.6,3.9c-1.3,1.7-2,3.6-2.2,5.8c-0.1,1.4-0.1,2.9-0.1,4.3
	c0.1,36.3,0,72.6,0.4,108.9c0.3,22.9,1.4,45.7,2.4,68.6c0.6,13.4,1.5,26.8,2.3,40.2c0.8,14.4,2.6,28.7,5.6,42.8
	c0.4,1.8,0.9,3.4,2.1,4.8c1.3,1.5,2.8,2.5,4.8,2.8c5.3,0.9,9.5,3.8,12.7,7.9c2.1,2.6,3.9,5.4,5.9,8.2c0.5,0.6,0.8,1.4,1.1,2.1
	c0.6,1.7-0.1,3.3-1.8,3.9c-0.9,0.3-1.9,0.5-2.8,0.6c-7,0.3-14.1,0.4-21.1-0.3c-5.1-0.5-8.7-3-11.5-7c-3.7-5.3-6.8-10.8-9.3-16.8
	c-5.9-14.2-10.7-28.8-14.7-43.6c-5.1-19-9-38.3-12.5-57.6c-1.6-9-3.2-17.9-4.9-26.9C1707.2,1113.8,1707,1113.4,1706.5,1112.4z"/>
</svg>
