<?xml version="1.0" encoding="utf-8"?>
<!-- Generator: Adobe Illustrator 22.0.0, SVG Export Plug-In . SVG Version: 6.00 Build 0)  -->
<svg version="1.1" id="Layer_1" xmlns="http://www.w3.org/2000/svg" xmlns:xlink="http://www.w3.org/1999/xlink" x="0px" y="0px"
	 viewBox="0 0 2880 1800" enable-background="new 0 0 2880 1800" xml:space="preserve">
<path d="M1744.4,350.2c1,0.8,1.8,1.4,2.5,2c19.6,18.2,39.2,36.3,58.7,54.5c0.7,0.7,1.4,1.4,2.1,2c8.5,7.3,12.5,16.8,14,27.6
	c2.7,19.4-1.5,37.5-10.2,54.8c-0.6,1.3-1.3,2.6-1.9,3.9c-0.1,0.1,0.1,0.3,0.2,0.8c1.6,0.6,3.6,0.3,5.4,0.3c1.9,0.1,3.8,0,5.8,0
	c1.9,0,3.8,0.1,5.6,0.1c1.5,4.3,3.6,23.3,4,35.4c-0.9,1.3-2.5,1.3-3.8,1.5c-5.3,1.1-10.7,2-16,3.1c-0.6,0.1-1.1,0.3-1.6,0.5
	c-0.1,0.4-0.1,0.6-0.1,0.7c0,0.2,0.1,0.3,0.2,0.4c0.1,0.1,0.2,0.2,0.3,0.4c0.4,0.3,0.7,0.7,1.1,1c18.3,15.8,36.6,31.5,54.9,47.3
	c0.1,0.1,0.1,0.3,0.2,0.5c-0.3,1.1-1.2,0.7-1.9,0.7c-10.1-0.7-20.1-1.5-30.1-2.2c-0.5,0-0.9,0.1-1.4,0.1c-0.7,1.5,0.4,2.5,1,3.5
	c7.5,12.9,15,25.7,22.5,38.5c3.2,5.4,6.3,10.8,9.4,16.2c0.8,1.4,1.5,2.8,2.6,4.6c-1.2-0.2-1.9-0.1-2.6-0.4
	c-7.7-2.7-15.4-5.4-23.1-8.1c-5.1-1.8-4.1-1.8-8.6,1.4c-0.5,0.3-0.9,0.9-1.5,1.4c3.3,5.2,7,10,10.6,14.9c3.4,4.8,6.9,9.6,10.4,14.4
	c3.5,4.9,7.1,9.9,10.6,14.8c3.4,4.8,6.9,9.5,10.2,14.3c-0.8,1.2-1.6,0.6-2.3,0.5c-6.2-1.5-12.4-3.1-18.6-4.6
	c-1.2-0.3-2.5-0.5-3.7-0.8c-1.2,1.2-0.5,2.5-0.3,3.7c2.6,13.3,5.1,26.7,7.7,40c0.1,0.6,0.1,1.2,0.2,2.1c-4.9,1.2-9.9-0.1-15,0.8
	c0.1,1,0.1,1.9,0.3,2.8c1.3,4.6,2.5,9.3,2.7,14.1c0.1,2.1,0.1,4.2-0.1,6.2c-0.9,7.8-5.6,12.4-13.5,13.1c-4,0.4-8,0.2-11.9-0.5
	c-2.1-0.4-4.3-0.8-6.7-1.2c-0.2,2.8,0.2,5.1,0.7,7.4c0.9,3.9,2,7.7,2.9,11.6c0.7,3.3,1.5,6.6,1.9,9.9c1,7.9-1.8,14.2-8.6,18.4
	c-3,1.8-6.2,3.2-9.7,5c-0.9,1.2-1.1,3-1.1,4.7c-0.2,5.4,0.6,10.5,3.6,15.1c9.2,14.4,18.4,28.9,27.5,43.3c2,3.1,4,6.2,6.1,9.5
	c-0.9,0.6-1.6,1.2-2.3,1.6c-3.1,1.6-6.3,3.1-9.5,4.6c-1,0.5-1.9,1.1-2.9,1.6c0.3,2,1.6,3.3,2.6,4.7c11,15.7,22.1,31.4,33.1,47.1
	c4.7,6.7,9.4,13.3,14.1,20c0.6,0.8,1,1.8,1.7,3.1c-7.1-0.7-13.4-3.1-20.4-3.6c0,5.4,1.3,10.4,1.9,15.4c0.6,5.2,1.5,10.4,2.3,15.7
	c0.8,5.1,1.6,10.1,2.3,15.2c0.7,5.1,1.4,10.1,2.2,15.2c0.8,5.2,1.7,10.4,2.4,15.6c0.6,5,1.8,10,2,15.4c-6.1,0.1-11.8-1.6-18-1.9
	c0.6,3.7,2.1,6.7,3.2,9.8c1,3,2.2,6,3.3,9c1.1,3.1,2.2,6.3,3.3,9.3c-1,1.1-1.7,0.4-2.3,0.1c-6.4-3.3-12.8-6.7-19.1-10
	c-1.4-0.7-2.8-1.3-4.7-2.2c1.2,9.3,3.6,17.7,4.8,26.2c-1.2,1-2,0.2-2.7-0.2c-6.4-3.4-12.7-6.8-19-10.2c-1.1-0.6-2.3-1-3.7-1.6
	c-0.8,2.3-0.6,4.4-0.8,6.4c-0.2,2.1-0.4,4.1-0.6,6.2c-0.2,2.2-0.3,4.5-0.5,6.7c-0.2,2.1-0.3,4.1-0.6,6.2c-0.2,2,0.2,4.1-1,6.3
	c-3.6-3.3-6.3-7.1-9.3-10.6c-2.9-3.4-5.7-6.9-8.6-10.2c-1.9-0.3-3.2,0.7-4.6,1.5c-0.3,1.8,0.4,3.5,0.8,5.2
	c3.9,16.5,7.8,33,11.7,49.5c0.2,1,0.3,2.1,0.5,3.5c-2.6-0.7-4.1-2.5-5.8-3.7c-1.8-1.3-3.6-2.7-5.4-4c-1.8-1.3-3.6-2.6-5.2-3.9
	c-1.3,0.4-1.1,1.3-1.1,2c0.5,7.2,1.1,14.4,1.6,21.5c0.1,1.7,0.6,3.5,0.1,5.1c-2.4,1.3-4,0.6-5.6-1.2c-4.8-5.6-9.6-11.2-14.4-16.7
	c-1-1.2-1.7-2.7-3.4-3.2c-0.3,0.5-0.7,0.9-0.8,1.3c-1.5,7.8-3.9,15.5-4.5,23.5c-0.2,3.3-0.4,6.7-0.2,10.1
	c0.5,11.5,2.3,22.9,3.9,34.3c0.5,3.8,1,7.6,1.5,12c-1.5-0.9-2.4-1.3-3.2-1.9c-7.2-5.8-14.5-11.6-21.7-17.4c-1.1-0.9-2.3-1.7-4-2.9
	c0.3,1.7,0.3,2.8,0.6,3.8c3.1,10.3,6.2,20.5,9.3,30.7c0.5,1.5,0.8,3,1.4,4.9c-3.6,0.5-6.9-0.3-10.2-0.4c-3.3-0.1-6.7-0.5-10.3-0.2
	c0.1,1.2,0.2,2.1,0.4,2.9c1.5,7.5,3.1,15,4.6,22.5c0.3,1.5,0.9,3.1,0.3,4.9c-7-1.2-13.5-3.8-20.6-5c-0.2,0.9-0.5,1.6-0.6,2.4
	c-1.5,9.8-1.2,19.5,1.4,29c3.4,12.3,10.4,22.2,20.8,29.7c5.2,3.8,10.9,6.7,16.9,9.1c1.5,0.6,2.9,1.2,4.3,1.7c0.6,1.9,0,3.4-0.5,4.9
	c-1.5,5-3.2,10.1-4.6,15.1c-1.1,3.7-2.1,7.4-3,11.1c-1,4.4-0.8,8.8,1,13.2c1.9,4.8,3.4,9.7,3.6,14.8c0.1,2.2,0,4.5-0.3,6.7
	c-0.7,4.3-3.2,7.6-6.8,10.1c-2.8,2-5.9,3.3-9.1,4.1c-3.4,0.9-6.8,1.7-10.3,2.1c-4.8,0.6-9.4,1.7-13.9,3.7c-1.3,0.6-2.7,1-4,1.6
	c-2.1,0.9-4.2,1.3-6.5,1.3c-25.4,0-50.9,0-76.3,0c-2.1,0-4-0.2-5.9-1.5c-7.8-5.3-15.6-10.6-23.5-15.8c-0.5-0.4-1-0.8-1.5-1.3
	c-0.8-4.4,0.3-8.9-0.7-13.6c-4.6,1.5-8.6,3.8-12.8,5.6c-4.2,1.8-8.2,4.2-13,5.8c0.4-4.4,2-8.1,3-11.9c0.9-3.7,2-7.4,3.1-11.1
	c1.1-3.8,2.1-7.6,3.3-11.8c-5.5-1.1-10.8-0.1-16.2-0.8c0.2-1.3,0.2-2.3,0.6-3.3c2.2-7.2,4.5-14.3,6.8-21.5c0.5-1.5,0.8-3,1.3-4.7
	c-4.3-0.6-8.2,1.2-12.4,0.5c1.2-6.7,3.1-12.9,4.7-19.2c1.6-6.3,3.1-12.7,4.7-18.8c-1-1.1-1.7-0.4-2.4-0.2c-3.1,1.2-6.2,2.5-9.4,3.7
	c-1.2,0.5-2.4,0.8-3.3,1.2c-1.3-0.8-1.1-1.8-1.1-2.7c0-5,0-9.9,0-14.9c0-1.6,0-3.2,0-5.1c-1.2,0.2-2.1,0.2-2.9,0.5
	c-3.2,1.1-6.3,2.3-9.5,3.5c-0.9,0.3-1.8,0.5-2.9,0.8c-2.3-7.6-2.7-15.2-5-23c-2.2,2-3.6,4.1-5.3,6c-1.7,1.9-3,4.1-5.3,6
	c-0.6-1.3-1.1-2.2-1.5-3.2c-3-7.4-6-14.8-9-22.2c-0.5-1.3-0.7-2.8-2.3-3.8c-3.6,6.8-7.2,13.5-11,20.6c-5.6-3.5-10.2-8-15.7-11.5
	c-0.1,0.7-0.4,1.1-0.3,1.5c1.7,5,3.6,9.9,5.3,14.9c1.6,4.5,4.1,8.3,8,11.1c4.4,3.2,8.7,6.5,13.1,9.7c4.4,3.2,8.8,6.4,13.1,9.8
	c8.8,7,13.8,16.3,15.6,27.3c1.3,7.9,1.1,8.6-6.4,12.2c-6,2.8-12.3,4.4-18.9,5c-8.8,0.8-17.5,2.2-26.2,3.1c-8.6,1-17.2,1.5-25.9,0.7
	c-13.9-1.4-26-6.6-35.8-16.5c-3.1-3.2-6-6.7-8.7-10.2c-3.2-4.2-6.1-8.6-9.2-12.9c-3.4-4.7-7-9.2-11.1-13.2c-1.9-1.9-3.5-4.2-5.3-6.2
	c-1.9-2.2-3.7-4.5-5.9-6.3c-4.5-3.9-8.8-4-13.5-0.5c-1.7,1.2-3.1,2.8-4.6,4.2c-1,1-1.9,2.2-2.7,3.2c-1.6-0.4-1-1.6-1-2.4
	c0-9.3,0-18.6,0-27.8c0-15,0-30.1,0-45.1c0-1.5-0.1-3.1-0.2-5c-2.3,0.7-3.6,2.2-5.1,3.2c-1.7,1.2-3.3,2.5-4.9,3.8
	c-1.5,1.2-3,2.4-4.6,3.5c-1.5,1.1-2.7,2.6-5.1,3.1c0.8-8.4,1.6-16.4,2.4-24.4c-2.6-2.8-17.1-13.7-21.3-16c-3.2,2.2-5.2,5.8-8.6,8.4
	c-1.4-2-1.9-4.1-2.7-6.1c-0.8-1.9-1.5-3.9-2.2-5.8c-0.8-2.1-1.6-4.2-2.4-6.3c-0.7-1.9-1.5-3.8-2.3-6c-4.5,2.5-7.6,6.3-11.9,9
	c-0.6-0.6-1.3-1.2-1.7-1.9c-2.1-3.4-4.1-6.9-6.2-10.3c-0.7-1.2-1.5-2.4-2.5-3.9c-0.7,1-1.3,1.7-1.6,2.5c-3.1,6.8-6.2,13.7-9.3,20.5
	c-0.5,1.1-1.2,2.2-1.9,3.5c-2.3-2.1-3.7-4.4-5.4-6.5c-1.6-1.9-3-4.1-5.1-6.1c-1.8,3-2.4,6-3.4,8.8c-1,2.7-1.8,5.5-2.8,8.2
	c-1,2.8-1.8,5.7-3,8.3c-0.5,0.1-0.7,0.2-0.8,0.2c-0.1,0-0.3-0.1-0.4-0.2c-3.1-4.3-6.2-8.5-9.4-12.9c-2.5,0.3-4.2,1.4-4.9,3.8
	c-4.8,15.7-10.6,31.2-14.4,47.2c-3.3,13.8-4.5,27.8-3.1,41.9c1.3,12.5,4.7,24.5,10,35.9c5,10.7,11.4,20.4,18.7,29.5
	c2.6,3.2,5,6.6,7.3,10.1c1.8,2.7,3,5.6,3.7,8.8c0.9,4.1-0.1,7.7-3.3,10.4c-1.9,1.6-4.1,3.1-6.4,4c-3.5,1.4-7.2,2.7-10.9,3.5
	c-17.6,3.7-35.4,5.5-53.4,4.4c-4.3-0.3-8.6-1.1-12.6-2.6c-10.5-3.7-16.4-11.3-18.3-22.1c-0.7-4.1-1.1-8.3-0.5-12.4
	c0.7-4.8-0.2-9.2-2.2-13.5c-1.4-3-3-6-4.5-9c-1.6-3.1-3.3-6.2-5-9.6c-0.9,0.5-1.7,0.8-2.4,1.3c-3.7,3-7.4,6.1-11.1,9.2
	c-1.1,0.9-2.2,1.7-3.7,2.8c-1.2-4-0.7-7.9-1.5-11.8c-5.6-2.6-11.5-4.5-17.3-6.7c-5.6-2.2-11.3-4.3-17.1-6.5c0.1-1.3,0.1-2.4,0.3-3.5
	c2.9-14.2,5.9-28.5,8.8-42.7c0.2-1.1,0.3-2.2,0.5-3.6c-4.3,1.4-7.5,4.1-11.1,6c-3.5,1.9-6.7,4.2-10.1,5.9c-1.3-0.7-1-1.5-1-2.3
	c0.5-6.5,0.9-13.1,1.4-19.6c0.8-10.7,1.7-21.4,2.6-32c0.2-2.2,0.4-4.5,0.6-6.7c0.1-1.6,0.2-3.1,0.2-5c-3.9,0.7-6.9,2.5-10.1,3.9
	c-3.4,1.4-6.7,3-10.1,4.4c-3.2,1.4-6.4,2.8-9.7,4.2c-3.2,1.4-6.4,2.8-9.4,4.1c-1.2-0.8-0.6-1.3-0.3-1.9c0.3-0.6,0.6-1.1,0.9-1.7
	c9.1-16.5,18.2-33,27.4-49.6c1.4-2.5,2.7-5,4.1-7.6c-1.2-2.3-3-3.9-4.9-5.5c-9.7,2.7-19,6.5-29.2,9.3c0.9-2.9,2.6-4.6,3.8-6.6
	c1.3-2,2.6-4,4-6c1.2-1.9,2.5-3.7,3.7-5.6c1.3-2,2.7-4,4-6c1.3-2,2.7-3.9,4-6.3c-4.8-2-9.7-0.7-14.3-2c-0.7-1.5,0.3-2.6,0.8-3.6
	c4.8-10.5,9.7-20.9,14.6-31.3c0.6-1.3,1-2.6,1.8-4.5c-2.9,1.1-4.7,2.6-6.7,3.8c-2.2,1.3-4.4,2.7-6.5,4c-2,1.3-4.1,2.6-6.1,3.8
	c-2,1.2-4,2.5-6,3.7c-1.4-1.2-0.7-2.3-0.5-3.3c1.6-6.8,3.3-13.7,5-20.5c0.2-0.8,0.3-1.6,0.4-2.5c-2.8-1.7-6.1-2-9.1-3
	c-3-1-6.1-1.8-9.5-2.8c0.4-1,0.6-2,1-2.7c3.9-6,7.8-12.1,11.9-18c4.8-7,9.9-13.8,14.8-20.7c4.6-6.5,8.9-13.3,12.5-20.5
	c4.1-8.2,7.2-16.7,8.6-25.8c1.1-7.5,1-15,0.1-22.5c-0.1-1.1-0.5-2.2-0.8-3.3c-5.2-2.1-10.7-2.9-15.9-5c0.3-1.6,1.6-1.8,2.5-2.2
	c7-3.4,14.1-6.8,21.2-10.2c1.3-0.6,2.5-1.3,4-2.1c-0.8-2-2.1-3.3-3.2-4.8c-0.8-1-1.9-1.1-3-1.3c-6.6-1.2-13.2-2.4-19.8-3.6
	c-2.2-0.4-4.4-0.7-6.6-1.2c-0.7-0.1-1.5-0.5-2.7-0.9c4.1-2.8,8.3-4.4,12.2-6.3c4-2,8-3.9,12.1-5.9c4-2,8.1-3.9,12.1-5.9
	c4-2,8.1-3.9,12.1-5.9c4-2,8-3.9,12.4-6.1c-0.9-0.7-1.4-1.3-2-1.6c-4.4-2.2-8.9-4.4-13.4-6.5c-1-0.5-1.9-1-3.1-1.7
	c1.7-2.3,3.9-3.7,5.8-5.4c1.9-1.7,3.9-3.3,5.8-5c1.9-1.7,3.9-3.3,5.8-5c2.1-1.8,4.1-3.5,6.2-5.3c1.9-1.7,3.9-3.3,5.8-5
	s3.9-3.3,5.8-5c1.9-1.6,3.9-3.1,5.9-5.4c-7.2-2.4-14.2-3.2-21.1-5.5c1.2-10.5,3.8-20.7,5-31.6c-2.7,1.3-4.5,2.8-6.4,4.1
	c-2,1.4-3.9,2.8-5.9,4.2c-2,1.4-3.9,2.8-5.9,4.2s-3.9,2.8-5.9,4.2c-1.9,1.3-3.7,2.8-6.4,4.2c1.1-5.8,3-10.7,4.5-15.7
	c1.5-5.1,3.1-10.1,4.6-15.1c1.5-5,3.3-10,4.5-15.4c-5.5-0.2-10.6,1.6-16.1,1.7c0.1-1,0.1-1.7,0.3-2.4c1.4-5.2,3-10.4,4.4-15.7
	c1.9-7.6,4-15.2,5.6-22.8c5.3-25.3,25-45.6,50.2-51.2c14.2-3.1,27.7-1.1,40.4,5.9c6.2,3.4,11.8,7.6,17,12.4c5.3,4.9,10.3,10,15.5,15
	c6.1,5.9,12.1,11.9,18.3,17.7c4.5,4.2,9.5,7.6,14.9,10.5c6,3.2,12.4,4.9,19.2,5.3c15,0.7,30,1.7,45,2.5c6.5,0.4,13.1,0.7,19.6,1
	c17.3,0.8,34.5,1.6,51.8,2.3c20.1,0.8,40.3,1.7,60.4,2.4c8.3,0.3,16.6,0.5,25,0.6c12,0.2,24-1.2,35.9-2.6c6.5-0.7,13-1.5,19.5-2.3
	c0.8-0.1,1.6-0.3,2.5-0.4c0.9-3.2,0.4-6.3,0.2-9.7c-13.2-4.8-26.5-8.7-39.7-13.4c-1.7-6-1.8-12.3-3.4-18.6c-1.2,0-2.2-0.1-3.3,0
	c-3.8,0.4-7.6,1-11.4,1.4c-1.2,0.1-2.5,0-4,0c0.5-2.5,0.9-4.6,1.4-6.8c0.9-3.8,0.2-7.3-2.1-10.5c-0.2-0.3-0.3-0.5-0.5-0.8
	c-5.4-6.4-8.1-14.1-10.3-22c-0.8-3.1-1.7-6.2-2.6-9.2c-0.4-1.5-1-3-1.5-4.7c-1-0.2-1.9-0.4-2.8-0.6c-2.2-0.3-3.4-1.7-3.7-3.8
	c-0.2-1.6-0.3-3.2-0.2-4.8c0.1-2.4,0.4-4.8,0.5-7.2c0-1.1,0-2.2-0.2-3.3c-0.2-1.3-1.6-2.2-2.9-1.9c-1.4,0.4-2.8,0.8-4,1.6
	c-1.9,1.1-3.7,2.4-5.6,3.7c-0.8,0.5-1.6,0.9-2.9,1.6c1-6.1,3-11.3,4.4-16.6c1.4-5.4,3.3-10.6,4.5-16.3c-2.9-2.4-6-4.3-9-6.4
	c-2.9-2-5.8-4-8.5-5.9c-0.1-1.5,1-1.8,1.7-2.3c3-1.9,6-3.7,9-5.6c0.9-0.6,1.8-1.3,3-2.1c-2.4-2.7-5-4.6-8.1-6
	c-2.6-1.2-5.2-2.5-7.6-4.1c-8-5.2-12.4-12.6-13.5-22.1c-0.8-6.9,0-13.7,1.5-20.5c0.6-2.6,0.2-4.5-1.5-6.5c-6-7.1-8.9-15.5-9.3-24.7
	c-0.2-6.1,0.2-12.1,0.5-18.2c0.2-5,0.8-9.9,1.1-14.8c0.3-5.1,0-10.2-0.8-15.3c-1-6.1-3.2-11.7-6.7-16.8c-0.8-1.2-1.6-2.3-2.3-3.4
	c0.5-1.2,1.4-1,2.1-1.1c10-1.3,20-2.6,30-3.7c7-0.7,14-1.1,21.1-1.4c14.3-0.6,28.4,0.3,42.5,3.1c27.2,5.3,49.8,18.7,68.1,39.3
	c1.2,1.3,2.4,2.6,3.6,3.8c0.1,0.1,0.3,0.1,0.7,0.1c0.4-1.1,0.8-2.2,1.3-3.4c1.6-4,3-8.1,4.9-12c1.6-3.1,3.5-6.1,5.7-8.8
	c5.9-7.1,13.6-9.7,22.7-8.8c5.3,0.5,10.4,1.8,15.3,3.9c5.7,2.4,11.4,5.1,17.4,7.9c0.6-0.4,1.5-0.9,2.3-1.6c2.8-2.6,5.7-5.2,8.4-7.8
	c7-6.6,15-11.4,24.1-14.3c4.4-1.4,8.8-2.9,13.2-4.4c4-1.4,5.2-3.5,4.5-7.7c-2.8-16.8,0.3-32.4,9.6-46.8c4.3-6.8,9.4-12.9,15.2-18.5
	c5.6-5.5,11.3-10.8,17.2-16.1c12.7-11.3,25.5-22.4,38.2-33.6C1742.6,351.7,1743.3,351.1,1744.4,350.2z"/>
</svg>
